M48
;DRILL file {KiCad (5.0.0)} date 01/09/19 00:46:11
;FORMAT={-:-/ absolute / metric / decimal}
FMAT,2
METRIC,TZ
T1C0.500
T2C0.700
T3C0.800
T4C1.000
T5C1.001
T6C1.016
T7C1.100
T8C1.320
T9C1.780
T10C3.200
%
G90
G05
M71
T1
X9.Y-15.
X10.Y-12.
X10.5Y-33.5
X10.732Y-16.524
X12.Y-29.2
X15.5Y-33.5
X16.Y-4.25
X16.279Y-6.804
X24.75Y-12.
X26.5Y-11.75
X44.25Y-37.
X44.75Y-25.75
X47.Y-36.75
X47.25Y-25.793
X86.Y-20.25
X86.Y-31.5
X88.Y-40.75
X98.25Y-7.75
X1.6Y-16.
X2.303Y-14.303
X2.303Y-17.697
X4.Y-13.6
X4.Y-18.4
X5.697Y-14.303
X5.697Y-17.697
X6.4Y-16.
X81.85Y-16.
X82.553Y-14.303
X82.553Y-17.697
X84.25Y-13.6
X84.25Y-18.4
X85.947Y-14.303
X85.947Y-17.697
X86.65Y-16.
X93.6Y-96.25
X94.303Y-94.553
X94.303Y-97.947
X96.Y-93.85
X96.Y-98.65
X97.697Y-94.553
X97.697Y-97.947
X98.4Y-96.25
X1.35Y-96.25
X2.053Y-94.553
X2.053Y-97.947
X3.75Y-93.85
X3.75Y-98.65
X5.447Y-94.553
X5.447Y-97.947
X6.15Y-96.25
T2
X27.75Y-83.
X41.25Y-70.
X41.25Y-72.75
X43.5Y-83.
X46.25Y-57.3
X46.25Y-60.
X55.25Y-47.
X55.25Y-49.75
X58.5Y-83.5
X73.25Y-82.75
X87.5Y-28.
X88.75Y-47.155
X88.75Y-49.855
X88.75Y-57.079
X88.75Y-59.779
X5.08Y-39.5
X7.62Y-39.5
X5.08Y-25.4
X7.62Y-25.4
T3
X39.197Y-10.89
X42.997Y-10.89
X77.275Y-39.589
X79.325Y-32.089
X63.467Y-10.89
X67.267Y-10.89
X25.95Y-24.2
X28.Y-16.7
X51.737Y-11.
X55.537Y-11.
X20.747Y-24.2
X22.797Y-16.7
X10.16Y-31.75
X10.16Y-39.37
X12.7Y-31.75
X12.7Y-39.37
X15.24Y-31.75
X15.24Y-39.37
X17.78Y-31.75
X17.78Y-39.37
T4
X48.26Y-81.597
X53.26Y-81.597
X48.26Y-48.26
X53.26Y-48.26
X6.Y-32.75
X48.26Y-70.485
X53.26Y-70.485
X48.26Y-92.71
X53.26Y-92.71
X2.54Y-33.02
X2.54Y-35.56
X2.54Y-38.1
X52.Y-5.5
X54.54Y-5.5
X41.Y-5.5
X43.54Y-5.5
X34.Y-29.
X62.902Y-35.02
X67.902Y-35.02
X6.Y-29.
X48.26Y-59.372
X53.26Y-59.372
X2.54Y-22.86
X2.54Y-25.4
X2.54Y-27.94
X51.172Y-35.
X56.172Y-35.
X6.Y-36.5
X38.37Y-35.02
X43.37Y-35.02
T5
X50.54Y-17.501
X50.54Y-28.499
X56.54Y-17.501
X56.54Y-28.499
X38.Y-17.501
X38.Y-28.499
X44.Y-17.501
X44.Y-28.499
X62.27Y-17.501
X62.27Y-28.499
X68.27Y-17.501
X68.27Y-28.499
T6
X63.667Y-71.
X63.667Y-73.54
X63.667Y-76.08
X63.667Y-78.62
X63.667Y-81.16
X63.667Y-83.7
X63.667Y-86.24
X63.667Y-88.78
X66.207Y-71.
X66.207Y-73.54
X66.207Y-76.08
X66.207Y-78.62
X66.207Y-81.16
X66.207Y-83.7
X66.207Y-86.24
X66.207Y-88.78
X34.333Y-71.
X34.333Y-73.54
X34.333Y-76.08
X34.333Y-78.62
X34.333Y-81.16
X34.333Y-83.7
X34.333Y-86.24
X34.333Y-88.78
X36.873Y-71.
X36.873Y-73.54
X36.873Y-76.08
X36.873Y-78.62
X36.873Y-81.16
X36.873Y-83.7
X36.873Y-86.24
X36.873Y-88.78
X63.667Y-48.535
X63.667Y-51.075
X63.667Y-53.615
X63.667Y-56.155
X63.667Y-58.695
X66.207Y-48.535
X66.207Y-51.075
X66.207Y-53.615
X66.207Y-56.155
X66.207Y-58.695
X78.333Y-48.535
X78.333Y-51.075
X78.333Y-53.615
X78.333Y-56.155
X78.333Y-58.695
X80.873Y-48.535
X80.873Y-51.075
X80.873Y-53.615
X80.873Y-56.155
X80.873Y-58.695
X34.29Y-48.535
X34.29Y-51.075
X34.29Y-53.615
X34.29Y-56.155
X34.29Y-58.695
X36.83Y-48.535
X36.83Y-51.075
X36.83Y-53.615
X36.83Y-56.155
X36.83Y-58.695
X19.667Y-71.
X19.667Y-73.54
X19.667Y-76.08
X19.667Y-78.62
X19.667Y-81.16
X19.667Y-83.7
X19.667Y-86.24
X19.667Y-88.78
X22.207Y-71.
X22.207Y-73.54
X22.207Y-76.08
X22.207Y-78.62
X22.207Y-81.16
X22.207Y-83.7
X22.207Y-86.24
X22.207Y-88.78
X93.Y-71.
X93.Y-73.54
X93.Y-76.08
X93.Y-78.62
X93.Y-81.16
X95.54Y-71.
X95.54Y-73.54
X95.54Y-76.08
X95.54Y-78.62
X95.54Y-81.16
X19.667Y-48.535
X19.667Y-51.075
X19.667Y-53.615
X19.667Y-56.155
X19.667Y-58.695
X22.207Y-48.535
X22.207Y-51.075
X22.207Y-53.615
X22.207Y-56.155
X22.207Y-58.695
X93.Y-48.535
X93.Y-51.075
X93.Y-53.615
X93.Y-56.155
X93.Y-58.695
X95.54Y-48.535
X95.54Y-51.075
X95.54Y-53.615
X95.54Y-56.155
X95.54Y-58.695
X78.333Y-71.
X78.333Y-73.54
X78.333Y-76.08
X78.333Y-78.62
X78.333Y-81.16
X78.333Y-83.7
X78.333Y-86.24
X78.333Y-88.78
X80.873Y-71.
X80.873Y-73.54
X80.873Y-76.08
X80.873Y-78.62
X80.873Y-81.16
X80.873Y-83.7
X80.873Y-86.24
X80.873Y-88.78
X5.Y-48.535
X5.Y-51.075
X5.Y-53.615
X5.Y-56.155
X5.Y-58.695
X7.54Y-48.535
X7.54Y-51.075
X7.54Y-53.615
X7.54Y-56.155
X7.54Y-58.695
X5.Y-71.
X5.Y-73.54
X5.Y-76.08
X5.Y-78.62
X5.Y-81.16
X7.54Y-71.
X7.54Y-73.54
X7.54Y-76.08
X7.54Y-78.62
X7.54Y-81.16
T7
X16.Y-16.
X16.Y-26.16
X73.325Y-30.929
X73.325Y-41.089
X38.46Y-3.
X41.Y-3.
X43.54Y-3.
X34.Y-15.84
X34.Y-26.
X51.Y-3.
X53.54Y-3.
X56.08Y-3.
X62.73Y-3.
X65.27Y-3.
X67.81Y-3.
T8
X94.Y-29.
X94.Y-34.
X94.Y-39.
X77.Y-6.
X82.Y-6.
X4.Y-5.817
X9.Y-5.817
X14.Y-5.817
X20.553Y-5.817
X25.553Y-5.817
X30.553Y-5.817
X88.Y-6.
X93.Y-6.
X94.Y-18.
X94.Y-23.
T9
X75.6Y-16.
X75.6Y-25.92
X79.Y-16.
X79.Y-25.92
T10
X96.Y-96.25
X3.75Y-96.25
X4.Y-16.
X84.25Y-16.
T0
M30
