%TF.GenerationSoftware,KiCad,Pcbnew,(5.0.0)*%
%TF.CreationDate,2019-01-09T00:45:42+01:00*%
%TF.ProjectId,KicadEuropower,4B696361644575726F706F7765722E6B,Rev A*%
%TF.SameCoordinates,Original*%
%TF.FileFunction,Legend,Top*%
%TF.FilePolarity,Positive*%
%FSLAX46Y46*%
G04 Gerber Fmt 4.6, Leading zero omitted, Abs format (unit mm)*
G04 Created by KiCad (PCBNEW (5.0.0)) date 01/09/19 00:45:42*
%MOMM*%
%LPD*%
G01*
G04 APERTURE LIST*
%ADD10C,1.000000*%
%ADD11C,0.250000*%
%ADD12C,0.375000*%
%ADD13C,0.175000*%
%ADD14C,0.150000*%
%ADD15C,0.200000*%
%ADD16C,0.300000*%
%ADD17C,0.275000*%
%ADD18C,0.120000*%
%ADD19C,0.100000*%
G04 APERTURE END LIST*
D10*
X10000000Y-44000000D02*
X10000000Y-43500000D01*
X43000000Y-44000000D02*
X10000000Y-44000000D01*
X43000000Y-43500000D02*
X43000000Y-44000000D01*
X10000000Y-43500000D02*
X43000000Y-43500000D01*
D11*
X9224285Y-95956380D02*
X8824285Y-95480190D01*
X8538571Y-95956380D02*
X8538571Y-94956380D01*
X8995714Y-94956380D01*
X9110000Y-95004000D01*
X9167142Y-95051619D01*
X9224285Y-95146857D01*
X9224285Y-95289714D01*
X9167142Y-95384952D01*
X9110000Y-95432571D01*
X8995714Y-95480190D01*
X8538571Y-95480190D01*
X10195714Y-95908761D02*
X10081428Y-95956380D01*
X9852857Y-95956380D01*
X9738571Y-95908761D01*
X9681428Y-95813523D01*
X9681428Y-95432571D01*
X9738571Y-95337333D01*
X9852857Y-95289714D01*
X10081428Y-95289714D01*
X10195714Y-95337333D01*
X10252857Y-95432571D01*
X10252857Y-95527809D01*
X9681428Y-95623047D01*
X10652857Y-95289714D02*
X10938571Y-95956380D01*
X11224285Y-95289714D01*
X12538571Y-95670666D02*
X13110000Y-95670666D01*
X12424285Y-95956380D02*
X12824285Y-94956380D01*
X13224285Y-95956380D01*
X14538571Y-95575428D02*
X15452857Y-95575428D01*
X16881428Y-95051619D02*
X16938571Y-95004000D01*
X17052857Y-94956380D01*
X17338571Y-94956380D01*
X17452857Y-95004000D01*
X17510000Y-95051619D01*
X17567142Y-95146857D01*
X17567142Y-95242095D01*
X17510000Y-95384952D01*
X16824285Y-95956380D01*
X17567142Y-95956380D01*
X18310000Y-94956380D02*
X18424285Y-94956380D01*
X18538571Y-95004000D01*
X18595714Y-95051619D01*
X18652857Y-95146857D01*
X18710000Y-95337333D01*
X18710000Y-95575428D01*
X18652857Y-95765904D01*
X18595714Y-95861142D01*
X18538571Y-95908761D01*
X18424285Y-95956380D01*
X18310000Y-95956380D01*
X18195714Y-95908761D01*
X18138571Y-95861142D01*
X18081428Y-95765904D01*
X18024285Y-95575428D01*
X18024285Y-95337333D01*
X18081428Y-95146857D01*
X18138571Y-95051619D01*
X18195714Y-95004000D01*
X18310000Y-94956380D01*
X19852857Y-95956380D02*
X19167142Y-95956380D01*
X19510000Y-95956380D02*
X19510000Y-94956380D01*
X19395714Y-95099238D01*
X19281428Y-95194476D01*
X19167142Y-95242095D01*
X20424285Y-95956380D02*
X20652857Y-95956380D01*
X20767142Y-95908761D01*
X20824285Y-95861142D01*
X20938571Y-95718285D01*
X20995714Y-95527809D01*
X20995714Y-95146857D01*
X20938571Y-95051619D01*
X20881428Y-95004000D01*
X20767142Y-94956380D01*
X20538571Y-94956380D01*
X20424285Y-95004000D01*
X20367142Y-95051619D01*
X20310000Y-95146857D01*
X20310000Y-95384952D01*
X20367142Y-95480190D01*
X20424285Y-95527809D01*
X20538571Y-95575428D01*
X20767142Y-95575428D01*
X20881428Y-95527809D01*
X20938571Y-95480190D01*
X20995714Y-95384952D01*
X22367142Y-94908761D02*
X21338571Y-96194476D01*
X22995714Y-94956380D02*
X23109999Y-94956380D01*
X23224285Y-95004000D01*
X23281428Y-95051619D01*
X23338571Y-95146857D01*
X23395714Y-95337333D01*
X23395714Y-95575428D01*
X23338571Y-95765904D01*
X23281428Y-95861142D01*
X23224285Y-95908761D01*
X23109999Y-95956380D01*
X22995714Y-95956380D01*
X22881428Y-95908761D01*
X22824285Y-95861142D01*
X22767142Y-95765904D01*
X22709999Y-95575428D01*
X22709999Y-95337333D01*
X22767142Y-95146857D01*
X22824285Y-95051619D01*
X22881428Y-95004000D01*
X22995714Y-94956380D01*
X23852857Y-95051619D02*
X23909999Y-95004000D01*
X24024285Y-94956380D01*
X24309999Y-94956380D01*
X24424285Y-95004000D01*
X24481428Y-95051619D01*
X24538571Y-95146857D01*
X24538571Y-95242095D01*
X24481428Y-95384952D01*
X23795714Y-95956380D01*
X24538571Y-95956380D01*
D12*
X8526285Y-97936857D02*
X9192952Y-97936857D01*
X9478666Y-98722571D02*
X8526285Y-98722571D01*
X8526285Y-97222571D01*
X9478666Y-97222571D01*
X10335809Y-97222571D02*
X10335809Y-98436857D01*
X10431047Y-98579714D01*
X10526285Y-98651142D01*
X10716761Y-98722571D01*
X11097714Y-98722571D01*
X11288190Y-98651142D01*
X11383428Y-98579714D01*
X11478666Y-98436857D01*
X11478666Y-97222571D01*
X13573904Y-98722571D02*
X12907238Y-98008285D01*
X12431047Y-98722571D02*
X12431047Y-97222571D01*
X13192952Y-97222571D01*
X13383428Y-97294000D01*
X13478666Y-97365428D01*
X13573904Y-97508285D01*
X13573904Y-97722571D01*
X13478666Y-97865428D01*
X13383428Y-97936857D01*
X13192952Y-98008285D01*
X12431047Y-98008285D01*
X14812000Y-97222571D02*
X15192952Y-97222571D01*
X15383428Y-97294000D01*
X15573904Y-97436857D01*
X15669142Y-97722571D01*
X15669142Y-98222571D01*
X15573904Y-98508285D01*
X15383428Y-98651142D01*
X15192952Y-98722571D01*
X14812000Y-98722571D01*
X14621523Y-98651142D01*
X14431047Y-98508285D01*
X14335809Y-98222571D01*
X14335809Y-97722571D01*
X14431047Y-97436857D01*
X14621523Y-97294000D01*
X14812000Y-97222571D01*
X17669142Y-98722571D02*
X17002476Y-98008285D01*
X16526285Y-98722571D02*
X16526285Y-97222571D01*
X17288190Y-97222571D01*
X17478666Y-97294000D01*
X17573904Y-97365428D01*
X17669142Y-97508285D01*
X17669142Y-97722571D01*
X17573904Y-97865428D01*
X17478666Y-97936857D01*
X17288190Y-98008285D01*
X16526285Y-98008285D01*
X18431047Y-98294000D02*
X19383428Y-98294000D01*
X18240571Y-98722571D02*
X18907238Y-97222571D01*
X19573904Y-98722571D01*
X21383428Y-98579714D02*
X21288190Y-98651142D01*
X21002476Y-98722571D01*
X20812000Y-98722571D01*
X20526285Y-98651142D01*
X20335809Y-98508285D01*
X20240571Y-98365428D01*
X20145333Y-98079714D01*
X20145333Y-97865428D01*
X20240571Y-97579714D01*
X20335809Y-97436857D01*
X20526285Y-97294000D01*
X20812000Y-97222571D01*
X21002476Y-97222571D01*
X21288190Y-97294000D01*
X21383428Y-97365428D01*
X22240571Y-98722571D02*
X22240571Y-97222571D01*
X23383428Y-98722571D02*
X22526285Y-97865428D01*
X23383428Y-97222571D02*
X22240571Y-98079714D01*
X25764380Y-98722571D02*
X25764380Y-97222571D01*
X26526285Y-97222571D01*
X26716761Y-97294000D01*
X26812000Y-97365428D01*
X26907238Y-97508285D01*
X26907238Y-97722571D01*
X26812000Y-97865428D01*
X26716761Y-97936857D01*
X26526285Y-98008285D01*
X25764380Y-98008285D01*
X27573904Y-97222571D02*
X28050095Y-98722571D01*
X28431047Y-97651142D01*
X28812000Y-98722571D01*
X29288190Y-97222571D01*
X31192952Y-98722571D02*
X30526285Y-98008285D01*
X30050095Y-98722571D02*
X30050095Y-97222571D01*
X30812000Y-97222571D01*
X31002476Y-97294000D01*
X31097714Y-97365428D01*
X31192952Y-97508285D01*
X31192952Y-97722571D01*
X31097714Y-97865428D01*
X31002476Y-97936857D01*
X30812000Y-98008285D01*
X30050095Y-98008285D01*
D13*
X35816666Y-5173214D02*
X35916666Y-5216071D01*
X35950000Y-5258928D01*
X35983333Y-5344642D01*
X35983333Y-5473214D01*
X35950000Y-5558928D01*
X35916666Y-5601785D01*
X35850000Y-5644642D01*
X35583333Y-5644642D01*
X35583333Y-4744642D01*
X35816666Y-4744642D01*
X35883333Y-4787500D01*
X35916666Y-4830357D01*
X35950000Y-4916071D01*
X35950000Y-5001785D01*
X35916666Y-5087500D01*
X35883333Y-5130357D01*
X35816666Y-5173214D01*
X35583333Y-5173214D01*
X36216666Y-5044642D02*
X36383333Y-5644642D01*
X36550000Y-5044642D02*
X36383333Y-5644642D01*
X36316666Y-5858928D01*
X36283333Y-5901785D01*
X36216666Y-5944642D01*
X36816666Y-5044642D02*
X36816666Y-5944642D01*
X36816666Y-5087500D02*
X36883333Y-5044642D01*
X37016666Y-5044642D01*
X37083333Y-5087500D01*
X37116666Y-5130357D01*
X37150000Y-5216071D01*
X37150000Y-5473214D01*
X37116666Y-5558928D01*
X37083333Y-5601785D01*
X37016666Y-5644642D01*
X36883333Y-5644642D01*
X36816666Y-5601785D01*
X37750000Y-5644642D02*
X37750000Y-5173214D01*
X37716666Y-5087500D01*
X37650000Y-5044642D01*
X37516666Y-5044642D01*
X37450000Y-5087500D01*
X37750000Y-5601785D02*
X37683333Y-5644642D01*
X37516666Y-5644642D01*
X37450000Y-5601785D01*
X37416666Y-5516071D01*
X37416666Y-5430357D01*
X37450000Y-5344642D01*
X37516666Y-5301785D01*
X37683333Y-5301785D01*
X37750000Y-5258928D01*
X38050000Y-5601785D02*
X38116666Y-5644642D01*
X38250000Y-5644642D01*
X38316666Y-5601785D01*
X38350000Y-5516071D01*
X38350000Y-5473214D01*
X38316666Y-5387500D01*
X38250000Y-5344642D01*
X38150000Y-5344642D01*
X38083333Y-5301785D01*
X38050000Y-5216071D01*
X38050000Y-5173214D01*
X38083333Y-5087500D01*
X38150000Y-5044642D01*
X38250000Y-5044642D01*
X38316666Y-5087500D01*
X38616666Y-5601785D02*
X38683333Y-5644642D01*
X38816666Y-5644642D01*
X38883333Y-5601785D01*
X38916666Y-5516071D01*
X38916666Y-5473214D01*
X38883333Y-5387500D01*
X38816666Y-5344642D01*
X38716666Y-5344642D01*
X38650000Y-5301785D01*
X38616666Y-5216071D01*
X38616666Y-5173214D01*
X38650000Y-5087500D01*
X38716666Y-5044642D01*
X38816666Y-5044642D01*
X38883333Y-5087500D01*
X36400000Y-6826785D02*
X36933333Y-6826785D01*
X36666666Y-7169642D02*
X36666666Y-6483928D01*
X37266666Y-7169642D02*
X37266666Y-6569642D01*
X37266666Y-6741071D02*
X37300000Y-6655357D01*
X37333333Y-6612500D01*
X37400000Y-6569642D01*
X37466666Y-6569642D01*
X37966666Y-7126785D02*
X37900000Y-7169642D01*
X37766666Y-7169642D01*
X37700000Y-7126785D01*
X37666666Y-7041071D01*
X37666666Y-6698214D01*
X37700000Y-6612500D01*
X37766666Y-6569642D01*
X37900000Y-6569642D01*
X37966666Y-6612500D01*
X38000000Y-6698214D01*
X38000000Y-6783928D01*
X37666666Y-6869642D01*
X38600000Y-6569642D02*
X38600000Y-7298214D01*
X38566666Y-7383928D01*
X38533333Y-7426785D01*
X38466666Y-7469642D01*
X38366666Y-7469642D01*
X38300000Y-7426785D01*
X38600000Y-7126785D02*
X38533333Y-7169642D01*
X38400000Y-7169642D01*
X38333333Y-7126785D01*
X38300000Y-7083928D01*
X38266666Y-6998214D01*
X38266666Y-6741071D01*
X38300000Y-6655357D01*
X38333333Y-6612500D01*
X38400000Y-6569642D01*
X38533333Y-6569642D01*
X38600000Y-6612500D01*
X56316666Y-5173214D02*
X56416666Y-5216071D01*
X56450000Y-5258928D01*
X56483333Y-5344642D01*
X56483333Y-5473214D01*
X56450000Y-5558928D01*
X56416666Y-5601785D01*
X56350000Y-5644642D01*
X56083333Y-5644642D01*
X56083333Y-4744642D01*
X56316666Y-4744642D01*
X56383333Y-4787500D01*
X56416666Y-4830357D01*
X56450000Y-4916071D01*
X56450000Y-5001785D01*
X56416666Y-5087500D01*
X56383333Y-5130357D01*
X56316666Y-5173214D01*
X56083333Y-5173214D01*
X56716666Y-5044642D02*
X56883333Y-5644642D01*
X57050000Y-5044642D02*
X56883333Y-5644642D01*
X56816666Y-5858928D01*
X56783333Y-5901785D01*
X56716666Y-5944642D01*
X57316666Y-5044642D02*
X57316666Y-5944642D01*
X57316666Y-5087500D02*
X57383333Y-5044642D01*
X57516666Y-5044642D01*
X57583333Y-5087500D01*
X57616666Y-5130357D01*
X57650000Y-5216071D01*
X57650000Y-5473214D01*
X57616666Y-5558928D01*
X57583333Y-5601785D01*
X57516666Y-5644642D01*
X57383333Y-5644642D01*
X57316666Y-5601785D01*
X58250000Y-5644642D02*
X58250000Y-5173214D01*
X58216666Y-5087500D01*
X58150000Y-5044642D01*
X58016666Y-5044642D01*
X57950000Y-5087500D01*
X58250000Y-5601785D02*
X58183333Y-5644642D01*
X58016666Y-5644642D01*
X57950000Y-5601785D01*
X57916666Y-5516071D01*
X57916666Y-5430357D01*
X57950000Y-5344642D01*
X58016666Y-5301785D01*
X58183333Y-5301785D01*
X58250000Y-5258928D01*
X58550000Y-5601785D02*
X58616666Y-5644642D01*
X58750000Y-5644642D01*
X58816666Y-5601785D01*
X58850000Y-5516071D01*
X58850000Y-5473214D01*
X58816666Y-5387500D01*
X58750000Y-5344642D01*
X58650000Y-5344642D01*
X58583333Y-5301785D01*
X58550000Y-5216071D01*
X58550000Y-5173214D01*
X58583333Y-5087500D01*
X58650000Y-5044642D01*
X58750000Y-5044642D01*
X58816666Y-5087500D01*
X59116666Y-5601785D02*
X59183333Y-5644642D01*
X59316666Y-5644642D01*
X59383333Y-5601785D01*
X59416666Y-5516071D01*
X59416666Y-5473214D01*
X59383333Y-5387500D01*
X59316666Y-5344642D01*
X59216666Y-5344642D01*
X59150000Y-5301785D01*
X59116666Y-5216071D01*
X59116666Y-5173214D01*
X59150000Y-5087500D01*
X59216666Y-5044642D01*
X59316666Y-5044642D01*
X59383333Y-5087500D01*
X56900000Y-6826785D02*
X57433333Y-6826785D01*
X57766666Y-7169642D02*
X57766666Y-6569642D01*
X57766666Y-6741071D02*
X57800000Y-6655357D01*
X57833333Y-6612500D01*
X57900000Y-6569642D01*
X57966666Y-6569642D01*
X58466666Y-7126785D02*
X58400000Y-7169642D01*
X58266666Y-7169642D01*
X58200000Y-7126785D01*
X58166666Y-7041071D01*
X58166666Y-6698214D01*
X58200000Y-6612500D01*
X58266666Y-6569642D01*
X58400000Y-6569642D01*
X58466666Y-6612500D01*
X58500000Y-6698214D01*
X58500000Y-6783928D01*
X58166666Y-6869642D01*
X59100000Y-6569642D02*
X59100000Y-7298214D01*
X59066666Y-7383928D01*
X59033333Y-7426785D01*
X58966666Y-7469642D01*
X58866666Y-7469642D01*
X58800000Y-7426785D01*
X59100000Y-7126785D02*
X59033333Y-7169642D01*
X58900000Y-7169642D01*
X58833333Y-7126785D01*
X58800000Y-7083928D01*
X58766666Y-6998214D01*
X58766666Y-6741071D01*
X58800000Y-6655357D01*
X58833333Y-6612500D01*
X58900000Y-6569642D01*
X59033333Y-6569642D01*
X59100000Y-6612500D01*
D12*
X59619047Y-97178571D02*
X59619047Y-98250000D01*
X59523809Y-98464285D01*
X59333333Y-98607142D01*
X59047619Y-98678571D01*
X58857142Y-98678571D01*
X60857142Y-98678571D02*
X60666666Y-98607142D01*
X60571428Y-98535714D01*
X60476190Y-98392857D01*
X60476190Y-97964285D01*
X60571428Y-97821428D01*
X60666666Y-97750000D01*
X60857142Y-97678571D01*
X61142857Y-97678571D01*
X61333333Y-97750000D01*
X61428571Y-97821428D01*
X61523809Y-97964285D01*
X61523809Y-98392857D01*
X61428571Y-98535714D01*
X61333333Y-98607142D01*
X61142857Y-98678571D01*
X60857142Y-98678571D01*
X62380952Y-98678571D02*
X62380952Y-97178571D01*
X63238095Y-98678571D02*
X63238095Y-97892857D01*
X63142857Y-97750000D01*
X62952380Y-97678571D01*
X62666666Y-97678571D01*
X62476190Y-97750000D01*
X62380952Y-97821428D01*
X65047619Y-98678571D02*
X65047619Y-97892857D01*
X64952380Y-97750000D01*
X64761904Y-97678571D01*
X64380952Y-97678571D01*
X64190476Y-97750000D01*
X65047619Y-98607142D02*
X64857142Y-98678571D01*
X64380952Y-98678571D01*
X64190476Y-98607142D01*
X64095238Y-98464285D01*
X64095238Y-98321428D01*
X64190476Y-98178571D01*
X64380952Y-98107142D01*
X64857142Y-98107142D01*
X65047619Y-98035714D01*
X66000000Y-97678571D02*
X66000000Y-98678571D01*
X66000000Y-97821428D02*
X66095238Y-97750000D01*
X66285714Y-97678571D01*
X66571428Y-97678571D01*
X66761904Y-97750000D01*
X66857142Y-97892857D01*
X66857142Y-98678571D01*
X67714285Y-98607142D02*
X67904761Y-98678571D01*
X68285714Y-98678571D01*
X68476190Y-98607142D01*
X68571428Y-98464285D01*
X68571428Y-98392857D01*
X68476190Y-98250000D01*
X68285714Y-98178571D01*
X68000000Y-98178571D01*
X67809523Y-98107142D01*
X67714285Y-97964285D01*
X67714285Y-97892857D01*
X67809523Y-97750000D01*
X68000000Y-97678571D01*
X68285714Y-97678571D01*
X68476190Y-97750000D01*
X70190476Y-98607142D02*
X70000000Y-98678571D01*
X69619047Y-98678571D01*
X69428571Y-98607142D01*
X69333333Y-98464285D01*
X69333333Y-97892857D01*
X69428571Y-97750000D01*
X69619047Y-97678571D01*
X70000000Y-97678571D01*
X70190476Y-97750000D01*
X70285714Y-97892857D01*
X70285714Y-98035714D01*
X69333333Y-98178571D01*
X71142857Y-97678571D02*
X71142857Y-98678571D01*
X71142857Y-97821428D02*
X71238095Y-97750000D01*
X71428571Y-97678571D01*
X71714285Y-97678571D01*
X71904761Y-97750000D01*
X72000000Y-97892857D01*
X72000000Y-98678571D01*
X74476190Y-97892857D02*
X75142857Y-97892857D01*
X75428571Y-98678571D02*
X74476190Y-98678571D01*
X74476190Y-97178571D01*
X75428571Y-97178571D01*
X76285714Y-97678571D02*
X76285714Y-98678571D01*
X76285714Y-97821428D02*
X76380952Y-97750000D01*
X76571428Y-97678571D01*
X76857142Y-97678571D01*
X77047619Y-97750000D01*
X77142857Y-97892857D01*
X77142857Y-98678571D01*
X78952380Y-97678571D02*
X78952380Y-98892857D01*
X78857142Y-99035714D01*
X78761904Y-99107142D01*
X78571428Y-99178571D01*
X78285714Y-99178571D01*
X78095238Y-99107142D01*
X78952380Y-98607142D02*
X78761904Y-98678571D01*
X78380952Y-98678571D01*
X78190476Y-98607142D01*
X78095238Y-98535714D01*
X78000000Y-98392857D01*
X78000000Y-97964285D01*
X78095238Y-97821428D01*
X78190476Y-97750000D01*
X78380952Y-97678571D01*
X78761904Y-97678571D01*
X78952380Y-97750000D01*
X79904761Y-98678571D02*
X79904761Y-97678571D01*
X79904761Y-97178571D02*
X79809523Y-97250000D01*
X79904761Y-97321428D01*
X80000000Y-97250000D01*
X79904761Y-97178571D01*
X79904761Y-97321428D01*
X80857142Y-97678571D02*
X80857142Y-98678571D01*
X80857142Y-97821428D02*
X80952380Y-97750000D01*
X81142857Y-97678571D01*
X81428571Y-97678571D01*
X81619047Y-97750000D01*
X81714285Y-97892857D01*
X81714285Y-98678571D01*
X83428571Y-98607142D02*
X83238095Y-98678571D01*
X82857142Y-98678571D01*
X82666666Y-98607142D01*
X82571428Y-98464285D01*
X82571428Y-97892857D01*
X82666666Y-97750000D01*
X82857142Y-97678571D01*
X83238095Y-97678571D01*
X83428571Y-97750000D01*
X83523809Y-97892857D01*
X83523809Y-98035714D01*
X82571428Y-98178571D01*
X85142857Y-98607142D02*
X84952380Y-98678571D01*
X84571428Y-98678571D01*
X84380952Y-98607142D01*
X84285714Y-98464285D01*
X84285714Y-97892857D01*
X84380952Y-97750000D01*
X84571428Y-97678571D01*
X84952380Y-97678571D01*
X85142857Y-97750000D01*
X85238095Y-97892857D01*
X85238095Y-98035714D01*
X84285714Y-98178571D01*
X86095238Y-98678571D02*
X86095238Y-97678571D01*
X86095238Y-97964285D02*
X86190476Y-97821428D01*
X86285714Y-97750000D01*
X86476190Y-97678571D01*
X86666666Y-97678571D01*
X87333333Y-98678571D02*
X87333333Y-97678571D01*
X87333333Y-97178571D02*
X87238095Y-97250000D01*
X87333333Y-97321428D01*
X87428571Y-97250000D01*
X87333333Y-97178571D01*
X87333333Y-97321428D01*
X88285714Y-97678571D02*
X88285714Y-98678571D01*
X88285714Y-97821428D02*
X88380952Y-97750000D01*
X88571428Y-97678571D01*
X88857142Y-97678571D01*
X89047619Y-97750000D01*
X89142857Y-97892857D01*
X89142857Y-98678571D01*
X90952380Y-97678571D02*
X90952380Y-98892857D01*
X90857142Y-99035714D01*
X90761904Y-99107142D01*
X90571428Y-99178571D01*
X90285714Y-99178571D01*
X90095238Y-99107142D01*
X90952380Y-98607142D02*
X90761904Y-98678571D01*
X90380952Y-98678571D01*
X90190476Y-98607142D01*
X90095238Y-98535714D01*
X90000000Y-98392857D01*
X90000000Y-97964285D01*
X90095238Y-97821428D01*
X90190476Y-97750000D01*
X90380952Y-97678571D01*
X90761904Y-97678571D01*
X90952380Y-97750000D01*
D14*
X1666666Y-100000000D02*
G75*
G03X1666666Y-100000000I-1666666J0D01*
G01*
X-2500000Y-100000000D02*
X2500000Y-100000000D01*
X0Y-97500000D02*
X0Y-102500000D01*
D15*
X17090476Y-13571428D02*
X17700000Y-13571428D01*
X18500000Y-13952380D02*
X18042857Y-13952380D01*
X18271428Y-13952380D02*
X18271428Y-12952380D01*
X18195238Y-13095238D01*
X18119047Y-13190476D01*
X18042857Y-13238095D01*
X19223809Y-12952380D02*
X18842857Y-12952380D01*
X18804761Y-13428571D01*
X18842857Y-13380952D01*
X18919047Y-13333333D01*
X19109523Y-13333333D01*
X19185714Y-13380952D01*
X19223809Y-13428571D01*
X19261904Y-13523809D01*
X19261904Y-13761904D01*
X19223809Y-13857142D01*
X19185714Y-13904761D01*
X19109523Y-13952380D01*
X18919047Y-13952380D01*
X18842857Y-13904761D01*
X18804761Y-13857142D01*
X19490476Y-12952380D02*
X19757142Y-13952380D01*
X20023809Y-12952380D01*
X433333Y-13071428D02*
X1042857Y-13071428D01*
X1842857Y-13452380D02*
X1385714Y-13452380D01*
X1614285Y-13452380D02*
X1614285Y-12452380D01*
X1538095Y-12595238D01*
X1461904Y-12690476D01*
X1385714Y-12738095D01*
X2566666Y-12452380D02*
X2185714Y-12452380D01*
X2147619Y-12928571D01*
X2185714Y-12880952D01*
X2261904Y-12833333D01*
X2452380Y-12833333D01*
X2528571Y-12880952D01*
X2566666Y-12928571D01*
X2604761Y-13023809D01*
X2604761Y-13261904D01*
X2566666Y-13357142D01*
X2528571Y-13404761D01*
X2452380Y-13452380D01*
X2261904Y-13452380D01*
X2185714Y-13404761D01*
X2147619Y-13357142D01*
D16*
X94385714Y-13342857D02*
X93814285Y-13342857D01*
X93757142Y-13914285D01*
X93814285Y-13857142D01*
X93928571Y-13800000D01*
X94214285Y-13800000D01*
X94328571Y-13857142D01*
X94385714Y-13914285D01*
X94442857Y-14028571D01*
X94442857Y-14314285D01*
X94385714Y-14428571D01*
X94328571Y-14485714D01*
X94214285Y-14542857D01*
X93928571Y-14542857D01*
X93814285Y-14485714D01*
X93757142Y-14428571D01*
X94785714Y-13342857D02*
X95185714Y-14542857D01*
X95585714Y-13342857D01*
X97071428Y-14542857D02*
X96957142Y-14485714D01*
X96900000Y-14428571D01*
X96842857Y-14314285D01*
X96842857Y-13971428D01*
X96900000Y-13857142D01*
X96957142Y-13800000D01*
X97071428Y-13742857D01*
X97242857Y-13742857D01*
X97357142Y-13800000D01*
X97414285Y-13857142D01*
X97471428Y-13971428D01*
X97471428Y-14314285D01*
X97414285Y-14428571D01*
X97357142Y-14485714D01*
X97242857Y-14542857D01*
X97071428Y-14542857D01*
X98500000Y-13742857D02*
X98500000Y-14542857D01*
X97985714Y-13742857D02*
X97985714Y-14371428D01*
X98042857Y-14485714D01*
X98157142Y-14542857D01*
X98328571Y-14542857D01*
X98442857Y-14485714D01*
X98500000Y-14428571D01*
X98900000Y-13742857D02*
X99357142Y-13742857D01*
X99071428Y-13342857D02*
X99071428Y-14371428D01*
X99128571Y-14485714D01*
X99242857Y-14542857D01*
X99357142Y-14542857D01*
D11*
X72452380Y-9642857D02*
X72452380Y-8976190D01*
X73452380Y-9404761D01*
X72452380Y-8738095D02*
X73452380Y-8404761D01*
X72452380Y-8071428D01*
X72785714Y-7119047D02*
X72785714Y-6738095D01*
X72452380Y-6976190D02*
X73309523Y-6976190D01*
X73404761Y-6928571D01*
X73452380Y-6833333D01*
X73452380Y-6738095D01*
X73452380Y-6404761D02*
X72452380Y-6404761D01*
X73452380Y-5976190D02*
X72928571Y-5976190D01*
X72833333Y-6023809D01*
X72785714Y-6119047D01*
X72785714Y-6261904D01*
X72833333Y-6357142D01*
X72880952Y-6404761D01*
X73452380Y-5500000D02*
X72785714Y-5500000D01*
X72976190Y-5500000D02*
X72880952Y-5452380D01*
X72833333Y-5404761D01*
X72785714Y-5309523D01*
X72785714Y-5214285D01*
X72785714Y-4452380D02*
X73452380Y-4452380D01*
X72785714Y-4880952D02*
X73309523Y-4880952D01*
X73404761Y-4833333D01*
X73452380Y-4738095D01*
X73452380Y-4595238D01*
X73404761Y-4500000D01*
X73357142Y-4452380D01*
D15*
X27585714Y-13571428D02*
X28195238Y-13571428D01*
X27890476Y-13952380D02*
X27890476Y-13190476D01*
X28995238Y-13952380D02*
X28538095Y-13952380D01*
X28766666Y-13952380D02*
X28766666Y-12952380D01*
X28690476Y-13095238D01*
X28614285Y-13190476D01*
X28538095Y-13238095D01*
X29719047Y-12952380D02*
X29338095Y-12952380D01*
X29300000Y-13428571D01*
X29338095Y-13380952D01*
X29414285Y-13333333D01*
X29604761Y-13333333D01*
X29680952Y-13380952D01*
X29719047Y-13428571D01*
X29757142Y-13523809D01*
X29757142Y-13761904D01*
X29719047Y-13857142D01*
X29680952Y-13904761D01*
X29604761Y-13952380D01*
X29414285Y-13952380D01*
X29338095Y-13904761D01*
X29300000Y-13857142D01*
X29985714Y-12952380D02*
X30252380Y-13952380D01*
X30519047Y-12952380D01*
X31280952Y-13285714D02*
X31585714Y-13285714D01*
X31395238Y-12952380D02*
X31395238Y-13809523D01*
X31433333Y-13904761D01*
X31509523Y-13952380D01*
X31585714Y-13952380D01*
X31852380Y-13952380D02*
X31852380Y-12952380D01*
X32195238Y-13952380D02*
X32195238Y-13428571D01*
X32157142Y-13333333D01*
X32080952Y-13285714D01*
X31966666Y-13285714D01*
X31890476Y-13333333D01*
X31852380Y-13380952D01*
X32576190Y-13952380D02*
X32576190Y-13285714D01*
X32576190Y-13476190D02*
X32614285Y-13380952D01*
X32652380Y-13333333D01*
X32728571Y-13285714D01*
X32804761Y-13285714D01*
X33414285Y-13285714D02*
X33414285Y-13952380D01*
X33071428Y-13285714D02*
X33071428Y-13809523D01*
X33109523Y-13904761D01*
X33185714Y-13952380D01*
X33300000Y-13952380D01*
X33376190Y-13904761D01*
X33414285Y-13857142D01*
X12038095Y-13571428D02*
X12647619Y-13571428D01*
X12342857Y-13952380D02*
X12342857Y-13190476D01*
X13447619Y-13952380D02*
X12990476Y-13952380D01*
X13219047Y-13952380D02*
X13219047Y-12952380D01*
X13142857Y-13095238D01*
X13066666Y-13190476D01*
X12990476Y-13238095D01*
X14171428Y-12952380D02*
X13790476Y-12952380D01*
X13752380Y-13428571D01*
X13790476Y-13380952D01*
X13866666Y-13333333D01*
X14057142Y-13333333D01*
X14133333Y-13380952D01*
X14171428Y-13428571D01*
X14209523Y-13523809D01*
X14209523Y-13761904D01*
X14171428Y-13857142D01*
X14133333Y-13904761D01*
X14057142Y-13952380D01*
X13866666Y-13952380D01*
X13790476Y-13904761D01*
X13752380Y-13857142D01*
X14438095Y-12952380D02*
X14704761Y-13952380D01*
X14971428Y-12952380D01*
X15238095Y-13952380D02*
X15238095Y-13285714D01*
X15238095Y-12952380D02*
X15200000Y-13000000D01*
X15238095Y-13047619D01*
X15276190Y-13000000D01*
X15238095Y-12952380D01*
X15238095Y-13047619D01*
X15619047Y-13285714D02*
X15619047Y-13952380D01*
X15619047Y-13380952D02*
X15657142Y-13333333D01*
X15733333Y-13285714D01*
X15847619Y-13285714D01*
X15923809Y-13333333D01*
X15961904Y-13428571D01*
X15961904Y-13952380D01*
D13*
X1966666Y-30100000D02*
X1900000Y-30061904D01*
X1800000Y-30061904D01*
X1700000Y-30100000D01*
X1633333Y-30176190D01*
X1600000Y-30252380D01*
X1566666Y-30404761D01*
X1566666Y-30519047D01*
X1600000Y-30671428D01*
X1633333Y-30747619D01*
X1700000Y-30823809D01*
X1800000Y-30861904D01*
X1866666Y-30861904D01*
X1966666Y-30823809D01*
X2000000Y-30785714D01*
X2000000Y-30519047D01*
X1866666Y-30519047D01*
X2300000Y-30861904D02*
X2300000Y-30061904D01*
X2700000Y-30861904D01*
X2700000Y-30061904D01*
X3033333Y-30861904D02*
X3033333Y-30061904D01*
X3200000Y-30061904D01*
X3300000Y-30100000D01*
X3366666Y-30176190D01*
X3400000Y-30252380D01*
X3433333Y-30404761D01*
X3433333Y-30519047D01*
X3400000Y-30671428D01*
X3366666Y-30747619D01*
X3300000Y-30823809D01*
X3200000Y-30861904D01*
X3033333Y-30861904D01*
D15*
X64890476Y-500000D02*
X64814285Y-452380D01*
X64700000Y-452380D01*
X64585714Y-500000D01*
X64509523Y-595238D01*
X64471428Y-690476D01*
X64433333Y-880952D01*
X64433333Y-1023809D01*
X64471428Y-1214285D01*
X64509523Y-1309523D01*
X64585714Y-1404761D01*
X64700000Y-1452380D01*
X64776190Y-1452380D01*
X64890476Y-1404761D01*
X64928571Y-1357142D01*
X64928571Y-1023809D01*
X64776190Y-1023809D01*
X65271428Y-1452380D02*
X65271428Y-452380D01*
X65728571Y-1452380D01*
X65728571Y-452380D01*
X66109523Y-1452380D02*
X66109523Y-452380D01*
X66300000Y-452380D01*
X66414285Y-500000D01*
X66490476Y-595238D01*
X66528571Y-690476D01*
X66566666Y-880952D01*
X66566666Y-1023809D01*
X66528571Y-1214285D01*
X66490476Y-1309523D01*
X66414285Y-1404761D01*
X66300000Y-1452380D01*
X66109523Y-1452380D01*
X52890476Y-500000D02*
X52814285Y-452380D01*
X52700000Y-452380D01*
X52585714Y-500000D01*
X52509523Y-595238D01*
X52471428Y-690476D01*
X52433333Y-880952D01*
X52433333Y-1023809D01*
X52471428Y-1214285D01*
X52509523Y-1309523D01*
X52585714Y-1404761D01*
X52700000Y-1452380D01*
X52776190Y-1452380D01*
X52890476Y-1404761D01*
X52928571Y-1357142D01*
X52928571Y-1023809D01*
X52776190Y-1023809D01*
X53271428Y-1452380D02*
X53271428Y-452380D01*
X53728571Y-1452380D01*
X53728571Y-452380D01*
X54109523Y-1452380D02*
X54109523Y-452380D01*
X54300000Y-452380D01*
X54414285Y-500000D01*
X54490476Y-595238D01*
X54528571Y-690476D01*
X54566666Y-880952D01*
X54566666Y-1023809D01*
X54528571Y-1214285D01*
X54490476Y-1309523D01*
X54414285Y-1404761D01*
X54300000Y-1452380D01*
X54109523Y-1452380D01*
X37890476Y-500000D02*
X37814285Y-452380D01*
X37700000Y-452380D01*
X37585714Y-500000D01*
X37509523Y-595238D01*
X37471428Y-690476D01*
X37433333Y-880952D01*
X37433333Y-1023809D01*
X37471428Y-1214285D01*
X37509523Y-1309523D01*
X37585714Y-1404761D01*
X37700000Y-1452380D01*
X37776190Y-1452380D01*
X37890476Y-1404761D01*
X37928571Y-1357142D01*
X37928571Y-1023809D01*
X37776190Y-1023809D01*
X38271428Y-1452380D02*
X38271428Y-452380D01*
X38728571Y-1452380D01*
X38728571Y-452380D01*
X39109523Y-1452380D02*
X39109523Y-452380D01*
X39300000Y-452380D01*
X39414285Y-500000D01*
X39490476Y-595238D01*
X39528571Y-690476D01*
X39566666Y-880952D01*
X39566666Y-1023809D01*
X39528571Y-1214285D01*
X39490476Y-1309523D01*
X39414285Y-1404761D01*
X39300000Y-1452380D01*
X39109523Y-1452380D01*
D11*
X40547619Y-1452380D02*
X40547619Y-785714D01*
X40547619Y-452380D02*
X40500000Y-500000D01*
X40547619Y-547619D01*
X40595238Y-500000D01*
X40547619Y-452380D01*
X40547619Y-547619D01*
X41023809Y-785714D02*
X41023809Y-1452380D01*
X41023809Y-880952D02*
X41071428Y-833333D01*
X41166666Y-785714D01*
X41309523Y-785714D01*
X41404761Y-833333D01*
X41452380Y-928571D01*
X41452380Y-1452380D01*
X62547619Y-1452380D02*
X62547619Y-785714D01*
X62547619Y-452380D02*
X62500000Y-500000D01*
X62547619Y-547619D01*
X62595238Y-500000D01*
X62547619Y-452380D01*
X62547619Y-547619D01*
X63023809Y-785714D02*
X63023809Y-1452380D01*
X63023809Y-880952D02*
X63071428Y-833333D01*
X63166666Y-785714D01*
X63309523Y-785714D01*
X63404761Y-833333D01*
X63452380Y-928571D01*
X63452380Y-1452380D01*
X50547619Y-1452380D02*
X50547619Y-785714D01*
X50547619Y-452380D02*
X50500000Y-500000D01*
X50547619Y-547619D01*
X50595238Y-500000D01*
X50547619Y-452380D01*
X50547619Y-547619D01*
X51023809Y-785714D02*
X51023809Y-1452380D01*
X51023809Y-880952D02*
X51071428Y-833333D01*
X51166666Y-785714D01*
X51309523Y-785714D01*
X51404761Y-833333D01*
X51452380Y-928571D01*
X51452380Y-1452380D01*
D14*
X71000000Y0D02*
X71000000Y-42000000D01*
D17*
X83580952Y-11578571D02*
X84419047Y-11578571D01*
X84000000Y-11997619D02*
X84000000Y-11159523D01*
X96080952Y-11578571D02*
X96919047Y-11578571D01*
X96500000Y-11997619D02*
X96500000Y-11159523D01*
X87580952Y-14078571D02*
X88419047Y-14078571D01*
X88000000Y-14497619D02*
X88000000Y-13659523D01*
D11*
X87071428Y-41380952D02*
X87071428Y-40619047D01*
D17*
X85700000Y-35338095D02*
X85647619Y-35442857D01*
X85647619Y-35600000D01*
X85700000Y-35757142D01*
X85804761Y-35861904D01*
X85909523Y-35914285D01*
X86119047Y-35966666D01*
X86276190Y-35966666D01*
X86485714Y-35914285D01*
X86590476Y-35861904D01*
X86695238Y-35757142D01*
X86747619Y-35600000D01*
X86747619Y-35495238D01*
X86695238Y-35338095D01*
X86642857Y-35285714D01*
X86276190Y-35285714D01*
X86276190Y-35495238D01*
X86747619Y-34814285D02*
X85647619Y-34814285D01*
X86747619Y-34185714D01*
X85647619Y-34185714D01*
X86747619Y-33661904D02*
X85647619Y-33661904D01*
X85647619Y-33400000D01*
X85700000Y-33242857D01*
X85804761Y-33138095D01*
X85909523Y-33085714D01*
X86119047Y-33033333D01*
X86276190Y-33033333D01*
X86485714Y-33085714D01*
X86590476Y-33138095D01*
X86695238Y-33242857D01*
X86747619Y-33400000D01*
X86747619Y-33661904D01*
X86580952Y-26578571D02*
X87419047Y-26578571D01*
X87000000Y-26997619D02*
X87000000Y-26159523D01*
D16*
X96342857Y-9700000D02*
X96342857Y-8900000D01*
X97542857Y-9414285D01*
X96342857Y-8614285D02*
X97542857Y-8214285D01*
X96342857Y-7814285D01*
X97542857Y-6500000D02*
X96742857Y-6500000D01*
X96342857Y-6500000D02*
X96400000Y-6557142D01*
X96457142Y-6500000D01*
X96400000Y-6442857D01*
X96342857Y-6500000D01*
X96457142Y-6500000D01*
X96742857Y-5928571D02*
X97542857Y-5928571D01*
X96857142Y-5928571D02*
X96800000Y-5871428D01*
X96742857Y-5757142D01*
X96742857Y-5585714D01*
X96800000Y-5471428D01*
X96914285Y-5414285D01*
X97542857Y-5414285D01*
X83678571Y-39321428D02*
X82964285Y-39821428D01*
X83678571Y-40178571D02*
X82178571Y-40178571D01*
X82178571Y-39607142D01*
X82250000Y-39464285D01*
X82321428Y-39392857D01*
X82464285Y-39321428D01*
X82678571Y-39321428D01*
X82821428Y-39392857D01*
X82892857Y-39464285D01*
X82964285Y-39607142D01*
X82964285Y-40178571D01*
X83607142Y-38107142D02*
X83678571Y-38250000D01*
X83678571Y-38535714D01*
X83607142Y-38678571D01*
X83464285Y-38750000D01*
X82892857Y-38750000D01*
X82750000Y-38678571D01*
X82678571Y-38535714D01*
X82678571Y-38250000D01*
X82750000Y-38107142D01*
X82892857Y-38035714D01*
X83035714Y-38035714D01*
X83178571Y-38750000D01*
X82678571Y-36750000D02*
X83892857Y-36750000D01*
X84035714Y-36821428D01*
X84107142Y-36892857D01*
X84178571Y-37035714D01*
X84178571Y-37250000D01*
X84107142Y-37392857D01*
X83607142Y-36750000D02*
X83678571Y-36892857D01*
X83678571Y-37178571D01*
X83607142Y-37321428D01*
X83535714Y-37392857D01*
X83392857Y-37464285D01*
X82964285Y-37464285D01*
X82821428Y-37392857D01*
X82750000Y-37321428D01*
X82678571Y-37178571D01*
X82678571Y-36892857D01*
X82750000Y-36750000D01*
X82178571Y-34607142D02*
X82178571Y-34321428D01*
X82250000Y-34178571D01*
X82392857Y-34035714D01*
X82678571Y-33964285D01*
X83178571Y-33964285D01*
X83464285Y-34035714D01*
X83607142Y-34178571D01*
X83678571Y-34321428D01*
X83678571Y-34607142D01*
X83607142Y-34750000D01*
X83464285Y-34892857D01*
X83178571Y-34964285D01*
X82678571Y-34964285D01*
X82392857Y-34892857D01*
X82250000Y-34750000D01*
X82178571Y-34607142D01*
X82678571Y-32678571D02*
X83678571Y-32678571D01*
X82678571Y-33321428D02*
X83464285Y-33321428D01*
X83607142Y-33250000D01*
X83678571Y-33107142D01*
X83678571Y-32892857D01*
X83607142Y-32750000D01*
X83535714Y-32678571D01*
X82678571Y-32178571D02*
X82678571Y-31607142D01*
X82178571Y-31964285D02*
X83464285Y-31964285D01*
X83607142Y-31892857D01*
X83678571Y-31750000D01*
X83678571Y-31607142D01*
D14*
X71000000Y-42000000D02*
X100000000Y-42000000D01*
X82000000Y-31000000D02*
X82000000Y-42000000D01*
X82000000Y-21000000D02*
X82000000Y-31000000D01*
X87000000Y-21000000D02*
X85000000Y-21000000D01*
X87000000Y-13000000D02*
X82000000Y-21000000D01*
X100000000Y-13000000D02*
X87000000Y-13000000D01*
X24000000Y-42000000D02*
X250000Y-42000000D01*
X24000000Y-29050000D02*
X24000000Y-42000000D01*
X13500000Y-29000000D02*
X24000000Y-29000000D01*
X12000000Y-20000000D02*
X13500000Y-29000000D01*
X-160000Y-20000000D02*
X12000000Y-20000000D01*
D16*
X22178571Y-38964285D02*
X23678571Y-38464285D01*
X22178571Y-37964285D01*
X23107142Y-37464285D02*
X23107142Y-36321428D01*
X22250000Y-34821428D02*
X22178571Y-34964285D01*
X22178571Y-35178571D01*
X22250000Y-35392857D01*
X22392857Y-35535714D01*
X22535714Y-35607142D01*
X22821428Y-35678571D01*
X23035714Y-35678571D01*
X23321428Y-35607142D01*
X23464285Y-35535714D01*
X23607142Y-35392857D01*
X23678571Y-35178571D01*
X23678571Y-35035714D01*
X23607142Y-34821428D01*
X23535714Y-34750000D01*
X23035714Y-34750000D01*
X23035714Y-35035714D01*
X23678571Y-34107142D02*
X22178571Y-34107142D01*
X23678571Y-33250000D01*
X22178571Y-33250000D01*
X23678571Y-32535714D02*
X22178571Y-32535714D01*
X22178571Y-32178571D01*
X22250000Y-31964285D01*
X22392857Y-31821428D01*
X22535714Y-31750000D01*
X22821428Y-31678571D01*
X23035714Y-31678571D01*
X23321428Y-31750000D01*
X23464285Y-31821428D01*
X23607142Y-31964285D01*
X23678571Y-32178571D01*
X23678571Y-32535714D01*
D15*
X100000000Y0D02*
X0Y0D01*
X100000000Y-100000000D02*
X100000000Y0D01*
X0Y-100000000D02*
X100000000Y-100000000D01*
X0Y0D02*
X0Y-100000000D01*
D18*
X80770000Y-12860000D02*
X73830000Y-12860000D01*
X73830000Y-12860000D02*
X73830000Y-29060000D01*
X73830000Y-29060000D02*
X80770000Y-29060000D01*
X80770000Y-29060000D02*
X80770000Y-12860000D01*
X77300000Y-20210000D02*
X77300000Y-21710000D01*
X75300000Y-22560000D02*
X75300000Y-19360000D01*
X79300000Y-19360000D02*
X79300000Y-22560000D01*
X84278330Y-43185001D02*
X84278330Y-64045001D01*
X84278330Y-64045001D02*
X74928330Y-64045001D01*
X74928330Y-64045001D02*
X74928330Y-43185001D01*
X74928330Y-43185001D02*
X84278330Y-43185001D01*
X74678330Y-42935001D02*
X74678330Y-45475001D01*
X74678330Y-42935001D02*
X77218330Y-42935001D01*
X69611664Y-65650000D02*
X69611664Y-94130000D01*
X69611664Y-94130000D02*
X60261664Y-94130000D01*
X60261664Y-94130000D02*
X60261664Y-65650000D01*
X60261664Y-65650000D02*
X69611664Y-65650000D01*
X60011664Y-65400000D02*
X60011664Y-67940000D01*
X60011664Y-65400000D02*
X62551664Y-65400000D01*
X89345000Y-42935001D02*
X91885000Y-42935001D01*
X89345000Y-42935001D02*
X89345000Y-45475001D01*
X89595000Y-43185001D02*
X98945000Y-43185001D01*
X89595000Y-64045001D02*
X89595000Y-43185001D01*
X98945000Y-64045001D02*
X89595000Y-64045001D01*
X98945000Y-43185001D02*
X98945000Y-64045001D01*
X16011666Y-65400000D02*
X18551666Y-65400000D01*
X16011666Y-65400000D02*
X16011666Y-67940000D01*
X16261666Y-65650000D02*
X25611666Y-65650000D01*
X16261666Y-94130000D02*
X16261666Y-65650000D01*
X25611666Y-94130000D02*
X16261666Y-94130000D01*
X25611666Y-65650000D02*
X25611666Y-94130000D01*
X98945000Y-65650000D02*
X98945000Y-86510000D01*
X98945000Y-86510000D02*
X89595000Y-86510000D01*
X89595000Y-86510000D02*
X89595000Y-65650000D01*
X89595000Y-65650000D02*
X98945000Y-65650000D01*
X89345000Y-65400000D02*
X89345000Y-67940000D01*
X89345000Y-65400000D02*
X91885000Y-65400000D01*
X40278332Y-65650000D02*
X40278332Y-94130000D01*
X40278332Y-94130000D02*
X30928332Y-94130000D01*
X30928332Y-94130000D02*
X30928332Y-65650000D01*
X30928332Y-65650000D02*
X40278332Y-65650000D01*
X30678332Y-65400000D02*
X30678332Y-67940000D01*
X30678332Y-65400000D02*
X33218332Y-65400000D01*
X1345000Y-42935001D02*
X3885000Y-42935001D01*
X1345000Y-42935001D02*
X1345000Y-45475001D01*
X1595000Y-43185001D02*
X10945000Y-43185001D01*
X1595000Y-64045001D02*
X1595000Y-43185001D01*
X10945000Y-64045001D02*
X1595000Y-64045001D01*
X10945000Y-43185001D02*
X10945000Y-64045001D01*
X74678330Y-65400000D02*
X77218330Y-65400000D01*
X74678330Y-65400000D02*
X74678330Y-67940000D01*
X74928330Y-65650000D02*
X84278330Y-65650000D01*
X74928330Y-94130000D02*
X74928330Y-65650000D01*
X84278330Y-94130000D02*
X74928330Y-94130000D01*
X84278330Y-65650000D02*
X84278330Y-94130000D01*
X60011664Y-42935001D02*
X62551664Y-42935001D01*
X60011664Y-42935001D02*
X60011664Y-45475001D01*
X60261664Y-43185001D02*
X69611664Y-43185001D01*
X60261664Y-64045001D02*
X60261664Y-43185001D01*
X69611664Y-64045001D02*
X60261664Y-64045001D01*
X69611664Y-43185001D02*
X69611664Y-64045001D01*
X25611666Y-43185001D02*
X25611666Y-64045001D01*
X25611666Y-64045001D02*
X16261666Y-64045001D01*
X16261666Y-64045001D02*
X16261666Y-43185001D01*
X16261666Y-43185001D02*
X25611666Y-43185001D01*
X16011666Y-42935001D02*
X16011666Y-45475001D01*
X16011666Y-42935001D02*
X18551666Y-42935001D01*
X1345000Y-65400000D02*
X3885000Y-65400000D01*
X1345000Y-65400000D02*
X1345000Y-67940000D01*
X1595000Y-65650000D02*
X10945000Y-65650000D01*
X1595000Y-86510000D02*
X1595000Y-65650000D01*
X10945000Y-86510000D02*
X1595000Y-86510000D01*
X10945000Y-65650000D02*
X10945000Y-86510000D01*
X40235000Y-43185001D02*
X40235000Y-64045001D01*
X40235000Y-64045001D02*
X30885000Y-64045001D01*
X30885000Y-64045001D02*
X30885000Y-43185001D01*
X30885000Y-43185001D02*
X40235000Y-43185001D01*
X30635000Y-42935001D02*
X30635000Y-45475001D01*
X30635000Y-42935001D02*
X33175000Y-42935001D01*
D14*
X75899696Y-29839161D02*
X75899696Y-41839161D01*
X80699696Y-29839161D02*
X80699696Y-41839161D01*
X80699696Y-41839161D02*
X75899696Y-41839161D01*
X80699696Y-29839161D02*
X75899696Y-29839161D01*
D18*
X49627651Y-8285000D02*
X49627651Y-9085000D01*
X49227651Y-8685000D02*
X50027651Y-8685000D01*
X57718349Y-10467000D02*
X57718349Y-11533000D01*
X57678349Y-10232000D02*
X57678349Y-11768000D01*
X57638349Y-10052000D02*
X57638349Y-11948000D01*
X57598349Y-9902000D02*
X57598349Y-12098000D01*
X57558349Y-9771000D02*
X57558349Y-12229000D01*
X57518349Y-9654000D02*
X57518349Y-12346000D01*
X57478349Y-9547000D02*
X57478349Y-12453000D01*
X57438349Y-9448000D02*
X57438349Y-12552000D01*
X57398349Y-9355000D02*
X57398349Y-12645000D01*
X57358349Y-9269000D02*
X57358349Y-12731000D01*
X57318349Y-9187000D02*
X57318349Y-12813000D01*
X57278349Y-9110000D02*
X57278349Y-12890000D01*
X57238349Y-9036000D02*
X57238349Y-12964000D01*
X57198349Y-8966000D02*
X57198349Y-13034000D01*
X57158349Y-8898000D02*
X57158349Y-13102000D01*
X57118349Y-8834000D02*
X57118349Y-13166000D01*
X57078349Y-8772000D02*
X57078349Y-13228000D01*
X57038349Y-8713000D02*
X57038349Y-13287000D01*
X56998349Y-8655000D02*
X56998349Y-13345000D01*
X56958349Y-8600000D02*
X56958349Y-13400000D01*
X56918349Y-8546000D02*
X56918349Y-13454000D01*
X56878349Y-8495000D02*
X56878349Y-13505000D01*
X56838349Y-8444000D02*
X56838349Y-13556000D01*
X56798349Y-8396000D02*
X56798349Y-13604000D01*
X56758349Y-8349000D02*
X56758349Y-13651000D01*
X56718349Y-8303000D02*
X56718349Y-13697000D01*
X56678349Y-8259000D02*
X56678349Y-13741000D01*
X56638349Y-8216000D02*
X56638349Y-13784000D01*
X56598349Y-8174000D02*
X56598349Y-13826000D01*
X56558349Y-12040000D02*
X56558349Y-13867000D01*
X56558349Y-8133000D02*
X56558349Y-9960000D01*
X56518349Y-12040000D02*
X56518349Y-13907000D01*
X56518349Y-8093000D02*
X56518349Y-9960000D01*
X56478349Y-12040000D02*
X56478349Y-13945000D01*
X56478349Y-8055000D02*
X56478349Y-9960000D01*
X56438349Y-12040000D02*
X56438349Y-13983000D01*
X56438349Y-8017000D02*
X56438349Y-9960000D01*
X56398349Y-12040000D02*
X56398349Y-14019000D01*
X56398349Y-7981000D02*
X56398349Y-9960000D01*
X56358349Y-12040000D02*
X56358349Y-14055000D01*
X56358349Y-7945000D02*
X56358349Y-9960000D01*
X56318349Y-12040000D02*
X56318349Y-14090000D01*
X56318349Y-7910000D02*
X56318349Y-9960000D01*
X56278349Y-12040000D02*
X56278349Y-14124000D01*
X56278349Y-7876000D02*
X56278349Y-9960000D01*
X56238349Y-12040000D02*
X56238349Y-14156000D01*
X56238349Y-7844000D02*
X56238349Y-9960000D01*
X56198349Y-12040000D02*
X56198349Y-14189000D01*
X56198349Y-7811000D02*
X56198349Y-9960000D01*
X56158349Y-12040000D02*
X56158349Y-14220000D01*
X56158349Y-7780000D02*
X56158349Y-9960000D01*
X56118349Y-12040000D02*
X56118349Y-14250000D01*
X56118349Y-7750000D02*
X56118349Y-9960000D01*
X56078349Y-12040000D02*
X56078349Y-14280000D01*
X56078349Y-7720000D02*
X56078349Y-9960000D01*
X56038349Y-12040000D02*
X56038349Y-14309000D01*
X56038349Y-7691000D02*
X56038349Y-9960000D01*
X55998349Y-12040000D02*
X55998349Y-14338000D01*
X55998349Y-7662000D02*
X55998349Y-9960000D01*
X55958349Y-12040000D02*
X55958349Y-14365000D01*
X55958349Y-7635000D02*
X55958349Y-9960000D01*
X55918349Y-12040000D02*
X55918349Y-14392000D01*
X55918349Y-7608000D02*
X55918349Y-9960000D01*
X55878349Y-12040000D02*
X55878349Y-14418000D01*
X55878349Y-7582000D02*
X55878349Y-9960000D01*
X55838349Y-12040000D02*
X55838349Y-14444000D01*
X55838349Y-7556000D02*
X55838349Y-9960000D01*
X55798349Y-12040000D02*
X55798349Y-14469000D01*
X55798349Y-7531000D02*
X55798349Y-9960000D01*
X55758349Y-12040000D02*
X55758349Y-14493000D01*
X55758349Y-7507000D02*
X55758349Y-9960000D01*
X55718349Y-12040000D02*
X55718349Y-14517000D01*
X55718349Y-7483000D02*
X55718349Y-9960000D01*
X55678349Y-12040000D02*
X55678349Y-14540000D01*
X55678349Y-7460000D02*
X55678349Y-9960000D01*
X55638349Y-12040000D02*
X55638349Y-14562000D01*
X55638349Y-7438000D02*
X55638349Y-9960000D01*
X55598349Y-12040000D02*
X55598349Y-14584000D01*
X55598349Y-7416000D02*
X55598349Y-9960000D01*
X55558349Y-12040000D02*
X55558349Y-14606000D01*
X55558349Y-7394000D02*
X55558349Y-9960000D01*
X55518349Y-12040000D02*
X55518349Y-14627000D01*
X55518349Y-7373000D02*
X55518349Y-9960000D01*
X55478349Y-12040000D02*
X55478349Y-14647000D01*
X55478349Y-7353000D02*
X55478349Y-9960000D01*
X55438349Y-12040000D02*
X55438349Y-14666000D01*
X55438349Y-7334000D02*
X55438349Y-9960000D01*
X55398349Y-12040000D02*
X55398349Y-14686000D01*
X55398349Y-7314000D02*
X55398349Y-9960000D01*
X55358349Y-12040000D02*
X55358349Y-14704000D01*
X55358349Y-7296000D02*
X55358349Y-9960000D01*
X55318349Y-12040000D02*
X55318349Y-14722000D01*
X55318349Y-7278000D02*
X55318349Y-9960000D01*
X55278349Y-12040000D02*
X55278349Y-14740000D01*
X55278349Y-7260000D02*
X55278349Y-9960000D01*
X55238349Y-12040000D02*
X55238349Y-14757000D01*
X55238349Y-7243000D02*
X55238349Y-9960000D01*
X55198349Y-12040000D02*
X55198349Y-14774000D01*
X55198349Y-7226000D02*
X55198349Y-9960000D01*
X55158349Y-12040000D02*
X55158349Y-14790000D01*
X55158349Y-7210000D02*
X55158349Y-9960000D01*
X55118349Y-12040000D02*
X55118349Y-14805000D01*
X55118349Y-7195000D02*
X55118349Y-9960000D01*
X55078349Y-12040000D02*
X55078349Y-14821000D01*
X55078349Y-7179000D02*
X55078349Y-9960000D01*
X55038349Y-12040000D02*
X55038349Y-14835000D01*
X55038349Y-7165000D02*
X55038349Y-9960000D01*
X54998349Y-12040000D02*
X54998349Y-14850000D01*
X54998349Y-7150000D02*
X54998349Y-9960000D01*
X54958349Y-12040000D02*
X54958349Y-14863000D01*
X54958349Y-7137000D02*
X54958349Y-9960000D01*
X54918349Y-12040000D02*
X54918349Y-14877000D01*
X54918349Y-7123000D02*
X54918349Y-9960000D01*
X54878349Y-12040000D02*
X54878349Y-14889000D01*
X54878349Y-7111000D02*
X54878349Y-9960000D01*
X54838349Y-12040000D02*
X54838349Y-14902000D01*
X54838349Y-7098000D02*
X54838349Y-9960000D01*
X54798349Y-12040000D02*
X54798349Y-14914000D01*
X54798349Y-7086000D02*
X54798349Y-9960000D01*
X54758349Y-12040000D02*
X54758349Y-14925000D01*
X54758349Y-7075000D02*
X54758349Y-9960000D01*
X54718349Y-12040000D02*
X54718349Y-14936000D01*
X54718349Y-7064000D02*
X54718349Y-9960000D01*
X54678349Y-12040000D02*
X54678349Y-14947000D01*
X54678349Y-7053000D02*
X54678349Y-9960000D01*
X54638349Y-12040000D02*
X54638349Y-14957000D01*
X54638349Y-7043000D02*
X54638349Y-9960000D01*
X54598349Y-12040000D02*
X54598349Y-14967000D01*
X54598349Y-7033000D02*
X54598349Y-9960000D01*
X54558349Y-12040000D02*
X54558349Y-14976000D01*
X54558349Y-7024000D02*
X54558349Y-9960000D01*
X54518349Y-12040000D02*
X54518349Y-14985000D01*
X54518349Y-7015000D02*
X54518349Y-9960000D01*
X54478349Y-7006000D02*
X54478349Y-14994000D01*
X54438349Y-6998000D02*
X54438349Y-15002000D01*
X54398349Y-6990000D02*
X54398349Y-15010000D01*
X54358349Y-6983000D02*
X54358349Y-15017000D01*
X54317349Y-6976000D02*
X54317349Y-15024000D01*
X54277349Y-6970000D02*
X54277349Y-15030000D01*
X54237349Y-6963000D02*
X54237349Y-15037000D01*
X54197349Y-6958000D02*
X54197349Y-15042000D01*
X54157349Y-6952000D02*
X54157349Y-15048000D01*
X54117349Y-6948000D02*
X54117349Y-15052000D01*
X54077349Y-6943000D02*
X54077349Y-15057000D01*
X54037349Y-6939000D02*
X54037349Y-15061000D01*
X53997349Y-6935000D02*
X53997349Y-15065000D01*
X53957349Y-6932000D02*
X53957349Y-15068000D01*
X53917349Y-6929000D02*
X53917349Y-15071000D01*
X53877349Y-6926000D02*
X53877349Y-15074000D01*
X53837349Y-6924000D02*
X53837349Y-15076000D01*
X53797349Y-6923000D02*
X53797349Y-15077000D01*
X53757349Y-6921000D02*
X53757349Y-15079000D01*
X53717349Y-6920000D02*
X53717349Y-15080000D01*
X53677349Y-6920000D02*
X53677349Y-15080000D01*
X53637349Y-6920000D02*
X53637349Y-15080000D01*
X57757349Y-11000000D02*
G75*
G03X57757349Y-11000000I-4120000J0D01*
G01*
X69487349Y-10890000D02*
G75*
G03X69487349Y-10890000I-4120000J0D01*
G01*
X65367349Y-6810000D02*
X65367349Y-14970000D01*
X65407349Y-6810000D02*
X65407349Y-14970000D01*
X65447349Y-6810000D02*
X65447349Y-14970000D01*
X65487349Y-6811000D02*
X65487349Y-14969000D01*
X65527349Y-6813000D02*
X65527349Y-14967000D01*
X65567349Y-6814000D02*
X65567349Y-14966000D01*
X65607349Y-6816000D02*
X65607349Y-14964000D01*
X65647349Y-6819000D02*
X65647349Y-14961000D01*
X65687349Y-6822000D02*
X65687349Y-14958000D01*
X65727349Y-6825000D02*
X65727349Y-14955000D01*
X65767349Y-6829000D02*
X65767349Y-14951000D01*
X65807349Y-6833000D02*
X65807349Y-14947000D01*
X65847349Y-6838000D02*
X65847349Y-14942000D01*
X65887349Y-6842000D02*
X65887349Y-14938000D01*
X65927349Y-6848000D02*
X65927349Y-14932000D01*
X65967349Y-6853000D02*
X65967349Y-14927000D01*
X66007349Y-6860000D02*
X66007349Y-14920000D01*
X66047349Y-6866000D02*
X66047349Y-14914000D01*
X66088349Y-6873000D02*
X66088349Y-14907000D01*
X66128349Y-6880000D02*
X66128349Y-14900000D01*
X66168349Y-6888000D02*
X66168349Y-14892000D01*
X66208349Y-6896000D02*
X66208349Y-14884000D01*
X66248349Y-6905000D02*
X66248349Y-9850000D01*
X66248349Y-11930000D02*
X66248349Y-14875000D01*
X66288349Y-6914000D02*
X66288349Y-9850000D01*
X66288349Y-11930000D02*
X66288349Y-14866000D01*
X66328349Y-6923000D02*
X66328349Y-9850000D01*
X66328349Y-11930000D02*
X66328349Y-14857000D01*
X66368349Y-6933000D02*
X66368349Y-9850000D01*
X66368349Y-11930000D02*
X66368349Y-14847000D01*
X66408349Y-6943000D02*
X66408349Y-9850000D01*
X66408349Y-11930000D02*
X66408349Y-14837000D01*
X66448349Y-6954000D02*
X66448349Y-9850000D01*
X66448349Y-11930000D02*
X66448349Y-14826000D01*
X66488349Y-6965000D02*
X66488349Y-9850000D01*
X66488349Y-11930000D02*
X66488349Y-14815000D01*
X66528349Y-6976000D02*
X66528349Y-9850000D01*
X66528349Y-11930000D02*
X66528349Y-14804000D01*
X66568349Y-6988000D02*
X66568349Y-9850000D01*
X66568349Y-11930000D02*
X66568349Y-14792000D01*
X66608349Y-7001000D02*
X66608349Y-9850000D01*
X66608349Y-11930000D02*
X66608349Y-14779000D01*
X66648349Y-7013000D02*
X66648349Y-9850000D01*
X66648349Y-11930000D02*
X66648349Y-14767000D01*
X66688349Y-7027000D02*
X66688349Y-9850000D01*
X66688349Y-11930000D02*
X66688349Y-14753000D01*
X66728349Y-7040000D02*
X66728349Y-9850000D01*
X66728349Y-11930000D02*
X66728349Y-14740000D01*
X66768349Y-7055000D02*
X66768349Y-9850000D01*
X66768349Y-11930000D02*
X66768349Y-14725000D01*
X66808349Y-7069000D02*
X66808349Y-9850000D01*
X66808349Y-11930000D02*
X66808349Y-14711000D01*
X66848349Y-7085000D02*
X66848349Y-9850000D01*
X66848349Y-11930000D02*
X66848349Y-14695000D01*
X66888349Y-7100000D02*
X66888349Y-9850000D01*
X66888349Y-11930000D02*
X66888349Y-14680000D01*
X66928349Y-7116000D02*
X66928349Y-9850000D01*
X66928349Y-11930000D02*
X66928349Y-14664000D01*
X66968349Y-7133000D02*
X66968349Y-9850000D01*
X66968349Y-11930000D02*
X66968349Y-14647000D01*
X67008349Y-7150000D02*
X67008349Y-9850000D01*
X67008349Y-11930000D02*
X67008349Y-14630000D01*
X67048349Y-7168000D02*
X67048349Y-9850000D01*
X67048349Y-11930000D02*
X67048349Y-14612000D01*
X67088349Y-7186000D02*
X67088349Y-9850000D01*
X67088349Y-11930000D02*
X67088349Y-14594000D01*
X67128349Y-7204000D02*
X67128349Y-9850000D01*
X67128349Y-11930000D02*
X67128349Y-14576000D01*
X67168349Y-7224000D02*
X67168349Y-9850000D01*
X67168349Y-11930000D02*
X67168349Y-14556000D01*
X67208349Y-7243000D02*
X67208349Y-9850000D01*
X67208349Y-11930000D02*
X67208349Y-14537000D01*
X67248349Y-7263000D02*
X67248349Y-9850000D01*
X67248349Y-11930000D02*
X67248349Y-14517000D01*
X67288349Y-7284000D02*
X67288349Y-9850000D01*
X67288349Y-11930000D02*
X67288349Y-14496000D01*
X67328349Y-7306000D02*
X67328349Y-9850000D01*
X67328349Y-11930000D02*
X67328349Y-14474000D01*
X67368349Y-7328000D02*
X67368349Y-9850000D01*
X67368349Y-11930000D02*
X67368349Y-14452000D01*
X67408349Y-7350000D02*
X67408349Y-9850000D01*
X67408349Y-11930000D02*
X67408349Y-14430000D01*
X67448349Y-7373000D02*
X67448349Y-9850000D01*
X67448349Y-11930000D02*
X67448349Y-14407000D01*
X67488349Y-7397000D02*
X67488349Y-9850000D01*
X67488349Y-11930000D02*
X67488349Y-14383000D01*
X67528349Y-7421000D02*
X67528349Y-9850000D01*
X67528349Y-11930000D02*
X67528349Y-14359000D01*
X67568349Y-7446000D02*
X67568349Y-9850000D01*
X67568349Y-11930000D02*
X67568349Y-14334000D01*
X67608349Y-7472000D02*
X67608349Y-9850000D01*
X67608349Y-11930000D02*
X67608349Y-14308000D01*
X67648349Y-7498000D02*
X67648349Y-9850000D01*
X67648349Y-11930000D02*
X67648349Y-14282000D01*
X67688349Y-7525000D02*
X67688349Y-9850000D01*
X67688349Y-11930000D02*
X67688349Y-14255000D01*
X67728349Y-7552000D02*
X67728349Y-9850000D01*
X67728349Y-11930000D02*
X67728349Y-14228000D01*
X67768349Y-7581000D02*
X67768349Y-9850000D01*
X67768349Y-11930000D02*
X67768349Y-14199000D01*
X67808349Y-7610000D02*
X67808349Y-9850000D01*
X67808349Y-11930000D02*
X67808349Y-14170000D01*
X67848349Y-7640000D02*
X67848349Y-9850000D01*
X67848349Y-11930000D02*
X67848349Y-14140000D01*
X67888349Y-7670000D02*
X67888349Y-9850000D01*
X67888349Y-11930000D02*
X67888349Y-14110000D01*
X67928349Y-7701000D02*
X67928349Y-9850000D01*
X67928349Y-11930000D02*
X67928349Y-14079000D01*
X67968349Y-7734000D02*
X67968349Y-9850000D01*
X67968349Y-11930000D02*
X67968349Y-14046000D01*
X68008349Y-7766000D02*
X68008349Y-9850000D01*
X68008349Y-11930000D02*
X68008349Y-14014000D01*
X68048349Y-7800000D02*
X68048349Y-9850000D01*
X68048349Y-11930000D02*
X68048349Y-13980000D01*
X68088349Y-7835000D02*
X68088349Y-9850000D01*
X68088349Y-11930000D02*
X68088349Y-13945000D01*
X68128349Y-7871000D02*
X68128349Y-9850000D01*
X68128349Y-11930000D02*
X68128349Y-13909000D01*
X68168349Y-7907000D02*
X68168349Y-9850000D01*
X68168349Y-11930000D02*
X68168349Y-13873000D01*
X68208349Y-7945000D02*
X68208349Y-9850000D01*
X68208349Y-11930000D02*
X68208349Y-13835000D01*
X68248349Y-7983000D02*
X68248349Y-9850000D01*
X68248349Y-11930000D02*
X68248349Y-13797000D01*
X68288349Y-8023000D02*
X68288349Y-9850000D01*
X68288349Y-11930000D02*
X68288349Y-13757000D01*
X68328349Y-8064000D02*
X68328349Y-13716000D01*
X68368349Y-8106000D02*
X68368349Y-13674000D01*
X68408349Y-8149000D02*
X68408349Y-13631000D01*
X68448349Y-8193000D02*
X68448349Y-13587000D01*
X68488349Y-8239000D02*
X68488349Y-13541000D01*
X68528349Y-8286000D02*
X68528349Y-13494000D01*
X68568349Y-8334000D02*
X68568349Y-13446000D01*
X68608349Y-8385000D02*
X68608349Y-13395000D01*
X68648349Y-8436000D02*
X68648349Y-13344000D01*
X68688349Y-8490000D02*
X68688349Y-13290000D01*
X68728349Y-8545000D02*
X68728349Y-13235000D01*
X68768349Y-8603000D02*
X68768349Y-13177000D01*
X68808349Y-8662000D02*
X68808349Y-13118000D01*
X68848349Y-8724000D02*
X68848349Y-13056000D01*
X68888349Y-8788000D02*
X68888349Y-12992000D01*
X68928349Y-8856000D02*
X68928349Y-12924000D01*
X68968349Y-8926000D02*
X68968349Y-12854000D01*
X69008349Y-9000000D02*
X69008349Y-12780000D01*
X69048349Y-9077000D02*
X69048349Y-12703000D01*
X69088349Y-9159000D02*
X69088349Y-12621000D01*
X69128349Y-9245000D02*
X69128349Y-12535000D01*
X69168349Y-9338000D02*
X69168349Y-12442000D01*
X69208349Y-9437000D02*
X69208349Y-12343000D01*
X69248349Y-9544000D02*
X69248349Y-12236000D01*
X69288349Y-9661000D02*
X69288349Y-12119000D01*
X69328349Y-9792000D02*
X69328349Y-11988000D01*
X69368349Y-9942000D02*
X69368349Y-11838000D01*
X69408349Y-10122000D02*
X69408349Y-11658000D01*
X69448349Y-10357000D02*
X69448349Y-11423000D01*
X60957651Y-8575000D02*
X61757651Y-8575000D01*
X61357651Y-8175000D02*
X61357651Y-8975000D01*
X45217349Y-10890000D02*
G75*
G03X45217349Y-10890000I-4120000J0D01*
G01*
X41097349Y-6810000D02*
X41097349Y-14970000D01*
X41137349Y-6810000D02*
X41137349Y-14970000D01*
X41177349Y-6810000D02*
X41177349Y-14970000D01*
X41217349Y-6811000D02*
X41217349Y-14969000D01*
X41257349Y-6813000D02*
X41257349Y-14967000D01*
X41297349Y-6814000D02*
X41297349Y-14966000D01*
X41337349Y-6816000D02*
X41337349Y-14964000D01*
X41377349Y-6819000D02*
X41377349Y-14961000D01*
X41417349Y-6822000D02*
X41417349Y-14958000D01*
X41457349Y-6825000D02*
X41457349Y-14955000D01*
X41497349Y-6829000D02*
X41497349Y-14951000D01*
X41537349Y-6833000D02*
X41537349Y-14947000D01*
X41577349Y-6838000D02*
X41577349Y-14942000D01*
X41617349Y-6842000D02*
X41617349Y-14938000D01*
X41657349Y-6848000D02*
X41657349Y-14932000D01*
X41697349Y-6853000D02*
X41697349Y-14927000D01*
X41737349Y-6860000D02*
X41737349Y-14920000D01*
X41777349Y-6866000D02*
X41777349Y-14914000D01*
X41818349Y-6873000D02*
X41818349Y-14907000D01*
X41858349Y-6880000D02*
X41858349Y-14900000D01*
X41898349Y-6888000D02*
X41898349Y-14892000D01*
X41938349Y-6896000D02*
X41938349Y-14884000D01*
X41978349Y-6905000D02*
X41978349Y-9850000D01*
X41978349Y-11930000D02*
X41978349Y-14875000D01*
X42018349Y-6914000D02*
X42018349Y-9850000D01*
X42018349Y-11930000D02*
X42018349Y-14866000D01*
X42058349Y-6923000D02*
X42058349Y-9850000D01*
X42058349Y-11930000D02*
X42058349Y-14857000D01*
X42098349Y-6933000D02*
X42098349Y-9850000D01*
X42098349Y-11930000D02*
X42098349Y-14847000D01*
X42138349Y-6943000D02*
X42138349Y-9850000D01*
X42138349Y-11930000D02*
X42138349Y-14837000D01*
X42178349Y-6954000D02*
X42178349Y-9850000D01*
X42178349Y-11930000D02*
X42178349Y-14826000D01*
X42218349Y-6965000D02*
X42218349Y-9850000D01*
X42218349Y-11930000D02*
X42218349Y-14815000D01*
X42258349Y-6976000D02*
X42258349Y-9850000D01*
X42258349Y-11930000D02*
X42258349Y-14804000D01*
X42298349Y-6988000D02*
X42298349Y-9850000D01*
X42298349Y-11930000D02*
X42298349Y-14792000D01*
X42338349Y-7001000D02*
X42338349Y-9850000D01*
X42338349Y-11930000D02*
X42338349Y-14779000D01*
X42378349Y-7013000D02*
X42378349Y-9850000D01*
X42378349Y-11930000D02*
X42378349Y-14767000D01*
X42418349Y-7027000D02*
X42418349Y-9850000D01*
X42418349Y-11930000D02*
X42418349Y-14753000D01*
X42458349Y-7040000D02*
X42458349Y-9850000D01*
X42458349Y-11930000D02*
X42458349Y-14740000D01*
X42498349Y-7055000D02*
X42498349Y-9850000D01*
X42498349Y-11930000D02*
X42498349Y-14725000D01*
X42538349Y-7069000D02*
X42538349Y-9850000D01*
X42538349Y-11930000D02*
X42538349Y-14711000D01*
X42578349Y-7085000D02*
X42578349Y-9850000D01*
X42578349Y-11930000D02*
X42578349Y-14695000D01*
X42618349Y-7100000D02*
X42618349Y-9850000D01*
X42618349Y-11930000D02*
X42618349Y-14680000D01*
X42658349Y-7116000D02*
X42658349Y-9850000D01*
X42658349Y-11930000D02*
X42658349Y-14664000D01*
X42698349Y-7133000D02*
X42698349Y-9850000D01*
X42698349Y-11930000D02*
X42698349Y-14647000D01*
X42738349Y-7150000D02*
X42738349Y-9850000D01*
X42738349Y-11930000D02*
X42738349Y-14630000D01*
X42778349Y-7168000D02*
X42778349Y-9850000D01*
X42778349Y-11930000D02*
X42778349Y-14612000D01*
X42818349Y-7186000D02*
X42818349Y-9850000D01*
X42818349Y-11930000D02*
X42818349Y-14594000D01*
X42858349Y-7204000D02*
X42858349Y-9850000D01*
X42858349Y-11930000D02*
X42858349Y-14576000D01*
X42898349Y-7224000D02*
X42898349Y-9850000D01*
X42898349Y-11930000D02*
X42898349Y-14556000D01*
X42938349Y-7243000D02*
X42938349Y-9850000D01*
X42938349Y-11930000D02*
X42938349Y-14537000D01*
X42978349Y-7263000D02*
X42978349Y-9850000D01*
X42978349Y-11930000D02*
X42978349Y-14517000D01*
X43018349Y-7284000D02*
X43018349Y-9850000D01*
X43018349Y-11930000D02*
X43018349Y-14496000D01*
X43058349Y-7306000D02*
X43058349Y-9850000D01*
X43058349Y-11930000D02*
X43058349Y-14474000D01*
X43098349Y-7328000D02*
X43098349Y-9850000D01*
X43098349Y-11930000D02*
X43098349Y-14452000D01*
X43138349Y-7350000D02*
X43138349Y-9850000D01*
X43138349Y-11930000D02*
X43138349Y-14430000D01*
X43178349Y-7373000D02*
X43178349Y-9850000D01*
X43178349Y-11930000D02*
X43178349Y-14407000D01*
X43218349Y-7397000D02*
X43218349Y-9850000D01*
X43218349Y-11930000D02*
X43218349Y-14383000D01*
X43258349Y-7421000D02*
X43258349Y-9850000D01*
X43258349Y-11930000D02*
X43258349Y-14359000D01*
X43298349Y-7446000D02*
X43298349Y-9850000D01*
X43298349Y-11930000D02*
X43298349Y-14334000D01*
X43338349Y-7472000D02*
X43338349Y-9850000D01*
X43338349Y-11930000D02*
X43338349Y-14308000D01*
X43378349Y-7498000D02*
X43378349Y-9850000D01*
X43378349Y-11930000D02*
X43378349Y-14282000D01*
X43418349Y-7525000D02*
X43418349Y-9850000D01*
X43418349Y-11930000D02*
X43418349Y-14255000D01*
X43458349Y-7552000D02*
X43458349Y-9850000D01*
X43458349Y-11930000D02*
X43458349Y-14228000D01*
X43498349Y-7581000D02*
X43498349Y-9850000D01*
X43498349Y-11930000D02*
X43498349Y-14199000D01*
X43538349Y-7610000D02*
X43538349Y-9850000D01*
X43538349Y-11930000D02*
X43538349Y-14170000D01*
X43578349Y-7640000D02*
X43578349Y-9850000D01*
X43578349Y-11930000D02*
X43578349Y-14140000D01*
X43618349Y-7670000D02*
X43618349Y-9850000D01*
X43618349Y-11930000D02*
X43618349Y-14110000D01*
X43658349Y-7701000D02*
X43658349Y-9850000D01*
X43658349Y-11930000D02*
X43658349Y-14079000D01*
X43698349Y-7734000D02*
X43698349Y-9850000D01*
X43698349Y-11930000D02*
X43698349Y-14046000D01*
X43738349Y-7766000D02*
X43738349Y-9850000D01*
X43738349Y-11930000D02*
X43738349Y-14014000D01*
X43778349Y-7800000D02*
X43778349Y-9850000D01*
X43778349Y-11930000D02*
X43778349Y-13980000D01*
X43818349Y-7835000D02*
X43818349Y-9850000D01*
X43818349Y-11930000D02*
X43818349Y-13945000D01*
X43858349Y-7871000D02*
X43858349Y-9850000D01*
X43858349Y-11930000D02*
X43858349Y-13909000D01*
X43898349Y-7907000D02*
X43898349Y-9850000D01*
X43898349Y-11930000D02*
X43898349Y-13873000D01*
X43938349Y-7945000D02*
X43938349Y-9850000D01*
X43938349Y-11930000D02*
X43938349Y-13835000D01*
X43978349Y-7983000D02*
X43978349Y-9850000D01*
X43978349Y-11930000D02*
X43978349Y-13797000D01*
X44018349Y-8023000D02*
X44018349Y-9850000D01*
X44018349Y-11930000D02*
X44018349Y-13757000D01*
X44058349Y-8064000D02*
X44058349Y-13716000D01*
X44098349Y-8106000D02*
X44098349Y-13674000D01*
X44138349Y-8149000D02*
X44138349Y-13631000D01*
X44178349Y-8193000D02*
X44178349Y-13587000D01*
X44218349Y-8239000D02*
X44218349Y-13541000D01*
X44258349Y-8286000D02*
X44258349Y-13494000D01*
X44298349Y-8334000D02*
X44298349Y-13446000D01*
X44338349Y-8385000D02*
X44338349Y-13395000D01*
X44378349Y-8436000D02*
X44378349Y-13344000D01*
X44418349Y-8490000D02*
X44418349Y-13290000D01*
X44458349Y-8545000D02*
X44458349Y-13235000D01*
X44498349Y-8603000D02*
X44498349Y-13177000D01*
X44538349Y-8662000D02*
X44538349Y-13118000D01*
X44578349Y-8724000D02*
X44578349Y-13056000D01*
X44618349Y-8788000D02*
X44618349Y-12992000D01*
X44658349Y-8856000D02*
X44658349Y-12924000D01*
X44698349Y-8926000D02*
X44698349Y-12854000D01*
X44738349Y-9000000D02*
X44738349Y-12780000D01*
X44778349Y-9077000D02*
X44778349Y-12703000D01*
X44818349Y-9159000D02*
X44818349Y-12621000D01*
X44858349Y-9245000D02*
X44858349Y-12535000D01*
X44898349Y-9338000D02*
X44898349Y-12442000D01*
X44938349Y-9437000D02*
X44938349Y-12343000D01*
X44978349Y-9544000D02*
X44978349Y-12236000D01*
X45018349Y-9661000D02*
X45018349Y-12119000D01*
X45058349Y-9792000D02*
X45058349Y-11988000D01*
X45098349Y-9942000D02*
X45098349Y-11838000D01*
X45138349Y-10122000D02*
X45138349Y-11658000D01*
X45178349Y-10357000D02*
X45178349Y-11423000D01*
X36687651Y-8575000D02*
X37487651Y-8575000D01*
X37087651Y-8175000D02*
X37087651Y-8975000D01*
D14*
X55841240Y-26898900D02*
X54340100Y-24198880D01*
X54340100Y-24198880D02*
X56740400Y-25900680D01*
X56740400Y-25900680D02*
X54840480Y-23800100D01*
X54840480Y-23800100D02*
X57741160Y-24300480D01*
X57741160Y-24300480D02*
X55140200Y-23099060D01*
X55140200Y-23099060D02*
X57840220Y-22601220D01*
X57840220Y-22601220D02*
X54939540Y-22400560D01*
X54939540Y-22400560D02*
X57339840Y-20899420D01*
X57339840Y-20899420D02*
X54540760Y-21801120D01*
X54540760Y-21801120D02*
X56638800Y-19901200D01*
X56638800Y-19901200D02*
X54040380Y-21498860D01*
X54040380Y-21498860D02*
X55439920Y-19101100D01*
X51439420Y-27000500D02*
X52838960Y-24399540D01*
X52838960Y-24399540D02*
X50039880Y-25700020D01*
X50039880Y-25700020D02*
X52239520Y-23800100D01*
X52239520Y-23800100D02*
X49140720Y-24000760D01*
X49140720Y-24000760D02*
X51939800Y-23200660D01*
X51939800Y-23200660D02*
X49140720Y-22601220D01*
X49140720Y-22601220D02*
X52038860Y-22499620D01*
X52038860Y-22499620D02*
X49539500Y-21300740D01*
X49539500Y-21300740D02*
X52341120Y-21999240D01*
X52341120Y-21999240D02*
X50441200Y-20000260D01*
X50441200Y-20000260D02*
X53039620Y-21498860D01*
X53039620Y-21498860D02*
X51739140Y-19101100D01*
X55041140Y-23000000D02*
G75*
G03X55041140Y-23000000I-1501140J0D01*
G01*
X58040880Y-23000000D02*
G75*
G03X58040880Y-23000000I-4500880J0D01*
G01*
X67571240Y-26898900D02*
X66070100Y-24198880D01*
X66070100Y-24198880D02*
X68470400Y-25900680D01*
X68470400Y-25900680D02*
X66570480Y-23800100D01*
X66570480Y-23800100D02*
X69471160Y-24300480D01*
X69471160Y-24300480D02*
X66870200Y-23099060D01*
X66870200Y-23099060D02*
X69570220Y-22601220D01*
X69570220Y-22601220D02*
X66669540Y-22400560D01*
X66669540Y-22400560D02*
X69069840Y-20899420D01*
X69069840Y-20899420D02*
X66270760Y-21801120D01*
X66270760Y-21801120D02*
X68368800Y-19901200D01*
X68368800Y-19901200D02*
X65770380Y-21498860D01*
X65770380Y-21498860D02*
X67169920Y-19101100D01*
X63169420Y-27000500D02*
X64568960Y-24399540D01*
X64568960Y-24399540D02*
X61769880Y-25700020D01*
X61769880Y-25700020D02*
X63969520Y-23800100D01*
X63969520Y-23800100D02*
X60870720Y-24000760D01*
X60870720Y-24000760D02*
X63669800Y-23200660D01*
X63669800Y-23200660D02*
X60870720Y-22601220D01*
X60870720Y-22601220D02*
X63768860Y-22499620D01*
X63768860Y-22499620D02*
X61269500Y-21300740D01*
X61269500Y-21300740D02*
X64071120Y-21999240D01*
X64071120Y-21999240D02*
X62171200Y-20000260D01*
X62171200Y-20000260D02*
X64769620Y-21498860D01*
X64769620Y-21498860D02*
X63469140Y-19101100D01*
X66771140Y-23000000D02*
G75*
G03X66771140Y-23000000I-1501140J0D01*
G01*
X69770880Y-23000000D02*
G75*
G03X69770880Y-23000000I-4500880J0D01*
G01*
X45500880Y-23000000D02*
G75*
G03X45500880Y-23000000I-4500880J0D01*
G01*
X42501140Y-23000000D02*
G75*
G03X42501140Y-23000000I-1501140J0D01*
G01*
X40499620Y-21498860D02*
X39199140Y-19101100D01*
X37901200Y-20000260D02*
X40499620Y-21498860D01*
X39801120Y-21999240D02*
X37901200Y-20000260D01*
X36999500Y-21300740D02*
X39801120Y-21999240D01*
X39498860Y-22499620D02*
X36999500Y-21300740D01*
X36600720Y-22601220D02*
X39498860Y-22499620D01*
X39399800Y-23200660D02*
X36600720Y-22601220D01*
X36600720Y-24000760D02*
X39399800Y-23200660D01*
X39699520Y-23800100D02*
X36600720Y-24000760D01*
X37499880Y-25700020D02*
X39699520Y-23800100D01*
X40298960Y-24399540D02*
X37499880Y-25700020D01*
X38899420Y-27000500D02*
X40298960Y-24399540D01*
X41500380Y-21498860D02*
X42899920Y-19101100D01*
X44098800Y-19901200D02*
X41500380Y-21498860D01*
X42000760Y-21801120D02*
X44098800Y-19901200D01*
X44799840Y-20899420D02*
X42000760Y-21801120D01*
X42399540Y-22400560D02*
X44799840Y-20899420D01*
X45300220Y-22601220D02*
X42399540Y-22400560D01*
X42600200Y-23099060D02*
X45300220Y-22601220D01*
X45201160Y-24300480D02*
X42600200Y-23099060D01*
X42300480Y-23800100D02*
X45201160Y-24300480D01*
X44200400Y-25900680D02*
X42300480Y-23800100D01*
X41800100Y-24198880D02*
X44200400Y-25900680D01*
X43301240Y-26898900D02*
X41800100Y-24198880D01*
D18*
X73800000Y-12300000D02*
X84650000Y-12300000D01*
X73800000Y-7200000D02*
X73800000Y-12300000D01*
X74300000Y-7500000D02*
X73800000Y-7200000D01*
X74300000Y-2100000D02*
X74300000Y-7500000D01*
X73800000Y-2350000D02*
X74300000Y-2100000D01*
X73800000Y-2300000D02*
X73800000Y-2350000D01*
X73800000Y-400000D02*
X73800000Y-2300000D01*
X74300000Y-650000D02*
X73800000Y-400000D01*
X74300000Y300000D02*
X74300000Y-650000D01*
X84650000Y300000D02*
X74300000Y300000D01*
X84650000Y-12300000D02*
X84650000Y300000D01*
X95650000Y-12300000D02*
X95650000Y300000D01*
X95650000Y300000D02*
X85300000Y300000D01*
X85300000Y300000D02*
X85300000Y-650000D01*
X85300000Y-650000D02*
X84800000Y-400000D01*
X84800000Y-400000D02*
X84800000Y-2300000D01*
X84800000Y-2300000D02*
X84800000Y-2350000D01*
X84800000Y-2350000D02*
X85300000Y-2100000D01*
X85300000Y-2100000D02*
X85300000Y-7500000D01*
X85300000Y-7500000D02*
X84800000Y-7200000D01*
X84800000Y-7200000D02*
X84800000Y-12300000D01*
X84800000Y-12300000D02*
X95650000Y-12300000D01*
X87700000Y-25650000D02*
X100300000Y-25650000D01*
X100300000Y-25650000D02*
X100300000Y-15300000D01*
X100300000Y-15300000D02*
X99350000Y-15300000D01*
X99350000Y-15300000D02*
X99600000Y-14800000D01*
X99600000Y-14800000D02*
X97700000Y-14800000D01*
X97700000Y-14800000D02*
X97650000Y-14800000D01*
X97650000Y-14800000D02*
X97900000Y-15300000D01*
X97900000Y-15300000D02*
X92500000Y-15300000D01*
X92500000Y-15300000D02*
X92800000Y-14800000D01*
X92800000Y-14800000D02*
X87700000Y-14800000D01*
X87700000Y-14800000D02*
X87700000Y-25650000D01*
X16650000Y-12116585D02*
X16650000Y483415D01*
X16650000Y483415D02*
X1250000Y483415D01*
X1250000Y483415D02*
X1250000Y-466585D01*
X1250000Y-466585D02*
X750000Y-166585D01*
X750000Y-166585D02*
X750000Y-2166585D01*
X750000Y-2166585D02*
X1250000Y-1916585D01*
X1250000Y-1916585D02*
X1250000Y-7316585D01*
X1250000Y-7316585D02*
X750000Y-7066585D01*
X750000Y-7066585D02*
X750000Y-12116585D01*
X750000Y-12116585D02*
X16650000Y-12116585D01*
X17303224Y-12116585D02*
X33203224Y-12116585D01*
X17303224Y-7066585D02*
X17303224Y-12116585D01*
X17803224Y-7316585D02*
X17303224Y-7066585D01*
X17803224Y-1916585D02*
X17803224Y-7316585D01*
X17303224Y-2166585D02*
X17803224Y-1916585D01*
X17303224Y-166585D02*
X17303224Y-2166585D01*
X17803224Y-466585D02*
X17303224Y-166585D01*
X17803224Y483415D02*
X17803224Y-466585D01*
X33203224Y483415D02*
X17803224Y483415D01*
X33203224Y-12116585D02*
X33203224Y483415D01*
X87700000Y-41650000D02*
X100300000Y-41650000D01*
X100300000Y-41650000D02*
X100300000Y-26250000D01*
X100300000Y-26250000D02*
X99350000Y-26250000D01*
X99350000Y-26250000D02*
X99650000Y-25750000D01*
X99650000Y-25750000D02*
X97650000Y-25750000D01*
X97650000Y-25750000D02*
X97900000Y-26250000D01*
X97900000Y-26250000D02*
X92500000Y-26250000D01*
X92500000Y-26250000D02*
X92750000Y-25750000D01*
X92750000Y-25750000D02*
X87700000Y-25750000D01*
X87700000Y-25750000D02*
X87700000Y-41650000D01*
D14*
X24575000Y-14450000D02*
X24575000Y-26450000D01*
X29375000Y-14450000D02*
X29375000Y-26450000D01*
X29375000Y-26450000D02*
X24575000Y-26450000D01*
X29375000Y-14450000D02*
X24575000Y-14450000D01*
X19371854Y-26450000D02*
X24171854Y-26450000D01*
X19371854Y-14450000D02*
X24171854Y-14450000D01*
X19371854Y-26450000D02*
X19371854Y-14450000D01*
X24171854Y-26450000D02*
X24171854Y-14450000D01*
D18*
X48420000Y270000D02*
X58660000Y270000D01*
X48420000Y-4371000D02*
X58660000Y-4371000D01*
X48420000Y270000D02*
X48420000Y-4371000D01*
X58660000Y270000D02*
X58660000Y-4371000D01*
X48420000Y-1240000D02*
X58660000Y-1240000D01*
X51690000Y270000D02*
X51690000Y-1240000D01*
X55391000Y270000D02*
X55391000Y-1240000D01*
X60150000Y270000D02*
X70390000Y270000D01*
X60150000Y-4371000D02*
X70390000Y-4371000D01*
X60150000Y270000D02*
X60150000Y-4371000D01*
X70390000Y270000D02*
X70390000Y-4371000D01*
X60150000Y-1240000D02*
X70390000Y-1240000D01*
X63420000Y270000D02*
X63420000Y-1240000D01*
X67121000Y270000D02*
X67121000Y-1240000D01*
X42851000Y270000D02*
X42851000Y-1240000D01*
X39150000Y270000D02*
X39150000Y-1240000D01*
X35880000Y-1240000D02*
X46120000Y-1240000D01*
X46120000Y270000D02*
X46120000Y-4371000D01*
X35880000Y270000D02*
X35880000Y-4371000D01*
X35880000Y-4371000D02*
X46120000Y-4371000D01*
X35880000Y270000D02*
X46120000Y270000D01*
X32530000Y-22860000D02*
X35470000Y-22860000D01*
X32530000Y-22620000D02*
X35470000Y-22620000D01*
X32530000Y-22740000D02*
X35470000Y-22740000D01*
X34000000Y-17180000D02*
X34000000Y-18200000D01*
X34000000Y-24660000D02*
X34000000Y-23640000D01*
X32530000Y-18200000D02*
X32530000Y-23640000D01*
X35470000Y-18200000D02*
X32530000Y-18200000D01*
X35470000Y-23640000D02*
X35470000Y-18200000D01*
X32530000Y-23640000D02*
X35470000Y-23640000D01*
X71854696Y-38729161D02*
X74794696Y-38729161D01*
X74794696Y-38729161D02*
X74794696Y-33289161D01*
X74794696Y-33289161D02*
X71854696Y-33289161D01*
X71854696Y-33289161D02*
X71854696Y-38729161D01*
X73324696Y-39749161D02*
X73324696Y-38729161D01*
X73324696Y-32269161D02*
X73324696Y-33289161D01*
X71854696Y-37829161D02*
X74794696Y-37829161D01*
X71854696Y-37709161D02*
X74794696Y-37709161D01*
X71854696Y-37949161D02*
X74794696Y-37949161D01*
X97040000Y-1140000D02*
X97040000Y-4000000D01*
X98960000Y-1140000D02*
X97040000Y-1140000D01*
X98960000Y-4000000D02*
X98960000Y-1140000D01*
X26553224Y-12555946D02*
X23693224Y-12555946D01*
X23693224Y-12555946D02*
X23693224Y-14475946D01*
X23693224Y-14475946D02*
X26553224Y-14475946D01*
X7140000Y-14475946D02*
X10000000Y-14475946D01*
X7140000Y-12555946D02*
X7140000Y-14475946D01*
X10000000Y-12555946D02*
X7140000Y-12555946D01*
X17470000Y-18360000D02*
X14530000Y-18360000D01*
X14530000Y-18360000D02*
X14530000Y-23800000D01*
X14530000Y-23800000D02*
X17470000Y-23800000D01*
X17470000Y-23800000D02*
X17470000Y-18360000D01*
X16000000Y-17340000D02*
X16000000Y-18360000D01*
X16000000Y-24820000D02*
X16000000Y-23800000D01*
X17470000Y-19260000D02*
X14530000Y-19260000D01*
X17470000Y-19380000D02*
X14530000Y-19380000D01*
X17470000Y-19140000D02*
X14530000Y-19140000D01*
X86960000Y-40000000D02*
X86960000Y-37140000D01*
X86960000Y-37140000D02*
X85040000Y-37140000D01*
X85040000Y-37140000D02*
X85040000Y-40000000D01*
X85040000Y-27140000D02*
X85040000Y-30000000D01*
X86960000Y-27140000D02*
X85040000Y-27140000D01*
X86960000Y-30000000D02*
X86960000Y-27140000D01*
X85040000Y-21975000D02*
X85040000Y-24835000D01*
X85040000Y-24835000D02*
X86960000Y-24835000D01*
X86960000Y-24835000D02*
X86960000Y-21975000D01*
X48692677Y-31625000D02*
X48692677Y-32625000D01*
X48192677Y-32125000D02*
X49192677Y-32125000D01*
X58753323Y-34401000D02*
X58753323Y-35599000D01*
X58713323Y-34138000D02*
X58713323Y-35862000D01*
X58673323Y-33938000D02*
X58673323Y-36062000D01*
X58633323Y-33770000D02*
X58633323Y-36230000D01*
X58593323Y-33622000D02*
X58593323Y-36378000D01*
X58553323Y-33490000D02*
X58553323Y-36510000D01*
X58513323Y-33370000D02*
X58513323Y-36630000D01*
X58473323Y-33258000D02*
X58473323Y-36742000D01*
X58433323Y-33154000D02*
X58433323Y-36846000D01*
X58393323Y-33056000D02*
X58393323Y-36944000D01*
X58353323Y-32963000D02*
X58353323Y-37037000D01*
X58313323Y-32875000D02*
X58313323Y-37125000D01*
X58273323Y-32791000D02*
X58273323Y-37209000D01*
X58233323Y-32711000D02*
X58233323Y-37289000D01*
X58193323Y-32635000D02*
X58193323Y-37365000D01*
X58153323Y-32561000D02*
X58153323Y-37439000D01*
X58113323Y-32490000D02*
X58113323Y-37510000D01*
X58073323Y-32421000D02*
X58073323Y-37579000D01*
X58033323Y-32355000D02*
X58033323Y-37645000D01*
X57993323Y-32291000D02*
X57993323Y-37709000D01*
X57953323Y-32230000D02*
X57953323Y-37770000D01*
X57913323Y-32170000D02*
X57913323Y-37830000D01*
X57873323Y-32111000D02*
X57873323Y-37889000D01*
X57833323Y-32055000D02*
X57833323Y-37945000D01*
X57793323Y-32000000D02*
X57793323Y-38000000D01*
X57753323Y-31946000D02*
X57753323Y-38054000D01*
X57713323Y-31894000D02*
X57713323Y-38106000D01*
X57673323Y-31844000D02*
X57673323Y-38156000D01*
X57633323Y-31794000D02*
X57633323Y-38206000D01*
X57593323Y-31746000D02*
X57593323Y-38254000D01*
X57553323Y-31699000D02*
X57553323Y-38301000D01*
X57513323Y-31653000D02*
X57513323Y-38347000D01*
X57473323Y-31608000D02*
X57473323Y-38392000D01*
X57433323Y-31564000D02*
X57433323Y-38436000D01*
X57393323Y-36241000D02*
X57393323Y-38478000D01*
X57393323Y-31522000D02*
X57393323Y-33759000D01*
X57353323Y-36241000D02*
X57353323Y-38520000D01*
X57353323Y-31480000D02*
X57353323Y-33759000D01*
X57313323Y-36241000D02*
X57313323Y-38561000D01*
X57313323Y-31439000D02*
X57313323Y-33759000D01*
X57273323Y-36241000D02*
X57273323Y-38601000D01*
X57273323Y-31399000D02*
X57273323Y-33759000D01*
X57233323Y-36241000D02*
X57233323Y-38640000D01*
X57233323Y-31360000D02*
X57233323Y-33759000D01*
X57193323Y-36241000D02*
X57193323Y-38679000D01*
X57193323Y-31321000D02*
X57193323Y-33759000D01*
X57153323Y-36241000D02*
X57153323Y-38716000D01*
X57153323Y-31284000D02*
X57153323Y-33759000D01*
X57113323Y-36241000D02*
X57113323Y-38753000D01*
X57113323Y-31247000D02*
X57113323Y-33759000D01*
X57073323Y-36241000D02*
X57073323Y-38789000D01*
X57073323Y-31211000D02*
X57073323Y-33759000D01*
X57033323Y-36241000D02*
X57033323Y-38824000D01*
X57033323Y-31176000D02*
X57033323Y-33759000D01*
X56993323Y-36241000D02*
X56993323Y-38858000D01*
X56993323Y-31142000D02*
X56993323Y-33759000D01*
X56953323Y-36241000D02*
X56953323Y-38892000D01*
X56953323Y-31108000D02*
X56953323Y-33759000D01*
X56913323Y-36241000D02*
X56913323Y-38925000D01*
X56913323Y-31075000D02*
X56913323Y-33759000D01*
X56873323Y-36241000D02*
X56873323Y-38957000D01*
X56873323Y-31043000D02*
X56873323Y-33759000D01*
X56833323Y-36241000D02*
X56833323Y-38989000D01*
X56833323Y-31011000D02*
X56833323Y-33759000D01*
X56793323Y-36241000D02*
X56793323Y-39020000D01*
X56793323Y-30980000D02*
X56793323Y-33759000D01*
X56753323Y-36241000D02*
X56753323Y-39050000D01*
X56753323Y-30950000D02*
X56753323Y-33759000D01*
X56713323Y-36241000D02*
X56713323Y-39080000D01*
X56713323Y-30920000D02*
X56713323Y-33759000D01*
X56673323Y-36241000D02*
X56673323Y-39110000D01*
X56673323Y-30890000D02*
X56673323Y-33759000D01*
X56633323Y-36241000D02*
X56633323Y-39138000D01*
X56633323Y-30862000D02*
X56633323Y-33759000D01*
X56593323Y-36241000D02*
X56593323Y-39166000D01*
X56593323Y-30834000D02*
X56593323Y-33759000D01*
X56553323Y-36241000D02*
X56553323Y-39194000D01*
X56553323Y-30806000D02*
X56553323Y-33759000D01*
X56513323Y-36241000D02*
X56513323Y-39221000D01*
X56513323Y-30779000D02*
X56513323Y-33759000D01*
X56473323Y-36241000D02*
X56473323Y-39247000D01*
X56473323Y-30753000D02*
X56473323Y-33759000D01*
X56433323Y-36241000D02*
X56433323Y-39273000D01*
X56433323Y-30727000D02*
X56433323Y-33759000D01*
X56393323Y-36241000D02*
X56393323Y-39298000D01*
X56393323Y-30702000D02*
X56393323Y-33759000D01*
X56353323Y-36241000D02*
X56353323Y-39323000D01*
X56353323Y-30677000D02*
X56353323Y-33759000D01*
X56313323Y-36241000D02*
X56313323Y-39347000D01*
X56313323Y-30653000D02*
X56313323Y-33759000D01*
X56273323Y-36241000D02*
X56273323Y-39371000D01*
X56273323Y-30629000D02*
X56273323Y-33759000D01*
X56233323Y-36241000D02*
X56233323Y-39395000D01*
X56233323Y-30605000D02*
X56233323Y-33759000D01*
X56193323Y-36241000D02*
X56193323Y-39417000D01*
X56193323Y-30583000D02*
X56193323Y-33759000D01*
X56153323Y-36241000D02*
X56153323Y-39440000D01*
X56153323Y-30560000D02*
X56153323Y-33759000D01*
X56113323Y-36241000D02*
X56113323Y-39462000D01*
X56113323Y-30538000D02*
X56113323Y-33759000D01*
X56073323Y-36241000D02*
X56073323Y-39483000D01*
X56073323Y-30517000D02*
X56073323Y-33759000D01*
X56033323Y-36241000D02*
X56033323Y-39504000D01*
X56033323Y-30496000D02*
X56033323Y-33759000D01*
X55993323Y-36241000D02*
X55993323Y-39525000D01*
X55993323Y-30475000D02*
X55993323Y-33759000D01*
X55953323Y-36241000D02*
X55953323Y-39545000D01*
X55953323Y-30455000D02*
X55953323Y-33759000D01*
X55913323Y-36241000D02*
X55913323Y-39564000D01*
X55913323Y-30436000D02*
X55913323Y-33759000D01*
X55873323Y-36241000D02*
X55873323Y-39584000D01*
X55873323Y-30416000D02*
X55873323Y-33759000D01*
X55833323Y-36241000D02*
X55833323Y-39603000D01*
X55833323Y-30397000D02*
X55833323Y-33759000D01*
X55793323Y-36241000D02*
X55793323Y-39621000D01*
X55793323Y-30379000D02*
X55793323Y-33759000D01*
X55753323Y-36241000D02*
X55753323Y-39639000D01*
X55753323Y-30361000D02*
X55753323Y-33759000D01*
X55713323Y-36241000D02*
X55713323Y-39657000D01*
X55713323Y-30343000D02*
X55713323Y-33759000D01*
X55673323Y-36241000D02*
X55673323Y-39674000D01*
X55673323Y-30326000D02*
X55673323Y-33759000D01*
X55633323Y-36241000D02*
X55633323Y-39690000D01*
X55633323Y-30310000D02*
X55633323Y-33759000D01*
X55593323Y-36241000D02*
X55593323Y-39707000D01*
X55593323Y-30293000D02*
X55593323Y-33759000D01*
X55553323Y-36241000D02*
X55553323Y-39723000D01*
X55553323Y-30277000D02*
X55553323Y-33759000D01*
X55513323Y-36241000D02*
X55513323Y-39738000D01*
X55513323Y-30262000D02*
X55513323Y-33759000D01*
X55473323Y-36241000D02*
X55473323Y-39754000D01*
X55473323Y-30246000D02*
X55473323Y-33759000D01*
X55433323Y-36241000D02*
X55433323Y-39768000D01*
X55433323Y-30232000D02*
X55433323Y-33759000D01*
X55393323Y-36241000D02*
X55393323Y-39783000D01*
X55393323Y-30217000D02*
X55393323Y-33759000D01*
X55353323Y-36241000D02*
X55353323Y-39797000D01*
X55353323Y-30203000D02*
X55353323Y-33759000D01*
X55313323Y-36241000D02*
X55313323Y-39811000D01*
X55313323Y-30189000D02*
X55313323Y-33759000D01*
X55273323Y-36241000D02*
X55273323Y-39824000D01*
X55273323Y-30176000D02*
X55273323Y-33759000D01*
X55233323Y-36241000D02*
X55233323Y-39837000D01*
X55233323Y-30163000D02*
X55233323Y-33759000D01*
X55193323Y-36241000D02*
X55193323Y-39850000D01*
X55193323Y-30150000D02*
X55193323Y-33759000D01*
X55153323Y-36241000D02*
X55153323Y-39862000D01*
X55153323Y-30138000D02*
X55153323Y-33759000D01*
X55113323Y-36241000D02*
X55113323Y-39874000D01*
X55113323Y-30126000D02*
X55113323Y-33759000D01*
X55073323Y-36241000D02*
X55073323Y-39885000D01*
X55073323Y-30115000D02*
X55073323Y-33759000D01*
X55033323Y-36241000D02*
X55033323Y-39897000D01*
X55033323Y-30103000D02*
X55033323Y-33759000D01*
X54993323Y-36241000D02*
X54993323Y-39907000D01*
X54993323Y-30093000D02*
X54993323Y-33759000D01*
X54953323Y-36241000D02*
X54953323Y-39918000D01*
X54953323Y-30082000D02*
X54953323Y-33759000D01*
X54913323Y-30072000D02*
X54913323Y-39928000D01*
X54873323Y-30062000D02*
X54873323Y-39938000D01*
X54833323Y-30053000D02*
X54833323Y-39947000D01*
X54793323Y-30044000D02*
X54793323Y-39956000D01*
X54753323Y-30035000D02*
X54753323Y-39965000D01*
X54713323Y-30026000D02*
X54713323Y-39974000D01*
X54673323Y-30018000D02*
X54673323Y-39982000D01*
X54633323Y-30010000D02*
X54633323Y-39990000D01*
X54593323Y-30003000D02*
X54593323Y-39997000D01*
X54553323Y-29996000D02*
X54553323Y-40004000D01*
X54513323Y-29989000D02*
X54513323Y-40011000D01*
X54473323Y-29982000D02*
X54473323Y-40018000D01*
X54433323Y-29976000D02*
X54433323Y-40024000D01*
X54393323Y-29970000D02*
X54393323Y-40030000D01*
X54352323Y-29965000D02*
X54352323Y-40035000D01*
X54312323Y-29960000D02*
X54312323Y-40040000D01*
X54272323Y-29955000D02*
X54272323Y-40045000D01*
X54232323Y-29950000D02*
X54232323Y-40050000D01*
X54192323Y-29946000D02*
X54192323Y-40054000D01*
X54152323Y-29942000D02*
X54152323Y-40058000D01*
X54112323Y-29938000D02*
X54112323Y-40062000D01*
X54072323Y-29935000D02*
X54072323Y-40065000D01*
X54032323Y-29932000D02*
X54032323Y-40068000D01*
X53992323Y-29930000D02*
X53992323Y-40070000D01*
X53952323Y-29927000D02*
X53952323Y-40073000D01*
X53912323Y-29925000D02*
X53912323Y-40075000D01*
X53872323Y-29923000D02*
X53872323Y-40077000D01*
X53832323Y-29922000D02*
X53832323Y-40078000D01*
X53792323Y-29921000D02*
X53792323Y-40079000D01*
X53752323Y-29920000D02*
X53752323Y-40080000D01*
X53712323Y-29920000D02*
X53712323Y-40080000D01*
X53672323Y-29920000D02*
X53672323Y-40080000D01*
X58792323Y-35000000D02*
G75*
G03X58792323Y-35000000I-5120000J0D01*
G01*
X70522323Y-35020000D02*
G75*
G03X70522323Y-35020000I-5120000J0D01*
G01*
X65402323Y-29940000D02*
X65402323Y-40100000D01*
X65442323Y-29940000D02*
X65442323Y-40100000D01*
X65482323Y-29940000D02*
X65482323Y-40100000D01*
X65522323Y-29941000D02*
X65522323Y-40099000D01*
X65562323Y-29942000D02*
X65562323Y-40098000D01*
X65602323Y-29943000D02*
X65602323Y-40097000D01*
X65642323Y-29945000D02*
X65642323Y-40095000D01*
X65682323Y-29947000D02*
X65682323Y-40093000D01*
X65722323Y-29950000D02*
X65722323Y-40090000D01*
X65762323Y-29952000D02*
X65762323Y-40088000D01*
X65802323Y-29955000D02*
X65802323Y-40085000D01*
X65842323Y-29958000D02*
X65842323Y-40082000D01*
X65882323Y-29962000D02*
X65882323Y-40078000D01*
X65922323Y-29966000D02*
X65922323Y-40074000D01*
X65962323Y-29970000D02*
X65962323Y-40070000D01*
X66002323Y-29975000D02*
X66002323Y-40065000D01*
X66042323Y-29980000D02*
X66042323Y-40060000D01*
X66082323Y-29985000D02*
X66082323Y-40055000D01*
X66123323Y-29990000D02*
X66123323Y-40050000D01*
X66163323Y-29996000D02*
X66163323Y-40044000D01*
X66203323Y-30002000D02*
X66203323Y-40038000D01*
X66243323Y-30009000D02*
X66243323Y-40031000D01*
X66283323Y-30016000D02*
X66283323Y-40024000D01*
X66323323Y-30023000D02*
X66323323Y-40017000D01*
X66363323Y-30030000D02*
X66363323Y-40010000D01*
X66403323Y-30038000D02*
X66403323Y-40002000D01*
X66443323Y-30046000D02*
X66443323Y-39994000D01*
X66483323Y-30055000D02*
X66483323Y-39985000D01*
X66523323Y-30064000D02*
X66523323Y-39976000D01*
X66563323Y-30073000D02*
X66563323Y-39967000D01*
X66603323Y-30082000D02*
X66603323Y-39958000D01*
X66643323Y-30092000D02*
X66643323Y-39948000D01*
X66683323Y-30102000D02*
X66683323Y-33779000D01*
X66683323Y-36261000D02*
X66683323Y-39938000D01*
X66723323Y-30113000D02*
X66723323Y-33779000D01*
X66723323Y-36261000D02*
X66723323Y-39927000D01*
X66763323Y-30123000D02*
X66763323Y-33779000D01*
X66763323Y-36261000D02*
X66763323Y-39917000D01*
X66803323Y-30135000D02*
X66803323Y-33779000D01*
X66803323Y-36261000D02*
X66803323Y-39905000D01*
X66843323Y-30146000D02*
X66843323Y-33779000D01*
X66843323Y-36261000D02*
X66843323Y-39894000D01*
X66883323Y-30158000D02*
X66883323Y-33779000D01*
X66883323Y-36261000D02*
X66883323Y-39882000D01*
X66923323Y-30170000D02*
X66923323Y-33779000D01*
X66923323Y-36261000D02*
X66923323Y-39870000D01*
X66963323Y-30183000D02*
X66963323Y-33779000D01*
X66963323Y-36261000D02*
X66963323Y-39857000D01*
X67003323Y-30196000D02*
X67003323Y-33779000D01*
X67003323Y-36261000D02*
X67003323Y-39844000D01*
X67043323Y-30209000D02*
X67043323Y-33779000D01*
X67043323Y-36261000D02*
X67043323Y-39831000D01*
X67083323Y-30223000D02*
X67083323Y-33779000D01*
X67083323Y-36261000D02*
X67083323Y-39817000D01*
X67123323Y-30237000D02*
X67123323Y-33779000D01*
X67123323Y-36261000D02*
X67123323Y-39803000D01*
X67163323Y-30252000D02*
X67163323Y-33779000D01*
X67163323Y-36261000D02*
X67163323Y-39788000D01*
X67203323Y-30266000D02*
X67203323Y-33779000D01*
X67203323Y-36261000D02*
X67203323Y-39774000D01*
X67243323Y-30282000D02*
X67243323Y-33779000D01*
X67243323Y-36261000D02*
X67243323Y-39758000D01*
X67283323Y-30297000D02*
X67283323Y-33779000D01*
X67283323Y-36261000D02*
X67283323Y-39743000D01*
X67323323Y-30313000D02*
X67323323Y-33779000D01*
X67323323Y-36261000D02*
X67323323Y-39727000D01*
X67363323Y-30330000D02*
X67363323Y-33779000D01*
X67363323Y-36261000D02*
X67363323Y-39710000D01*
X67403323Y-30346000D02*
X67403323Y-33779000D01*
X67403323Y-36261000D02*
X67403323Y-39694000D01*
X67443323Y-30363000D02*
X67443323Y-33779000D01*
X67443323Y-36261000D02*
X67443323Y-39677000D01*
X67483323Y-30381000D02*
X67483323Y-33779000D01*
X67483323Y-36261000D02*
X67483323Y-39659000D01*
X67523323Y-30399000D02*
X67523323Y-33779000D01*
X67523323Y-36261000D02*
X67523323Y-39641000D01*
X67563323Y-30417000D02*
X67563323Y-33779000D01*
X67563323Y-36261000D02*
X67563323Y-39623000D01*
X67603323Y-30436000D02*
X67603323Y-33779000D01*
X67603323Y-36261000D02*
X67603323Y-39604000D01*
X67643323Y-30456000D02*
X67643323Y-33779000D01*
X67643323Y-36261000D02*
X67643323Y-39584000D01*
X67683323Y-30475000D02*
X67683323Y-33779000D01*
X67683323Y-36261000D02*
X67683323Y-39565000D01*
X67723323Y-30495000D02*
X67723323Y-33779000D01*
X67723323Y-36261000D02*
X67723323Y-39545000D01*
X67763323Y-30516000D02*
X67763323Y-33779000D01*
X67763323Y-36261000D02*
X67763323Y-39524000D01*
X67803323Y-30537000D02*
X67803323Y-33779000D01*
X67803323Y-36261000D02*
X67803323Y-39503000D01*
X67843323Y-30558000D02*
X67843323Y-33779000D01*
X67843323Y-36261000D02*
X67843323Y-39482000D01*
X67883323Y-30580000D02*
X67883323Y-33779000D01*
X67883323Y-36261000D02*
X67883323Y-39460000D01*
X67923323Y-30603000D02*
X67923323Y-33779000D01*
X67923323Y-36261000D02*
X67923323Y-39437000D01*
X67963323Y-30625000D02*
X67963323Y-33779000D01*
X67963323Y-36261000D02*
X67963323Y-39415000D01*
X68003323Y-30649000D02*
X68003323Y-33779000D01*
X68003323Y-36261000D02*
X68003323Y-39391000D01*
X68043323Y-30673000D02*
X68043323Y-33779000D01*
X68043323Y-36261000D02*
X68043323Y-39367000D01*
X68083323Y-30697000D02*
X68083323Y-33779000D01*
X68083323Y-36261000D02*
X68083323Y-39343000D01*
X68123323Y-30722000D02*
X68123323Y-33779000D01*
X68123323Y-36261000D02*
X68123323Y-39318000D01*
X68163323Y-30747000D02*
X68163323Y-33779000D01*
X68163323Y-36261000D02*
X68163323Y-39293000D01*
X68203323Y-30773000D02*
X68203323Y-33779000D01*
X68203323Y-36261000D02*
X68203323Y-39267000D01*
X68243323Y-30799000D02*
X68243323Y-33779000D01*
X68243323Y-36261000D02*
X68243323Y-39241000D01*
X68283323Y-30826000D02*
X68283323Y-33779000D01*
X68283323Y-36261000D02*
X68283323Y-39214000D01*
X68323323Y-30854000D02*
X68323323Y-33779000D01*
X68323323Y-36261000D02*
X68323323Y-39186000D01*
X68363323Y-30882000D02*
X68363323Y-33779000D01*
X68363323Y-36261000D02*
X68363323Y-39158000D01*
X68403323Y-30910000D02*
X68403323Y-33779000D01*
X68403323Y-36261000D02*
X68403323Y-39130000D01*
X68443323Y-30940000D02*
X68443323Y-33779000D01*
X68443323Y-36261000D02*
X68443323Y-39100000D01*
X68483323Y-30970000D02*
X68483323Y-33779000D01*
X68483323Y-36261000D02*
X68483323Y-39070000D01*
X68523323Y-31000000D02*
X68523323Y-33779000D01*
X68523323Y-36261000D02*
X68523323Y-39040000D01*
X68563323Y-31031000D02*
X68563323Y-33779000D01*
X68563323Y-36261000D02*
X68563323Y-39009000D01*
X68603323Y-31063000D02*
X68603323Y-33779000D01*
X68603323Y-36261000D02*
X68603323Y-38977000D01*
X68643323Y-31095000D02*
X68643323Y-33779000D01*
X68643323Y-36261000D02*
X68643323Y-38945000D01*
X68683323Y-31128000D02*
X68683323Y-33779000D01*
X68683323Y-36261000D02*
X68683323Y-38912000D01*
X68723323Y-31162000D02*
X68723323Y-33779000D01*
X68723323Y-36261000D02*
X68723323Y-38878000D01*
X68763323Y-31196000D02*
X68763323Y-33779000D01*
X68763323Y-36261000D02*
X68763323Y-38844000D01*
X68803323Y-31231000D02*
X68803323Y-33779000D01*
X68803323Y-36261000D02*
X68803323Y-38809000D01*
X68843323Y-31267000D02*
X68843323Y-33779000D01*
X68843323Y-36261000D02*
X68843323Y-38773000D01*
X68883323Y-31304000D02*
X68883323Y-33779000D01*
X68883323Y-36261000D02*
X68883323Y-38736000D01*
X68923323Y-31341000D02*
X68923323Y-33779000D01*
X68923323Y-36261000D02*
X68923323Y-38699000D01*
X68963323Y-31380000D02*
X68963323Y-33779000D01*
X68963323Y-36261000D02*
X68963323Y-38660000D01*
X69003323Y-31419000D02*
X69003323Y-33779000D01*
X69003323Y-36261000D02*
X69003323Y-38621000D01*
X69043323Y-31459000D02*
X69043323Y-33779000D01*
X69043323Y-36261000D02*
X69043323Y-38581000D01*
X69083323Y-31500000D02*
X69083323Y-33779000D01*
X69083323Y-36261000D02*
X69083323Y-38540000D01*
X69123323Y-31542000D02*
X69123323Y-33779000D01*
X69123323Y-36261000D02*
X69123323Y-38498000D01*
X69163323Y-31584000D02*
X69163323Y-38456000D01*
X69203323Y-31628000D02*
X69203323Y-38412000D01*
X69243323Y-31673000D02*
X69243323Y-38367000D01*
X69283323Y-31719000D02*
X69283323Y-38321000D01*
X69323323Y-31766000D02*
X69323323Y-38274000D01*
X69363323Y-31814000D02*
X69363323Y-38226000D01*
X69403323Y-31864000D02*
X69403323Y-38176000D01*
X69443323Y-31914000D02*
X69443323Y-38126000D01*
X69483323Y-31966000D02*
X69483323Y-38074000D01*
X69523323Y-32020000D02*
X69523323Y-38020000D01*
X69563323Y-32075000D02*
X69563323Y-37965000D01*
X69603323Y-32131000D02*
X69603323Y-37909000D01*
X69643323Y-32190000D02*
X69643323Y-37850000D01*
X69683323Y-32250000D02*
X69683323Y-37790000D01*
X69723323Y-32311000D02*
X69723323Y-37729000D01*
X69763323Y-32375000D02*
X69763323Y-37665000D01*
X69803323Y-32441000D02*
X69803323Y-37599000D01*
X69843323Y-32510000D02*
X69843323Y-37530000D01*
X69883323Y-32581000D02*
X69883323Y-37459000D01*
X69923323Y-32655000D02*
X69923323Y-37385000D01*
X69963323Y-32731000D02*
X69963323Y-37309000D01*
X70003323Y-32811000D02*
X70003323Y-37229000D01*
X70043323Y-32895000D02*
X70043323Y-37145000D01*
X70083323Y-32983000D02*
X70083323Y-37057000D01*
X70123323Y-33076000D02*
X70123323Y-36964000D01*
X70163323Y-33174000D02*
X70163323Y-36866000D01*
X70203323Y-33278000D02*
X70203323Y-36762000D01*
X70243323Y-33390000D02*
X70243323Y-36650000D01*
X70283323Y-33510000D02*
X70283323Y-36530000D01*
X70323323Y-33642000D02*
X70323323Y-36398000D01*
X70363323Y-33790000D02*
X70363323Y-36250000D01*
X70403323Y-33958000D02*
X70403323Y-36082000D01*
X70443323Y-34158000D02*
X70443323Y-35882000D01*
X70483323Y-34421000D02*
X70483323Y-35619000D01*
X59922677Y-32145000D02*
X60922677Y-32145000D01*
X60422677Y-31645000D02*
X60422677Y-32645000D01*
X55880000Y-59372500D02*
G75*
G03X55880000Y-59372500I-5120000J0D01*
G01*
X50760000Y-54292500D02*
X50760000Y-64452500D01*
X50800000Y-54292500D02*
X50800000Y-64452500D01*
X50840000Y-54292500D02*
X50840000Y-64452500D01*
X50880000Y-54293500D02*
X50880000Y-64451500D01*
X50920000Y-54294500D02*
X50920000Y-64450500D01*
X50960000Y-54295500D02*
X50960000Y-64449500D01*
X51000000Y-54297500D02*
X51000000Y-64447500D01*
X51040000Y-54299500D02*
X51040000Y-64445500D01*
X51080000Y-54302500D02*
X51080000Y-64442500D01*
X51120000Y-54304500D02*
X51120000Y-64440500D01*
X51160000Y-54307500D02*
X51160000Y-64437500D01*
X51200000Y-54310500D02*
X51200000Y-64434500D01*
X51240000Y-54314500D02*
X51240000Y-64430500D01*
X51280000Y-54318500D02*
X51280000Y-64426500D01*
X51320000Y-54322500D02*
X51320000Y-64422500D01*
X51360000Y-54327500D02*
X51360000Y-64417500D01*
X51400000Y-54332500D02*
X51400000Y-64412500D01*
X51440000Y-54337500D02*
X51440000Y-64407500D01*
X51481000Y-54342500D02*
X51481000Y-64402500D01*
X51521000Y-54348500D02*
X51521000Y-64396500D01*
X51561000Y-54354500D02*
X51561000Y-64390500D01*
X51601000Y-54361500D02*
X51601000Y-64383500D01*
X51641000Y-54368500D02*
X51641000Y-64376500D01*
X51681000Y-54375500D02*
X51681000Y-64369500D01*
X51721000Y-54382500D02*
X51721000Y-64362500D01*
X51761000Y-54390500D02*
X51761000Y-64354500D01*
X51801000Y-54398500D02*
X51801000Y-64346500D01*
X51841000Y-54407500D02*
X51841000Y-64337500D01*
X51881000Y-54416500D02*
X51881000Y-64328500D01*
X51921000Y-54425500D02*
X51921000Y-64319500D01*
X51961000Y-54434500D02*
X51961000Y-64310500D01*
X52001000Y-54444500D02*
X52001000Y-64300500D01*
X52041000Y-54454500D02*
X52041000Y-58131500D01*
X52041000Y-60613500D02*
X52041000Y-64290500D01*
X52081000Y-54465500D02*
X52081000Y-58131500D01*
X52081000Y-60613500D02*
X52081000Y-64279500D01*
X52121000Y-54475500D02*
X52121000Y-58131500D01*
X52121000Y-60613500D02*
X52121000Y-64269500D01*
X52161000Y-54487500D02*
X52161000Y-58131500D01*
X52161000Y-60613500D02*
X52161000Y-64257500D01*
X52201000Y-54498500D02*
X52201000Y-58131500D01*
X52201000Y-60613500D02*
X52201000Y-64246500D01*
X52241000Y-54510500D02*
X52241000Y-58131500D01*
X52241000Y-60613500D02*
X52241000Y-64234500D01*
X52281000Y-54522500D02*
X52281000Y-58131500D01*
X52281000Y-60613500D02*
X52281000Y-64222500D01*
X52321000Y-54535500D02*
X52321000Y-58131500D01*
X52321000Y-60613500D02*
X52321000Y-64209500D01*
X52361000Y-54548500D02*
X52361000Y-58131500D01*
X52361000Y-60613500D02*
X52361000Y-64196500D01*
X52401000Y-54561500D02*
X52401000Y-58131500D01*
X52401000Y-60613500D02*
X52401000Y-64183500D01*
X52441000Y-54575500D02*
X52441000Y-58131500D01*
X52441000Y-60613500D02*
X52441000Y-64169500D01*
X52481000Y-54589500D02*
X52481000Y-58131500D01*
X52481000Y-60613500D02*
X52481000Y-64155500D01*
X52521000Y-54604500D02*
X52521000Y-58131500D01*
X52521000Y-60613500D02*
X52521000Y-64140500D01*
X52561000Y-54618500D02*
X52561000Y-58131500D01*
X52561000Y-60613500D02*
X52561000Y-64126500D01*
X52601000Y-54634500D02*
X52601000Y-58131500D01*
X52601000Y-60613500D02*
X52601000Y-64110500D01*
X52641000Y-54649500D02*
X52641000Y-58131500D01*
X52641000Y-60613500D02*
X52641000Y-64095500D01*
X52681000Y-54665500D02*
X52681000Y-58131500D01*
X52681000Y-60613500D02*
X52681000Y-64079500D01*
X52721000Y-54682500D02*
X52721000Y-58131500D01*
X52721000Y-60613500D02*
X52721000Y-64062500D01*
X52761000Y-54698500D02*
X52761000Y-58131500D01*
X52761000Y-60613500D02*
X52761000Y-64046500D01*
X52801000Y-54715500D02*
X52801000Y-58131500D01*
X52801000Y-60613500D02*
X52801000Y-64029500D01*
X52841000Y-54733500D02*
X52841000Y-58131500D01*
X52841000Y-60613500D02*
X52841000Y-64011500D01*
X52881000Y-54751500D02*
X52881000Y-58131500D01*
X52881000Y-60613500D02*
X52881000Y-63993500D01*
X52921000Y-54769500D02*
X52921000Y-58131500D01*
X52921000Y-60613500D02*
X52921000Y-63975500D01*
X52961000Y-54788500D02*
X52961000Y-58131500D01*
X52961000Y-60613500D02*
X52961000Y-63956500D01*
X53001000Y-54808500D02*
X53001000Y-58131500D01*
X53001000Y-60613500D02*
X53001000Y-63936500D01*
X53041000Y-54827500D02*
X53041000Y-58131500D01*
X53041000Y-60613500D02*
X53041000Y-63917500D01*
X53081000Y-54847500D02*
X53081000Y-58131500D01*
X53081000Y-60613500D02*
X53081000Y-63897500D01*
X53121000Y-54868500D02*
X53121000Y-58131500D01*
X53121000Y-60613500D02*
X53121000Y-63876500D01*
X53161000Y-54889500D02*
X53161000Y-58131500D01*
X53161000Y-60613500D02*
X53161000Y-63855500D01*
X53201000Y-54910500D02*
X53201000Y-58131500D01*
X53201000Y-60613500D02*
X53201000Y-63834500D01*
X53241000Y-54932500D02*
X53241000Y-58131500D01*
X53241000Y-60613500D02*
X53241000Y-63812500D01*
X53281000Y-54955500D02*
X53281000Y-58131500D01*
X53281000Y-60613500D02*
X53281000Y-63789500D01*
X53321000Y-54977500D02*
X53321000Y-58131500D01*
X53321000Y-60613500D02*
X53321000Y-63767500D01*
X53361000Y-55001500D02*
X53361000Y-58131500D01*
X53361000Y-60613500D02*
X53361000Y-63743500D01*
X53401000Y-55025500D02*
X53401000Y-58131500D01*
X53401000Y-60613500D02*
X53401000Y-63719500D01*
X53441000Y-55049500D02*
X53441000Y-58131500D01*
X53441000Y-60613500D02*
X53441000Y-63695500D01*
X53481000Y-55074500D02*
X53481000Y-58131500D01*
X53481000Y-60613500D02*
X53481000Y-63670500D01*
X53521000Y-55099500D02*
X53521000Y-58131500D01*
X53521000Y-60613500D02*
X53521000Y-63645500D01*
X53561000Y-55125500D02*
X53561000Y-58131500D01*
X53561000Y-60613500D02*
X53561000Y-63619500D01*
X53601000Y-55151500D02*
X53601000Y-58131500D01*
X53601000Y-60613500D02*
X53601000Y-63593500D01*
X53641000Y-55178500D02*
X53641000Y-58131500D01*
X53641000Y-60613500D02*
X53641000Y-63566500D01*
X53681000Y-55206500D02*
X53681000Y-58131500D01*
X53681000Y-60613500D02*
X53681000Y-63538500D01*
X53721000Y-55234500D02*
X53721000Y-58131500D01*
X53721000Y-60613500D02*
X53721000Y-63510500D01*
X53761000Y-55262500D02*
X53761000Y-58131500D01*
X53761000Y-60613500D02*
X53761000Y-63482500D01*
X53801000Y-55292500D02*
X53801000Y-58131500D01*
X53801000Y-60613500D02*
X53801000Y-63452500D01*
X53841000Y-55322500D02*
X53841000Y-58131500D01*
X53841000Y-60613500D02*
X53841000Y-63422500D01*
X53881000Y-55352500D02*
X53881000Y-58131500D01*
X53881000Y-60613500D02*
X53881000Y-63392500D01*
X53921000Y-55383500D02*
X53921000Y-58131500D01*
X53921000Y-60613500D02*
X53921000Y-63361500D01*
X53961000Y-55415500D02*
X53961000Y-58131500D01*
X53961000Y-60613500D02*
X53961000Y-63329500D01*
X54001000Y-55447500D02*
X54001000Y-58131500D01*
X54001000Y-60613500D02*
X54001000Y-63297500D01*
X54041000Y-55480500D02*
X54041000Y-58131500D01*
X54041000Y-60613500D02*
X54041000Y-63264500D01*
X54081000Y-55514500D02*
X54081000Y-58131500D01*
X54081000Y-60613500D02*
X54081000Y-63230500D01*
X54121000Y-55548500D02*
X54121000Y-58131500D01*
X54121000Y-60613500D02*
X54121000Y-63196500D01*
X54161000Y-55583500D02*
X54161000Y-58131500D01*
X54161000Y-60613500D02*
X54161000Y-63161500D01*
X54201000Y-55619500D02*
X54201000Y-58131500D01*
X54201000Y-60613500D02*
X54201000Y-63125500D01*
X54241000Y-55656500D02*
X54241000Y-58131500D01*
X54241000Y-60613500D02*
X54241000Y-63088500D01*
X54281000Y-55693500D02*
X54281000Y-58131500D01*
X54281000Y-60613500D02*
X54281000Y-63051500D01*
X54321000Y-55732500D02*
X54321000Y-58131500D01*
X54321000Y-60613500D02*
X54321000Y-63012500D01*
X54361000Y-55771500D02*
X54361000Y-58131500D01*
X54361000Y-60613500D02*
X54361000Y-62973500D01*
X54401000Y-55811500D02*
X54401000Y-58131500D01*
X54401000Y-60613500D02*
X54401000Y-62933500D01*
X54441000Y-55852500D02*
X54441000Y-58131500D01*
X54441000Y-60613500D02*
X54441000Y-62892500D01*
X54481000Y-55894500D02*
X54481000Y-58131500D01*
X54481000Y-60613500D02*
X54481000Y-62850500D01*
X54521000Y-55936500D02*
X54521000Y-62808500D01*
X54561000Y-55980500D02*
X54561000Y-62764500D01*
X54601000Y-56025500D02*
X54601000Y-62719500D01*
X54641000Y-56071500D02*
X54641000Y-62673500D01*
X54681000Y-56118500D02*
X54681000Y-62626500D01*
X54721000Y-56166500D02*
X54721000Y-62578500D01*
X54761000Y-56216500D02*
X54761000Y-62528500D01*
X54801000Y-56266500D02*
X54801000Y-62478500D01*
X54841000Y-56318500D02*
X54841000Y-62426500D01*
X54881000Y-56372500D02*
X54881000Y-62372500D01*
X54921000Y-56427500D02*
X54921000Y-62317500D01*
X54961000Y-56483500D02*
X54961000Y-62261500D01*
X55001000Y-56542500D02*
X55001000Y-62202500D01*
X55041000Y-56602500D02*
X55041000Y-62142500D01*
X55081000Y-56663500D02*
X55081000Y-62081500D01*
X55121000Y-56727500D02*
X55121000Y-62017500D01*
X55161000Y-56793500D02*
X55161000Y-61951500D01*
X55201000Y-56862500D02*
X55201000Y-61882500D01*
X55241000Y-56933500D02*
X55241000Y-61811500D01*
X55281000Y-57007500D02*
X55281000Y-61737500D01*
X55321000Y-57083500D02*
X55321000Y-61661500D01*
X55361000Y-57163500D02*
X55361000Y-61581500D01*
X55401000Y-57247500D02*
X55401000Y-61497500D01*
X55441000Y-57335500D02*
X55441000Y-61409500D01*
X55481000Y-57428500D02*
X55481000Y-61316500D01*
X55521000Y-57526500D02*
X55521000Y-61218500D01*
X55561000Y-57630500D02*
X55561000Y-61114500D01*
X55601000Y-57742500D02*
X55601000Y-61002500D01*
X55641000Y-57862500D02*
X55641000Y-60882500D01*
X55681000Y-57994500D02*
X55681000Y-60750500D01*
X55721000Y-58142500D02*
X55721000Y-60602500D01*
X55761000Y-58310500D02*
X55761000Y-60434500D01*
X55801000Y-58510500D02*
X55801000Y-60234500D01*
X55841000Y-58773500D02*
X55841000Y-59971500D01*
X45280354Y-56497500D02*
X46280354Y-56497500D01*
X45780354Y-55997500D02*
X45780354Y-56997500D01*
X45780354Y-78222500D02*
X45780354Y-79222500D01*
X45280354Y-78722500D02*
X46280354Y-78722500D01*
X55841000Y-80998500D02*
X55841000Y-82196500D01*
X55801000Y-80735500D02*
X55801000Y-82459500D01*
X55761000Y-80535500D02*
X55761000Y-82659500D01*
X55721000Y-80367500D02*
X55721000Y-82827500D01*
X55681000Y-80219500D02*
X55681000Y-82975500D01*
X55641000Y-80087500D02*
X55641000Y-83107500D01*
X55601000Y-79967500D02*
X55601000Y-83227500D01*
X55561000Y-79855500D02*
X55561000Y-83339500D01*
X55521000Y-79751500D02*
X55521000Y-83443500D01*
X55481000Y-79653500D02*
X55481000Y-83541500D01*
X55441000Y-79560500D02*
X55441000Y-83634500D01*
X55401000Y-79472500D02*
X55401000Y-83722500D01*
X55361000Y-79388500D02*
X55361000Y-83806500D01*
X55321000Y-79308500D02*
X55321000Y-83886500D01*
X55281000Y-79232500D02*
X55281000Y-83962500D01*
X55241000Y-79158500D02*
X55241000Y-84036500D01*
X55201000Y-79087500D02*
X55201000Y-84107500D01*
X55161000Y-79018500D02*
X55161000Y-84176500D01*
X55121000Y-78952500D02*
X55121000Y-84242500D01*
X55081000Y-78888500D02*
X55081000Y-84306500D01*
X55041000Y-78827500D02*
X55041000Y-84367500D01*
X55001000Y-78767500D02*
X55001000Y-84427500D01*
X54961000Y-78708500D02*
X54961000Y-84486500D01*
X54921000Y-78652500D02*
X54921000Y-84542500D01*
X54881000Y-78597500D02*
X54881000Y-84597500D01*
X54841000Y-78543500D02*
X54841000Y-84651500D01*
X54801000Y-78491500D02*
X54801000Y-84703500D01*
X54761000Y-78441500D02*
X54761000Y-84753500D01*
X54721000Y-78391500D02*
X54721000Y-84803500D01*
X54681000Y-78343500D02*
X54681000Y-84851500D01*
X54641000Y-78296500D02*
X54641000Y-84898500D01*
X54601000Y-78250500D02*
X54601000Y-84944500D01*
X54561000Y-78205500D02*
X54561000Y-84989500D01*
X54521000Y-78161500D02*
X54521000Y-85033500D01*
X54481000Y-82838500D02*
X54481000Y-85075500D01*
X54481000Y-78119500D02*
X54481000Y-80356500D01*
X54441000Y-82838500D02*
X54441000Y-85117500D01*
X54441000Y-78077500D02*
X54441000Y-80356500D01*
X54401000Y-82838500D02*
X54401000Y-85158500D01*
X54401000Y-78036500D02*
X54401000Y-80356500D01*
X54361000Y-82838500D02*
X54361000Y-85198500D01*
X54361000Y-77996500D02*
X54361000Y-80356500D01*
X54321000Y-82838500D02*
X54321000Y-85237500D01*
X54321000Y-77957500D02*
X54321000Y-80356500D01*
X54281000Y-82838500D02*
X54281000Y-85276500D01*
X54281000Y-77918500D02*
X54281000Y-80356500D01*
X54241000Y-82838500D02*
X54241000Y-85313500D01*
X54241000Y-77881500D02*
X54241000Y-80356500D01*
X54201000Y-82838500D02*
X54201000Y-85350500D01*
X54201000Y-77844500D02*
X54201000Y-80356500D01*
X54161000Y-82838500D02*
X54161000Y-85386500D01*
X54161000Y-77808500D02*
X54161000Y-80356500D01*
X54121000Y-82838500D02*
X54121000Y-85421500D01*
X54121000Y-77773500D02*
X54121000Y-80356500D01*
X54081000Y-82838500D02*
X54081000Y-85455500D01*
X54081000Y-77739500D02*
X54081000Y-80356500D01*
X54041000Y-82838500D02*
X54041000Y-85489500D01*
X54041000Y-77705500D02*
X54041000Y-80356500D01*
X54001000Y-82838500D02*
X54001000Y-85522500D01*
X54001000Y-77672500D02*
X54001000Y-80356500D01*
X53961000Y-82838500D02*
X53961000Y-85554500D01*
X53961000Y-77640500D02*
X53961000Y-80356500D01*
X53921000Y-82838500D02*
X53921000Y-85586500D01*
X53921000Y-77608500D02*
X53921000Y-80356500D01*
X53881000Y-82838500D02*
X53881000Y-85617500D01*
X53881000Y-77577500D02*
X53881000Y-80356500D01*
X53841000Y-82838500D02*
X53841000Y-85647500D01*
X53841000Y-77547500D02*
X53841000Y-80356500D01*
X53801000Y-82838500D02*
X53801000Y-85677500D01*
X53801000Y-77517500D02*
X53801000Y-80356500D01*
X53761000Y-82838500D02*
X53761000Y-85707500D01*
X53761000Y-77487500D02*
X53761000Y-80356500D01*
X53721000Y-82838500D02*
X53721000Y-85735500D01*
X53721000Y-77459500D02*
X53721000Y-80356500D01*
X53681000Y-82838500D02*
X53681000Y-85763500D01*
X53681000Y-77431500D02*
X53681000Y-80356500D01*
X53641000Y-82838500D02*
X53641000Y-85791500D01*
X53641000Y-77403500D02*
X53641000Y-80356500D01*
X53601000Y-82838500D02*
X53601000Y-85818500D01*
X53601000Y-77376500D02*
X53601000Y-80356500D01*
X53561000Y-82838500D02*
X53561000Y-85844500D01*
X53561000Y-77350500D02*
X53561000Y-80356500D01*
X53521000Y-82838500D02*
X53521000Y-85870500D01*
X53521000Y-77324500D02*
X53521000Y-80356500D01*
X53481000Y-82838500D02*
X53481000Y-85895500D01*
X53481000Y-77299500D02*
X53481000Y-80356500D01*
X53441000Y-82838500D02*
X53441000Y-85920500D01*
X53441000Y-77274500D02*
X53441000Y-80356500D01*
X53401000Y-82838500D02*
X53401000Y-85944500D01*
X53401000Y-77250500D02*
X53401000Y-80356500D01*
X53361000Y-82838500D02*
X53361000Y-85968500D01*
X53361000Y-77226500D02*
X53361000Y-80356500D01*
X53321000Y-82838500D02*
X53321000Y-85992500D01*
X53321000Y-77202500D02*
X53321000Y-80356500D01*
X53281000Y-82838500D02*
X53281000Y-86014500D01*
X53281000Y-77180500D02*
X53281000Y-80356500D01*
X53241000Y-82838500D02*
X53241000Y-86037500D01*
X53241000Y-77157500D02*
X53241000Y-80356500D01*
X53201000Y-82838500D02*
X53201000Y-86059500D01*
X53201000Y-77135500D02*
X53201000Y-80356500D01*
X53161000Y-82838500D02*
X53161000Y-86080500D01*
X53161000Y-77114500D02*
X53161000Y-80356500D01*
X53121000Y-82838500D02*
X53121000Y-86101500D01*
X53121000Y-77093500D02*
X53121000Y-80356500D01*
X53081000Y-82838500D02*
X53081000Y-86122500D01*
X53081000Y-77072500D02*
X53081000Y-80356500D01*
X53041000Y-82838500D02*
X53041000Y-86142500D01*
X53041000Y-77052500D02*
X53041000Y-80356500D01*
X53001000Y-82838500D02*
X53001000Y-86161500D01*
X53001000Y-77033500D02*
X53001000Y-80356500D01*
X52961000Y-82838500D02*
X52961000Y-86181500D01*
X52961000Y-77013500D02*
X52961000Y-80356500D01*
X52921000Y-82838500D02*
X52921000Y-86200500D01*
X52921000Y-76994500D02*
X52921000Y-80356500D01*
X52881000Y-82838500D02*
X52881000Y-86218500D01*
X52881000Y-76976500D02*
X52881000Y-80356500D01*
X52841000Y-82838500D02*
X52841000Y-86236500D01*
X52841000Y-76958500D02*
X52841000Y-80356500D01*
X52801000Y-82838500D02*
X52801000Y-86254500D01*
X52801000Y-76940500D02*
X52801000Y-80356500D01*
X52761000Y-82838500D02*
X52761000Y-86271500D01*
X52761000Y-76923500D02*
X52761000Y-80356500D01*
X52721000Y-82838500D02*
X52721000Y-86287500D01*
X52721000Y-76907500D02*
X52721000Y-80356500D01*
X52681000Y-82838500D02*
X52681000Y-86304500D01*
X52681000Y-76890500D02*
X52681000Y-80356500D01*
X52641000Y-82838500D02*
X52641000Y-86320500D01*
X52641000Y-76874500D02*
X52641000Y-80356500D01*
X52601000Y-82838500D02*
X52601000Y-86335500D01*
X52601000Y-76859500D02*
X52601000Y-80356500D01*
X52561000Y-82838500D02*
X52561000Y-86351500D01*
X52561000Y-76843500D02*
X52561000Y-80356500D01*
X52521000Y-82838500D02*
X52521000Y-86365500D01*
X52521000Y-76829500D02*
X52521000Y-80356500D01*
X52481000Y-82838500D02*
X52481000Y-86380500D01*
X52481000Y-76814500D02*
X52481000Y-80356500D01*
X52441000Y-82838500D02*
X52441000Y-86394500D01*
X52441000Y-76800500D02*
X52441000Y-80356500D01*
X52401000Y-82838500D02*
X52401000Y-86408500D01*
X52401000Y-76786500D02*
X52401000Y-80356500D01*
X52361000Y-82838500D02*
X52361000Y-86421500D01*
X52361000Y-76773500D02*
X52361000Y-80356500D01*
X52321000Y-82838500D02*
X52321000Y-86434500D01*
X52321000Y-76760500D02*
X52321000Y-80356500D01*
X52281000Y-82838500D02*
X52281000Y-86447500D01*
X52281000Y-76747500D02*
X52281000Y-80356500D01*
X52241000Y-82838500D02*
X52241000Y-86459500D01*
X52241000Y-76735500D02*
X52241000Y-80356500D01*
X52201000Y-82838500D02*
X52201000Y-86471500D01*
X52201000Y-76723500D02*
X52201000Y-80356500D01*
X52161000Y-82838500D02*
X52161000Y-86482500D01*
X52161000Y-76712500D02*
X52161000Y-80356500D01*
X52121000Y-82838500D02*
X52121000Y-86494500D01*
X52121000Y-76700500D02*
X52121000Y-80356500D01*
X52081000Y-82838500D02*
X52081000Y-86504500D01*
X52081000Y-76690500D02*
X52081000Y-80356500D01*
X52041000Y-82838500D02*
X52041000Y-86515500D01*
X52041000Y-76679500D02*
X52041000Y-80356500D01*
X52001000Y-76669500D02*
X52001000Y-86525500D01*
X51961000Y-76659500D02*
X51961000Y-86535500D01*
X51921000Y-76650500D02*
X51921000Y-86544500D01*
X51881000Y-76641500D02*
X51881000Y-86553500D01*
X51841000Y-76632500D02*
X51841000Y-86562500D01*
X51801000Y-76623500D02*
X51801000Y-86571500D01*
X51761000Y-76615500D02*
X51761000Y-86579500D01*
X51721000Y-76607500D02*
X51721000Y-86587500D01*
X51681000Y-76600500D02*
X51681000Y-86594500D01*
X51641000Y-76593500D02*
X51641000Y-86601500D01*
X51601000Y-76586500D02*
X51601000Y-86608500D01*
X51561000Y-76579500D02*
X51561000Y-86615500D01*
X51521000Y-76573500D02*
X51521000Y-86621500D01*
X51481000Y-76567500D02*
X51481000Y-86627500D01*
X51440000Y-76562500D02*
X51440000Y-86632500D01*
X51400000Y-76557500D02*
X51400000Y-86637500D01*
X51360000Y-76552500D02*
X51360000Y-86642500D01*
X51320000Y-76547500D02*
X51320000Y-86647500D01*
X51280000Y-76543500D02*
X51280000Y-86651500D01*
X51240000Y-76539500D02*
X51240000Y-86655500D01*
X51200000Y-76535500D02*
X51200000Y-86659500D01*
X51160000Y-76532500D02*
X51160000Y-86662500D01*
X51120000Y-76529500D02*
X51120000Y-86665500D01*
X51080000Y-76527500D02*
X51080000Y-86667500D01*
X51040000Y-76524500D02*
X51040000Y-86670500D01*
X51000000Y-76522500D02*
X51000000Y-86672500D01*
X50960000Y-76520500D02*
X50960000Y-86674500D01*
X50920000Y-76519500D02*
X50920000Y-86675500D01*
X50880000Y-76518500D02*
X50880000Y-86676500D01*
X50840000Y-76517500D02*
X50840000Y-86677500D01*
X50800000Y-76517500D02*
X50800000Y-86677500D01*
X50760000Y-76517500D02*
X50760000Y-86677500D01*
X55880000Y-81597500D02*
G75*
G03X55880000Y-81597500I-5120000J0D01*
G01*
X45780354Y-89335000D02*
X45780354Y-90335000D01*
X45280354Y-89835000D02*
X46280354Y-89835000D01*
X55841000Y-92111000D02*
X55841000Y-93309000D01*
X55801000Y-91848000D02*
X55801000Y-93572000D01*
X55761000Y-91648000D02*
X55761000Y-93772000D01*
X55721000Y-91480000D02*
X55721000Y-93940000D01*
X55681000Y-91332000D02*
X55681000Y-94088000D01*
X55641000Y-91200000D02*
X55641000Y-94220000D01*
X55601000Y-91080000D02*
X55601000Y-94340000D01*
X55561000Y-90968000D02*
X55561000Y-94452000D01*
X55521000Y-90864000D02*
X55521000Y-94556000D01*
X55481000Y-90766000D02*
X55481000Y-94654000D01*
X55441000Y-90673000D02*
X55441000Y-94747000D01*
X55401000Y-90585000D02*
X55401000Y-94835000D01*
X55361000Y-90501000D02*
X55361000Y-94919000D01*
X55321000Y-90421000D02*
X55321000Y-94999000D01*
X55281000Y-90345000D02*
X55281000Y-95075000D01*
X55241000Y-90271000D02*
X55241000Y-95149000D01*
X55201000Y-90200000D02*
X55201000Y-95220000D01*
X55161000Y-90131000D02*
X55161000Y-95289000D01*
X55121000Y-90065000D02*
X55121000Y-95355000D01*
X55081000Y-90001000D02*
X55081000Y-95419000D01*
X55041000Y-89940000D02*
X55041000Y-95480000D01*
X55001000Y-89880000D02*
X55001000Y-95540000D01*
X54961000Y-89821000D02*
X54961000Y-95599000D01*
X54921000Y-89765000D02*
X54921000Y-95655000D01*
X54881000Y-89710000D02*
X54881000Y-95710000D01*
X54841000Y-89656000D02*
X54841000Y-95764000D01*
X54801000Y-89604000D02*
X54801000Y-95816000D01*
X54761000Y-89554000D02*
X54761000Y-95866000D01*
X54721000Y-89504000D02*
X54721000Y-95916000D01*
X54681000Y-89456000D02*
X54681000Y-95964000D01*
X54641000Y-89409000D02*
X54641000Y-96011000D01*
X54601000Y-89363000D02*
X54601000Y-96057000D01*
X54561000Y-89318000D02*
X54561000Y-96102000D01*
X54521000Y-89274000D02*
X54521000Y-96146000D01*
X54481000Y-93951000D02*
X54481000Y-96188000D01*
X54481000Y-89232000D02*
X54481000Y-91469000D01*
X54441000Y-93951000D02*
X54441000Y-96230000D01*
X54441000Y-89190000D02*
X54441000Y-91469000D01*
X54401000Y-93951000D02*
X54401000Y-96271000D01*
X54401000Y-89149000D02*
X54401000Y-91469000D01*
X54361000Y-93951000D02*
X54361000Y-96311000D01*
X54361000Y-89109000D02*
X54361000Y-91469000D01*
X54321000Y-93951000D02*
X54321000Y-96350000D01*
X54321000Y-89070000D02*
X54321000Y-91469000D01*
X54281000Y-93951000D02*
X54281000Y-96389000D01*
X54281000Y-89031000D02*
X54281000Y-91469000D01*
X54241000Y-93951000D02*
X54241000Y-96426000D01*
X54241000Y-88994000D02*
X54241000Y-91469000D01*
X54201000Y-93951000D02*
X54201000Y-96463000D01*
X54201000Y-88957000D02*
X54201000Y-91469000D01*
X54161000Y-93951000D02*
X54161000Y-96499000D01*
X54161000Y-88921000D02*
X54161000Y-91469000D01*
X54121000Y-93951000D02*
X54121000Y-96534000D01*
X54121000Y-88886000D02*
X54121000Y-91469000D01*
X54081000Y-93951000D02*
X54081000Y-96568000D01*
X54081000Y-88852000D02*
X54081000Y-91469000D01*
X54041000Y-93951000D02*
X54041000Y-96602000D01*
X54041000Y-88818000D02*
X54041000Y-91469000D01*
X54001000Y-93951000D02*
X54001000Y-96635000D01*
X54001000Y-88785000D02*
X54001000Y-91469000D01*
X53961000Y-93951000D02*
X53961000Y-96667000D01*
X53961000Y-88753000D02*
X53961000Y-91469000D01*
X53921000Y-93951000D02*
X53921000Y-96699000D01*
X53921000Y-88721000D02*
X53921000Y-91469000D01*
X53881000Y-93951000D02*
X53881000Y-96730000D01*
X53881000Y-88690000D02*
X53881000Y-91469000D01*
X53841000Y-93951000D02*
X53841000Y-96760000D01*
X53841000Y-88660000D02*
X53841000Y-91469000D01*
X53801000Y-93951000D02*
X53801000Y-96790000D01*
X53801000Y-88630000D02*
X53801000Y-91469000D01*
X53761000Y-93951000D02*
X53761000Y-96820000D01*
X53761000Y-88600000D02*
X53761000Y-91469000D01*
X53721000Y-93951000D02*
X53721000Y-96848000D01*
X53721000Y-88572000D02*
X53721000Y-91469000D01*
X53681000Y-93951000D02*
X53681000Y-96876000D01*
X53681000Y-88544000D02*
X53681000Y-91469000D01*
X53641000Y-93951000D02*
X53641000Y-96904000D01*
X53641000Y-88516000D02*
X53641000Y-91469000D01*
X53601000Y-93951000D02*
X53601000Y-96931000D01*
X53601000Y-88489000D02*
X53601000Y-91469000D01*
X53561000Y-93951000D02*
X53561000Y-96957000D01*
X53561000Y-88463000D02*
X53561000Y-91469000D01*
X53521000Y-93951000D02*
X53521000Y-96983000D01*
X53521000Y-88437000D02*
X53521000Y-91469000D01*
X53481000Y-93951000D02*
X53481000Y-97008000D01*
X53481000Y-88412000D02*
X53481000Y-91469000D01*
X53441000Y-93951000D02*
X53441000Y-97033000D01*
X53441000Y-88387000D02*
X53441000Y-91469000D01*
X53401000Y-93951000D02*
X53401000Y-97057000D01*
X53401000Y-88363000D02*
X53401000Y-91469000D01*
X53361000Y-93951000D02*
X53361000Y-97081000D01*
X53361000Y-88339000D02*
X53361000Y-91469000D01*
X53321000Y-93951000D02*
X53321000Y-97105000D01*
X53321000Y-88315000D02*
X53321000Y-91469000D01*
X53281000Y-93951000D02*
X53281000Y-97127000D01*
X53281000Y-88293000D02*
X53281000Y-91469000D01*
X53241000Y-93951000D02*
X53241000Y-97150000D01*
X53241000Y-88270000D02*
X53241000Y-91469000D01*
X53201000Y-93951000D02*
X53201000Y-97172000D01*
X53201000Y-88248000D02*
X53201000Y-91469000D01*
X53161000Y-93951000D02*
X53161000Y-97193000D01*
X53161000Y-88227000D02*
X53161000Y-91469000D01*
X53121000Y-93951000D02*
X53121000Y-97214000D01*
X53121000Y-88206000D02*
X53121000Y-91469000D01*
X53081000Y-93951000D02*
X53081000Y-97235000D01*
X53081000Y-88185000D02*
X53081000Y-91469000D01*
X53041000Y-93951000D02*
X53041000Y-97255000D01*
X53041000Y-88165000D02*
X53041000Y-91469000D01*
X53001000Y-93951000D02*
X53001000Y-97274000D01*
X53001000Y-88146000D02*
X53001000Y-91469000D01*
X52961000Y-93951000D02*
X52961000Y-97294000D01*
X52961000Y-88126000D02*
X52961000Y-91469000D01*
X52921000Y-93951000D02*
X52921000Y-97313000D01*
X52921000Y-88107000D02*
X52921000Y-91469000D01*
X52881000Y-93951000D02*
X52881000Y-97331000D01*
X52881000Y-88089000D02*
X52881000Y-91469000D01*
X52841000Y-93951000D02*
X52841000Y-97349000D01*
X52841000Y-88071000D02*
X52841000Y-91469000D01*
X52801000Y-93951000D02*
X52801000Y-97367000D01*
X52801000Y-88053000D02*
X52801000Y-91469000D01*
X52761000Y-93951000D02*
X52761000Y-97384000D01*
X52761000Y-88036000D02*
X52761000Y-91469000D01*
X52721000Y-93951000D02*
X52721000Y-97400000D01*
X52721000Y-88020000D02*
X52721000Y-91469000D01*
X52681000Y-93951000D02*
X52681000Y-97417000D01*
X52681000Y-88003000D02*
X52681000Y-91469000D01*
X52641000Y-93951000D02*
X52641000Y-97433000D01*
X52641000Y-87987000D02*
X52641000Y-91469000D01*
X52601000Y-93951000D02*
X52601000Y-97448000D01*
X52601000Y-87972000D02*
X52601000Y-91469000D01*
X52561000Y-93951000D02*
X52561000Y-97464000D01*
X52561000Y-87956000D02*
X52561000Y-91469000D01*
X52521000Y-93951000D02*
X52521000Y-97478000D01*
X52521000Y-87942000D02*
X52521000Y-91469000D01*
X52481000Y-93951000D02*
X52481000Y-97493000D01*
X52481000Y-87927000D02*
X52481000Y-91469000D01*
X52441000Y-93951000D02*
X52441000Y-97507000D01*
X52441000Y-87913000D02*
X52441000Y-91469000D01*
X52401000Y-93951000D02*
X52401000Y-97521000D01*
X52401000Y-87899000D02*
X52401000Y-91469000D01*
X52361000Y-93951000D02*
X52361000Y-97534000D01*
X52361000Y-87886000D02*
X52361000Y-91469000D01*
X52321000Y-93951000D02*
X52321000Y-97547000D01*
X52321000Y-87873000D02*
X52321000Y-91469000D01*
X52281000Y-93951000D02*
X52281000Y-97560000D01*
X52281000Y-87860000D02*
X52281000Y-91469000D01*
X52241000Y-93951000D02*
X52241000Y-97572000D01*
X52241000Y-87848000D02*
X52241000Y-91469000D01*
X52201000Y-93951000D02*
X52201000Y-97584000D01*
X52201000Y-87836000D02*
X52201000Y-91469000D01*
X52161000Y-93951000D02*
X52161000Y-97595000D01*
X52161000Y-87825000D02*
X52161000Y-91469000D01*
X52121000Y-93951000D02*
X52121000Y-97607000D01*
X52121000Y-87813000D02*
X52121000Y-91469000D01*
X52081000Y-93951000D02*
X52081000Y-97617000D01*
X52081000Y-87803000D02*
X52081000Y-91469000D01*
X52041000Y-93951000D02*
X52041000Y-97628000D01*
X52041000Y-87792000D02*
X52041000Y-91469000D01*
X52001000Y-87782000D02*
X52001000Y-97638000D01*
X51961000Y-87772000D02*
X51961000Y-97648000D01*
X51921000Y-87763000D02*
X51921000Y-97657000D01*
X51881000Y-87754000D02*
X51881000Y-97666000D01*
X51841000Y-87745000D02*
X51841000Y-97675000D01*
X51801000Y-87736000D02*
X51801000Y-97684000D01*
X51761000Y-87728000D02*
X51761000Y-97692000D01*
X51721000Y-87720000D02*
X51721000Y-97700000D01*
X51681000Y-87713000D02*
X51681000Y-97707000D01*
X51641000Y-87706000D02*
X51641000Y-97714000D01*
X51601000Y-87699000D02*
X51601000Y-97721000D01*
X51561000Y-87692000D02*
X51561000Y-97728000D01*
X51521000Y-87686000D02*
X51521000Y-97734000D01*
X51481000Y-87680000D02*
X51481000Y-97740000D01*
X51440000Y-87675000D02*
X51440000Y-97745000D01*
X51400000Y-87670000D02*
X51400000Y-97750000D01*
X51360000Y-87665000D02*
X51360000Y-97755000D01*
X51320000Y-87660000D02*
X51320000Y-97760000D01*
X51280000Y-87656000D02*
X51280000Y-97764000D01*
X51240000Y-87652000D02*
X51240000Y-97768000D01*
X51200000Y-87648000D02*
X51200000Y-97772000D01*
X51160000Y-87645000D02*
X51160000Y-97775000D01*
X51120000Y-87642000D02*
X51120000Y-97778000D01*
X51080000Y-87640000D02*
X51080000Y-97780000D01*
X51040000Y-87637000D02*
X51040000Y-97783000D01*
X51000000Y-87635000D02*
X51000000Y-97785000D01*
X50960000Y-87633000D02*
X50960000Y-97787000D01*
X50920000Y-87632000D02*
X50920000Y-97788000D01*
X50880000Y-87631000D02*
X50880000Y-97789000D01*
X50840000Y-87630000D02*
X50840000Y-97790000D01*
X50800000Y-87630000D02*
X50800000Y-97790000D01*
X50760000Y-87630000D02*
X50760000Y-97790000D01*
X55880000Y-92710000D02*
G75*
G03X55880000Y-92710000I-5120000J0D01*
G01*
X45990000Y-35020000D02*
G75*
G03X45990000Y-35020000I-5120000J0D01*
G01*
X40870000Y-29940000D02*
X40870000Y-40100000D01*
X40910000Y-29940000D02*
X40910000Y-40100000D01*
X40950000Y-29940000D02*
X40950000Y-40100000D01*
X40990000Y-29941000D02*
X40990000Y-40099000D01*
X41030000Y-29942000D02*
X41030000Y-40098000D01*
X41070000Y-29943000D02*
X41070000Y-40097000D01*
X41110000Y-29945000D02*
X41110000Y-40095000D01*
X41150000Y-29947000D02*
X41150000Y-40093000D01*
X41190000Y-29950000D02*
X41190000Y-40090000D01*
X41230000Y-29952000D02*
X41230000Y-40088000D01*
X41270000Y-29955000D02*
X41270000Y-40085000D01*
X41310000Y-29958000D02*
X41310000Y-40082000D01*
X41350000Y-29962000D02*
X41350000Y-40078000D01*
X41390000Y-29966000D02*
X41390000Y-40074000D01*
X41430000Y-29970000D02*
X41430000Y-40070000D01*
X41470000Y-29975000D02*
X41470000Y-40065000D01*
X41510000Y-29980000D02*
X41510000Y-40060000D01*
X41550000Y-29985000D02*
X41550000Y-40055000D01*
X41591000Y-29990000D02*
X41591000Y-40050000D01*
X41631000Y-29996000D02*
X41631000Y-40044000D01*
X41671000Y-30002000D02*
X41671000Y-40038000D01*
X41711000Y-30009000D02*
X41711000Y-40031000D01*
X41751000Y-30016000D02*
X41751000Y-40024000D01*
X41791000Y-30023000D02*
X41791000Y-40017000D01*
X41831000Y-30030000D02*
X41831000Y-40010000D01*
X41871000Y-30038000D02*
X41871000Y-40002000D01*
X41911000Y-30046000D02*
X41911000Y-39994000D01*
X41951000Y-30055000D02*
X41951000Y-39985000D01*
X41991000Y-30064000D02*
X41991000Y-39976000D01*
X42031000Y-30073000D02*
X42031000Y-39967000D01*
X42071000Y-30082000D02*
X42071000Y-39958000D01*
X42111000Y-30092000D02*
X42111000Y-39948000D01*
X42151000Y-30102000D02*
X42151000Y-33779000D01*
X42151000Y-36261000D02*
X42151000Y-39938000D01*
X42191000Y-30113000D02*
X42191000Y-33779000D01*
X42191000Y-36261000D02*
X42191000Y-39927000D01*
X42231000Y-30123000D02*
X42231000Y-33779000D01*
X42231000Y-36261000D02*
X42231000Y-39917000D01*
X42271000Y-30135000D02*
X42271000Y-33779000D01*
X42271000Y-36261000D02*
X42271000Y-39905000D01*
X42311000Y-30146000D02*
X42311000Y-33779000D01*
X42311000Y-36261000D02*
X42311000Y-39894000D01*
X42351000Y-30158000D02*
X42351000Y-33779000D01*
X42351000Y-36261000D02*
X42351000Y-39882000D01*
X42391000Y-30170000D02*
X42391000Y-33779000D01*
X42391000Y-36261000D02*
X42391000Y-39870000D01*
X42431000Y-30183000D02*
X42431000Y-33779000D01*
X42431000Y-36261000D02*
X42431000Y-39857000D01*
X42471000Y-30196000D02*
X42471000Y-33779000D01*
X42471000Y-36261000D02*
X42471000Y-39844000D01*
X42511000Y-30209000D02*
X42511000Y-33779000D01*
X42511000Y-36261000D02*
X42511000Y-39831000D01*
X42551000Y-30223000D02*
X42551000Y-33779000D01*
X42551000Y-36261000D02*
X42551000Y-39817000D01*
X42591000Y-30237000D02*
X42591000Y-33779000D01*
X42591000Y-36261000D02*
X42591000Y-39803000D01*
X42631000Y-30252000D02*
X42631000Y-33779000D01*
X42631000Y-36261000D02*
X42631000Y-39788000D01*
X42671000Y-30266000D02*
X42671000Y-33779000D01*
X42671000Y-36261000D02*
X42671000Y-39774000D01*
X42711000Y-30282000D02*
X42711000Y-33779000D01*
X42711000Y-36261000D02*
X42711000Y-39758000D01*
X42751000Y-30297000D02*
X42751000Y-33779000D01*
X42751000Y-36261000D02*
X42751000Y-39743000D01*
X42791000Y-30313000D02*
X42791000Y-33779000D01*
X42791000Y-36261000D02*
X42791000Y-39727000D01*
X42831000Y-30330000D02*
X42831000Y-33779000D01*
X42831000Y-36261000D02*
X42831000Y-39710000D01*
X42871000Y-30346000D02*
X42871000Y-33779000D01*
X42871000Y-36261000D02*
X42871000Y-39694000D01*
X42911000Y-30363000D02*
X42911000Y-33779000D01*
X42911000Y-36261000D02*
X42911000Y-39677000D01*
X42951000Y-30381000D02*
X42951000Y-33779000D01*
X42951000Y-36261000D02*
X42951000Y-39659000D01*
X42991000Y-30399000D02*
X42991000Y-33779000D01*
X42991000Y-36261000D02*
X42991000Y-39641000D01*
X43031000Y-30417000D02*
X43031000Y-33779000D01*
X43031000Y-36261000D02*
X43031000Y-39623000D01*
X43071000Y-30436000D02*
X43071000Y-33779000D01*
X43071000Y-36261000D02*
X43071000Y-39604000D01*
X43111000Y-30456000D02*
X43111000Y-33779000D01*
X43111000Y-36261000D02*
X43111000Y-39584000D01*
X43151000Y-30475000D02*
X43151000Y-33779000D01*
X43151000Y-36261000D02*
X43151000Y-39565000D01*
X43191000Y-30495000D02*
X43191000Y-33779000D01*
X43191000Y-36261000D02*
X43191000Y-39545000D01*
X43231000Y-30516000D02*
X43231000Y-33779000D01*
X43231000Y-36261000D02*
X43231000Y-39524000D01*
X43271000Y-30537000D02*
X43271000Y-33779000D01*
X43271000Y-36261000D02*
X43271000Y-39503000D01*
X43311000Y-30558000D02*
X43311000Y-33779000D01*
X43311000Y-36261000D02*
X43311000Y-39482000D01*
X43351000Y-30580000D02*
X43351000Y-33779000D01*
X43351000Y-36261000D02*
X43351000Y-39460000D01*
X43391000Y-30603000D02*
X43391000Y-33779000D01*
X43391000Y-36261000D02*
X43391000Y-39437000D01*
X43431000Y-30625000D02*
X43431000Y-33779000D01*
X43431000Y-36261000D02*
X43431000Y-39415000D01*
X43471000Y-30649000D02*
X43471000Y-33779000D01*
X43471000Y-36261000D02*
X43471000Y-39391000D01*
X43511000Y-30673000D02*
X43511000Y-33779000D01*
X43511000Y-36261000D02*
X43511000Y-39367000D01*
X43551000Y-30697000D02*
X43551000Y-33779000D01*
X43551000Y-36261000D02*
X43551000Y-39343000D01*
X43591000Y-30722000D02*
X43591000Y-33779000D01*
X43591000Y-36261000D02*
X43591000Y-39318000D01*
X43631000Y-30747000D02*
X43631000Y-33779000D01*
X43631000Y-36261000D02*
X43631000Y-39293000D01*
X43671000Y-30773000D02*
X43671000Y-33779000D01*
X43671000Y-36261000D02*
X43671000Y-39267000D01*
X43711000Y-30799000D02*
X43711000Y-33779000D01*
X43711000Y-36261000D02*
X43711000Y-39241000D01*
X43751000Y-30826000D02*
X43751000Y-33779000D01*
X43751000Y-36261000D02*
X43751000Y-39214000D01*
X43791000Y-30854000D02*
X43791000Y-33779000D01*
X43791000Y-36261000D02*
X43791000Y-39186000D01*
X43831000Y-30882000D02*
X43831000Y-33779000D01*
X43831000Y-36261000D02*
X43831000Y-39158000D01*
X43871000Y-30910000D02*
X43871000Y-33779000D01*
X43871000Y-36261000D02*
X43871000Y-39130000D01*
X43911000Y-30940000D02*
X43911000Y-33779000D01*
X43911000Y-36261000D02*
X43911000Y-39100000D01*
X43951000Y-30970000D02*
X43951000Y-33779000D01*
X43951000Y-36261000D02*
X43951000Y-39070000D01*
X43991000Y-31000000D02*
X43991000Y-33779000D01*
X43991000Y-36261000D02*
X43991000Y-39040000D01*
X44031000Y-31031000D02*
X44031000Y-33779000D01*
X44031000Y-36261000D02*
X44031000Y-39009000D01*
X44071000Y-31063000D02*
X44071000Y-33779000D01*
X44071000Y-36261000D02*
X44071000Y-38977000D01*
X44111000Y-31095000D02*
X44111000Y-33779000D01*
X44111000Y-36261000D02*
X44111000Y-38945000D01*
X44151000Y-31128000D02*
X44151000Y-33779000D01*
X44151000Y-36261000D02*
X44151000Y-38912000D01*
X44191000Y-31162000D02*
X44191000Y-33779000D01*
X44191000Y-36261000D02*
X44191000Y-38878000D01*
X44231000Y-31196000D02*
X44231000Y-33779000D01*
X44231000Y-36261000D02*
X44231000Y-38844000D01*
X44271000Y-31231000D02*
X44271000Y-33779000D01*
X44271000Y-36261000D02*
X44271000Y-38809000D01*
X44311000Y-31267000D02*
X44311000Y-33779000D01*
X44311000Y-36261000D02*
X44311000Y-38773000D01*
X44351000Y-31304000D02*
X44351000Y-33779000D01*
X44351000Y-36261000D02*
X44351000Y-38736000D01*
X44391000Y-31341000D02*
X44391000Y-33779000D01*
X44391000Y-36261000D02*
X44391000Y-38699000D01*
X44431000Y-31380000D02*
X44431000Y-33779000D01*
X44431000Y-36261000D02*
X44431000Y-38660000D01*
X44471000Y-31419000D02*
X44471000Y-33779000D01*
X44471000Y-36261000D02*
X44471000Y-38621000D01*
X44511000Y-31459000D02*
X44511000Y-33779000D01*
X44511000Y-36261000D02*
X44511000Y-38581000D01*
X44551000Y-31500000D02*
X44551000Y-33779000D01*
X44551000Y-36261000D02*
X44551000Y-38540000D01*
X44591000Y-31542000D02*
X44591000Y-33779000D01*
X44591000Y-36261000D02*
X44591000Y-38498000D01*
X44631000Y-31584000D02*
X44631000Y-38456000D01*
X44671000Y-31628000D02*
X44671000Y-38412000D01*
X44711000Y-31673000D02*
X44711000Y-38367000D01*
X44751000Y-31719000D02*
X44751000Y-38321000D01*
X44791000Y-31766000D02*
X44791000Y-38274000D01*
X44831000Y-31814000D02*
X44831000Y-38226000D01*
X44871000Y-31864000D02*
X44871000Y-38176000D01*
X44911000Y-31914000D02*
X44911000Y-38126000D01*
X44951000Y-31966000D02*
X44951000Y-38074000D01*
X44991000Y-32020000D02*
X44991000Y-38020000D01*
X45031000Y-32075000D02*
X45031000Y-37965000D01*
X45071000Y-32131000D02*
X45071000Y-37909000D01*
X45111000Y-32190000D02*
X45111000Y-37850000D01*
X45151000Y-32250000D02*
X45151000Y-37790000D01*
X45191000Y-32311000D02*
X45191000Y-37729000D01*
X45231000Y-32375000D02*
X45231000Y-37665000D01*
X45271000Y-32441000D02*
X45271000Y-37599000D01*
X45311000Y-32510000D02*
X45311000Y-37530000D01*
X45351000Y-32581000D02*
X45351000Y-37459000D01*
X45391000Y-32655000D02*
X45391000Y-37385000D01*
X45431000Y-32731000D02*
X45431000Y-37309000D01*
X45471000Y-32811000D02*
X45471000Y-37229000D01*
X45511000Y-32895000D02*
X45511000Y-37145000D01*
X45551000Y-32983000D02*
X45551000Y-37057000D01*
X45591000Y-33076000D02*
X45591000Y-36964000D01*
X45631000Y-33174000D02*
X45631000Y-36866000D01*
X45671000Y-33278000D02*
X45671000Y-36762000D01*
X45711000Y-33390000D02*
X45711000Y-36650000D01*
X45751000Y-33510000D02*
X45751000Y-36530000D01*
X45791000Y-33642000D02*
X45791000Y-36398000D01*
X45831000Y-33790000D02*
X45831000Y-36250000D01*
X45871000Y-33958000D02*
X45871000Y-36082000D01*
X45911000Y-34158000D02*
X45911000Y-35882000D01*
X45951000Y-34421000D02*
X45951000Y-35619000D01*
X35390354Y-32145000D02*
X36390354Y-32145000D01*
X35890354Y-31645000D02*
X35890354Y-32645000D01*
X45780354Y-44885000D02*
X45780354Y-45885000D01*
X45280354Y-45385000D02*
X46280354Y-45385000D01*
X55841000Y-47661000D02*
X55841000Y-48859000D01*
X55801000Y-47398000D02*
X55801000Y-49122000D01*
X55761000Y-47198000D02*
X55761000Y-49322000D01*
X55721000Y-47030000D02*
X55721000Y-49490000D01*
X55681000Y-46882000D02*
X55681000Y-49638000D01*
X55641000Y-46750000D02*
X55641000Y-49770000D01*
X55601000Y-46630000D02*
X55601000Y-49890000D01*
X55561000Y-46518000D02*
X55561000Y-50002000D01*
X55521000Y-46414000D02*
X55521000Y-50106000D01*
X55481000Y-46316000D02*
X55481000Y-50204000D01*
X55441000Y-46223000D02*
X55441000Y-50297000D01*
X55401000Y-46135000D02*
X55401000Y-50385000D01*
X55361000Y-46051000D02*
X55361000Y-50469000D01*
X55321000Y-45971000D02*
X55321000Y-50549000D01*
X55281000Y-45895000D02*
X55281000Y-50625000D01*
X55241000Y-45821000D02*
X55241000Y-50699000D01*
X55201000Y-45750000D02*
X55201000Y-50770000D01*
X55161000Y-45681000D02*
X55161000Y-50839000D01*
X55121000Y-45615000D02*
X55121000Y-50905000D01*
X55081000Y-45551000D02*
X55081000Y-50969000D01*
X55041000Y-45490000D02*
X55041000Y-51030000D01*
X55001000Y-45430000D02*
X55001000Y-51090000D01*
X54961000Y-45371000D02*
X54961000Y-51149000D01*
X54921000Y-45315000D02*
X54921000Y-51205000D01*
X54881000Y-45260000D02*
X54881000Y-51260000D01*
X54841000Y-45206000D02*
X54841000Y-51314000D01*
X54801000Y-45154000D02*
X54801000Y-51366000D01*
X54761000Y-45104000D02*
X54761000Y-51416000D01*
X54721000Y-45054000D02*
X54721000Y-51466000D01*
X54681000Y-45006000D02*
X54681000Y-51514000D01*
X54641000Y-44959000D02*
X54641000Y-51561000D01*
X54601000Y-44913000D02*
X54601000Y-51607000D01*
X54561000Y-44868000D02*
X54561000Y-51652000D01*
X54521000Y-44824000D02*
X54521000Y-51696000D01*
X54481000Y-49501000D02*
X54481000Y-51738000D01*
X54481000Y-44782000D02*
X54481000Y-47019000D01*
X54441000Y-49501000D02*
X54441000Y-51780000D01*
X54441000Y-44740000D02*
X54441000Y-47019000D01*
X54401000Y-49501000D02*
X54401000Y-51821000D01*
X54401000Y-44699000D02*
X54401000Y-47019000D01*
X54361000Y-49501000D02*
X54361000Y-51861000D01*
X54361000Y-44659000D02*
X54361000Y-47019000D01*
X54321000Y-49501000D02*
X54321000Y-51900000D01*
X54321000Y-44620000D02*
X54321000Y-47019000D01*
X54281000Y-49501000D02*
X54281000Y-51939000D01*
X54281000Y-44581000D02*
X54281000Y-47019000D01*
X54241000Y-49501000D02*
X54241000Y-51976000D01*
X54241000Y-44544000D02*
X54241000Y-47019000D01*
X54201000Y-49501000D02*
X54201000Y-52013000D01*
X54201000Y-44507000D02*
X54201000Y-47019000D01*
X54161000Y-49501000D02*
X54161000Y-52049000D01*
X54161000Y-44471000D02*
X54161000Y-47019000D01*
X54121000Y-49501000D02*
X54121000Y-52084000D01*
X54121000Y-44436000D02*
X54121000Y-47019000D01*
X54081000Y-49501000D02*
X54081000Y-52118000D01*
X54081000Y-44402000D02*
X54081000Y-47019000D01*
X54041000Y-49501000D02*
X54041000Y-52152000D01*
X54041000Y-44368000D02*
X54041000Y-47019000D01*
X54001000Y-49501000D02*
X54001000Y-52185000D01*
X54001000Y-44335000D02*
X54001000Y-47019000D01*
X53961000Y-49501000D02*
X53961000Y-52217000D01*
X53961000Y-44303000D02*
X53961000Y-47019000D01*
X53921000Y-49501000D02*
X53921000Y-52249000D01*
X53921000Y-44271000D02*
X53921000Y-47019000D01*
X53881000Y-49501000D02*
X53881000Y-52280000D01*
X53881000Y-44240000D02*
X53881000Y-47019000D01*
X53841000Y-49501000D02*
X53841000Y-52310000D01*
X53841000Y-44210000D02*
X53841000Y-47019000D01*
X53801000Y-49501000D02*
X53801000Y-52340000D01*
X53801000Y-44180000D02*
X53801000Y-47019000D01*
X53761000Y-49501000D02*
X53761000Y-52370000D01*
X53761000Y-44150000D02*
X53761000Y-47019000D01*
X53721000Y-49501000D02*
X53721000Y-52398000D01*
X53721000Y-44122000D02*
X53721000Y-47019000D01*
X53681000Y-49501000D02*
X53681000Y-52426000D01*
X53681000Y-44094000D02*
X53681000Y-47019000D01*
X53641000Y-49501000D02*
X53641000Y-52454000D01*
X53641000Y-44066000D02*
X53641000Y-47019000D01*
X53601000Y-49501000D02*
X53601000Y-52481000D01*
X53601000Y-44039000D02*
X53601000Y-47019000D01*
X53561000Y-49501000D02*
X53561000Y-52507000D01*
X53561000Y-44013000D02*
X53561000Y-47019000D01*
X53521000Y-49501000D02*
X53521000Y-52533000D01*
X53521000Y-43987000D02*
X53521000Y-47019000D01*
X53481000Y-49501000D02*
X53481000Y-52558000D01*
X53481000Y-43962000D02*
X53481000Y-47019000D01*
X53441000Y-49501000D02*
X53441000Y-52583000D01*
X53441000Y-43937000D02*
X53441000Y-47019000D01*
X53401000Y-49501000D02*
X53401000Y-52607000D01*
X53401000Y-43913000D02*
X53401000Y-47019000D01*
X53361000Y-49501000D02*
X53361000Y-52631000D01*
X53361000Y-43889000D02*
X53361000Y-47019000D01*
X53321000Y-49501000D02*
X53321000Y-52655000D01*
X53321000Y-43865000D02*
X53321000Y-47019000D01*
X53281000Y-49501000D02*
X53281000Y-52677000D01*
X53281000Y-43843000D02*
X53281000Y-47019000D01*
X53241000Y-49501000D02*
X53241000Y-52700000D01*
X53241000Y-43820000D02*
X53241000Y-47019000D01*
X53201000Y-49501000D02*
X53201000Y-52722000D01*
X53201000Y-43798000D02*
X53201000Y-47019000D01*
X53161000Y-49501000D02*
X53161000Y-52743000D01*
X53161000Y-43777000D02*
X53161000Y-47019000D01*
X53121000Y-49501000D02*
X53121000Y-52764000D01*
X53121000Y-43756000D02*
X53121000Y-47019000D01*
X53081000Y-49501000D02*
X53081000Y-52785000D01*
X53081000Y-43735000D02*
X53081000Y-47019000D01*
X53041000Y-49501000D02*
X53041000Y-52805000D01*
X53041000Y-43715000D02*
X53041000Y-47019000D01*
X53001000Y-49501000D02*
X53001000Y-52824000D01*
X53001000Y-43696000D02*
X53001000Y-47019000D01*
X52961000Y-49501000D02*
X52961000Y-52844000D01*
X52961000Y-43676000D02*
X52961000Y-47019000D01*
X52921000Y-49501000D02*
X52921000Y-52863000D01*
X52921000Y-43657000D02*
X52921000Y-47019000D01*
X52881000Y-49501000D02*
X52881000Y-52881000D01*
X52881000Y-43639000D02*
X52881000Y-47019000D01*
X52841000Y-49501000D02*
X52841000Y-52899000D01*
X52841000Y-43621000D02*
X52841000Y-47019000D01*
X52801000Y-49501000D02*
X52801000Y-52917000D01*
X52801000Y-43603000D02*
X52801000Y-47019000D01*
X52761000Y-49501000D02*
X52761000Y-52934000D01*
X52761000Y-43586000D02*
X52761000Y-47019000D01*
X52721000Y-49501000D02*
X52721000Y-52950000D01*
X52721000Y-43570000D02*
X52721000Y-47019000D01*
X52681000Y-49501000D02*
X52681000Y-52967000D01*
X52681000Y-43553000D02*
X52681000Y-47019000D01*
X52641000Y-49501000D02*
X52641000Y-52983000D01*
X52641000Y-43537000D02*
X52641000Y-47019000D01*
X52601000Y-49501000D02*
X52601000Y-52998000D01*
X52601000Y-43522000D02*
X52601000Y-47019000D01*
X52561000Y-49501000D02*
X52561000Y-53014000D01*
X52561000Y-43506000D02*
X52561000Y-47019000D01*
X52521000Y-49501000D02*
X52521000Y-53028000D01*
X52521000Y-43492000D02*
X52521000Y-47019000D01*
X52481000Y-49501000D02*
X52481000Y-53043000D01*
X52481000Y-43477000D02*
X52481000Y-47019000D01*
X52441000Y-49501000D02*
X52441000Y-53057000D01*
X52441000Y-43463000D02*
X52441000Y-47019000D01*
X52401000Y-49501000D02*
X52401000Y-53071000D01*
X52401000Y-43449000D02*
X52401000Y-47019000D01*
X52361000Y-49501000D02*
X52361000Y-53084000D01*
X52361000Y-43436000D02*
X52361000Y-47019000D01*
X52321000Y-49501000D02*
X52321000Y-53097000D01*
X52321000Y-43423000D02*
X52321000Y-47019000D01*
X52281000Y-49501000D02*
X52281000Y-53110000D01*
X52281000Y-43410000D02*
X52281000Y-47019000D01*
X52241000Y-49501000D02*
X52241000Y-53122000D01*
X52241000Y-43398000D02*
X52241000Y-47019000D01*
X52201000Y-49501000D02*
X52201000Y-53134000D01*
X52201000Y-43386000D02*
X52201000Y-47019000D01*
X52161000Y-49501000D02*
X52161000Y-53145000D01*
X52161000Y-43375000D02*
X52161000Y-47019000D01*
X52121000Y-49501000D02*
X52121000Y-53157000D01*
X52121000Y-43363000D02*
X52121000Y-47019000D01*
X52081000Y-49501000D02*
X52081000Y-53167000D01*
X52081000Y-43353000D02*
X52081000Y-47019000D01*
X52041000Y-49501000D02*
X52041000Y-53178000D01*
X52041000Y-43342000D02*
X52041000Y-47019000D01*
X52001000Y-43332000D02*
X52001000Y-53188000D01*
X51961000Y-43322000D02*
X51961000Y-53198000D01*
X51921000Y-43313000D02*
X51921000Y-53207000D01*
X51881000Y-43304000D02*
X51881000Y-53216000D01*
X51841000Y-43295000D02*
X51841000Y-53225000D01*
X51801000Y-43286000D02*
X51801000Y-53234000D01*
X51761000Y-43278000D02*
X51761000Y-53242000D01*
X51721000Y-43270000D02*
X51721000Y-53250000D01*
X51681000Y-43263000D02*
X51681000Y-53257000D01*
X51641000Y-43256000D02*
X51641000Y-53264000D01*
X51601000Y-43249000D02*
X51601000Y-53271000D01*
X51561000Y-43242000D02*
X51561000Y-53278000D01*
X51521000Y-43236000D02*
X51521000Y-53284000D01*
X51481000Y-43230000D02*
X51481000Y-53290000D01*
X51440000Y-43225000D02*
X51440000Y-53295000D01*
X51400000Y-43220000D02*
X51400000Y-53300000D01*
X51360000Y-43215000D02*
X51360000Y-53305000D01*
X51320000Y-43210000D02*
X51320000Y-53310000D01*
X51280000Y-43206000D02*
X51280000Y-53314000D01*
X51240000Y-43202000D02*
X51240000Y-53318000D01*
X51200000Y-43198000D02*
X51200000Y-53322000D01*
X51160000Y-43195000D02*
X51160000Y-53325000D01*
X51120000Y-43192000D02*
X51120000Y-53328000D01*
X51080000Y-43190000D02*
X51080000Y-53330000D01*
X51040000Y-43187000D02*
X51040000Y-53333000D01*
X51000000Y-43185000D02*
X51000000Y-53335000D01*
X50960000Y-43183000D02*
X50960000Y-53337000D01*
X50920000Y-43182000D02*
X50920000Y-53338000D01*
X50880000Y-43181000D02*
X50880000Y-53339000D01*
X50840000Y-43180000D02*
X50840000Y-53340000D01*
X50800000Y-43180000D02*
X50800000Y-53340000D01*
X50760000Y-43180000D02*
X50760000Y-53340000D01*
X55880000Y-48260000D02*
G75*
G03X55880000Y-48260000I-5120000J0D01*
G01*
X55880000Y-70485000D02*
G75*
G03X55880000Y-70485000I-5120000J0D01*
G01*
X50760000Y-65405000D02*
X50760000Y-75565000D01*
X50800000Y-65405000D02*
X50800000Y-75565000D01*
X50840000Y-65405000D02*
X50840000Y-75565000D01*
X50880000Y-65406000D02*
X50880000Y-75564000D01*
X50920000Y-65407000D02*
X50920000Y-75563000D01*
X50960000Y-65408000D02*
X50960000Y-75562000D01*
X51000000Y-65410000D02*
X51000000Y-75560000D01*
X51040000Y-65412000D02*
X51040000Y-75558000D01*
X51080000Y-65415000D02*
X51080000Y-75555000D01*
X51120000Y-65417000D02*
X51120000Y-75553000D01*
X51160000Y-65420000D02*
X51160000Y-75550000D01*
X51200000Y-65423000D02*
X51200000Y-75547000D01*
X51240000Y-65427000D02*
X51240000Y-75543000D01*
X51280000Y-65431000D02*
X51280000Y-75539000D01*
X51320000Y-65435000D02*
X51320000Y-75535000D01*
X51360000Y-65440000D02*
X51360000Y-75530000D01*
X51400000Y-65445000D02*
X51400000Y-75525000D01*
X51440000Y-65450000D02*
X51440000Y-75520000D01*
X51481000Y-65455000D02*
X51481000Y-75515000D01*
X51521000Y-65461000D02*
X51521000Y-75509000D01*
X51561000Y-65467000D02*
X51561000Y-75503000D01*
X51601000Y-65474000D02*
X51601000Y-75496000D01*
X51641000Y-65481000D02*
X51641000Y-75489000D01*
X51681000Y-65488000D02*
X51681000Y-75482000D01*
X51721000Y-65495000D02*
X51721000Y-75475000D01*
X51761000Y-65503000D02*
X51761000Y-75467000D01*
X51801000Y-65511000D02*
X51801000Y-75459000D01*
X51841000Y-65520000D02*
X51841000Y-75450000D01*
X51881000Y-65529000D02*
X51881000Y-75441000D01*
X51921000Y-65538000D02*
X51921000Y-75432000D01*
X51961000Y-65547000D02*
X51961000Y-75423000D01*
X52001000Y-65557000D02*
X52001000Y-75413000D01*
X52041000Y-65567000D02*
X52041000Y-69244000D01*
X52041000Y-71726000D02*
X52041000Y-75403000D01*
X52081000Y-65578000D02*
X52081000Y-69244000D01*
X52081000Y-71726000D02*
X52081000Y-75392000D01*
X52121000Y-65588000D02*
X52121000Y-69244000D01*
X52121000Y-71726000D02*
X52121000Y-75382000D01*
X52161000Y-65600000D02*
X52161000Y-69244000D01*
X52161000Y-71726000D02*
X52161000Y-75370000D01*
X52201000Y-65611000D02*
X52201000Y-69244000D01*
X52201000Y-71726000D02*
X52201000Y-75359000D01*
X52241000Y-65623000D02*
X52241000Y-69244000D01*
X52241000Y-71726000D02*
X52241000Y-75347000D01*
X52281000Y-65635000D02*
X52281000Y-69244000D01*
X52281000Y-71726000D02*
X52281000Y-75335000D01*
X52321000Y-65648000D02*
X52321000Y-69244000D01*
X52321000Y-71726000D02*
X52321000Y-75322000D01*
X52361000Y-65661000D02*
X52361000Y-69244000D01*
X52361000Y-71726000D02*
X52361000Y-75309000D01*
X52401000Y-65674000D02*
X52401000Y-69244000D01*
X52401000Y-71726000D02*
X52401000Y-75296000D01*
X52441000Y-65688000D02*
X52441000Y-69244000D01*
X52441000Y-71726000D02*
X52441000Y-75282000D01*
X52481000Y-65702000D02*
X52481000Y-69244000D01*
X52481000Y-71726000D02*
X52481000Y-75268000D01*
X52521000Y-65717000D02*
X52521000Y-69244000D01*
X52521000Y-71726000D02*
X52521000Y-75253000D01*
X52561000Y-65731000D02*
X52561000Y-69244000D01*
X52561000Y-71726000D02*
X52561000Y-75239000D01*
X52601000Y-65747000D02*
X52601000Y-69244000D01*
X52601000Y-71726000D02*
X52601000Y-75223000D01*
X52641000Y-65762000D02*
X52641000Y-69244000D01*
X52641000Y-71726000D02*
X52641000Y-75208000D01*
X52681000Y-65778000D02*
X52681000Y-69244000D01*
X52681000Y-71726000D02*
X52681000Y-75192000D01*
X52721000Y-65795000D02*
X52721000Y-69244000D01*
X52721000Y-71726000D02*
X52721000Y-75175000D01*
X52761000Y-65811000D02*
X52761000Y-69244000D01*
X52761000Y-71726000D02*
X52761000Y-75159000D01*
X52801000Y-65828000D02*
X52801000Y-69244000D01*
X52801000Y-71726000D02*
X52801000Y-75142000D01*
X52841000Y-65846000D02*
X52841000Y-69244000D01*
X52841000Y-71726000D02*
X52841000Y-75124000D01*
X52881000Y-65864000D02*
X52881000Y-69244000D01*
X52881000Y-71726000D02*
X52881000Y-75106000D01*
X52921000Y-65882000D02*
X52921000Y-69244000D01*
X52921000Y-71726000D02*
X52921000Y-75088000D01*
X52961000Y-65901000D02*
X52961000Y-69244000D01*
X52961000Y-71726000D02*
X52961000Y-75069000D01*
X53001000Y-65921000D02*
X53001000Y-69244000D01*
X53001000Y-71726000D02*
X53001000Y-75049000D01*
X53041000Y-65940000D02*
X53041000Y-69244000D01*
X53041000Y-71726000D02*
X53041000Y-75030000D01*
X53081000Y-65960000D02*
X53081000Y-69244000D01*
X53081000Y-71726000D02*
X53081000Y-75010000D01*
X53121000Y-65981000D02*
X53121000Y-69244000D01*
X53121000Y-71726000D02*
X53121000Y-74989000D01*
X53161000Y-66002000D02*
X53161000Y-69244000D01*
X53161000Y-71726000D02*
X53161000Y-74968000D01*
X53201000Y-66023000D02*
X53201000Y-69244000D01*
X53201000Y-71726000D02*
X53201000Y-74947000D01*
X53241000Y-66045000D02*
X53241000Y-69244000D01*
X53241000Y-71726000D02*
X53241000Y-74925000D01*
X53281000Y-66068000D02*
X53281000Y-69244000D01*
X53281000Y-71726000D02*
X53281000Y-74902000D01*
X53321000Y-66090000D02*
X53321000Y-69244000D01*
X53321000Y-71726000D02*
X53321000Y-74880000D01*
X53361000Y-66114000D02*
X53361000Y-69244000D01*
X53361000Y-71726000D02*
X53361000Y-74856000D01*
X53401000Y-66138000D02*
X53401000Y-69244000D01*
X53401000Y-71726000D02*
X53401000Y-74832000D01*
X53441000Y-66162000D02*
X53441000Y-69244000D01*
X53441000Y-71726000D02*
X53441000Y-74808000D01*
X53481000Y-66187000D02*
X53481000Y-69244000D01*
X53481000Y-71726000D02*
X53481000Y-74783000D01*
X53521000Y-66212000D02*
X53521000Y-69244000D01*
X53521000Y-71726000D02*
X53521000Y-74758000D01*
X53561000Y-66238000D02*
X53561000Y-69244000D01*
X53561000Y-71726000D02*
X53561000Y-74732000D01*
X53601000Y-66264000D02*
X53601000Y-69244000D01*
X53601000Y-71726000D02*
X53601000Y-74706000D01*
X53641000Y-66291000D02*
X53641000Y-69244000D01*
X53641000Y-71726000D02*
X53641000Y-74679000D01*
X53681000Y-66319000D02*
X53681000Y-69244000D01*
X53681000Y-71726000D02*
X53681000Y-74651000D01*
X53721000Y-66347000D02*
X53721000Y-69244000D01*
X53721000Y-71726000D02*
X53721000Y-74623000D01*
X53761000Y-66375000D02*
X53761000Y-69244000D01*
X53761000Y-71726000D02*
X53761000Y-74595000D01*
X53801000Y-66405000D02*
X53801000Y-69244000D01*
X53801000Y-71726000D02*
X53801000Y-74565000D01*
X53841000Y-66435000D02*
X53841000Y-69244000D01*
X53841000Y-71726000D02*
X53841000Y-74535000D01*
X53881000Y-66465000D02*
X53881000Y-69244000D01*
X53881000Y-71726000D02*
X53881000Y-74505000D01*
X53921000Y-66496000D02*
X53921000Y-69244000D01*
X53921000Y-71726000D02*
X53921000Y-74474000D01*
X53961000Y-66528000D02*
X53961000Y-69244000D01*
X53961000Y-71726000D02*
X53961000Y-74442000D01*
X54001000Y-66560000D02*
X54001000Y-69244000D01*
X54001000Y-71726000D02*
X54001000Y-74410000D01*
X54041000Y-66593000D02*
X54041000Y-69244000D01*
X54041000Y-71726000D02*
X54041000Y-74377000D01*
X54081000Y-66627000D02*
X54081000Y-69244000D01*
X54081000Y-71726000D02*
X54081000Y-74343000D01*
X54121000Y-66661000D02*
X54121000Y-69244000D01*
X54121000Y-71726000D02*
X54121000Y-74309000D01*
X54161000Y-66696000D02*
X54161000Y-69244000D01*
X54161000Y-71726000D02*
X54161000Y-74274000D01*
X54201000Y-66732000D02*
X54201000Y-69244000D01*
X54201000Y-71726000D02*
X54201000Y-74238000D01*
X54241000Y-66769000D02*
X54241000Y-69244000D01*
X54241000Y-71726000D02*
X54241000Y-74201000D01*
X54281000Y-66806000D02*
X54281000Y-69244000D01*
X54281000Y-71726000D02*
X54281000Y-74164000D01*
X54321000Y-66845000D02*
X54321000Y-69244000D01*
X54321000Y-71726000D02*
X54321000Y-74125000D01*
X54361000Y-66884000D02*
X54361000Y-69244000D01*
X54361000Y-71726000D02*
X54361000Y-74086000D01*
X54401000Y-66924000D02*
X54401000Y-69244000D01*
X54401000Y-71726000D02*
X54401000Y-74046000D01*
X54441000Y-66965000D02*
X54441000Y-69244000D01*
X54441000Y-71726000D02*
X54441000Y-74005000D01*
X54481000Y-67007000D02*
X54481000Y-69244000D01*
X54481000Y-71726000D02*
X54481000Y-73963000D01*
X54521000Y-67049000D02*
X54521000Y-73921000D01*
X54561000Y-67093000D02*
X54561000Y-73877000D01*
X54601000Y-67138000D02*
X54601000Y-73832000D01*
X54641000Y-67184000D02*
X54641000Y-73786000D01*
X54681000Y-67231000D02*
X54681000Y-73739000D01*
X54721000Y-67279000D02*
X54721000Y-73691000D01*
X54761000Y-67329000D02*
X54761000Y-73641000D01*
X54801000Y-67379000D02*
X54801000Y-73591000D01*
X54841000Y-67431000D02*
X54841000Y-73539000D01*
X54881000Y-67485000D02*
X54881000Y-73485000D01*
X54921000Y-67540000D02*
X54921000Y-73430000D01*
X54961000Y-67596000D02*
X54961000Y-73374000D01*
X55001000Y-67655000D02*
X55001000Y-73315000D01*
X55041000Y-67715000D02*
X55041000Y-73255000D01*
X55081000Y-67776000D02*
X55081000Y-73194000D01*
X55121000Y-67840000D02*
X55121000Y-73130000D01*
X55161000Y-67906000D02*
X55161000Y-73064000D01*
X55201000Y-67975000D02*
X55201000Y-72995000D01*
X55241000Y-68046000D02*
X55241000Y-72924000D01*
X55281000Y-68120000D02*
X55281000Y-72850000D01*
X55321000Y-68196000D02*
X55321000Y-72774000D01*
X55361000Y-68276000D02*
X55361000Y-72694000D01*
X55401000Y-68360000D02*
X55401000Y-72610000D01*
X55441000Y-68448000D02*
X55441000Y-72522000D01*
X55481000Y-68541000D02*
X55481000Y-72429000D01*
X55521000Y-68639000D02*
X55521000Y-72331000D01*
X55561000Y-68743000D02*
X55561000Y-72227000D01*
X55601000Y-68855000D02*
X55601000Y-72115000D01*
X55641000Y-68975000D02*
X55641000Y-71995000D01*
X55681000Y-69107000D02*
X55681000Y-71863000D01*
X55721000Y-69255000D02*
X55721000Y-71715000D01*
X55761000Y-69423000D02*
X55761000Y-71547000D01*
X55801000Y-69623000D02*
X55801000Y-71347000D01*
X55841000Y-69886000D02*
X55841000Y-71084000D01*
X45280354Y-67610000D02*
X46280354Y-67610000D01*
X45780354Y-67110000D02*
X45780354Y-68110000D01*
X3080000Y-23799000D02*
X3910000Y-23799000D01*
X420000Y-23799000D02*
X2000000Y-23799000D01*
X3590000Y-27000000D02*
X3910000Y-27000000D01*
X420000Y-27000000D02*
X1490000Y-27000000D01*
X420000Y-21280000D02*
X3910000Y-21280000D01*
X420000Y-29520000D02*
X3910000Y-29520000D01*
X3910000Y-29520000D02*
X3910000Y-21280000D01*
X420000Y-29520000D02*
X420000Y-21280000D01*
X420000Y-39680000D02*
X420000Y-31440000D01*
X3910000Y-39680000D02*
X3910000Y-31440000D01*
X420000Y-39680000D02*
X3910000Y-39680000D01*
X420000Y-31440000D02*
X3910000Y-31440000D01*
X420000Y-37160000D02*
X1490000Y-37160000D01*
X3590000Y-37160000D02*
X3910000Y-37160000D01*
X420000Y-33959000D02*
X2000000Y-33959000D01*
X3080000Y-33959000D02*
X3910000Y-33959000D01*
X6000000Y-25400000D02*
X6620000Y-25400000D01*
X6000000Y-25400000D02*
G75*
G03X6000000Y-25400000I-920000J0D01*
G01*
X6000000Y-39500000D02*
G75*
G03X6000000Y-39500000I-920000J0D01*
G01*
X6000000Y-39500000D02*
X6620000Y-39500000D01*
X8830000Y-34560000D02*
G75*
G02X8830000Y-36560000I0J-1000000D01*
G01*
X8830000Y-36560000D02*
X8830000Y-38210000D01*
X8830000Y-38210000D02*
X19110000Y-38210000D01*
X19110000Y-38210000D02*
X19110000Y-32910000D01*
X19110000Y-32910000D02*
X8830000Y-32910000D01*
X8830000Y-32910000D02*
X8830000Y-34560000D01*
X8770000Y-40700000D02*
X19170000Y-40700000D01*
X19170000Y-40700000D02*
X19170000Y-30420000D01*
X19170000Y-30420000D02*
X8770000Y-30420000D01*
X8770000Y-30420000D02*
X8770000Y-40700000D01*
X34000000Y-27670000D02*
X35330000Y-27670000D01*
X35330000Y-27670000D02*
X35330000Y-29000000D01*
X35330000Y-30210000D02*
X35330000Y-30330000D01*
X32670000Y-30210000D02*
X32670000Y-30330000D01*
X32670000Y-30330000D02*
X35330000Y-30330000D01*
X4670000Y-30330000D02*
X7330000Y-30330000D01*
X4670000Y-30210000D02*
X4670000Y-30330000D01*
X7330000Y-30210000D02*
X7330000Y-30330000D01*
X7330000Y-27670000D02*
X7330000Y-29000000D01*
X6000000Y-27670000D02*
X7330000Y-27670000D01*
X4670000Y-34080000D02*
X7330000Y-34080000D01*
X4670000Y-33960000D02*
X4670000Y-34080000D01*
X7330000Y-33960000D02*
X7330000Y-34080000D01*
X7330000Y-31420000D02*
X7330000Y-32750000D01*
X6000000Y-31420000D02*
X7330000Y-31420000D01*
X6000000Y-35170000D02*
X7330000Y-35170000D01*
X7330000Y-35170000D02*
X7330000Y-36500000D01*
X7330000Y-37710000D02*
X7330000Y-37830000D01*
X4670000Y-37710000D02*
X4670000Y-37830000D01*
X4670000Y-37830000D02*
X7330000Y-37830000D01*
X50670000Y-5500000D02*
X50670000Y-4170000D01*
X50670000Y-4170000D02*
X52000000Y-4170000D01*
X53270000Y-4170000D02*
X55870000Y-4170000D01*
X55870000Y-6830000D02*
X55870000Y-4170000D01*
X53270000Y-6830000D02*
X55870000Y-6830000D01*
X53270000Y-6830000D02*
X53270000Y-4170000D01*
X42270000Y-6830000D02*
X42270000Y-4170000D01*
X42270000Y-6830000D02*
X44870000Y-6830000D01*
X44870000Y-6830000D02*
X44870000Y-4170000D01*
X42270000Y-4170000D02*
X44870000Y-4170000D01*
X39670000Y-4170000D02*
X41000000Y-4170000D01*
X39670000Y-5500000D02*
X39670000Y-4170000D01*
D14*
X77428571Y-21333333D02*
X77428571Y-21666666D01*
X77952380Y-21666666D02*
X76952380Y-21666666D01*
X76952380Y-21190476D01*
X77047619Y-20857142D02*
X77000000Y-20809523D01*
X76952380Y-20714285D01*
X76952380Y-20476190D01*
X77000000Y-20380952D01*
X77047619Y-20333333D01*
X77142857Y-20285714D01*
X77238095Y-20285714D01*
X77380952Y-20333333D01*
X77952380Y-20904761D01*
X77952380Y-20285714D01*
X72667904Y-45952380D02*
X72667904Y-44952380D01*
X73048857Y-44952380D01*
X73144095Y-45000000D01*
X73191714Y-45047619D01*
X73239333Y-45142857D01*
X73239333Y-45285714D01*
X73191714Y-45380952D01*
X73144095Y-45428571D01*
X73048857Y-45476190D01*
X72667904Y-45476190D01*
X74191714Y-45952380D02*
X73620285Y-45952380D01*
X73906000Y-45952380D02*
X73906000Y-44952380D01*
X73810761Y-45095238D01*
X73715523Y-45190476D01*
X73620285Y-45238095D01*
X57681904Y-66238380D02*
X57681904Y-65238380D01*
X58062857Y-65238380D01*
X58158095Y-65286000D01*
X58205714Y-65333619D01*
X58253333Y-65428857D01*
X58253333Y-65571714D01*
X58205714Y-65666952D01*
X58158095Y-65714571D01*
X58062857Y-65762190D01*
X57681904Y-65762190D01*
X58634285Y-65333619D02*
X58681904Y-65286000D01*
X58777142Y-65238380D01*
X59015238Y-65238380D01*
X59110476Y-65286000D01*
X59158095Y-65333619D01*
X59205714Y-65428857D01*
X59205714Y-65524095D01*
X59158095Y-65666952D01*
X58586666Y-66238380D01*
X59205714Y-66238380D01*
X87145904Y-45952380D02*
X87145904Y-44952380D01*
X87526857Y-44952380D01*
X87622095Y-45000000D01*
X87669714Y-45047619D01*
X87717333Y-45142857D01*
X87717333Y-45285714D01*
X87669714Y-45380952D01*
X87622095Y-45428571D01*
X87526857Y-45476190D01*
X87145904Y-45476190D01*
X88050666Y-44952380D02*
X88669714Y-44952380D01*
X88336380Y-45333333D01*
X88479238Y-45333333D01*
X88574476Y-45380952D01*
X88622095Y-45428571D01*
X88669714Y-45523809D01*
X88669714Y-45761904D01*
X88622095Y-45857142D01*
X88574476Y-45904761D01*
X88479238Y-45952380D01*
X88193523Y-45952380D01*
X88098285Y-45904761D01*
X88050666Y-45857142D01*
X26439904Y-67000380D02*
X26439904Y-66000380D01*
X26820857Y-66000380D01*
X26916095Y-66048000D01*
X26963714Y-66095619D01*
X27011333Y-66190857D01*
X27011333Y-66333714D01*
X26963714Y-66428952D01*
X26916095Y-66476571D01*
X26820857Y-66524190D01*
X26439904Y-66524190D01*
X27868476Y-66333714D02*
X27868476Y-67000380D01*
X27630380Y-65952761D02*
X27392285Y-66667047D01*
X28011333Y-66667047D01*
X87145904Y-66238380D02*
X87145904Y-65238380D01*
X87526857Y-65238380D01*
X87622095Y-65286000D01*
X87669714Y-65333619D01*
X87717333Y-65428857D01*
X87717333Y-65571714D01*
X87669714Y-65666952D01*
X87622095Y-65714571D01*
X87526857Y-65762190D01*
X87145904Y-65762190D01*
X88622095Y-65238380D02*
X88145904Y-65238380D01*
X88098285Y-65714571D01*
X88145904Y-65666952D01*
X88241142Y-65619333D01*
X88479238Y-65619333D01*
X88574476Y-65666952D01*
X88622095Y-65714571D01*
X88669714Y-65809809D01*
X88669714Y-66047904D01*
X88622095Y-66143142D01*
X88574476Y-66190761D01*
X88479238Y-66238380D01*
X88241142Y-66238380D01*
X88145904Y-66190761D01*
X88098285Y-66143142D01*
X40917904Y-66746380D02*
X40917904Y-65746380D01*
X41298857Y-65746380D01*
X41394095Y-65794000D01*
X41441714Y-65841619D01*
X41489333Y-65936857D01*
X41489333Y-66079714D01*
X41441714Y-66174952D01*
X41394095Y-66222571D01*
X41298857Y-66270190D01*
X40917904Y-66270190D01*
X42346476Y-65746380D02*
X42156000Y-65746380D01*
X42060761Y-65794000D01*
X42013142Y-65841619D01*
X41917904Y-65984476D01*
X41870285Y-66174952D01*
X41870285Y-66555904D01*
X41917904Y-66651142D01*
X41965523Y-66698761D01*
X42060761Y-66746380D01*
X42251238Y-66746380D01*
X42346476Y-66698761D01*
X42394095Y-66651142D01*
X42441714Y-66555904D01*
X42441714Y-66317809D01*
X42394095Y-66222571D01*
X42346476Y-66174952D01*
X42251238Y-66127333D01*
X42060761Y-66127333D01*
X41965523Y-66174952D01*
X41917904Y-66222571D01*
X41870285Y-66317809D01*
X11761904Y-45952380D02*
X11761904Y-44952380D01*
X12142857Y-44952380D01*
X12238095Y-45000000D01*
X12285714Y-45047619D01*
X12333333Y-45142857D01*
X12333333Y-45285714D01*
X12285714Y-45380952D01*
X12238095Y-45428571D01*
X12142857Y-45476190D01*
X11761904Y-45476190D01*
X12666666Y-44952380D02*
X13333333Y-44952380D01*
X12904761Y-45952380D01*
X72413904Y-66492380D02*
X72413904Y-65492380D01*
X72794857Y-65492380D01*
X72890095Y-65540000D01*
X72937714Y-65587619D01*
X72985333Y-65682857D01*
X72985333Y-65825714D01*
X72937714Y-65920952D01*
X72890095Y-65968571D01*
X72794857Y-66016190D01*
X72413904Y-66016190D01*
X73556761Y-65920952D02*
X73461523Y-65873333D01*
X73413904Y-65825714D01*
X73366285Y-65730476D01*
X73366285Y-65682857D01*
X73413904Y-65587619D01*
X73461523Y-65540000D01*
X73556761Y-65492380D01*
X73747238Y-65492380D01*
X73842476Y-65540000D01*
X73890095Y-65587619D01*
X73937714Y-65682857D01*
X73937714Y-65730476D01*
X73890095Y-65825714D01*
X73842476Y-65873333D01*
X73747238Y-65920952D01*
X73556761Y-65920952D01*
X73461523Y-65968571D01*
X73413904Y-66016190D01*
X73366285Y-66111428D01*
X73366285Y-66301904D01*
X73413904Y-66397142D01*
X73461523Y-66444761D01*
X73556761Y-66492380D01*
X73747238Y-66492380D01*
X73842476Y-66444761D01*
X73890095Y-66397142D01*
X73937714Y-66301904D01*
X73937714Y-66111428D01*
X73890095Y-66016190D01*
X73842476Y-65968571D01*
X73747238Y-65920952D01*
X57761904Y-45452380D02*
X57761904Y-44452380D01*
X58142857Y-44452380D01*
X58238095Y-44500000D01*
X58285714Y-44547619D01*
X58333333Y-44642857D01*
X58333333Y-44785714D01*
X58285714Y-44880952D01*
X58238095Y-44928571D01*
X58142857Y-44976190D01*
X57761904Y-44976190D01*
X58809523Y-45452380D02*
X59000000Y-45452380D01*
X59095238Y-45404761D01*
X59142857Y-45357142D01*
X59238095Y-45214285D01*
X59285714Y-45023809D01*
X59285714Y-44642857D01*
X59238095Y-44547619D01*
X59190476Y-44500000D01*
X59095238Y-44452380D01*
X58904761Y-44452380D01*
X58809523Y-44500000D01*
X58761904Y-44547619D01*
X58714285Y-44642857D01*
X58714285Y-44880952D01*
X58761904Y-44976190D01*
X58809523Y-45023809D01*
X58904761Y-45071428D01*
X59095238Y-45071428D01*
X59190476Y-45023809D01*
X59238095Y-44976190D01*
X59285714Y-44880952D01*
X26285714Y-45952380D02*
X26285714Y-44952380D01*
X26666666Y-44952380D01*
X26761904Y-45000000D01*
X26809523Y-45047619D01*
X26857142Y-45142857D01*
X26857142Y-45285714D01*
X26809523Y-45380952D01*
X26761904Y-45428571D01*
X26666666Y-45476190D01*
X26285714Y-45476190D01*
X27809523Y-45952380D02*
X27238095Y-45952380D01*
X27523809Y-45952380D02*
X27523809Y-44952380D01*
X27428571Y-45095238D01*
X27333333Y-45190476D01*
X27238095Y-45238095D01*
X28428571Y-44952380D02*
X28523809Y-44952380D01*
X28619047Y-45000000D01*
X28666666Y-45047619D01*
X28714285Y-45142857D01*
X28761904Y-45333333D01*
X28761904Y-45571428D01*
X28714285Y-45761904D01*
X28666666Y-45857142D01*
X28619047Y-45904761D01*
X28523809Y-45952380D01*
X28428571Y-45952380D01*
X28333333Y-45904761D01*
X28285714Y-45857142D01*
X28238095Y-45761904D01*
X28190476Y-45571428D01*
X28190476Y-45333333D01*
X28238095Y-45142857D01*
X28285714Y-45047619D01*
X28333333Y-45000000D01*
X28428571Y-44952380D01*
X11485714Y-66746380D02*
X11485714Y-65746380D01*
X11866666Y-65746380D01*
X11961904Y-65794000D01*
X12009523Y-65841619D01*
X12057142Y-65936857D01*
X12057142Y-66079714D01*
X12009523Y-66174952D01*
X11961904Y-66222571D01*
X11866666Y-66270190D01*
X11485714Y-66270190D01*
X13009523Y-66746380D02*
X12438095Y-66746380D01*
X12723809Y-66746380D02*
X12723809Y-65746380D01*
X12628571Y-65889238D01*
X12533333Y-65984476D01*
X12438095Y-66032095D01*
X13961904Y-66746380D02*
X13390476Y-66746380D01*
X13676190Y-66746380D02*
X13676190Y-65746380D01*
X13580952Y-65889238D01*
X13485714Y-65984476D01*
X13390476Y-66032095D01*
X40785714Y-45952380D02*
X40785714Y-44952380D01*
X41166666Y-44952380D01*
X41261904Y-45000000D01*
X41309523Y-45047619D01*
X41357142Y-45142857D01*
X41357142Y-45285714D01*
X41309523Y-45380952D01*
X41261904Y-45428571D01*
X41166666Y-45476190D01*
X40785714Y-45476190D01*
X42309523Y-45952380D02*
X41738095Y-45952380D01*
X42023809Y-45952380D02*
X42023809Y-44952380D01*
X41928571Y-45095238D01*
X41833333Y-45190476D01*
X41738095Y-45238095D01*
X42690476Y-45047619D02*
X42738095Y-45000000D01*
X42833333Y-44952380D01*
X43071428Y-44952380D01*
X43166666Y-45000000D01*
X43214285Y-45047619D01*
X43261904Y-45142857D01*
X43261904Y-45238095D01*
X43214285Y-45380952D01*
X42642857Y-45952380D01*
X43261904Y-45952380D01*
X82220177Y-36776237D02*
X81743987Y-37109570D01*
X82220177Y-37347665D02*
X81220177Y-37347665D01*
X81220177Y-36966713D01*
X81267797Y-36871475D01*
X81315416Y-36823856D01*
X81410654Y-36776237D01*
X81553511Y-36776237D01*
X81648749Y-36823856D01*
X81696368Y-36871475D01*
X81743987Y-36966713D01*
X81743987Y-37347665D01*
X81220177Y-36490522D02*
X82220177Y-36157189D01*
X81220177Y-35823856D01*
X81315416Y-35538141D02*
X81267797Y-35490522D01*
X81220177Y-35395284D01*
X81220177Y-35157189D01*
X81267797Y-35061951D01*
X81315416Y-35014332D01*
X81410654Y-34966713D01*
X81505892Y-34966713D01*
X81648749Y-35014332D01*
X82220177Y-35585760D01*
X82220177Y-34966713D01*
X49333333Y-15107142D02*
X49285714Y-15154761D01*
X49142857Y-15202380D01*
X49047619Y-15202380D01*
X48904761Y-15154761D01*
X48809523Y-15059523D01*
X48761904Y-14964285D01*
X48714285Y-14773809D01*
X48714285Y-14630952D01*
X48761904Y-14440476D01*
X48809523Y-14345238D01*
X48904761Y-14250000D01*
X49047619Y-14202380D01*
X49142857Y-14202380D01*
X49285714Y-14250000D01*
X49333333Y-14297619D01*
X50190476Y-14535714D02*
X50190476Y-15202380D01*
X49952380Y-14154761D02*
X49714285Y-14869047D01*
X50333333Y-14869047D01*
X61333333Y-15357142D02*
X61285714Y-15404761D01*
X61142857Y-15452380D01*
X61047619Y-15452380D01*
X60904761Y-15404761D01*
X60809523Y-15309523D01*
X60761904Y-15214285D01*
X60714285Y-15023809D01*
X60714285Y-14880952D01*
X60761904Y-14690476D01*
X60809523Y-14595238D01*
X60904761Y-14500000D01*
X61047619Y-14452380D01*
X61142857Y-14452380D01*
X61285714Y-14500000D01*
X61333333Y-14547619D01*
X61666666Y-14452380D02*
X62333333Y-14452380D01*
X61904761Y-15452380D01*
X35857142Y-14607142D02*
X35809523Y-14654761D01*
X35666666Y-14702380D01*
X35571428Y-14702380D01*
X35428571Y-14654761D01*
X35333333Y-14559523D01*
X35285714Y-14464285D01*
X35238095Y-14273809D01*
X35238095Y-14130952D01*
X35285714Y-13940476D01*
X35333333Y-13845238D01*
X35428571Y-13750000D01*
X35571428Y-13702380D01*
X35666666Y-13702380D01*
X35809523Y-13750000D01*
X35857142Y-13797619D01*
X36809523Y-14702380D02*
X36238095Y-14702380D01*
X36523809Y-14702380D02*
X36523809Y-13702380D01*
X36428571Y-13845238D01*
X36333333Y-13940476D01*
X36238095Y-13988095D01*
X37190476Y-13797619D02*
X37238095Y-13750000D01*
X37333333Y-13702380D01*
X37571428Y-13702380D01*
X37666666Y-13750000D01*
X37714285Y-13797619D01*
X37761904Y-13892857D01*
X37761904Y-13988095D01*
X37714285Y-14130952D01*
X37142857Y-14702380D01*
X37761904Y-14702380D01*
X47118571Y-23738095D02*
X47118571Y-24071428D01*
X47642380Y-24071428D02*
X46642380Y-24071428D01*
X46642380Y-23595238D01*
X47642380Y-22738095D02*
X47642380Y-23214285D01*
X46642380Y-23214285D01*
X47642380Y-21880952D02*
X47642380Y-22452380D01*
X47642380Y-22166666D02*
X46642380Y-22166666D01*
X46785238Y-22261904D01*
X46880476Y-22357142D01*
X46928095Y-22452380D01*
X58848571Y-23738095D02*
X58848571Y-24071428D01*
X59372380Y-24071428D02*
X58372380Y-24071428D01*
X58372380Y-23595238D01*
X59372380Y-22738095D02*
X59372380Y-23214285D01*
X58372380Y-23214285D01*
X58467619Y-22452380D02*
X58420000Y-22404761D01*
X58372380Y-22309523D01*
X58372380Y-22071428D01*
X58420000Y-21976190D01*
X58467619Y-21928571D01*
X58562857Y-21880952D01*
X58658095Y-21880952D01*
X58800952Y-21928571D01*
X59372380Y-22500000D01*
X59372380Y-21880952D01*
X34578571Y-23738095D02*
X34578571Y-24071428D01*
X35102380Y-24071428D02*
X34102380Y-24071428D01*
X34102380Y-23595238D01*
X35102380Y-22738095D02*
X35102380Y-23214285D01*
X34102380Y-23214285D01*
X34102380Y-22500000D02*
X34102380Y-21880952D01*
X34483333Y-22214285D01*
X34483333Y-22071428D01*
X34530952Y-21976190D01*
X34578571Y-21928571D01*
X34673809Y-21880952D01*
X34911904Y-21880952D01*
X35007142Y-21928571D01*
X35054761Y-21976190D01*
X35102380Y-22071428D01*
X35102380Y-22357142D01*
X35054761Y-22452380D01*
X35007142Y-22500000D01*
X79166666Y-8452380D02*
X79166666Y-9166666D01*
X79119047Y-9309523D01*
X79023809Y-9404761D01*
X78880952Y-9452380D01*
X78785714Y-9452380D01*
X80166666Y-9452380D02*
X79595238Y-9452380D01*
X79880952Y-9452380D02*
X79880952Y-8452380D01*
X79785714Y-8595238D01*
X79690476Y-8690476D01*
X79595238Y-8738095D01*
X89916666Y-9702380D02*
X89916666Y-10416666D01*
X89869047Y-10559523D01*
X89773809Y-10654761D01*
X89630952Y-10702380D01*
X89535714Y-10702380D01*
X90345238Y-9797619D02*
X90392857Y-9750000D01*
X90488095Y-9702380D01*
X90726190Y-9702380D01*
X90821428Y-9750000D01*
X90869047Y-9797619D01*
X90916666Y-9892857D01*
X90916666Y-9988095D01*
X90869047Y-10130952D01*
X90297619Y-10702380D01*
X90916666Y-10702380D01*
X89952380Y-20833333D02*
X90666666Y-20833333D01*
X90809523Y-20880952D01*
X90904761Y-20976190D01*
X90952380Y-21119047D01*
X90952380Y-21214285D01*
X89952380Y-20452380D02*
X89952380Y-19833333D01*
X90333333Y-20166666D01*
X90333333Y-20023809D01*
X90380952Y-19928571D01*
X90428571Y-19880952D01*
X90523809Y-19833333D01*
X90761904Y-19833333D01*
X90857142Y-19880952D01*
X90904761Y-19928571D01*
X90952380Y-20023809D01*
X90952380Y-20309523D01*
X90904761Y-20404761D01*
X90857142Y-20452380D01*
X8916666Y-9202380D02*
X8916666Y-9916666D01*
X8869047Y-10059523D01*
X8773809Y-10154761D01*
X8630952Y-10202380D01*
X8535714Y-10202380D01*
X9821428Y-9535714D02*
X9821428Y-10202380D01*
X9583333Y-9154761D02*
X9345238Y-9869047D01*
X9964285Y-9869047D01*
X25219890Y-9202380D02*
X25219890Y-9916666D01*
X25172271Y-10059523D01*
X25077033Y-10154761D01*
X24934176Y-10202380D01*
X24838938Y-10202380D01*
X26172271Y-9202380D02*
X25696081Y-9202380D01*
X25648462Y-9678571D01*
X25696081Y-9630952D01*
X25791319Y-9583333D01*
X26029414Y-9583333D01*
X26124652Y-9630952D01*
X26172271Y-9678571D01*
X26219890Y-9773809D01*
X26219890Y-10011904D01*
X26172271Y-10107142D01*
X26124652Y-10154761D01*
X26029414Y-10202380D01*
X25791319Y-10202380D01*
X25696081Y-10154761D01*
X25648462Y-10107142D01*
X88952380Y-34583333D02*
X89666666Y-34583333D01*
X89809523Y-34630952D01*
X89904761Y-34726190D01*
X89952380Y-34869047D01*
X89952380Y-34964285D01*
X88952380Y-33678571D02*
X88952380Y-33869047D01*
X89000000Y-33964285D01*
X89047619Y-34011904D01*
X89190476Y-34107142D01*
X89380952Y-34154761D01*
X89761904Y-34154761D01*
X89857142Y-34107142D01*
X89904761Y-34059523D01*
X89952380Y-33964285D01*
X89952380Y-33773809D01*
X89904761Y-33678571D01*
X89857142Y-33630952D01*
X89761904Y-33583333D01*
X89523809Y-33583333D01*
X89428571Y-33630952D01*
X89380952Y-33678571D01*
X89333333Y-33773809D01*
X89333333Y-33964285D01*
X89380952Y-34059523D01*
X89428571Y-34107142D01*
X89523809Y-34154761D01*
X24027380Y-21045238D02*
X23551190Y-21378571D01*
X24027380Y-21616666D02*
X23027380Y-21616666D01*
X23027380Y-21235714D01*
X23075000Y-21140476D01*
X23122619Y-21092857D01*
X23217857Y-21045238D01*
X23360714Y-21045238D01*
X23455952Y-21092857D01*
X23503571Y-21140476D01*
X23551190Y-21235714D01*
X23551190Y-21616666D01*
X23027380Y-20759523D02*
X24027380Y-20426190D01*
X23027380Y-20092857D01*
X24027380Y-19235714D02*
X24027380Y-19807142D01*
X24027380Y-19521428D02*
X23027380Y-19521428D01*
X23170238Y-19616666D01*
X23265476Y-19711904D01*
X23313095Y-19807142D01*
X25624234Y-21045238D02*
X25148044Y-21378571D01*
X25624234Y-21616666D02*
X24624234Y-21616666D01*
X24624234Y-21235714D01*
X24671854Y-21140476D01*
X24719473Y-21092857D01*
X24814711Y-21045238D01*
X24957568Y-21045238D01*
X25052806Y-21092857D01*
X25100425Y-21140476D01*
X25148044Y-21235714D01*
X25148044Y-21616666D01*
X24624234Y-20759523D02*
X25624234Y-20426190D01*
X24624234Y-20092857D01*
X24624234Y-19854761D02*
X24624234Y-19235714D01*
X25005187Y-19569047D01*
X25005187Y-19426190D01*
X25052806Y-19330952D01*
X25100425Y-19283333D01*
X25195663Y-19235714D01*
X25433758Y-19235714D01*
X25528996Y-19283333D01*
X25576615Y-19330952D01*
X25624234Y-19426190D01*
X25624234Y-19711904D01*
X25576615Y-19807142D01*
X25528996Y-19854761D01*
X47658095Y-1452380D02*
X47658095Y-2261904D01*
X47705714Y-2357142D01*
X47753333Y-2404761D01*
X47848571Y-2452380D01*
X48039047Y-2452380D01*
X48134285Y-2404761D01*
X48181904Y-2357142D01*
X48229523Y-2261904D01*
X48229523Y-1452380D01*
X49229523Y-2452380D02*
X48658095Y-2452380D01*
X48943809Y-2452380D02*
X48943809Y-1452380D01*
X48848571Y-1595238D01*
X48753333Y-1690476D01*
X48658095Y-1738095D01*
X69738095Y-1702380D02*
X69738095Y-2511904D01*
X69785714Y-2607142D01*
X69833333Y-2654761D01*
X69928571Y-2702380D01*
X70119047Y-2702380D01*
X70214285Y-2654761D01*
X70261904Y-2607142D01*
X70309523Y-2511904D01*
X70309523Y-1702380D01*
X70738095Y-1797619D02*
X70785714Y-1750000D01*
X70880952Y-1702380D01*
X71119047Y-1702380D01*
X71214285Y-1750000D01*
X71261904Y-1797619D01*
X71309523Y-1892857D01*
X71309523Y-1988095D01*
X71261904Y-2130952D01*
X70690476Y-2702380D01*
X71309523Y-2702380D01*
X35118095Y-1452380D02*
X35118095Y-2261904D01*
X35165714Y-2357142D01*
X35213333Y-2404761D01*
X35308571Y-2452380D01*
X35499047Y-2452380D01*
X35594285Y-2404761D01*
X35641904Y-2357142D01*
X35689523Y-2261904D01*
X35689523Y-1452380D01*
X36070476Y-1452380D02*
X36689523Y-1452380D01*
X36356190Y-1833333D01*
X36499047Y-1833333D01*
X36594285Y-1880952D01*
X36641904Y-1928571D01*
X36689523Y-2023809D01*
X36689523Y-2261904D01*
X36641904Y-2357142D01*
X36594285Y-2404761D01*
X36499047Y-2452380D01*
X36213333Y-2452380D01*
X36118095Y-2404761D01*
X36070476Y-2357142D01*
X31982380Y-21658095D02*
X30982380Y-21658095D01*
X30982380Y-21420000D01*
X31030000Y-21277142D01*
X31125238Y-21181904D01*
X31220476Y-21134285D01*
X31410952Y-21086666D01*
X31553809Y-21086666D01*
X31744285Y-21134285D01*
X31839523Y-21181904D01*
X31934761Y-21277142D01*
X31982380Y-21420000D01*
X31982380Y-21658095D01*
X31982380Y-20134285D02*
X31982380Y-20705714D01*
X31982380Y-20420000D02*
X30982380Y-20420000D01*
X31125238Y-20515238D01*
X31220476Y-20610476D01*
X31268095Y-20705714D01*
X32352380Y-26261904D02*
X31352380Y-26261904D01*
X32352380Y-25690476D02*
X31780952Y-26119047D01*
X31352380Y-25690476D02*
X31923809Y-26261904D01*
X73720177Y-36169094D02*
X72720177Y-36169094D01*
X72720177Y-35930999D01*
X72767797Y-35788141D01*
X72863035Y-35692903D01*
X72958273Y-35645284D01*
X73148749Y-35597665D01*
X73291606Y-35597665D01*
X73482082Y-35645284D01*
X73577320Y-35692903D01*
X73672558Y-35788141D01*
X73720177Y-35930999D01*
X73720177Y-36169094D01*
X72815416Y-35216713D02*
X72767797Y-35169094D01*
X72720177Y-35073856D01*
X72720177Y-34835760D01*
X72767797Y-34740522D01*
X72815416Y-34692903D01*
X72910654Y-34645284D01*
X73005892Y-34645284D01*
X73148749Y-34692903D01*
X73720177Y-35264332D01*
X73720177Y-34645284D01*
X73452380Y-41351065D02*
X72452380Y-41351065D01*
X73452380Y-40779637D02*
X72880952Y-41208208D01*
X72452380Y-40779637D02*
X73023809Y-41351065D01*
X100102380Y-3738095D02*
X99102380Y-3738095D01*
X99102380Y-3500000D01*
X99150000Y-3357142D01*
X99245238Y-3261904D01*
X99340476Y-3214285D01*
X99530952Y-3166666D01*
X99673809Y-3166666D01*
X99864285Y-3214285D01*
X99959523Y-3261904D01*
X100054761Y-3357142D01*
X100102380Y-3500000D01*
X100102380Y-3738095D01*
X99102380Y-2833333D02*
X99102380Y-2214285D01*
X99483333Y-2547619D01*
X99483333Y-2404761D01*
X99530952Y-2309523D01*
X99578571Y-2261904D01*
X99673809Y-2214285D01*
X99911904Y-2214285D01*
X100007142Y-2261904D01*
X100054761Y-2309523D01*
X100102380Y-2404761D01*
X100102380Y-2690476D01*
X100054761Y-2785714D01*
X100007142Y-2833333D01*
X21761904Y-13952380D02*
X21761904Y-12952380D01*
X22000000Y-12952380D01*
X22142857Y-13000000D01*
X22238095Y-13095238D01*
X22285714Y-13190476D01*
X22333333Y-13380952D01*
X22333333Y-13523809D01*
X22285714Y-13714285D01*
X22238095Y-13809523D01*
X22142857Y-13904761D01*
X22000000Y-13952380D01*
X21761904Y-13952380D01*
X23190476Y-13285714D02*
X23190476Y-13952380D01*
X22952380Y-12904761D02*
X22714285Y-13619047D01*
X23333333Y-13619047D01*
X8261904Y-15952380D02*
X8261904Y-14952380D01*
X8500000Y-14952380D01*
X8642857Y-15000000D01*
X8738095Y-15095238D01*
X8785714Y-15190476D01*
X8833333Y-15380952D01*
X8833333Y-15523809D01*
X8785714Y-15714285D01*
X8738095Y-15809523D01*
X8642857Y-15904761D01*
X8500000Y-15952380D01*
X8261904Y-15952380D01*
X9738095Y-14952380D02*
X9261904Y-14952380D01*
X9214285Y-15428571D01*
X9261904Y-15380952D01*
X9357142Y-15333333D01*
X9595238Y-15333333D01*
X9690476Y-15380952D01*
X9738095Y-15428571D01*
X9785714Y-15523809D01*
X9785714Y-15761904D01*
X9738095Y-15857142D01*
X9690476Y-15904761D01*
X9595238Y-15952380D01*
X9357142Y-15952380D01*
X9261904Y-15904761D01*
X9214285Y-15857142D01*
X18922380Y-21818095D02*
X17922380Y-21818095D01*
X17922380Y-21580000D01*
X17970000Y-21437142D01*
X18065238Y-21341904D01*
X18160476Y-21294285D01*
X18350952Y-21246666D01*
X18493809Y-21246666D01*
X18684285Y-21294285D01*
X18779523Y-21341904D01*
X18874761Y-21437142D01*
X18922380Y-21580000D01*
X18922380Y-21818095D01*
X17922380Y-20389523D02*
X17922380Y-20580000D01*
X17970000Y-20675238D01*
X18017619Y-20722857D01*
X18160476Y-20818095D01*
X18350952Y-20865714D01*
X18731904Y-20865714D01*
X18827142Y-20818095D01*
X18874761Y-20770476D01*
X18922380Y-20675238D01*
X18922380Y-20484761D01*
X18874761Y-20389523D01*
X18827142Y-20341904D01*
X18731904Y-20294285D01*
X18493809Y-20294285D01*
X18398571Y-20341904D01*
X18350952Y-20389523D01*
X18303333Y-20484761D01*
X18303333Y-20675238D01*
X18350952Y-20770476D01*
X18398571Y-20818095D01*
X18493809Y-20865714D01*
X18552380Y-16261904D02*
X17552380Y-16261904D01*
X18552380Y-15690476D02*
X17980952Y-16119047D01*
X17552380Y-15690476D02*
X18123809Y-16261904D01*
X88102380Y-39738095D02*
X87102380Y-39738095D01*
X87102380Y-39500000D01*
X87150000Y-39357142D01*
X87245238Y-39261904D01*
X87340476Y-39214285D01*
X87530952Y-39166666D01*
X87673809Y-39166666D01*
X87864285Y-39214285D01*
X87959523Y-39261904D01*
X88054761Y-39357142D01*
X88102380Y-39500000D01*
X88102380Y-39738095D01*
X87102380Y-38833333D02*
X87102380Y-38166666D01*
X88102380Y-38595238D01*
X86552381Y-29908094D02*
X85552381Y-29908094D01*
X85552381Y-29669999D01*
X85600001Y-29527141D01*
X85695239Y-29431903D01*
X85790477Y-29384284D01*
X85980953Y-29336665D01*
X86123810Y-29336665D01*
X86314286Y-29384284D01*
X86409524Y-29431903D01*
X86504762Y-29527141D01*
X86552381Y-29669999D01*
X86552381Y-29908094D01*
X85980953Y-28765237D02*
X85933334Y-28860475D01*
X85885715Y-28908094D01*
X85790477Y-28955713D01*
X85742858Y-28955713D01*
X85647620Y-28908094D01*
X85600001Y-28860475D01*
X85552381Y-28765237D01*
X85552381Y-28574760D01*
X85600001Y-28479522D01*
X85647620Y-28431903D01*
X85742858Y-28384284D01*
X85790477Y-28384284D01*
X85885715Y-28431903D01*
X85933334Y-28479522D01*
X85980953Y-28574760D01*
X85980953Y-28765237D01*
X86028572Y-28860475D01*
X86076191Y-28908094D01*
X86171429Y-28955713D01*
X86361905Y-28955713D01*
X86457143Y-28908094D01*
X86504762Y-28860475D01*
X86552381Y-28765237D01*
X86552381Y-28574760D01*
X86504762Y-28479522D01*
X86457143Y-28431903D01*
X86361905Y-28384284D01*
X86171429Y-28384284D01*
X86076191Y-28431903D01*
X86028572Y-28479522D01*
X85980953Y-28574760D01*
X84802380Y-23713095D02*
X83802380Y-23713095D01*
X83802380Y-23475000D01*
X83850000Y-23332142D01*
X83945238Y-23236904D01*
X84040476Y-23189285D01*
X84230952Y-23141666D01*
X84373809Y-23141666D01*
X84564285Y-23189285D01*
X84659523Y-23236904D01*
X84754761Y-23332142D01*
X84802380Y-23475000D01*
X84802380Y-23713095D01*
X84802380Y-22665476D02*
X84802380Y-22475000D01*
X84754761Y-22379761D01*
X84707142Y-22332142D01*
X84564285Y-22236904D01*
X84373809Y-22189285D01*
X83992857Y-22189285D01*
X83897619Y-22236904D01*
X83850000Y-22284523D01*
X83802380Y-22379761D01*
X83802380Y-22570238D01*
X83850000Y-22665476D01*
X83897619Y-22713095D01*
X83992857Y-22760714D01*
X84230952Y-22760714D01*
X84326190Y-22713095D01*
X84373809Y-22665476D01*
X84421428Y-22570238D01*
X84421428Y-22379761D01*
X84373809Y-22284523D01*
X84326190Y-22236904D01*
X84230952Y-22189285D01*
X57583333Y-41607142D02*
X57535714Y-41654761D01*
X57392857Y-41702380D01*
X57297619Y-41702380D01*
X57154761Y-41654761D01*
X57059523Y-41559523D01*
X57011904Y-41464285D01*
X56964285Y-41273809D01*
X56964285Y-41130952D01*
X57011904Y-40940476D01*
X57059523Y-40845238D01*
X57154761Y-40750000D01*
X57297619Y-40702380D01*
X57392857Y-40702380D01*
X57535714Y-40750000D01*
X57583333Y-40797619D01*
X57916666Y-40702380D02*
X58535714Y-40702380D01*
X58202380Y-41083333D01*
X58345238Y-41083333D01*
X58440476Y-41130952D01*
X58488095Y-41178571D01*
X58535714Y-41273809D01*
X58535714Y-41511904D01*
X58488095Y-41607142D01*
X58440476Y-41654761D01*
X58345238Y-41702380D01*
X58059523Y-41702380D01*
X57964285Y-41654761D01*
X57916666Y-41607142D01*
X68357142Y-41607142D02*
X68309523Y-41654761D01*
X68166666Y-41702380D01*
X68071428Y-41702380D01*
X67928571Y-41654761D01*
X67833333Y-41559523D01*
X67785714Y-41464285D01*
X67738095Y-41273809D01*
X67738095Y-41130952D01*
X67785714Y-40940476D01*
X67833333Y-40845238D01*
X67928571Y-40750000D01*
X68071428Y-40702380D01*
X68166666Y-40702380D01*
X68309523Y-40750000D01*
X68357142Y-40797619D01*
X69309523Y-41702380D02*
X68738095Y-41702380D01*
X69023809Y-41702380D02*
X69023809Y-40702380D01*
X68928571Y-40845238D01*
X68833333Y-40940476D01*
X68738095Y-40988095D01*
X69928571Y-40702380D02*
X70023809Y-40702380D01*
X70119047Y-40750000D01*
X70166666Y-40797619D01*
X70214285Y-40892857D01*
X70261904Y-41083333D01*
X70261904Y-41321428D01*
X70214285Y-41511904D01*
X70166666Y-41607142D01*
X70119047Y-41654761D01*
X70023809Y-41702380D01*
X69928571Y-41702380D01*
X69833333Y-41654761D01*
X69785714Y-41607142D01*
X69738095Y-41511904D01*
X69690476Y-41321428D01*
X69690476Y-41083333D01*
X69738095Y-40892857D01*
X69785714Y-40797619D01*
X69833333Y-40750000D01*
X69928571Y-40702380D01*
X45583333Y-55107142D02*
X45535714Y-55154761D01*
X45392857Y-55202380D01*
X45297619Y-55202380D01*
X45154761Y-55154761D01*
X45059523Y-55059523D01*
X45011904Y-54964285D01*
X44964285Y-54773809D01*
X44964285Y-54630952D01*
X45011904Y-54440476D01*
X45059523Y-54345238D01*
X45154761Y-54250000D01*
X45297619Y-54202380D01*
X45392857Y-54202380D01*
X45535714Y-54250000D01*
X45583333Y-54297619D01*
X46488095Y-54202380D02*
X46011904Y-54202380D01*
X45964285Y-54678571D01*
X46011904Y-54630952D01*
X46107142Y-54583333D01*
X46345238Y-54583333D01*
X46440476Y-54630952D01*
X46488095Y-54678571D01*
X46535714Y-54773809D01*
X46535714Y-55011904D01*
X46488095Y-55107142D01*
X46440476Y-55154761D01*
X46345238Y-55202380D01*
X46107142Y-55202380D01*
X46011904Y-55154761D01*
X45964285Y-55107142D01*
X45833333Y-77107142D02*
X45785714Y-77154761D01*
X45642857Y-77202380D01*
X45547619Y-77202380D01*
X45404761Y-77154761D01*
X45309523Y-77059523D01*
X45261904Y-76964285D01*
X45214285Y-76773809D01*
X45214285Y-76630952D01*
X45261904Y-76440476D01*
X45309523Y-76345238D01*
X45404761Y-76250000D01*
X45547619Y-76202380D01*
X45642857Y-76202380D01*
X45785714Y-76250000D01*
X45833333Y-76297619D01*
X46690476Y-76202380D02*
X46500000Y-76202380D01*
X46404761Y-76250000D01*
X46357142Y-76297619D01*
X46261904Y-76440476D01*
X46214285Y-76630952D01*
X46214285Y-77011904D01*
X46261904Y-77107142D01*
X46309523Y-77154761D01*
X46404761Y-77202380D01*
X46595238Y-77202380D01*
X46690476Y-77154761D01*
X46738095Y-77107142D01*
X46785714Y-77011904D01*
X46785714Y-76773809D01*
X46738095Y-76678571D01*
X46690476Y-76630952D01*
X46595238Y-76583333D01*
X46404761Y-76583333D01*
X46309523Y-76630952D01*
X46261904Y-76678571D01*
X46214285Y-76773809D01*
X45833333Y-88607142D02*
X45785714Y-88654761D01*
X45642857Y-88702380D01*
X45547619Y-88702380D01*
X45404761Y-88654761D01*
X45309523Y-88559523D01*
X45261904Y-88464285D01*
X45214285Y-88273809D01*
X45214285Y-88130952D01*
X45261904Y-87940476D01*
X45309523Y-87845238D01*
X45404761Y-87750000D01*
X45547619Y-87702380D01*
X45642857Y-87702380D01*
X45785714Y-87750000D01*
X45833333Y-87797619D01*
X46404761Y-88130952D02*
X46309523Y-88083333D01*
X46261904Y-88035714D01*
X46214285Y-87940476D01*
X46214285Y-87892857D01*
X46261904Y-87797619D01*
X46309523Y-87750000D01*
X46404761Y-87702380D01*
X46595238Y-87702380D01*
X46690476Y-87750000D01*
X46738095Y-87797619D01*
X46785714Y-87892857D01*
X46785714Y-87940476D01*
X46738095Y-88035714D01*
X46690476Y-88083333D01*
X46595238Y-88130952D01*
X46404761Y-88130952D01*
X46309523Y-88178571D01*
X46261904Y-88226190D01*
X46214285Y-88321428D01*
X46214285Y-88511904D01*
X46261904Y-88607142D01*
X46309523Y-88654761D01*
X46404761Y-88702380D01*
X46595238Y-88702380D01*
X46690476Y-88654761D01*
X46738095Y-88607142D01*
X46785714Y-88511904D01*
X46785714Y-88321428D01*
X46738095Y-88226190D01*
X46690476Y-88178571D01*
X46595238Y-88130952D01*
X44357142Y-41607142D02*
X44309523Y-41654761D01*
X44166666Y-41702380D01*
X44071428Y-41702380D01*
X43928571Y-41654761D01*
X43833333Y-41559523D01*
X43785714Y-41464285D01*
X43738095Y-41273809D01*
X43738095Y-41130952D01*
X43785714Y-40940476D01*
X43833333Y-40845238D01*
X43928571Y-40750000D01*
X44071428Y-40702380D01*
X44166666Y-40702380D01*
X44309523Y-40750000D01*
X44357142Y-40797619D01*
X45309523Y-41702380D02*
X44738095Y-41702380D01*
X45023809Y-41702380D02*
X45023809Y-40702380D01*
X44928571Y-40845238D01*
X44833333Y-40940476D01*
X44738095Y-40988095D01*
X46261904Y-41702380D02*
X45690476Y-41702380D01*
X45976190Y-41702380D02*
X45976190Y-40702380D01*
X45880952Y-40845238D01*
X45785714Y-40940476D01*
X45690476Y-40988095D01*
X45357142Y-44107142D02*
X45309523Y-44154761D01*
X45166666Y-44202380D01*
X45071428Y-44202380D01*
X44928571Y-44154761D01*
X44833333Y-44059523D01*
X44785714Y-43964285D01*
X44738095Y-43773809D01*
X44738095Y-43630952D01*
X44785714Y-43440476D01*
X44833333Y-43345238D01*
X44928571Y-43250000D01*
X45071428Y-43202380D01*
X45166666Y-43202380D01*
X45309523Y-43250000D01*
X45357142Y-43297619D01*
X46309523Y-44202380D02*
X45738095Y-44202380D01*
X46023809Y-44202380D02*
X46023809Y-43202380D01*
X45928571Y-43345238D01*
X45833333Y-43440476D01*
X45738095Y-43488095D01*
X46642857Y-43202380D02*
X47261904Y-43202380D01*
X46928571Y-43583333D01*
X47071428Y-43583333D01*
X47166666Y-43630952D01*
X47214285Y-43678571D01*
X47261904Y-43773809D01*
X47261904Y-44011904D01*
X47214285Y-44107142D01*
X47166666Y-44154761D01*
X47071428Y-44202380D01*
X46785714Y-44202380D01*
X46690476Y-44154761D01*
X46642857Y-44107142D01*
X45857142Y-65857142D02*
X45809523Y-65904761D01*
X45666666Y-65952380D01*
X45571428Y-65952380D01*
X45428571Y-65904761D01*
X45333333Y-65809523D01*
X45285714Y-65714285D01*
X45238095Y-65523809D01*
X45238095Y-65380952D01*
X45285714Y-65190476D01*
X45333333Y-65095238D01*
X45428571Y-65000000D01*
X45571428Y-64952380D01*
X45666666Y-64952380D01*
X45809523Y-65000000D01*
X45857142Y-65047619D01*
X46809523Y-65952380D02*
X46238095Y-65952380D01*
X46523809Y-65952380D02*
X46523809Y-64952380D01*
X46428571Y-65095238D01*
X46333333Y-65190476D01*
X46238095Y-65238095D01*
X47666666Y-65285714D02*
X47666666Y-65952380D01*
X47428571Y-64904761D02*
X47190476Y-65619047D01*
X47809523Y-65619047D01*
X1297619Y-30345238D02*
X1250000Y-30440476D01*
X1154761Y-30535714D01*
X1011904Y-30678571D01*
X964285Y-30773809D01*
X964285Y-30869047D01*
X1202380Y-30821428D02*
X1154761Y-30916666D01*
X1059523Y-31011904D01*
X869047Y-31059523D01*
X535714Y-31059523D01*
X345238Y-31011904D01*
X249999Y-30916666D01*
X202380Y-30821428D01*
X202380Y-30630952D01*
X250000Y-30535714D01*
X345238Y-30440476D01*
X535714Y-30392857D01*
X869047Y-30392857D01*
X1059523Y-30440476D01*
X1154761Y-30535714D01*
X1202380Y-30630952D01*
X1202380Y-30821428D01*
X1202380Y-29440476D02*
X1202380Y-30011904D01*
X1202380Y-29726190D02*
X202380Y-29726190D01*
X345238Y-29821428D01*
X440476Y-29916666D01*
X488095Y-30011904D01*
X1547619Y-40845238D02*
X1500000Y-40940476D01*
X1404761Y-41035714D01*
X1261904Y-41178571D01*
X1214285Y-41273809D01*
X1214285Y-41369047D01*
X1452380Y-41321428D02*
X1404761Y-41416666D01*
X1309523Y-41511904D01*
X1119047Y-41559523D01*
X785714Y-41559523D01*
X595238Y-41511904D01*
X499999Y-41416666D01*
X452380Y-41321428D01*
X452380Y-41130952D01*
X500000Y-41035714D01*
X595238Y-40940476D01*
X785714Y-40892857D01*
X1119047Y-40892857D01*
X1309523Y-40940476D01*
X1404761Y-41035714D01*
X1452380Y-41130952D01*
X1452380Y-41321428D01*
X547619Y-40511904D02*
X500000Y-40464285D01*
X452380Y-40369047D01*
X452380Y-40130952D01*
X500000Y-40035714D01*
X547619Y-39988095D01*
X642857Y-39940476D01*
X738095Y-39940476D01*
X880952Y-39988095D01*
X1452380Y-40559523D01*
X1452380Y-39940476D01*
X9833333Y-26452380D02*
X9500000Y-25976190D01*
X9261904Y-26452380D02*
X9261904Y-25452380D01*
X9642857Y-25452380D01*
X9738095Y-25500000D01*
X9785714Y-25547619D01*
X9833333Y-25642857D01*
X9833333Y-25785714D01*
X9785714Y-25880952D01*
X9738095Y-25928571D01*
X9642857Y-25976190D01*
X9261904Y-25976190D01*
X10166666Y-25452380D02*
X10833333Y-25452380D01*
X10404761Y-26452380D01*
X5857142Y-41952380D02*
X5523809Y-41476190D01*
X5285714Y-41952380D02*
X5285714Y-40952380D01*
X5666666Y-40952380D01*
X5761904Y-41000000D01*
X5809523Y-41047619D01*
X5857142Y-41142857D01*
X5857142Y-41285714D01*
X5809523Y-41380952D01*
X5761904Y-41428571D01*
X5666666Y-41476190D01*
X5285714Y-41476190D01*
X6809523Y-41952380D02*
X6238095Y-41952380D01*
X6523809Y-41952380D02*
X6523809Y-40952380D01*
X6428571Y-41095238D01*
X6333333Y-41190476D01*
X6238095Y-41238095D01*
X7761904Y-41952380D02*
X7190476Y-41952380D01*
X7476190Y-41952380D02*
X7476190Y-40952380D01*
X7380952Y-41095238D01*
X7285714Y-41190476D01*
X7190476Y-41238095D01*
X19702380Y-31761904D02*
X20511904Y-31761904D01*
X20607142Y-31714285D01*
X20654761Y-31666666D01*
X20702380Y-31571428D01*
X20702380Y-31380952D01*
X20654761Y-31285714D01*
X20607142Y-31238095D01*
X20511904Y-31190476D01*
X19702380Y-31190476D01*
X20035714Y-30285714D02*
X20702380Y-30285714D01*
X19654761Y-30523809D02*
X20369047Y-30761904D01*
X20369047Y-30142857D01*
D19*
X7561904Y-31076190D02*
X8361904Y-30809523D01*
X7561904Y-30542857D01*
X8361904Y-30276190D02*
X7828571Y-30276190D01*
X7561904Y-30276190D02*
X7600000Y-30314285D01*
X7638095Y-30276190D01*
X7600000Y-30238095D01*
X7561904Y-30276190D01*
X7638095Y-30276190D01*
X7828571Y-29895238D02*
X8361904Y-29895238D01*
X7904761Y-29895238D02*
X7866666Y-29857142D01*
X7828571Y-29780952D01*
X7828571Y-29666666D01*
X7866666Y-29590476D01*
X7942857Y-29552380D01*
X8361904Y-29552380D01*
X8057142Y-29171428D02*
X8057142Y-28561904D01*
X8361904Y-28866666D02*
X7752380Y-28866666D01*
X8361904Y-27761904D02*
X8361904Y-28219047D01*
X8361904Y-27990476D02*
X7561904Y-27990476D01*
X7676190Y-28066666D01*
X7752380Y-28142857D01*
X7790476Y-28219047D01*
X7561904Y-27038095D02*
X7561904Y-27419047D01*
X7942857Y-27457142D01*
X7904761Y-27419047D01*
X7866666Y-27342857D01*
X7866666Y-27152380D01*
X7904761Y-27076190D01*
X7942857Y-27038095D01*
X8019047Y-27000000D01*
X8209523Y-27000000D01*
X8285714Y-27038095D01*
X8323809Y-27076190D01*
X8361904Y-27152380D01*
X8361904Y-27342857D01*
X8323809Y-27419047D01*
X8285714Y-27457142D01*
D14*
X4738095Y-32202380D02*
X5309523Y-32202380D01*
X5023809Y-33202380D02*
X5023809Y-32202380D01*
X5642857Y-33202380D02*
X5642857Y-32202380D01*
X6023809Y-32202380D01*
X6119047Y-32250000D01*
X6166666Y-32297619D01*
X6214285Y-32392857D01*
X6214285Y-32535714D01*
X6166666Y-32630952D01*
X6119047Y-32678571D01*
X6023809Y-32726190D01*
X5642857Y-32726190D01*
X6547619Y-32202380D02*
X7166666Y-32202380D01*
X6833333Y-32583333D01*
X6976190Y-32583333D01*
X7071428Y-32630952D01*
X7119047Y-32678571D01*
X7166666Y-32773809D01*
X7166666Y-33011904D01*
X7119047Y-33107142D01*
X7071428Y-33154761D01*
X6976190Y-33202380D01*
X6690476Y-33202380D01*
X6595238Y-33154761D01*
X6547619Y-33107142D01*
D18*
X7561904Y-34140476D02*
X8361904Y-33873809D01*
X7561904Y-33607142D01*
X7600000Y-32921428D02*
X7561904Y-32997619D01*
X7561904Y-33111904D01*
X7600000Y-33226190D01*
X7676190Y-33302380D01*
X7752380Y-33340476D01*
X7904761Y-33378571D01*
X8019047Y-33378571D01*
X8171428Y-33340476D01*
X8247619Y-33302380D01*
X8323809Y-33226190D01*
X8361904Y-33111904D01*
X8361904Y-33035714D01*
X8323809Y-32921428D01*
X8285714Y-32883333D01*
X8019047Y-32883333D01*
X8019047Y-33035714D01*
X7828571Y-32540476D02*
X8361904Y-32540476D01*
X7904761Y-32540476D02*
X7866666Y-32502380D01*
X7828571Y-32426190D01*
X7828571Y-32311904D01*
X7866666Y-32235714D01*
X7942857Y-32197619D01*
X8361904Y-32197619D01*
X8361904Y-31473809D02*
X7561904Y-31473809D01*
X8323809Y-31473809D02*
X8361904Y-31550000D01*
X8361904Y-31702380D01*
X8323809Y-31778571D01*
X8285714Y-31816666D01*
X8209523Y-31854761D01*
X7980952Y-31854761D01*
X7904761Y-31816666D01*
X7866666Y-31778571D01*
X7828571Y-31702380D01*
X7828571Y-31550000D01*
X7866666Y-31473809D01*
D14*
X4738095Y-35452380D02*
X5309523Y-35452380D01*
X5023809Y-36452380D02*
X5023809Y-35452380D01*
X5642857Y-36452380D02*
X5642857Y-35452380D01*
X6023809Y-35452380D01*
X6119047Y-35500000D01*
X6166666Y-35547619D01*
X6214285Y-35642857D01*
X6214285Y-35785714D01*
X6166666Y-35880952D01*
X6119047Y-35928571D01*
X6023809Y-35976190D01*
X5642857Y-35976190D01*
X7071428Y-35785714D02*
X7071428Y-36452380D01*
X6833333Y-35404761D02*
X6595238Y-36119047D01*
X7214285Y-36119047D01*
D19*
X7561904Y-39076190D02*
X8361904Y-38809523D01*
X7561904Y-38542857D01*
X8361904Y-38276190D02*
X7828571Y-38276190D01*
X7561904Y-38276190D02*
X7600000Y-38314285D01*
X7638095Y-38276190D01*
X7600000Y-38238095D01*
X7561904Y-38276190D01*
X7638095Y-38276190D01*
X7828571Y-37895238D02*
X8361904Y-37895238D01*
X7904761Y-37895238D02*
X7866666Y-37857142D01*
X7828571Y-37780952D01*
X7828571Y-37666666D01*
X7866666Y-37590476D01*
X7942857Y-37552380D01*
X8361904Y-37552380D01*
X8057142Y-37171428D02*
X8057142Y-36561904D01*
X8361904Y-35761904D02*
X8361904Y-36219047D01*
X8361904Y-35990476D02*
X7561904Y-35990476D01*
X7676190Y-36066666D01*
X7752380Y-36142857D01*
X7790476Y-36219047D01*
X7561904Y-35038095D02*
X7561904Y-35419047D01*
X7942857Y-35457142D01*
X7904761Y-35419047D01*
X7866666Y-35342857D01*
X7866666Y-35152380D01*
X7904761Y-35076190D01*
X7942857Y-35038095D01*
X8019047Y-35000000D01*
X8209523Y-35000000D01*
X8285714Y-35038095D01*
X8323809Y-35076190D01*
X8361904Y-35152380D01*
X8361904Y-35342857D01*
X8323809Y-35419047D01*
X8285714Y-35457142D01*
M02*
