%TF.GenerationSoftware,KiCad,Pcbnew,(5.0.0)*%
%TF.CreationDate,2019-01-09T21:44:21+01:00*%
%TF.ProjectId,KicadEuropower,4B696361644575726F706F7765722E6B,Rev A*%
%TF.SameCoordinates,Original*%
%TF.FileFunction,Soldermask,Bot*%
%TF.FilePolarity,Negative*%
%FSLAX46Y46*%
G04 Gerber Fmt 4.6, Leading zero omitted, Abs format (unit mm)*
G04 Created by KiCad (PCBNEW (5.0.0)) date 01/09/19 21:44:21*
%MOMM*%
%LPD*%
G01*
G04 APERTURE LIST*
%ADD10C,1.000000*%
%ADD11C,0.150000*%
%ADD12C,0.200000*%
%ADD13C,1.200000*%
%ADD14C,6.800000*%
%ADD15C,1.700000*%
%ADD16C,3.180000*%
%ADD17R,2.127200X2.127200*%
%ADD18O,2.127200X2.127200*%
%ADD19C,2.200000*%
%ADD20C,1.550000*%
%ADD21C,2.000000*%
%ADD22R,2.000000X2.000000*%
%ADD23C,2.398980*%
%ADD24O,2.380000X4.360000*%
%ADD25R,2.380000X4.360000*%
%ADD26R,4.360000X2.380000*%
%ADD27O,4.360000X2.380000*%
%ADD28R,2.305000X2.400000*%
%ADD29O,2.305000X2.400000*%
%ADD30O,2.600000X2.600000*%
%ADD31R,2.600000X2.600000*%
%ADD32C,2.400000*%
%ADD33R,2.400000X2.400000*%
%ADD34O,2.200000X2.200000*%
%ADD35R,2.200000X2.200000*%
%ADD36O,1.800000X1.800000*%
%ADD37C,1.800000*%
%ADD38O,2.000000X2.000000*%
%ADD39R,2.100000X2.100000*%
%ADD40O,2.100000X2.100000*%
G04 APERTURE END LIST*
D10*
X110000000Y-94000000D02*
X110000000Y-93500000D01*
X143000000Y-94000000D02*
X110000000Y-94000000D01*
X143000000Y-93500000D02*
X143000000Y-94000000D01*
X110000000Y-93500000D02*
X143000000Y-93500000D01*
D11*
X101666666Y-150000000D02*
G75*
G03X101666666Y-150000000I-1666666J0D01*
G01*
X97500000Y-150000000D02*
X102500000Y-150000000D01*
X100000000Y-147500000D02*
X100000000Y-152500000D01*
D12*
X200000000Y-50000000D02*
X100000000Y-50000000D01*
X200000000Y-150000000D02*
X200000000Y-50000000D01*
X100000000Y-150000000D02*
X200000000Y-150000000D01*
X100000000Y-50000000D02*
X100000000Y-150000000D01*
D13*
X185947056Y-64302944D03*
X184250000Y-63600000D03*
X182552944Y-64302944D03*
X181850000Y-66000000D03*
X182552944Y-67697056D03*
X184250000Y-68400000D03*
X185947056Y-67697056D03*
X186650000Y-66000000D03*
D14*
X184250000Y-66000000D03*
X104000000Y-66000000D03*
D13*
X106400000Y-66000000D03*
X105697056Y-67697056D03*
X104000000Y-68400000D03*
X102302944Y-67697056D03*
X101600000Y-66000000D03*
X102302944Y-64302944D03*
X104000000Y-63600000D03*
X105697056Y-64302944D03*
D14*
X196000000Y-146250000D03*
D13*
X198400000Y-146250000D03*
X197697056Y-147947056D03*
X196000000Y-148650000D03*
X194302944Y-147947056D03*
X193600000Y-146250000D03*
X194302944Y-144552944D03*
X196000000Y-143850000D03*
X197697056Y-144552944D03*
D11*
G36*
X132805121Y-66976574D02*
X132836857Y-66981282D01*
X132867978Y-66989077D01*
X132898185Y-66999886D01*
X132927187Y-67013603D01*
X132954706Y-67030096D01*
X132980475Y-67049208D01*
X133004246Y-67070754D01*
X133025792Y-67094525D01*
X133044904Y-67120294D01*
X133061397Y-67147813D01*
X133075114Y-67176815D01*
X133085923Y-67207022D01*
X133093718Y-67238143D01*
X133098426Y-67269879D01*
X133100000Y-67301923D01*
X133100000Y-68348077D01*
X133098426Y-68380121D01*
X133093718Y-68411857D01*
X133085923Y-68442978D01*
X133075114Y-68473185D01*
X133061397Y-68502187D01*
X133044904Y-68529706D01*
X133025792Y-68555475D01*
X133004246Y-68579246D01*
X132980475Y-68600792D01*
X132954706Y-68619904D01*
X132927187Y-68636397D01*
X132898185Y-68650114D01*
X132867978Y-68660923D01*
X132836857Y-68668718D01*
X132805121Y-68673426D01*
X132773077Y-68675000D01*
X129626923Y-68675000D01*
X129594879Y-68673426D01*
X129563143Y-68668718D01*
X129532022Y-68660923D01*
X129501815Y-68650114D01*
X129472813Y-68636397D01*
X129445294Y-68619904D01*
X129419525Y-68600792D01*
X129395754Y-68579246D01*
X129374208Y-68555475D01*
X129355096Y-68529706D01*
X129338603Y-68502187D01*
X129324886Y-68473185D01*
X129314077Y-68442978D01*
X129306282Y-68411857D01*
X129301574Y-68380121D01*
X129300000Y-68348077D01*
X129300000Y-67301923D01*
X129301574Y-67269879D01*
X129306282Y-67238143D01*
X129314077Y-67207022D01*
X129324886Y-67176815D01*
X129338603Y-67147813D01*
X129355096Y-67120294D01*
X129374208Y-67094525D01*
X129395754Y-67070754D01*
X129419525Y-67049208D01*
X129445294Y-67030096D01*
X129472813Y-67013603D01*
X129501815Y-66999886D01*
X129532022Y-66989077D01*
X129563143Y-66981282D01*
X129594879Y-66976574D01*
X129626923Y-66975000D01*
X132773077Y-66975000D01*
X132805121Y-66976574D01*
X132805121Y-66976574D01*
G37*
D15*
X131200000Y-67825000D03*
D11*
G36*
X132805121Y-62526574D02*
X132836857Y-62531282D01*
X132867978Y-62539077D01*
X132898185Y-62549886D01*
X132927187Y-62563603D01*
X132954706Y-62580096D01*
X132980475Y-62599208D01*
X133004246Y-62620754D01*
X133025792Y-62644525D01*
X133044904Y-62670294D01*
X133061397Y-62697813D01*
X133075114Y-62726815D01*
X133085923Y-62757022D01*
X133093718Y-62788143D01*
X133098426Y-62819879D01*
X133100000Y-62851923D01*
X133100000Y-63898077D01*
X133098426Y-63930121D01*
X133093718Y-63961857D01*
X133085923Y-63992978D01*
X133075114Y-64023185D01*
X133061397Y-64052187D01*
X133044904Y-64079706D01*
X133025792Y-64105475D01*
X133004246Y-64129246D01*
X132980475Y-64150792D01*
X132954706Y-64169904D01*
X132927187Y-64186397D01*
X132898185Y-64200114D01*
X132867978Y-64210923D01*
X132836857Y-64218718D01*
X132805121Y-64223426D01*
X132773077Y-64225000D01*
X129626923Y-64225000D01*
X129594879Y-64223426D01*
X129563143Y-64218718D01*
X129532022Y-64210923D01*
X129501815Y-64200114D01*
X129472813Y-64186397D01*
X129445294Y-64169904D01*
X129419525Y-64150792D01*
X129395754Y-64129246D01*
X129374208Y-64105475D01*
X129355096Y-64079706D01*
X129338603Y-64052187D01*
X129324886Y-64023185D01*
X129314077Y-63992978D01*
X129306282Y-63961857D01*
X129301574Y-63930121D01*
X129300000Y-63898077D01*
X129300000Y-62851923D01*
X129301574Y-62819879D01*
X129306282Y-62788143D01*
X129314077Y-62757022D01*
X129324886Y-62726815D01*
X129338603Y-62697813D01*
X129355096Y-62670294D01*
X129374208Y-62644525D01*
X129395754Y-62620754D01*
X129419525Y-62599208D01*
X129445294Y-62580096D01*
X129472813Y-62563603D01*
X129501815Y-62549886D01*
X129532022Y-62539077D01*
X129563143Y-62531282D01*
X129594879Y-62526574D01*
X129626923Y-62525000D01*
X132773077Y-62525000D01*
X132805121Y-62526574D01*
X132805121Y-62526574D01*
G37*
D15*
X131200000Y-63375000D03*
D16*
X179000000Y-66000000D03*
X175600000Y-66000000D03*
X179000000Y-75920000D03*
X175600000Y-75920000D03*
D17*
X178333330Y-98535001D03*
D18*
X180873330Y-98535001D03*
X178333330Y-101075001D03*
X180873330Y-101075001D03*
X178333330Y-103615001D03*
X180873330Y-103615001D03*
X178333330Y-106155001D03*
X180873330Y-106155001D03*
X178333330Y-108695001D03*
X180873330Y-108695001D03*
D17*
X163666664Y-121000000D03*
D18*
X166206664Y-121000000D03*
X163666664Y-123540000D03*
X166206664Y-123540000D03*
X163666664Y-126080000D03*
X166206664Y-126080000D03*
X163666664Y-128620000D03*
X166206664Y-128620000D03*
X163666664Y-131160000D03*
X166206664Y-131160000D03*
X163666664Y-133700000D03*
X166206664Y-133700000D03*
X163666664Y-136240000D03*
X166206664Y-136240000D03*
X163666664Y-138780000D03*
X166206664Y-138780000D03*
X195540000Y-108695001D03*
X193000000Y-108695001D03*
X195540000Y-106155001D03*
X193000000Y-106155001D03*
X195540000Y-103615001D03*
X193000000Y-103615001D03*
X195540000Y-101075001D03*
X193000000Y-101075001D03*
X195540000Y-98535001D03*
D17*
X193000000Y-98535001D03*
D18*
X122206666Y-138780000D03*
X119666666Y-138780000D03*
X122206666Y-136240000D03*
X119666666Y-136240000D03*
X122206666Y-133700000D03*
X119666666Y-133700000D03*
X122206666Y-131160000D03*
X119666666Y-131160000D03*
X122206666Y-128620000D03*
X119666666Y-128620000D03*
X122206666Y-126080000D03*
X119666666Y-126080000D03*
X122206666Y-123540000D03*
X119666666Y-123540000D03*
X122206666Y-121000000D03*
D17*
X119666666Y-121000000D03*
X193000000Y-121000000D03*
D18*
X195540000Y-121000000D03*
X193000000Y-123540000D03*
X195540000Y-123540000D03*
X193000000Y-126080000D03*
X195540000Y-126080000D03*
X193000000Y-128620000D03*
X195540000Y-128620000D03*
X193000000Y-131160000D03*
X195540000Y-131160000D03*
D17*
X134333332Y-121000000D03*
D18*
X136873332Y-121000000D03*
X134333332Y-123540000D03*
X136873332Y-123540000D03*
X134333332Y-126080000D03*
X136873332Y-126080000D03*
X134333332Y-128620000D03*
X136873332Y-128620000D03*
X134333332Y-131160000D03*
X136873332Y-131160000D03*
X134333332Y-133700000D03*
X136873332Y-133700000D03*
X134333332Y-136240000D03*
X136873332Y-136240000D03*
X134333332Y-138780000D03*
X136873332Y-138780000D03*
X107540000Y-108695001D03*
X105000000Y-108695001D03*
X107540000Y-106155001D03*
X105000000Y-106155001D03*
X107540000Y-103615001D03*
X105000000Y-103615001D03*
X107540000Y-101075001D03*
X105000000Y-101075001D03*
X107540000Y-98535001D03*
D17*
X105000000Y-98535001D03*
D18*
X180873330Y-138780000D03*
X178333330Y-138780000D03*
X180873330Y-136240000D03*
X178333330Y-136240000D03*
X180873330Y-133700000D03*
X178333330Y-133700000D03*
X180873330Y-131160000D03*
X178333330Y-131160000D03*
X180873330Y-128620000D03*
X178333330Y-128620000D03*
X180873330Y-126080000D03*
X178333330Y-126080000D03*
X180873330Y-123540000D03*
X178333330Y-123540000D03*
X180873330Y-121000000D03*
D17*
X178333330Y-121000000D03*
D18*
X166206664Y-108695001D03*
X163666664Y-108695001D03*
X166206664Y-106155001D03*
X163666664Y-106155001D03*
X166206664Y-103615001D03*
X163666664Y-103615001D03*
X166206664Y-101075001D03*
X163666664Y-101075001D03*
X166206664Y-98535001D03*
D17*
X163666664Y-98535001D03*
X119666666Y-98535001D03*
D18*
X122206666Y-98535001D03*
X119666666Y-101075001D03*
X122206666Y-101075001D03*
X119666666Y-103615001D03*
X122206666Y-103615001D03*
X119666666Y-106155001D03*
X122206666Y-106155001D03*
X119666666Y-108695001D03*
X122206666Y-108695001D03*
X107540000Y-131160000D03*
X105000000Y-131160000D03*
X107540000Y-128620000D03*
X105000000Y-128620000D03*
X107540000Y-126080000D03*
X105000000Y-126080000D03*
X107540000Y-123540000D03*
X105000000Y-123540000D03*
X107540000Y-121000000D03*
D17*
X105000000Y-121000000D03*
X134290000Y-98535001D03*
D18*
X136830000Y-98535001D03*
X134290000Y-101075001D03*
X136830000Y-101075001D03*
X134290000Y-103615001D03*
X136830000Y-103615001D03*
X134290000Y-106155001D03*
X136830000Y-106155001D03*
X134290000Y-108695001D03*
X136830000Y-108695001D03*
D19*
X179324696Y-82089161D03*
X177274696Y-89589161D03*
D11*
G36*
X154996071Y-65601623D02*
X155028781Y-65606475D01*
X155060857Y-65614509D01*
X155091991Y-65625649D01*
X155121884Y-65639787D01*
X155150247Y-65656787D01*
X155176807Y-65676485D01*
X155201308Y-65698692D01*
X155223515Y-65723193D01*
X155243213Y-65749753D01*
X155260213Y-65778116D01*
X155274351Y-65808009D01*
X155285491Y-65839143D01*
X155293525Y-65871219D01*
X155298377Y-65903929D01*
X155300000Y-65936956D01*
X155300000Y-67063044D01*
X155298377Y-67096071D01*
X155293525Y-67128781D01*
X155285491Y-67160857D01*
X155274351Y-67191991D01*
X155260213Y-67221884D01*
X155243213Y-67250247D01*
X155223515Y-67276807D01*
X155201308Y-67301308D01*
X155176807Y-67323515D01*
X155150247Y-67343213D01*
X155121884Y-67360213D01*
X155091991Y-67374351D01*
X155060857Y-67385491D01*
X155028781Y-67393525D01*
X154996071Y-67398377D01*
X154963044Y-67400000D01*
X154086956Y-67400000D01*
X154053929Y-67398377D01*
X154021219Y-67393525D01*
X153989143Y-67385491D01*
X153958009Y-67374351D01*
X153928116Y-67360213D01*
X153899753Y-67343213D01*
X153873193Y-67323515D01*
X153848692Y-67301308D01*
X153826485Y-67276807D01*
X153806787Y-67250247D01*
X153789787Y-67221884D01*
X153775649Y-67191991D01*
X153764509Y-67160857D01*
X153756475Y-67128781D01*
X153751623Y-67096071D01*
X153750000Y-67063044D01*
X153750000Y-65936956D01*
X153751623Y-65903929D01*
X153756475Y-65871219D01*
X153764509Y-65839143D01*
X153775649Y-65808009D01*
X153789787Y-65778116D01*
X153806787Y-65749753D01*
X153826485Y-65723193D01*
X153848692Y-65698692D01*
X153873193Y-65676485D01*
X153899753Y-65656787D01*
X153928116Y-65639787D01*
X153958009Y-65625649D01*
X153989143Y-65614509D01*
X154021219Y-65606475D01*
X154053929Y-65601623D01*
X154086956Y-65600000D01*
X154963044Y-65600000D01*
X154996071Y-65601623D01*
X154996071Y-65601623D01*
G37*
D20*
X154525000Y-66500000D03*
D11*
G36*
X152946071Y-65601623D02*
X152978781Y-65606475D01*
X153010857Y-65614509D01*
X153041991Y-65625649D01*
X153071884Y-65639787D01*
X153100247Y-65656787D01*
X153126807Y-65676485D01*
X153151308Y-65698692D01*
X153173515Y-65723193D01*
X153193213Y-65749753D01*
X153210213Y-65778116D01*
X153224351Y-65808009D01*
X153235491Y-65839143D01*
X153243525Y-65871219D01*
X153248377Y-65903929D01*
X153250000Y-65936956D01*
X153250000Y-67063044D01*
X153248377Y-67096071D01*
X153243525Y-67128781D01*
X153235491Y-67160857D01*
X153224351Y-67191991D01*
X153210213Y-67221884D01*
X153193213Y-67250247D01*
X153173515Y-67276807D01*
X153151308Y-67301308D01*
X153126807Y-67323515D01*
X153100247Y-67343213D01*
X153071884Y-67360213D01*
X153041991Y-67374351D01*
X153010857Y-67385491D01*
X152978781Y-67393525D01*
X152946071Y-67398377D01*
X152913044Y-67400000D01*
X152036956Y-67400000D01*
X152003929Y-67398377D01*
X151971219Y-67393525D01*
X151939143Y-67385491D01*
X151908009Y-67374351D01*
X151878116Y-67360213D01*
X151849753Y-67343213D01*
X151823193Y-67323515D01*
X151798692Y-67301308D01*
X151776485Y-67276807D01*
X151756787Y-67250247D01*
X151739787Y-67221884D01*
X151725649Y-67191991D01*
X151714509Y-67160857D01*
X151706475Y-67128781D01*
X151701623Y-67096071D01*
X151700000Y-67063044D01*
X151700000Y-65936956D01*
X151701623Y-65903929D01*
X151706475Y-65871219D01*
X151714509Y-65839143D01*
X151725649Y-65808009D01*
X151739787Y-65778116D01*
X151756787Y-65749753D01*
X151776485Y-65723193D01*
X151798692Y-65698692D01*
X151823193Y-65676485D01*
X151849753Y-65656787D01*
X151878116Y-65639787D01*
X151908009Y-65625649D01*
X151939143Y-65614509D01*
X151971219Y-65606475D01*
X152003929Y-65601623D01*
X152036956Y-65600000D01*
X152913044Y-65600000D01*
X152946071Y-65601623D01*
X152946071Y-65601623D01*
G37*
D20*
X152475000Y-66500000D03*
D11*
G36*
X166996071Y-65601623D02*
X167028781Y-65606475D01*
X167060857Y-65614509D01*
X167091991Y-65625649D01*
X167121884Y-65639787D01*
X167150247Y-65656787D01*
X167176807Y-65676485D01*
X167201308Y-65698692D01*
X167223515Y-65723193D01*
X167243213Y-65749753D01*
X167260213Y-65778116D01*
X167274351Y-65808009D01*
X167285491Y-65839143D01*
X167293525Y-65871219D01*
X167298377Y-65903929D01*
X167300000Y-65936956D01*
X167300000Y-67063044D01*
X167298377Y-67096071D01*
X167293525Y-67128781D01*
X167285491Y-67160857D01*
X167274351Y-67191991D01*
X167260213Y-67221884D01*
X167243213Y-67250247D01*
X167223515Y-67276807D01*
X167201308Y-67301308D01*
X167176807Y-67323515D01*
X167150247Y-67343213D01*
X167121884Y-67360213D01*
X167091991Y-67374351D01*
X167060857Y-67385491D01*
X167028781Y-67393525D01*
X166996071Y-67398377D01*
X166963044Y-67400000D01*
X166086956Y-67400000D01*
X166053929Y-67398377D01*
X166021219Y-67393525D01*
X165989143Y-67385491D01*
X165958009Y-67374351D01*
X165928116Y-67360213D01*
X165899753Y-67343213D01*
X165873193Y-67323515D01*
X165848692Y-67301308D01*
X165826485Y-67276807D01*
X165806787Y-67250247D01*
X165789787Y-67221884D01*
X165775649Y-67191991D01*
X165764509Y-67160857D01*
X165756475Y-67128781D01*
X165751623Y-67096071D01*
X165750000Y-67063044D01*
X165750000Y-65936956D01*
X165751623Y-65903929D01*
X165756475Y-65871219D01*
X165764509Y-65839143D01*
X165775649Y-65808009D01*
X165789787Y-65778116D01*
X165806787Y-65749753D01*
X165826485Y-65723193D01*
X165848692Y-65698692D01*
X165873193Y-65676485D01*
X165899753Y-65656787D01*
X165928116Y-65639787D01*
X165958009Y-65625649D01*
X165989143Y-65614509D01*
X166021219Y-65606475D01*
X166053929Y-65601623D01*
X166086956Y-65600000D01*
X166963044Y-65600000D01*
X166996071Y-65601623D01*
X166996071Y-65601623D01*
G37*
D20*
X166525000Y-66500000D03*
D11*
G36*
X164946071Y-65601623D02*
X164978781Y-65606475D01*
X165010857Y-65614509D01*
X165041991Y-65625649D01*
X165071884Y-65639787D01*
X165100247Y-65656787D01*
X165126807Y-65676485D01*
X165151308Y-65698692D01*
X165173515Y-65723193D01*
X165193213Y-65749753D01*
X165210213Y-65778116D01*
X165224351Y-65808009D01*
X165235491Y-65839143D01*
X165243525Y-65871219D01*
X165248377Y-65903929D01*
X165250000Y-65936956D01*
X165250000Y-67063044D01*
X165248377Y-67096071D01*
X165243525Y-67128781D01*
X165235491Y-67160857D01*
X165224351Y-67191991D01*
X165210213Y-67221884D01*
X165193213Y-67250247D01*
X165173515Y-67276807D01*
X165151308Y-67301308D01*
X165126807Y-67323515D01*
X165100247Y-67343213D01*
X165071884Y-67360213D01*
X165041991Y-67374351D01*
X165010857Y-67385491D01*
X164978781Y-67393525D01*
X164946071Y-67398377D01*
X164913044Y-67400000D01*
X164036956Y-67400000D01*
X164003929Y-67398377D01*
X163971219Y-67393525D01*
X163939143Y-67385491D01*
X163908009Y-67374351D01*
X163878116Y-67360213D01*
X163849753Y-67343213D01*
X163823193Y-67323515D01*
X163798692Y-67301308D01*
X163776485Y-67276807D01*
X163756787Y-67250247D01*
X163739787Y-67221884D01*
X163725649Y-67191991D01*
X163714509Y-67160857D01*
X163706475Y-67128781D01*
X163701623Y-67096071D01*
X163700000Y-67063044D01*
X163700000Y-65936956D01*
X163701623Y-65903929D01*
X163706475Y-65871219D01*
X163714509Y-65839143D01*
X163725649Y-65808009D01*
X163739787Y-65778116D01*
X163756787Y-65749753D01*
X163776485Y-65723193D01*
X163798692Y-65698692D01*
X163823193Y-65676485D01*
X163849753Y-65656787D01*
X163878116Y-65639787D01*
X163908009Y-65625649D01*
X163939143Y-65614509D01*
X163971219Y-65606475D01*
X164003929Y-65601623D01*
X164036956Y-65600000D01*
X164913044Y-65600000D01*
X164946071Y-65601623D01*
X164946071Y-65601623D01*
G37*
D20*
X164475000Y-66500000D03*
D21*
X155537349Y-61000000D03*
D22*
X151737349Y-61000000D03*
X163467349Y-60890000D03*
D21*
X167267349Y-60890000D03*
D22*
X139197349Y-60890000D03*
D21*
X142997349Y-60890000D03*
D11*
G36*
X142521071Y-65601623D02*
X142553781Y-65606475D01*
X142585857Y-65614509D01*
X142616991Y-65625649D01*
X142646884Y-65639787D01*
X142675247Y-65656787D01*
X142701807Y-65676485D01*
X142726308Y-65698692D01*
X142748515Y-65723193D01*
X142768213Y-65749753D01*
X142785213Y-65778116D01*
X142799351Y-65808009D01*
X142810491Y-65839143D01*
X142818525Y-65871219D01*
X142823377Y-65903929D01*
X142825000Y-65936956D01*
X142825000Y-67063044D01*
X142823377Y-67096071D01*
X142818525Y-67128781D01*
X142810491Y-67160857D01*
X142799351Y-67191991D01*
X142785213Y-67221884D01*
X142768213Y-67250247D01*
X142748515Y-67276807D01*
X142726308Y-67301308D01*
X142701807Y-67323515D01*
X142675247Y-67343213D01*
X142646884Y-67360213D01*
X142616991Y-67374351D01*
X142585857Y-67385491D01*
X142553781Y-67393525D01*
X142521071Y-67398377D01*
X142488044Y-67400000D01*
X141611956Y-67400000D01*
X141578929Y-67398377D01*
X141546219Y-67393525D01*
X141514143Y-67385491D01*
X141483009Y-67374351D01*
X141453116Y-67360213D01*
X141424753Y-67343213D01*
X141398193Y-67323515D01*
X141373692Y-67301308D01*
X141351485Y-67276807D01*
X141331787Y-67250247D01*
X141314787Y-67221884D01*
X141300649Y-67191991D01*
X141289509Y-67160857D01*
X141281475Y-67128781D01*
X141276623Y-67096071D01*
X141275000Y-67063044D01*
X141275000Y-65936956D01*
X141276623Y-65903929D01*
X141281475Y-65871219D01*
X141289509Y-65839143D01*
X141300649Y-65808009D01*
X141314787Y-65778116D01*
X141331787Y-65749753D01*
X141351485Y-65723193D01*
X141373692Y-65698692D01*
X141398193Y-65676485D01*
X141424753Y-65656787D01*
X141453116Y-65639787D01*
X141483009Y-65625649D01*
X141514143Y-65614509D01*
X141546219Y-65606475D01*
X141578929Y-65601623D01*
X141611956Y-65600000D01*
X142488044Y-65600000D01*
X142521071Y-65601623D01*
X142521071Y-65601623D01*
G37*
D20*
X142050000Y-66500000D03*
D11*
G36*
X140471071Y-65601623D02*
X140503781Y-65606475D01*
X140535857Y-65614509D01*
X140566991Y-65625649D01*
X140596884Y-65639787D01*
X140625247Y-65656787D01*
X140651807Y-65676485D01*
X140676308Y-65698692D01*
X140698515Y-65723193D01*
X140718213Y-65749753D01*
X140735213Y-65778116D01*
X140749351Y-65808009D01*
X140760491Y-65839143D01*
X140768525Y-65871219D01*
X140773377Y-65903929D01*
X140775000Y-65936956D01*
X140775000Y-67063044D01*
X140773377Y-67096071D01*
X140768525Y-67128781D01*
X140760491Y-67160857D01*
X140749351Y-67191991D01*
X140735213Y-67221884D01*
X140718213Y-67250247D01*
X140698515Y-67276807D01*
X140676308Y-67301308D01*
X140651807Y-67323515D01*
X140625247Y-67343213D01*
X140596884Y-67360213D01*
X140566991Y-67374351D01*
X140535857Y-67385491D01*
X140503781Y-67393525D01*
X140471071Y-67398377D01*
X140438044Y-67400000D01*
X139561956Y-67400000D01*
X139528929Y-67398377D01*
X139496219Y-67393525D01*
X139464143Y-67385491D01*
X139433009Y-67374351D01*
X139403116Y-67360213D01*
X139374753Y-67343213D01*
X139348193Y-67323515D01*
X139323692Y-67301308D01*
X139301485Y-67276807D01*
X139281787Y-67250247D01*
X139264787Y-67221884D01*
X139250649Y-67191991D01*
X139239509Y-67160857D01*
X139231475Y-67128781D01*
X139226623Y-67096071D01*
X139225000Y-67063044D01*
X139225000Y-65936956D01*
X139226623Y-65903929D01*
X139231475Y-65871219D01*
X139239509Y-65839143D01*
X139250649Y-65808009D01*
X139264787Y-65778116D01*
X139281787Y-65749753D01*
X139301485Y-65723193D01*
X139323692Y-65698692D01*
X139348193Y-65676485D01*
X139374753Y-65656787D01*
X139403116Y-65639787D01*
X139433009Y-65625649D01*
X139464143Y-65614509D01*
X139496219Y-65606475D01*
X139528929Y-65601623D01*
X139561956Y-65600000D01*
X140438044Y-65600000D01*
X140471071Y-65601623D01*
X140471071Y-65601623D01*
G37*
D20*
X140000000Y-66500000D03*
D11*
G36*
X125488071Y-122387623D02*
X125520781Y-122392475D01*
X125552857Y-122400509D01*
X125583991Y-122411649D01*
X125613884Y-122425787D01*
X125642247Y-122442787D01*
X125668807Y-122462485D01*
X125693308Y-122484692D01*
X125715515Y-122509193D01*
X125735213Y-122535753D01*
X125752213Y-122564116D01*
X125766351Y-122594009D01*
X125777491Y-122625143D01*
X125785525Y-122657219D01*
X125790377Y-122689929D01*
X125792000Y-122722956D01*
X125792000Y-123599044D01*
X125790377Y-123632071D01*
X125785525Y-123664781D01*
X125777491Y-123696857D01*
X125766351Y-123727991D01*
X125752213Y-123757884D01*
X125735213Y-123786247D01*
X125715515Y-123812807D01*
X125693308Y-123837308D01*
X125668807Y-123859515D01*
X125642247Y-123879213D01*
X125613884Y-123896213D01*
X125583991Y-123910351D01*
X125552857Y-123921491D01*
X125520781Y-123929525D01*
X125488071Y-123934377D01*
X125455044Y-123936000D01*
X124328956Y-123936000D01*
X124295929Y-123934377D01*
X124263219Y-123929525D01*
X124231143Y-123921491D01*
X124200009Y-123910351D01*
X124170116Y-123896213D01*
X124141753Y-123879213D01*
X124115193Y-123859515D01*
X124090692Y-123837308D01*
X124068485Y-123812807D01*
X124048787Y-123786247D01*
X124031787Y-123757884D01*
X124017649Y-123727991D01*
X124006509Y-123696857D01*
X123998475Y-123664781D01*
X123993623Y-123632071D01*
X123992000Y-123599044D01*
X123992000Y-122722956D01*
X123993623Y-122689929D01*
X123998475Y-122657219D01*
X124006509Y-122625143D01*
X124017649Y-122594009D01*
X124031787Y-122564116D01*
X124048787Y-122535753D01*
X124068485Y-122509193D01*
X124090692Y-122484692D01*
X124115193Y-122462485D01*
X124141753Y-122442787D01*
X124170116Y-122425787D01*
X124200009Y-122411649D01*
X124231143Y-122400509D01*
X124263219Y-122392475D01*
X124295929Y-122387623D01*
X124328956Y-122386000D01*
X125455044Y-122386000D01*
X125488071Y-122387623D01*
X125488071Y-122387623D01*
G37*
D20*
X124892000Y-123161000D03*
D11*
G36*
X125488071Y-120337623D02*
X125520781Y-120342475D01*
X125552857Y-120350509D01*
X125583991Y-120361649D01*
X125613884Y-120375787D01*
X125642247Y-120392787D01*
X125668807Y-120412485D01*
X125693308Y-120434692D01*
X125715515Y-120459193D01*
X125735213Y-120485753D01*
X125752213Y-120514116D01*
X125766351Y-120544009D01*
X125777491Y-120575143D01*
X125785525Y-120607219D01*
X125790377Y-120639929D01*
X125792000Y-120672956D01*
X125792000Y-121549044D01*
X125790377Y-121582071D01*
X125785525Y-121614781D01*
X125777491Y-121646857D01*
X125766351Y-121677991D01*
X125752213Y-121707884D01*
X125735213Y-121736247D01*
X125715515Y-121762807D01*
X125693308Y-121787308D01*
X125668807Y-121809515D01*
X125642247Y-121829213D01*
X125613884Y-121846213D01*
X125583991Y-121860351D01*
X125552857Y-121871491D01*
X125520781Y-121879525D01*
X125488071Y-121884377D01*
X125455044Y-121886000D01*
X124328956Y-121886000D01*
X124295929Y-121884377D01*
X124263219Y-121879525D01*
X124231143Y-121871491D01*
X124200009Y-121860351D01*
X124170116Y-121846213D01*
X124141753Y-121829213D01*
X124115193Y-121809515D01*
X124090692Y-121787308D01*
X124068485Y-121762807D01*
X124048787Y-121736247D01*
X124031787Y-121707884D01*
X124017649Y-121677991D01*
X124006509Y-121646857D01*
X123998475Y-121614781D01*
X123993623Y-121582071D01*
X123992000Y-121549044D01*
X123992000Y-120672956D01*
X123993623Y-120639929D01*
X123998475Y-120607219D01*
X124006509Y-120575143D01*
X124017649Y-120544009D01*
X124031787Y-120514116D01*
X124048787Y-120485753D01*
X124068485Y-120459193D01*
X124090692Y-120434692D01*
X124115193Y-120412485D01*
X124141753Y-120392787D01*
X124170116Y-120375787D01*
X124200009Y-120361649D01*
X124231143Y-120350509D01*
X124263219Y-120342475D01*
X124295929Y-120337623D01*
X124328956Y-120336000D01*
X125455044Y-120336000D01*
X125488071Y-120337623D01*
X125488071Y-120337623D01*
G37*
D20*
X124892000Y-121111000D03*
D11*
G36*
X176542071Y-122641623D02*
X176574781Y-122646475D01*
X176606857Y-122654509D01*
X176637991Y-122665649D01*
X176667884Y-122679787D01*
X176696247Y-122696787D01*
X176722807Y-122716485D01*
X176747308Y-122738692D01*
X176769515Y-122763193D01*
X176789213Y-122789753D01*
X176806213Y-122818116D01*
X176820351Y-122848009D01*
X176831491Y-122879143D01*
X176839525Y-122911219D01*
X176844377Y-122943929D01*
X176846000Y-122976956D01*
X176846000Y-123853044D01*
X176844377Y-123886071D01*
X176839525Y-123918781D01*
X176831491Y-123950857D01*
X176820351Y-123981991D01*
X176806213Y-124011884D01*
X176789213Y-124040247D01*
X176769515Y-124066807D01*
X176747308Y-124091308D01*
X176722807Y-124113515D01*
X176696247Y-124133213D01*
X176667884Y-124150213D01*
X176637991Y-124164351D01*
X176606857Y-124175491D01*
X176574781Y-124183525D01*
X176542071Y-124188377D01*
X176509044Y-124190000D01*
X175382956Y-124190000D01*
X175349929Y-124188377D01*
X175317219Y-124183525D01*
X175285143Y-124175491D01*
X175254009Y-124164351D01*
X175224116Y-124150213D01*
X175195753Y-124133213D01*
X175169193Y-124113515D01*
X175144692Y-124091308D01*
X175122485Y-124066807D01*
X175102787Y-124040247D01*
X175085787Y-124011884D01*
X175071649Y-123981991D01*
X175060509Y-123950857D01*
X175052475Y-123918781D01*
X175047623Y-123886071D01*
X175046000Y-123853044D01*
X175046000Y-122976956D01*
X175047623Y-122943929D01*
X175052475Y-122911219D01*
X175060509Y-122879143D01*
X175071649Y-122848009D01*
X175085787Y-122818116D01*
X175102787Y-122789753D01*
X175122485Y-122763193D01*
X175144692Y-122738692D01*
X175169193Y-122716485D01*
X175195753Y-122696787D01*
X175224116Y-122679787D01*
X175254009Y-122665649D01*
X175285143Y-122654509D01*
X175317219Y-122646475D01*
X175349929Y-122641623D01*
X175382956Y-122640000D01*
X176509044Y-122640000D01*
X176542071Y-122641623D01*
X176542071Y-122641623D01*
G37*
D20*
X175946000Y-123415000D03*
D11*
G36*
X176542071Y-120591623D02*
X176574781Y-120596475D01*
X176606857Y-120604509D01*
X176637991Y-120615649D01*
X176667884Y-120629787D01*
X176696247Y-120646787D01*
X176722807Y-120666485D01*
X176747308Y-120688692D01*
X176769515Y-120713193D01*
X176789213Y-120739753D01*
X176806213Y-120768116D01*
X176820351Y-120798009D01*
X176831491Y-120829143D01*
X176839525Y-120861219D01*
X176844377Y-120893929D01*
X176846000Y-120926956D01*
X176846000Y-121803044D01*
X176844377Y-121836071D01*
X176839525Y-121868781D01*
X176831491Y-121900857D01*
X176820351Y-121931991D01*
X176806213Y-121961884D01*
X176789213Y-121990247D01*
X176769515Y-122016807D01*
X176747308Y-122041308D01*
X176722807Y-122063515D01*
X176696247Y-122083213D01*
X176667884Y-122100213D01*
X176637991Y-122114351D01*
X176606857Y-122125491D01*
X176574781Y-122133525D01*
X176542071Y-122138377D01*
X176509044Y-122140000D01*
X175382956Y-122140000D01*
X175349929Y-122138377D01*
X175317219Y-122133525D01*
X175285143Y-122125491D01*
X175254009Y-122114351D01*
X175224116Y-122100213D01*
X175195753Y-122083213D01*
X175169193Y-122063515D01*
X175144692Y-122041308D01*
X175122485Y-122016807D01*
X175102787Y-121990247D01*
X175085787Y-121961884D01*
X175071649Y-121931991D01*
X175060509Y-121900857D01*
X175052475Y-121868781D01*
X175047623Y-121836071D01*
X175046000Y-121803044D01*
X175046000Y-120926956D01*
X175047623Y-120893929D01*
X175052475Y-120861219D01*
X175060509Y-120829143D01*
X175071649Y-120798009D01*
X175085787Y-120768116D01*
X175102787Y-120739753D01*
X175122485Y-120713193D01*
X175144692Y-120688692D01*
X175169193Y-120666485D01*
X175195753Y-120646787D01*
X175224116Y-120629787D01*
X175254009Y-120615649D01*
X175285143Y-120604509D01*
X175317219Y-120596475D01*
X175349929Y-120591623D01*
X175382956Y-120590000D01*
X176509044Y-120590000D01*
X176542071Y-120591623D01*
X176542071Y-120591623D01*
G37*
D20*
X175946000Y-121365000D03*
D11*
G36*
X176542071Y-99781623D02*
X176574781Y-99786475D01*
X176606857Y-99794509D01*
X176637991Y-99805649D01*
X176667884Y-99819787D01*
X176696247Y-99836787D01*
X176722807Y-99856485D01*
X176747308Y-99878692D01*
X176769515Y-99903193D01*
X176789213Y-99929753D01*
X176806213Y-99958116D01*
X176820351Y-99988009D01*
X176831491Y-100019143D01*
X176839525Y-100051219D01*
X176844377Y-100083929D01*
X176846000Y-100116956D01*
X176846000Y-100993044D01*
X176844377Y-101026071D01*
X176839525Y-101058781D01*
X176831491Y-101090857D01*
X176820351Y-101121991D01*
X176806213Y-101151884D01*
X176789213Y-101180247D01*
X176769515Y-101206807D01*
X176747308Y-101231308D01*
X176722807Y-101253515D01*
X176696247Y-101273213D01*
X176667884Y-101290213D01*
X176637991Y-101304351D01*
X176606857Y-101315491D01*
X176574781Y-101323525D01*
X176542071Y-101328377D01*
X176509044Y-101330000D01*
X175382956Y-101330000D01*
X175349929Y-101328377D01*
X175317219Y-101323525D01*
X175285143Y-101315491D01*
X175254009Y-101304351D01*
X175224116Y-101290213D01*
X175195753Y-101273213D01*
X175169193Y-101253515D01*
X175144692Y-101231308D01*
X175122485Y-101206807D01*
X175102787Y-101180247D01*
X175085787Y-101151884D01*
X175071649Y-101121991D01*
X175060509Y-101090857D01*
X175052475Y-101058781D01*
X175047623Y-101026071D01*
X175046000Y-100993044D01*
X175046000Y-100116956D01*
X175047623Y-100083929D01*
X175052475Y-100051219D01*
X175060509Y-100019143D01*
X175071649Y-99988009D01*
X175085787Y-99958116D01*
X175102787Y-99929753D01*
X175122485Y-99903193D01*
X175144692Y-99878692D01*
X175169193Y-99856485D01*
X175195753Y-99836787D01*
X175224116Y-99819787D01*
X175254009Y-99805649D01*
X175285143Y-99794509D01*
X175317219Y-99786475D01*
X175349929Y-99781623D01*
X175382956Y-99780000D01*
X176509044Y-99780000D01*
X176542071Y-99781623D01*
X176542071Y-99781623D01*
G37*
D20*
X175946000Y-100555000D03*
D11*
G36*
X176542071Y-97731623D02*
X176574781Y-97736475D01*
X176606857Y-97744509D01*
X176637991Y-97755649D01*
X176667884Y-97769787D01*
X176696247Y-97786787D01*
X176722807Y-97806485D01*
X176747308Y-97828692D01*
X176769515Y-97853193D01*
X176789213Y-97879753D01*
X176806213Y-97908116D01*
X176820351Y-97938009D01*
X176831491Y-97969143D01*
X176839525Y-98001219D01*
X176844377Y-98033929D01*
X176846000Y-98066956D01*
X176846000Y-98943044D01*
X176844377Y-98976071D01*
X176839525Y-99008781D01*
X176831491Y-99040857D01*
X176820351Y-99071991D01*
X176806213Y-99101884D01*
X176789213Y-99130247D01*
X176769515Y-99156807D01*
X176747308Y-99181308D01*
X176722807Y-99203515D01*
X176696247Y-99223213D01*
X176667884Y-99240213D01*
X176637991Y-99254351D01*
X176606857Y-99265491D01*
X176574781Y-99273525D01*
X176542071Y-99278377D01*
X176509044Y-99280000D01*
X175382956Y-99280000D01*
X175349929Y-99278377D01*
X175317219Y-99273525D01*
X175285143Y-99265491D01*
X175254009Y-99254351D01*
X175224116Y-99240213D01*
X175195753Y-99223213D01*
X175169193Y-99203515D01*
X175144692Y-99181308D01*
X175122485Y-99156807D01*
X175102787Y-99130247D01*
X175085787Y-99101884D01*
X175071649Y-99071991D01*
X175060509Y-99040857D01*
X175052475Y-99008781D01*
X175047623Y-98976071D01*
X175046000Y-98943044D01*
X175046000Y-98066956D01*
X175047623Y-98033929D01*
X175052475Y-98001219D01*
X175060509Y-97969143D01*
X175071649Y-97938009D01*
X175085787Y-97908116D01*
X175102787Y-97879753D01*
X175122485Y-97853193D01*
X175144692Y-97828692D01*
X175169193Y-97806485D01*
X175195753Y-97786787D01*
X175224116Y-97769787D01*
X175254009Y-97755649D01*
X175285143Y-97744509D01*
X175317219Y-97736475D01*
X175349929Y-97731623D01*
X175382956Y-97730000D01*
X176509044Y-97730000D01*
X176542071Y-97731623D01*
X176542071Y-97731623D01*
G37*
D20*
X175946000Y-98505000D03*
D11*
G36*
X161810071Y-99781623D02*
X161842781Y-99786475D01*
X161874857Y-99794509D01*
X161905991Y-99805649D01*
X161935884Y-99819787D01*
X161964247Y-99836787D01*
X161990807Y-99856485D01*
X162015308Y-99878692D01*
X162037515Y-99903193D01*
X162057213Y-99929753D01*
X162074213Y-99958116D01*
X162088351Y-99988009D01*
X162099491Y-100019143D01*
X162107525Y-100051219D01*
X162112377Y-100083929D01*
X162114000Y-100116956D01*
X162114000Y-100993044D01*
X162112377Y-101026071D01*
X162107525Y-101058781D01*
X162099491Y-101090857D01*
X162088351Y-101121991D01*
X162074213Y-101151884D01*
X162057213Y-101180247D01*
X162037515Y-101206807D01*
X162015308Y-101231308D01*
X161990807Y-101253515D01*
X161964247Y-101273213D01*
X161935884Y-101290213D01*
X161905991Y-101304351D01*
X161874857Y-101315491D01*
X161842781Y-101323525D01*
X161810071Y-101328377D01*
X161777044Y-101330000D01*
X160650956Y-101330000D01*
X160617929Y-101328377D01*
X160585219Y-101323525D01*
X160553143Y-101315491D01*
X160522009Y-101304351D01*
X160492116Y-101290213D01*
X160463753Y-101273213D01*
X160437193Y-101253515D01*
X160412692Y-101231308D01*
X160390485Y-101206807D01*
X160370787Y-101180247D01*
X160353787Y-101151884D01*
X160339649Y-101121991D01*
X160328509Y-101090857D01*
X160320475Y-101058781D01*
X160315623Y-101026071D01*
X160314000Y-100993044D01*
X160314000Y-100116956D01*
X160315623Y-100083929D01*
X160320475Y-100051219D01*
X160328509Y-100019143D01*
X160339649Y-99988009D01*
X160353787Y-99958116D01*
X160370787Y-99929753D01*
X160390485Y-99903193D01*
X160412692Y-99878692D01*
X160437193Y-99856485D01*
X160463753Y-99836787D01*
X160492116Y-99819787D01*
X160522009Y-99805649D01*
X160553143Y-99794509D01*
X160585219Y-99786475D01*
X160617929Y-99781623D01*
X160650956Y-99780000D01*
X161777044Y-99780000D01*
X161810071Y-99781623D01*
X161810071Y-99781623D01*
G37*
D20*
X161214000Y-100555000D03*
D11*
G36*
X161810071Y-97731623D02*
X161842781Y-97736475D01*
X161874857Y-97744509D01*
X161905991Y-97755649D01*
X161935884Y-97769787D01*
X161964247Y-97786787D01*
X161990807Y-97806485D01*
X162015308Y-97828692D01*
X162037515Y-97853193D01*
X162057213Y-97879753D01*
X162074213Y-97908116D01*
X162088351Y-97938009D01*
X162099491Y-97969143D01*
X162107525Y-98001219D01*
X162112377Y-98033929D01*
X162114000Y-98066956D01*
X162114000Y-98943044D01*
X162112377Y-98976071D01*
X162107525Y-99008781D01*
X162099491Y-99040857D01*
X162088351Y-99071991D01*
X162074213Y-99101884D01*
X162057213Y-99130247D01*
X162037515Y-99156807D01*
X162015308Y-99181308D01*
X161990807Y-99203515D01*
X161964247Y-99223213D01*
X161935884Y-99240213D01*
X161905991Y-99254351D01*
X161874857Y-99265491D01*
X161842781Y-99273525D01*
X161810071Y-99278377D01*
X161777044Y-99280000D01*
X160650956Y-99280000D01*
X160617929Y-99278377D01*
X160585219Y-99273525D01*
X160553143Y-99265491D01*
X160522009Y-99254351D01*
X160492116Y-99240213D01*
X160463753Y-99223213D01*
X160437193Y-99203515D01*
X160412692Y-99181308D01*
X160390485Y-99156807D01*
X160370787Y-99130247D01*
X160353787Y-99101884D01*
X160339649Y-99071991D01*
X160328509Y-99040857D01*
X160320475Y-99008781D01*
X160315623Y-98976071D01*
X160314000Y-98943044D01*
X160314000Y-98066956D01*
X160315623Y-98033929D01*
X160320475Y-98001219D01*
X160328509Y-97969143D01*
X160339649Y-97938009D01*
X160353787Y-97908116D01*
X160370787Y-97879753D01*
X160390485Y-97853193D01*
X160412692Y-97828692D01*
X160437193Y-97806485D01*
X160463753Y-97786787D01*
X160492116Y-97769787D01*
X160522009Y-97755649D01*
X160553143Y-97744509D01*
X160585219Y-97736475D01*
X160617929Y-97731623D01*
X160650956Y-97730000D01*
X161777044Y-97730000D01*
X161810071Y-97731623D01*
X161810071Y-97731623D01*
G37*
D20*
X161214000Y-98505000D03*
D11*
G36*
X191020071Y-99781623D02*
X191052781Y-99786475D01*
X191084857Y-99794509D01*
X191115991Y-99805649D01*
X191145884Y-99819787D01*
X191174247Y-99836787D01*
X191200807Y-99856485D01*
X191225308Y-99878692D01*
X191247515Y-99903193D01*
X191267213Y-99929753D01*
X191284213Y-99958116D01*
X191298351Y-99988009D01*
X191309491Y-100019143D01*
X191317525Y-100051219D01*
X191322377Y-100083929D01*
X191324000Y-100116956D01*
X191324000Y-100993044D01*
X191322377Y-101026071D01*
X191317525Y-101058781D01*
X191309491Y-101090857D01*
X191298351Y-101121991D01*
X191284213Y-101151884D01*
X191267213Y-101180247D01*
X191247515Y-101206807D01*
X191225308Y-101231308D01*
X191200807Y-101253515D01*
X191174247Y-101273213D01*
X191145884Y-101290213D01*
X191115991Y-101304351D01*
X191084857Y-101315491D01*
X191052781Y-101323525D01*
X191020071Y-101328377D01*
X190987044Y-101330000D01*
X189860956Y-101330000D01*
X189827929Y-101328377D01*
X189795219Y-101323525D01*
X189763143Y-101315491D01*
X189732009Y-101304351D01*
X189702116Y-101290213D01*
X189673753Y-101273213D01*
X189647193Y-101253515D01*
X189622692Y-101231308D01*
X189600485Y-101206807D01*
X189580787Y-101180247D01*
X189563787Y-101151884D01*
X189549649Y-101121991D01*
X189538509Y-101090857D01*
X189530475Y-101058781D01*
X189525623Y-101026071D01*
X189524000Y-100993044D01*
X189524000Y-100116956D01*
X189525623Y-100083929D01*
X189530475Y-100051219D01*
X189538509Y-100019143D01*
X189549649Y-99988009D01*
X189563787Y-99958116D01*
X189580787Y-99929753D01*
X189600485Y-99903193D01*
X189622692Y-99878692D01*
X189647193Y-99856485D01*
X189673753Y-99836787D01*
X189702116Y-99819787D01*
X189732009Y-99805649D01*
X189763143Y-99794509D01*
X189795219Y-99786475D01*
X189827929Y-99781623D01*
X189860956Y-99780000D01*
X190987044Y-99780000D01*
X191020071Y-99781623D01*
X191020071Y-99781623D01*
G37*
D20*
X190424000Y-100555000D03*
D11*
G36*
X191020071Y-97731623D02*
X191052781Y-97736475D01*
X191084857Y-97744509D01*
X191115991Y-97755649D01*
X191145884Y-97769787D01*
X191174247Y-97786787D01*
X191200807Y-97806485D01*
X191225308Y-97828692D01*
X191247515Y-97853193D01*
X191267213Y-97879753D01*
X191284213Y-97908116D01*
X191298351Y-97938009D01*
X191309491Y-97969143D01*
X191317525Y-98001219D01*
X191322377Y-98033929D01*
X191324000Y-98066956D01*
X191324000Y-98943044D01*
X191322377Y-98976071D01*
X191317525Y-99008781D01*
X191309491Y-99040857D01*
X191298351Y-99071991D01*
X191284213Y-99101884D01*
X191267213Y-99130247D01*
X191247515Y-99156807D01*
X191225308Y-99181308D01*
X191200807Y-99203515D01*
X191174247Y-99223213D01*
X191145884Y-99240213D01*
X191115991Y-99254351D01*
X191084857Y-99265491D01*
X191052781Y-99273525D01*
X191020071Y-99278377D01*
X190987044Y-99280000D01*
X189860956Y-99280000D01*
X189827929Y-99278377D01*
X189795219Y-99273525D01*
X189763143Y-99265491D01*
X189732009Y-99254351D01*
X189702116Y-99240213D01*
X189673753Y-99223213D01*
X189647193Y-99203515D01*
X189622692Y-99181308D01*
X189600485Y-99156807D01*
X189580787Y-99130247D01*
X189563787Y-99101884D01*
X189549649Y-99071991D01*
X189538509Y-99040857D01*
X189530475Y-99008781D01*
X189525623Y-98976071D01*
X189524000Y-98943044D01*
X189524000Y-98066956D01*
X189525623Y-98033929D01*
X189530475Y-98001219D01*
X189538509Y-97969143D01*
X189549649Y-97938009D01*
X189563787Y-97908116D01*
X189580787Y-97879753D01*
X189600485Y-97853193D01*
X189622692Y-97828692D01*
X189647193Y-97806485D01*
X189673753Y-97786787D01*
X189702116Y-97769787D01*
X189732009Y-97755649D01*
X189763143Y-97744509D01*
X189795219Y-97736475D01*
X189827929Y-97731623D01*
X189860956Y-97730000D01*
X190987044Y-97730000D01*
X191020071Y-97731623D01*
X191020071Y-97731623D01*
G37*
D20*
X190424000Y-98505000D03*
D11*
G36*
X140220071Y-122641623D02*
X140252781Y-122646475D01*
X140284857Y-122654509D01*
X140315991Y-122665649D01*
X140345884Y-122679787D01*
X140374247Y-122696787D01*
X140400807Y-122716485D01*
X140425308Y-122738692D01*
X140447515Y-122763193D01*
X140467213Y-122789753D01*
X140484213Y-122818116D01*
X140498351Y-122848009D01*
X140509491Y-122879143D01*
X140517525Y-122911219D01*
X140522377Y-122943929D01*
X140524000Y-122976956D01*
X140524000Y-123853044D01*
X140522377Y-123886071D01*
X140517525Y-123918781D01*
X140509491Y-123950857D01*
X140498351Y-123981991D01*
X140484213Y-124011884D01*
X140467213Y-124040247D01*
X140447515Y-124066807D01*
X140425308Y-124091308D01*
X140400807Y-124113515D01*
X140374247Y-124133213D01*
X140345884Y-124150213D01*
X140315991Y-124164351D01*
X140284857Y-124175491D01*
X140252781Y-124183525D01*
X140220071Y-124188377D01*
X140187044Y-124190000D01*
X139060956Y-124190000D01*
X139027929Y-124188377D01*
X138995219Y-124183525D01*
X138963143Y-124175491D01*
X138932009Y-124164351D01*
X138902116Y-124150213D01*
X138873753Y-124133213D01*
X138847193Y-124113515D01*
X138822692Y-124091308D01*
X138800485Y-124066807D01*
X138780787Y-124040247D01*
X138763787Y-124011884D01*
X138749649Y-123981991D01*
X138738509Y-123950857D01*
X138730475Y-123918781D01*
X138725623Y-123886071D01*
X138724000Y-123853044D01*
X138724000Y-122976956D01*
X138725623Y-122943929D01*
X138730475Y-122911219D01*
X138738509Y-122879143D01*
X138749649Y-122848009D01*
X138763787Y-122818116D01*
X138780787Y-122789753D01*
X138800485Y-122763193D01*
X138822692Y-122738692D01*
X138847193Y-122716485D01*
X138873753Y-122696787D01*
X138902116Y-122679787D01*
X138932009Y-122665649D01*
X138963143Y-122654509D01*
X138995219Y-122646475D01*
X139027929Y-122641623D01*
X139060956Y-122640000D01*
X140187044Y-122640000D01*
X140220071Y-122641623D01*
X140220071Y-122641623D01*
G37*
D20*
X139624000Y-123415000D03*
D11*
G36*
X140220071Y-120591623D02*
X140252781Y-120596475D01*
X140284857Y-120604509D01*
X140315991Y-120615649D01*
X140345884Y-120629787D01*
X140374247Y-120646787D01*
X140400807Y-120666485D01*
X140425308Y-120688692D01*
X140447515Y-120713193D01*
X140467213Y-120739753D01*
X140484213Y-120768116D01*
X140498351Y-120798009D01*
X140509491Y-120829143D01*
X140517525Y-120861219D01*
X140522377Y-120893929D01*
X140524000Y-120926956D01*
X140524000Y-121803044D01*
X140522377Y-121836071D01*
X140517525Y-121868781D01*
X140509491Y-121900857D01*
X140498351Y-121931991D01*
X140484213Y-121961884D01*
X140467213Y-121990247D01*
X140447515Y-122016807D01*
X140425308Y-122041308D01*
X140400807Y-122063515D01*
X140374247Y-122083213D01*
X140345884Y-122100213D01*
X140315991Y-122114351D01*
X140284857Y-122125491D01*
X140252781Y-122133525D01*
X140220071Y-122138377D01*
X140187044Y-122140000D01*
X139060956Y-122140000D01*
X139027929Y-122138377D01*
X138995219Y-122133525D01*
X138963143Y-122125491D01*
X138932009Y-122114351D01*
X138902116Y-122100213D01*
X138873753Y-122083213D01*
X138847193Y-122063515D01*
X138822692Y-122041308D01*
X138800485Y-122016807D01*
X138780787Y-121990247D01*
X138763787Y-121961884D01*
X138749649Y-121931991D01*
X138738509Y-121900857D01*
X138730475Y-121868781D01*
X138725623Y-121836071D01*
X138724000Y-121803044D01*
X138724000Y-120926956D01*
X138725623Y-120893929D01*
X138730475Y-120861219D01*
X138738509Y-120829143D01*
X138749649Y-120798009D01*
X138763787Y-120768116D01*
X138780787Y-120739753D01*
X138800485Y-120713193D01*
X138822692Y-120688692D01*
X138847193Y-120666485D01*
X138873753Y-120646787D01*
X138902116Y-120629787D01*
X138932009Y-120615649D01*
X138963143Y-120604509D01*
X138995219Y-120596475D01*
X139027929Y-120591623D01*
X139060956Y-120590000D01*
X140187044Y-120590000D01*
X140220071Y-120591623D01*
X140220071Y-120591623D01*
G37*
D20*
X139624000Y-121365000D03*
D11*
G36*
X139966071Y-99790623D02*
X139998781Y-99795475D01*
X140030857Y-99803509D01*
X140061991Y-99814649D01*
X140091884Y-99828787D01*
X140120247Y-99845787D01*
X140146807Y-99865485D01*
X140171308Y-99887692D01*
X140193515Y-99912193D01*
X140213213Y-99938753D01*
X140230213Y-99967116D01*
X140244351Y-99997009D01*
X140255491Y-100028143D01*
X140263525Y-100060219D01*
X140268377Y-100092929D01*
X140270000Y-100125956D01*
X140270000Y-101002044D01*
X140268377Y-101035071D01*
X140263525Y-101067781D01*
X140255491Y-101099857D01*
X140244351Y-101130991D01*
X140230213Y-101160884D01*
X140213213Y-101189247D01*
X140193515Y-101215807D01*
X140171308Y-101240308D01*
X140146807Y-101262515D01*
X140120247Y-101282213D01*
X140091884Y-101299213D01*
X140061991Y-101313351D01*
X140030857Y-101324491D01*
X139998781Y-101332525D01*
X139966071Y-101337377D01*
X139933044Y-101339000D01*
X138806956Y-101339000D01*
X138773929Y-101337377D01*
X138741219Y-101332525D01*
X138709143Y-101324491D01*
X138678009Y-101313351D01*
X138648116Y-101299213D01*
X138619753Y-101282213D01*
X138593193Y-101262515D01*
X138568692Y-101240308D01*
X138546485Y-101215807D01*
X138526787Y-101189247D01*
X138509787Y-101160884D01*
X138495649Y-101130991D01*
X138484509Y-101099857D01*
X138476475Y-101067781D01*
X138471623Y-101035071D01*
X138470000Y-101002044D01*
X138470000Y-100125956D01*
X138471623Y-100092929D01*
X138476475Y-100060219D01*
X138484509Y-100028143D01*
X138495649Y-99997009D01*
X138509787Y-99967116D01*
X138526787Y-99938753D01*
X138546485Y-99912193D01*
X138568692Y-99887692D01*
X138593193Y-99865485D01*
X138619753Y-99845787D01*
X138648116Y-99828787D01*
X138678009Y-99814649D01*
X138709143Y-99803509D01*
X138741219Y-99795475D01*
X138773929Y-99790623D01*
X138806956Y-99789000D01*
X139933044Y-99789000D01*
X139966071Y-99790623D01*
X139966071Y-99790623D01*
G37*
D20*
X139370000Y-100564000D03*
D11*
G36*
X139966071Y-97740623D02*
X139998781Y-97745475D01*
X140030857Y-97753509D01*
X140061991Y-97764649D01*
X140091884Y-97778787D01*
X140120247Y-97795787D01*
X140146807Y-97815485D01*
X140171308Y-97837692D01*
X140193515Y-97862193D01*
X140213213Y-97888753D01*
X140230213Y-97917116D01*
X140244351Y-97947009D01*
X140255491Y-97978143D01*
X140263525Y-98010219D01*
X140268377Y-98042929D01*
X140270000Y-98075956D01*
X140270000Y-98952044D01*
X140268377Y-98985071D01*
X140263525Y-99017781D01*
X140255491Y-99049857D01*
X140244351Y-99080991D01*
X140230213Y-99110884D01*
X140213213Y-99139247D01*
X140193515Y-99165807D01*
X140171308Y-99190308D01*
X140146807Y-99212515D01*
X140120247Y-99232213D01*
X140091884Y-99249213D01*
X140061991Y-99263351D01*
X140030857Y-99274491D01*
X139998781Y-99282525D01*
X139966071Y-99287377D01*
X139933044Y-99289000D01*
X138806956Y-99289000D01*
X138773929Y-99287377D01*
X138741219Y-99282525D01*
X138709143Y-99274491D01*
X138678009Y-99263351D01*
X138648116Y-99249213D01*
X138619753Y-99232213D01*
X138593193Y-99212515D01*
X138568692Y-99190308D01*
X138546485Y-99165807D01*
X138526787Y-99139247D01*
X138509787Y-99110884D01*
X138495649Y-99080991D01*
X138484509Y-99049857D01*
X138476475Y-99017781D01*
X138471623Y-98985071D01*
X138470000Y-98952044D01*
X138470000Y-98075956D01*
X138471623Y-98042929D01*
X138476475Y-98010219D01*
X138484509Y-97978143D01*
X138495649Y-97947009D01*
X138509787Y-97917116D01*
X138526787Y-97888753D01*
X138546485Y-97862193D01*
X138568692Y-97837692D01*
X138593193Y-97815485D01*
X138619753Y-97795787D01*
X138648116Y-97778787D01*
X138678009Y-97764649D01*
X138709143Y-97753509D01*
X138741219Y-97745475D01*
X138773929Y-97740623D01*
X138806956Y-97739000D01*
X139933044Y-97739000D01*
X139966071Y-97740623D01*
X139966071Y-97740623D01*
G37*
D20*
X139370000Y-98514000D03*
D11*
G36*
X161810071Y-122396623D02*
X161842781Y-122401475D01*
X161874857Y-122409509D01*
X161905991Y-122420649D01*
X161935884Y-122434787D01*
X161964247Y-122451787D01*
X161990807Y-122471485D01*
X162015308Y-122493692D01*
X162037515Y-122518193D01*
X162057213Y-122544753D01*
X162074213Y-122573116D01*
X162088351Y-122603009D01*
X162099491Y-122634143D01*
X162107525Y-122666219D01*
X162112377Y-122698929D01*
X162114000Y-122731956D01*
X162114000Y-123608044D01*
X162112377Y-123641071D01*
X162107525Y-123673781D01*
X162099491Y-123705857D01*
X162088351Y-123736991D01*
X162074213Y-123766884D01*
X162057213Y-123795247D01*
X162037515Y-123821807D01*
X162015308Y-123846308D01*
X161990807Y-123868515D01*
X161964247Y-123888213D01*
X161935884Y-123905213D01*
X161905991Y-123919351D01*
X161874857Y-123930491D01*
X161842781Y-123938525D01*
X161810071Y-123943377D01*
X161777044Y-123945000D01*
X160650956Y-123945000D01*
X160617929Y-123943377D01*
X160585219Y-123938525D01*
X160553143Y-123930491D01*
X160522009Y-123919351D01*
X160492116Y-123905213D01*
X160463753Y-123888213D01*
X160437193Y-123868515D01*
X160412692Y-123846308D01*
X160390485Y-123821807D01*
X160370787Y-123795247D01*
X160353787Y-123766884D01*
X160339649Y-123736991D01*
X160328509Y-123705857D01*
X160320475Y-123673781D01*
X160315623Y-123641071D01*
X160314000Y-123608044D01*
X160314000Y-122731956D01*
X160315623Y-122698929D01*
X160320475Y-122666219D01*
X160328509Y-122634143D01*
X160339649Y-122603009D01*
X160353787Y-122573116D01*
X160370787Y-122544753D01*
X160390485Y-122518193D01*
X160412692Y-122493692D01*
X160437193Y-122471485D01*
X160463753Y-122451787D01*
X160492116Y-122434787D01*
X160522009Y-122420649D01*
X160553143Y-122409509D01*
X160585219Y-122401475D01*
X160617929Y-122396623D01*
X160650956Y-122395000D01*
X161777044Y-122395000D01*
X161810071Y-122396623D01*
X161810071Y-122396623D01*
G37*
D20*
X161214000Y-123170000D03*
D11*
G36*
X161810071Y-120346623D02*
X161842781Y-120351475D01*
X161874857Y-120359509D01*
X161905991Y-120370649D01*
X161935884Y-120384787D01*
X161964247Y-120401787D01*
X161990807Y-120421485D01*
X162015308Y-120443692D01*
X162037515Y-120468193D01*
X162057213Y-120494753D01*
X162074213Y-120523116D01*
X162088351Y-120553009D01*
X162099491Y-120584143D01*
X162107525Y-120616219D01*
X162112377Y-120648929D01*
X162114000Y-120681956D01*
X162114000Y-121558044D01*
X162112377Y-121591071D01*
X162107525Y-121623781D01*
X162099491Y-121655857D01*
X162088351Y-121686991D01*
X162074213Y-121716884D01*
X162057213Y-121745247D01*
X162037515Y-121771807D01*
X162015308Y-121796308D01*
X161990807Y-121818515D01*
X161964247Y-121838213D01*
X161935884Y-121855213D01*
X161905991Y-121869351D01*
X161874857Y-121880491D01*
X161842781Y-121888525D01*
X161810071Y-121893377D01*
X161777044Y-121895000D01*
X160650956Y-121895000D01*
X160617929Y-121893377D01*
X160585219Y-121888525D01*
X160553143Y-121880491D01*
X160522009Y-121869351D01*
X160492116Y-121855213D01*
X160463753Y-121838213D01*
X160437193Y-121818515D01*
X160412692Y-121796308D01*
X160390485Y-121771807D01*
X160370787Y-121745247D01*
X160353787Y-121716884D01*
X160339649Y-121686991D01*
X160328509Y-121655857D01*
X160320475Y-121623781D01*
X160315623Y-121591071D01*
X160314000Y-121558044D01*
X160314000Y-120681956D01*
X160315623Y-120648929D01*
X160320475Y-120616219D01*
X160328509Y-120584143D01*
X160339649Y-120553009D01*
X160353787Y-120523116D01*
X160370787Y-120494753D01*
X160390485Y-120468193D01*
X160412692Y-120443692D01*
X160437193Y-120421485D01*
X160463753Y-120401787D01*
X160492116Y-120384787D01*
X160522009Y-120370649D01*
X160553143Y-120359509D01*
X160585219Y-120351475D01*
X160617929Y-120346623D01*
X160650956Y-120345000D01*
X161777044Y-120345000D01*
X161810071Y-120346623D01*
X161810071Y-120346623D01*
G37*
D20*
X161214000Y-121120000D03*
D11*
G36*
X110756071Y-120600623D02*
X110788781Y-120605475D01*
X110820857Y-120613509D01*
X110851991Y-120624649D01*
X110881884Y-120638787D01*
X110910247Y-120655787D01*
X110936807Y-120675485D01*
X110961308Y-120697692D01*
X110983515Y-120722193D01*
X111003213Y-120748753D01*
X111020213Y-120777116D01*
X111034351Y-120807009D01*
X111045491Y-120838143D01*
X111053525Y-120870219D01*
X111058377Y-120902929D01*
X111060000Y-120935956D01*
X111060000Y-121812044D01*
X111058377Y-121845071D01*
X111053525Y-121877781D01*
X111045491Y-121909857D01*
X111034351Y-121940991D01*
X111020213Y-121970884D01*
X111003213Y-121999247D01*
X110983515Y-122025807D01*
X110961308Y-122050308D01*
X110936807Y-122072515D01*
X110910247Y-122092213D01*
X110881884Y-122109213D01*
X110851991Y-122123351D01*
X110820857Y-122134491D01*
X110788781Y-122142525D01*
X110756071Y-122147377D01*
X110723044Y-122149000D01*
X109596956Y-122149000D01*
X109563929Y-122147377D01*
X109531219Y-122142525D01*
X109499143Y-122134491D01*
X109468009Y-122123351D01*
X109438116Y-122109213D01*
X109409753Y-122092213D01*
X109383193Y-122072515D01*
X109358692Y-122050308D01*
X109336485Y-122025807D01*
X109316787Y-121999247D01*
X109299787Y-121970884D01*
X109285649Y-121940991D01*
X109274509Y-121909857D01*
X109266475Y-121877781D01*
X109261623Y-121845071D01*
X109260000Y-121812044D01*
X109260000Y-120935956D01*
X109261623Y-120902929D01*
X109266475Y-120870219D01*
X109274509Y-120838143D01*
X109285649Y-120807009D01*
X109299787Y-120777116D01*
X109316787Y-120748753D01*
X109336485Y-120722193D01*
X109358692Y-120697692D01*
X109383193Y-120675485D01*
X109409753Y-120655787D01*
X109438116Y-120638787D01*
X109468009Y-120624649D01*
X109499143Y-120613509D01*
X109531219Y-120605475D01*
X109563929Y-120600623D01*
X109596956Y-120599000D01*
X110723044Y-120599000D01*
X110756071Y-120600623D01*
X110756071Y-120600623D01*
G37*
D20*
X110160000Y-121374000D03*
D11*
G36*
X110756071Y-122650623D02*
X110788781Y-122655475D01*
X110820857Y-122663509D01*
X110851991Y-122674649D01*
X110881884Y-122688787D01*
X110910247Y-122705787D01*
X110936807Y-122725485D01*
X110961308Y-122747692D01*
X110983515Y-122772193D01*
X111003213Y-122798753D01*
X111020213Y-122827116D01*
X111034351Y-122857009D01*
X111045491Y-122888143D01*
X111053525Y-122920219D01*
X111058377Y-122952929D01*
X111060000Y-122985956D01*
X111060000Y-123862044D01*
X111058377Y-123895071D01*
X111053525Y-123927781D01*
X111045491Y-123959857D01*
X111034351Y-123990991D01*
X111020213Y-124020884D01*
X111003213Y-124049247D01*
X110983515Y-124075807D01*
X110961308Y-124100308D01*
X110936807Y-124122515D01*
X110910247Y-124142213D01*
X110881884Y-124159213D01*
X110851991Y-124173351D01*
X110820857Y-124184491D01*
X110788781Y-124192525D01*
X110756071Y-124197377D01*
X110723044Y-124199000D01*
X109596956Y-124199000D01*
X109563929Y-124197377D01*
X109531219Y-124192525D01*
X109499143Y-124184491D01*
X109468009Y-124173351D01*
X109438116Y-124159213D01*
X109409753Y-124142213D01*
X109383193Y-124122515D01*
X109358692Y-124100308D01*
X109336485Y-124075807D01*
X109316787Y-124049247D01*
X109299787Y-124020884D01*
X109285649Y-123990991D01*
X109274509Y-123959857D01*
X109266475Y-123927781D01*
X109261623Y-123895071D01*
X109260000Y-123862044D01*
X109260000Y-122985956D01*
X109261623Y-122952929D01*
X109266475Y-122920219D01*
X109274509Y-122888143D01*
X109285649Y-122857009D01*
X109299787Y-122827116D01*
X109316787Y-122798753D01*
X109336485Y-122772193D01*
X109358692Y-122747692D01*
X109383193Y-122725485D01*
X109409753Y-122705787D01*
X109438116Y-122688787D01*
X109468009Y-122674649D01*
X109499143Y-122663509D01*
X109531219Y-122655475D01*
X109563929Y-122650623D01*
X109596956Y-122649000D01*
X110723044Y-122649000D01*
X110756071Y-122650623D01*
X110756071Y-122650623D01*
G37*
D20*
X110160000Y-123424000D03*
D11*
G36*
X110756071Y-97994623D02*
X110788781Y-97999475D01*
X110820857Y-98007509D01*
X110851991Y-98018649D01*
X110881884Y-98032787D01*
X110910247Y-98049787D01*
X110936807Y-98069485D01*
X110961308Y-98091692D01*
X110983515Y-98116193D01*
X111003213Y-98142753D01*
X111020213Y-98171116D01*
X111034351Y-98201009D01*
X111045491Y-98232143D01*
X111053525Y-98264219D01*
X111058377Y-98296929D01*
X111060000Y-98329956D01*
X111060000Y-99206044D01*
X111058377Y-99239071D01*
X111053525Y-99271781D01*
X111045491Y-99303857D01*
X111034351Y-99334991D01*
X111020213Y-99364884D01*
X111003213Y-99393247D01*
X110983515Y-99419807D01*
X110961308Y-99444308D01*
X110936807Y-99466515D01*
X110910247Y-99486213D01*
X110881884Y-99503213D01*
X110851991Y-99517351D01*
X110820857Y-99528491D01*
X110788781Y-99536525D01*
X110756071Y-99541377D01*
X110723044Y-99543000D01*
X109596956Y-99543000D01*
X109563929Y-99541377D01*
X109531219Y-99536525D01*
X109499143Y-99528491D01*
X109468009Y-99517351D01*
X109438116Y-99503213D01*
X109409753Y-99486213D01*
X109383193Y-99466515D01*
X109358692Y-99444308D01*
X109336485Y-99419807D01*
X109316787Y-99393247D01*
X109299787Y-99364884D01*
X109285649Y-99334991D01*
X109274509Y-99303857D01*
X109266475Y-99271781D01*
X109261623Y-99239071D01*
X109260000Y-99206044D01*
X109260000Y-98329956D01*
X109261623Y-98296929D01*
X109266475Y-98264219D01*
X109274509Y-98232143D01*
X109285649Y-98201009D01*
X109299787Y-98171116D01*
X109316787Y-98142753D01*
X109336485Y-98116193D01*
X109358692Y-98091692D01*
X109383193Y-98069485D01*
X109409753Y-98049787D01*
X109438116Y-98032787D01*
X109468009Y-98018649D01*
X109499143Y-98007509D01*
X109531219Y-97999475D01*
X109563929Y-97994623D01*
X109596956Y-97993000D01*
X110723044Y-97993000D01*
X110756071Y-97994623D01*
X110756071Y-97994623D01*
G37*
D20*
X110160000Y-98768000D03*
D11*
G36*
X110756071Y-100044623D02*
X110788781Y-100049475D01*
X110820857Y-100057509D01*
X110851991Y-100068649D01*
X110881884Y-100082787D01*
X110910247Y-100099787D01*
X110936807Y-100119485D01*
X110961308Y-100141692D01*
X110983515Y-100166193D01*
X111003213Y-100192753D01*
X111020213Y-100221116D01*
X111034351Y-100251009D01*
X111045491Y-100282143D01*
X111053525Y-100314219D01*
X111058377Y-100346929D01*
X111060000Y-100379956D01*
X111060000Y-101256044D01*
X111058377Y-101289071D01*
X111053525Y-101321781D01*
X111045491Y-101353857D01*
X111034351Y-101384991D01*
X111020213Y-101414884D01*
X111003213Y-101443247D01*
X110983515Y-101469807D01*
X110961308Y-101494308D01*
X110936807Y-101516515D01*
X110910247Y-101536213D01*
X110881884Y-101553213D01*
X110851991Y-101567351D01*
X110820857Y-101578491D01*
X110788781Y-101586525D01*
X110756071Y-101591377D01*
X110723044Y-101593000D01*
X109596956Y-101593000D01*
X109563929Y-101591377D01*
X109531219Y-101586525D01*
X109499143Y-101578491D01*
X109468009Y-101567351D01*
X109438116Y-101553213D01*
X109409753Y-101536213D01*
X109383193Y-101516515D01*
X109358692Y-101494308D01*
X109336485Y-101469807D01*
X109316787Y-101443247D01*
X109299787Y-101414884D01*
X109285649Y-101384991D01*
X109274509Y-101353857D01*
X109266475Y-101321781D01*
X109261623Y-101289071D01*
X109260000Y-101256044D01*
X109260000Y-100379956D01*
X109261623Y-100346929D01*
X109266475Y-100314219D01*
X109274509Y-100282143D01*
X109285649Y-100251009D01*
X109299787Y-100221116D01*
X109316787Y-100192753D01*
X109336485Y-100166193D01*
X109358692Y-100141692D01*
X109383193Y-100119485D01*
X109409753Y-100099787D01*
X109438116Y-100082787D01*
X109468009Y-100068649D01*
X109499143Y-100057509D01*
X109531219Y-100049475D01*
X109563929Y-100044623D01*
X109596956Y-100043000D01*
X110723044Y-100043000D01*
X110756071Y-100044623D01*
X110756071Y-100044623D01*
G37*
D20*
X110160000Y-100818000D03*
D11*
G36*
X125488071Y-97985623D02*
X125520781Y-97990475D01*
X125552857Y-97998509D01*
X125583991Y-98009649D01*
X125613884Y-98023787D01*
X125642247Y-98040787D01*
X125668807Y-98060485D01*
X125693308Y-98082692D01*
X125715515Y-98107193D01*
X125735213Y-98133753D01*
X125752213Y-98162116D01*
X125766351Y-98192009D01*
X125777491Y-98223143D01*
X125785525Y-98255219D01*
X125790377Y-98287929D01*
X125792000Y-98320956D01*
X125792000Y-99197044D01*
X125790377Y-99230071D01*
X125785525Y-99262781D01*
X125777491Y-99294857D01*
X125766351Y-99325991D01*
X125752213Y-99355884D01*
X125735213Y-99384247D01*
X125715515Y-99410807D01*
X125693308Y-99435308D01*
X125668807Y-99457515D01*
X125642247Y-99477213D01*
X125613884Y-99494213D01*
X125583991Y-99508351D01*
X125552857Y-99519491D01*
X125520781Y-99527525D01*
X125488071Y-99532377D01*
X125455044Y-99534000D01*
X124328956Y-99534000D01*
X124295929Y-99532377D01*
X124263219Y-99527525D01*
X124231143Y-99519491D01*
X124200009Y-99508351D01*
X124170116Y-99494213D01*
X124141753Y-99477213D01*
X124115193Y-99457515D01*
X124090692Y-99435308D01*
X124068485Y-99410807D01*
X124048787Y-99384247D01*
X124031787Y-99355884D01*
X124017649Y-99325991D01*
X124006509Y-99294857D01*
X123998475Y-99262781D01*
X123993623Y-99230071D01*
X123992000Y-99197044D01*
X123992000Y-98320956D01*
X123993623Y-98287929D01*
X123998475Y-98255219D01*
X124006509Y-98223143D01*
X124017649Y-98192009D01*
X124031787Y-98162116D01*
X124048787Y-98133753D01*
X124068485Y-98107193D01*
X124090692Y-98082692D01*
X124115193Y-98060485D01*
X124141753Y-98040787D01*
X124170116Y-98023787D01*
X124200009Y-98009649D01*
X124231143Y-97998509D01*
X124263219Y-97990475D01*
X124295929Y-97985623D01*
X124328956Y-97984000D01*
X125455044Y-97984000D01*
X125488071Y-97985623D01*
X125488071Y-97985623D01*
G37*
D20*
X124892000Y-98759000D03*
D11*
G36*
X125488071Y-100035623D02*
X125520781Y-100040475D01*
X125552857Y-100048509D01*
X125583991Y-100059649D01*
X125613884Y-100073787D01*
X125642247Y-100090787D01*
X125668807Y-100110485D01*
X125693308Y-100132692D01*
X125715515Y-100157193D01*
X125735213Y-100183753D01*
X125752213Y-100212116D01*
X125766351Y-100242009D01*
X125777491Y-100273143D01*
X125785525Y-100305219D01*
X125790377Y-100337929D01*
X125792000Y-100370956D01*
X125792000Y-101247044D01*
X125790377Y-101280071D01*
X125785525Y-101312781D01*
X125777491Y-101344857D01*
X125766351Y-101375991D01*
X125752213Y-101405884D01*
X125735213Y-101434247D01*
X125715515Y-101460807D01*
X125693308Y-101485308D01*
X125668807Y-101507515D01*
X125642247Y-101527213D01*
X125613884Y-101544213D01*
X125583991Y-101558351D01*
X125552857Y-101569491D01*
X125520781Y-101577525D01*
X125488071Y-101582377D01*
X125455044Y-101584000D01*
X124328956Y-101584000D01*
X124295929Y-101582377D01*
X124263219Y-101577525D01*
X124231143Y-101569491D01*
X124200009Y-101558351D01*
X124170116Y-101544213D01*
X124141753Y-101527213D01*
X124115193Y-101507515D01*
X124090692Y-101485308D01*
X124068485Y-101460807D01*
X124048787Y-101434247D01*
X124031787Y-101405884D01*
X124017649Y-101375991D01*
X124006509Y-101344857D01*
X123998475Y-101312781D01*
X123993623Y-101280071D01*
X123992000Y-101247044D01*
X123992000Y-100370956D01*
X123993623Y-100337929D01*
X123998475Y-100305219D01*
X124006509Y-100273143D01*
X124017649Y-100242009D01*
X124031787Y-100212116D01*
X124048787Y-100183753D01*
X124068485Y-100157193D01*
X124090692Y-100132692D01*
X124115193Y-100110485D01*
X124141753Y-100090787D01*
X124170116Y-100073787D01*
X124200009Y-100059649D01*
X124231143Y-100048509D01*
X124263219Y-100040475D01*
X124295929Y-100035623D01*
X124328956Y-100034000D01*
X125455044Y-100034000D01*
X125488071Y-100035623D01*
X125488071Y-100035623D01*
G37*
D20*
X124892000Y-100809000D03*
D11*
G36*
X191020071Y-120346623D02*
X191052781Y-120351475D01*
X191084857Y-120359509D01*
X191115991Y-120370649D01*
X191145884Y-120384787D01*
X191174247Y-120401787D01*
X191200807Y-120421485D01*
X191225308Y-120443692D01*
X191247515Y-120468193D01*
X191267213Y-120494753D01*
X191284213Y-120523116D01*
X191298351Y-120553009D01*
X191309491Y-120584143D01*
X191317525Y-120616219D01*
X191322377Y-120648929D01*
X191324000Y-120681956D01*
X191324000Y-121558044D01*
X191322377Y-121591071D01*
X191317525Y-121623781D01*
X191309491Y-121655857D01*
X191298351Y-121686991D01*
X191284213Y-121716884D01*
X191267213Y-121745247D01*
X191247515Y-121771807D01*
X191225308Y-121796308D01*
X191200807Y-121818515D01*
X191174247Y-121838213D01*
X191145884Y-121855213D01*
X191115991Y-121869351D01*
X191084857Y-121880491D01*
X191052781Y-121888525D01*
X191020071Y-121893377D01*
X190987044Y-121895000D01*
X189860956Y-121895000D01*
X189827929Y-121893377D01*
X189795219Y-121888525D01*
X189763143Y-121880491D01*
X189732009Y-121869351D01*
X189702116Y-121855213D01*
X189673753Y-121838213D01*
X189647193Y-121818515D01*
X189622692Y-121796308D01*
X189600485Y-121771807D01*
X189580787Y-121745247D01*
X189563787Y-121716884D01*
X189549649Y-121686991D01*
X189538509Y-121655857D01*
X189530475Y-121623781D01*
X189525623Y-121591071D01*
X189524000Y-121558044D01*
X189524000Y-120681956D01*
X189525623Y-120648929D01*
X189530475Y-120616219D01*
X189538509Y-120584143D01*
X189549649Y-120553009D01*
X189563787Y-120523116D01*
X189580787Y-120494753D01*
X189600485Y-120468193D01*
X189622692Y-120443692D01*
X189647193Y-120421485D01*
X189673753Y-120401787D01*
X189702116Y-120384787D01*
X189732009Y-120370649D01*
X189763143Y-120359509D01*
X189795219Y-120351475D01*
X189827929Y-120346623D01*
X189860956Y-120345000D01*
X190987044Y-120345000D01*
X191020071Y-120346623D01*
X191020071Y-120346623D01*
G37*
D20*
X190424000Y-121120000D03*
D11*
G36*
X191020071Y-122396623D02*
X191052781Y-122401475D01*
X191084857Y-122409509D01*
X191115991Y-122420649D01*
X191145884Y-122434787D01*
X191174247Y-122451787D01*
X191200807Y-122471485D01*
X191225308Y-122493692D01*
X191247515Y-122518193D01*
X191267213Y-122544753D01*
X191284213Y-122573116D01*
X191298351Y-122603009D01*
X191309491Y-122634143D01*
X191317525Y-122666219D01*
X191322377Y-122698929D01*
X191324000Y-122731956D01*
X191324000Y-123608044D01*
X191322377Y-123641071D01*
X191317525Y-123673781D01*
X191309491Y-123705857D01*
X191298351Y-123736991D01*
X191284213Y-123766884D01*
X191267213Y-123795247D01*
X191247515Y-123821807D01*
X191225308Y-123846308D01*
X191200807Y-123868515D01*
X191174247Y-123888213D01*
X191145884Y-123905213D01*
X191115991Y-123919351D01*
X191084857Y-123930491D01*
X191052781Y-123938525D01*
X191020071Y-123943377D01*
X190987044Y-123945000D01*
X189860956Y-123945000D01*
X189827929Y-123943377D01*
X189795219Y-123938525D01*
X189763143Y-123930491D01*
X189732009Y-123919351D01*
X189702116Y-123905213D01*
X189673753Y-123888213D01*
X189647193Y-123868515D01*
X189622692Y-123846308D01*
X189600485Y-123821807D01*
X189580787Y-123795247D01*
X189563787Y-123766884D01*
X189549649Y-123736991D01*
X189538509Y-123705857D01*
X189530475Y-123673781D01*
X189525623Y-123641071D01*
X189524000Y-123608044D01*
X189524000Y-122731956D01*
X189525623Y-122698929D01*
X189530475Y-122666219D01*
X189538509Y-122634143D01*
X189549649Y-122603009D01*
X189563787Y-122573116D01*
X189580787Y-122544753D01*
X189600485Y-122518193D01*
X189622692Y-122493692D01*
X189647193Y-122471485D01*
X189673753Y-122451787D01*
X189702116Y-122434787D01*
X189732009Y-122420649D01*
X189763143Y-122409509D01*
X189795219Y-122401475D01*
X189827929Y-122396623D01*
X189860956Y-122395000D01*
X190987044Y-122395000D01*
X191020071Y-122396623D01*
X191020071Y-122396623D01*
G37*
D20*
X190424000Y-123170000D03*
D11*
G36*
X191020071Y-128220623D02*
X191052781Y-128225475D01*
X191084857Y-128233509D01*
X191115991Y-128244649D01*
X191145884Y-128258787D01*
X191174247Y-128275787D01*
X191200807Y-128295485D01*
X191225308Y-128317692D01*
X191247515Y-128342193D01*
X191267213Y-128368753D01*
X191284213Y-128397116D01*
X191298351Y-128427009D01*
X191309491Y-128458143D01*
X191317525Y-128490219D01*
X191322377Y-128522929D01*
X191324000Y-128555956D01*
X191324000Y-129432044D01*
X191322377Y-129465071D01*
X191317525Y-129497781D01*
X191309491Y-129529857D01*
X191298351Y-129560991D01*
X191284213Y-129590884D01*
X191267213Y-129619247D01*
X191247515Y-129645807D01*
X191225308Y-129670308D01*
X191200807Y-129692515D01*
X191174247Y-129712213D01*
X191145884Y-129729213D01*
X191115991Y-129743351D01*
X191084857Y-129754491D01*
X191052781Y-129762525D01*
X191020071Y-129767377D01*
X190987044Y-129769000D01*
X189860956Y-129769000D01*
X189827929Y-129767377D01*
X189795219Y-129762525D01*
X189763143Y-129754491D01*
X189732009Y-129743351D01*
X189702116Y-129729213D01*
X189673753Y-129712213D01*
X189647193Y-129692515D01*
X189622692Y-129670308D01*
X189600485Y-129645807D01*
X189580787Y-129619247D01*
X189563787Y-129590884D01*
X189549649Y-129560991D01*
X189538509Y-129529857D01*
X189530475Y-129497781D01*
X189525623Y-129465071D01*
X189524000Y-129432044D01*
X189524000Y-128555956D01*
X189525623Y-128522929D01*
X189530475Y-128490219D01*
X189538509Y-128458143D01*
X189549649Y-128427009D01*
X189563787Y-128397116D01*
X189580787Y-128368753D01*
X189600485Y-128342193D01*
X189622692Y-128317692D01*
X189647193Y-128295485D01*
X189673753Y-128275787D01*
X189702116Y-128258787D01*
X189732009Y-128244649D01*
X189763143Y-128233509D01*
X189795219Y-128225475D01*
X189827929Y-128220623D01*
X189860956Y-128219000D01*
X190987044Y-128219000D01*
X191020071Y-128220623D01*
X191020071Y-128220623D01*
G37*
D20*
X190424000Y-128994000D03*
D11*
G36*
X191020071Y-130270623D02*
X191052781Y-130275475D01*
X191084857Y-130283509D01*
X191115991Y-130294649D01*
X191145884Y-130308787D01*
X191174247Y-130325787D01*
X191200807Y-130345485D01*
X191225308Y-130367692D01*
X191247515Y-130392193D01*
X191267213Y-130418753D01*
X191284213Y-130447116D01*
X191298351Y-130477009D01*
X191309491Y-130508143D01*
X191317525Y-130540219D01*
X191322377Y-130572929D01*
X191324000Y-130605956D01*
X191324000Y-131482044D01*
X191322377Y-131515071D01*
X191317525Y-131547781D01*
X191309491Y-131579857D01*
X191298351Y-131610991D01*
X191284213Y-131640884D01*
X191267213Y-131669247D01*
X191247515Y-131695807D01*
X191225308Y-131720308D01*
X191200807Y-131742515D01*
X191174247Y-131762213D01*
X191145884Y-131779213D01*
X191115991Y-131793351D01*
X191084857Y-131804491D01*
X191052781Y-131812525D01*
X191020071Y-131817377D01*
X190987044Y-131819000D01*
X189860956Y-131819000D01*
X189827929Y-131817377D01*
X189795219Y-131812525D01*
X189763143Y-131804491D01*
X189732009Y-131793351D01*
X189702116Y-131779213D01*
X189673753Y-131762213D01*
X189647193Y-131742515D01*
X189622692Y-131720308D01*
X189600485Y-131695807D01*
X189580787Y-131669247D01*
X189563787Y-131640884D01*
X189549649Y-131610991D01*
X189538509Y-131579857D01*
X189530475Y-131547781D01*
X189525623Y-131515071D01*
X189524000Y-131482044D01*
X189524000Y-130605956D01*
X189525623Y-130572929D01*
X189530475Y-130540219D01*
X189538509Y-130508143D01*
X189549649Y-130477009D01*
X189563787Y-130447116D01*
X189580787Y-130418753D01*
X189600485Y-130392193D01*
X189622692Y-130367692D01*
X189647193Y-130345485D01*
X189673753Y-130325787D01*
X189702116Y-130308787D01*
X189732009Y-130294649D01*
X189763143Y-130283509D01*
X189795219Y-130275475D01*
X189827929Y-130270623D01*
X189860956Y-130269000D01*
X190987044Y-130269000D01*
X191020071Y-130270623D01*
X191020071Y-130270623D01*
G37*
D20*
X190424000Y-131044000D03*
D11*
G36*
X110756071Y-105859623D02*
X110788781Y-105864475D01*
X110820857Y-105872509D01*
X110851991Y-105883649D01*
X110881884Y-105897787D01*
X110910247Y-105914787D01*
X110936807Y-105934485D01*
X110961308Y-105956692D01*
X110983515Y-105981193D01*
X111003213Y-106007753D01*
X111020213Y-106036116D01*
X111034351Y-106066009D01*
X111045491Y-106097143D01*
X111053525Y-106129219D01*
X111058377Y-106161929D01*
X111060000Y-106194956D01*
X111060000Y-107071044D01*
X111058377Y-107104071D01*
X111053525Y-107136781D01*
X111045491Y-107168857D01*
X111034351Y-107199991D01*
X111020213Y-107229884D01*
X111003213Y-107258247D01*
X110983515Y-107284807D01*
X110961308Y-107309308D01*
X110936807Y-107331515D01*
X110910247Y-107351213D01*
X110881884Y-107368213D01*
X110851991Y-107382351D01*
X110820857Y-107393491D01*
X110788781Y-107401525D01*
X110756071Y-107406377D01*
X110723044Y-107408000D01*
X109596956Y-107408000D01*
X109563929Y-107406377D01*
X109531219Y-107401525D01*
X109499143Y-107393491D01*
X109468009Y-107382351D01*
X109438116Y-107368213D01*
X109409753Y-107351213D01*
X109383193Y-107331515D01*
X109358692Y-107309308D01*
X109336485Y-107284807D01*
X109316787Y-107258247D01*
X109299787Y-107229884D01*
X109285649Y-107199991D01*
X109274509Y-107168857D01*
X109266475Y-107136781D01*
X109261623Y-107104071D01*
X109260000Y-107071044D01*
X109260000Y-106194956D01*
X109261623Y-106161929D01*
X109266475Y-106129219D01*
X109274509Y-106097143D01*
X109285649Y-106066009D01*
X109299787Y-106036116D01*
X109316787Y-106007753D01*
X109336485Y-105981193D01*
X109358692Y-105956692D01*
X109383193Y-105934485D01*
X109409753Y-105914787D01*
X109438116Y-105897787D01*
X109468009Y-105883649D01*
X109499143Y-105872509D01*
X109531219Y-105864475D01*
X109563929Y-105859623D01*
X109596956Y-105858000D01*
X110723044Y-105858000D01*
X110756071Y-105859623D01*
X110756071Y-105859623D01*
G37*
D20*
X110160000Y-106633000D03*
D11*
G36*
X110756071Y-107909623D02*
X110788781Y-107914475D01*
X110820857Y-107922509D01*
X110851991Y-107933649D01*
X110881884Y-107947787D01*
X110910247Y-107964787D01*
X110936807Y-107984485D01*
X110961308Y-108006692D01*
X110983515Y-108031193D01*
X111003213Y-108057753D01*
X111020213Y-108086116D01*
X111034351Y-108116009D01*
X111045491Y-108147143D01*
X111053525Y-108179219D01*
X111058377Y-108211929D01*
X111060000Y-108244956D01*
X111060000Y-109121044D01*
X111058377Y-109154071D01*
X111053525Y-109186781D01*
X111045491Y-109218857D01*
X111034351Y-109249991D01*
X111020213Y-109279884D01*
X111003213Y-109308247D01*
X110983515Y-109334807D01*
X110961308Y-109359308D01*
X110936807Y-109381515D01*
X110910247Y-109401213D01*
X110881884Y-109418213D01*
X110851991Y-109432351D01*
X110820857Y-109443491D01*
X110788781Y-109451525D01*
X110756071Y-109456377D01*
X110723044Y-109458000D01*
X109596956Y-109458000D01*
X109563929Y-109456377D01*
X109531219Y-109451525D01*
X109499143Y-109443491D01*
X109468009Y-109432351D01*
X109438116Y-109418213D01*
X109409753Y-109401213D01*
X109383193Y-109381515D01*
X109358692Y-109359308D01*
X109336485Y-109334807D01*
X109316787Y-109308247D01*
X109299787Y-109279884D01*
X109285649Y-109249991D01*
X109274509Y-109218857D01*
X109266475Y-109186781D01*
X109261623Y-109154071D01*
X109260000Y-109121044D01*
X109260000Y-108244956D01*
X109261623Y-108211929D01*
X109266475Y-108179219D01*
X109274509Y-108147143D01*
X109285649Y-108116009D01*
X109299787Y-108086116D01*
X109316787Y-108057753D01*
X109336485Y-108031193D01*
X109358692Y-108006692D01*
X109383193Y-107984485D01*
X109409753Y-107964787D01*
X109438116Y-107947787D01*
X109468009Y-107933649D01*
X109499143Y-107922509D01*
X109531219Y-107914475D01*
X109563929Y-107909623D01*
X109596956Y-107908000D01*
X110723044Y-107908000D01*
X110756071Y-107909623D01*
X110756071Y-107909623D01*
G37*
D20*
X110160000Y-108683000D03*
D11*
G36*
X111010071Y-128211623D02*
X111042781Y-128216475D01*
X111074857Y-128224509D01*
X111105991Y-128235649D01*
X111135884Y-128249787D01*
X111164247Y-128266787D01*
X111190807Y-128286485D01*
X111215308Y-128308692D01*
X111237515Y-128333193D01*
X111257213Y-128359753D01*
X111274213Y-128388116D01*
X111288351Y-128418009D01*
X111299491Y-128449143D01*
X111307525Y-128481219D01*
X111312377Y-128513929D01*
X111314000Y-128546956D01*
X111314000Y-129423044D01*
X111312377Y-129456071D01*
X111307525Y-129488781D01*
X111299491Y-129520857D01*
X111288351Y-129551991D01*
X111274213Y-129581884D01*
X111257213Y-129610247D01*
X111237515Y-129636807D01*
X111215308Y-129661308D01*
X111190807Y-129683515D01*
X111164247Y-129703213D01*
X111135884Y-129720213D01*
X111105991Y-129734351D01*
X111074857Y-129745491D01*
X111042781Y-129753525D01*
X111010071Y-129758377D01*
X110977044Y-129760000D01*
X109850956Y-129760000D01*
X109817929Y-129758377D01*
X109785219Y-129753525D01*
X109753143Y-129745491D01*
X109722009Y-129734351D01*
X109692116Y-129720213D01*
X109663753Y-129703213D01*
X109637193Y-129683515D01*
X109612692Y-129661308D01*
X109590485Y-129636807D01*
X109570787Y-129610247D01*
X109553787Y-129581884D01*
X109539649Y-129551991D01*
X109528509Y-129520857D01*
X109520475Y-129488781D01*
X109515623Y-129456071D01*
X109514000Y-129423044D01*
X109514000Y-128546956D01*
X109515623Y-128513929D01*
X109520475Y-128481219D01*
X109528509Y-128449143D01*
X109539649Y-128418009D01*
X109553787Y-128388116D01*
X109570787Y-128359753D01*
X109590485Y-128333193D01*
X109612692Y-128308692D01*
X109637193Y-128286485D01*
X109663753Y-128266787D01*
X109692116Y-128249787D01*
X109722009Y-128235649D01*
X109753143Y-128224509D01*
X109785219Y-128216475D01*
X109817929Y-128211623D01*
X109850956Y-128210000D01*
X110977044Y-128210000D01*
X111010071Y-128211623D01*
X111010071Y-128211623D01*
G37*
D20*
X110414000Y-128985000D03*
D11*
G36*
X111010071Y-130261623D02*
X111042781Y-130266475D01*
X111074857Y-130274509D01*
X111105991Y-130285649D01*
X111135884Y-130299787D01*
X111164247Y-130316787D01*
X111190807Y-130336485D01*
X111215308Y-130358692D01*
X111237515Y-130383193D01*
X111257213Y-130409753D01*
X111274213Y-130438116D01*
X111288351Y-130468009D01*
X111299491Y-130499143D01*
X111307525Y-130531219D01*
X111312377Y-130563929D01*
X111314000Y-130596956D01*
X111314000Y-131473044D01*
X111312377Y-131506071D01*
X111307525Y-131538781D01*
X111299491Y-131570857D01*
X111288351Y-131601991D01*
X111274213Y-131631884D01*
X111257213Y-131660247D01*
X111237515Y-131686807D01*
X111215308Y-131711308D01*
X111190807Y-131733515D01*
X111164247Y-131753213D01*
X111135884Y-131770213D01*
X111105991Y-131784351D01*
X111074857Y-131795491D01*
X111042781Y-131803525D01*
X111010071Y-131808377D01*
X110977044Y-131810000D01*
X109850956Y-131810000D01*
X109817929Y-131808377D01*
X109785219Y-131803525D01*
X109753143Y-131795491D01*
X109722009Y-131784351D01*
X109692116Y-131770213D01*
X109663753Y-131753213D01*
X109637193Y-131733515D01*
X109612692Y-131711308D01*
X109590485Y-131686807D01*
X109570787Y-131660247D01*
X109553787Y-131631884D01*
X109539649Y-131601991D01*
X109528509Y-131570857D01*
X109520475Y-131538781D01*
X109515623Y-131506071D01*
X109514000Y-131473044D01*
X109514000Y-130596956D01*
X109515623Y-130563929D01*
X109520475Y-130531219D01*
X109528509Y-130499143D01*
X109539649Y-130468009D01*
X109553787Y-130438116D01*
X109570787Y-130409753D01*
X109590485Y-130383193D01*
X109612692Y-130358692D01*
X109637193Y-130336485D01*
X109663753Y-130316787D01*
X109692116Y-130299787D01*
X109722009Y-130285649D01*
X109753143Y-130274509D01*
X109785219Y-130266475D01*
X109817929Y-130261623D01*
X109850956Y-130260000D01*
X110977044Y-130260000D01*
X111010071Y-130261623D01*
X111010071Y-130261623D01*
G37*
D20*
X110414000Y-131035000D03*
D11*
G36*
X161810071Y-105605623D02*
X161842781Y-105610475D01*
X161874857Y-105618509D01*
X161905991Y-105629649D01*
X161935884Y-105643787D01*
X161964247Y-105660787D01*
X161990807Y-105680485D01*
X162015308Y-105702692D01*
X162037515Y-105727193D01*
X162057213Y-105753753D01*
X162074213Y-105782116D01*
X162088351Y-105812009D01*
X162099491Y-105843143D01*
X162107525Y-105875219D01*
X162112377Y-105907929D01*
X162114000Y-105940956D01*
X162114000Y-106817044D01*
X162112377Y-106850071D01*
X162107525Y-106882781D01*
X162099491Y-106914857D01*
X162088351Y-106945991D01*
X162074213Y-106975884D01*
X162057213Y-107004247D01*
X162037515Y-107030807D01*
X162015308Y-107055308D01*
X161990807Y-107077515D01*
X161964247Y-107097213D01*
X161935884Y-107114213D01*
X161905991Y-107128351D01*
X161874857Y-107139491D01*
X161842781Y-107147525D01*
X161810071Y-107152377D01*
X161777044Y-107154000D01*
X160650956Y-107154000D01*
X160617929Y-107152377D01*
X160585219Y-107147525D01*
X160553143Y-107139491D01*
X160522009Y-107128351D01*
X160492116Y-107114213D01*
X160463753Y-107097213D01*
X160437193Y-107077515D01*
X160412692Y-107055308D01*
X160390485Y-107030807D01*
X160370787Y-107004247D01*
X160353787Y-106975884D01*
X160339649Y-106945991D01*
X160328509Y-106914857D01*
X160320475Y-106882781D01*
X160315623Y-106850071D01*
X160314000Y-106817044D01*
X160314000Y-105940956D01*
X160315623Y-105907929D01*
X160320475Y-105875219D01*
X160328509Y-105843143D01*
X160339649Y-105812009D01*
X160353787Y-105782116D01*
X160370787Y-105753753D01*
X160390485Y-105727193D01*
X160412692Y-105702692D01*
X160437193Y-105680485D01*
X160463753Y-105660787D01*
X160492116Y-105643787D01*
X160522009Y-105629649D01*
X160553143Y-105618509D01*
X160585219Y-105610475D01*
X160617929Y-105605623D01*
X160650956Y-105604000D01*
X161777044Y-105604000D01*
X161810071Y-105605623D01*
X161810071Y-105605623D01*
G37*
D20*
X161214000Y-106379000D03*
D11*
G36*
X161810071Y-107655623D02*
X161842781Y-107660475D01*
X161874857Y-107668509D01*
X161905991Y-107679649D01*
X161935884Y-107693787D01*
X161964247Y-107710787D01*
X161990807Y-107730485D01*
X162015308Y-107752692D01*
X162037515Y-107777193D01*
X162057213Y-107803753D01*
X162074213Y-107832116D01*
X162088351Y-107862009D01*
X162099491Y-107893143D01*
X162107525Y-107925219D01*
X162112377Y-107957929D01*
X162114000Y-107990956D01*
X162114000Y-108867044D01*
X162112377Y-108900071D01*
X162107525Y-108932781D01*
X162099491Y-108964857D01*
X162088351Y-108995991D01*
X162074213Y-109025884D01*
X162057213Y-109054247D01*
X162037515Y-109080807D01*
X162015308Y-109105308D01*
X161990807Y-109127515D01*
X161964247Y-109147213D01*
X161935884Y-109164213D01*
X161905991Y-109178351D01*
X161874857Y-109189491D01*
X161842781Y-109197525D01*
X161810071Y-109202377D01*
X161777044Y-109204000D01*
X160650956Y-109204000D01*
X160617929Y-109202377D01*
X160585219Y-109197525D01*
X160553143Y-109189491D01*
X160522009Y-109178351D01*
X160492116Y-109164213D01*
X160463753Y-109147213D01*
X160437193Y-109127515D01*
X160412692Y-109105308D01*
X160390485Y-109080807D01*
X160370787Y-109054247D01*
X160353787Y-109025884D01*
X160339649Y-108995991D01*
X160328509Y-108964857D01*
X160320475Y-108932781D01*
X160315623Y-108900071D01*
X160314000Y-108867044D01*
X160314000Y-107990956D01*
X160315623Y-107957929D01*
X160320475Y-107925219D01*
X160328509Y-107893143D01*
X160339649Y-107862009D01*
X160353787Y-107832116D01*
X160370787Y-107803753D01*
X160390485Y-107777193D01*
X160412692Y-107752692D01*
X160437193Y-107730485D01*
X160463753Y-107710787D01*
X160492116Y-107693787D01*
X160522009Y-107679649D01*
X160553143Y-107668509D01*
X160585219Y-107660475D01*
X160617929Y-107655623D01*
X160650956Y-107654000D01*
X161777044Y-107654000D01*
X161810071Y-107655623D01*
X161810071Y-107655623D01*
G37*
D20*
X161214000Y-108429000D03*
D11*
G36*
X176542071Y-105605623D02*
X176574781Y-105610475D01*
X176606857Y-105618509D01*
X176637991Y-105629649D01*
X176667884Y-105643787D01*
X176696247Y-105660787D01*
X176722807Y-105680485D01*
X176747308Y-105702692D01*
X176769515Y-105727193D01*
X176789213Y-105753753D01*
X176806213Y-105782116D01*
X176820351Y-105812009D01*
X176831491Y-105843143D01*
X176839525Y-105875219D01*
X176844377Y-105907929D01*
X176846000Y-105940956D01*
X176846000Y-106817044D01*
X176844377Y-106850071D01*
X176839525Y-106882781D01*
X176831491Y-106914857D01*
X176820351Y-106945991D01*
X176806213Y-106975884D01*
X176789213Y-107004247D01*
X176769515Y-107030807D01*
X176747308Y-107055308D01*
X176722807Y-107077515D01*
X176696247Y-107097213D01*
X176667884Y-107114213D01*
X176637991Y-107128351D01*
X176606857Y-107139491D01*
X176574781Y-107147525D01*
X176542071Y-107152377D01*
X176509044Y-107154000D01*
X175382956Y-107154000D01*
X175349929Y-107152377D01*
X175317219Y-107147525D01*
X175285143Y-107139491D01*
X175254009Y-107128351D01*
X175224116Y-107114213D01*
X175195753Y-107097213D01*
X175169193Y-107077515D01*
X175144692Y-107055308D01*
X175122485Y-107030807D01*
X175102787Y-107004247D01*
X175085787Y-106975884D01*
X175071649Y-106945991D01*
X175060509Y-106914857D01*
X175052475Y-106882781D01*
X175047623Y-106850071D01*
X175046000Y-106817044D01*
X175046000Y-105940956D01*
X175047623Y-105907929D01*
X175052475Y-105875219D01*
X175060509Y-105843143D01*
X175071649Y-105812009D01*
X175085787Y-105782116D01*
X175102787Y-105753753D01*
X175122485Y-105727193D01*
X175144692Y-105702692D01*
X175169193Y-105680485D01*
X175195753Y-105660787D01*
X175224116Y-105643787D01*
X175254009Y-105629649D01*
X175285143Y-105618509D01*
X175317219Y-105610475D01*
X175349929Y-105605623D01*
X175382956Y-105604000D01*
X176509044Y-105604000D01*
X176542071Y-105605623D01*
X176542071Y-105605623D01*
G37*
D20*
X175946000Y-106379000D03*
D11*
G36*
X176542071Y-107655623D02*
X176574781Y-107660475D01*
X176606857Y-107668509D01*
X176637991Y-107679649D01*
X176667884Y-107693787D01*
X176696247Y-107710787D01*
X176722807Y-107730485D01*
X176747308Y-107752692D01*
X176769515Y-107777193D01*
X176789213Y-107803753D01*
X176806213Y-107832116D01*
X176820351Y-107862009D01*
X176831491Y-107893143D01*
X176839525Y-107925219D01*
X176844377Y-107957929D01*
X176846000Y-107990956D01*
X176846000Y-108867044D01*
X176844377Y-108900071D01*
X176839525Y-108932781D01*
X176831491Y-108964857D01*
X176820351Y-108995991D01*
X176806213Y-109025884D01*
X176789213Y-109054247D01*
X176769515Y-109080807D01*
X176747308Y-109105308D01*
X176722807Y-109127515D01*
X176696247Y-109147213D01*
X176667884Y-109164213D01*
X176637991Y-109178351D01*
X176606857Y-109189491D01*
X176574781Y-109197525D01*
X176542071Y-109202377D01*
X176509044Y-109204000D01*
X175382956Y-109204000D01*
X175349929Y-109202377D01*
X175317219Y-109197525D01*
X175285143Y-109189491D01*
X175254009Y-109178351D01*
X175224116Y-109164213D01*
X175195753Y-109147213D01*
X175169193Y-109127515D01*
X175144692Y-109105308D01*
X175122485Y-109080807D01*
X175102787Y-109054247D01*
X175085787Y-109025884D01*
X175071649Y-108995991D01*
X175060509Y-108964857D01*
X175052475Y-108932781D01*
X175047623Y-108900071D01*
X175046000Y-108867044D01*
X175046000Y-107990956D01*
X175047623Y-107957929D01*
X175052475Y-107925219D01*
X175060509Y-107893143D01*
X175071649Y-107862009D01*
X175085787Y-107832116D01*
X175102787Y-107803753D01*
X175122485Y-107777193D01*
X175144692Y-107752692D01*
X175169193Y-107730485D01*
X175195753Y-107710787D01*
X175224116Y-107693787D01*
X175254009Y-107679649D01*
X175285143Y-107668509D01*
X175317219Y-107660475D01*
X175349929Y-107655623D01*
X175382956Y-107654000D01*
X176509044Y-107654000D01*
X176542071Y-107655623D01*
X176542071Y-107655623D01*
G37*
D20*
X175946000Y-108429000D03*
D11*
G36*
X125488071Y-105605623D02*
X125520781Y-105610475D01*
X125552857Y-105618509D01*
X125583991Y-105629649D01*
X125613884Y-105643787D01*
X125642247Y-105660787D01*
X125668807Y-105680485D01*
X125693308Y-105702692D01*
X125715515Y-105727193D01*
X125735213Y-105753753D01*
X125752213Y-105782116D01*
X125766351Y-105812009D01*
X125777491Y-105843143D01*
X125785525Y-105875219D01*
X125790377Y-105907929D01*
X125792000Y-105940956D01*
X125792000Y-106817044D01*
X125790377Y-106850071D01*
X125785525Y-106882781D01*
X125777491Y-106914857D01*
X125766351Y-106945991D01*
X125752213Y-106975884D01*
X125735213Y-107004247D01*
X125715515Y-107030807D01*
X125693308Y-107055308D01*
X125668807Y-107077515D01*
X125642247Y-107097213D01*
X125613884Y-107114213D01*
X125583991Y-107128351D01*
X125552857Y-107139491D01*
X125520781Y-107147525D01*
X125488071Y-107152377D01*
X125455044Y-107154000D01*
X124328956Y-107154000D01*
X124295929Y-107152377D01*
X124263219Y-107147525D01*
X124231143Y-107139491D01*
X124200009Y-107128351D01*
X124170116Y-107114213D01*
X124141753Y-107097213D01*
X124115193Y-107077515D01*
X124090692Y-107055308D01*
X124068485Y-107030807D01*
X124048787Y-107004247D01*
X124031787Y-106975884D01*
X124017649Y-106945991D01*
X124006509Y-106914857D01*
X123998475Y-106882781D01*
X123993623Y-106850071D01*
X123992000Y-106817044D01*
X123992000Y-105940956D01*
X123993623Y-105907929D01*
X123998475Y-105875219D01*
X124006509Y-105843143D01*
X124017649Y-105812009D01*
X124031787Y-105782116D01*
X124048787Y-105753753D01*
X124068485Y-105727193D01*
X124090692Y-105702692D01*
X124115193Y-105680485D01*
X124141753Y-105660787D01*
X124170116Y-105643787D01*
X124200009Y-105629649D01*
X124231143Y-105618509D01*
X124263219Y-105610475D01*
X124295929Y-105605623D01*
X124328956Y-105604000D01*
X125455044Y-105604000D01*
X125488071Y-105605623D01*
X125488071Y-105605623D01*
G37*
D20*
X124892000Y-106379000D03*
D11*
G36*
X125488071Y-107655623D02*
X125520781Y-107660475D01*
X125552857Y-107668509D01*
X125583991Y-107679649D01*
X125613884Y-107693787D01*
X125642247Y-107710787D01*
X125668807Y-107730485D01*
X125693308Y-107752692D01*
X125715515Y-107777193D01*
X125735213Y-107803753D01*
X125752213Y-107832116D01*
X125766351Y-107862009D01*
X125777491Y-107893143D01*
X125785525Y-107925219D01*
X125790377Y-107957929D01*
X125792000Y-107990956D01*
X125792000Y-108867044D01*
X125790377Y-108900071D01*
X125785525Y-108932781D01*
X125777491Y-108964857D01*
X125766351Y-108995991D01*
X125752213Y-109025884D01*
X125735213Y-109054247D01*
X125715515Y-109080807D01*
X125693308Y-109105308D01*
X125668807Y-109127515D01*
X125642247Y-109147213D01*
X125613884Y-109164213D01*
X125583991Y-109178351D01*
X125552857Y-109189491D01*
X125520781Y-109197525D01*
X125488071Y-109202377D01*
X125455044Y-109204000D01*
X124328956Y-109204000D01*
X124295929Y-109202377D01*
X124263219Y-109197525D01*
X124231143Y-109189491D01*
X124200009Y-109178351D01*
X124170116Y-109164213D01*
X124141753Y-109147213D01*
X124115193Y-109127515D01*
X124090692Y-109105308D01*
X124068485Y-109080807D01*
X124048787Y-109054247D01*
X124031787Y-109025884D01*
X124017649Y-108995991D01*
X124006509Y-108964857D01*
X123998475Y-108932781D01*
X123993623Y-108900071D01*
X123992000Y-108867044D01*
X123992000Y-107990956D01*
X123993623Y-107957929D01*
X123998475Y-107925219D01*
X124006509Y-107893143D01*
X124017649Y-107862009D01*
X124031787Y-107832116D01*
X124048787Y-107803753D01*
X124068485Y-107777193D01*
X124090692Y-107752692D01*
X124115193Y-107730485D01*
X124141753Y-107710787D01*
X124170116Y-107693787D01*
X124200009Y-107679649D01*
X124231143Y-107668509D01*
X124263219Y-107660475D01*
X124295929Y-107655623D01*
X124328956Y-107654000D01*
X125455044Y-107654000D01*
X125488071Y-107655623D01*
X125488071Y-107655623D01*
G37*
D20*
X124892000Y-108429000D03*
D11*
G36*
X125488071Y-128201623D02*
X125520781Y-128206475D01*
X125552857Y-128214509D01*
X125583991Y-128225649D01*
X125613884Y-128239787D01*
X125642247Y-128256787D01*
X125668807Y-128276485D01*
X125693308Y-128298692D01*
X125715515Y-128323193D01*
X125735213Y-128349753D01*
X125752213Y-128378116D01*
X125766351Y-128408009D01*
X125777491Y-128439143D01*
X125785525Y-128471219D01*
X125790377Y-128503929D01*
X125792000Y-128536956D01*
X125792000Y-129413044D01*
X125790377Y-129446071D01*
X125785525Y-129478781D01*
X125777491Y-129510857D01*
X125766351Y-129541991D01*
X125752213Y-129571884D01*
X125735213Y-129600247D01*
X125715515Y-129626807D01*
X125693308Y-129651308D01*
X125668807Y-129673515D01*
X125642247Y-129693213D01*
X125613884Y-129710213D01*
X125583991Y-129724351D01*
X125552857Y-129735491D01*
X125520781Y-129743525D01*
X125488071Y-129748377D01*
X125455044Y-129750000D01*
X124328956Y-129750000D01*
X124295929Y-129748377D01*
X124263219Y-129743525D01*
X124231143Y-129735491D01*
X124200009Y-129724351D01*
X124170116Y-129710213D01*
X124141753Y-129693213D01*
X124115193Y-129673515D01*
X124090692Y-129651308D01*
X124068485Y-129626807D01*
X124048787Y-129600247D01*
X124031787Y-129571884D01*
X124017649Y-129541991D01*
X124006509Y-129510857D01*
X123998475Y-129478781D01*
X123993623Y-129446071D01*
X123992000Y-129413044D01*
X123992000Y-128536956D01*
X123993623Y-128503929D01*
X123998475Y-128471219D01*
X124006509Y-128439143D01*
X124017649Y-128408009D01*
X124031787Y-128378116D01*
X124048787Y-128349753D01*
X124068485Y-128323193D01*
X124090692Y-128298692D01*
X124115193Y-128276485D01*
X124141753Y-128256787D01*
X124170116Y-128239787D01*
X124200009Y-128225649D01*
X124231143Y-128214509D01*
X124263219Y-128206475D01*
X124295929Y-128201623D01*
X124328956Y-128200000D01*
X125455044Y-128200000D01*
X125488071Y-128201623D01*
X125488071Y-128201623D01*
G37*
D20*
X124892000Y-128975000D03*
D11*
G36*
X125488071Y-130251623D02*
X125520781Y-130256475D01*
X125552857Y-130264509D01*
X125583991Y-130275649D01*
X125613884Y-130289787D01*
X125642247Y-130306787D01*
X125668807Y-130326485D01*
X125693308Y-130348692D01*
X125715515Y-130373193D01*
X125735213Y-130399753D01*
X125752213Y-130428116D01*
X125766351Y-130458009D01*
X125777491Y-130489143D01*
X125785525Y-130521219D01*
X125790377Y-130553929D01*
X125792000Y-130586956D01*
X125792000Y-131463044D01*
X125790377Y-131496071D01*
X125785525Y-131528781D01*
X125777491Y-131560857D01*
X125766351Y-131591991D01*
X125752213Y-131621884D01*
X125735213Y-131650247D01*
X125715515Y-131676807D01*
X125693308Y-131701308D01*
X125668807Y-131723515D01*
X125642247Y-131743213D01*
X125613884Y-131760213D01*
X125583991Y-131774351D01*
X125552857Y-131785491D01*
X125520781Y-131793525D01*
X125488071Y-131798377D01*
X125455044Y-131800000D01*
X124328956Y-131800000D01*
X124295929Y-131798377D01*
X124263219Y-131793525D01*
X124231143Y-131785491D01*
X124200009Y-131774351D01*
X124170116Y-131760213D01*
X124141753Y-131743213D01*
X124115193Y-131723515D01*
X124090692Y-131701308D01*
X124068485Y-131676807D01*
X124048787Y-131650247D01*
X124031787Y-131621884D01*
X124017649Y-131591991D01*
X124006509Y-131560857D01*
X123998475Y-131528781D01*
X123993623Y-131496071D01*
X123992000Y-131463044D01*
X123992000Y-130586956D01*
X123993623Y-130553929D01*
X123998475Y-130521219D01*
X124006509Y-130489143D01*
X124017649Y-130458009D01*
X124031787Y-130428116D01*
X124048787Y-130399753D01*
X124068485Y-130373193D01*
X124090692Y-130348692D01*
X124115193Y-130326485D01*
X124141753Y-130306787D01*
X124170116Y-130289787D01*
X124200009Y-130275649D01*
X124231143Y-130264509D01*
X124263219Y-130256475D01*
X124295929Y-130251623D01*
X124328956Y-130250000D01*
X125455044Y-130250000D01*
X125488071Y-130251623D01*
X125488071Y-130251623D01*
G37*
D20*
X124892000Y-131025000D03*
D11*
G36*
X176542071Y-127957623D02*
X176574781Y-127962475D01*
X176606857Y-127970509D01*
X176637991Y-127981649D01*
X176667884Y-127995787D01*
X176696247Y-128012787D01*
X176722807Y-128032485D01*
X176747308Y-128054692D01*
X176769515Y-128079193D01*
X176789213Y-128105753D01*
X176806213Y-128134116D01*
X176820351Y-128164009D01*
X176831491Y-128195143D01*
X176839525Y-128227219D01*
X176844377Y-128259929D01*
X176846000Y-128292956D01*
X176846000Y-129169044D01*
X176844377Y-129202071D01*
X176839525Y-129234781D01*
X176831491Y-129266857D01*
X176820351Y-129297991D01*
X176806213Y-129327884D01*
X176789213Y-129356247D01*
X176769515Y-129382807D01*
X176747308Y-129407308D01*
X176722807Y-129429515D01*
X176696247Y-129449213D01*
X176667884Y-129466213D01*
X176637991Y-129480351D01*
X176606857Y-129491491D01*
X176574781Y-129499525D01*
X176542071Y-129504377D01*
X176509044Y-129506000D01*
X175382956Y-129506000D01*
X175349929Y-129504377D01*
X175317219Y-129499525D01*
X175285143Y-129491491D01*
X175254009Y-129480351D01*
X175224116Y-129466213D01*
X175195753Y-129449213D01*
X175169193Y-129429515D01*
X175144692Y-129407308D01*
X175122485Y-129382807D01*
X175102787Y-129356247D01*
X175085787Y-129327884D01*
X175071649Y-129297991D01*
X175060509Y-129266857D01*
X175052475Y-129234781D01*
X175047623Y-129202071D01*
X175046000Y-129169044D01*
X175046000Y-128292956D01*
X175047623Y-128259929D01*
X175052475Y-128227219D01*
X175060509Y-128195143D01*
X175071649Y-128164009D01*
X175085787Y-128134116D01*
X175102787Y-128105753D01*
X175122485Y-128079193D01*
X175144692Y-128054692D01*
X175169193Y-128032485D01*
X175195753Y-128012787D01*
X175224116Y-127995787D01*
X175254009Y-127981649D01*
X175285143Y-127970509D01*
X175317219Y-127962475D01*
X175349929Y-127957623D01*
X175382956Y-127956000D01*
X176509044Y-127956000D01*
X176542071Y-127957623D01*
X176542071Y-127957623D01*
G37*
D20*
X175946000Y-128731000D03*
D11*
G36*
X176542071Y-130007623D02*
X176574781Y-130012475D01*
X176606857Y-130020509D01*
X176637991Y-130031649D01*
X176667884Y-130045787D01*
X176696247Y-130062787D01*
X176722807Y-130082485D01*
X176747308Y-130104692D01*
X176769515Y-130129193D01*
X176789213Y-130155753D01*
X176806213Y-130184116D01*
X176820351Y-130214009D01*
X176831491Y-130245143D01*
X176839525Y-130277219D01*
X176844377Y-130309929D01*
X176846000Y-130342956D01*
X176846000Y-131219044D01*
X176844377Y-131252071D01*
X176839525Y-131284781D01*
X176831491Y-131316857D01*
X176820351Y-131347991D01*
X176806213Y-131377884D01*
X176789213Y-131406247D01*
X176769515Y-131432807D01*
X176747308Y-131457308D01*
X176722807Y-131479515D01*
X176696247Y-131499213D01*
X176667884Y-131516213D01*
X176637991Y-131530351D01*
X176606857Y-131541491D01*
X176574781Y-131549525D01*
X176542071Y-131554377D01*
X176509044Y-131556000D01*
X175382956Y-131556000D01*
X175349929Y-131554377D01*
X175317219Y-131549525D01*
X175285143Y-131541491D01*
X175254009Y-131530351D01*
X175224116Y-131516213D01*
X175195753Y-131499213D01*
X175169193Y-131479515D01*
X175144692Y-131457308D01*
X175122485Y-131432807D01*
X175102787Y-131406247D01*
X175085787Y-131377884D01*
X175071649Y-131347991D01*
X175060509Y-131316857D01*
X175052475Y-131284781D01*
X175047623Y-131252071D01*
X175046000Y-131219044D01*
X175046000Y-130342956D01*
X175047623Y-130309929D01*
X175052475Y-130277219D01*
X175060509Y-130245143D01*
X175071649Y-130214009D01*
X175085787Y-130184116D01*
X175102787Y-130155753D01*
X175122485Y-130129193D01*
X175144692Y-130104692D01*
X175169193Y-130082485D01*
X175195753Y-130062787D01*
X175224116Y-130045787D01*
X175254009Y-130031649D01*
X175285143Y-130020509D01*
X175317219Y-130012475D01*
X175349929Y-130007623D01*
X175382956Y-130006000D01*
X176509044Y-130006000D01*
X176542071Y-130007623D01*
X176542071Y-130007623D01*
G37*
D20*
X175946000Y-130781000D03*
D11*
G36*
X140220071Y-127957623D02*
X140252781Y-127962475D01*
X140284857Y-127970509D01*
X140315991Y-127981649D01*
X140345884Y-127995787D01*
X140374247Y-128012787D01*
X140400807Y-128032485D01*
X140425308Y-128054692D01*
X140447515Y-128079193D01*
X140467213Y-128105753D01*
X140484213Y-128134116D01*
X140498351Y-128164009D01*
X140509491Y-128195143D01*
X140517525Y-128227219D01*
X140522377Y-128259929D01*
X140524000Y-128292956D01*
X140524000Y-129169044D01*
X140522377Y-129202071D01*
X140517525Y-129234781D01*
X140509491Y-129266857D01*
X140498351Y-129297991D01*
X140484213Y-129327884D01*
X140467213Y-129356247D01*
X140447515Y-129382807D01*
X140425308Y-129407308D01*
X140400807Y-129429515D01*
X140374247Y-129449213D01*
X140345884Y-129466213D01*
X140315991Y-129480351D01*
X140284857Y-129491491D01*
X140252781Y-129499525D01*
X140220071Y-129504377D01*
X140187044Y-129506000D01*
X139060956Y-129506000D01*
X139027929Y-129504377D01*
X138995219Y-129499525D01*
X138963143Y-129491491D01*
X138932009Y-129480351D01*
X138902116Y-129466213D01*
X138873753Y-129449213D01*
X138847193Y-129429515D01*
X138822692Y-129407308D01*
X138800485Y-129382807D01*
X138780787Y-129356247D01*
X138763787Y-129327884D01*
X138749649Y-129297991D01*
X138738509Y-129266857D01*
X138730475Y-129234781D01*
X138725623Y-129202071D01*
X138724000Y-129169044D01*
X138724000Y-128292956D01*
X138725623Y-128259929D01*
X138730475Y-128227219D01*
X138738509Y-128195143D01*
X138749649Y-128164009D01*
X138763787Y-128134116D01*
X138780787Y-128105753D01*
X138800485Y-128079193D01*
X138822692Y-128054692D01*
X138847193Y-128032485D01*
X138873753Y-128012787D01*
X138902116Y-127995787D01*
X138932009Y-127981649D01*
X138963143Y-127970509D01*
X138995219Y-127962475D01*
X139027929Y-127957623D01*
X139060956Y-127956000D01*
X140187044Y-127956000D01*
X140220071Y-127957623D01*
X140220071Y-127957623D01*
G37*
D20*
X139624000Y-128731000D03*
D11*
G36*
X140220071Y-130007623D02*
X140252781Y-130012475D01*
X140284857Y-130020509D01*
X140315991Y-130031649D01*
X140345884Y-130045787D01*
X140374247Y-130062787D01*
X140400807Y-130082485D01*
X140425308Y-130104692D01*
X140447515Y-130129193D01*
X140467213Y-130155753D01*
X140484213Y-130184116D01*
X140498351Y-130214009D01*
X140509491Y-130245143D01*
X140517525Y-130277219D01*
X140522377Y-130309929D01*
X140524000Y-130342956D01*
X140524000Y-131219044D01*
X140522377Y-131252071D01*
X140517525Y-131284781D01*
X140509491Y-131316857D01*
X140498351Y-131347991D01*
X140484213Y-131377884D01*
X140467213Y-131406247D01*
X140447515Y-131432807D01*
X140425308Y-131457308D01*
X140400807Y-131479515D01*
X140374247Y-131499213D01*
X140345884Y-131516213D01*
X140315991Y-131530351D01*
X140284857Y-131541491D01*
X140252781Y-131549525D01*
X140220071Y-131554377D01*
X140187044Y-131556000D01*
X139060956Y-131556000D01*
X139027929Y-131554377D01*
X138995219Y-131549525D01*
X138963143Y-131541491D01*
X138932009Y-131530351D01*
X138902116Y-131516213D01*
X138873753Y-131499213D01*
X138847193Y-131479515D01*
X138822692Y-131457308D01*
X138800485Y-131432807D01*
X138780787Y-131406247D01*
X138763787Y-131377884D01*
X138749649Y-131347991D01*
X138738509Y-131316857D01*
X138730475Y-131284781D01*
X138725623Y-131252071D01*
X138724000Y-131219044D01*
X138724000Y-130342956D01*
X138725623Y-130309929D01*
X138730475Y-130277219D01*
X138738509Y-130245143D01*
X138749649Y-130214009D01*
X138763787Y-130184116D01*
X138780787Y-130155753D01*
X138800485Y-130129193D01*
X138822692Y-130104692D01*
X138847193Y-130082485D01*
X138873753Y-130062787D01*
X138902116Y-130045787D01*
X138932009Y-130031649D01*
X138963143Y-130020509D01*
X138995219Y-130012475D01*
X139027929Y-130007623D01*
X139060956Y-130006000D01*
X140187044Y-130006000D01*
X140220071Y-130007623D01*
X140220071Y-130007623D01*
G37*
D20*
X139624000Y-130781000D03*
D11*
G36*
X139966071Y-107909623D02*
X139998781Y-107914475D01*
X140030857Y-107922509D01*
X140061991Y-107933649D01*
X140091884Y-107947787D01*
X140120247Y-107964787D01*
X140146807Y-107984485D01*
X140171308Y-108006692D01*
X140193515Y-108031193D01*
X140213213Y-108057753D01*
X140230213Y-108086116D01*
X140244351Y-108116009D01*
X140255491Y-108147143D01*
X140263525Y-108179219D01*
X140268377Y-108211929D01*
X140270000Y-108244956D01*
X140270000Y-109121044D01*
X140268377Y-109154071D01*
X140263525Y-109186781D01*
X140255491Y-109218857D01*
X140244351Y-109249991D01*
X140230213Y-109279884D01*
X140213213Y-109308247D01*
X140193515Y-109334807D01*
X140171308Y-109359308D01*
X140146807Y-109381515D01*
X140120247Y-109401213D01*
X140091884Y-109418213D01*
X140061991Y-109432351D01*
X140030857Y-109443491D01*
X139998781Y-109451525D01*
X139966071Y-109456377D01*
X139933044Y-109458000D01*
X138806956Y-109458000D01*
X138773929Y-109456377D01*
X138741219Y-109451525D01*
X138709143Y-109443491D01*
X138678009Y-109432351D01*
X138648116Y-109418213D01*
X138619753Y-109401213D01*
X138593193Y-109381515D01*
X138568692Y-109359308D01*
X138546485Y-109334807D01*
X138526787Y-109308247D01*
X138509787Y-109279884D01*
X138495649Y-109249991D01*
X138484509Y-109218857D01*
X138476475Y-109186781D01*
X138471623Y-109154071D01*
X138470000Y-109121044D01*
X138470000Y-108244956D01*
X138471623Y-108211929D01*
X138476475Y-108179219D01*
X138484509Y-108147143D01*
X138495649Y-108116009D01*
X138509787Y-108086116D01*
X138526787Y-108057753D01*
X138546485Y-108031193D01*
X138568692Y-108006692D01*
X138593193Y-107984485D01*
X138619753Y-107964787D01*
X138648116Y-107947787D01*
X138678009Y-107933649D01*
X138709143Y-107922509D01*
X138741219Y-107914475D01*
X138773929Y-107909623D01*
X138806956Y-107908000D01*
X139933044Y-107908000D01*
X139966071Y-107909623D01*
X139966071Y-107909623D01*
G37*
D20*
X139370000Y-108683000D03*
D11*
G36*
X139966071Y-105859623D02*
X139998781Y-105864475D01*
X140030857Y-105872509D01*
X140061991Y-105883649D01*
X140091884Y-105897787D01*
X140120247Y-105914787D01*
X140146807Y-105934485D01*
X140171308Y-105956692D01*
X140193515Y-105981193D01*
X140213213Y-106007753D01*
X140230213Y-106036116D01*
X140244351Y-106066009D01*
X140255491Y-106097143D01*
X140263525Y-106129219D01*
X140268377Y-106161929D01*
X140270000Y-106194956D01*
X140270000Y-107071044D01*
X140268377Y-107104071D01*
X140263525Y-107136781D01*
X140255491Y-107168857D01*
X140244351Y-107199991D01*
X140230213Y-107229884D01*
X140213213Y-107258247D01*
X140193515Y-107284807D01*
X140171308Y-107309308D01*
X140146807Y-107331515D01*
X140120247Y-107351213D01*
X140091884Y-107368213D01*
X140061991Y-107382351D01*
X140030857Y-107393491D01*
X139998781Y-107401525D01*
X139966071Y-107406377D01*
X139933044Y-107408000D01*
X138806956Y-107408000D01*
X138773929Y-107406377D01*
X138741219Y-107401525D01*
X138709143Y-107393491D01*
X138678009Y-107382351D01*
X138648116Y-107368213D01*
X138619753Y-107351213D01*
X138593193Y-107331515D01*
X138568692Y-107309308D01*
X138546485Y-107284807D01*
X138526787Y-107258247D01*
X138509787Y-107229884D01*
X138495649Y-107199991D01*
X138484509Y-107168857D01*
X138476475Y-107136781D01*
X138471623Y-107104071D01*
X138470000Y-107071044D01*
X138470000Y-106194956D01*
X138471623Y-106161929D01*
X138476475Y-106129219D01*
X138484509Y-106097143D01*
X138495649Y-106066009D01*
X138509787Y-106036116D01*
X138526787Y-106007753D01*
X138546485Y-105981193D01*
X138568692Y-105956692D01*
X138593193Y-105934485D01*
X138619753Y-105914787D01*
X138648116Y-105897787D01*
X138678009Y-105883649D01*
X138709143Y-105872509D01*
X138741219Y-105864475D01*
X138773929Y-105859623D01*
X138806956Y-105858000D01*
X139933044Y-105858000D01*
X139966071Y-105859623D01*
X139966071Y-105859623D01*
G37*
D20*
X139370000Y-106633000D03*
D11*
G36*
X191020071Y-105605623D02*
X191052781Y-105610475D01*
X191084857Y-105618509D01*
X191115991Y-105629649D01*
X191145884Y-105643787D01*
X191174247Y-105660787D01*
X191200807Y-105680485D01*
X191225308Y-105702692D01*
X191247515Y-105727193D01*
X191267213Y-105753753D01*
X191284213Y-105782116D01*
X191298351Y-105812009D01*
X191309491Y-105843143D01*
X191317525Y-105875219D01*
X191322377Y-105907929D01*
X191324000Y-105940956D01*
X191324000Y-106817044D01*
X191322377Y-106850071D01*
X191317525Y-106882781D01*
X191309491Y-106914857D01*
X191298351Y-106945991D01*
X191284213Y-106975884D01*
X191267213Y-107004247D01*
X191247515Y-107030807D01*
X191225308Y-107055308D01*
X191200807Y-107077515D01*
X191174247Y-107097213D01*
X191145884Y-107114213D01*
X191115991Y-107128351D01*
X191084857Y-107139491D01*
X191052781Y-107147525D01*
X191020071Y-107152377D01*
X190987044Y-107154000D01*
X189860956Y-107154000D01*
X189827929Y-107152377D01*
X189795219Y-107147525D01*
X189763143Y-107139491D01*
X189732009Y-107128351D01*
X189702116Y-107114213D01*
X189673753Y-107097213D01*
X189647193Y-107077515D01*
X189622692Y-107055308D01*
X189600485Y-107030807D01*
X189580787Y-107004247D01*
X189563787Y-106975884D01*
X189549649Y-106945991D01*
X189538509Y-106914857D01*
X189530475Y-106882781D01*
X189525623Y-106850071D01*
X189524000Y-106817044D01*
X189524000Y-105940956D01*
X189525623Y-105907929D01*
X189530475Y-105875219D01*
X189538509Y-105843143D01*
X189549649Y-105812009D01*
X189563787Y-105782116D01*
X189580787Y-105753753D01*
X189600485Y-105727193D01*
X189622692Y-105702692D01*
X189647193Y-105680485D01*
X189673753Y-105660787D01*
X189702116Y-105643787D01*
X189732009Y-105629649D01*
X189763143Y-105618509D01*
X189795219Y-105610475D01*
X189827929Y-105605623D01*
X189860956Y-105604000D01*
X190987044Y-105604000D01*
X191020071Y-105605623D01*
X191020071Y-105605623D01*
G37*
D20*
X190424000Y-106379000D03*
D11*
G36*
X191020071Y-107655623D02*
X191052781Y-107660475D01*
X191084857Y-107668509D01*
X191115991Y-107679649D01*
X191145884Y-107693787D01*
X191174247Y-107710787D01*
X191200807Y-107730485D01*
X191225308Y-107752692D01*
X191247515Y-107777193D01*
X191267213Y-107803753D01*
X191284213Y-107832116D01*
X191298351Y-107862009D01*
X191309491Y-107893143D01*
X191317525Y-107925219D01*
X191322377Y-107957929D01*
X191324000Y-107990956D01*
X191324000Y-108867044D01*
X191322377Y-108900071D01*
X191317525Y-108932781D01*
X191309491Y-108964857D01*
X191298351Y-108995991D01*
X191284213Y-109025884D01*
X191267213Y-109054247D01*
X191247515Y-109080807D01*
X191225308Y-109105308D01*
X191200807Y-109127515D01*
X191174247Y-109147213D01*
X191145884Y-109164213D01*
X191115991Y-109178351D01*
X191084857Y-109189491D01*
X191052781Y-109197525D01*
X191020071Y-109202377D01*
X190987044Y-109204000D01*
X189860956Y-109204000D01*
X189827929Y-109202377D01*
X189795219Y-109197525D01*
X189763143Y-109189491D01*
X189732009Y-109178351D01*
X189702116Y-109164213D01*
X189673753Y-109147213D01*
X189647193Y-109127515D01*
X189622692Y-109105308D01*
X189600485Y-109080807D01*
X189580787Y-109054247D01*
X189563787Y-109025884D01*
X189549649Y-108995991D01*
X189538509Y-108964857D01*
X189530475Y-108932781D01*
X189525623Y-108900071D01*
X189524000Y-108867044D01*
X189524000Y-107990956D01*
X189525623Y-107957929D01*
X189530475Y-107925219D01*
X189538509Y-107893143D01*
X189549649Y-107862009D01*
X189563787Y-107832116D01*
X189580787Y-107803753D01*
X189600485Y-107777193D01*
X189622692Y-107752692D01*
X189647193Y-107730485D01*
X189673753Y-107710787D01*
X189702116Y-107693787D01*
X189732009Y-107679649D01*
X189763143Y-107668509D01*
X189795219Y-107660475D01*
X189827929Y-107655623D01*
X189860956Y-107654000D01*
X190987044Y-107654000D01*
X191020071Y-107655623D01*
X191020071Y-107655623D01*
G37*
D20*
X190424000Y-108429000D03*
D11*
G36*
X161810071Y-130261623D02*
X161842781Y-130266475D01*
X161874857Y-130274509D01*
X161905991Y-130285649D01*
X161935884Y-130299787D01*
X161964247Y-130316787D01*
X161990807Y-130336485D01*
X162015308Y-130358692D01*
X162037515Y-130383193D01*
X162057213Y-130409753D01*
X162074213Y-130438116D01*
X162088351Y-130468009D01*
X162099491Y-130499143D01*
X162107525Y-130531219D01*
X162112377Y-130563929D01*
X162114000Y-130596956D01*
X162114000Y-131473044D01*
X162112377Y-131506071D01*
X162107525Y-131538781D01*
X162099491Y-131570857D01*
X162088351Y-131601991D01*
X162074213Y-131631884D01*
X162057213Y-131660247D01*
X162037515Y-131686807D01*
X162015308Y-131711308D01*
X161990807Y-131733515D01*
X161964247Y-131753213D01*
X161935884Y-131770213D01*
X161905991Y-131784351D01*
X161874857Y-131795491D01*
X161842781Y-131803525D01*
X161810071Y-131808377D01*
X161777044Y-131810000D01*
X160650956Y-131810000D01*
X160617929Y-131808377D01*
X160585219Y-131803525D01*
X160553143Y-131795491D01*
X160522009Y-131784351D01*
X160492116Y-131770213D01*
X160463753Y-131753213D01*
X160437193Y-131733515D01*
X160412692Y-131711308D01*
X160390485Y-131686807D01*
X160370787Y-131660247D01*
X160353787Y-131631884D01*
X160339649Y-131601991D01*
X160328509Y-131570857D01*
X160320475Y-131538781D01*
X160315623Y-131506071D01*
X160314000Y-131473044D01*
X160314000Y-130596956D01*
X160315623Y-130563929D01*
X160320475Y-130531219D01*
X160328509Y-130499143D01*
X160339649Y-130468009D01*
X160353787Y-130438116D01*
X160370787Y-130409753D01*
X160390485Y-130383193D01*
X160412692Y-130358692D01*
X160437193Y-130336485D01*
X160463753Y-130316787D01*
X160492116Y-130299787D01*
X160522009Y-130285649D01*
X160553143Y-130274509D01*
X160585219Y-130266475D01*
X160617929Y-130261623D01*
X160650956Y-130260000D01*
X161777044Y-130260000D01*
X161810071Y-130261623D01*
X161810071Y-130261623D01*
G37*
D20*
X161214000Y-131035000D03*
D11*
G36*
X161810071Y-128211623D02*
X161842781Y-128216475D01*
X161874857Y-128224509D01*
X161905991Y-128235649D01*
X161935884Y-128249787D01*
X161964247Y-128266787D01*
X161990807Y-128286485D01*
X162015308Y-128308692D01*
X162037515Y-128333193D01*
X162057213Y-128359753D01*
X162074213Y-128388116D01*
X162088351Y-128418009D01*
X162099491Y-128449143D01*
X162107525Y-128481219D01*
X162112377Y-128513929D01*
X162114000Y-128546956D01*
X162114000Y-129423044D01*
X162112377Y-129456071D01*
X162107525Y-129488781D01*
X162099491Y-129520857D01*
X162088351Y-129551991D01*
X162074213Y-129581884D01*
X162057213Y-129610247D01*
X162037515Y-129636807D01*
X162015308Y-129661308D01*
X161990807Y-129683515D01*
X161964247Y-129703213D01*
X161935884Y-129720213D01*
X161905991Y-129734351D01*
X161874857Y-129745491D01*
X161842781Y-129753525D01*
X161810071Y-129758377D01*
X161777044Y-129760000D01*
X160650956Y-129760000D01*
X160617929Y-129758377D01*
X160585219Y-129753525D01*
X160553143Y-129745491D01*
X160522009Y-129734351D01*
X160492116Y-129720213D01*
X160463753Y-129703213D01*
X160437193Y-129683515D01*
X160412692Y-129661308D01*
X160390485Y-129636807D01*
X160370787Y-129610247D01*
X160353787Y-129581884D01*
X160339649Y-129551991D01*
X160328509Y-129520857D01*
X160320475Y-129488781D01*
X160315623Y-129456071D01*
X160314000Y-129423044D01*
X160314000Y-128546956D01*
X160315623Y-128513929D01*
X160320475Y-128481219D01*
X160328509Y-128449143D01*
X160339649Y-128418009D01*
X160353787Y-128388116D01*
X160370787Y-128359753D01*
X160390485Y-128333193D01*
X160412692Y-128308692D01*
X160437193Y-128286485D01*
X160463753Y-128266787D01*
X160492116Y-128249787D01*
X160522009Y-128235649D01*
X160553143Y-128224509D01*
X160585219Y-128216475D01*
X160617929Y-128211623D01*
X160650956Y-128210000D01*
X161777044Y-128210000D01*
X161810071Y-128211623D01*
X161810071Y-128211623D01*
G37*
D20*
X161214000Y-128985000D03*
D11*
G36*
X125488071Y-134325623D02*
X125520781Y-134330475D01*
X125552857Y-134338509D01*
X125583991Y-134349649D01*
X125613884Y-134363787D01*
X125642247Y-134380787D01*
X125668807Y-134400485D01*
X125693308Y-134422692D01*
X125715515Y-134447193D01*
X125735213Y-134473753D01*
X125752213Y-134502116D01*
X125766351Y-134532009D01*
X125777491Y-134563143D01*
X125785525Y-134595219D01*
X125790377Y-134627929D01*
X125792000Y-134660956D01*
X125792000Y-135537044D01*
X125790377Y-135570071D01*
X125785525Y-135602781D01*
X125777491Y-135634857D01*
X125766351Y-135665991D01*
X125752213Y-135695884D01*
X125735213Y-135724247D01*
X125715515Y-135750807D01*
X125693308Y-135775308D01*
X125668807Y-135797515D01*
X125642247Y-135817213D01*
X125613884Y-135834213D01*
X125583991Y-135848351D01*
X125552857Y-135859491D01*
X125520781Y-135867525D01*
X125488071Y-135872377D01*
X125455044Y-135874000D01*
X124328956Y-135874000D01*
X124295929Y-135872377D01*
X124263219Y-135867525D01*
X124231143Y-135859491D01*
X124200009Y-135848351D01*
X124170116Y-135834213D01*
X124141753Y-135817213D01*
X124115193Y-135797515D01*
X124090692Y-135775308D01*
X124068485Y-135750807D01*
X124048787Y-135724247D01*
X124031787Y-135695884D01*
X124017649Y-135665991D01*
X124006509Y-135634857D01*
X123998475Y-135602781D01*
X123993623Y-135570071D01*
X123992000Y-135537044D01*
X123992000Y-134660956D01*
X123993623Y-134627929D01*
X123998475Y-134595219D01*
X124006509Y-134563143D01*
X124017649Y-134532009D01*
X124031787Y-134502116D01*
X124048787Y-134473753D01*
X124068485Y-134447193D01*
X124090692Y-134422692D01*
X124115193Y-134400485D01*
X124141753Y-134380787D01*
X124170116Y-134363787D01*
X124200009Y-134349649D01*
X124231143Y-134338509D01*
X124263219Y-134330475D01*
X124295929Y-134325623D01*
X124328956Y-134324000D01*
X125455044Y-134324000D01*
X125488071Y-134325623D01*
X125488071Y-134325623D01*
G37*
D20*
X124892000Y-135099000D03*
D11*
G36*
X125488071Y-132275623D02*
X125520781Y-132280475D01*
X125552857Y-132288509D01*
X125583991Y-132299649D01*
X125613884Y-132313787D01*
X125642247Y-132330787D01*
X125668807Y-132350485D01*
X125693308Y-132372692D01*
X125715515Y-132397193D01*
X125735213Y-132423753D01*
X125752213Y-132452116D01*
X125766351Y-132482009D01*
X125777491Y-132513143D01*
X125785525Y-132545219D01*
X125790377Y-132577929D01*
X125792000Y-132610956D01*
X125792000Y-133487044D01*
X125790377Y-133520071D01*
X125785525Y-133552781D01*
X125777491Y-133584857D01*
X125766351Y-133615991D01*
X125752213Y-133645884D01*
X125735213Y-133674247D01*
X125715515Y-133700807D01*
X125693308Y-133725308D01*
X125668807Y-133747515D01*
X125642247Y-133767213D01*
X125613884Y-133784213D01*
X125583991Y-133798351D01*
X125552857Y-133809491D01*
X125520781Y-133817525D01*
X125488071Y-133822377D01*
X125455044Y-133824000D01*
X124328956Y-133824000D01*
X124295929Y-133822377D01*
X124263219Y-133817525D01*
X124231143Y-133809491D01*
X124200009Y-133798351D01*
X124170116Y-133784213D01*
X124141753Y-133767213D01*
X124115193Y-133747515D01*
X124090692Y-133725308D01*
X124068485Y-133700807D01*
X124048787Y-133674247D01*
X124031787Y-133645884D01*
X124017649Y-133615991D01*
X124006509Y-133584857D01*
X123998475Y-133552781D01*
X123993623Y-133520071D01*
X123992000Y-133487044D01*
X123992000Y-132610956D01*
X123993623Y-132577929D01*
X123998475Y-132545219D01*
X124006509Y-132513143D01*
X124017649Y-132482009D01*
X124031787Y-132452116D01*
X124048787Y-132423753D01*
X124068485Y-132397193D01*
X124090692Y-132372692D01*
X124115193Y-132350485D01*
X124141753Y-132330787D01*
X124170116Y-132313787D01*
X124200009Y-132299649D01*
X124231143Y-132288509D01*
X124263219Y-132280475D01*
X124295929Y-132275623D01*
X124328956Y-132274000D01*
X125455044Y-132274000D01*
X125488071Y-132275623D01*
X125488071Y-132275623D01*
G37*
D20*
X124892000Y-133049000D03*
D11*
G36*
X176542071Y-132275623D02*
X176574781Y-132280475D01*
X176606857Y-132288509D01*
X176637991Y-132299649D01*
X176667884Y-132313787D01*
X176696247Y-132330787D01*
X176722807Y-132350485D01*
X176747308Y-132372692D01*
X176769515Y-132397193D01*
X176789213Y-132423753D01*
X176806213Y-132452116D01*
X176820351Y-132482009D01*
X176831491Y-132513143D01*
X176839525Y-132545219D01*
X176844377Y-132577929D01*
X176846000Y-132610956D01*
X176846000Y-133487044D01*
X176844377Y-133520071D01*
X176839525Y-133552781D01*
X176831491Y-133584857D01*
X176820351Y-133615991D01*
X176806213Y-133645884D01*
X176789213Y-133674247D01*
X176769515Y-133700807D01*
X176747308Y-133725308D01*
X176722807Y-133747515D01*
X176696247Y-133767213D01*
X176667884Y-133784213D01*
X176637991Y-133798351D01*
X176606857Y-133809491D01*
X176574781Y-133817525D01*
X176542071Y-133822377D01*
X176509044Y-133824000D01*
X175382956Y-133824000D01*
X175349929Y-133822377D01*
X175317219Y-133817525D01*
X175285143Y-133809491D01*
X175254009Y-133798351D01*
X175224116Y-133784213D01*
X175195753Y-133767213D01*
X175169193Y-133747515D01*
X175144692Y-133725308D01*
X175122485Y-133700807D01*
X175102787Y-133674247D01*
X175085787Y-133645884D01*
X175071649Y-133615991D01*
X175060509Y-133584857D01*
X175052475Y-133552781D01*
X175047623Y-133520071D01*
X175046000Y-133487044D01*
X175046000Y-132610956D01*
X175047623Y-132577929D01*
X175052475Y-132545219D01*
X175060509Y-132513143D01*
X175071649Y-132482009D01*
X175085787Y-132452116D01*
X175102787Y-132423753D01*
X175122485Y-132397193D01*
X175144692Y-132372692D01*
X175169193Y-132350485D01*
X175195753Y-132330787D01*
X175224116Y-132313787D01*
X175254009Y-132299649D01*
X175285143Y-132288509D01*
X175317219Y-132280475D01*
X175349929Y-132275623D01*
X175382956Y-132274000D01*
X176509044Y-132274000D01*
X176542071Y-132275623D01*
X176542071Y-132275623D01*
G37*
D20*
X175946000Y-133049000D03*
D11*
G36*
X176542071Y-134325623D02*
X176574781Y-134330475D01*
X176606857Y-134338509D01*
X176637991Y-134349649D01*
X176667884Y-134363787D01*
X176696247Y-134380787D01*
X176722807Y-134400485D01*
X176747308Y-134422692D01*
X176769515Y-134447193D01*
X176789213Y-134473753D01*
X176806213Y-134502116D01*
X176820351Y-134532009D01*
X176831491Y-134563143D01*
X176839525Y-134595219D01*
X176844377Y-134627929D01*
X176846000Y-134660956D01*
X176846000Y-135537044D01*
X176844377Y-135570071D01*
X176839525Y-135602781D01*
X176831491Y-135634857D01*
X176820351Y-135665991D01*
X176806213Y-135695884D01*
X176789213Y-135724247D01*
X176769515Y-135750807D01*
X176747308Y-135775308D01*
X176722807Y-135797515D01*
X176696247Y-135817213D01*
X176667884Y-135834213D01*
X176637991Y-135848351D01*
X176606857Y-135859491D01*
X176574781Y-135867525D01*
X176542071Y-135872377D01*
X176509044Y-135874000D01*
X175382956Y-135874000D01*
X175349929Y-135872377D01*
X175317219Y-135867525D01*
X175285143Y-135859491D01*
X175254009Y-135848351D01*
X175224116Y-135834213D01*
X175195753Y-135817213D01*
X175169193Y-135797515D01*
X175144692Y-135775308D01*
X175122485Y-135750807D01*
X175102787Y-135724247D01*
X175085787Y-135695884D01*
X175071649Y-135665991D01*
X175060509Y-135634857D01*
X175052475Y-135602781D01*
X175047623Y-135570071D01*
X175046000Y-135537044D01*
X175046000Y-134660956D01*
X175047623Y-134627929D01*
X175052475Y-134595219D01*
X175060509Y-134563143D01*
X175071649Y-134532009D01*
X175085787Y-134502116D01*
X175102787Y-134473753D01*
X175122485Y-134447193D01*
X175144692Y-134422692D01*
X175169193Y-134400485D01*
X175195753Y-134380787D01*
X175224116Y-134363787D01*
X175254009Y-134349649D01*
X175285143Y-134338509D01*
X175317219Y-134330475D01*
X175349929Y-134325623D01*
X175382956Y-134324000D01*
X176509044Y-134324000D01*
X176542071Y-134325623D01*
X176542071Y-134325623D01*
G37*
D20*
X175946000Y-135099000D03*
D11*
G36*
X161810071Y-134325623D02*
X161842781Y-134330475D01*
X161874857Y-134338509D01*
X161905991Y-134349649D01*
X161935884Y-134363787D01*
X161964247Y-134380787D01*
X161990807Y-134400485D01*
X162015308Y-134422692D01*
X162037515Y-134447193D01*
X162057213Y-134473753D01*
X162074213Y-134502116D01*
X162088351Y-134532009D01*
X162099491Y-134563143D01*
X162107525Y-134595219D01*
X162112377Y-134627929D01*
X162114000Y-134660956D01*
X162114000Y-135537044D01*
X162112377Y-135570071D01*
X162107525Y-135602781D01*
X162099491Y-135634857D01*
X162088351Y-135665991D01*
X162074213Y-135695884D01*
X162057213Y-135724247D01*
X162037515Y-135750807D01*
X162015308Y-135775308D01*
X161990807Y-135797515D01*
X161964247Y-135817213D01*
X161935884Y-135834213D01*
X161905991Y-135848351D01*
X161874857Y-135859491D01*
X161842781Y-135867525D01*
X161810071Y-135872377D01*
X161777044Y-135874000D01*
X160650956Y-135874000D01*
X160617929Y-135872377D01*
X160585219Y-135867525D01*
X160553143Y-135859491D01*
X160522009Y-135848351D01*
X160492116Y-135834213D01*
X160463753Y-135817213D01*
X160437193Y-135797515D01*
X160412692Y-135775308D01*
X160390485Y-135750807D01*
X160370787Y-135724247D01*
X160353787Y-135695884D01*
X160339649Y-135665991D01*
X160328509Y-135634857D01*
X160320475Y-135602781D01*
X160315623Y-135570071D01*
X160314000Y-135537044D01*
X160314000Y-134660956D01*
X160315623Y-134627929D01*
X160320475Y-134595219D01*
X160328509Y-134563143D01*
X160339649Y-134532009D01*
X160353787Y-134502116D01*
X160370787Y-134473753D01*
X160390485Y-134447193D01*
X160412692Y-134422692D01*
X160437193Y-134400485D01*
X160463753Y-134380787D01*
X160492116Y-134363787D01*
X160522009Y-134349649D01*
X160553143Y-134338509D01*
X160585219Y-134330475D01*
X160617929Y-134325623D01*
X160650956Y-134324000D01*
X161777044Y-134324000D01*
X161810071Y-134325623D01*
X161810071Y-134325623D01*
G37*
D20*
X161214000Y-135099000D03*
D11*
G36*
X161810071Y-132275623D02*
X161842781Y-132280475D01*
X161874857Y-132288509D01*
X161905991Y-132299649D01*
X161935884Y-132313787D01*
X161964247Y-132330787D01*
X161990807Y-132350485D01*
X162015308Y-132372692D01*
X162037515Y-132397193D01*
X162057213Y-132423753D01*
X162074213Y-132452116D01*
X162088351Y-132482009D01*
X162099491Y-132513143D01*
X162107525Y-132545219D01*
X162112377Y-132577929D01*
X162114000Y-132610956D01*
X162114000Y-133487044D01*
X162112377Y-133520071D01*
X162107525Y-133552781D01*
X162099491Y-133584857D01*
X162088351Y-133615991D01*
X162074213Y-133645884D01*
X162057213Y-133674247D01*
X162037515Y-133700807D01*
X162015308Y-133725308D01*
X161990807Y-133747515D01*
X161964247Y-133767213D01*
X161935884Y-133784213D01*
X161905991Y-133798351D01*
X161874857Y-133809491D01*
X161842781Y-133817525D01*
X161810071Y-133822377D01*
X161777044Y-133824000D01*
X160650956Y-133824000D01*
X160617929Y-133822377D01*
X160585219Y-133817525D01*
X160553143Y-133809491D01*
X160522009Y-133798351D01*
X160492116Y-133784213D01*
X160463753Y-133767213D01*
X160437193Y-133747515D01*
X160412692Y-133725308D01*
X160390485Y-133700807D01*
X160370787Y-133674247D01*
X160353787Y-133645884D01*
X160339649Y-133615991D01*
X160328509Y-133584857D01*
X160320475Y-133552781D01*
X160315623Y-133520071D01*
X160314000Y-133487044D01*
X160314000Y-132610956D01*
X160315623Y-132577929D01*
X160320475Y-132545219D01*
X160328509Y-132513143D01*
X160339649Y-132482009D01*
X160353787Y-132452116D01*
X160370787Y-132423753D01*
X160390485Y-132397193D01*
X160412692Y-132372692D01*
X160437193Y-132350485D01*
X160463753Y-132330787D01*
X160492116Y-132313787D01*
X160522009Y-132299649D01*
X160553143Y-132288509D01*
X160585219Y-132280475D01*
X160617929Y-132275623D01*
X160650956Y-132274000D01*
X161777044Y-132274000D01*
X161810071Y-132275623D01*
X161810071Y-132275623D01*
G37*
D20*
X161214000Y-133049000D03*
D11*
G36*
X121205121Y-62567520D02*
X121236857Y-62572228D01*
X121267978Y-62580023D01*
X121298185Y-62590832D01*
X121327187Y-62604549D01*
X121354706Y-62621042D01*
X121380475Y-62640154D01*
X121404246Y-62661700D01*
X121425792Y-62685471D01*
X121444904Y-62711240D01*
X121461397Y-62738759D01*
X121475114Y-62767761D01*
X121485923Y-62797968D01*
X121493718Y-62829089D01*
X121498426Y-62860825D01*
X121500000Y-62892869D01*
X121500000Y-63939023D01*
X121498426Y-63971067D01*
X121493718Y-64002803D01*
X121485923Y-64033924D01*
X121475114Y-64064131D01*
X121461397Y-64093133D01*
X121444904Y-64120652D01*
X121425792Y-64146421D01*
X121404246Y-64170192D01*
X121380475Y-64191738D01*
X121354706Y-64210850D01*
X121327187Y-64227343D01*
X121298185Y-64241060D01*
X121267978Y-64251869D01*
X121236857Y-64259664D01*
X121205121Y-64264372D01*
X121173077Y-64265946D01*
X118026923Y-64265946D01*
X117994879Y-64264372D01*
X117963143Y-64259664D01*
X117932022Y-64251869D01*
X117901815Y-64241060D01*
X117872813Y-64227343D01*
X117845294Y-64210850D01*
X117819525Y-64191738D01*
X117795754Y-64170192D01*
X117774208Y-64146421D01*
X117755096Y-64120652D01*
X117738603Y-64093133D01*
X117724886Y-64064131D01*
X117714077Y-64033924D01*
X117706282Y-64002803D01*
X117701574Y-63971067D01*
X117700000Y-63939023D01*
X117700000Y-62892869D01*
X117701574Y-62860825D01*
X117706282Y-62829089D01*
X117714077Y-62797968D01*
X117724886Y-62767761D01*
X117738603Y-62738759D01*
X117755096Y-62711240D01*
X117774208Y-62685471D01*
X117795754Y-62661700D01*
X117819525Y-62640154D01*
X117845294Y-62621042D01*
X117872813Y-62604549D01*
X117901815Y-62590832D01*
X117932022Y-62580023D01*
X117963143Y-62572228D01*
X117994879Y-62567520D01*
X118026923Y-62565946D01*
X121173077Y-62565946D01*
X121205121Y-62567520D01*
X121205121Y-62567520D01*
G37*
D15*
X119600000Y-63415946D03*
D11*
G36*
X121205121Y-67017520D02*
X121236857Y-67022228D01*
X121267978Y-67030023D01*
X121298185Y-67040832D01*
X121327187Y-67054549D01*
X121354706Y-67071042D01*
X121380475Y-67090154D01*
X121404246Y-67111700D01*
X121425792Y-67135471D01*
X121444904Y-67161240D01*
X121461397Y-67188759D01*
X121475114Y-67217761D01*
X121485923Y-67247968D01*
X121493718Y-67279089D01*
X121498426Y-67310825D01*
X121500000Y-67342869D01*
X121500000Y-68389023D01*
X121498426Y-68421067D01*
X121493718Y-68452803D01*
X121485923Y-68483924D01*
X121475114Y-68514131D01*
X121461397Y-68543133D01*
X121444904Y-68570652D01*
X121425792Y-68596421D01*
X121404246Y-68620192D01*
X121380475Y-68641738D01*
X121354706Y-68660850D01*
X121327187Y-68677343D01*
X121298185Y-68691060D01*
X121267978Y-68701869D01*
X121236857Y-68709664D01*
X121205121Y-68714372D01*
X121173077Y-68715946D01*
X118026923Y-68715946D01*
X117994879Y-68714372D01*
X117963143Y-68709664D01*
X117932022Y-68701869D01*
X117901815Y-68691060D01*
X117872813Y-68677343D01*
X117845294Y-68660850D01*
X117819525Y-68641738D01*
X117795754Y-68620192D01*
X117774208Y-68596421D01*
X117755096Y-68570652D01*
X117738603Y-68543133D01*
X117724886Y-68514131D01*
X117714077Y-68483924D01*
X117706282Y-68452803D01*
X117701574Y-68421067D01*
X117700000Y-68389023D01*
X117700000Y-67342869D01*
X117701574Y-67310825D01*
X117706282Y-67279089D01*
X117714077Y-67247968D01*
X117724886Y-67217761D01*
X117738603Y-67188759D01*
X117755096Y-67161240D01*
X117774208Y-67135471D01*
X117795754Y-67111700D01*
X117819525Y-67090154D01*
X117845294Y-67071042D01*
X117872813Y-67054549D01*
X117901815Y-67040832D01*
X117932022Y-67030023D01*
X117963143Y-67022228D01*
X117994879Y-67017520D01*
X118026923Y-67015946D01*
X121173077Y-67015946D01*
X121205121Y-67017520D01*
X121205121Y-67017520D01*
G37*
D15*
X119600000Y-67865946D03*
D23*
X156539740Y-78499100D03*
X156539740Y-67500900D03*
X150540260Y-78499100D03*
X150540260Y-67500900D03*
X168269740Y-78499100D03*
X168269740Y-67500900D03*
X162270260Y-78499100D03*
X162270260Y-67500900D03*
X138000260Y-67500900D03*
X138000260Y-78499100D03*
X143999740Y-67500900D03*
X143999740Y-78499100D03*
D24*
X177000000Y-56000000D03*
D25*
X182000000Y-56000000D03*
X193000000Y-56000000D03*
D24*
X188000000Y-56000000D03*
D26*
X194000000Y-73000000D03*
D27*
X194000000Y-68000000D03*
D25*
X114000000Y-55816585D03*
D24*
X109000000Y-55816585D03*
X104000000Y-55816585D03*
X120553224Y-55816585D03*
X125553224Y-55816585D03*
D25*
X130553224Y-55816585D03*
D26*
X194000000Y-89000000D03*
D27*
X194000000Y-84000000D03*
X194000000Y-79000000D03*
D19*
X128000000Y-66700000D03*
X125950000Y-74200000D03*
X122796854Y-66700000D03*
X120746854Y-74200000D03*
D28*
X151000000Y-53000000D03*
D29*
X153540000Y-53000000D03*
X156080000Y-53000000D03*
D28*
X162730000Y-53000000D03*
D29*
X165270000Y-53000000D03*
X167810000Y-53000000D03*
X143540000Y-53000000D03*
X141000000Y-53000000D03*
D28*
X138460000Y-53000000D03*
D30*
X134000000Y-65840000D03*
D31*
X134000000Y-76000000D03*
X173324696Y-91089161D03*
D30*
X173324696Y-80929161D03*
D31*
X116000000Y-66000000D03*
D30*
X116000000Y-76160000D03*
D11*
G36*
X198496071Y-55101623D02*
X198528781Y-55106475D01*
X198560857Y-55114509D01*
X198591991Y-55125649D01*
X198621884Y-55139787D01*
X198650247Y-55156787D01*
X198676807Y-55176485D01*
X198701308Y-55198692D01*
X198723515Y-55223193D01*
X198743213Y-55249753D01*
X198760213Y-55278116D01*
X198774351Y-55308009D01*
X198785491Y-55339143D01*
X198793525Y-55371219D01*
X198798377Y-55403929D01*
X198800000Y-55436956D01*
X198800000Y-56563044D01*
X198798377Y-56596071D01*
X198793525Y-56628781D01*
X198785491Y-56660857D01*
X198774351Y-56691991D01*
X198760213Y-56721884D01*
X198743213Y-56750247D01*
X198723515Y-56776807D01*
X198701308Y-56801308D01*
X198676807Y-56823515D01*
X198650247Y-56843213D01*
X198621884Y-56860213D01*
X198591991Y-56874351D01*
X198560857Y-56885491D01*
X198528781Y-56893525D01*
X198496071Y-56898377D01*
X198463044Y-56900000D01*
X197586956Y-56900000D01*
X197553929Y-56898377D01*
X197521219Y-56893525D01*
X197489143Y-56885491D01*
X197458009Y-56874351D01*
X197428116Y-56860213D01*
X197399753Y-56843213D01*
X197373193Y-56823515D01*
X197348692Y-56801308D01*
X197326485Y-56776807D01*
X197306787Y-56750247D01*
X197289787Y-56721884D01*
X197275649Y-56691991D01*
X197264509Y-56660857D01*
X197256475Y-56628781D01*
X197251623Y-56596071D01*
X197250000Y-56563044D01*
X197250000Y-55436956D01*
X197251623Y-55403929D01*
X197256475Y-55371219D01*
X197264509Y-55339143D01*
X197275649Y-55308009D01*
X197289787Y-55278116D01*
X197306787Y-55249753D01*
X197326485Y-55223193D01*
X197348692Y-55198692D01*
X197373193Y-55176485D01*
X197399753Y-55156787D01*
X197428116Y-55139787D01*
X197458009Y-55125649D01*
X197489143Y-55114509D01*
X197521219Y-55106475D01*
X197553929Y-55101623D01*
X197586956Y-55100000D01*
X198463044Y-55100000D01*
X198496071Y-55101623D01*
X198496071Y-55101623D01*
G37*
D20*
X198025000Y-56000000D03*
D11*
G36*
X196446071Y-55101623D02*
X196478781Y-55106475D01*
X196510857Y-55114509D01*
X196541991Y-55125649D01*
X196571884Y-55139787D01*
X196600247Y-55156787D01*
X196626807Y-55176485D01*
X196651308Y-55198692D01*
X196673515Y-55223193D01*
X196693213Y-55249753D01*
X196710213Y-55278116D01*
X196724351Y-55308009D01*
X196735491Y-55339143D01*
X196743525Y-55371219D01*
X196748377Y-55403929D01*
X196750000Y-55436956D01*
X196750000Y-56563044D01*
X196748377Y-56596071D01*
X196743525Y-56628781D01*
X196735491Y-56660857D01*
X196724351Y-56691991D01*
X196710213Y-56721884D01*
X196693213Y-56750247D01*
X196673515Y-56776807D01*
X196651308Y-56801308D01*
X196626807Y-56823515D01*
X196600247Y-56843213D01*
X196571884Y-56860213D01*
X196541991Y-56874351D01*
X196510857Y-56885491D01*
X196478781Y-56893525D01*
X196446071Y-56898377D01*
X196413044Y-56900000D01*
X195536956Y-56900000D01*
X195503929Y-56898377D01*
X195471219Y-56893525D01*
X195439143Y-56885491D01*
X195408009Y-56874351D01*
X195378116Y-56860213D01*
X195349753Y-56843213D01*
X195323193Y-56823515D01*
X195298692Y-56801308D01*
X195276485Y-56776807D01*
X195256787Y-56750247D01*
X195239787Y-56721884D01*
X195225649Y-56691991D01*
X195214509Y-56660857D01*
X195206475Y-56628781D01*
X195201623Y-56596071D01*
X195200000Y-56563044D01*
X195200000Y-55436956D01*
X195201623Y-55403929D01*
X195206475Y-55371219D01*
X195214509Y-55339143D01*
X195225649Y-55308009D01*
X195239787Y-55278116D01*
X195256787Y-55249753D01*
X195276485Y-55223193D01*
X195298692Y-55198692D01*
X195323193Y-55176485D01*
X195349753Y-55156787D01*
X195378116Y-55139787D01*
X195408009Y-55125649D01*
X195439143Y-55114509D01*
X195471219Y-55106475D01*
X195503929Y-55101623D01*
X195536956Y-55100000D01*
X196413044Y-55100000D01*
X196446071Y-55101623D01*
X196446071Y-55101623D01*
G37*
D20*
X195975000Y-56000000D03*
D11*
G36*
X130971071Y-59601623D02*
X131003781Y-59606475D01*
X131035857Y-59614509D01*
X131066991Y-59625649D01*
X131096884Y-59639787D01*
X131125247Y-59656787D01*
X131151807Y-59676485D01*
X131176308Y-59698692D01*
X131198515Y-59723193D01*
X131218213Y-59749753D01*
X131235213Y-59778116D01*
X131249351Y-59808009D01*
X131260491Y-59839143D01*
X131268525Y-59871219D01*
X131273377Y-59903929D01*
X131275000Y-59936956D01*
X131275000Y-61063044D01*
X131273377Y-61096071D01*
X131268525Y-61128781D01*
X131260491Y-61160857D01*
X131249351Y-61191991D01*
X131235213Y-61221884D01*
X131218213Y-61250247D01*
X131198515Y-61276807D01*
X131176308Y-61301308D01*
X131151807Y-61323515D01*
X131125247Y-61343213D01*
X131096884Y-61360213D01*
X131066991Y-61374351D01*
X131035857Y-61385491D01*
X131003781Y-61393525D01*
X130971071Y-61398377D01*
X130938044Y-61400000D01*
X130061956Y-61400000D01*
X130028929Y-61398377D01*
X129996219Y-61393525D01*
X129964143Y-61385491D01*
X129933009Y-61374351D01*
X129903116Y-61360213D01*
X129874753Y-61343213D01*
X129848193Y-61323515D01*
X129823692Y-61301308D01*
X129801485Y-61276807D01*
X129781787Y-61250247D01*
X129764787Y-61221884D01*
X129750649Y-61191991D01*
X129739509Y-61160857D01*
X129731475Y-61128781D01*
X129726623Y-61096071D01*
X129725000Y-61063044D01*
X129725000Y-59936956D01*
X129726623Y-59903929D01*
X129731475Y-59871219D01*
X129739509Y-59839143D01*
X129750649Y-59808009D01*
X129764787Y-59778116D01*
X129781787Y-59749753D01*
X129801485Y-59723193D01*
X129823692Y-59698692D01*
X129848193Y-59676485D01*
X129874753Y-59656787D01*
X129903116Y-59639787D01*
X129933009Y-59625649D01*
X129964143Y-59614509D01*
X129996219Y-59606475D01*
X130028929Y-59601623D01*
X130061956Y-59600000D01*
X130938044Y-59600000D01*
X130971071Y-59601623D01*
X130971071Y-59601623D01*
G37*
D20*
X130500000Y-60500000D03*
D11*
G36*
X128921071Y-59601623D02*
X128953781Y-59606475D01*
X128985857Y-59614509D01*
X129016991Y-59625649D01*
X129046884Y-59639787D01*
X129075247Y-59656787D01*
X129101807Y-59676485D01*
X129126308Y-59698692D01*
X129148515Y-59723193D01*
X129168213Y-59749753D01*
X129185213Y-59778116D01*
X129199351Y-59808009D01*
X129210491Y-59839143D01*
X129218525Y-59871219D01*
X129223377Y-59903929D01*
X129225000Y-59936956D01*
X129225000Y-61063044D01*
X129223377Y-61096071D01*
X129218525Y-61128781D01*
X129210491Y-61160857D01*
X129199351Y-61191991D01*
X129185213Y-61221884D01*
X129168213Y-61250247D01*
X129148515Y-61276807D01*
X129126308Y-61301308D01*
X129101807Y-61323515D01*
X129075247Y-61343213D01*
X129046884Y-61360213D01*
X129016991Y-61374351D01*
X128985857Y-61385491D01*
X128953781Y-61393525D01*
X128921071Y-61398377D01*
X128888044Y-61400000D01*
X128011956Y-61400000D01*
X127978929Y-61398377D01*
X127946219Y-61393525D01*
X127914143Y-61385491D01*
X127883009Y-61374351D01*
X127853116Y-61360213D01*
X127824753Y-61343213D01*
X127798193Y-61323515D01*
X127773692Y-61301308D01*
X127751485Y-61276807D01*
X127731787Y-61250247D01*
X127714787Y-61221884D01*
X127700649Y-61191991D01*
X127689509Y-61160857D01*
X127681475Y-61128781D01*
X127676623Y-61096071D01*
X127675000Y-61063044D01*
X127675000Y-59936956D01*
X127676623Y-59903929D01*
X127681475Y-59871219D01*
X127689509Y-59839143D01*
X127700649Y-59808009D01*
X127714787Y-59778116D01*
X127731787Y-59749753D01*
X127751485Y-59723193D01*
X127773692Y-59698692D01*
X127798193Y-59676485D01*
X127824753Y-59656787D01*
X127853116Y-59639787D01*
X127883009Y-59625649D01*
X127914143Y-59614509D01*
X127946219Y-59606475D01*
X127978929Y-59601623D01*
X128011956Y-59600000D01*
X128888044Y-59600000D01*
X128921071Y-59601623D01*
X128921071Y-59601623D01*
G37*
D20*
X128450000Y-60500000D03*
D11*
G36*
X114496071Y-59601623D02*
X114528781Y-59606475D01*
X114560857Y-59614509D01*
X114591991Y-59625649D01*
X114621884Y-59639787D01*
X114650247Y-59656787D01*
X114676807Y-59676485D01*
X114701308Y-59698692D01*
X114723515Y-59723193D01*
X114743213Y-59749753D01*
X114760213Y-59778116D01*
X114774351Y-59808009D01*
X114785491Y-59839143D01*
X114793525Y-59871219D01*
X114798377Y-59903929D01*
X114800000Y-59936956D01*
X114800000Y-61063044D01*
X114798377Y-61096071D01*
X114793525Y-61128781D01*
X114785491Y-61160857D01*
X114774351Y-61191991D01*
X114760213Y-61221884D01*
X114743213Y-61250247D01*
X114723515Y-61276807D01*
X114701308Y-61301308D01*
X114676807Y-61323515D01*
X114650247Y-61343213D01*
X114621884Y-61360213D01*
X114591991Y-61374351D01*
X114560857Y-61385491D01*
X114528781Y-61393525D01*
X114496071Y-61398377D01*
X114463044Y-61400000D01*
X113586956Y-61400000D01*
X113553929Y-61398377D01*
X113521219Y-61393525D01*
X113489143Y-61385491D01*
X113458009Y-61374351D01*
X113428116Y-61360213D01*
X113399753Y-61343213D01*
X113373193Y-61323515D01*
X113348692Y-61301308D01*
X113326485Y-61276807D01*
X113306787Y-61250247D01*
X113289787Y-61221884D01*
X113275649Y-61191991D01*
X113264509Y-61160857D01*
X113256475Y-61128781D01*
X113251623Y-61096071D01*
X113250000Y-61063044D01*
X113250000Y-59936956D01*
X113251623Y-59903929D01*
X113256475Y-59871219D01*
X113264509Y-59839143D01*
X113275649Y-59808009D01*
X113289787Y-59778116D01*
X113306787Y-59749753D01*
X113326485Y-59723193D01*
X113348692Y-59698692D01*
X113373193Y-59676485D01*
X113399753Y-59656787D01*
X113428116Y-59639787D01*
X113458009Y-59625649D01*
X113489143Y-59614509D01*
X113521219Y-59606475D01*
X113553929Y-59601623D01*
X113586956Y-59600000D01*
X114463044Y-59600000D01*
X114496071Y-59601623D01*
X114496071Y-59601623D01*
G37*
D20*
X114025000Y-60500000D03*
D11*
G36*
X112446071Y-59601623D02*
X112478781Y-59606475D01*
X112510857Y-59614509D01*
X112541991Y-59625649D01*
X112571884Y-59639787D01*
X112600247Y-59656787D01*
X112626807Y-59676485D01*
X112651308Y-59698692D01*
X112673515Y-59723193D01*
X112693213Y-59749753D01*
X112710213Y-59778116D01*
X112724351Y-59808009D01*
X112735491Y-59839143D01*
X112743525Y-59871219D01*
X112748377Y-59903929D01*
X112750000Y-59936956D01*
X112750000Y-61063044D01*
X112748377Y-61096071D01*
X112743525Y-61128781D01*
X112735491Y-61160857D01*
X112724351Y-61191991D01*
X112710213Y-61221884D01*
X112693213Y-61250247D01*
X112673515Y-61276807D01*
X112651308Y-61301308D01*
X112626807Y-61323515D01*
X112600247Y-61343213D01*
X112571884Y-61360213D01*
X112541991Y-61374351D01*
X112510857Y-61385491D01*
X112478781Y-61393525D01*
X112446071Y-61398377D01*
X112413044Y-61400000D01*
X111536956Y-61400000D01*
X111503929Y-61398377D01*
X111471219Y-61393525D01*
X111439143Y-61385491D01*
X111408009Y-61374351D01*
X111378116Y-61360213D01*
X111349753Y-61343213D01*
X111323193Y-61323515D01*
X111298692Y-61301308D01*
X111276485Y-61276807D01*
X111256787Y-61250247D01*
X111239787Y-61221884D01*
X111225649Y-61191991D01*
X111214509Y-61160857D01*
X111206475Y-61128781D01*
X111201623Y-61096071D01*
X111200000Y-61063044D01*
X111200000Y-59936956D01*
X111201623Y-59903929D01*
X111206475Y-59871219D01*
X111214509Y-59839143D01*
X111225649Y-59808009D01*
X111239787Y-59778116D01*
X111256787Y-59749753D01*
X111276485Y-59723193D01*
X111298692Y-59698692D01*
X111323193Y-59676485D01*
X111349753Y-59656787D01*
X111378116Y-59639787D01*
X111408009Y-59625649D01*
X111439143Y-59614509D01*
X111471219Y-59606475D01*
X111503929Y-59601623D01*
X111536956Y-59600000D01*
X112413044Y-59600000D01*
X112446071Y-59601623D01*
X112446071Y-59601623D01*
G37*
D20*
X111975000Y-60500000D03*
D11*
G36*
X190971071Y-88101623D02*
X191003781Y-88106475D01*
X191035857Y-88114509D01*
X191066991Y-88125649D01*
X191096884Y-88139787D01*
X191125247Y-88156787D01*
X191151807Y-88176485D01*
X191176308Y-88198692D01*
X191198515Y-88223193D01*
X191218213Y-88249753D01*
X191235213Y-88278116D01*
X191249351Y-88308009D01*
X191260491Y-88339143D01*
X191268525Y-88371219D01*
X191273377Y-88403929D01*
X191275000Y-88436956D01*
X191275000Y-89563044D01*
X191273377Y-89596071D01*
X191268525Y-89628781D01*
X191260491Y-89660857D01*
X191249351Y-89691991D01*
X191235213Y-89721884D01*
X191218213Y-89750247D01*
X191198515Y-89776807D01*
X191176308Y-89801308D01*
X191151807Y-89823515D01*
X191125247Y-89843213D01*
X191096884Y-89860213D01*
X191066991Y-89874351D01*
X191035857Y-89885491D01*
X191003781Y-89893525D01*
X190971071Y-89898377D01*
X190938044Y-89900000D01*
X190061956Y-89900000D01*
X190028929Y-89898377D01*
X189996219Y-89893525D01*
X189964143Y-89885491D01*
X189933009Y-89874351D01*
X189903116Y-89860213D01*
X189874753Y-89843213D01*
X189848193Y-89823515D01*
X189823692Y-89801308D01*
X189801485Y-89776807D01*
X189781787Y-89750247D01*
X189764787Y-89721884D01*
X189750649Y-89691991D01*
X189739509Y-89660857D01*
X189731475Y-89628781D01*
X189726623Y-89596071D01*
X189725000Y-89563044D01*
X189725000Y-88436956D01*
X189726623Y-88403929D01*
X189731475Y-88371219D01*
X189739509Y-88339143D01*
X189750649Y-88308009D01*
X189764787Y-88278116D01*
X189781787Y-88249753D01*
X189801485Y-88223193D01*
X189823692Y-88198692D01*
X189848193Y-88176485D01*
X189874753Y-88156787D01*
X189903116Y-88139787D01*
X189933009Y-88125649D01*
X189964143Y-88114509D01*
X189996219Y-88106475D01*
X190028929Y-88101623D01*
X190061956Y-88100000D01*
X190938044Y-88100000D01*
X190971071Y-88101623D01*
X190971071Y-88101623D01*
G37*
D20*
X190500000Y-89000000D03*
D11*
G36*
X188921071Y-88101623D02*
X188953781Y-88106475D01*
X188985857Y-88114509D01*
X189016991Y-88125649D01*
X189046884Y-88139787D01*
X189075247Y-88156787D01*
X189101807Y-88176485D01*
X189126308Y-88198692D01*
X189148515Y-88223193D01*
X189168213Y-88249753D01*
X189185213Y-88278116D01*
X189199351Y-88308009D01*
X189210491Y-88339143D01*
X189218525Y-88371219D01*
X189223377Y-88403929D01*
X189225000Y-88436956D01*
X189225000Y-89563044D01*
X189223377Y-89596071D01*
X189218525Y-89628781D01*
X189210491Y-89660857D01*
X189199351Y-89691991D01*
X189185213Y-89721884D01*
X189168213Y-89750247D01*
X189148515Y-89776807D01*
X189126308Y-89801308D01*
X189101807Y-89823515D01*
X189075247Y-89843213D01*
X189046884Y-89860213D01*
X189016991Y-89874351D01*
X188985857Y-89885491D01*
X188953781Y-89893525D01*
X188921071Y-89898377D01*
X188888044Y-89900000D01*
X188011956Y-89900000D01*
X187978929Y-89898377D01*
X187946219Y-89893525D01*
X187914143Y-89885491D01*
X187883009Y-89874351D01*
X187853116Y-89860213D01*
X187824753Y-89843213D01*
X187798193Y-89823515D01*
X187773692Y-89801308D01*
X187751485Y-89776807D01*
X187731787Y-89750247D01*
X187714787Y-89721884D01*
X187700649Y-89691991D01*
X187689509Y-89660857D01*
X187681475Y-89628781D01*
X187676623Y-89596071D01*
X187675000Y-89563044D01*
X187675000Y-88436956D01*
X187676623Y-88403929D01*
X187681475Y-88371219D01*
X187689509Y-88339143D01*
X187700649Y-88308009D01*
X187714787Y-88278116D01*
X187731787Y-88249753D01*
X187751485Y-88223193D01*
X187773692Y-88198692D01*
X187798193Y-88176485D01*
X187824753Y-88156787D01*
X187853116Y-88139787D01*
X187883009Y-88125649D01*
X187914143Y-88114509D01*
X187946219Y-88106475D01*
X187978929Y-88101623D01*
X188011956Y-88100000D01*
X188888044Y-88100000D01*
X188921071Y-88101623D01*
X188921071Y-88101623D01*
G37*
D20*
X188450000Y-89000000D03*
D11*
G36*
X188946071Y-83101623D02*
X188978781Y-83106475D01*
X189010857Y-83114509D01*
X189041991Y-83125649D01*
X189071884Y-83139787D01*
X189100247Y-83156787D01*
X189126807Y-83176485D01*
X189151308Y-83198692D01*
X189173515Y-83223193D01*
X189193213Y-83249753D01*
X189210213Y-83278116D01*
X189224351Y-83308009D01*
X189235491Y-83339143D01*
X189243525Y-83371219D01*
X189248377Y-83403929D01*
X189250000Y-83436956D01*
X189250000Y-84563044D01*
X189248377Y-84596071D01*
X189243525Y-84628781D01*
X189235491Y-84660857D01*
X189224351Y-84691991D01*
X189210213Y-84721884D01*
X189193213Y-84750247D01*
X189173515Y-84776807D01*
X189151308Y-84801308D01*
X189126807Y-84823515D01*
X189100247Y-84843213D01*
X189071884Y-84860213D01*
X189041991Y-84874351D01*
X189010857Y-84885491D01*
X188978781Y-84893525D01*
X188946071Y-84898377D01*
X188913044Y-84900000D01*
X188036956Y-84900000D01*
X188003929Y-84898377D01*
X187971219Y-84893525D01*
X187939143Y-84885491D01*
X187908009Y-84874351D01*
X187878116Y-84860213D01*
X187849753Y-84843213D01*
X187823193Y-84823515D01*
X187798692Y-84801308D01*
X187776485Y-84776807D01*
X187756787Y-84750247D01*
X187739787Y-84721884D01*
X187725649Y-84691991D01*
X187714509Y-84660857D01*
X187706475Y-84628781D01*
X187701623Y-84596071D01*
X187700000Y-84563044D01*
X187700000Y-83436956D01*
X187701623Y-83403929D01*
X187706475Y-83371219D01*
X187714509Y-83339143D01*
X187725649Y-83308009D01*
X187739787Y-83278116D01*
X187756787Y-83249753D01*
X187776485Y-83223193D01*
X187798692Y-83198692D01*
X187823193Y-83176485D01*
X187849753Y-83156787D01*
X187878116Y-83139787D01*
X187908009Y-83125649D01*
X187939143Y-83114509D01*
X187971219Y-83106475D01*
X188003929Y-83101623D01*
X188036956Y-83100000D01*
X188913044Y-83100000D01*
X188946071Y-83101623D01*
X188946071Y-83101623D01*
G37*
D20*
X188475000Y-84000000D03*
D11*
G36*
X190996071Y-83101623D02*
X191028781Y-83106475D01*
X191060857Y-83114509D01*
X191091991Y-83125649D01*
X191121884Y-83139787D01*
X191150247Y-83156787D01*
X191176807Y-83176485D01*
X191201308Y-83198692D01*
X191223515Y-83223193D01*
X191243213Y-83249753D01*
X191260213Y-83278116D01*
X191274351Y-83308009D01*
X191285491Y-83339143D01*
X191293525Y-83371219D01*
X191298377Y-83403929D01*
X191300000Y-83436956D01*
X191300000Y-84563044D01*
X191298377Y-84596071D01*
X191293525Y-84628781D01*
X191285491Y-84660857D01*
X191274351Y-84691991D01*
X191260213Y-84721884D01*
X191243213Y-84750247D01*
X191223515Y-84776807D01*
X191201308Y-84801308D01*
X191176807Y-84823515D01*
X191150247Y-84843213D01*
X191121884Y-84860213D01*
X191091991Y-84874351D01*
X191060857Y-84885491D01*
X191028781Y-84893525D01*
X190996071Y-84898377D01*
X190963044Y-84900000D01*
X190086956Y-84900000D01*
X190053929Y-84898377D01*
X190021219Y-84893525D01*
X189989143Y-84885491D01*
X189958009Y-84874351D01*
X189928116Y-84860213D01*
X189899753Y-84843213D01*
X189873193Y-84823515D01*
X189848692Y-84801308D01*
X189826485Y-84776807D01*
X189806787Y-84750247D01*
X189789787Y-84721884D01*
X189775649Y-84691991D01*
X189764509Y-84660857D01*
X189756475Y-84628781D01*
X189751623Y-84596071D01*
X189750000Y-84563044D01*
X189750000Y-83436956D01*
X189751623Y-83403929D01*
X189756475Y-83371219D01*
X189764509Y-83339143D01*
X189775649Y-83308009D01*
X189789787Y-83278116D01*
X189806787Y-83249753D01*
X189826485Y-83223193D01*
X189848692Y-83198692D01*
X189873193Y-83176485D01*
X189899753Y-83156787D01*
X189928116Y-83139787D01*
X189958009Y-83125649D01*
X189989143Y-83114509D01*
X190021219Y-83106475D01*
X190053929Y-83101623D01*
X190086956Y-83100000D01*
X190963044Y-83100000D01*
X190996071Y-83101623D01*
X190996071Y-83101623D01*
G37*
D20*
X190525000Y-84000000D03*
D11*
G36*
X190096071Y-69251623D02*
X190128781Y-69256475D01*
X190160857Y-69264509D01*
X190191991Y-69275649D01*
X190221884Y-69289787D01*
X190250247Y-69306787D01*
X190276807Y-69326485D01*
X190301308Y-69348692D01*
X190323515Y-69373193D01*
X190343213Y-69399753D01*
X190360213Y-69428116D01*
X190374351Y-69458009D01*
X190385491Y-69489143D01*
X190393525Y-69521219D01*
X190398377Y-69553929D01*
X190400000Y-69586956D01*
X190400000Y-70463044D01*
X190398377Y-70496071D01*
X190393525Y-70528781D01*
X190385491Y-70560857D01*
X190374351Y-70591991D01*
X190360213Y-70621884D01*
X190343213Y-70650247D01*
X190323515Y-70676807D01*
X190301308Y-70701308D01*
X190276807Y-70723515D01*
X190250247Y-70743213D01*
X190221884Y-70760213D01*
X190191991Y-70774351D01*
X190160857Y-70785491D01*
X190128781Y-70793525D01*
X190096071Y-70798377D01*
X190063044Y-70800000D01*
X188936956Y-70800000D01*
X188903929Y-70798377D01*
X188871219Y-70793525D01*
X188839143Y-70785491D01*
X188808009Y-70774351D01*
X188778116Y-70760213D01*
X188749753Y-70743213D01*
X188723193Y-70723515D01*
X188698692Y-70701308D01*
X188676485Y-70676807D01*
X188656787Y-70650247D01*
X188639787Y-70621884D01*
X188625649Y-70591991D01*
X188614509Y-70560857D01*
X188606475Y-70528781D01*
X188601623Y-70496071D01*
X188600000Y-70463044D01*
X188600000Y-69586956D01*
X188601623Y-69553929D01*
X188606475Y-69521219D01*
X188614509Y-69489143D01*
X188625649Y-69458009D01*
X188639787Y-69428116D01*
X188656787Y-69399753D01*
X188676485Y-69373193D01*
X188698692Y-69348692D01*
X188723193Y-69326485D01*
X188749753Y-69306787D01*
X188778116Y-69289787D01*
X188808009Y-69275649D01*
X188839143Y-69264509D01*
X188871219Y-69256475D01*
X188903929Y-69251623D01*
X188936956Y-69250000D01*
X190063044Y-69250000D01*
X190096071Y-69251623D01*
X190096071Y-69251623D01*
G37*
D20*
X189500000Y-70025000D03*
D11*
G36*
X190096071Y-67201623D02*
X190128781Y-67206475D01*
X190160857Y-67214509D01*
X190191991Y-67225649D01*
X190221884Y-67239787D01*
X190250247Y-67256787D01*
X190276807Y-67276485D01*
X190301308Y-67298692D01*
X190323515Y-67323193D01*
X190343213Y-67349753D01*
X190360213Y-67378116D01*
X190374351Y-67408009D01*
X190385491Y-67439143D01*
X190393525Y-67471219D01*
X190398377Y-67503929D01*
X190400000Y-67536956D01*
X190400000Y-68413044D01*
X190398377Y-68446071D01*
X190393525Y-68478781D01*
X190385491Y-68510857D01*
X190374351Y-68541991D01*
X190360213Y-68571884D01*
X190343213Y-68600247D01*
X190323515Y-68626807D01*
X190301308Y-68651308D01*
X190276807Y-68673515D01*
X190250247Y-68693213D01*
X190221884Y-68710213D01*
X190191991Y-68724351D01*
X190160857Y-68735491D01*
X190128781Y-68743525D01*
X190096071Y-68748377D01*
X190063044Y-68750000D01*
X188936956Y-68750000D01*
X188903929Y-68748377D01*
X188871219Y-68743525D01*
X188839143Y-68735491D01*
X188808009Y-68724351D01*
X188778116Y-68710213D01*
X188749753Y-68693213D01*
X188723193Y-68673515D01*
X188698692Y-68651308D01*
X188676485Y-68626807D01*
X188656787Y-68600247D01*
X188639787Y-68571884D01*
X188625649Y-68541991D01*
X188614509Y-68510857D01*
X188606475Y-68478781D01*
X188601623Y-68446071D01*
X188600000Y-68413044D01*
X188600000Y-67536956D01*
X188601623Y-67503929D01*
X188606475Y-67471219D01*
X188614509Y-67439143D01*
X188625649Y-67408009D01*
X188639787Y-67378116D01*
X188656787Y-67349753D01*
X188676485Y-67323193D01*
X188698692Y-67298692D01*
X188723193Y-67276485D01*
X188749753Y-67256787D01*
X188778116Y-67239787D01*
X188808009Y-67225649D01*
X188839143Y-67214509D01*
X188871219Y-67206475D01*
X188903929Y-67201623D01*
X188936956Y-67200000D01*
X190063044Y-67200000D01*
X190096071Y-67201623D01*
X190096071Y-67201623D01*
G37*
D20*
X189500000Y-67975000D03*
D32*
X156172323Y-85000000D03*
D33*
X151172323Y-85000000D03*
X162902323Y-85020000D03*
D32*
X167902323Y-85020000D03*
D11*
G36*
X140220071Y-134325623D02*
X140252781Y-134330475D01*
X140284857Y-134338509D01*
X140315991Y-134349649D01*
X140345884Y-134363787D01*
X140374247Y-134380787D01*
X140400807Y-134400485D01*
X140425308Y-134422692D01*
X140447515Y-134447193D01*
X140467213Y-134473753D01*
X140484213Y-134502116D01*
X140498351Y-134532009D01*
X140509491Y-134563143D01*
X140517525Y-134595219D01*
X140522377Y-134627929D01*
X140524000Y-134660956D01*
X140524000Y-135537044D01*
X140522377Y-135570071D01*
X140517525Y-135602781D01*
X140509491Y-135634857D01*
X140498351Y-135665991D01*
X140484213Y-135695884D01*
X140467213Y-135724247D01*
X140447515Y-135750807D01*
X140425308Y-135775308D01*
X140400807Y-135797515D01*
X140374247Y-135817213D01*
X140345884Y-135834213D01*
X140315991Y-135848351D01*
X140284857Y-135859491D01*
X140252781Y-135867525D01*
X140220071Y-135872377D01*
X140187044Y-135874000D01*
X139060956Y-135874000D01*
X139027929Y-135872377D01*
X138995219Y-135867525D01*
X138963143Y-135859491D01*
X138932009Y-135848351D01*
X138902116Y-135834213D01*
X138873753Y-135817213D01*
X138847193Y-135797515D01*
X138822692Y-135775308D01*
X138800485Y-135750807D01*
X138780787Y-135724247D01*
X138763787Y-135695884D01*
X138749649Y-135665991D01*
X138738509Y-135634857D01*
X138730475Y-135602781D01*
X138725623Y-135570071D01*
X138724000Y-135537044D01*
X138724000Y-134660956D01*
X138725623Y-134627929D01*
X138730475Y-134595219D01*
X138738509Y-134563143D01*
X138749649Y-134532009D01*
X138763787Y-134502116D01*
X138780787Y-134473753D01*
X138800485Y-134447193D01*
X138822692Y-134422692D01*
X138847193Y-134400485D01*
X138873753Y-134380787D01*
X138902116Y-134363787D01*
X138932009Y-134349649D01*
X138963143Y-134338509D01*
X138995219Y-134330475D01*
X139027929Y-134325623D01*
X139060956Y-134324000D01*
X140187044Y-134324000D01*
X140220071Y-134325623D01*
X140220071Y-134325623D01*
G37*
D20*
X139624000Y-135099000D03*
D11*
G36*
X140220071Y-132275623D02*
X140252781Y-132280475D01*
X140284857Y-132288509D01*
X140315991Y-132299649D01*
X140345884Y-132313787D01*
X140374247Y-132330787D01*
X140400807Y-132350485D01*
X140425308Y-132372692D01*
X140447515Y-132397193D01*
X140467213Y-132423753D01*
X140484213Y-132452116D01*
X140498351Y-132482009D01*
X140509491Y-132513143D01*
X140517525Y-132545219D01*
X140522377Y-132577929D01*
X140524000Y-132610956D01*
X140524000Y-133487044D01*
X140522377Y-133520071D01*
X140517525Y-133552781D01*
X140509491Y-133584857D01*
X140498351Y-133615991D01*
X140484213Y-133645884D01*
X140467213Y-133674247D01*
X140447515Y-133700807D01*
X140425308Y-133725308D01*
X140400807Y-133747515D01*
X140374247Y-133767213D01*
X140345884Y-133784213D01*
X140315991Y-133798351D01*
X140284857Y-133809491D01*
X140252781Y-133817525D01*
X140220071Y-133822377D01*
X140187044Y-133824000D01*
X139060956Y-133824000D01*
X139027929Y-133822377D01*
X138995219Y-133817525D01*
X138963143Y-133809491D01*
X138932009Y-133798351D01*
X138902116Y-133784213D01*
X138873753Y-133767213D01*
X138847193Y-133747515D01*
X138822692Y-133725308D01*
X138800485Y-133700807D01*
X138780787Y-133674247D01*
X138763787Y-133645884D01*
X138749649Y-133615991D01*
X138738509Y-133584857D01*
X138730475Y-133552781D01*
X138725623Y-133520071D01*
X138724000Y-133487044D01*
X138724000Y-132610956D01*
X138725623Y-132577929D01*
X138730475Y-132545219D01*
X138738509Y-132513143D01*
X138749649Y-132482009D01*
X138763787Y-132452116D01*
X138780787Y-132423753D01*
X138800485Y-132397193D01*
X138822692Y-132372692D01*
X138847193Y-132350485D01*
X138873753Y-132330787D01*
X138902116Y-132313787D01*
X138932009Y-132299649D01*
X138963143Y-132288509D01*
X138995219Y-132280475D01*
X139027929Y-132275623D01*
X139060956Y-132274000D01*
X140187044Y-132274000D01*
X140220071Y-132275623D01*
X140220071Y-132275623D01*
G37*
D20*
X139624000Y-133049000D03*
D11*
G36*
X170096071Y-56751623D02*
X170128781Y-56756475D01*
X170160857Y-56764509D01*
X170191991Y-56775649D01*
X170221884Y-56789787D01*
X170250247Y-56806787D01*
X170276807Y-56826485D01*
X170301308Y-56848692D01*
X170323515Y-56873193D01*
X170343213Y-56899753D01*
X170360213Y-56928116D01*
X170374351Y-56958009D01*
X170385491Y-56989143D01*
X170393525Y-57021219D01*
X170398377Y-57053929D01*
X170400000Y-57086956D01*
X170400000Y-57963044D01*
X170398377Y-57996071D01*
X170393525Y-58028781D01*
X170385491Y-58060857D01*
X170374351Y-58091991D01*
X170360213Y-58121884D01*
X170343213Y-58150247D01*
X170323515Y-58176807D01*
X170301308Y-58201308D01*
X170276807Y-58223515D01*
X170250247Y-58243213D01*
X170221884Y-58260213D01*
X170191991Y-58274351D01*
X170160857Y-58285491D01*
X170128781Y-58293525D01*
X170096071Y-58298377D01*
X170063044Y-58300000D01*
X168936956Y-58300000D01*
X168903929Y-58298377D01*
X168871219Y-58293525D01*
X168839143Y-58285491D01*
X168808009Y-58274351D01*
X168778116Y-58260213D01*
X168749753Y-58243213D01*
X168723193Y-58223515D01*
X168698692Y-58201308D01*
X168676485Y-58176807D01*
X168656787Y-58150247D01*
X168639787Y-58121884D01*
X168625649Y-58091991D01*
X168614509Y-58060857D01*
X168606475Y-58028781D01*
X168601623Y-57996071D01*
X168600000Y-57963044D01*
X168600000Y-57086956D01*
X168601623Y-57053929D01*
X168606475Y-57021219D01*
X168614509Y-56989143D01*
X168625649Y-56958009D01*
X168639787Y-56928116D01*
X168656787Y-56899753D01*
X168676485Y-56873193D01*
X168698692Y-56848692D01*
X168723193Y-56826485D01*
X168749753Y-56806787D01*
X168778116Y-56789787D01*
X168808009Y-56775649D01*
X168839143Y-56764509D01*
X168871219Y-56756475D01*
X168903929Y-56751623D01*
X168936956Y-56750000D01*
X170063044Y-56750000D01*
X170096071Y-56751623D01*
X170096071Y-56751623D01*
G37*
D20*
X169500000Y-57525000D03*
D11*
G36*
X170096071Y-54701623D02*
X170128781Y-54706475D01*
X170160857Y-54714509D01*
X170191991Y-54725649D01*
X170221884Y-54739787D01*
X170250247Y-54756787D01*
X170276807Y-54776485D01*
X170301308Y-54798692D01*
X170323515Y-54823193D01*
X170343213Y-54849753D01*
X170360213Y-54878116D01*
X170374351Y-54908009D01*
X170385491Y-54939143D01*
X170393525Y-54971219D01*
X170398377Y-55003929D01*
X170400000Y-55036956D01*
X170400000Y-55913044D01*
X170398377Y-55946071D01*
X170393525Y-55978781D01*
X170385491Y-56010857D01*
X170374351Y-56041991D01*
X170360213Y-56071884D01*
X170343213Y-56100247D01*
X170323515Y-56126807D01*
X170301308Y-56151308D01*
X170276807Y-56173515D01*
X170250247Y-56193213D01*
X170221884Y-56210213D01*
X170191991Y-56224351D01*
X170160857Y-56235491D01*
X170128781Y-56243525D01*
X170096071Y-56248377D01*
X170063044Y-56250000D01*
X168936956Y-56250000D01*
X168903929Y-56248377D01*
X168871219Y-56243525D01*
X168839143Y-56235491D01*
X168808009Y-56224351D01*
X168778116Y-56210213D01*
X168749753Y-56193213D01*
X168723193Y-56173515D01*
X168698692Y-56151308D01*
X168676485Y-56126807D01*
X168656787Y-56100247D01*
X168639787Y-56071884D01*
X168625649Y-56041991D01*
X168614509Y-56010857D01*
X168606475Y-55978781D01*
X168601623Y-55946071D01*
X168600000Y-55913044D01*
X168600000Y-55036956D01*
X168601623Y-55003929D01*
X168606475Y-54971219D01*
X168614509Y-54939143D01*
X168625649Y-54908009D01*
X168639787Y-54878116D01*
X168656787Y-54849753D01*
X168676485Y-54823193D01*
X168698692Y-54798692D01*
X168723193Y-54776485D01*
X168749753Y-54756787D01*
X168778116Y-54739787D01*
X168808009Y-54725649D01*
X168839143Y-54714509D01*
X168871219Y-54706475D01*
X168903929Y-54701623D01*
X168936956Y-54700000D01*
X170063044Y-54700000D01*
X170096071Y-54701623D01*
X170096071Y-54701623D01*
G37*
D20*
X169500000Y-55475000D03*
D33*
X148260000Y-109372500D03*
D32*
X153260000Y-109372500D03*
X153260000Y-131597500D03*
D33*
X148260000Y-131597500D03*
D32*
X153260000Y-142710000D03*
D33*
X148260000Y-142710000D03*
D11*
G36*
X184696071Y-51851623D02*
X184728781Y-51856475D01*
X184760857Y-51864509D01*
X184791991Y-51875649D01*
X184821884Y-51889787D01*
X184850247Y-51906787D01*
X184876807Y-51926485D01*
X184901308Y-51948692D01*
X184923515Y-51973193D01*
X184943213Y-51999753D01*
X184960213Y-52028116D01*
X184974351Y-52058009D01*
X184985491Y-52089143D01*
X184993525Y-52121219D01*
X184998377Y-52153929D01*
X185000000Y-52186956D01*
X185000000Y-53313044D01*
X184998377Y-53346071D01*
X184993525Y-53378781D01*
X184985491Y-53410857D01*
X184974351Y-53441991D01*
X184960213Y-53471884D01*
X184943213Y-53500247D01*
X184923515Y-53526807D01*
X184901308Y-53551308D01*
X184876807Y-53573515D01*
X184850247Y-53593213D01*
X184821884Y-53610213D01*
X184791991Y-53624351D01*
X184760857Y-53635491D01*
X184728781Y-53643525D01*
X184696071Y-53648377D01*
X184663044Y-53650000D01*
X183786956Y-53650000D01*
X183753929Y-53648377D01*
X183721219Y-53643525D01*
X183689143Y-53635491D01*
X183658009Y-53624351D01*
X183628116Y-53610213D01*
X183599753Y-53593213D01*
X183573193Y-53573515D01*
X183548692Y-53551308D01*
X183526485Y-53526807D01*
X183506787Y-53500247D01*
X183489787Y-53471884D01*
X183475649Y-53441991D01*
X183464509Y-53410857D01*
X183456475Y-53378781D01*
X183451623Y-53346071D01*
X183450000Y-53313044D01*
X183450000Y-52186956D01*
X183451623Y-52153929D01*
X183456475Y-52121219D01*
X183464509Y-52089143D01*
X183475649Y-52058009D01*
X183489787Y-52028116D01*
X183506787Y-51999753D01*
X183526485Y-51973193D01*
X183548692Y-51948692D01*
X183573193Y-51926485D01*
X183599753Y-51906787D01*
X183628116Y-51889787D01*
X183658009Y-51875649D01*
X183689143Y-51864509D01*
X183721219Y-51856475D01*
X183753929Y-51851623D01*
X183786956Y-51850000D01*
X184663044Y-51850000D01*
X184696071Y-51851623D01*
X184696071Y-51851623D01*
G37*
D20*
X184225000Y-52750000D03*
D11*
G36*
X186746071Y-51851623D02*
X186778781Y-51856475D01*
X186810857Y-51864509D01*
X186841991Y-51875649D01*
X186871884Y-51889787D01*
X186900247Y-51906787D01*
X186926807Y-51926485D01*
X186951308Y-51948692D01*
X186973515Y-51973193D01*
X186993213Y-51999753D01*
X187010213Y-52028116D01*
X187024351Y-52058009D01*
X187035491Y-52089143D01*
X187043525Y-52121219D01*
X187048377Y-52153929D01*
X187050000Y-52186956D01*
X187050000Y-53313044D01*
X187048377Y-53346071D01*
X187043525Y-53378781D01*
X187035491Y-53410857D01*
X187024351Y-53441991D01*
X187010213Y-53471884D01*
X186993213Y-53500247D01*
X186973515Y-53526807D01*
X186951308Y-53551308D01*
X186926807Y-53573515D01*
X186900247Y-53593213D01*
X186871884Y-53610213D01*
X186841991Y-53624351D01*
X186810857Y-53635491D01*
X186778781Y-53643525D01*
X186746071Y-53648377D01*
X186713044Y-53650000D01*
X185836956Y-53650000D01*
X185803929Y-53648377D01*
X185771219Y-53643525D01*
X185739143Y-53635491D01*
X185708009Y-53624351D01*
X185678116Y-53610213D01*
X185649753Y-53593213D01*
X185623193Y-53573515D01*
X185598692Y-53551308D01*
X185576485Y-53526807D01*
X185556787Y-53500247D01*
X185539787Y-53471884D01*
X185525649Y-53441991D01*
X185514509Y-53410857D01*
X185506475Y-53378781D01*
X185501623Y-53346071D01*
X185500000Y-53313044D01*
X185500000Y-52186956D01*
X185501623Y-52153929D01*
X185506475Y-52121219D01*
X185514509Y-52089143D01*
X185525649Y-52058009D01*
X185539787Y-52028116D01*
X185556787Y-51999753D01*
X185576485Y-51973193D01*
X185598692Y-51948692D01*
X185623193Y-51926485D01*
X185649753Y-51906787D01*
X185678116Y-51889787D01*
X185708009Y-51875649D01*
X185739143Y-51864509D01*
X185771219Y-51856475D01*
X185803929Y-51851623D01*
X185836956Y-51850000D01*
X186713044Y-51850000D01*
X186746071Y-51851623D01*
X186746071Y-51851623D01*
G37*
D20*
X186275000Y-52750000D03*
D33*
X138370000Y-85020000D03*
D32*
X143370000Y-85020000D03*
X153260000Y-98260000D03*
D33*
X148260000Y-98260000D03*
X148260000Y-120485000D03*
D32*
X153260000Y-120485000D03*
D34*
X102540000Y-72860000D03*
X102540000Y-75400000D03*
D35*
X102540000Y-77940000D03*
X102540000Y-88100000D03*
D34*
X102540000Y-85560000D03*
X102540000Y-83020000D03*
D36*
X107620000Y-75400000D03*
D37*
X105080000Y-75400000D03*
D11*
G36*
X112446071Y-83391623D02*
X112478781Y-83396475D01*
X112510857Y-83404509D01*
X112541991Y-83415649D01*
X112571884Y-83429787D01*
X112600247Y-83446787D01*
X112626807Y-83466485D01*
X112651308Y-83488692D01*
X112673515Y-83513193D01*
X112693213Y-83539753D01*
X112710213Y-83568116D01*
X112724351Y-83598009D01*
X112735491Y-83629143D01*
X112743525Y-83661219D01*
X112748377Y-83693929D01*
X112750000Y-83726956D01*
X112750000Y-84853044D01*
X112748377Y-84886071D01*
X112743525Y-84918781D01*
X112735491Y-84950857D01*
X112724351Y-84981991D01*
X112710213Y-85011884D01*
X112693213Y-85040247D01*
X112673515Y-85066807D01*
X112651308Y-85091308D01*
X112626807Y-85113515D01*
X112600247Y-85133213D01*
X112571884Y-85150213D01*
X112541991Y-85164351D01*
X112510857Y-85175491D01*
X112478781Y-85183525D01*
X112446071Y-85188377D01*
X112413044Y-85190000D01*
X111536956Y-85190000D01*
X111503929Y-85188377D01*
X111471219Y-85183525D01*
X111439143Y-85175491D01*
X111408009Y-85164351D01*
X111378116Y-85150213D01*
X111349753Y-85133213D01*
X111323193Y-85113515D01*
X111298692Y-85091308D01*
X111276485Y-85066807D01*
X111256787Y-85040247D01*
X111239787Y-85011884D01*
X111225649Y-84981991D01*
X111214509Y-84950857D01*
X111206475Y-84918781D01*
X111201623Y-84886071D01*
X111200000Y-84853044D01*
X111200000Y-83726956D01*
X111201623Y-83693929D01*
X111206475Y-83661219D01*
X111214509Y-83629143D01*
X111225649Y-83598009D01*
X111239787Y-83568116D01*
X111256787Y-83539753D01*
X111276485Y-83513193D01*
X111298692Y-83488692D01*
X111323193Y-83466485D01*
X111349753Y-83446787D01*
X111378116Y-83429787D01*
X111408009Y-83415649D01*
X111439143Y-83404509D01*
X111471219Y-83396475D01*
X111503929Y-83391623D01*
X111536956Y-83390000D01*
X112413044Y-83390000D01*
X112446071Y-83391623D01*
X112446071Y-83391623D01*
G37*
D20*
X111975000Y-84290000D03*
D11*
G36*
X114496071Y-83391623D02*
X114528781Y-83396475D01*
X114560857Y-83404509D01*
X114591991Y-83415649D01*
X114621884Y-83429787D01*
X114650247Y-83446787D01*
X114676807Y-83466485D01*
X114701308Y-83488692D01*
X114723515Y-83513193D01*
X114743213Y-83539753D01*
X114760213Y-83568116D01*
X114774351Y-83598009D01*
X114785491Y-83629143D01*
X114793525Y-83661219D01*
X114798377Y-83693929D01*
X114800000Y-83726956D01*
X114800000Y-84853044D01*
X114798377Y-84886071D01*
X114793525Y-84918781D01*
X114785491Y-84950857D01*
X114774351Y-84981991D01*
X114760213Y-85011884D01*
X114743213Y-85040247D01*
X114723515Y-85066807D01*
X114701308Y-85091308D01*
X114676807Y-85113515D01*
X114650247Y-85133213D01*
X114621884Y-85150213D01*
X114591991Y-85164351D01*
X114560857Y-85175491D01*
X114528781Y-85183525D01*
X114496071Y-85188377D01*
X114463044Y-85190000D01*
X113586956Y-85190000D01*
X113553929Y-85188377D01*
X113521219Y-85183525D01*
X113489143Y-85175491D01*
X113458009Y-85164351D01*
X113428116Y-85150213D01*
X113399753Y-85133213D01*
X113373193Y-85113515D01*
X113348692Y-85091308D01*
X113326485Y-85066807D01*
X113306787Y-85040247D01*
X113289787Y-85011884D01*
X113275649Y-84981991D01*
X113264509Y-84950857D01*
X113256475Y-84918781D01*
X113251623Y-84886071D01*
X113250000Y-84853044D01*
X113250000Y-83726956D01*
X113251623Y-83693929D01*
X113256475Y-83661219D01*
X113264509Y-83629143D01*
X113275649Y-83598009D01*
X113289787Y-83568116D01*
X113306787Y-83539753D01*
X113326485Y-83513193D01*
X113348692Y-83488692D01*
X113373193Y-83466485D01*
X113399753Y-83446787D01*
X113428116Y-83429787D01*
X113458009Y-83415649D01*
X113489143Y-83404509D01*
X113521219Y-83396475D01*
X113553929Y-83391623D01*
X113586956Y-83390000D01*
X114463044Y-83390000D01*
X114496071Y-83391623D01*
X114496071Y-83391623D01*
G37*
D20*
X114025000Y-84290000D03*
D11*
G36*
X102196071Y-79601623D02*
X102228781Y-79606475D01*
X102260857Y-79614509D01*
X102291991Y-79625649D01*
X102321884Y-79639787D01*
X102350247Y-79656787D01*
X102376807Y-79676485D01*
X102401308Y-79698692D01*
X102423515Y-79723193D01*
X102443213Y-79749753D01*
X102460213Y-79778116D01*
X102474351Y-79808009D01*
X102485491Y-79839143D01*
X102493525Y-79871219D01*
X102498377Y-79903929D01*
X102500000Y-79936956D01*
X102500000Y-81063044D01*
X102498377Y-81096071D01*
X102493525Y-81128781D01*
X102485491Y-81160857D01*
X102474351Y-81191991D01*
X102460213Y-81221884D01*
X102443213Y-81250247D01*
X102423515Y-81276807D01*
X102401308Y-81301308D01*
X102376807Y-81323515D01*
X102350247Y-81343213D01*
X102321884Y-81360213D01*
X102291991Y-81374351D01*
X102260857Y-81385491D01*
X102228781Y-81393525D01*
X102196071Y-81398377D01*
X102163044Y-81400000D01*
X101286956Y-81400000D01*
X101253929Y-81398377D01*
X101221219Y-81393525D01*
X101189143Y-81385491D01*
X101158009Y-81374351D01*
X101128116Y-81360213D01*
X101099753Y-81343213D01*
X101073193Y-81323515D01*
X101048692Y-81301308D01*
X101026485Y-81276807D01*
X101006787Y-81250247D01*
X100989787Y-81221884D01*
X100975649Y-81191991D01*
X100964509Y-81160857D01*
X100956475Y-81128781D01*
X100951623Y-81096071D01*
X100950000Y-81063044D01*
X100950000Y-79936956D01*
X100951623Y-79903929D01*
X100956475Y-79871219D01*
X100964509Y-79839143D01*
X100975649Y-79808009D01*
X100989787Y-79778116D01*
X101006787Y-79749753D01*
X101026485Y-79723193D01*
X101048692Y-79698692D01*
X101073193Y-79676485D01*
X101099753Y-79656787D01*
X101128116Y-79639787D01*
X101158009Y-79625649D01*
X101189143Y-79614509D01*
X101221219Y-79606475D01*
X101253929Y-79601623D01*
X101286956Y-79600000D01*
X102163044Y-79600000D01*
X102196071Y-79601623D01*
X102196071Y-79601623D01*
G37*
D20*
X101725000Y-80500000D03*
D11*
G36*
X104246071Y-79601623D02*
X104278781Y-79606475D01*
X104310857Y-79614509D01*
X104341991Y-79625649D01*
X104371884Y-79639787D01*
X104400247Y-79656787D01*
X104426807Y-79676485D01*
X104451308Y-79698692D01*
X104473515Y-79723193D01*
X104493213Y-79749753D01*
X104510213Y-79778116D01*
X104524351Y-79808009D01*
X104535491Y-79839143D01*
X104543525Y-79871219D01*
X104548377Y-79903929D01*
X104550000Y-79936956D01*
X104550000Y-81063044D01*
X104548377Y-81096071D01*
X104543525Y-81128781D01*
X104535491Y-81160857D01*
X104524351Y-81191991D01*
X104510213Y-81221884D01*
X104493213Y-81250247D01*
X104473515Y-81276807D01*
X104451308Y-81301308D01*
X104426807Y-81323515D01*
X104400247Y-81343213D01*
X104371884Y-81360213D01*
X104341991Y-81374351D01*
X104310857Y-81385491D01*
X104278781Y-81393525D01*
X104246071Y-81398377D01*
X104213044Y-81400000D01*
X103336956Y-81400000D01*
X103303929Y-81398377D01*
X103271219Y-81393525D01*
X103239143Y-81385491D01*
X103208009Y-81374351D01*
X103178116Y-81360213D01*
X103149753Y-81343213D01*
X103123193Y-81323515D01*
X103098692Y-81301308D01*
X103076485Y-81276807D01*
X103056787Y-81250247D01*
X103039787Y-81221884D01*
X103025649Y-81191991D01*
X103014509Y-81160857D01*
X103006475Y-81128781D01*
X103001623Y-81096071D01*
X103000000Y-81063044D01*
X103000000Y-79936956D01*
X103001623Y-79903929D01*
X103006475Y-79871219D01*
X103014509Y-79839143D01*
X103025649Y-79808009D01*
X103039787Y-79778116D01*
X103056787Y-79749753D01*
X103076485Y-79723193D01*
X103098692Y-79698692D01*
X103123193Y-79676485D01*
X103149753Y-79656787D01*
X103178116Y-79639787D01*
X103208009Y-79625649D01*
X103239143Y-79614509D01*
X103271219Y-79606475D01*
X103303929Y-79601623D01*
X103336956Y-79600000D01*
X104213044Y-79600000D01*
X104246071Y-79601623D01*
X104246071Y-79601623D01*
G37*
D20*
X103775000Y-80500000D03*
D11*
G36*
X118251071Y-85931623D02*
X118283781Y-85936475D01*
X118315857Y-85944509D01*
X118346991Y-85955649D01*
X118376884Y-85969787D01*
X118405247Y-85986787D01*
X118431807Y-86006485D01*
X118456308Y-86028692D01*
X118478515Y-86053193D01*
X118498213Y-86079753D01*
X118515213Y-86108116D01*
X118529351Y-86138009D01*
X118540491Y-86169143D01*
X118548525Y-86201219D01*
X118553377Y-86233929D01*
X118555000Y-86266956D01*
X118555000Y-87393044D01*
X118553377Y-87426071D01*
X118548525Y-87458781D01*
X118540491Y-87490857D01*
X118529351Y-87521991D01*
X118515213Y-87551884D01*
X118498213Y-87580247D01*
X118478515Y-87606807D01*
X118456308Y-87631308D01*
X118431807Y-87653515D01*
X118405247Y-87673213D01*
X118376884Y-87690213D01*
X118346991Y-87704351D01*
X118315857Y-87715491D01*
X118283781Y-87723525D01*
X118251071Y-87728377D01*
X118218044Y-87730000D01*
X117341956Y-87730000D01*
X117308929Y-87728377D01*
X117276219Y-87723525D01*
X117244143Y-87715491D01*
X117213009Y-87704351D01*
X117183116Y-87690213D01*
X117154753Y-87673213D01*
X117128193Y-87653515D01*
X117103692Y-87631308D01*
X117081485Y-87606807D01*
X117061787Y-87580247D01*
X117044787Y-87551884D01*
X117030649Y-87521991D01*
X117019509Y-87490857D01*
X117011475Y-87458781D01*
X117006623Y-87426071D01*
X117005000Y-87393044D01*
X117005000Y-86266956D01*
X117006623Y-86233929D01*
X117011475Y-86201219D01*
X117019509Y-86169143D01*
X117030649Y-86138009D01*
X117044787Y-86108116D01*
X117061787Y-86079753D01*
X117081485Y-86053193D01*
X117103692Y-86028692D01*
X117128193Y-86006485D01*
X117154753Y-85986787D01*
X117183116Y-85969787D01*
X117213009Y-85955649D01*
X117244143Y-85944509D01*
X117276219Y-85936475D01*
X117308929Y-85931623D01*
X117341956Y-85930000D01*
X118218044Y-85930000D01*
X118251071Y-85931623D01*
X118251071Y-85931623D01*
G37*
D20*
X117780000Y-86830000D03*
D11*
G36*
X116201071Y-85931623D02*
X116233781Y-85936475D01*
X116265857Y-85944509D01*
X116296991Y-85955649D01*
X116326884Y-85969787D01*
X116355247Y-85986787D01*
X116381807Y-86006485D01*
X116406308Y-86028692D01*
X116428515Y-86053193D01*
X116448213Y-86079753D01*
X116465213Y-86108116D01*
X116479351Y-86138009D01*
X116490491Y-86169143D01*
X116498525Y-86201219D01*
X116503377Y-86233929D01*
X116505000Y-86266956D01*
X116505000Y-87393044D01*
X116503377Y-87426071D01*
X116498525Y-87458781D01*
X116490491Y-87490857D01*
X116479351Y-87521991D01*
X116465213Y-87551884D01*
X116448213Y-87580247D01*
X116428515Y-87606807D01*
X116406308Y-87631308D01*
X116381807Y-87653515D01*
X116355247Y-87673213D01*
X116326884Y-87690213D01*
X116296991Y-87704351D01*
X116265857Y-87715491D01*
X116233781Y-87723525D01*
X116201071Y-87728377D01*
X116168044Y-87730000D01*
X115291956Y-87730000D01*
X115258929Y-87728377D01*
X115226219Y-87723525D01*
X115194143Y-87715491D01*
X115163009Y-87704351D01*
X115133116Y-87690213D01*
X115104753Y-87673213D01*
X115078193Y-87653515D01*
X115053692Y-87631308D01*
X115031485Y-87606807D01*
X115011787Y-87580247D01*
X114994787Y-87551884D01*
X114980649Y-87521991D01*
X114969509Y-87490857D01*
X114961475Y-87458781D01*
X114956623Y-87426071D01*
X114955000Y-87393044D01*
X114955000Y-86266956D01*
X114956623Y-86233929D01*
X114961475Y-86201219D01*
X114969509Y-86169143D01*
X114980649Y-86138009D01*
X114994787Y-86108116D01*
X115011787Y-86079753D01*
X115031485Y-86053193D01*
X115053692Y-86028692D01*
X115078193Y-86006485D01*
X115104753Y-85986787D01*
X115133116Y-85969787D01*
X115163009Y-85955649D01*
X115194143Y-85944509D01*
X115226219Y-85936475D01*
X115258929Y-85931623D01*
X115291956Y-85930000D01*
X116168044Y-85930000D01*
X116201071Y-85931623D01*
X116201071Y-85931623D01*
G37*
D20*
X115730000Y-86830000D03*
D37*
X105080000Y-89500000D03*
D36*
X107620000Y-89500000D03*
D22*
X110160000Y-89370000D03*
D38*
X117780000Y-81750000D03*
X112700000Y-89370000D03*
X115240000Y-81750000D03*
X115240000Y-89370000D03*
X112700000Y-81750000D03*
X117780000Y-89370000D03*
X110160000Y-81750000D03*
D13*
X105447056Y-144552944D03*
X103750000Y-143850000D03*
X102052944Y-144552944D03*
X101350000Y-146250000D03*
X102052944Y-147947056D03*
X103750000Y-148650000D03*
X105447056Y-147947056D03*
X106150000Y-146250000D03*
D14*
X103750000Y-146250000D03*
D11*
G36*
X112446071Y-85931623D02*
X112478781Y-85936475D01*
X112510857Y-85944509D01*
X112541991Y-85955649D01*
X112571884Y-85969787D01*
X112600247Y-85986787D01*
X112626807Y-86006485D01*
X112651308Y-86028692D01*
X112673515Y-86053193D01*
X112693213Y-86079753D01*
X112710213Y-86108116D01*
X112724351Y-86138009D01*
X112735491Y-86169143D01*
X112743525Y-86201219D01*
X112748377Y-86233929D01*
X112750000Y-86266956D01*
X112750000Y-87393044D01*
X112748377Y-87426071D01*
X112743525Y-87458781D01*
X112735491Y-87490857D01*
X112724351Y-87521991D01*
X112710213Y-87551884D01*
X112693213Y-87580247D01*
X112673515Y-87606807D01*
X112651308Y-87631308D01*
X112626807Y-87653515D01*
X112600247Y-87673213D01*
X112571884Y-87690213D01*
X112541991Y-87704351D01*
X112510857Y-87715491D01*
X112478781Y-87723525D01*
X112446071Y-87728377D01*
X112413044Y-87730000D01*
X111536956Y-87730000D01*
X111503929Y-87728377D01*
X111471219Y-87723525D01*
X111439143Y-87715491D01*
X111408009Y-87704351D01*
X111378116Y-87690213D01*
X111349753Y-87673213D01*
X111323193Y-87653515D01*
X111298692Y-87631308D01*
X111276485Y-87606807D01*
X111256787Y-87580247D01*
X111239787Y-87551884D01*
X111225649Y-87521991D01*
X111214509Y-87490857D01*
X111206475Y-87458781D01*
X111201623Y-87426071D01*
X111200000Y-87393044D01*
X111200000Y-86266956D01*
X111201623Y-86233929D01*
X111206475Y-86201219D01*
X111214509Y-86169143D01*
X111225649Y-86138009D01*
X111239787Y-86108116D01*
X111256787Y-86079753D01*
X111276485Y-86053193D01*
X111298692Y-86028692D01*
X111323193Y-86006485D01*
X111349753Y-85986787D01*
X111378116Y-85969787D01*
X111408009Y-85955649D01*
X111439143Y-85944509D01*
X111471219Y-85936475D01*
X111503929Y-85931623D01*
X111536956Y-85930000D01*
X112413044Y-85930000D01*
X112446071Y-85931623D01*
X112446071Y-85931623D01*
G37*
D20*
X111975000Y-86830000D03*
D11*
G36*
X114496071Y-85931623D02*
X114528781Y-85936475D01*
X114560857Y-85944509D01*
X114591991Y-85955649D01*
X114621884Y-85969787D01*
X114650247Y-85986787D01*
X114676807Y-86006485D01*
X114701308Y-86028692D01*
X114723515Y-86053193D01*
X114743213Y-86079753D01*
X114760213Y-86108116D01*
X114774351Y-86138009D01*
X114785491Y-86169143D01*
X114793525Y-86201219D01*
X114798377Y-86233929D01*
X114800000Y-86266956D01*
X114800000Y-87393044D01*
X114798377Y-87426071D01*
X114793525Y-87458781D01*
X114785491Y-87490857D01*
X114774351Y-87521991D01*
X114760213Y-87551884D01*
X114743213Y-87580247D01*
X114723515Y-87606807D01*
X114701308Y-87631308D01*
X114676807Y-87653515D01*
X114650247Y-87673213D01*
X114621884Y-87690213D01*
X114591991Y-87704351D01*
X114560857Y-87715491D01*
X114528781Y-87723525D01*
X114496071Y-87728377D01*
X114463044Y-87730000D01*
X113586956Y-87730000D01*
X113553929Y-87728377D01*
X113521219Y-87723525D01*
X113489143Y-87715491D01*
X113458009Y-87704351D01*
X113428116Y-87690213D01*
X113399753Y-87673213D01*
X113373193Y-87653515D01*
X113348692Y-87631308D01*
X113326485Y-87606807D01*
X113306787Y-87580247D01*
X113289787Y-87551884D01*
X113275649Y-87521991D01*
X113264509Y-87490857D01*
X113256475Y-87458781D01*
X113251623Y-87426071D01*
X113250000Y-87393044D01*
X113250000Y-86266956D01*
X113251623Y-86233929D01*
X113256475Y-86201219D01*
X113264509Y-86169143D01*
X113275649Y-86138009D01*
X113289787Y-86108116D01*
X113306787Y-86079753D01*
X113326485Y-86053193D01*
X113348692Y-86028692D01*
X113373193Y-86006485D01*
X113399753Y-85986787D01*
X113428116Y-85969787D01*
X113458009Y-85955649D01*
X113489143Y-85944509D01*
X113521219Y-85936475D01*
X113553929Y-85931623D01*
X113586956Y-85930000D01*
X114463044Y-85930000D01*
X114496071Y-85931623D01*
X114496071Y-85931623D01*
G37*
D20*
X114025000Y-86830000D03*
D11*
G36*
X108421071Y-84601623D02*
X108453781Y-84606475D01*
X108485857Y-84614509D01*
X108516991Y-84625649D01*
X108546884Y-84639787D01*
X108575247Y-84656787D01*
X108601807Y-84676485D01*
X108626308Y-84698692D01*
X108648515Y-84723193D01*
X108668213Y-84749753D01*
X108685213Y-84778116D01*
X108699351Y-84808009D01*
X108710491Y-84839143D01*
X108718525Y-84871219D01*
X108723377Y-84903929D01*
X108725000Y-84936956D01*
X108725000Y-86063044D01*
X108723377Y-86096071D01*
X108718525Y-86128781D01*
X108710491Y-86160857D01*
X108699351Y-86191991D01*
X108685213Y-86221884D01*
X108668213Y-86250247D01*
X108648515Y-86276807D01*
X108626308Y-86301308D01*
X108601807Y-86323515D01*
X108575247Y-86343213D01*
X108546884Y-86360213D01*
X108516991Y-86374351D01*
X108485857Y-86385491D01*
X108453781Y-86393525D01*
X108421071Y-86398377D01*
X108388044Y-86400000D01*
X107511956Y-86400000D01*
X107478929Y-86398377D01*
X107446219Y-86393525D01*
X107414143Y-86385491D01*
X107383009Y-86374351D01*
X107353116Y-86360213D01*
X107324753Y-86343213D01*
X107298193Y-86323515D01*
X107273692Y-86301308D01*
X107251485Y-86276807D01*
X107231787Y-86250247D01*
X107214787Y-86221884D01*
X107200649Y-86191991D01*
X107189509Y-86160857D01*
X107181475Y-86128781D01*
X107176623Y-86096071D01*
X107175000Y-86063044D01*
X107175000Y-84936956D01*
X107176623Y-84903929D01*
X107181475Y-84871219D01*
X107189509Y-84839143D01*
X107200649Y-84808009D01*
X107214787Y-84778116D01*
X107231787Y-84749753D01*
X107251485Y-84723193D01*
X107273692Y-84698692D01*
X107298193Y-84676485D01*
X107324753Y-84656787D01*
X107353116Y-84639787D01*
X107383009Y-84625649D01*
X107414143Y-84614509D01*
X107446219Y-84606475D01*
X107478929Y-84601623D01*
X107511956Y-84600000D01*
X108388044Y-84600000D01*
X108421071Y-84601623D01*
X108421071Y-84601623D01*
G37*
D20*
X107950000Y-85500000D03*
D11*
G36*
X110471071Y-84601623D02*
X110503781Y-84606475D01*
X110535857Y-84614509D01*
X110566991Y-84625649D01*
X110596884Y-84639787D01*
X110625247Y-84656787D01*
X110651807Y-84676485D01*
X110676308Y-84698692D01*
X110698515Y-84723193D01*
X110718213Y-84749753D01*
X110735213Y-84778116D01*
X110749351Y-84808009D01*
X110760491Y-84839143D01*
X110768525Y-84871219D01*
X110773377Y-84903929D01*
X110775000Y-84936956D01*
X110775000Y-86063044D01*
X110773377Y-86096071D01*
X110768525Y-86128781D01*
X110760491Y-86160857D01*
X110749351Y-86191991D01*
X110735213Y-86221884D01*
X110718213Y-86250247D01*
X110698515Y-86276807D01*
X110676308Y-86301308D01*
X110651807Y-86323515D01*
X110625247Y-86343213D01*
X110596884Y-86360213D01*
X110566991Y-86374351D01*
X110535857Y-86385491D01*
X110503781Y-86393525D01*
X110471071Y-86398377D01*
X110438044Y-86400000D01*
X109561956Y-86400000D01*
X109528929Y-86398377D01*
X109496219Y-86393525D01*
X109464143Y-86385491D01*
X109433009Y-86374351D01*
X109403116Y-86360213D01*
X109374753Y-86343213D01*
X109348193Y-86323515D01*
X109323692Y-86301308D01*
X109301485Y-86276807D01*
X109281787Y-86250247D01*
X109264787Y-86221884D01*
X109250649Y-86191991D01*
X109239509Y-86160857D01*
X109231475Y-86128781D01*
X109226623Y-86096071D01*
X109225000Y-86063044D01*
X109225000Y-84936956D01*
X109226623Y-84903929D01*
X109231475Y-84871219D01*
X109239509Y-84839143D01*
X109250649Y-84808009D01*
X109264787Y-84778116D01*
X109281787Y-84749753D01*
X109301485Y-84723193D01*
X109323692Y-84698692D01*
X109348193Y-84676485D01*
X109374753Y-84656787D01*
X109403116Y-84639787D01*
X109433009Y-84625649D01*
X109464143Y-84614509D01*
X109496219Y-84606475D01*
X109528929Y-84601623D01*
X109561956Y-84600000D01*
X110438044Y-84600000D01*
X110471071Y-84601623D01*
X110471071Y-84601623D01*
G37*
D20*
X110000000Y-85500000D03*
D39*
X134000000Y-79000000D03*
X106000000Y-79000000D03*
X106000000Y-82750000D03*
X106000000Y-86500000D03*
D40*
X154540000Y-55500000D03*
D39*
X152000000Y-55500000D03*
X141000000Y-55500000D03*
D40*
X143540000Y-55500000D03*
D11*
G36*
X108096071Y-70201623D02*
X108128781Y-70206475D01*
X108160857Y-70214509D01*
X108191991Y-70225649D01*
X108221884Y-70239787D01*
X108250247Y-70256787D01*
X108276807Y-70276485D01*
X108301308Y-70298692D01*
X108323515Y-70323193D01*
X108343213Y-70349753D01*
X108360213Y-70378116D01*
X108374351Y-70408009D01*
X108385491Y-70439143D01*
X108393525Y-70471219D01*
X108398377Y-70503929D01*
X108400000Y-70536956D01*
X108400000Y-71413044D01*
X108398377Y-71446071D01*
X108393525Y-71478781D01*
X108385491Y-71510857D01*
X108374351Y-71541991D01*
X108360213Y-71571884D01*
X108343213Y-71600247D01*
X108323515Y-71626807D01*
X108301308Y-71651308D01*
X108276807Y-71673515D01*
X108250247Y-71693213D01*
X108221884Y-71710213D01*
X108191991Y-71724351D01*
X108160857Y-71735491D01*
X108128781Y-71743525D01*
X108096071Y-71748377D01*
X108063044Y-71750000D01*
X106936956Y-71750000D01*
X106903929Y-71748377D01*
X106871219Y-71743525D01*
X106839143Y-71735491D01*
X106808009Y-71724351D01*
X106778116Y-71710213D01*
X106749753Y-71693213D01*
X106723193Y-71673515D01*
X106698692Y-71651308D01*
X106676485Y-71626807D01*
X106656787Y-71600247D01*
X106639787Y-71571884D01*
X106625649Y-71541991D01*
X106614509Y-71510857D01*
X106606475Y-71478781D01*
X106601623Y-71446071D01*
X106600000Y-71413044D01*
X106600000Y-70536956D01*
X106601623Y-70503929D01*
X106606475Y-70471219D01*
X106614509Y-70439143D01*
X106625649Y-70408009D01*
X106639787Y-70378116D01*
X106656787Y-70349753D01*
X106676485Y-70323193D01*
X106698692Y-70298692D01*
X106723193Y-70276485D01*
X106749753Y-70256787D01*
X106778116Y-70239787D01*
X106808009Y-70225649D01*
X106839143Y-70214509D01*
X106871219Y-70206475D01*
X106903929Y-70201623D01*
X106936956Y-70200000D01*
X108063044Y-70200000D01*
X108096071Y-70201623D01*
X108096071Y-70201623D01*
G37*
D20*
X107500000Y-70975000D03*
D11*
G36*
X108096071Y-72251623D02*
X108128781Y-72256475D01*
X108160857Y-72264509D01*
X108191991Y-72275649D01*
X108221884Y-72289787D01*
X108250247Y-72306787D01*
X108276807Y-72326485D01*
X108301308Y-72348692D01*
X108323515Y-72373193D01*
X108343213Y-72399753D01*
X108360213Y-72428116D01*
X108374351Y-72458009D01*
X108385491Y-72489143D01*
X108393525Y-72521219D01*
X108398377Y-72553929D01*
X108400000Y-72586956D01*
X108400000Y-73463044D01*
X108398377Y-73496071D01*
X108393525Y-73528781D01*
X108385491Y-73560857D01*
X108374351Y-73591991D01*
X108360213Y-73621884D01*
X108343213Y-73650247D01*
X108323515Y-73676807D01*
X108301308Y-73701308D01*
X108276807Y-73723515D01*
X108250247Y-73743213D01*
X108221884Y-73760213D01*
X108191991Y-73774351D01*
X108160857Y-73785491D01*
X108128781Y-73793525D01*
X108096071Y-73798377D01*
X108063044Y-73800000D01*
X106936956Y-73800000D01*
X106903929Y-73798377D01*
X106871219Y-73793525D01*
X106839143Y-73785491D01*
X106808009Y-73774351D01*
X106778116Y-73760213D01*
X106749753Y-73743213D01*
X106723193Y-73723515D01*
X106698692Y-73701308D01*
X106676485Y-73676807D01*
X106656787Y-73650247D01*
X106639787Y-73621884D01*
X106625649Y-73591991D01*
X106614509Y-73560857D01*
X106606475Y-73528781D01*
X106601623Y-73496071D01*
X106600000Y-73463044D01*
X106600000Y-72586956D01*
X106601623Y-72553929D01*
X106606475Y-72521219D01*
X106614509Y-72489143D01*
X106625649Y-72458009D01*
X106639787Y-72428116D01*
X106656787Y-72399753D01*
X106676485Y-72373193D01*
X106698692Y-72348692D01*
X106723193Y-72326485D01*
X106749753Y-72306787D01*
X106778116Y-72289787D01*
X106808009Y-72275649D01*
X106839143Y-72264509D01*
X106871219Y-72256475D01*
X106903929Y-72251623D01*
X106936956Y-72250000D01*
X108063044Y-72250000D01*
X108096071Y-72251623D01*
X108096071Y-72251623D01*
G37*
D20*
X107500000Y-73025000D03*
D11*
G36*
X111096071Y-72251623D02*
X111128781Y-72256475D01*
X111160857Y-72264509D01*
X111191991Y-72275649D01*
X111221884Y-72289787D01*
X111250247Y-72306787D01*
X111276807Y-72326485D01*
X111301308Y-72348692D01*
X111323515Y-72373193D01*
X111343213Y-72399753D01*
X111360213Y-72428116D01*
X111374351Y-72458009D01*
X111385491Y-72489143D01*
X111393525Y-72521219D01*
X111398377Y-72553929D01*
X111400000Y-72586956D01*
X111400000Y-73463044D01*
X111398377Y-73496071D01*
X111393525Y-73528781D01*
X111385491Y-73560857D01*
X111374351Y-73591991D01*
X111360213Y-73621884D01*
X111343213Y-73650247D01*
X111323515Y-73676807D01*
X111301308Y-73701308D01*
X111276807Y-73723515D01*
X111250247Y-73743213D01*
X111221884Y-73760213D01*
X111191991Y-73774351D01*
X111160857Y-73785491D01*
X111128781Y-73793525D01*
X111096071Y-73798377D01*
X111063044Y-73800000D01*
X109936956Y-73800000D01*
X109903929Y-73798377D01*
X109871219Y-73793525D01*
X109839143Y-73785491D01*
X109808009Y-73774351D01*
X109778116Y-73760213D01*
X109749753Y-73743213D01*
X109723193Y-73723515D01*
X109698692Y-73701308D01*
X109676485Y-73676807D01*
X109656787Y-73650247D01*
X109639787Y-73621884D01*
X109625649Y-73591991D01*
X109614509Y-73560857D01*
X109606475Y-73528781D01*
X109601623Y-73496071D01*
X109600000Y-73463044D01*
X109600000Y-72586956D01*
X109601623Y-72553929D01*
X109606475Y-72521219D01*
X109614509Y-72489143D01*
X109625649Y-72458009D01*
X109639787Y-72428116D01*
X109656787Y-72399753D01*
X109676485Y-72373193D01*
X109698692Y-72348692D01*
X109723193Y-72326485D01*
X109749753Y-72306787D01*
X109778116Y-72289787D01*
X109808009Y-72275649D01*
X109839143Y-72264509D01*
X109871219Y-72256475D01*
X109903929Y-72251623D01*
X109936956Y-72250000D01*
X111063044Y-72250000D01*
X111096071Y-72251623D01*
X111096071Y-72251623D01*
G37*
D20*
X110500000Y-73025000D03*
D11*
G36*
X111096071Y-70201623D02*
X111128781Y-70206475D01*
X111160857Y-70214509D01*
X111191991Y-70225649D01*
X111221884Y-70239787D01*
X111250247Y-70256787D01*
X111276807Y-70276485D01*
X111301308Y-70298692D01*
X111323515Y-70323193D01*
X111343213Y-70349753D01*
X111360213Y-70378116D01*
X111374351Y-70408009D01*
X111385491Y-70439143D01*
X111393525Y-70471219D01*
X111398377Y-70503929D01*
X111400000Y-70536956D01*
X111400000Y-71413044D01*
X111398377Y-71446071D01*
X111393525Y-71478781D01*
X111385491Y-71510857D01*
X111374351Y-71541991D01*
X111360213Y-71571884D01*
X111343213Y-71600247D01*
X111323515Y-71626807D01*
X111301308Y-71651308D01*
X111276807Y-71673515D01*
X111250247Y-71693213D01*
X111221884Y-71710213D01*
X111191991Y-71724351D01*
X111160857Y-71735491D01*
X111128781Y-71743525D01*
X111096071Y-71748377D01*
X111063044Y-71750000D01*
X109936956Y-71750000D01*
X109903929Y-71748377D01*
X109871219Y-71743525D01*
X109839143Y-71735491D01*
X109808009Y-71724351D01*
X109778116Y-71710213D01*
X109749753Y-71693213D01*
X109723193Y-71673515D01*
X109698692Y-71651308D01*
X109676485Y-71626807D01*
X109656787Y-71600247D01*
X109639787Y-71571884D01*
X109625649Y-71541991D01*
X109614509Y-71510857D01*
X109606475Y-71478781D01*
X109601623Y-71446071D01*
X109600000Y-71413044D01*
X109600000Y-70536956D01*
X109601623Y-70503929D01*
X109606475Y-70471219D01*
X109614509Y-70439143D01*
X109625649Y-70408009D01*
X109639787Y-70378116D01*
X109656787Y-70349753D01*
X109676485Y-70323193D01*
X109698692Y-70298692D01*
X109723193Y-70276485D01*
X109749753Y-70256787D01*
X109778116Y-70239787D01*
X109808009Y-70225649D01*
X109839143Y-70214509D01*
X109871219Y-70206475D01*
X109903929Y-70201623D01*
X109936956Y-70200000D01*
X111063044Y-70200000D01*
X111096071Y-70201623D01*
X111096071Y-70201623D01*
G37*
D20*
X110500000Y-70975000D03*
M02*
