%TF.GenerationSoftware,KiCad,Pcbnew,(5.0.0)*%
%TF.CreationDate,2019-01-09T21:44:21+01:00*%
%TF.ProjectId,KicadEuropower,4B696361644575726F706F7765722E6B,Rev A*%
%TF.SameCoordinates,Original*%
%TF.FileFunction,Soldermask,Top*%
%TF.FilePolarity,Negative*%
%FSLAX46Y46*%
G04 Gerber Fmt 4.6, Leading zero omitted, Abs format (unit mm)*
G04 Created by KiCad (PCBNEW (5.0.0)) date 01/09/19 21:44:21*
%MOMM*%
%LPD*%
G01*
G04 APERTURE LIST*
%ADD10C,1.000000*%
%ADD11C,0.150000*%
%ADD12C,0.200000*%
%ADD13C,1.200000*%
%ADD14C,6.800000*%
%ADD15C,3.180000*%
%ADD16R,2.127200X2.127200*%
%ADD17O,2.127200X2.127200*%
%ADD18C,2.200000*%
%ADD19C,2.000000*%
%ADD20R,2.000000X2.000000*%
%ADD21C,2.398980*%
%ADD22O,2.380000X4.360000*%
%ADD23R,2.380000X4.360000*%
%ADD24R,4.360000X2.380000*%
%ADD25O,4.360000X2.380000*%
%ADD26R,2.305000X2.400000*%
%ADD27O,2.305000X2.400000*%
%ADD28O,2.600000X2.600000*%
%ADD29R,2.600000X2.600000*%
%ADD30C,1.550000*%
%ADD31C,2.400000*%
%ADD32R,2.400000X2.400000*%
%ADD33O,2.200000X2.200000*%
%ADD34R,2.200000X2.200000*%
%ADD35O,1.800000X1.800000*%
%ADD36C,1.800000*%
%ADD37O,2.000000X2.000000*%
%ADD38R,2.100000X2.100000*%
%ADD39O,2.100000X2.100000*%
G04 APERTURE END LIST*
D10*
X110000000Y-94000000D02*
X110000000Y-93500000D01*
X143000000Y-94000000D02*
X110000000Y-94000000D01*
X143000000Y-93500000D02*
X143000000Y-94000000D01*
X110000000Y-93500000D02*
X143000000Y-93500000D01*
D11*
X101666666Y-150000000D02*
G75*
G03X101666666Y-150000000I-1666666J0D01*
G01*
X97500000Y-150000000D02*
X102500000Y-150000000D01*
X100000000Y-147500000D02*
X100000000Y-152500000D01*
D12*
X200000000Y-50000000D02*
X100000000Y-50000000D01*
X200000000Y-150000000D02*
X200000000Y-50000000D01*
X100000000Y-150000000D02*
X200000000Y-150000000D01*
X100000000Y-50000000D02*
X100000000Y-150000000D01*
D13*
X185947056Y-64302944D03*
X184250000Y-63600000D03*
X182552944Y-64302944D03*
X181850000Y-66000000D03*
X182552944Y-67697056D03*
X184250000Y-68400000D03*
X185947056Y-67697056D03*
X186650000Y-66000000D03*
D14*
X184250000Y-66000000D03*
X104000000Y-66000000D03*
D13*
X106400000Y-66000000D03*
X105697056Y-67697056D03*
X104000000Y-68400000D03*
X102302944Y-67697056D03*
X101600000Y-66000000D03*
X102302944Y-64302944D03*
X104000000Y-63600000D03*
X105697056Y-64302944D03*
D14*
X196000000Y-146250000D03*
D13*
X198400000Y-146250000D03*
X197697056Y-147947056D03*
X196000000Y-148650000D03*
X194302944Y-147947056D03*
X193600000Y-146250000D03*
X194302944Y-144552944D03*
X196000000Y-143850000D03*
X197697056Y-144552944D03*
D15*
X179000000Y-66000000D03*
X175600000Y-66000000D03*
X179000000Y-75920000D03*
X175600000Y-75920000D03*
D16*
X178333330Y-98535001D03*
D17*
X180873330Y-98535001D03*
X178333330Y-101075001D03*
X180873330Y-101075001D03*
X178333330Y-103615001D03*
X180873330Y-103615001D03*
X178333330Y-106155001D03*
X180873330Y-106155001D03*
X178333330Y-108695001D03*
X180873330Y-108695001D03*
D16*
X163666664Y-121000000D03*
D17*
X166206664Y-121000000D03*
X163666664Y-123540000D03*
X166206664Y-123540000D03*
X163666664Y-126080000D03*
X166206664Y-126080000D03*
X163666664Y-128620000D03*
X166206664Y-128620000D03*
X163666664Y-131160000D03*
X166206664Y-131160000D03*
X163666664Y-133700000D03*
X166206664Y-133700000D03*
X163666664Y-136240000D03*
X166206664Y-136240000D03*
X163666664Y-138780000D03*
X166206664Y-138780000D03*
X195540000Y-108695001D03*
X193000000Y-108695001D03*
X195540000Y-106155001D03*
X193000000Y-106155001D03*
X195540000Y-103615001D03*
X193000000Y-103615001D03*
X195540000Y-101075001D03*
X193000000Y-101075001D03*
X195540000Y-98535001D03*
D16*
X193000000Y-98535001D03*
D17*
X122206666Y-138780000D03*
X119666666Y-138780000D03*
X122206666Y-136240000D03*
X119666666Y-136240000D03*
X122206666Y-133700000D03*
X119666666Y-133700000D03*
X122206666Y-131160000D03*
X119666666Y-131160000D03*
X122206666Y-128620000D03*
X119666666Y-128620000D03*
X122206666Y-126080000D03*
X119666666Y-126080000D03*
X122206666Y-123540000D03*
X119666666Y-123540000D03*
X122206666Y-121000000D03*
D16*
X119666666Y-121000000D03*
X193000000Y-121000000D03*
D17*
X195540000Y-121000000D03*
X193000000Y-123540000D03*
X195540000Y-123540000D03*
X193000000Y-126080000D03*
X195540000Y-126080000D03*
X193000000Y-128620000D03*
X195540000Y-128620000D03*
X193000000Y-131160000D03*
X195540000Y-131160000D03*
D16*
X134333332Y-121000000D03*
D17*
X136873332Y-121000000D03*
X134333332Y-123540000D03*
X136873332Y-123540000D03*
X134333332Y-126080000D03*
X136873332Y-126080000D03*
X134333332Y-128620000D03*
X136873332Y-128620000D03*
X134333332Y-131160000D03*
X136873332Y-131160000D03*
X134333332Y-133700000D03*
X136873332Y-133700000D03*
X134333332Y-136240000D03*
X136873332Y-136240000D03*
X134333332Y-138780000D03*
X136873332Y-138780000D03*
X107540000Y-108695001D03*
X105000000Y-108695001D03*
X107540000Y-106155001D03*
X105000000Y-106155001D03*
X107540000Y-103615001D03*
X105000000Y-103615001D03*
X107540000Y-101075001D03*
X105000000Y-101075001D03*
X107540000Y-98535001D03*
D16*
X105000000Y-98535001D03*
D17*
X180873330Y-138780000D03*
X178333330Y-138780000D03*
X180873330Y-136240000D03*
X178333330Y-136240000D03*
X180873330Y-133700000D03*
X178333330Y-133700000D03*
X180873330Y-131160000D03*
X178333330Y-131160000D03*
X180873330Y-128620000D03*
X178333330Y-128620000D03*
X180873330Y-126080000D03*
X178333330Y-126080000D03*
X180873330Y-123540000D03*
X178333330Y-123540000D03*
X180873330Y-121000000D03*
D16*
X178333330Y-121000000D03*
D17*
X166206664Y-108695001D03*
X163666664Y-108695001D03*
X166206664Y-106155001D03*
X163666664Y-106155001D03*
X166206664Y-103615001D03*
X163666664Y-103615001D03*
X166206664Y-101075001D03*
X163666664Y-101075001D03*
X166206664Y-98535001D03*
D16*
X163666664Y-98535001D03*
X119666666Y-98535001D03*
D17*
X122206666Y-98535001D03*
X119666666Y-101075001D03*
X122206666Y-101075001D03*
X119666666Y-103615001D03*
X122206666Y-103615001D03*
X119666666Y-106155001D03*
X122206666Y-106155001D03*
X119666666Y-108695001D03*
X122206666Y-108695001D03*
X107540000Y-131160000D03*
X105000000Y-131160000D03*
X107540000Y-128620000D03*
X105000000Y-128620000D03*
X107540000Y-126080000D03*
X105000000Y-126080000D03*
X107540000Y-123540000D03*
X105000000Y-123540000D03*
X107540000Y-121000000D03*
D16*
X105000000Y-121000000D03*
X134290000Y-98535001D03*
D17*
X136830000Y-98535001D03*
X134290000Y-101075001D03*
X136830000Y-101075001D03*
X134290000Y-103615001D03*
X136830000Y-103615001D03*
X134290000Y-106155001D03*
X136830000Y-106155001D03*
X134290000Y-108695001D03*
X136830000Y-108695001D03*
D18*
X179324696Y-82089161D03*
X177274696Y-89589161D03*
D19*
X155537349Y-61000000D03*
D20*
X151737349Y-61000000D03*
X163467349Y-60890000D03*
D19*
X167267349Y-60890000D03*
D20*
X139197349Y-60890000D03*
D19*
X142997349Y-60890000D03*
D21*
X156539740Y-78499100D03*
X156539740Y-67500900D03*
X150540260Y-78499100D03*
X150540260Y-67500900D03*
X168269740Y-78499100D03*
X168269740Y-67500900D03*
X162270260Y-78499100D03*
X162270260Y-67500900D03*
X138000260Y-67500900D03*
X138000260Y-78499100D03*
X143999740Y-67500900D03*
X143999740Y-78499100D03*
D22*
X177000000Y-56000000D03*
D23*
X182000000Y-56000000D03*
X193000000Y-56000000D03*
D22*
X188000000Y-56000000D03*
D24*
X194000000Y-73000000D03*
D25*
X194000000Y-68000000D03*
D23*
X114000000Y-55816585D03*
D22*
X109000000Y-55816585D03*
X104000000Y-55816585D03*
X120553224Y-55816585D03*
X125553224Y-55816585D03*
D23*
X130553224Y-55816585D03*
D24*
X194000000Y-89000000D03*
D25*
X194000000Y-84000000D03*
X194000000Y-79000000D03*
D18*
X128000000Y-66700000D03*
X125950000Y-74200000D03*
X122796854Y-66700000D03*
X120746854Y-74200000D03*
D26*
X151000000Y-53000000D03*
D27*
X153540000Y-53000000D03*
X156080000Y-53000000D03*
D26*
X162730000Y-53000000D03*
D27*
X165270000Y-53000000D03*
X167810000Y-53000000D03*
X143540000Y-53000000D03*
X141000000Y-53000000D03*
D26*
X138460000Y-53000000D03*
D28*
X134000000Y-65840000D03*
D29*
X134000000Y-76000000D03*
X173324696Y-91089161D03*
D28*
X173324696Y-80929161D03*
D11*
G36*
X198596071Y-53251623D02*
X198628781Y-53256475D01*
X198660857Y-53264509D01*
X198691991Y-53275649D01*
X198721884Y-53289787D01*
X198750247Y-53306787D01*
X198776807Y-53326485D01*
X198801308Y-53348692D01*
X198823515Y-53373193D01*
X198843213Y-53399753D01*
X198860213Y-53428116D01*
X198874351Y-53458009D01*
X198885491Y-53489143D01*
X198893525Y-53521219D01*
X198898377Y-53553929D01*
X198900000Y-53586956D01*
X198900000Y-54463044D01*
X198898377Y-54496071D01*
X198893525Y-54528781D01*
X198885491Y-54560857D01*
X198874351Y-54591991D01*
X198860213Y-54621884D01*
X198843213Y-54650247D01*
X198823515Y-54676807D01*
X198801308Y-54701308D01*
X198776807Y-54723515D01*
X198750247Y-54743213D01*
X198721884Y-54760213D01*
X198691991Y-54774351D01*
X198660857Y-54785491D01*
X198628781Y-54793525D01*
X198596071Y-54798377D01*
X198563044Y-54800000D01*
X197436956Y-54800000D01*
X197403929Y-54798377D01*
X197371219Y-54793525D01*
X197339143Y-54785491D01*
X197308009Y-54774351D01*
X197278116Y-54760213D01*
X197249753Y-54743213D01*
X197223193Y-54723515D01*
X197198692Y-54701308D01*
X197176485Y-54676807D01*
X197156787Y-54650247D01*
X197139787Y-54621884D01*
X197125649Y-54591991D01*
X197114509Y-54560857D01*
X197106475Y-54528781D01*
X197101623Y-54496071D01*
X197100000Y-54463044D01*
X197100000Y-53586956D01*
X197101623Y-53553929D01*
X197106475Y-53521219D01*
X197114509Y-53489143D01*
X197125649Y-53458009D01*
X197139787Y-53428116D01*
X197156787Y-53399753D01*
X197176485Y-53373193D01*
X197198692Y-53348692D01*
X197223193Y-53326485D01*
X197249753Y-53306787D01*
X197278116Y-53289787D01*
X197308009Y-53275649D01*
X197339143Y-53264509D01*
X197371219Y-53256475D01*
X197403929Y-53251623D01*
X197436956Y-53250000D01*
X198563044Y-53250000D01*
X198596071Y-53251623D01*
X198596071Y-53251623D01*
G37*
D30*
X198000000Y-54025000D03*
D11*
G36*
X198596071Y-51201623D02*
X198628781Y-51206475D01*
X198660857Y-51214509D01*
X198691991Y-51225649D01*
X198721884Y-51239787D01*
X198750247Y-51256787D01*
X198776807Y-51276485D01*
X198801308Y-51298692D01*
X198823515Y-51323193D01*
X198843213Y-51349753D01*
X198860213Y-51378116D01*
X198874351Y-51408009D01*
X198885491Y-51439143D01*
X198893525Y-51471219D01*
X198898377Y-51503929D01*
X198900000Y-51536956D01*
X198900000Y-52413044D01*
X198898377Y-52446071D01*
X198893525Y-52478781D01*
X198885491Y-52510857D01*
X198874351Y-52541991D01*
X198860213Y-52571884D01*
X198843213Y-52600247D01*
X198823515Y-52626807D01*
X198801308Y-52651308D01*
X198776807Y-52673515D01*
X198750247Y-52693213D01*
X198721884Y-52710213D01*
X198691991Y-52724351D01*
X198660857Y-52735491D01*
X198628781Y-52743525D01*
X198596071Y-52748377D01*
X198563044Y-52750000D01*
X197436956Y-52750000D01*
X197403929Y-52748377D01*
X197371219Y-52743525D01*
X197339143Y-52735491D01*
X197308009Y-52724351D01*
X197278116Y-52710213D01*
X197249753Y-52693213D01*
X197223193Y-52673515D01*
X197198692Y-52651308D01*
X197176485Y-52626807D01*
X197156787Y-52600247D01*
X197139787Y-52571884D01*
X197125649Y-52541991D01*
X197114509Y-52510857D01*
X197106475Y-52478781D01*
X197101623Y-52446071D01*
X197100000Y-52413044D01*
X197100000Y-51536956D01*
X197101623Y-51503929D01*
X197106475Y-51471219D01*
X197114509Y-51439143D01*
X197125649Y-51408009D01*
X197139787Y-51378116D01*
X197156787Y-51349753D01*
X197176485Y-51323193D01*
X197198692Y-51298692D01*
X197223193Y-51276485D01*
X197249753Y-51256787D01*
X197278116Y-51239787D01*
X197308009Y-51225649D01*
X197339143Y-51214509D01*
X197371219Y-51206475D01*
X197403929Y-51201623D01*
X197436956Y-51200000D01*
X198563044Y-51200000D01*
X198596071Y-51201623D01*
X198596071Y-51201623D01*
G37*
D30*
X198000000Y-51975000D03*
D11*
G36*
X124999295Y-62617569D02*
X125032005Y-62622421D01*
X125064081Y-62630455D01*
X125095215Y-62641595D01*
X125125108Y-62655733D01*
X125153471Y-62672733D01*
X125180031Y-62692431D01*
X125204532Y-62714638D01*
X125226739Y-62739139D01*
X125246437Y-62765699D01*
X125263437Y-62794062D01*
X125277575Y-62823955D01*
X125288715Y-62855089D01*
X125296749Y-62887165D01*
X125301601Y-62919875D01*
X125303224Y-62952902D01*
X125303224Y-64078990D01*
X125301601Y-64112017D01*
X125296749Y-64144727D01*
X125288715Y-64176803D01*
X125277575Y-64207937D01*
X125263437Y-64237830D01*
X125246437Y-64266193D01*
X125226739Y-64292753D01*
X125204532Y-64317254D01*
X125180031Y-64339461D01*
X125153471Y-64359159D01*
X125125108Y-64376159D01*
X125095215Y-64390297D01*
X125064081Y-64401437D01*
X125032005Y-64409471D01*
X124999295Y-64414323D01*
X124966268Y-64415946D01*
X124090180Y-64415946D01*
X124057153Y-64414323D01*
X124024443Y-64409471D01*
X123992367Y-64401437D01*
X123961233Y-64390297D01*
X123931340Y-64376159D01*
X123902977Y-64359159D01*
X123876417Y-64339461D01*
X123851916Y-64317254D01*
X123829709Y-64292753D01*
X123810011Y-64266193D01*
X123793011Y-64237830D01*
X123778873Y-64207937D01*
X123767733Y-64176803D01*
X123759699Y-64144727D01*
X123754847Y-64112017D01*
X123753224Y-64078990D01*
X123753224Y-62952902D01*
X123754847Y-62919875D01*
X123759699Y-62887165D01*
X123767733Y-62855089D01*
X123778873Y-62823955D01*
X123793011Y-62794062D01*
X123810011Y-62765699D01*
X123829709Y-62739139D01*
X123851916Y-62714638D01*
X123876417Y-62692431D01*
X123902977Y-62672733D01*
X123931340Y-62655733D01*
X123961233Y-62641595D01*
X123992367Y-62630455D01*
X124024443Y-62622421D01*
X124057153Y-62617569D01*
X124090180Y-62615946D01*
X124966268Y-62615946D01*
X124999295Y-62617569D01*
X124999295Y-62617569D01*
G37*
D30*
X124528224Y-63515946D03*
D11*
G36*
X127049295Y-62617569D02*
X127082005Y-62622421D01*
X127114081Y-62630455D01*
X127145215Y-62641595D01*
X127175108Y-62655733D01*
X127203471Y-62672733D01*
X127230031Y-62692431D01*
X127254532Y-62714638D01*
X127276739Y-62739139D01*
X127296437Y-62765699D01*
X127313437Y-62794062D01*
X127327575Y-62823955D01*
X127338715Y-62855089D01*
X127346749Y-62887165D01*
X127351601Y-62919875D01*
X127353224Y-62952902D01*
X127353224Y-64078990D01*
X127351601Y-64112017D01*
X127346749Y-64144727D01*
X127338715Y-64176803D01*
X127327575Y-64207937D01*
X127313437Y-64237830D01*
X127296437Y-64266193D01*
X127276739Y-64292753D01*
X127254532Y-64317254D01*
X127230031Y-64339461D01*
X127203471Y-64359159D01*
X127175108Y-64376159D01*
X127145215Y-64390297D01*
X127114081Y-64401437D01*
X127082005Y-64409471D01*
X127049295Y-64414323D01*
X127016268Y-64415946D01*
X126140180Y-64415946D01*
X126107153Y-64414323D01*
X126074443Y-64409471D01*
X126042367Y-64401437D01*
X126011233Y-64390297D01*
X125981340Y-64376159D01*
X125952977Y-64359159D01*
X125926417Y-64339461D01*
X125901916Y-64317254D01*
X125879709Y-64292753D01*
X125860011Y-64266193D01*
X125843011Y-64237830D01*
X125828873Y-64207937D01*
X125817733Y-64176803D01*
X125809699Y-64144727D01*
X125804847Y-64112017D01*
X125803224Y-64078990D01*
X125803224Y-62952902D01*
X125804847Y-62919875D01*
X125809699Y-62887165D01*
X125817733Y-62855089D01*
X125828873Y-62823955D01*
X125843011Y-62794062D01*
X125860011Y-62765699D01*
X125879709Y-62739139D01*
X125901916Y-62714638D01*
X125926417Y-62692431D01*
X125952977Y-62672733D01*
X125981340Y-62655733D01*
X126011233Y-62641595D01*
X126042367Y-62630455D01*
X126074443Y-62622421D01*
X126107153Y-62617569D01*
X126140180Y-62615946D01*
X127016268Y-62615946D01*
X127049295Y-62617569D01*
X127049295Y-62617569D01*
G37*
D30*
X126578224Y-63515946D03*
D11*
G36*
X110496071Y-62617569D02*
X110528781Y-62622421D01*
X110560857Y-62630455D01*
X110591991Y-62641595D01*
X110621884Y-62655733D01*
X110650247Y-62672733D01*
X110676807Y-62692431D01*
X110701308Y-62714638D01*
X110723515Y-62739139D01*
X110743213Y-62765699D01*
X110760213Y-62794062D01*
X110774351Y-62823955D01*
X110785491Y-62855089D01*
X110793525Y-62887165D01*
X110798377Y-62919875D01*
X110800000Y-62952902D01*
X110800000Y-64078990D01*
X110798377Y-64112017D01*
X110793525Y-64144727D01*
X110785491Y-64176803D01*
X110774351Y-64207937D01*
X110760213Y-64237830D01*
X110743213Y-64266193D01*
X110723515Y-64292753D01*
X110701308Y-64317254D01*
X110676807Y-64339461D01*
X110650247Y-64359159D01*
X110621884Y-64376159D01*
X110591991Y-64390297D01*
X110560857Y-64401437D01*
X110528781Y-64409471D01*
X110496071Y-64414323D01*
X110463044Y-64415946D01*
X109586956Y-64415946D01*
X109553929Y-64414323D01*
X109521219Y-64409471D01*
X109489143Y-64401437D01*
X109458009Y-64390297D01*
X109428116Y-64376159D01*
X109399753Y-64359159D01*
X109373193Y-64339461D01*
X109348692Y-64317254D01*
X109326485Y-64292753D01*
X109306787Y-64266193D01*
X109289787Y-64237830D01*
X109275649Y-64207937D01*
X109264509Y-64176803D01*
X109256475Y-64144727D01*
X109251623Y-64112017D01*
X109250000Y-64078990D01*
X109250000Y-62952902D01*
X109251623Y-62919875D01*
X109256475Y-62887165D01*
X109264509Y-62855089D01*
X109275649Y-62823955D01*
X109289787Y-62794062D01*
X109306787Y-62765699D01*
X109326485Y-62739139D01*
X109348692Y-62714638D01*
X109373193Y-62692431D01*
X109399753Y-62672733D01*
X109428116Y-62655733D01*
X109458009Y-62641595D01*
X109489143Y-62630455D01*
X109521219Y-62622421D01*
X109553929Y-62617569D01*
X109586956Y-62615946D01*
X110463044Y-62615946D01*
X110496071Y-62617569D01*
X110496071Y-62617569D01*
G37*
D30*
X110025000Y-63515946D03*
D11*
G36*
X108446071Y-62617569D02*
X108478781Y-62622421D01*
X108510857Y-62630455D01*
X108541991Y-62641595D01*
X108571884Y-62655733D01*
X108600247Y-62672733D01*
X108626807Y-62692431D01*
X108651308Y-62714638D01*
X108673515Y-62739139D01*
X108693213Y-62765699D01*
X108710213Y-62794062D01*
X108724351Y-62823955D01*
X108735491Y-62855089D01*
X108743525Y-62887165D01*
X108748377Y-62919875D01*
X108750000Y-62952902D01*
X108750000Y-64078990D01*
X108748377Y-64112017D01*
X108743525Y-64144727D01*
X108735491Y-64176803D01*
X108724351Y-64207937D01*
X108710213Y-64237830D01*
X108693213Y-64266193D01*
X108673515Y-64292753D01*
X108651308Y-64317254D01*
X108626807Y-64339461D01*
X108600247Y-64359159D01*
X108571884Y-64376159D01*
X108541991Y-64390297D01*
X108510857Y-64401437D01*
X108478781Y-64409471D01*
X108446071Y-64414323D01*
X108413044Y-64415946D01*
X107536956Y-64415946D01*
X107503929Y-64414323D01*
X107471219Y-64409471D01*
X107439143Y-64401437D01*
X107408009Y-64390297D01*
X107378116Y-64376159D01*
X107349753Y-64359159D01*
X107323193Y-64339461D01*
X107298692Y-64317254D01*
X107276485Y-64292753D01*
X107256787Y-64266193D01*
X107239787Y-64237830D01*
X107225649Y-64207937D01*
X107214509Y-64176803D01*
X107206475Y-64144727D01*
X107201623Y-64112017D01*
X107200000Y-64078990D01*
X107200000Y-62952902D01*
X107201623Y-62919875D01*
X107206475Y-62887165D01*
X107214509Y-62855089D01*
X107225649Y-62823955D01*
X107239787Y-62794062D01*
X107256787Y-62765699D01*
X107276485Y-62739139D01*
X107298692Y-62714638D01*
X107323193Y-62692431D01*
X107349753Y-62672733D01*
X107378116Y-62655733D01*
X107408009Y-62641595D01*
X107439143Y-62630455D01*
X107471219Y-62622421D01*
X107503929Y-62617569D01*
X107536956Y-62615946D01*
X108413044Y-62615946D01*
X108446071Y-62617569D01*
X108446071Y-62617569D01*
G37*
D30*
X107975000Y-63515946D03*
D29*
X116000000Y-66000000D03*
D28*
X116000000Y-76160000D03*
D11*
G36*
X186596071Y-87201623D02*
X186628781Y-87206475D01*
X186660857Y-87214509D01*
X186691991Y-87225649D01*
X186721884Y-87239787D01*
X186750247Y-87256787D01*
X186776807Y-87276485D01*
X186801308Y-87298692D01*
X186823515Y-87323193D01*
X186843213Y-87349753D01*
X186860213Y-87378116D01*
X186874351Y-87408009D01*
X186885491Y-87439143D01*
X186893525Y-87471219D01*
X186898377Y-87503929D01*
X186900000Y-87536956D01*
X186900000Y-88413044D01*
X186898377Y-88446071D01*
X186893525Y-88478781D01*
X186885491Y-88510857D01*
X186874351Y-88541991D01*
X186860213Y-88571884D01*
X186843213Y-88600247D01*
X186823515Y-88626807D01*
X186801308Y-88651308D01*
X186776807Y-88673515D01*
X186750247Y-88693213D01*
X186721884Y-88710213D01*
X186691991Y-88724351D01*
X186660857Y-88735491D01*
X186628781Y-88743525D01*
X186596071Y-88748377D01*
X186563044Y-88750000D01*
X185436956Y-88750000D01*
X185403929Y-88748377D01*
X185371219Y-88743525D01*
X185339143Y-88735491D01*
X185308009Y-88724351D01*
X185278116Y-88710213D01*
X185249753Y-88693213D01*
X185223193Y-88673515D01*
X185198692Y-88651308D01*
X185176485Y-88626807D01*
X185156787Y-88600247D01*
X185139787Y-88571884D01*
X185125649Y-88541991D01*
X185114509Y-88510857D01*
X185106475Y-88478781D01*
X185101623Y-88446071D01*
X185100000Y-88413044D01*
X185100000Y-87536956D01*
X185101623Y-87503929D01*
X185106475Y-87471219D01*
X185114509Y-87439143D01*
X185125649Y-87408009D01*
X185139787Y-87378116D01*
X185156787Y-87349753D01*
X185176485Y-87323193D01*
X185198692Y-87298692D01*
X185223193Y-87276485D01*
X185249753Y-87256787D01*
X185278116Y-87239787D01*
X185308009Y-87225649D01*
X185339143Y-87214509D01*
X185371219Y-87206475D01*
X185403929Y-87201623D01*
X185436956Y-87200000D01*
X186563044Y-87200000D01*
X186596071Y-87201623D01*
X186596071Y-87201623D01*
G37*
D30*
X186000000Y-87975000D03*
D11*
G36*
X186596071Y-89251623D02*
X186628781Y-89256475D01*
X186660857Y-89264509D01*
X186691991Y-89275649D01*
X186721884Y-89289787D01*
X186750247Y-89306787D01*
X186776807Y-89326485D01*
X186801308Y-89348692D01*
X186823515Y-89373193D01*
X186843213Y-89399753D01*
X186860213Y-89428116D01*
X186874351Y-89458009D01*
X186885491Y-89489143D01*
X186893525Y-89521219D01*
X186898377Y-89553929D01*
X186900000Y-89586956D01*
X186900000Y-90463044D01*
X186898377Y-90496071D01*
X186893525Y-90528781D01*
X186885491Y-90560857D01*
X186874351Y-90591991D01*
X186860213Y-90621884D01*
X186843213Y-90650247D01*
X186823515Y-90676807D01*
X186801308Y-90701308D01*
X186776807Y-90723515D01*
X186750247Y-90743213D01*
X186721884Y-90760213D01*
X186691991Y-90774351D01*
X186660857Y-90785491D01*
X186628781Y-90793525D01*
X186596071Y-90798377D01*
X186563044Y-90800000D01*
X185436956Y-90800000D01*
X185403929Y-90798377D01*
X185371219Y-90793525D01*
X185339143Y-90785491D01*
X185308009Y-90774351D01*
X185278116Y-90760213D01*
X185249753Y-90743213D01*
X185223193Y-90723515D01*
X185198692Y-90701308D01*
X185176485Y-90676807D01*
X185156787Y-90650247D01*
X185139787Y-90621884D01*
X185125649Y-90591991D01*
X185114509Y-90560857D01*
X185106475Y-90528781D01*
X185101623Y-90496071D01*
X185100000Y-90463044D01*
X185100000Y-89586956D01*
X185101623Y-89553929D01*
X185106475Y-89521219D01*
X185114509Y-89489143D01*
X185125649Y-89458009D01*
X185139787Y-89428116D01*
X185156787Y-89399753D01*
X185176485Y-89373193D01*
X185198692Y-89348692D01*
X185223193Y-89326485D01*
X185249753Y-89306787D01*
X185278116Y-89289787D01*
X185308009Y-89275649D01*
X185339143Y-89264509D01*
X185371219Y-89256475D01*
X185403929Y-89251623D01*
X185436956Y-89250000D01*
X186563044Y-89250000D01*
X186596071Y-89251623D01*
X186596071Y-89251623D01*
G37*
D30*
X186000000Y-90025000D03*
D11*
G36*
X186596071Y-79251623D02*
X186628781Y-79256475D01*
X186660857Y-79264509D01*
X186691991Y-79275649D01*
X186721884Y-79289787D01*
X186750247Y-79306787D01*
X186776807Y-79326485D01*
X186801308Y-79348692D01*
X186823515Y-79373193D01*
X186843213Y-79399753D01*
X186860213Y-79428116D01*
X186874351Y-79458009D01*
X186885491Y-79489143D01*
X186893525Y-79521219D01*
X186898377Y-79553929D01*
X186900000Y-79586956D01*
X186900000Y-80463044D01*
X186898377Y-80496071D01*
X186893525Y-80528781D01*
X186885491Y-80560857D01*
X186874351Y-80591991D01*
X186860213Y-80621884D01*
X186843213Y-80650247D01*
X186823515Y-80676807D01*
X186801308Y-80701308D01*
X186776807Y-80723515D01*
X186750247Y-80743213D01*
X186721884Y-80760213D01*
X186691991Y-80774351D01*
X186660857Y-80785491D01*
X186628781Y-80793525D01*
X186596071Y-80798377D01*
X186563044Y-80800000D01*
X185436956Y-80800000D01*
X185403929Y-80798377D01*
X185371219Y-80793525D01*
X185339143Y-80785491D01*
X185308009Y-80774351D01*
X185278116Y-80760213D01*
X185249753Y-80743213D01*
X185223193Y-80723515D01*
X185198692Y-80701308D01*
X185176485Y-80676807D01*
X185156787Y-80650247D01*
X185139787Y-80621884D01*
X185125649Y-80591991D01*
X185114509Y-80560857D01*
X185106475Y-80528781D01*
X185101623Y-80496071D01*
X185100000Y-80463044D01*
X185100000Y-79586956D01*
X185101623Y-79553929D01*
X185106475Y-79521219D01*
X185114509Y-79489143D01*
X185125649Y-79458009D01*
X185139787Y-79428116D01*
X185156787Y-79399753D01*
X185176485Y-79373193D01*
X185198692Y-79348692D01*
X185223193Y-79326485D01*
X185249753Y-79306787D01*
X185278116Y-79289787D01*
X185308009Y-79275649D01*
X185339143Y-79264509D01*
X185371219Y-79256475D01*
X185403929Y-79251623D01*
X185436956Y-79250000D01*
X186563044Y-79250000D01*
X186596071Y-79251623D01*
X186596071Y-79251623D01*
G37*
D30*
X186000000Y-80025000D03*
D11*
G36*
X186596071Y-77201623D02*
X186628781Y-77206475D01*
X186660857Y-77214509D01*
X186691991Y-77225649D01*
X186721884Y-77239787D01*
X186750247Y-77256787D01*
X186776807Y-77276485D01*
X186801308Y-77298692D01*
X186823515Y-77323193D01*
X186843213Y-77349753D01*
X186860213Y-77378116D01*
X186874351Y-77408009D01*
X186885491Y-77439143D01*
X186893525Y-77471219D01*
X186898377Y-77503929D01*
X186900000Y-77536956D01*
X186900000Y-78413044D01*
X186898377Y-78446071D01*
X186893525Y-78478781D01*
X186885491Y-78510857D01*
X186874351Y-78541991D01*
X186860213Y-78571884D01*
X186843213Y-78600247D01*
X186823515Y-78626807D01*
X186801308Y-78651308D01*
X186776807Y-78673515D01*
X186750247Y-78693213D01*
X186721884Y-78710213D01*
X186691991Y-78724351D01*
X186660857Y-78735491D01*
X186628781Y-78743525D01*
X186596071Y-78748377D01*
X186563044Y-78750000D01*
X185436956Y-78750000D01*
X185403929Y-78748377D01*
X185371219Y-78743525D01*
X185339143Y-78735491D01*
X185308009Y-78724351D01*
X185278116Y-78710213D01*
X185249753Y-78693213D01*
X185223193Y-78673515D01*
X185198692Y-78651308D01*
X185176485Y-78626807D01*
X185156787Y-78600247D01*
X185139787Y-78571884D01*
X185125649Y-78541991D01*
X185114509Y-78510857D01*
X185106475Y-78478781D01*
X185101623Y-78446071D01*
X185100000Y-78413044D01*
X185100000Y-77536956D01*
X185101623Y-77503929D01*
X185106475Y-77471219D01*
X185114509Y-77439143D01*
X185125649Y-77408009D01*
X185139787Y-77378116D01*
X185156787Y-77349753D01*
X185176485Y-77323193D01*
X185198692Y-77298692D01*
X185223193Y-77276485D01*
X185249753Y-77256787D01*
X185278116Y-77239787D01*
X185308009Y-77225649D01*
X185339143Y-77214509D01*
X185371219Y-77206475D01*
X185403929Y-77201623D01*
X185436956Y-77200000D01*
X186563044Y-77200000D01*
X186596071Y-77201623D01*
X186596071Y-77201623D01*
G37*
D30*
X186000000Y-77975000D03*
D11*
G36*
X186596071Y-73226623D02*
X186628781Y-73231475D01*
X186660857Y-73239509D01*
X186691991Y-73250649D01*
X186721884Y-73264787D01*
X186750247Y-73281787D01*
X186776807Y-73301485D01*
X186801308Y-73323692D01*
X186823515Y-73348193D01*
X186843213Y-73374753D01*
X186860213Y-73403116D01*
X186874351Y-73433009D01*
X186885491Y-73464143D01*
X186893525Y-73496219D01*
X186898377Y-73528929D01*
X186900000Y-73561956D01*
X186900000Y-74438044D01*
X186898377Y-74471071D01*
X186893525Y-74503781D01*
X186885491Y-74535857D01*
X186874351Y-74566991D01*
X186860213Y-74596884D01*
X186843213Y-74625247D01*
X186823515Y-74651807D01*
X186801308Y-74676308D01*
X186776807Y-74698515D01*
X186750247Y-74718213D01*
X186721884Y-74735213D01*
X186691991Y-74749351D01*
X186660857Y-74760491D01*
X186628781Y-74768525D01*
X186596071Y-74773377D01*
X186563044Y-74775000D01*
X185436956Y-74775000D01*
X185403929Y-74773377D01*
X185371219Y-74768525D01*
X185339143Y-74760491D01*
X185308009Y-74749351D01*
X185278116Y-74735213D01*
X185249753Y-74718213D01*
X185223193Y-74698515D01*
X185198692Y-74676308D01*
X185176485Y-74651807D01*
X185156787Y-74625247D01*
X185139787Y-74596884D01*
X185125649Y-74566991D01*
X185114509Y-74535857D01*
X185106475Y-74503781D01*
X185101623Y-74471071D01*
X185100000Y-74438044D01*
X185100000Y-73561956D01*
X185101623Y-73528929D01*
X185106475Y-73496219D01*
X185114509Y-73464143D01*
X185125649Y-73433009D01*
X185139787Y-73403116D01*
X185156787Y-73374753D01*
X185176485Y-73348193D01*
X185198692Y-73323692D01*
X185223193Y-73301485D01*
X185249753Y-73281787D01*
X185278116Y-73264787D01*
X185308009Y-73250649D01*
X185339143Y-73239509D01*
X185371219Y-73231475D01*
X185403929Y-73226623D01*
X185436956Y-73225000D01*
X186563044Y-73225000D01*
X186596071Y-73226623D01*
X186596071Y-73226623D01*
G37*
D30*
X186000000Y-74000000D03*
D11*
G36*
X186596071Y-71176623D02*
X186628781Y-71181475D01*
X186660857Y-71189509D01*
X186691991Y-71200649D01*
X186721884Y-71214787D01*
X186750247Y-71231787D01*
X186776807Y-71251485D01*
X186801308Y-71273692D01*
X186823515Y-71298193D01*
X186843213Y-71324753D01*
X186860213Y-71353116D01*
X186874351Y-71383009D01*
X186885491Y-71414143D01*
X186893525Y-71446219D01*
X186898377Y-71478929D01*
X186900000Y-71511956D01*
X186900000Y-72388044D01*
X186898377Y-72421071D01*
X186893525Y-72453781D01*
X186885491Y-72485857D01*
X186874351Y-72516991D01*
X186860213Y-72546884D01*
X186843213Y-72575247D01*
X186823515Y-72601807D01*
X186801308Y-72626308D01*
X186776807Y-72648515D01*
X186750247Y-72668213D01*
X186721884Y-72685213D01*
X186691991Y-72699351D01*
X186660857Y-72710491D01*
X186628781Y-72718525D01*
X186596071Y-72723377D01*
X186563044Y-72725000D01*
X185436956Y-72725000D01*
X185403929Y-72723377D01*
X185371219Y-72718525D01*
X185339143Y-72710491D01*
X185308009Y-72699351D01*
X185278116Y-72685213D01*
X185249753Y-72668213D01*
X185223193Y-72648515D01*
X185198692Y-72626308D01*
X185176485Y-72601807D01*
X185156787Y-72575247D01*
X185139787Y-72546884D01*
X185125649Y-72516991D01*
X185114509Y-72485857D01*
X185106475Y-72453781D01*
X185101623Y-72421071D01*
X185100000Y-72388044D01*
X185100000Y-71511956D01*
X185101623Y-71478929D01*
X185106475Y-71446219D01*
X185114509Y-71414143D01*
X185125649Y-71383009D01*
X185139787Y-71353116D01*
X185156787Y-71324753D01*
X185176485Y-71298193D01*
X185198692Y-71273692D01*
X185223193Y-71251485D01*
X185249753Y-71231787D01*
X185278116Y-71214787D01*
X185308009Y-71200649D01*
X185339143Y-71189509D01*
X185371219Y-71181475D01*
X185403929Y-71176623D01*
X185436956Y-71175000D01*
X186563044Y-71175000D01*
X186596071Y-71176623D01*
X186596071Y-71176623D01*
G37*
D30*
X186000000Y-71950000D03*
D31*
X156172323Y-85000000D03*
D32*
X151172323Y-85000000D03*
X162902323Y-85020000D03*
D31*
X167902323Y-85020000D03*
D32*
X148260000Y-109372500D03*
D31*
X153260000Y-109372500D03*
X153260000Y-131597500D03*
D32*
X148260000Y-131597500D03*
D31*
X153260000Y-142710000D03*
D32*
X148260000Y-142710000D03*
X138370000Y-85020000D03*
D31*
X143370000Y-85020000D03*
X153260000Y-98260000D03*
D32*
X148260000Y-98260000D03*
X148260000Y-120485000D03*
D31*
X153260000Y-120485000D03*
D33*
X102540000Y-72860000D03*
X102540000Y-75400000D03*
D34*
X102540000Y-77940000D03*
X102540000Y-88100000D03*
D33*
X102540000Y-85560000D03*
X102540000Y-83020000D03*
D35*
X107620000Y-75400000D03*
D36*
X105080000Y-75400000D03*
X105080000Y-89500000D03*
D35*
X107620000Y-89500000D03*
D20*
X110160000Y-89370000D03*
D37*
X117780000Y-81750000D03*
X112700000Y-89370000D03*
X115240000Y-81750000D03*
X115240000Y-89370000D03*
X112700000Y-81750000D03*
X117780000Y-89370000D03*
X110160000Y-81750000D03*
D13*
X105447056Y-144552944D03*
X103750000Y-143850000D03*
X102052944Y-144552944D03*
X101350000Y-146250000D03*
X102052944Y-147947056D03*
X103750000Y-148650000D03*
X105447056Y-147947056D03*
X106150000Y-146250000D03*
D14*
X103750000Y-146250000D03*
D38*
X134000000Y-79000000D03*
X106000000Y-79000000D03*
X106000000Y-82750000D03*
X106000000Y-86500000D03*
D39*
X154540000Y-55500000D03*
D38*
X152000000Y-55500000D03*
X141000000Y-55500000D03*
D39*
X143540000Y-55500000D03*
M02*
