%TF.GenerationSoftware,KiCad,Pcbnew,(5.0.0)*%
%TF.CreationDate,2019-01-09T00:45:42+01:00*%
%TF.ProjectId,KicadEuropower,4B696361644575726F706F7765722E6B,Rev A*%
%TF.SameCoordinates,Original*%
%TF.FileFunction,Soldermask,Top*%
%TF.FilePolarity,Negative*%
%FSLAX46Y46*%
G04 Gerber Fmt 4.6, Leading zero omitted, Abs format (unit mm)*
G04 Created by KiCad (PCBNEW (5.0.0)) date 01/09/19 00:45:42*
%MOMM*%
%LPD*%
G01*
G04 APERTURE LIST*
%ADD10C,1.000000*%
%ADD11C,0.150000*%
%ADD12C,0.200000*%
%ADD13C,1.200000*%
%ADD14C,6.800000*%
%ADD15C,3.180000*%
%ADD16R,2.127200X2.127200*%
%ADD17O,2.127200X2.127200*%
%ADD18C,2.200000*%
%ADD19C,2.000000*%
%ADD20R,2.000000X2.000000*%
%ADD21C,2.398980*%
%ADD22O,2.380000X4.360000*%
%ADD23R,2.380000X4.360000*%
%ADD24R,4.360000X2.380000*%
%ADD25O,4.360000X2.380000*%
%ADD26R,2.305000X2.400000*%
%ADD27O,2.305000X2.400000*%
%ADD28O,2.600000X2.600000*%
%ADD29R,2.600000X2.600000*%
%ADD30C,1.550000*%
%ADD31C,2.400000*%
%ADD32R,2.400000X2.400000*%
%ADD33O,2.200000X2.200000*%
%ADD34R,2.200000X2.200000*%
%ADD35O,1.800000X1.800000*%
%ADD36C,1.800000*%
%ADD37O,2.000000X2.000000*%
%ADD38R,2.100000X2.100000*%
%ADD39O,2.100000X2.100000*%
G04 APERTURE END LIST*
D10*
X10000000Y-44000000D02*
X10000000Y-43500000D01*
X43000000Y-44000000D02*
X10000000Y-44000000D01*
X43000000Y-43500000D02*
X43000000Y-44000000D01*
X10000000Y-43500000D02*
X43000000Y-43500000D01*
D11*
X1666666Y-100000000D02*
G75*
G03X1666666Y-100000000I-1666666J0D01*
G01*
X-2500000Y-100000000D02*
X2500000Y-100000000D01*
X0Y-97500000D02*
X0Y-102500000D01*
D12*
X100000000Y0D02*
X0Y0D01*
X100000000Y-100000000D02*
X100000000Y0D01*
X0Y-100000000D02*
X100000000Y-100000000D01*
X0Y0D02*
X0Y-100000000D01*
D13*
X85947056Y-14302944D03*
X84250000Y-13600000D03*
X82552944Y-14302944D03*
X81850000Y-16000000D03*
X82552944Y-17697056D03*
X84250000Y-18400000D03*
X85947056Y-17697056D03*
X86650000Y-16000000D03*
D14*
X84250000Y-16000000D03*
X4000000Y-16000000D03*
D13*
X6400000Y-16000000D03*
X5697056Y-17697056D03*
X4000000Y-18400000D03*
X2302944Y-17697056D03*
X1600000Y-16000000D03*
X2302944Y-14302944D03*
X4000000Y-13600000D03*
X5697056Y-14302944D03*
D14*
X96000000Y-96250000D03*
D13*
X98400000Y-96250000D03*
X97697056Y-97947056D03*
X96000000Y-98650000D03*
X94302944Y-97947056D03*
X93600000Y-96250000D03*
X94302944Y-94552944D03*
X96000000Y-93850000D03*
X97697056Y-94552944D03*
D15*
X79000000Y-16000000D03*
X75600000Y-16000000D03*
X79000000Y-25920000D03*
X75600000Y-25920000D03*
D16*
X78333330Y-48535001D03*
D17*
X80873330Y-48535001D03*
X78333330Y-51075001D03*
X80873330Y-51075001D03*
X78333330Y-53615001D03*
X80873330Y-53615001D03*
X78333330Y-56155001D03*
X80873330Y-56155001D03*
X78333330Y-58695001D03*
X80873330Y-58695001D03*
D16*
X63666664Y-71000000D03*
D17*
X66206664Y-71000000D03*
X63666664Y-73540000D03*
X66206664Y-73540000D03*
X63666664Y-76080000D03*
X66206664Y-76080000D03*
X63666664Y-78620000D03*
X66206664Y-78620000D03*
X63666664Y-81160000D03*
X66206664Y-81160000D03*
X63666664Y-83700000D03*
X66206664Y-83700000D03*
X63666664Y-86240000D03*
X66206664Y-86240000D03*
X63666664Y-88780000D03*
X66206664Y-88780000D03*
X95540000Y-58695001D03*
X93000000Y-58695001D03*
X95540000Y-56155001D03*
X93000000Y-56155001D03*
X95540000Y-53615001D03*
X93000000Y-53615001D03*
X95540000Y-51075001D03*
X93000000Y-51075001D03*
X95540000Y-48535001D03*
D16*
X93000000Y-48535001D03*
D17*
X22206666Y-88780000D03*
X19666666Y-88780000D03*
X22206666Y-86240000D03*
X19666666Y-86240000D03*
X22206666Y-83700000D03*
X19666666Y-83700000D03*
X22206666Y-81160000D03*
X19666666Y-81160000D03*
X22206666Y-78620000D03*
X19666666Y-78620000D03*
X22206666Y-76080000D03*
X19666666Y-76080000D03*
X22206666Y-73540000D03*
X19666666Y-73540000D03*
X22206666Y-71000000D03*
D16*
X19666666Y-71000000D03*
X93000000Y-71000000D03*
D17*
X95540000Y-71000000D03*
X93000000Y-73540000D03*
X95540000Y-73540000D03*
X93000000Y-76080000D03*
X95540000Y-76080000D03*
X93000000Y-78620000D03*
X95540000Y-78620000D03*
X93000000Y-81160000D03*
X95540000Y-81160000D03*
D16*
X34333332Y-71000000D03*
D17*
X36873332Y-71000000D03*
X34333332Y-73540000D03*
X36873332Y-73540000D03*
X34333332Y-76080000D03*
X36873332Y-76080000D03*
X34333332Y-78620000D03*
X36873332Y-78620000D03*
X34333332Y-81160000D03*
X36873332Y-81160000D03*
X34333332Y-83700000D03*
X36873332Y-83700000D03*
X34333332Y-86240000D03*
X36873332Y-86240000D03*
X34333332Y-88780000D03*
X36873332Y-88780000D03*
X7540000Y-58695001D03*
X5000000Y-58695001D03*
X7540000Y-56155001D03*
X5000000Y-56155001D03*
X7540000Y-53615001D03*
X5000000Y-53615001D03*
X7540000Y-51075001D03*
X5000000Y-51075001D03*
X7540000Y-48535001D03*
D16*
X5000000Y-48535001D03*
D17*
X80873330Y-88780000D03*
X78333330Y-88780000D03*
X80873330Y-86240000D03*
X78333330Y-86240000D03*
X80873330Y-83700000D03*
X78333330Y-83700000D03*
X80873330Y-81160000D03*
X78333330Y-81160000D03*
X80873330Y-78620000D03*
X78333330Y-78620000D03*
X80873330Y-76080000D03*
X78333330Y-76080000D03*
X80873330Y-73540000D03*
X78333330Y-73540000D03*
X80873330Y-71000000D03*
D16*
X78333330Y-71000000D03*
D17*
X66206664Y-58695001D03*
X63666664Y-58695001D03*
X66206664Y-56155001D03*
X63666664Y-56155001D03*
X66206664Y-53615001D03*
X63666664Y-53615001D03*
X66206664Y-51075001D03*
X63666664Y-51075001D03*
X66206664Y-48535001D03*
D16*
X63666664Y-48535001D03*
X19666666Y-48535001D03*
D17*
X22206666Y-48535001D03*
X19666666Y-51075001D03*
X22206666Y-51075001D03*
X19666666Y-53615001D03*
X22206666Y-53615001D03*
X19666666Y-56155001D03*
X22206666Y-56155001D03*
X19666666Y-58695001D03*
X22206666Y-58695001D03*
X7540000Y-81160000D03*
X5000000Y-81160000D03*
X7540000Y-78620000D03*
X5000000Y-78620000D03*
X7540000Y-76080000D03*
X5000000Y-76080000D03*
X7540000Y-73540000D03*
X5000000Y-73540000D03*
X7540000Y-71000000D03*
D16*
X5000000Y-71000000D03*
X34290000Y-48535001D03*
D17*
X36830000Y-48535001D03*
X34290000Y-51075001D03*
X36830000Y-51075001D03*
X34290000Y-53615001D03*
X36830000Y-53615001D03*
X34290000Y-56155001D03*
X36830000Y-56155001D03*
X34290000Y-58695001D03*
X36830000Y-58695001D03*
D18*
X79324696Y-32089161D03*
X77274696Y-39589161D03*
D19*
X55537349Y-11000000D03*
D20*
X51737349Y-11000000D03*
X63467349Y-10890000D03*
D19*
X67267349Y-10890000D03*
D20*
X39197349Y-10890000D03*
D19*
X42997349Y-10890000D03*
D21*
X56539740Y-28499100D03*
X56539740Y-17500900D03*
X50540260Y-28499100D03*
X50540260Y-17500900D03*
X68269740Y-28499100D03*
X68269740Y-17500900D03*
X62270260Y-28499100D03*
X62270260Y-17500900D03*
X38000260Y-17500900D03*
X38000260Y-28499100D03*
X43999740Y-17500900D03*
X43999740Y-28499100D03*
D22*
X77000000Y-6000000D03*
D23*
X82000000Y-6000000D03*
X93000000Y-6000000D03*
D22*
X88000000Y-6000000D03*
D24*
X94000000Y-23000000D03*
D25*
X94000000Y-18000000D03*
D23*
X14000000Y-5816585D03*
D22*
X9000000Y-5816585D03*
X4000000Y-5816585D03*
X20553224Y-5816585D03*
X25553224Y-5816585D03*
D23*
X30553224Y-5816585D03*
D24*
X94000000Y-39000000D03*
D25*
X94000000Y-34000000D03*
X94000000Y-29000000D03*
D18*
X28000000Y-16700000D03*
X25950000Y-24200000D03*
X22796854Y-16700000D03*
X20746854Y-24200000D03*
D26*
X51000000Y-3000000D03*
D27*
X53540000Y-3000000D03*
X56080000Y-3000000D03*
D26*
X62730000Y-3000000D03*
D27*
X65270000Y-3000000D03*
X67810000Y-3000000D03*
X43540000Y-3000000D03*
X41000000Y-3000000D03*
D26*
X38460000Y-3000000D03*
D28*
X34000000Y-15840000D03*
D29*
X34000000Y-26000000D03*
X73324696Y-41089161D03*
D28*
X73324696Y-30929161D03*
D11*
G36*
X98596071Y-3251623D02*
X98628781Y-3256475D01*
X98660857Y-3264509D01*
X98691991Y-3275649D01*
X98721884Y-3289787D01*
X98750247Y-3306787D01*
X98776807Y-3326485D01*
X98801308Y-3348692D01*
X98823515Y-3373193D01*
X98843213Y-3399753D01*
X98860213Y-3428116D01*
X98874351Y-3458009D01*
X98885491Y-3489143D01*
X98893525Y-3521219D01*
X98898377Y-3553929D01*
X98900000Y-3586956D01*
X98900000Y-4463044D01*
X98898377Y-4496071D01*
X98893525Y-4528781D01*
X98885491Y-4560857D01*
X98874351Y-4591991D01*
X98860213Y-4621884D01*
X98843213Y-4650247D01*
X98823515Y-4676807D01*
X98801308Y-4701308D01*
X98776807Y-4723515D01*
X98750247Y-4743213D01*
X98721884Y-4760213D01*
X98691991Y-4774351D01*
X98660857Y-4785491D01*
X98628781Y-4793525D01*
X98596071Y-4798377D01*
X98563044Y-4800000D01*
X97436956Y-4800000D01*
X97403929Y-4798377D01*
X97371219Y-4793525D01*
X97339143Y-4785491D01*
X97308009Y-4774351D01*
X97278116Y-4760213D01*
X97249753Y-4743213D01*
X97223193Y-4723515D01*
X97198692Y-4701308D01*
X97176485Y-4676807D01*
X97156787Y-4650247D01*
X97139787Y-4621884D01*
X97125649Y-4591991D01*
X97114509Y-4560857D01*
X97106475Y-4528781D01*
X97101623Y-4496071D01*
X97100000Y-4463044D01*
X97100000Y-3586956D01*
X97101623Y-3553929D01*
X97106475Y-3521219D01*
X97114509Y-3489143D01*
X97125649Y-3458009D01*
X97139787Y-3428116D01*
X97156787Y-3399753D01*
X97176485Y-3373193D01*
X97198692Y-3348692D01*
X97223193Y-3326485D01*
X97249753Y-3306787D01*
X97278116Y-3289787D01*
X97308009Y-3275649D01*
X97339143Y-3264509D01*
X97371219Y-3256475D01*
X97403929Y-3251623D01*
X97436956Y-3250000D01*
X98563044Y-3250000D01*
X98596071Y-3251623D01*
X98596071Y-3251623D01*
G37*
D30*
X98000000Y-4025000D03*
D11*
G36*
X98596071Y-1201623D02*
X98628781Y-1206475D01*
X98660857Y-1214509D01*
X98691991Y-1225649D01*
X98721884Y-1239787D01*
X98750247Y-1256787D01*
X98776807Y-1276485D01*
X98801308Y-1298692D01*
X98823515Y-1323193D01*
X98843213Y-1349753D01*
X98860213Y-1378116D01*
X98874351Y-1408009D01*
X98885491Y-1439143D01*
X98893525Y-1471219D01*
X98898377Y-1503929D01*
X98900000Y-1536956D01*
X98900000Y-2413044D01*
X98898377Y-2446071D01*
X98893525Y-2478781D01*
X98885491Y-2510857D01*
X98874351Y-2541991D01*
X98860213Y-2571884D01*
X98843213Y-2600247D01*
X98823515Y-2626807D01*
X98801308Y-2651308D01*
X98776807Y-2673515D01*
X98750247Y-2693213D01*
X98721884Y-2710213D01*
X98691991Y-2724351D01*
X98660857Y-2735491D01*
X98628781Y-2743525D01*
X98596071Y-2748377D01*
X98563044Y-2750000D01*
X97436956Y-2750000D01*
X97403929Y-2748377D01*
X97371219Y-2743525D01*
X97339143Y-2735491D01*
X97308009Y-2724351D01*
X97278116Y-2710213D01*
X97249753Y-2693213D01*
X97223193Y-2673515D01*
X97198692Y-2651308D01*
X97176485Y-2626807D01*
X97156787Y-2600247D01*
X97139787Y-2571884D01*
X97125649Y-2541991D01*
X97114509Y-2510857D01*
X97106475Y-2478781D01*
X97101623Y-2446071D01*
X97100000Y-2413044D01*
X97100000Y-1536956D01*
X97101623Y-1503929D01*
X97106475Y-1471219D01*
X97114509Y-1439143D01*
X97125649Y-1408009D01*
X97139787Y-1378116D01*
X97156787Y-1349753D01*
X97176485Y-1323193D01*
X97198692Y-1298692D01*
X97223193Y-1276485D01*
X97249753Y-1256787D01*
X97278116Y-1239787D01*
X97308009Y-1225649D01*
X97339143Y-1214509D01*
X97371219Y-1206475D01*
X97403929Y-1201623D01*
X97436956Y-1200000D01*
X98563044Y-1200000D01*
X98596071Y-1201623D01*
X98596071Y-1201623D01*
G37*
D30*
X98000000Y-1975000D03*
D11*
G36*
X24999295Y-12617569D02*
X25032005Y-12622421D01*
X25064081Y-12630455D01*
X25095215Y-12641595D01*
X25125108Y-12655733D01*
X25153471Y-12672733D01*
X25180031Y-12692431D01*
X25204532Y-12714638D01*
X25226739Y-12739139D01*
X25246437Y-12765699D01*
X25263437Y-12794062D01*
X25277575Y-12823955D01*
X25288715Y-12855089D01*
X25296749Y-12887165D01*
X25301601Y-12919875D01*
X25303224Y-12952902D01*
X25303224Y-14078990D01*
X25301601Y-14112017D01*
X25296749Y-14144727D01*
X25288715Y-14176803D01*
X25277575Y-14207937D01*
X25263437Y-14237830D01*
X25246437Y-14266193D01*
X25226739Y-14292753D01*
X25204532Y-14317254D01*
X25180031Y-14339461D01*
X25153471Y-14359159D01*
X25125108Y-14376159D01*
X25095215Y-14390297D01*
X25064081Y-14401437D01*
X25032005Y-14409471D01*
X24999295Y-14414323D01*
X24966268Y-14415946D01*
X24090180Y-14415946D01*
X24057153Y-14414323D01*
X24024443Y-14409471D01*
X23992367Y-14401437D01*
X23961233Y-14390297D01*
X23931340Y-14376159D01*
X23902977Y-14359159D01*
X23876417Y-14339461D01*
X23851916Y-14317254D01*
X23829709Y-14292753D01*
X23810011Y-14266193D01*
X23793011Y-14237830D01*
X23778873Y-14207937D01*
X23767733Y-14176803D01*
X23759699Y-14144727D01*
X23754847Y-14112017D01*
X23753224Y-14078990D01*
X23753224Y-12952902D01*
X23754847Y-12919875D01*
X23759699Y-12887165D01*
X23767733Y-12855089D01*
X23778873Y-12823955D01*
X23793011Y-12794062D01*
X23810011Y-12765699D01*
X23829709Y-12739139D01*
X23851916Y-12714638D01*
X23876417Y-12692431D01*
X23902977Y-12672733D01*
X23931340Y-12655733D01*
X23961233Y-12641595D01*
X23992367Y-12630455D01*
X24024443Y-12622421D01*
X24057153Y-12617569D01*
X24090180Y-12615946D01*
X24966268Y-12615946D01*
X24999295Y-12617569D01*
X24999295Y-12617569D01*
G37*
D30*
X24528224Y-13515946D03*
D11*
G36*
X27049295Y-12617569D02*
X27082005Y-12622421D01*
X27114081Y-12630455D01*
X27145215Y-12641595D01*
X27175108Y-12655733D01*
X27203471Y-12672733D01*
X27230031Y-12692431D01*
X27254532Y-12714638D01*
X27276739Y-12739139D01*
X27296437Y-12765699D01*
X27313437Y-12794062D01*
X27327575Y-12823955D01*
X27338715Y-12855089D01*
X27346749Y-12887165D01*
X27351601Y-12919875D01*
X27353224Y-12952902D01*
X27353224Y-14078990D01*
X27351601Y-14112017D01*
X27346749Y-14144727D01*
X27338715Y-14176803D01*
X27327575Y-14207937D01*
X27313437Y-14237830D01*
X27296437Y-14266193D01*
X27276739Y-14292753D01*
X27254532Y-14317254D01*
X27230031Y-14339461D01*
X27203471Y-14359159D01*
X27175108Y-14376159D01*
X27145215Y-14390297D01*
X27114081Y-14401437D01*
X27082005Y-14409471D01*
X27049295Y-14414323D01*
X27016268Y-14415946D01*
X26140180Y-14415946D01*
X26107153Y-14414323D01*
X26074443Y-14409471D01*
X26042367Y-14401437D01*
X26011233Y-14390297D01*
X25981340Y-14376159D01*
X25952977Y-14359159D01*
X25926417Y-14339461D01*
X25901916Y-14317254D01*
X25879709Y-14292753D01*
X25860011Y-14266193D01*
X25843011Y-14237830D01*
X25828873Y-14207937D01*
X25817733Y-14176803D01*
X25809699Y-14144727D01*
X25804847Y-14112017D01*
X25803224Y-14078990D01*
X25803224Y-12952902D01*
X25804847Y-12919875D01*
X25809699Y-12887165D01*
X25817733Y-12855089D01*
X25828873Y-12823955D01*
X25843011Y-12794062D01*
X25860011Y-12765699D01*
X25879709Y-12739139D01*
X25901916Y-12714638D01*
X25926417Y-12692431D01*
X25952977Y-12672733D01*
X25981340Y-12655733D01*
X26011233Y-12641595D01*
X26042367Y-12630455D01*
X26074443Y-12622421D01*
X26107153Y-12617569D01*
X26140180Y-12615946D01*
X27016268Y-12615946D01*
X27049295Y-12617569D01*
X27049295Y-12617569D01*
G37*
D30*
X26578224Y-13515946D03*
D11*
G36*
X10496071Y-12617569D02*
X10528781Y-12622421D01*
X10560857Y-12630455D01*
X10591991Y-12641595D01*
X10621884Y-12655733D01*
X10650247Y-12672733D01*
X10676807Y-12692431D01*
X10701308Y-12714638D01*
X10723515Y-12739139D01*
X10743213Y-12765699D01*
X10760213Y-12794062D01*
X10774351Y-12823955D01*
X10785491Y-12855089D01*
X10793525Y-12887165D01*
X10798377Y-12919875D01*
X10800000Y-12952902D01*
X10800000Y-14078990D01*
X10798377Y-14112017D01*
X10793525Y-14144727D01*
X10785491Y-14176803D01*
X10774351Y-14207937D01*
X10760213Y-14237830D01*
X10743213Y-14266193D01*
X10723515Y-14292753D01*
X10701308Y-14317254D01*
X10676807Y-14339461D01*
X10650247Y-14359159D01*
X10621884Y-14376159D01*
X10591991Y-14390297D01*
X10560857Y-14401437D01*
X10528781Y-14409471D01*
X10496071Y-14414323D01*
X10463044Y-14415946D01*
X9586956Y-14415946D01*
X9553929Y-14414323D01*
X9521219Y-14409471D01*
X9489143Y-14401437D01*
X9458009Y-14390297D01*
X9428116Y-14376159D01*
X9399753Y-14359159D01*
X9373193Y-14339461D01*
X9348692Y-14317254D01*
X9326485Y-14292753D01*
X9306787Y-14266193D01*
X9289787Y-14237830D01*
X9275649Y-14207937D01*
X9264509Y-14176803D01*
X9256475Y-14144727D01*
X9251623Y-14112017D01*
X9250000Y-14078990D01*
X9250000Y-12952902D01*
X9251623Y-12919875D01*
X9256475Y-12887165D01*
X9264509Y-12855089D01*
X9275649Y-12823955D01*
X9289787Y-12794062D01*
X9306787Y-12765699D01*
X9326485Y-12739139D01*
X9348692Y-12714638D01*
X9373193Y-12692431D01*
X9399753Y-12672733D01*
X9428116Y-12655733D01*
X9458009Y-12641595D01*
X9489143Y-12630455D01*
X9521219Y-12622421D01*
X9553929Y-12617569D01*
X9586956Y-12615946D01*
X10463044Y-12615946D01*
X10496071Y-12617569D01*
X10496071Y-12617569D01*
G37*
D30*
X10025000Y-13515946D03*
D11*
G36*
X8446071Y-12617569D02*
X8478781Y-12622421D01*
X8510857Y-12630455D01*
X8541991Y-12641595D01*
X8571884Y-12655733D01*
X8600247Y-12672733D01*
X8626807Y-12692431D01*
X8651308Y-12714638D01*
X8673515Y-12739139D01*
X8693213Y-12765699D01*
X8710213Y-12794062D01*
X8724351Y-12823955D01*
X8735491Y-12855089D01*
X8743525Y-12887165D01*
X8748377Y-12919875D01*
X8750000Y-12952902D01*
X8750000Y-14078990D01*
X8748377Y-14112017D01*
X8743525Y-14144727D01*
X8735491Y-14176803D01*
X8724351Y-14207937D01*
X8710213Y-14237830D01*
X8693213Y-14266193D01*
X8673515Y-14292753D01*
X8651308Y-14317254D01*
X8626807Y-14339461D01*
X8600247Y-14359159D01*
X8571884Y-14376159D01*
X8541991Y-14390297D01*
X8510857Y-14401437D01*
X8478781Y-14409471D01*
X8446071Y-14414323D01*
X8413044Y-14415946D01*
X7536956Y-14415946D01*
X7503929Y-14414323D01*
X7471219Y-14409471D01*
X7439143Y-14401437D01*
X7408009Y-14390297D01*
X7378116Y-14376159D01*
X7349753Y-14359159D01*
X7323193Y-14339461D01*
X7298692Y-14317254D01*
X7276485Y-14292753D01*
X7256787Y-14266193D01*
X7239787Y-14237830D01*
X7225649Y-14207937D01*
X7214509Y-14176803D01*
X7206475Y-14144727D01*
X7201623Y-14112017D01*
X7200000Y-14078990D01*
X7200000Y-12952902D01*
X7201623Y-12919875D01*
X7206475Y-12887165D01*
X7214509Y-12855089D01*
X7225649Y-12823955D01*
X7239787Y-12794062D01*
X7256787Y-12765699D01*
X7276485Y-12739139D01*
X7298692Y-12714638D01*
X7323193Y-12692431D01*
X7349753Y-12672733D01*
X7378116Y-12655733D01*
X7408009Y-12641595D01*
X7439143Y-12630455D01*
X7471219Y-12622421D01*
X7503929Y-12617569D01*
X7536956Y-12615946D01*
X8413044Y-12615946D01*
X8446071Y-12617569D01*
X8446071Y-12617569D01*
G37*
D30*
X7975000Y-13515946D03*
D29*
X16000000Y-16000000D03*
D28*
X16000000Y-26160000D03*
D11*
G36*
X86596071Y-37201623D02*
X86628781Y-37206475D01*
X86660857Y-37214509D01*
X86691991Y-37225649D01*
X86721884Y-37239787D01*
X86750247Y-37256787D01*
X86776807Y-37276485D01*
X86801308Y-37298692D01*
X86823515Y-37323193D01*
X86843213Y-37349753D01*
X86860213Y-37378116D01*
X86874351Y-37408009D01*
X86885491Y-37439143D01*
X86893525Y-37471219D01*
X86898377Y-37503929D01*
X86900000Y-37536956D01*
X86900000Y-38413044D01*
X86898377Y-38446071D01*
X86893525Y-38478781D01*
X86885491Y-38510857D01*
X86874351Y-38541991D01*
X86860213Y-38571884D01*
X86843213Y-38600247D01*
X86823515Y-38626807D01*
X86801308Y-38651308D01*
X86776807Y-38673515D01*
X86750247Y-38693213D01*
X86721884Y-38710213D01*
X86691991Y-38724351D01*
X86660857Y-38735491D01*
X86628781Y-38743525D01*
X86596071Y-38748377D01*
X86563044Y-38750000D01*
X85436956Y-38750000D01*
X85403929Y-38748377D01*
X85371219Y-38743525D01*
X85339143Y-38735491D01*
X85308009Y-38724351D01*
X85278116Y-38710213D01*
X85249753Y-38693213D01*
X85223193Y-38673515D01*
X85198692Y-38651308D01*
X85176485Y-38626807D01*
X85156787Y-38600247D01*
X85139787Y-38571884D01*
X85125649Y-38541991D01*
X85114509Y-38510857D01*
X85106475Y-38478781D01*
X85101623Y-38446071D01*
X85100000Y-38413044D01*
X85100000Y-37536956D01*
X85101623Y-37503929D01*
X85106475Y-37471219D01*
X85114509Y-37439143D01*
X85125649Y-37408009D01*
X85139787Y-37378116D01*
X85156787Y-37349753D01*
X85176485Y-37323193D01*
X85198692Y-37298692D01*
X85223193Y-37276485D01*
X85249753Y-37256787D01*
X85278116Y-37239787D01*
X85308009Y-37225649D01*
X85339143Y-37214509D01*
X85371219Y-37206475D01*
X85403929Y-37201623D01*
X85436956Y-37200000D01*
X86563044Y-37200000D01*
X86596071Y-37201623D01*
X86596071Y-37201623D01*
G37*
D30*
X86000000Y-37975000D03*
D11*
G36*
X86596071Y-39251623D02*
X86628781Y-39256475D01*
X86660857Y-39264509D01*
X86691991Y-39275649D01*
X86721884Y-39289787D01*
X86750247Y-39306787D01*
X86776807Y-39326485D01*
X86801308Y-39348692D01*
X86823515Y-39373193D01*
X86843213Y-39399753D01*
X86860213Y-39428116D01*
X86874351Y-39458009D01*
X86885491Y-39489143D01*
X86893525Y-39521219D01*
X86898377Y-39553929D01*
X86900000Y-39586956D01*
X86900000Y-40463044D01*
X86898377Y-40496071D01*
X86893525Y-40528781D01*
X86885491Y-40560857D01*
X86874351Y-40591991D01*
X86860213Y-40621884D01*
X86843213Y-40650247D01*
X86823515Y-40676807D01*
X86801308Y-40701308D01*
X86776807Y-40723515D01*
X86750247Y-40743213D01*
X86721884Y-40760213D01*
X86691991Y-40774351D01*
X86660857Y-40785491D01*
X86628781Y-40793525D01*
X86596071Y-40798377D01*
X86563044Y-40800000D01*
X85436956Y-40800000D01*
X85403929Y-40798377D01*
X85371219Y-40793525D01*
X85339143Y-40785491D01*
X85308009Y-40774351D01*
X85278116Y-40760213D01*
X85249753Y-40743213D01*
X85223193Y-40723515D01*
X85198692Y-40701308D01*
X85176485Y-40676807D01*
X85156787Y-40650247D01*
X85139787Y-40621884D01*
X85125649Y-40591991D01*
X85114509Y-40560857D01*
X85106475Y-40528781D01*
X85101623Y-40496071D01*
X85100000Y-40463044D01*
X85100000Y-39586956D01*
X85101623Y-39553929D01*
X85106475Y-39521219D01*
X85114509Y-39489143D01*
X85125649Y-39458009D01*
X85139787Y-39428116D01*
X85156787Y-39399753D01*
X85176485Y-39373193D01*
X85198692Y-39348692D01*
X85223193Y-39326485D01*
X85249753Y-39306787D01*
X85278116Y-39289787D01*
X85308009Y-39275649D01*
X85339143Y-39264509D01*
X85371219Y-39256475D01*
X85403929Y-39251623D01*
X85436956Y-39250000D01*
X86563044Y-39250000D01*
X86596071Y-39251623D01*
X86596071Y-39251623D01*
G37*
D30*
X86000000Y-40025000D03*
D11*
G36*
X86596071Y-29251623D02*
X86628781Y-29256475D01*
X86660857Y-29264509D01*
X86691991Y-29275649D01*
X86721884Y-29289787D01*
X86750247Y-29306787D01*
X86776807Y-29326485D01*
X86801308Y-29348692D01*
X86823515Y-29373193D01*
X86843213Y-29399753D01*
X86860213Y-29428116D01*
X86874351Y-29458009D01*
X86885491Y-29489143D01*
X86893525Y-29521219D01*
X86898377Y-29553929D01*
X86900000Y-29586956D01*
X86900000Y-30463044D01*
X86898377Y-30496071D01*
X86893525Y-30528781D01*
X86885491Y-30560857D01*
X86874351Y-30591991D01*
X86860213Y-30621884D01*
X86843213Y-30650247D01*
X86823515Y-30676807D01*
X86801308Y-30701308D01*
X86776807Y-30723515D01*
X86750247Y-30743213D01*
X86721884Y-30760213D01*
X86691991Y-30774351D01*
X86660857Y-30785491D01*
X86628781Y-30793525D01*
X86596071Y-30798377D01*
X86563044Y-30800000D01*
X85436956Y-30800000D01*
X85403929Y-30798377D01*
X85371219Y-30793525D01*
X85339143Y-30785491D01*
X85308009Y-30774351D01*
X85278116Y-30760213D01*
X85249753Y-30743213D01*
X85223193Y-30723515D01*
X85198692Y-30701308D01*
X85176485Y-30676807D01*
X85156787Y-30650247D01*
X85139787Y-30621884D01*
X85125649Y-30591991D01*
X85114509Y-30560857D01*
X85106475Y-30528781D01*
X85101623Y-30496071D01*
X85100000Y-30463044D01*
X85100000Y-29586956D01*
X85101623Y-29553929D01*
X85106475Y-29521219D01*
X85114509Y-29489143D01*
X85125649Y-29458009D01*
X85139787Y-29428116D01*
X85156787Y-29399753D01*
X85176485Y-29373193D01*
X85198692Y-29348692D01*
X85223193Y-29326485D01*
X85249753Y-29306787D01*
X85278116Y-29289787D01*
X85308009Y-29275649D01*
X85339143Y-29264509D01*
X85371219Y-29256475D01*
X85403929Y-29251623D01*
X85436956Y-29250000D01*
X86563044Y-29250000D01*
X86596071Y-29251623D01*
X86596071Y-29251623D01*
G37*
D30*
X86000000Y-30025000D03*
D11*
G36*
X86596071Y-27201623D02*
X86628781Y-27206475D01*
X86660857Y-27214509D01*
X86691991Y-27225649D01*
X86721884Y-27239787D01*
X86750247Y-27256787D01*
X86776807Y-27276485D01*
X86801308Y-27298692D01*
X86823515Y-27323193D01*
X86843213Y-27349753D01*
X86860213Y-27378116D01*
X86874351Y-27408009D01*
X86885491Y-27439143D01*
X86893525Y-27471219D01*
X86898377Y-27503929D01*
X86900000Y-27536956D01*
X86900000Y-28413044D01*
X86898377Y-28446071D01*
X86893525Y-28478781D01*
X86885491Y-28510857D01*
X86874351Y-28541991D01*
X86860213Y-28571884D01*
X86843213Y-28600247D01*
X86823515Y-28626807D01*
X86801308Y-28651308D01*
X86776807Y-28673515D01*
X86750247Y-28693213D01*
X86721884Y-28710213D01*
X86691991Y-28724351D01*
X86660857Y-28735491D01*
X86628781Y-28743525D01*
X86596071Y-28748377D01*
X86563044Y-28750000D01*
X85436956Y-28750000D01*
X85403929Y-28748377D01*
X85371219Y-28743525D01*
X85339143Y-28735491D01*
X85308009Y-28724351D01*
X85278116Y-28710213D01*
X85249753Y-28693213D01*
X85223193Y-28673515D01*
X85198692Y-28651308D01*
X85176485Y-28626807D01*
X85156787Y-28600247D01*
X85139787Y-28571884D01*
X85125649Y-28541991D01*
X85114509Y-28510857D01*
X85106475Y-28478781D01*
X85101623Y-28446071D01*
X85100000Y-28413044D01*
X85100000Y-27536956D01*
X85101623Y-27503929D01*
X85106475Y-27471219D01*
X85114509Y-27439143D01*
X85125649Y-27408009D01*
X85139787Y-27378116D01*
X85156787Y-27349753D01*
X85176485Y-27323193D01*
X85198692Y-27298692D01*
X85223193Y-27276485D01*
X85249753Y-27256787D01*
X85278116Y-27239787D01*
X85308009Y-27225649D01*
X85339143Y-27214509D01*
X85371219Y-27206475D01*
X85403929Y-27201623D01*
X85436956Y-27200000D01*
X86563044Y-27200000D01*
X86596071Y-27201623D01*
X86596071Y-27201623D01*
G37*
D30*
X86000000Y-27975000D03*
D11*
G36*
X86596071Y-23226623D02*
X86628781Y-23231475D01*
X86660857Y-23239509D01*
X86691991Y-23250649D01*
X86721884Y-23264787D01*
X86750247Y-23281787D01*
X86776807Y-23301485D01*
X86801308Y-23323692D01*
X86823515Y-23348193D01*
X86843213Y-23374753D01*
X86860213Y-23403116D01*
X86874351Y-23433009D01*
X86885491Y-23464143D01*
X86893525Y-23496219D01*
X86898377Y-23528929D01*
X86900000Y-23561956D01*
X86900000Y-24438044D01*
X86898377Y-24471071D01*
X86893525Y-24503781D01*
X86885491Y-24535857D01*
X86874351Y-24566991D01*
X86860213Y-24596884D01*
X86843213Y-24625247D01*
X86823515Y-24651807D01*
X86801308Y-24676308D01*
X86776807Y-24698515D01*
X86750247Y-24718213D01*
X86721884Y-24735213D01*
X86691991Y-24749351D01*
X86660857Y-24760491D01*
X86628781Y-24768525D01*
X86596071Y-24773377D01*
X86563044Y-24775000D01*
X85436956Y-24775000D01*
X85403929Y-24773377D01*
X85371219Y-24768525D01*
X85339143Y-24760491D01*
X85308009Y-24749351D01*
X85278116Y-24735213D01*
X85249753Y-24718213D01*
X85223193Y-24698515D01*
X85198692Y-24676308D01*
X85176485Y-24651807D01*
X85156787Y-24625247D01*
X85139787Y-24596884D01*
X85125649Y-24566991D01*
X85114509Y-24535857D01*
X85106475Y-24503781D01*
X85101623Y-24471071D01*
X85100000Y-24438044D01*
X85100000Y-23561956D01*
X85101623Y-23528929D01*
X85106475Y-23496219D01*
X85114509Y-23464143D01*
X85125649Y-23433009D01*
X85139787Y-23403116D01*
X85156787Y-23374753D01*
X85176485Y-23348193D01*
X85198692Y-23323692D01*
X85223193Y-23301485D01*
X85249753Y-23281787D01*
X85278116Y-23264787D01*
X85308009Y-23250649D01*
X85339143Y-23239509D01*
X85371219Y-23231475D01*
X85403929Y-23226623D01*
X85436956Y-23225000D01*
X86563044Y-23225000D01*
X86596071Y-23226623D01*
X86596071Y-23226623D01*
G37*
D30*
X86000000Y-24000000D03*
D11*
G36*
X86596071Y-21176623D02*
X86628781Y-21181475D01*
X86660857Y-21189509D01*
X86691991Y-21200649D01*
X86721884Y-21214787D01*
X86750247Y-21231787D01*
X86776807Y-21251485D01*
X86801308Y-21273692D01*
X86823515Y-21298193D01*
X86843213Y-21324753D01*
X86860213Y-21353116D01*
X86874351Y-21383009D01*
X86885491Y-21414143D01*
X86893525Y-21446219D01*
X86898377Y-21478929D01*
X86900000Y-21511956D01*
X86900000Y-22388044D01*
X86898377Y-22421071D01*
X86893525Y-22453781D01*
X86885491Y-22485857D01*
X86874351Y-22516991D01*
X86860213Y-22546884D01*
X86843213Y-22575247D01*
X86823515Y-22601807D01*
X86801308Y-22626308D01*
X86776807Y-22648515D01*
X86750247Y-22668213D01*
X86721884Y-22685213D01*
X86691991Y-22699351D01*
X86660857Y-22710491D01*
X86628781Y-22718525D01*
X86596071Y-22723377D01*
X86563044Y-22725000D01*
X85436956Y-22725000D01*
X85403929Y-22723377D01*
X85371219Y-22718525D01*
X85339143Y-22710491D01*
X85308009Y-22699351D01*
X85278116Y-22685213D01*
X85249753Y-22668213D01*
X85223193Y-22648515D01*
X85198692Y-22626308D01*
X85176485Y-22601807D01*
X85156787Y-22575247D01*
X85139787Y-22546884D01*
X85125649Y-22516991D01*
X85114509Y-22485857D01*
X85106475Y-22453781D01*
X85101623Y-22421071D01*
X85100000Y-22388044D01*
X85100000Y-21511956D01*
X85101623Y-21478929D01*
X85106475Y-21446219D01*
X85114509Y-21414143D01*
X85125649Y-21383009D01*
X85139787Y-21353116D01*
X85156787Y-21324753D01*
X85176485Y-21298193D01*
X85198692Y-21273692D01*
X85223193Y-21251485D01*
X85249753Y-21231787D01*
X85278116Y-21214787D01*
X85308009Y-21200649D01*
X85339143Y-21189509D01*
X85371219Y-21181475D01*
X85403929Y-21176623D01*
X85436956Y-21175000D01*
X86563044Y-21175000D01*
X86596071Y-21176623D01*
X86596071Y-21176623D01*
G37*
D30*
X86000000Y-21950000D03*
D31*
X56172323Y-35000000D03*
D32*
X51172323Y-35000000D03*
X62902323Y-35020000D03*
D31*
X67902323Y-35020000D03*
D32*
X48260000Y-59372500D03*
D31*
X53260000Y-59372500D03*
X53260000Y-81597500D03*
D32*
X48260000Y-81597500D03*
D31*
X53260000Y-92710000D03*
D32*
X48260000Y-92710000D03*
X38370000Y-35020000D03*
D31*
X43370000Y-35020000D03*
X53260000Y-48260000D03*
D32*
X48260000Y-48260000D03*
X48260000Y-70485000D03*
D31*
X53260000Y-70485000D03*
D33*
X2540000Y-22860000D03*
X2540000Y-25400000D03*
D34*
X2540000Y-27940000D03*
X2540000Y-38100000D03*
D33*
X2540000Y-35560000D03*
X2540000Y-33020000D03*
D35*
X7620000Y-25400000D03*
D36*
X5080000Y-25400000D03*
X5080000Y-39500000D03*
D35*
X7620000Y-39500000D03*
D20*
X10160000Y-39370000D03*
D37*
X17780000Y-31750000D03*
X12700000Y-39370000D03*
X15240000Y-31750000D03*
X15240000Y-39370000D03*
X12700000Y-31750000D03*
X17780000Y-39370000D03*
X10160000Y-31750000D03*
D13*
X5447056Y-94552944D03*
X3750000Y-93850000D03*
X2052944Y-94552944D03*
X1350000Y-96250000D03*
X2052944Y-97947056D03*
X3750000Y-98650000D03*
X5447056Y-97947056D03*
X6150000Y-96250000D03*
D14*
X3750000Y-96250000D03*
D38*
X34000000Y-29000000D03*
X6000000Y-29000000D03*
X6000000Y-32750000D03*
X6000000Y-36500000D03*
D39*
X54540000Y-5500000D03*
D38*
X52000000Y-5500000D03*
X41000000Y-5500000D03*
D39*
X43540000Y-5500000D03*
M02*
