%TF.GenerationSoftware,KiCad,Pcbnew,(5.0.0)*%
%TF.CreationDate,2019-01-09T21:44:21+01:00*%
%TF.ProjectId,KicadEuropower,4B696361644575726F706F7765722E6B,Rev A*%
%TF.SameCoordinates,Original*%
%TF.FileFunction,Legend,Bot*%
%TF.FilePolarity,Positive*%
%FSLAX46Y46*%
G04 Gerber Fmt 4.6, Leading zero omitted, Abs format (unit mm)*
G04 Created by KiCad (PCBNEW (5.0.0)) date 01/09/19 21:44:21*
%MOMM*%
%LPD*%
G01*
G04 APERTURE LIST*
%ADD10C,1.000000*%
%ADD11C,0.150000*%
%ADD12C,0.200000*%
%ADD13C,0.120000*%
G04 APERTURE END LIST*
D10*
X110000000Y-94000000D02*
X110000000Y-93500000D01*
X143000000Y-94000000D02*
X110000000Y-94000000D01*
X143000000Y-93500000D02*
X143000000Y-94000000D01*
X110000000Y-93500000D02*
X143000000Y-93500000D01*
D11*
X101666666Y-150000000D02*
G75*
G03X101666666Y-150000000I-1666666J0D01*
G01*
X97500000Y-150000000D02*
X102500000Y-150000000D01*
X100000000Y-147500000D02*
X100000000Y-152500000D01*
D12*
X200000000Y-50000000D02*
X100000000Y-50000000D01*
X200000000Y-150000000D02*
X200000000Y-50000000D01*
X100000000Y-150000000D02*
X200000000Y-150000000D01*
X100000000Y-50000000D02*
X100000000Y-150000000D01*
D13*
X132910000Y-64213748D02*
X132910000Y-66986252D01*
X129490000Y-64213748D02*
X129490000Y-66986252D01*
X153238748Y-65790000D02*
X153761252Y-65790000D01*
X153238748Y-67210000D02*
X153761252Y-67210000D01*
X165238748Y-65790000D02*
X165761252Y-65790000D01*
X165238748Y-67210000D02*
X165761252Y-67210000D01*
X140763748Y-65790000D02*
X141286252Y-65790000D01*
X140763748Y-67210000D02*
X141286252Y-67210000D01*
X125602000Y-121874748D02*
X125602000Y-122397252D01*
X124182000Y-121874748D02*
X124182000Y-122397252D01*
X176656000Y-122128748D02*
X176656000Y-122651252D01*
X175236000Y-122128748D02*
X175236000Y-122651252D01*
X176656000Y-99268748D02*
X176656000Y-99791252D01*
X175236000Y-99268748D02*
X175236000Y-99791252D01*
X161924000Y-99268748D02*
X161924000Y-99791252D01*
X160504000Y-99268748D02*
X160504000Y-99791252D01*
X191134000Y-99268748D02*
X191134000Y-99791252D01*
X189714000Y-99268748D02*
X189714000Y-99791252D01*
X140334000Y-122128748D02*
X140334000Y-122651252D01*
X138914000Y-122128748D02*
X138914000Y-122651252D01*
X140080000Y-99277748D02*
X140080000Y-99800252D01*
X138660000Y-99277748D02*
X138660000Y-99800252D01*
X161924000Y-121883748D02*
X161924000Y-122406252D01*
X160504000Y-121883748D02*
X160504000Y-122406252D01*
X109450000Y-122137748D02*
X109450000Y-122660252D01*
X110870000Y-122137748D02*
X110870000Y-122660252D01*
X109450000Y-99531748D02*
X109450000Y-100054252D01*
X110870000Y-99531748D02*
X110870000Y-100054252D01*
X124182000Y-99522748D02*
X124182000Y-100045252D01*
X125602000Y-99522748D02*
X125602000Y-100045252D01*
X189714000Y-121883748D02*
X189714000Y-122406252D01*
X191134000Y-121883748D02*
X191134000Y-122406252D01*
X189714000Y-129757748D02*
X189714000Y-130280252D01*
X191134000Y-129757748D02*
X191134000Y-130280252D01*
X109450000Y-107396748D02*
X109450000Y-107919252D01*
X110870000Y-107396748D02*
X110870000Y-107919252D01*
X109704000Y-129748748D02*
X109704000Y-130271252D01*
X111124000Y-129748748D02*
X111124000Y-130271252D01*
X160504000Y-107142748D02*
X160504000Y-107665252D01*
X161924000Y-107142748D02*
X161924000Y-107665252D01*
X175236000Y-107142748D02*
X175236000Y-107665252D01*
X176656000Y-107142748D02*
X176656000Y-107665252D01*
X124182000Y-107142748D02*
X124182000Y-107665252D01*
X125602000Y-107142748D02*
X125602000Y-107665252D01*
X124182000Y-129738748D02*
X124182000Y-130261252D01*
X125602000Y-129738748D02*
X125602000Y-130261252D01*
X175236000Y-129494748D02*
X175236000Y-130017252D01*
X176656000Y-129494748D02*
X176656000Y-130017252D01*
X138914000Y-129494748D02*
X138914000Y-130017252D01*
X140334000Y-129494748D02*
X140334000Y-130017252D01*
X140080000Y-107396748D02*
X140080000Y-107919252D01*
X138660000Y-107396748D02*
X138660000Y-107919252D01*
X189714000Y-107142748D02*
X189714000Y-107665252D01*
X191134000Y-107142748D02*
X191134000Y-107665252D01*
X161924000Y-129748748D02*
X161924000Y-130271252D01*
X160504000Y-129748748D02*
X160504000Y-130271252D01*
X125602000Y-134335252D02*
X125602000Y-133812748D01*
X124182000Y-134335252D02*
X124182000Y-133812748D01*
X175236000Y-134335252D02*
X175236000Y-133812748D01*
X176656000Y-134335252D02*
X176656000Y-133812748D01*
X161924000Y-134335252D02*
X161924000Y-133812748D01*
X160504000Y-134335252D02*
X160504000Y-133812748D01*
X117890000Y-64254694D02*
X117890000Y-67027198D01*
X121310000Y-64254694D02*
X121310000Y-67027198D01*
X196738748Y-55290000D02*
X197261252Y-55290000D01*
X196738748Y-56710000D02*
X197261252Y-56710000D01*
X129736252Y-59790000D02*
X129213748Y-59790000D01*
X129736252Y-61210000D02*
X129213748Y-61210000D01*
X113261252Y-59790000D02*
X112738748Y-59790000D01*
X113261252Y-61210000D02*
X112738748Y-61210000D01*
X189736252Y-88290000D02*
X189213748Y-88290000D01*
X189736252Y-89710000D02*
X189213748Y-89710000D01*
X189761252Y-84710000D02*
X189238748Y-84710000D01*
X189761252Y-83290000D02*
X189238748Y-83290000D01*
X190210000Y-68738748D02*
X190210000Y-69261252D01*
X188790000Y-68738748D02*
X188790000Y-69261252D01*
X140334000Y-134335252D02*
X140334000Y-133812748D01*
X138914000Y-134335252D02*
X138914000Y-133812748D01*
X170210000Y-56238748D02*
X170210000Y-56761252D01*
X168790000Y-56238748D02*
X168790000Y-56761252D01*
X184988748Y-53460000D02*
X185511252Y-53460000D01*
X184988748Y-52040000D02*
X185511252Y-52040000D01*
X112738748Y-85000000D02*
X113261252Y-85000000D01*
X112738748Y-83580000D02*
X113261252Y-83580000D01*
X102488748Y-81210000D02*
X103011252Y-81210000D01*
X102488748Y-79790000D02*
X103011252Y-79790000D01*
X116493748Y-86120000D02*
X117016252Y-86120000D01*
X116493748Y-87540000D02*
X117016252Y-87540000D01*
X112738748Y-87540000D02*
X113261252Y-87540000D01*
X112738748Y-86120000D02*
X113261252Y-86120000D01*
X109236252Y-86210000D02*
X108713748Y-86210000D01*
X109236252Y-84790000D02*
X108713748Y-84790000D01*
X106790000Y-72261252D02*
X106790000Y-71738748D01*
X108210000Y-72261252D02*
X108210000Y-71738748D01*
X111210000Y-72261252D02*
X111210000Y-71738748D01*
X109790000Y-72261252D02*
X109790000Y-71738748D01*
D11*
X128478571Y-65266666D02*
X128478571Y-64933333D01*
X129002380Y-64933333D02*
X128002380Y-64933333D01*
X128002380Y-65409523D01*
X129002380Y-66314285D02*
X129002380Y-65742857D01*
X129002380Y-66028571D02*
X128002380Y-66028571D01*
X128145238Y-65933333D01*
X128240476Y-65838095D01*
X128288095Y-65742857D01*
X153666666Y-68507142D02*
X153714285Y-68554761D01*
X153857142Y-68602380D01*
X153952380Y-68602380D01*
X154095238Y-68554761D01*
X154190476Y-68459523D01*
X154238095Y-68364285D01*
X154285714Y-68173809D01*
X154285714Y-68030952D01*
X154238095Y-67840476D01*
X154190476Y-67745238D01*
X154095238Y-67650000D01*
X153952380Y-67602380D01*
X153857142Y-67602380D01*
X153714285Y-67650000D01*
X153666666Y-67697619D01*
X152714285Y-68602380D02*
X153285714Y-68602380D01*
X153000000Y-68602380D02*
X153000000Y-67602380D01*
X153095238Y-67745238D01*
X153190476Y-67840476D01*
X153285714Y-67888095D01*
X165666666Y-68507142D02*
X165714285Y-68554761D01*
X165857142Y-68602380D01*
X165952380Y-68602380D01*
X166095238Y-68554761D01*
X166190476Y-68459523D01*
X166238095Y-68364285D01*
X166285714Y-68173809D01*
X166285714Y-68030952D01*
X166238095Y-67840476D01*
X166190476Y-67745238D01*
X166095238Y-67650000D01*
X165952380Y-67602380D01*
X165857142Y-67602380D01*
X165714285Y-67650000D01*
X165666666Y-67697619D01*
X165285714Y-67697619D02*
X165238095Y-67650000D01*
X165142857Y-67602380D01*
X164904761Y-67602380D01*
X164809523Y-67650000D01*
X164761904Y-67697619D01*
X164714285Y-67792857D01*
X164714285Y-67888095D01*
X164761904Y-68030952D01*
X165333333Y-68602380D01*
X164714285Y-68602380D01*
X141667857Y-68507142D02*
X141715476Y-68554761D01*
X141858333Y-68602380D01*
X141953571Y-68602380D01*
X142096428Y-68554761D01*
X142191666Y-68459523D01*
X142239285Y-68364285D01*
X142286904Y-68173809D01*
X142286904Y-68030952D01*
X142239285Y-67840476D01*
X142191666Y-67745238D01*
X142096428Y-67650000D01*
X141953571Y-67602380D01*
X141858333Y-67602380D01*
X141715476Y-67650000D01*
X141667857Y-67697619D01*
X140715476Y-68602380D02*
X141286904Y-68602380D01*
X141001190Y-68602380D02*
X141001190Y-67602380D01*
X141096428Y-67745238D01*
X141191666Y-67840476D01*
X141286904Y-67888095D01*
X139810714Y-67602380D02*
X140286904Y-67602380D01*
X140334523Y-68078571D01*
X140286904Y-68030952D01*
X140191666Y-67983333D01*
X139953571Y-67983333D01*
X139858333Y-68030952D01*
X139810714Y-68078571D01*
X139763095Y-68173809D01*
X139763095Y-68411904D01*
X139810714Y-68507142D01*
X139858333Y-68554761D01*
X139953571Y-68602380D01*
X140191666Y-68602380D01*
X140286904Y-68554761D01*
X140334523Y-68507142D01*
X123599142Y-121493142D02*
X123646761Y-121445523D01*
X123694380Y-121302666D01*
X123694380Y-121207428D01*
X123646761Y-121064571D01*
X123551523Y-120969333D01*
X123456285Y-120921714D01*
X123265809Y-120874095D01*
X123122952Y-120874095D01*
X122932476Y-120921714D01*
X122837238Y-120969333D01*
X122742000Y-121064571D01*
X122694380Y-121207428D01*
X122694380Y-121302666D01*
X122742000Y-121445523D01*
X122789619Y-121493142D01*
X123694380Y-122445523D02*
X123694380Y-121874095D01*
X123694380Y-122159809D02*
X122694380Y-122159809D01*
X122837238Y-122064571D01*
X122932476Y-121969333D01*
X122980095Y-121874095D01*
X122694380Y-123302666D02*
X122694380Y-123112190D01*
X122742000Y-123016952D01*
X122789619Y-122969333D01*
X122932476Y-122874095D01*
X123122952Y-122826476D01*
X123503904Y-122826476D01*
X123599142Y-122874095D01*
X123646761Y-122921714D01*
X123694380Y-123016952D01*
X123694380Y-123207428D01*
X123646761Y-123302666D01*
X123599142Y-123350285D01*
X123503904Y-123397904D01*
X123265809Y-123397904D01*
X123170571Y-123350285D01*
X123122952Y-123302666D01*
X123075333Y-123207428D01*
X123075333Y-123016952D01*
X123122952Y-122921714D01*
X123170571Y-122874095D01*
X123265809Y-122826476D01*
X174653142Y-121747142D02*
X174700761Y-121699523D01*
X174748380Y-121556666D01*
X174748380Y-121461428D01*
X174700761Y-121318571D01*
X174605523Y-121223333D01*
X174510285Y-121175714D01*
X174319809Y-121128095D01*
X174176952Y-121128095D01*
X173986476Y-121175714D01*
X173891238Y-121223333D01*
X173796000Y-121318571D01*
X173748380Y-121461428D01*
X173748380Y-121556666D01*
X173796000Y-121699523D01*
X173843619Y-121747142D01*
X174748380Y-122699523D02*
X174748380Y-122128095D01*
X174748380Y-122413809D02*
X173748380Y-122413809D01*
X173891238Y-122318571D01*
X173986476Y-122223333D01*
X174034095Y-122128095D01*
X173748380Y-123032857D02*
X173748380Y-123699523D01*
X174748380Y-123270952D01*
X174653142Y-98887142D02*
X174700761Y-98839523D01*
X174748380Y-98696666D01*
X174748380Y-98601428D01*
X174700761Y-98458571D01*
X174605523Y-98363333D01*
X174510285Y-98315714D01*
X174319809Y-98268095D01*
X174176952Y-98268095D01*
X173986476Y-98315714D01*
X173891238Y-98363333D01*
X173796000Y-98458571D01*
X173748380Y-98601428D01*
X173748380Y-98696666D01*
X173796000Y-98839523D01*
X173843619Y-98887142D01*
X174748380Y-99839523D02*
X174748380Y-99268095D01*
X174748380Y-99553809D02*
X173748380Y-99553809D01*
X173891238Y-99458571D01*
X173986476Y-99363333D01*
X174034095Y-99268095D01*
X174176952Y-100410952D02*
X174129333Y-100315714D01*
X174081714Y-100268095D01*
X173986476Y-100220476D01*
X173938857Y-100220476D01*
X173843619Y-100268095D01*
X173796000Y-100315714D01*
X173748380Y-100410952D01*
X173748380Y-100601428D01*
X173796000Y-100696666D01*
X173843619Y-100744285D01*
X173938857Y-100791904D01*
X173986476Y-100791904D01*
X174081714Y-100744285D01*
X174129333Y-100696666D01*
X174176952Y-100601428D01*
X174176952Y-100410952D01*
X174224571Y-100315714D01*
X174272190Y-100268095D01*
X174367428Y-100220476D01*
X174557904Y-100220476D01*
X174653142Y-100268095D01*
X174700761Y-100315714D01*
X174748380Y-100410952D01*
X174748380Y-100601428D01*
X174700761Y-100696666D01*
X174653142Y-100744285D01*
X174557904Y-100791904D01*
X174367428Y-100791904D01*
X174272190Y-100744285D01*
X174224571Y-100696666D01*
X174176952Y-100601428D01*
X159921142Y-98887142D02*
X159968761Y-98839523D01*
X160016380Y-98696666D01*
X160016380Y-98601428D01*
X159968761Y-98458571D01*
X159873523Y-98363333D01*
X159778285Y-98315714D01*
X159587809Y-98268095D01*
X159444952Y-98268095D01*
X159254476Y-98315714D01*
X159159238Y-98363333D01*
X159064000Y-98458571D01*
X159016380Y-98601428D01*
X159016380Y-98696666D01*
X159064000Y-98839523D01*
X159111619Y-98887142D01*
X160016380Y-99839523D02*
X160016380Y-99268095D01*
X160016380Y-99553809D02*
X159016380Y-99553809D01*
X159159238Y-99458571D01*
X159254476Y-99363333D01*
X159302095Y-99268095D01*
X160016380Y-100315714D02*
X160016380Y-100506190D01*
X159968761Y-100601428D01*
X159921142Y-100649047D01*
X159778285Y-100744285D01*
X159587809Y-100791904D01*
X159206857Y-100791904D01*
X159111619Y-100744285D01*
X159064000Y-100696666D01*
X159016380Y-100601428D01*
X159016380Y-100410952D01*
X159064000Y-100315714D01*
X159111619Y-100268095D01*
X159206857Y-100220476D01*
X159444952Y-100220476D01*
X159540190Y-100268095D01*
X159587809Y-100315714D01*
X159635428Y-100410952D01*
X159635428Y-100601428D01*
X159587809Y-100696666D01*
X159540190Y-100744285D01*
X159444952Y-100791904D01*
X189131142Y-98887142D02*
X189178761Y-98839523D01*
X189226380Y-98696666D01*
X189226380Y-98601428D01*
X189178761Y-98458571D01*
X189083523Y-98363333D01*
X188988285Y-98315714D01*
X188797809Y-98268095D01*
X188654952Y-98268095D01*
X188464476Y-98315714D01*
X188369238Y-98363333D01*
X188274000Y-98458571D01*
X188226380Y-98601428D01*
X188226380Y-98696666D01*
X188274000Y-98839523D01*
X188321619Y-98887142D01*
X188321619Y-99268095D02*
X188274000Y-99315714D01*
X188226380Y-99410952D01*
X188226380Y-99649047D01*
X188274000Y-99744285D01*
X188321619Y-99791904D01*
X188416857Y-99839523D01*
X188512095Y-99839523D01*
X188654952Y-99791904D01*
X189226380Y-99220476D01*
X189226380Y-99839523D01*
X188226380Y-100458571D02*
X188226380Y-100553809D01*
X188274000Y-100649047D01*
X188321619Y-100696666D01*
X188416857Y-100744285D01*
X188607333Y-100791904D01*
X188845428Y-100791904D01*
X189035904Y-100744285D01*
X189131142Y-100696666D01*
X189178761Y-100649047D01*
X189226380Y-100553809D01*
X189226380Y-100458571D01*
X189178761Y-100363333D01*
X189131142Y-100315714D01*
X189035904Y-100268095D01*
X188845428Y-100220476D01*
X188607333Y-100220476D01*
X188416857Y-100268095D01*
X188321619Y-100315714D01*
X188274000Y-100363333D01*
X188226380Y-100458571D01*
X138331142Y-121747142D02*
X138378761Y-121699523D01*
X138426380Y-121556666D01*
X138426380Y-121461428D01*
X138378761Y-121318571D01*
X138283523Y-121223333D01*
X138188285Y-121175714D01*
X137997809Y-121128095D01*
X137854952Y-121128095D01*
X137664476Y-121175714D01*
X137569238Y-121223333D01*
X137474000Y-121318571D01*
X137426380Y-121461428D01*
X137426380Y-121556666D01*
X137474000Y-121699523D01*
X137521619Y-121747142D01*
X137521619Y-122128095D02*
X137474000Y-122175714D01*
X137426380Y-122270952D01*
X137426380Y-122509047D01*
X137474000Y-122604285D01*
X137521619Y-122651904D01*
X137616857Y-122699523D01*
X137712095Y-122699523D01*
X137854952Y-122651904D01*
X138426380Y-122080476D01*
X138426380Y-122699523D01*
X138426380Y-123651904D02*
X138426380Y-123080476D01*
X138426380Y-123366190D02*
X137426380Y-123366190D01*
X137569238Y-123270952D01*
X137664476Y-123175714D01*
X137712095Y-123080476D01*
X138077142Y-98896142D02*
X138124761Y-98848523D01*
X138172380Y-98705666D01*
X138172380Y-98610428D01*
X138124761Y-98467571D01*
X138029523Y-98372333D01*
X137934285Y-98324714D01*
X137743809Y-98277095D01*
X137600952Y-98277095D01*
X137410476Y-98324714D01*
X137315238Y-98372333D01*
X137220000Y-98467571D01*
X137172380Y-98610428D01*
X137172380Y-98705666D01*
X137220000Y-98848523D01*
X137267619Y-98896142D01*
X137267619Y-99277095D02*
X137220000Y-99324714D01*
X137172380Y-99419952D01*
X137172380Y-99658047D01*
X137220000Y-99753285D01*
X137267619Y-99800904D01*
X137362857Y-99848523D01*
X137458095Y-99848523D01*
X137600952Y-99800904D01*
X138172380Y-99229476D01*
X138172380Y-99848523D01*
X137267619Y-100229476D02*
X137220000Y-100277095D01*
X137172380Y-100372333D01*
X137172380Y-100610428D01*
X137220000Y-100705666D01*
X137267619Y-100753285D01*
X137362857Y-100800904D01*
X137458095Y-100800904D01*
X137600952Y-100753285D01*
X138172380Y-100181857D01*
X138172380Y-100800904D01*
X159921142Y-121502142D02*
X159968761Y-121454523D01*
X160016380Y-121311666D01*
X160016380Y-121216428D01*
X159968761Y-121073571D01*
X159873523Y-120978333D01*
X159778285Y-120930714D01*
X159587809Y-120883095D01*
X159444952Y-120883095D01*
X159254476Y-120930714D01*
X159159238Y-120978333D01*
X159064000Y-121073571D01*
X159016380Y-121216428D01*
X159016380Y-121311666D01*
X159064000Y-121454523D01*
X159111619Y-121502142D01*
X159111619Y-121883095D02*
X159064000Y-121930714D01*
X159016380Y-122025952D01*
X159016380Y-122264047D01*
X159064000Y-122359285D01*
X159111619Y-122406904D01*
X159206857Y-122454523D01*
X159302095Y-122454523D01*
X159444952Y-122406904D01*
X160016380Y-121835476D01*
X160016380Y-122454523D01*
X159016380Y-122787857D02*
X159016380Y-123406904D01*
X159397333Y-123073571D01*
X159397333Y-123216428D01*
X159444952Y-123311666D01*
X159492571Y-123359285D01*
X159587809Y-123406904D01*
X159825904Y-123406904D01*
X159921142Y-123359285D01*
X159968761Y-123311666D01*
X160016380Y-123216428D01*
X160016380Y-122930714D01*
X159968761Y-122835476D01*
X159921142Y-122787857D01*
X108867142Y-121756142D02*
X108914761Y-121708523D01*
X108962380Y-121565666D01*
X108962380Y-121470428D01*
X108914761Y-121327571D01*
X108819523Y-121232333D01*
X108724285Y-121184714D01*
X108533809Y-121137095D01*
X108390952Y-121137095D01*
X108200476Y-121184714D01*
X108105238Y-121232333D01*
X108010000Y-121327571D01*
X107962380Y-121470428D01*
X107962380Y-121565666D01*
X108010000Y-121708523D01*
X108057619Y-121756142D01*
X108057619Y-122137095D02*
X108010000Y-122184714D01*
X107962380Y-122279952D01*
X107962380Y-122518047D01*
X108010000Y-122613285D01*
X108057619Y-122660904D01*
X108152857Y-122708523D01*
X108248095Y-122708523D01*
X108390952Y-122660904D01*
X108962380Y-122089476D01*
X108962380Y-122708523D01*
X108295714Y-123565666D02*
X108962380Y-123565666D01*
X107914761Y-123327571D02*
X108629047Y-123089476D01*
X108629047Y-123708523D01*
X108867142Y-99150142D02*
X108914761Y-99102523D01*
X108962380Y-98959666D01*
X108962380Y-98864428D01*
X108914761Y-98721571D01*
X108819523Y-98626333D01*
X108724285Y-98578714D01*
X108533809Y-98531095D01*
X108390952Y-98531095D01*
X108200476Y-98578714D01*
X108105238Y-98626333D01*
X108010000Y-98721571D01*
X107962380Y-98864428D01*
X107962380Y-98959666D01*
X108010000Y-99102523D01*
X108057619Y-99150142D01*
X108057619Y-99531095D02*
X108010000Y-99578714D01*
X107962380Y-99673952D01*
X107962380Y-99912047D01*
X108010000Y-100007285D01*
X108057619Y-100054904D01*
X108152857Y-100102523D01*
X108248095Y-100102523D01*
X108390952Y-100054904D01*
X108962380Y-99483476D01*
X108962380Y-100102523D01*
X107962380Y-101007285D02*
X107962380Y-100531095D01*
X108438571Y-100483476D01*
X108390952Y-100531095D01*
X108343333Y-100626333D01*
X108343333Y-100864428D01*
X108390952Y-100959666D01*
X108438571Y-101007285D01*
X108533809Y-101054904D01*
X108771904Y-101054904D01*
X108867142Y-101007285D01*
X108914761Y-100959666D01*
X108962380Y-100864428D01*
X108962380Y-100626333D01*
X108914761Y-100531095D01*
X108867142Y-100483476D01*
X123599142Y-99141142D02*
X123646761Y-99093523D01*
X123694380Y-98950666D01*
X123694380Y-98855428D01*
X123646761Y-98712571D01*
X123551523Y-98617333D01*
X123456285Y-98569714D01*
X123265809Y-98522095D01*
X123122952Y-98522095D01*
X122932476Y-98569714D01*
X122837238Y-98617333D01*
X122742000Y-98712571D01*
X122694380Y-98855428D01*
X122694380Y-98950666D01*
X122742000Y-99093523D01*
X122789619Y-99141142D01*
X122789619Y-99522095D02*
X122742000Y-99569714D01*
X122694380Y-99664952D01*
X122694380Y-99903047D01*
X122742000Y-99998285D01*
X122789619Y-100045904D01*
X122884857Y-100093523D01*
X122980095Y-100093523D01*
X123122952Y-100045904D01*
X123694380Y-99474476D01*
X123694380Y-100093523D01*
X122694380Y-100950666D02*
X122694380Y-100760190D01*
X122742000Y-100664952D01*
X122789619Y-100617333D01*
X122932476Y-100522095D01*
X123122952Y-100474476D01*
X123503904Y-100474476D01*
X123599142Y-100522095D01*
X123646761Y-100569714D01*
X123694380Y-100664952D01*
X123694380Y-100855428D01*
X123646761Y-100950666D01*
X123599142Y-100998285D01*
X123503904Y-101045904D01*
X123265809Y-101045904D01*
X123170571Y-100998285D01*
X123122952Y-100950666D01*
X123075333Y-100855428D01*
X123075333Y-100664952D01*
X123122952Y-100569714D01*
X123170571Y-100522095D01*
X123265809Y-100474476D01*
X189131142Y-121502142D02*
X189178761Y-121454523D01*
X189226380Y-121311666D01*
X189226380Y-121216428D01*
X189178761Y-121073571D01*
X189083523Y-120978333D01*
X188988285Y-120930714D01*
X188797809Y-120883095D01*
X188654952Y-120883095D01*
X188464476Y-120930714D01*
X188369238Y-120978333D01*
X188274000Y-121073571D01*
X188226380Y-121216428D01*
X188226380Y-121311666D01*
X188274000Y-121454523D01*
X188321619Y-121502142D01*
X188321619Y-121883095D02*
X188274000Y-121930714D01*
X188226380Y-122025952D01*
X188226380Y-122264047D01*
X188274000Y-122359285D01*
X188321619Y-122406904D01*
X188416857Y-122454523D01*
X188512095Y-122454523D01*
X188654952Y-122406904D01*
X189226380Y-121835476D01*
X189226380Y-122454523D01*
X188226380Y-122787857D02*
X188226380Y-123454523D01*
X189226380Y-123025952D01*
X189131142Y-129376142D02*
X189178761Y-129328523D01*
X189226380Y-129185666D01*
X189226380Y-129090428D01*
X189178761Y-128947571D01*
X189083523Y-128852333D01*
X188988285Y-128804714D01*
X188797809Y-128757095D01*
X188654952Y-128757095D01*
X188464476Y-128804714D01*
X188369238Y-128852333D01*
X188274000Y-128947571D01*
X188226380Y-129090428D01*
X188226380Y-129185666D01*
X188274000Y-129328523D01*
X188321619Y-129376142D01*
X188321619Y-129757095D02*
X188274000Y-129804714D01*
X188226380Y-129899952D01*
X188226380Y-130138047D01*
X188274000Y-130233285D01*
X188321619Y-130280904D01*
X188416857Y-130328523D01*
X188512095Y-130328523D01*
X188654952Y-130280904D01*
X189226380Y-129709476D01*
X189226380Y-130328523D01*
X188654952Y-130899952D02*
X188607333Y-130804714D01*
X188559714Y-130757095D01*
X188464476Y-130709476D01*
X188416857Y-130709476D01*
X188321619Y-130757095D01*
X188274000Y-130804714D01*
X188226380Y-130899952D01*
X188226380Y-131090428D01*
X188274000Y-131185666D01*
X188321619Y-131233285D01*
X188416857Y-131280904D01*
X188464476Y-131280904D01*
X188559714Y-131233285D01*
X188607333Y-131185666D01*
X188654952Y-131090428D01*
X188654952Y-130899952D01*
X188702571Y-130804714D01*
X188750190Y-130757095D01*
X188845428Y-130709476D01*
X189035904Y-130709476D01*
X189131142Y-130757095D01*
X189178761Y-130804714D01*
X189226380Y-130899952D01*
X189226380Y-131090428D01*
X189178761Y-131185666D01*
X189131142Y-131233285D01*
X189035904Y-131280904D01*
X188845428Y-131280904D01*
X188750190Y-131233285D01*
X188702571Y-131185666D01*
X188654952Y-131090428D01*
X108867142Y-107015142D02*
X108914761Y-106967523D01*
X108962380Y-106824666D01*
X108962380Y-106729428D01*
X108914761Y-106586571D01*
X108819523Y-106491333D01*
X108724285Y-106443714D01*
X108533809Y-106396095D01*
X108390952Y-106396095D01*
X108200476Y-106443714D01*
X108105238Y-106491333D01*
X108010000Y-106586571D01*
X107962380Y-106729428D01*
X107962380Y-106824666D01*
X108010000Y-106967523D01*
X108057619Y-107015142D01*
X108057619Y-107396095D02*
X108010000Y-107443714D01*
X107962380Y-107538952D01*
X107962380Y-107777047D01*
X108010000Y-107872285D01*
X108057619Y-107919904D01*
X108152857Y-107967523D01*
X108248095Y-107967523D01*
X108390952Y-107919904D01*
X108962380Y-107348476D01*
X108962380Y-107967523D01*
X108962380Y-108443714D02*
X108962380Y-108634190D01*
X108914761Y-108729428D01*
X108867142Y-108777047D01*
X108724285Y-108872285D01*
X108533809Y-108919904D01*
X108152857Y-108919904D01*
X108057619Y-108872285D01*
X108010000Y-108824666D01*
X107962380Y-108729428D01*
X107962380Y-108538952D01*
X108010000Y-108443714D01*
X108057619Y-108396095D01*
X108152857Y-108348476D01*
X108390952Y-108348476D01*
X108486190Y-108396095D01*
X108533809Y-108443714D01*
X108581428Y-108538952D01*
X108581428Y-108729428D01*
X108533809Y-108824666D01*
X108486190Y-108872285D01*
X108390952Y-108919904D01*
X109121142Y-129367142D02*
X109168761Y-129319523D01*
X109216380Y-129176666D01*
X109216380Y-129081428D01*
X109168761Y-128938571D01*
X109073523Y-128843333D01*
X108978285Y-128795714D01*
X108787809Y-128748095D01*
X108644952Y-128748095D01*
X108454476Y-128795714D01*
X108359238Y-128843333D01*
X108264000Y-128938571D01*
X108216380Y-129081428D01*
X108216380Y-129176666D01*
X108264000Y-129319523D01*
X108311619Y-129367142D01*
X108216380Y-129700476D02*
X108216380Y-130319523D01*
X108597333Y-129986190D01*
X108597333Y-130129047D01*
X108644952Y-130224285D01*
X108692571Y-130271904D01*
X108787809Y-130319523D01*
X109025904Y-130319523D01*
X109121142Y-130271904D01*
X109168761Y-130224285D01*
X109216380Y-130129047D01*
X109216380Y-129843333D01*
X109168761Y-129748095D01*
X109121142Y-129700476D01*
X108216380Y-130938571D02*
X108216380Y-131033809D01*
X108264000Y-131129047D01*
X108311619Y-131176666D01*
X108406857Y-131224285D01*
X108597333Y-131271904D01*
X108835428Y-131271904D01*
X109025904Y-131224285D01*
X109121142Y-131176666D01*
X109168761Y-131129047D01*
X109216380Y-131033809D01*
X109216380Y-130938571D01*
X109168761Y-130843333D01*
X109121142Y-130795714D01*
X109025904Y-130748095D01*
X108835428Y-130700476D01*
X108597333Y-130700476D01*
X108406857Y-130748095D01*
X108311619Y-130795714D01*
X108264000Y-130843333D01*
X108216380Y-130938571D01*
X159921142Y-106761142D02*
X159968761Y-106713523D01*
X160016380Y-106570666D01*
X160016380Y-106475428D01*
X159968761Y-106332571D01*
X159873523Y-106237333D01*
X159778285Y-106189714D01*
X159587809Y-106142095D01*
X159444952Y-106142095D01*
X159254476Y-106189714D01*
X159159238Y-106237333D01*
X159064000Y-106332571D01*
X159016380Y-106475428D01*
X159016380Y-106570666D01*
X159064000Y-106713523D01*
X159111619Y-106761142D01*
X159016380Y-107094476D02*
X159016380Y-107713523D01*
X159397333Y-107380190D01*
X159397333Y-107523047D01*
X159444952Y-107618285D01*
X159492571Y-107665904D01*
X159587809Y-107713523D01*
X159825904Y-107713523D01*
X159921142Y-107665904D01*
X159968761Y-107618285D01*
X160016380Y-107523047D01*
X160016380Y-107237333D01*
X159968761Y-107142095D01*
X159921142Y-107094476D01*
X160016380Y-108665904D02*
X160016380Y-108094476D01*
X160016380Y-108380190D02*
X159016380Y-108380190D01*
X159159238Y-108284952D01*
X159254476Y-108189714D01*
X159302095Y-108094476D01*
X174653142Y-106761142D02*
X174700761Y-106713523D01*
X174748380Y-106570666D01*
X174748380Y-106475428D01*
X174700761Y-106332571D01*
X174605523Y-106237333D01*
X174510285Y-106189714D01*
X174319809Y-106142095D01*
X174176952Y-106142095D01*
X173986476Y-106189714D01*
X173891238Y-106237333D01*
X173796000Y-106332571D01*
X173748380Y-106475428D01*
X173748380Y-106570666D01*
X173796000Y-106713523D01*
X173843619Y-106761142D01*
X173748380Y-107094476D02*
X173748380Y-107713523D01*
X174129333Y-107380190D01*
X174129333Y-107523047D01*
X174176952Y-107618285D01*
X174224571Y-107665904D01*
X174319809Y-107713523D01*
X174557904Y-107713523D01*
X174653142Y-107665904D01*
X174700761Y-107618285D01*
X174748380Y-107523047D01*
X174748380Y-107237333D01*
X174700761Y-107142095D01*
X174653142Y-107094476D01*
X173843619Y-108094476D02*
X173796000Y-108142095D01*
X173748380Y-108237333D01*
X173748380Y-108475428D01*
X173796000Y-108570666D01*
X173843619Y-108618285D01*
X173938857Y-108665904D01*
X174034095Y-108665904D01*
X174176952Y-108618285D01*
X174748380Y-108046857D01*
X174748380Y-108665904D01*
X123599142Y-106761142D02*
X123646761Y-106713523D01*
X123694380Y-106570666D01*
X123694380Y-106475428D01*
X123646761Y-106332571D01*
X123551523Y-106237333D01*
X123456285Y-106189714D01*
X123265809Y-106142095D01*
X123122952Y-106142095D01*
X122932476Y-106189714D01*
X122837238Y-106237333D01*
X122742000Y-106332571D01*
X122694380Y-106475428D01*
X122694380Y-106570666D01*
X122742000Y-106713523D01*
X122789619Y-106761142D01*
X122694380Y-107094476D02*
X122694380Y-107713523D01*
X123075333Y-107380190D01*
X123075333Y-107523047D01*
X123122952Y-107618285D01*
X123170571Y-107665904D01*
X123265809Y-107713523D01*
X123503904Y-107713523D01*
X123599142Y-107665904D01*
X123646761Y-107618285D01*
X123694380Y-107523047D01*
X123694380Y-107237333D01*
X123646761Y-107142095D01*
X123599142Y-107094476D01*
X122694380Y-108046857D02*
X122694380Y-108665904D01*
X123075333Y-108332571D01*
X123075333Y-108475428D01*
X123122952Y-108570666D01*
X123170571Y-108618285D01*
X123265809Y-108665904D01*
X123503904Y-108665904D01*
X123599142Y-108618285D01*
X123646761Y-108570666D01*
X123694380Y-108475428D01*
X123694380Y-108189714D01*
X123646761Y-108094476D01*
X123599142Y-108046857D01*
X123599142Y-129357142D02*
X123646761Y-129309523D01*
X123694380Y-129166666D01*
X123694380Y-129071428D01*
X123646761Y-128928571D01*
X123551523Y-128833333D01*
X123456285Y-128785714D01*
X123265809Y-128738095D01*
X123122952Y-128738095D01*
X122932476Y-128785714D01*
X122837238Y-128833333D01*
X122742000Y-128928571D01*
X122694380Y-129071428D01*
X122694380Y-129166666D01*
X122742000Y-129309523D01*
X122789619Y-129357142D01*
X122694380Y-129690476D02*
X122694380Y-130309523D01*
X123075333Y-129976190D01*
X123075333Y-130119047D01*
X123122952Y-130214285D01*
X123170571Y-130261904D01*
X123265809Y-130309523D01*
X123503904Y-130309523D01*
X123599142Y-130261904D01*
X123646761Y-130214285D01*
X123694380Y-130119047D01*
X123694380Y-129833333D01*
X123646761Y-129738095D01*
X123599142Y-129690476D01*
X123027714Y-131166666D02*
X123694380Y-131166666D01*
X122646761Y-130928571D02*
X123361047Y-130690476D01*
X123361047Y-131309523D01*
X174653142Y-129113142D02*
X174700761Y-129065523D01*
X174748380Y-128922666D01*
X174748380Y-128827428D01*
X174700761Y-128684571D01*
X174605523Y-128589333D01*
X174510285Y-128541714D01*
X174319809Y-128494095D01*
X174176952Y-128494095D01*
X173986476Y-128541714D01*
X173891238Y-128589333D01*
X173796000Y-128684571D01*
X173748380Y-128827428D01*
X173748380Y-128922666D01*
X173796000Y-129065523D01*
X173843619Y-129113142D01*
X173748380Y-129446476D02*
X173748380Y-130065523D01*
X174129333Y-129732190D01*
X174129333Y-129875047D01*
X174176952Y-129970285D01*
X174224571Y-130017904D01*
X174319809Y-130065523D01*
X174557904Y-130065523D01*
X174653142Y-130017904D01*
X174700761Y-129970285D01*
X174748380Y-129875047D01*
X174748380Y-129589333D01*
X174700761Y-129494095D01*
X174653142Y-129446476D01*
X173748380Y-130970285D02*
X173748380Y-130494095D01*
X174224571Y-130446476D01*
X174176952Y-130494095D01*
X174129333Y-130589333D01*
X174129333Y-130827428D01*
X174176952Y-130922666D01*
X174224571Y-130970285D01*
X174319809Y-131017904D01*
X174557904Y-131017904D01*
X174653142Y-130970285D01*
X174700761Y-130922666D01*
X174748380Y-130827428D01*
X174748380Y-130589333D01*
X174700761Y-130494095D01*
X174653142Y-130446476D01*
X138331142Y-129113142D02*
X138378761Y-129065523D01*
X138426380Y-128922666D01*
X138426380Y-128827428D01*
X138378761Y-128684571D01*
X138283523Y-128589333D01*
X138188285Y-128541714D01*
X137997809Y-128494095D01*
X137854952Y-128494095D01*
X137664476Y-128541714D01*
X137569238Y-128589333D01*
X137474000Y-128684571D01*
X137426380Y-128827428D01*
X137426380Y-128922666D01*
X137474000Y-129065523D01*
X137521619Y-129113142D01*
X137426380Y-129446476D02*
X137426380Y-130065523D01*
X137807333Y-129732190D01*
X137807333Y-129875047D01*
X137854952Y-129970285D01*
X137902571Y-130017904D01*
X137997809Y-130065523D01*
X138235904Y-130065523D01*
X138331142Y-130017904D01*
X138378761Y-129970285D01*
X138426380Y-129875047D01*
X138426380Y-129589333D01*
X138378761Y-129494095D01*
X138331142Y-129446476D01*
X137426380Y-130922666D02*
X137426380Y-130732190D01*
X137474000Y-130636952D01*
X137521619Y-130589333D01*
X137664476Y-130494095D01*
X137854952Y-130446476D01*
X138235904Y-130446476D01*
X138331142Y-130494095D01*
X138378761Y-130541714D01*
X138426380Y-130636952D01*
X138426380Y-130827428D01*
X138378761Y-130922666D01*
X138331142Y-130970285D01*
X138235904Y-131017904D01*
X137997809Y-131017904D01*
X137902571Y-130970285D01*
X137854952Y-130922666D01*
X137807333Y-130827428D01*
X137807333Y-130636952D01*
X137854952Y-130541714D01*
X137902571Y-130494095D01*
X137997809Y-130446476D01*
X138077142Y-107015142D02*
X138124761Y-106967523D01*
X138172380Y-106824666D01*
X138172380Y-106729428D01*
X138124761Y-106586571D01*
X138029523Y-106491333D01*
X137934285Y-106443714D01*
X137743809Y-106396095D01*
X137600952Y-106396095D01*
X137410476Y-106443714D01*
X137315238Y-106491333D01*
X137220000Y-106586571D01*
X137172380Y-106729428D01*
X137172380Y-106824666D01*
X137220000Y-106967523D01*
X137267619Y-107015142D01*
X137172380Y-107348476D02*
X137172380Y-107967523D01*
X137553333Y-107634190D01*
X137553333Y-107777047D01*
X137600952Y-107872285D01*
X137648571Y-107919904D01*
X137743809Y-107967523D01*
X137981904Y-107967523D01*
X138077142Y-107919904D01*
X138124761Y-107872285D01*
X138172380Y-107777047D01*
X138172380Y-107491333D01*
X138124761Y-107396095D01*
X138077142Y-107348476D01*
X137172380Y-108300857D02*
X137172380Y-108967523D01*
X138172380Y-108538952D01*
X189131142Y-106761142D02*
X189178761Y-106713523D01*
X189226380Y-106570666D01*
X189226380Y-106475428D01*
X189178761Y-106332571D01*
X189083523Y-106237333D01*
X188988285Y-106189714D01*
X188797809Y-106142095D01*
X188654952Y-106142095D01*
X188464476Y-106189714D01*
X188369238Y-106237333D01*
X188274000Y-106332571D01*
X188226380Y-106475428D01*
X188226380Y-106570666D01*
X188274000Y-106713523D01*
X188321619Y-106761142D01*
X188226380Y-107094476D02*
X188226380Y-107713523D01*
X188607333Y-107380190D01*
X188607333Y-107523047D01*
X188654952Y-107618285D01*
X188702571Y-107665904D01*
X188797809Y-107713523D01*
X189035904Y-107713523D01*
X189131142Y-107665904D01*
X189178761Y-107618285D01*
X189226380Y-107523047D01*
X189226380Y-107237333D01*
X189178761Y-107142095D01*
X189131142Y-107094476D01*
X188654952Y-108284952D02*
X188607333Y-108189714D01*
X188559714Y-108142095D01*
X188464476Y-108094476D01*
X188416857Y-108094476D01*
X188321619Y-108142095D01*
X188274000Y-108189714D01*
X188226380Y-108284952D01*
X188226380Y-108475428D01*
X188274000Y-108570666D01*
X188321619Y-108618285D01*
X188416857Y-108665904D01*
X188464476Y-108665904D01*
X188559714Y-108618285D01*
X188607333Y-108570666D01*
X188654952Y-108475428D01*
X188654952Y-108284952D01*
X188702571Y-108189714D01*
X188750190Y-108142095D01*
X188845428Y-108094476D01*
X189035904Y-108094476D01*
X189131142Y-108142095D01*
X189178761Y-108189714D01*
X189226380Y-108284952D01*
X189226380Y-108475428D01*
X189178761Y-108570666D01*
X189131142Y-108618285D01*
X189035904Y-108665904D01*
X188845428Y-108665904D01*
X188750190Y-108618285D01*
X188702571Y-108570666D01*
X188654952Y-108475428D01*
X159921142Y-129367142D02*
X159968761Y-129319523D01*
X160016380Y-129176666D01*
X160016380Y-129081428D01*
X159968761Y-128938571D01*
X159873523Y-128843333D01*
X159778285Y-128795714D01*
X159587809Y-128748095D01*
X159444952Y-128748095D01*
X159254476Y-128795714D01*
X159159238Y-128843333D01*
X159064000Y-128938571D01*
X159016380Y-129081428D01*
X159016380Y-129176666D01*
X159064000Y-129319523D01*
X159111619Y-129367142D01*
X159016380Y-129700476D02*
X159016380Y-130319523D01*
X159397333Y-129986190D01*
X159397333Y-130129047D01*
X159444952Y-130224285D01*
X159492571Y-130271904D01*
X159587809Y-130319523D01*
X159825904Y-130319523D01*
X159921142Y-130271904D01*
X159968761Y-130224285D01*
X160016380Y-130129047D01*
X160016380Y-129843333D01*
X159968761Y-129748095D01*
X159921142Y-129700476D01*
X160016380Y-130795714D02*
X160016380Y-130986190D01*
X159968761Y-131081428D01*
X159921142Y-131129047D01*
X159778285Y-131224285D01*
X159587809Y-131271904D01*
X159206857Y-131271904D01*
X159111619Y-131224285D01*
X159064000Y-131176666D01*
X159016380Y-131081428D01*
X159016380Y-130890952D01*
X159064000Y-130795714D01*
X159111619Y-130748095D01*
X159206857Y-130700476D01*
X159444952Y-130700476D01*
X159540190Y-130748095D01*
X159587809Y-130795714D01*
X159635428Y-130890952D01*
X159635428Y-131081428D01*
X159587809Y-131176666D01*
X159540190Y-131224285D01*
X159444952Y-131271904D01*
X126899142Y-133431142D02*
X126946761Y-133383523D01*
X126994380Y-133240666D01*
X126994380Y-133145428D01*
X126946761Y-133002571D01*
X126851523Y-132907333D01*
X126756285Y-132859714D01*
X126565809Y-132812095D01*
X126422952Y-132812095D01*
X126232476Y-132859714D01*
X126137238Y-132907333D01*
X126042000Y-133002571D01*
X125994380Y-133145428D01*
X125994380Y-133240666D01*
X126042000Y-133383523D01*
X126089619Y-133431142D01*
X126327714Y-134288285D02*
X126994380Y-134288285D01*
X125946761Y-134050190D02*
X126661047Y-133812095D01*
X126661047Y-134431142D01*
X125994380Y-135002571D02*
X125994380Y-135097809D01*
X126042000Y-135193047D01*
X126089619Y-135240666D01*
X126184857Y-135288285D01*
X126375333Y-135335904D01*
X126613428Y-135335904D01*
X126803904Y-135288285D01*
X126899142Y-135240666D01*
X126946761Y-135193047D01*
X126994380Y-135097809D01*
X126994380Y-135002571D01*
X126946761Y-134907333D01*
X126899142Y-134859714D01*
X126803904Y-134812095D01*
X126613428Y-134764476D01*
X126375333Y-134764476D01*
X126184857Y-134812095D01*
X126089619Y-134859714D01*
X126042000Y-134907333D01*
X125994380Y-135002571D01*
X177953142Y-133431142D02*
X178000761Y-133383523D01*
X178048380Y-133240666D01*
X178048380Y-133145428D01*
X178000761Y-133002571D01*
X177905523Y-132907333D01*
X177810285Y-132859714D01*
X177619809Y-132812095D01*
X177476952Y-132812095D01*
X177286476Y-132859714D01*
X177191238Y-132907333D01*
X177096000Y-133002571D01*
X177048380Y-133145428D01*
X177048380Y-133240666D01*
X177096000Y-133383523D01*
X177143619Y-133431142D01*
X177381714Y-134288285D02*
X178048380Y-134288285D01*
X177000761Y-134050190D02*
X177715047Y-133812095D01*
X177715047Y-134431142D01*
X178048380Y-135335904D02*
X178048380Y-134764476D01*
X178048380Y-135050190D02*
X177048380Y-135050190D01*
X177191238Y-134954952D01*
X177286476Y-134859714D01*
X177334095Y-134764476D01*
X163221142Y-133431142D02*
X163268761Y-133383523D01*
X163316380Y-133240666D01*
X163316380Y-133145428D01*
X163268761Y-133002571D01*
X163173523Y-132907333D01*
X163078285Y-132859714D01*
X162887809Y-132812095D01*
X162744952Y-132812095D01*
X162554476Y-132859714D01*
X162459238Y-132907333D01*
X162364000Y-133002571D01*
X162316380Y-133145428D01*
X162316380Y-133240666D01*
X162364000Y-133383523D01*
X162411619Y-133431142D01*
X162649714Y-134288285D02*
X163316380Y-134288285D01*
X162268761Y-134050190D02*
X162983047Y-133812095D01*
X162983047Y-134431142D01*
X162411619Y-134764476D02*
X162364000Y-134812095D01*
X162316380Y-134907333D01*
X162316380Y-135145428D01*
X162364000Y-135240666D01*
X162411619Y-135288285D01*
X162506857Y-135335904D01*
X162602095Y-135335904D01*
X162744952Y-135288285D01*
X163316380Y-134716857D01*
X163316380Y-135335904D01*
X116878571Y-65307612D02*
X116878571Y-64974279D01*
X117402380Y-64974279D02*
X116402380Y-64974279D01*
X116402380Y-65450469D01*
X116402380Y-65736184D02*
X116402380Y-66355231D01*
X116783333Y-66021898D01*
X116783333Y-66164755D01*
X116830952Y-66259993D01*
X116878571Y-66307612D01*
X116973809Y-66355231D01*
X117211904Y-66355231D01*
X117307142Y-66307612D01*
X117354761Y-66259993D01*
X117402380Y-66164755D01*
X117402380Y-65879041D01*
X117354761Y-65783803D01*
X117307142Y-65736184D01*
X197166666Y-58102380D02*
X197500000Y-57626190D01*
X197738095Y-58102380D02*
X197738095Y-57102380D01*
X197357142Y-57102380D01*
X197261904Y-57150000D01*
X197214285Y-57197619D01*
X197166666Y-57292857D01*
X197166666Y-57435714D01*
X197214285Y-57530952D01*
X197261904Y-57578571D01*
X197357142Y-57626190D01*
X197738095Y-57626190D01*
X196214285Y-58102380D02*
X196785714Y-58102380D01*
X196500000Y-58102380D02*
X196500000Y-57102380D01*
X196595238Y-57245238D01*
X196690476Y-57340476D01*
X196785714Y-57388095D01*
X129641666Y-59302380D02*
X129975000Y-58826190D01*
X130213095Y-59302380D02*
X130213095Y-58302380D01*
X129832142Y-58302380D01*
X129736904Y-58350000D01*
X129689285Y-58397619D01*
X129641666Y-58492857D01*
X129641666Y-58635714D01*
X129689285Y-58730952D01*
X129736904Y-58778571D01*
X129832142Y-58826190D01*
X130213095Y-58826190D01*
X129260714Y-58397619D02*
X129213095Y-58350000D01*
X129117857Y-58302380D01*
X128879761Y-58302380D01*
X128784523Y-58350000D01*
X128736904Y-58397619D01*
X128689285Y-58492857D01*
X128689285Y-58588095D01*
X128736904Y-58730952D01*
X129308333Y-59302380D01*
X128689285Y-59302380D01*
X113166666Y-59302380D02*
X113500000Y-58826190D01*
X113738095Y-59302380D02*
X113738095Y-58302380D01*
X113357142Y-58302380D01*
X113261904Y-58350000D01*
X113214285Y-58397619D01*
X113166666Y-58492857D01*
X113166666Y-58635714D01*
X113214285Y-58730952D01*
X113261904Y-58778571D01*
X113357142Y-58826190D01*
X113738095Y-58826190D01*
X112833333Y-58302380D02*
X112214285Y-58302380D01*
X112547619Y-58683333D01*
X112404761Y-58683333D01*
X112309523Y-58730952D01*
X112261904Y-58778571D01*
X112214285Y-58873809D01*
X112214285Y-59111904D01*
X112261904Y-59207142D01*
X112309523Y-59254761D01*
X112404761Y-59302380D01*
X112690476Y-59302380D01*
X112785714Y-59254761D01*
X112833333Y-59207142D01*
X189641666Y-87802380D02*
X189975000Y-87326190D01*
X190213095Y-87802380D02*
X190213095Y-86802380D01*
X189832142Y-86802380D01*
X189736904Y-86850000D01*
X189689285Y-86897619D01*
X189641666Y-86992857D01*
X189641666Y-87135714D01*
X189689285Y-87230952D01*
X189736904Y-87278571D01*
X189832142Y-87326190D01*
X190213095Y-87326190D01*
X188784523Y-87135714D02*
X188784523Y-87802380D01*
X189022619Y-86754761D02*
X189260714Y-87469047D01*
X188641666Y-87469047D01*
X189666666Y-82802380D02*
X190000000Y-82326190D01*
X190238095Y-82802380D02*
X190238095Y-81802380D01*
X189857142Y-81802380D01*
X189761904Y-81850000D01*
X189714285Y-81897619D01*
X189666666Y-81992857D01*
X189666666Y-82135714D01*
X189714285Y-82230952D01*
X189761904Y-82278571D01*
X189857142Y-82326190D01*
X190238095Y-82326190D01*
X188761904Y-81802380D02*
X189238095Y-81802380D01*
X189285714Y-82278571D01*
X189238095Y-82230952D01*
X189142857Y-82183333D01*
X188904761Y-82183333D01*
X188809523Y-82230952D01*
X188761904Y-82278571D01*
X188714285Y-82373809D01*
X188714285Y-82611904D01*
X188761904Y-82707142D01*
X188809523Y-82754761D01*
X188904761Y-82802380D01*
X189142857Y-82802380D01*
X189238095Y-82754761D01*
X189285714Y-82707142D01*
X188302380Y-68833333D02*
X187826190Y-68500000D01*
X188302380Y-68261904D02*
X187302380Y-68261904D01*
X187302380Y-68642857D01*
X187350000Y-68738095D01*
X187397619Y-68785714D01*
X187492857Y-68833333D01*
X187635714Y-68833333D01*
X187730952Y-68785714D01*
X187778571Y-68738095D01*
X187826190Y-68642857D01*
X187826190Y-68261904D01*
X187302380Y-69690476D02*
X187302380Y-69500000D01*
X187350000Y-69404761D01*
X187397619Y-69357142D01*
X187540476Y-69261904D01*
X187730952Y-69214285D01*
X188111904Y-69214285D01*
X188207142Y-69261904D01*
X188254761Y-69309523D01*
X188302380Y-69404761D01*
X188302380Y-69595238D01*
X188254761Y-69690476D01*
X188207142Y-69738095D01*
X188111904Y-69785714D01*
X187873809Y-69785714D01*
X187778571Y-69738095D01*
X187730952Y-69690476D01*
X187683333Y-69595238D01*
X187683333Y-69404761D01*
X187730952Y-69309523D01*
X187778571Y-69261904D01*
X187873809Y-69214285D01*
X141631142Y-133431142D02*
X141678761Y-133383523D01*
X141726380Y-133240666D01*
X141726380Y-133145428D01*
X141678761Y-133002571D01*
X141583523Y-132907333D01*
X141488285Y-132859714D01*
X141297809Y-132812095D01*
X141154952Y-132812095D01*
X140964476Y-132859714D01*
X140869238Y-132907333D01*
X140774000Y-133002571D01*
X140726380Y-133145428D01*
X140726380Y-133240666D01*
X140774000Y-133383523D01*
X140821619Y-133431142D01*
X141059714Y-134288285D02*
X141726380Y-134288285D01*
X140678761Y-134050190D02*
X141393047Y-133812095D01*
X141393047Y-134431142D01*
X140726380Y-134716857D02*
X140726380Y-135335904D01*
X141107333Y-135002571D01*
X141107333Y-135145428D01*
X141154952Y-135240666D01*
X141202571Y-135288285D01*
X141297809Y-135335904D01*
X141535904Y-135335904D01*
X141631142Y-135288285D01*
X141678761Y-135240666D01*
X141726380Y-135145428D01*
X141726380Y-134859714D01*
X141678761Y-134764476D01*
X141631142Y-134716857D01*
X168207142Y-55857142D02*
X168254761Y-55809523D01*
X168302380Y-55666666D01*
X168302380Y-55571428D01*
X168254761Y-55428571D01*
X168159523Y-55333333D01*
X168064285Y-55285714D01*
X167873809Y-55238095D01*
X167730952Y-55238095D01*
X167540476Y-55285714D01*
X167445238Y-55333333D01*
X167350000Y-55428571D01*
X167302380Y-55571428D01*
X167302380Y-55666666D01*
X167350000Y-55809523D01*
X167397619Y-55857142D01*
X167635714Y-56714285D02*
X168302380Y-56714285D01*
X167254761Y-56476190D02*
X167969047Y-56238095D01*
X167969047Y-56857142D01*
X167635714Y-57666666D02*
X168302380Y-57666666D01*
X167254761Y-57428571D02*
X167969047Y-57190476D01*
X167969047Y-57809523D01*
X185416666Y-54757142D02*
X185464285Y-54804761D01*
X185607142Y-54852380D01*
X185702380Y-54852380D01*
X185845238Y-54804761D01*
X185940476Y-54709523D01*
X185988095Y-54614285D01*
X186035714Y-54423809D01*
X186035714Y-54280952D01*
X185988095Y-54090476D01*
X185940476Y-53995238D01*
X185845238Y-53900000D01*
X185702380Y-53852380D01*
X185607142Y-53852380D01*
X185464285Y-53900000D01*
X185416666Y-53947619D01*
X184940476Y-54852380D02*
X184750000Y-54852380D01*
X184654761Y-54804761D01*
X184607142Y-54757142D01*
X184511904Y-54614285D01*
X184464285Y-54423809D01*
X184464285Y-54042857D01*
X184511904Y-53947619D01*
X184559523Y-53900000D01*
X184654761Y-53852380D01*
X184845238Y-53852380D01*
X184940476Y-53900000D01*
X184988095Y-53947619D01*
X185035714Y-54042857D01*
X185035714Y-54280952D01*
X184988095Y-54376190D01*
X184940476Y-54423809D01*
X184845238Y-54471428D01*
X184654761Y-54471428D01*
X184559523Y-54423809D01*
X184511904Y-54376190D01*
X184464285Y-54280952D01*
X113166666Y-86392380D02*
X113500000Y-85916190D01*
X113738095Y-86392380D02*
X113738095Y-85392380D01*
X113357142Y-85392380D01*
X113261904Y-85440000D01*
X113214285Y-85487619D01*
X113166666Y-85582857D01*
X113166666Y-85725714D01*
X113214285Y-85820952D01*
X113261904Y-85868571D01*
X113357142Y-85916190D01*
X113738095Y-85916190D01*
X112595238Y-85820952D02*
X112690476Y-85773333D01*
X112738095Y-85725714D01*
X112785714Y-85630476D01*
X112785714Y-85582857D01*
X112738095Y-85487619D01*
X112690476Y-85440000D01*
X112595238Y-85392380D01*
X112404761Y-85392380D01*
X112309523Y-85440000D01*
X112261904Y-85487619D01*
X112214285Y-85582857D01*
X112214285Y-85630476D01*
X112261904Y-85725714D01*
X112309523Y-85773333D01*
X112404761Y-85820952D01*
X112595238Y-85820952D01*
X112690476Y-85868571D01*
X112738095Y-85916190D01*
X112785714Y-86011428D01*
X112785714Y-86201904D01*
X112738095Y-86297142D01*
X112690476Y-86344761D01*
X112595238Y-86392380D01*
X112404761Y-86392380D01*
X112309523Y-86344761D01*
X112261904Y-86297142D01*
X112214285Y-86201904D01*
X112214285Y-86011428D01*
X112261904Y-85916190D01*
X112309523Y-85868571D01*
X112404761Y-85820952D01*
X102916666Y-82602380D02*
X103250000Y-82126190D01*
X103488095Y-82602380D02*
X103488095Y-81602380D01*
X103107142Y-81602380D01*
X103011904Y-81650000D01*
X102964285Y-81697619D01*
X102916666Y-81792857D01*
X102916666Y-81935714D01*
X102964285Y-82030952D01*
X103011904Y-82078571D01*
X103107142Y-82126190D01*
X103488095Y-82126190D01*
X102440476Y-82602380D02*
X102250000Y-82602380D01*
X102154761Y-82554761D01*
X102107142Y-82507142D01*
X102011904Y-82364285D01*
X101964285Y-82173809D01*
X101964285Y-81792857D01*
X102011904Y-81697619D01*
X102059523Y-81650000D01*
X102154761Y-81602380D01*
X102345238Y-81602380D01*
X102440476Y-81650000D01*
X102488095Y-81697619D01*
X102535714Y-81792857D01*
X102535714Y-82030952D01*
X102488095Y-82126190D01*
X102440476Y-82173809D01*
X102345238Y-82221428D01*
X102154761Y-82221428D01*
X102059523Y-82173809D01*
X102011904Y-82126190D01*
X101964285Y-82030952D01*
X117397857Y-88932380D02*
X117731190Y-88456190D01*
X117969285Y-88932380D02*
X117969285Y-87932380D01*
X117588333Y-87932380D01*
X117493095Y-87980000D01*
X117445476Y-88027619D01*
X117397857Y-88122857D01*
X117397857Y-88265714D01*
X117445476Y-88360952D01*
X117493095Y-88408571D01*
X117588333Y-88456190D01*
X117969285Y-88456190D01*
X116445476Y-88932380D02*
X117016904Y-88932380D01*
X116731190Y-88932380D02*
X116731190Y-87932380D01*
X116826428Y-88075238D01*
X116921666Y-88170476D01*
X117016904Y-88218095D01*
X115826428Y-87932380D02*
X115731190Y-87932380D01*
X115635952Y-87980000D01*
X115588333Y-88027619D01*
X115540714Y-88122857D01*
X115493095Y-88313333D01*
X115493095Y-88551428D01*
X115540714Y-88741904D01*
X115588333Y-88837142D01*
X115635952Y-88884761D01*
X115731190Y-88932380D01*
X115826428Y-88932380D01*
X115921666Y-88884761D01*
X115969285Y-88837142D01*
X116016904Y-88741904D01*
X116064523Y-88551428D01*
X116064523Y-88313333D01*
X116016904Y-88122857D01*
X115969285Y-88027619D01*
X115921666Y-87980000D01*
X115826428Y-87932380D01*
X113642857Y-88837142D02*
X113690476Y-88884761D01*
X113833333Y-88932380D01*
X113928571Y-88932380D01*
X114071428Y-88884761D01*
X114166666Y-88789523D01*
X114214285Y-88694285D01*
X114261904Y-88503809D01*
X114261904Y-88360952D01*
X114214285Y-88170476D01*
X114166666Y-88075238D01*
X114071428Y-87980000D01*
X113928571Y-87932380D01*
X113833333Y-87932380D01*
X113690476Y-87980000D01*
X113642857Y-88027619D01*
X112785714Y-88265714D02*
X112785714Y-88932380D01*
X113023809Y-87884761D02*
X113261904Y-88599047D01*
X112642857Y-88599047D01*
X111785714Y-87932380D02*
X112261904Y-87932380D01*
X112309523Y-88408571D01*
X112261904Y-88360952D01*
X112166666Y-88313333D01*
X111928571Y-88313333D01*
X111833333Y-88360952D01*
X111785714Y-88408571D01*
X111738095Y-88503809D01*
X111738095Y-88741904D01*
X111785714Y-88837142D01*
X111833333Y-88884761D01*
X111928571Y-88932380D01*
X112166666Y-88932380D01*
X112261904Y-88884761D01*
X112309523Y-88837142D01*
X109617857Y-84207142D02*
X109665476Y-84254761D01*
X109808333Y-84302380D01*
X109903571Y-84302380D01*
X110046428Y-84254761D01*
X110141666Y-84159523D01*
X110189285Y-84064285D01*
X110236904Y-83873809D01*
X110236904Y-83730952D01*
X110189285Y-83540476D01*
X110141666Y-83445238D01*
X110046428Y-83350000D01*
X109903571Y-83302380D01*
X109808333Y-83302380D01*
X109665476Y-83350000D01*
X109617857Y-83397619D01*
X108760714Y-83635714D02*
X108760714Y-84302380D01*
X108998809Y-83254761D02*
X109236904Y-83969047D01*
X108617857Y-83969047D01*
X107808333Y-83302380D02*
X107998809Y-83302380D01*
X108094047Y-83350000D01*
X108141666Y-83397619D01*
X108236904Y-83540476D01*
X108284523Y-83730952D01*
X108284523Y-84111904D01*
X108236904Y-84207142D01*
X108189285Y-84254761D01*
X108094047Y-84302380D01*
X107903571Y-84302380D01*
X107808333Y-84254761D01*
X107760714Y-84207142D01*
X107713095Y-84111904D01*
X107713095Y-83873809D01*
X107760714Y-83778571D01*
X107808333Y-83730952D01*
X107903571Y-83683333D01*
X108094047Y-83683333D01*
X108189285Y-83730952D01*
X108236904Y-83778571D01*
X108284523Y-83873809D01*
X109602380Y-71357142D02*
X109126190Y-71023809D01*
X109602380Y-70785714D02*
X108602380Y-70785714D01*
X108602380Y-71166666D01*
X108650000Y-71261904D01*
X108697619Y-71309523D01*
X108792857Y-71357142D01*
X108935714Y-71357142D01*
X109030952Y-71309523D01*
X109078571Y-71261904D01*
X109126190Y-71166666D01*
X109126190Y-70785714D01*
X109602380Y-72309523D02*
X109602380Y-71738095D01*
X109602380Y-72023809D02*
X108602380Y-72023809D01*
X108745238Y-71928571D01*
X108840476Y-71833333D01*
X108888095Y-71738095D01*
X108697619Y-72690476D02*
X108650000Y-72738095D01*
X108602380Y-72833333D01*
X108602380Y-73071428D01*
X108650000Y-73166666D01*
X108697619Y-73214285D01*
X108792857Y-73261904D01*
X108888095Y-73261904D01*
X109030952Y-73214285D01*
X109602380Y-72642857D01*
X109602380Y-73261904D01*
X112602380Y-71357142D02*
X112126190Y-71023809D01*
X112602380Y-70785714D02*
X111602380Y-70785714D01*
X111602380Y-71166666D01*
X111650000Y-71261904D01*
X111697619Y-71309523D01*
X111792857Y-71357142D01*
X111935714Y-71357142D01*
X112030952Y-71309523D01*
X112078571Y-71261904D01*
X112126190Y-71166666D01*
X112126190Y-70785714D01*
X112602380Y-72309523D02*
X112602380Y-71738095D01*
X112602380Y-72023809D02*
X111602380Y-72023809D01*
X111745238Y-71928571D01*
X111840476Y-71833333D01*
X111888095Y-71738095D01*
X111602380Y-72642857D02*
X111602380Y-73261904D01*
X111983333Y-72928571D01*
X111983333Y-73071428D01*
X112030952Y-73166666D01*
X112078571Y-73214285D01*
X112173809Y-73261904D01*
X112411904Y-73261904D01*
X112507142Y-73214285D01*
X112554761Y-73166666D01*
X112602380Y-73071428D01*
X112602380Y-72785714D01*
X112554761Y-72690476D01*
X112507142Y-72642857D01*
M02*
