%TF.GenerationSoftware,KiCad,Pcbnew,(5.0.0)*%
%TF.CreationDate,2019-01-09T00:45:42+01:00*%
%TF.ProjectId,KicadEuropower,4B696361644575726F706F7765722E6B,Rev A*%
%TF.SameCoordinates,Original*%
%TF.FileFunction,Soldermask,Bot*%
%TF.FilePolarity,Negative*%
%FSLAX46Y46*%
G04 Gerber Fmt 4.6, Leading zero omitted, Abs format (unit mm)*
G04 Created by KiCad (PCBNEW (5.0.0)) date 01/09/19 00:45:42*
%MOMM*%
%LPD*%
G01*
G04 APERTURE LIST*
%ADD10C,1.000000*%
%ADD11C,0.150000*%
%ADD12C,0.200000*%
%ADD13C,1.200000*%
%ADD14C,6.800000*%
%ADD15C,1.700000*%
%ADD16C,3.180000*%
%ADD17R,2.127200X2.127200*%
%ADD18O,2.127200X2.127200*%
%ADD19C,2.200000*%
%ADD20C,1.550000*%
%ADD21C,2.000000*%
%ADD22R,2.000000X2.000000*%
%ADD23C,2.398980*%
%ADD24O,2.380000X4.360000*%
%ADD25R,2.380000X4.360000*%
%ADD26R,4.360000X2.380000*%
%ADD27O,4.360000X2.380000*%
%ADD28R,2.305000X2.400000*%
%ADD29O,2.305000X2.400000*%
%ADD30O,2.600000X2.600000*%
%ADD31R,2.600000X2.600000*%
%ADD32C,2.400000*%
%ADD33R,2.400000X2.400000*%
%ADD34O,2.200000X2.200000*%
%ADD35R,2.200000X2.200000*%
%ADD36O,1.800000X1.800000*%
%ADD37C,1.800000*%
%ADD38O,2.000000X2.000000*%
%ADD39R,2.100000X2.100000*%
%ADD40O,2.100000X2.100000*%
G04 APERTURE END LIST*
D10*
X10000000Y-44000000D02*
X10000000Y-43500000D01*
X43000000Y-44000000D02*
X10000000Y-44000000D01*
X43000000Y-43500000D02*
X43000000Y-44000000D01*
X10000000Y-43500000D02*
X43000000Y-43500000D01*
D11*
X1666666Y-100000000D02*
G75*
G03X1666666Y-100000000I-1666666J0D01*
G01*
X-2500000Y-100000000D02*
X2500000Y-100000000D01*
X0Y-97500000D02*
X0Y-102500000D01*
D12*
X100000000Y0D02*
X0Y0D01*
X100000000Y-100000000D02*
X100000000Y0D01*
X0Y-100000000D02*
X100000000Y-100000000D01*
X0Y0D02*
X0Y-100000000D01*
D13*
X85947056Y-14302944D03*
X84250000Y-13600000D03*
X82552944Y-14302944D03*
X81850000Y-16000000D03*
X82552944Y-17697056D03*
X84250000Y-18400000D03*
X85947056Y-17697056D03*
X86650000Y-16000000D03*
D14*
X84250000Y-16000000D03*
X4000000Y-16000000D03*
D13*
X6400000Y-16000000D03*
X5697056Y-17697056D03*
X4000000Y-18400000D03*
X2302944Y-17697056D03*
X1600000Y-16000000D03*
X2302944Y-14302944D03*
X4000000Y-13600000D03*
X5697056Y-14302944D03*
D14*
X96000000Y-96250000D03*
D13*
X98400000Y-96250000D03*
X97697056Y-97947056D03*
X96000000Y-98650000D03*
X94302944Y-97947056D03*
X93600000Y-96250000D03*
X94302944Y-94552944D03*
X96000000Y-93850000D03*
X97697056Y-94552944D03*
D11*
G36*
X32805121Y-16976574D02*
X32836857Y-16981282D01*
X32867978Y-16989077D01*
X32898185Y-16999886D01*
X32927187Y-17013603D01*
X32954706Y-17030096D01*
X32980475Y-17049208D01*
X33004246Y-17070754D01*
X33025792Y-17094525D01*
X33044904Y-17120294D01*
X33061397Y-17147813D01*
X33075114Y-17176815D01*
X33085923Y-17207022D01*
X33093718Y-17238143D01*
X33098426Y-17269879D01*
X33100000Y-17301923D01*
X33100000Y-18348077D01*
X33098426Y-18380121D01*
X33093718Y-18411857D01*
X33085923Y-18442978D01*
X33075114Y-18473185D01*
X33061397Y-18502187D01*
X33044904Y-18529706D01*
X33025792Y-18555475D01*
X33004246Y-18579246D01*
X32980475Y-18600792D01*
X32954706Y-18619904D01*
X32927187Y-18636397D01*
X32898185Y-18650114D01*
X32867978Y-18660923D01*
X32836857Y-18668718D01*
X32805121Y-18673426D01*
X32773077Y-18675000D01*
X29626923Y-18675000D01*
X29594879Y-18673426D01*
X29563143Y-18668718D01*
X29532022Y-18660923D01*
X29501815Y-18650114D01*
X29472813Y-18636397D01*
X29445294Y-18619904D01*
X29419525Y-18600792D01*
X29395754Y-18579246D01*
X29374208Y-18555475D01*
X29355096Y-18529706D01*
X29338603Y-18502187D01*
X29324886Y-18473185D01*
X29314077Y-18442978D01*
X29306282Y-18411857D01*
X29301574Y-18380121D01*
X29300000Y-18348077D01*
X29300000Y-17301923D01*
X29301574Y-17269879D01*
X29306282Y-17238143D01*
X29314077Y-17207022D01*
X29324886Y-17176815D01*
X29338603Y-17147813D01*
X29355096Y-17120294D01*
X29374208Y-17094525D01*
X29395754Y-17070754D01*
X29419525Y-17049208D01*
X29445294Y-17030096D01*
X29472813Y-17013603D01*
X29501815Y-16999886D01*
X29532022Y-16989077D01*
X29563143Y-16981282D01*
X29594879Y-16976574D01*
X29626923Y-16975000D01*
X32773077Y-16975000D01*
X32805121Y-16976574D01*
X32805121Y-16976574D01*
G37*
D15*
X31200000Y-17825000D03*
D11*
G36*
X32805121Y-12526574D02*
X32836857Y-12531282D01*
X32867978Y-12539077D01*
X32898185Y-12549886D01*
X32927187Y-12563603D01*
X32954706Y-12580096D01*
X32980475Y-12599208D01*
X33004246Y-12620754D01*
X33025792Y-12644525D01*
X33044904Y-12670294D01*
X33061397Y-12697813D01*
X33075114Y-12726815D01*
X33085923Y-12757022D01*
X33093718Y-12788143D01*
X33098426Y-12819879D01*
X33100000Y-12851923D01*
X33100000Y-13898077D01*
X33098426Y-13930121D01*
X33093718Y-13961857D01*
X33085923Y-13992978D01*
X33075114Y-14023185D01*
X33061397Y-14052187D01*
X33044904Y-14079706D01*
X33025792Y-14105475D01*
X33004246Y-14129246D01*
X32980475Y-14150792D01*
X32954706Y-14169904D01*
X32927187Y-14186397D01*
X32898185Y-14200114D01*
X32867978Y-14210923D01*
X32836857Y-14218718D01*
X32805121Y-14223426D01*
X32773077Y-14225000D01*
X29626923Y-14225000D01*
X29594879Y-14223426D01*
X29563143Y-14218718D01*
X29532022Y-14210923D01*
X29501815Y-14200114D01*
X29472813Y-14186397D01*
X29445294Y-14169904D01*
X29419525Y-14150792D01*
X29395754Y-14129246D01*
X29374208Y-14105475D01*
X29355096Y-14079706D01*
X29338603Y-14052187D01*
X29324886Y-14023185D01*
X29314077Y-13992978D01*
X29306282Y-13961857D01*
X29301574Y-13930121D01*
X29300000Y-13898077D01*
X29300000Y-12851923D01*
X29301574Y-12819879D01*
X29306282Y-12788143D01*
X29314077Y-12757022D01*
X29324886Y-12726815D01*
X29338603Y-12697813D01*
X29355096Y-12670294D01*
X29374208Y-12644525D01*
X29395754Y-12620754D01*
X29419525Y-12599208D01*
X29445294Y-12580096D01*
X29472813Y-12563603D01*
X29501815Y-12549886D01*
X29532022Y-12539077D01*
X29563143Y-12531282D01*
X29594879Y-12526574D01*
X29626923Y-12525000D01*
X32773077Y-12525000D01*
X32805121Y-12526574D01*
X32805121Y-12526574D01*
G37*
D15*
X31200000Y-13375000D03*
D16*
X79000000Y-16000000D03*
X75600000Y-16000000D03*
X79000000Y-25920000D03*
X75600000Y-25920000D03*
D17*
X78333330Y-48535001D03*
D18*
X80873330Y-48535001D03*
X78333330Y-51075001D03*
X80873330Y-51075001D03*
X78333330Y-53615001D03*
X80873330Y-53615001D03*
X78333330Y-56155001D03*
X80873330Y-56155001D03*
X78333330Y-58695001D03*
X80873330Y-58695001D03*
D17*
X63666664Y-71000000D03*
D18*
X66206664Y-71000000D03*
X63666664Y-73540000D03*
X66206664Y-73540000D03*
X63666664Y-76080000D03*
X66206664Y-76080000D03*
X63666664Y-78620000D03*
X66206664Y-78620000D03*
X63666664Y-81160000D03*
X66206664Y-81160000D03*
X63666664Y-83700000D03*
X66206664Y-83700000D03*
X63666664Y-86240000D03*
X66206664Y-86240000D03*
X63666664Y-88780000D03*
X66206664Y-88780000D03*
X95540000Y-58695001D03*
X93000000Y-58695001D03*
X95540000Y-56155001D03*
X93000000Y-56155001D03*
X95540000Y-53615001D03*
X93000000Y-53615001D03*
X95540000Y-51075001D03*
X93000000Y-51075001D03*
X95540000Y-48535001D03*
D17*
X93000000Y-48535001D03*
D18*
X22206666Y-88780000D03*
X19666666Y-88780000D03*
X22206666Y-86240000D03*
X19666666Y-86240000D03*
X22206666Y-83700000D03*
X19666666Y-83700000D03*
X22206666Y-81160000D03*
X19666666Y-81160000D03*
X22206666Y-78620000D03*
X19666666Y-78620000D03*
X22206666Y-76080000D03*
X19666666Y-76080000D03*
X22206666Y-73540000D03*
X19666666Y-73540000D03*
X22206666Y-71000000D03*
D17*
X19666666Y-71000000D03*
X93000000Y-71000000D03*
D18*
X95540000Y-71000000D03*
X93000000Y-73540000D03*
X95540000Y-73540000D03*
X93000000Y-76080000D03*
X95540000Y-76080000D03*
X93000000Y-78620000D03*
X95540000Y-78620000D03*
X93000000Y-81160000D03*
X95540000Y-81160000D03*
D17*
X34333332Y-71000000D03*
D18*
X36873332Y-71000000D03*
X34333332Y-73540000D03*
X36873332Y-73540000D03*
X34333332Y-76080000D03*
X36873332Y-76080000D03*
X34333332Y-78620000D03*
X36873332Y-78620000D03*
X34333332Y-81160000D03*
X36873332Y-81160000D03*
X34333332Y-83700000D03*
X36873332Y-83700000D03*
X34333332Y-86240000D03*
X36873332Y-86240000D03*
X34333332Y-88780000D03*
X36873332Y-88780000D03*
X7540000Y-58695001D03*
X5000000Y-58695001D03*
X7540000Y-56155001D03*
X5000000Y-56155001D03*
X7540000Y-53615001D03*
X5000000Y-53615001D03*
X7540000Y-51075001D03*
X5000000Y-51075001D03*
X7540000Y-48535001D03*
D17*
X5000000Y-48535001D03*
D18*
X80873330Y-88780000D03*
X78333330Y-88780000D03*
X80873330Y-86240000D03*
X78333330Y-86240000D03*
X80873330Y-83700000D03*
X78333330Y-83700000D03*
X80873330Y-81160000D03*
X78333330Y-81160000D03*
X80873330Y-78620000D03*
X78333330Y-78620000D03*
X80873330Y-76080000D03*
X78333330Y-76080000D03*
X80873330Y-73540000D03*
X78333330Y-73540000D03*
X80873330Y-71000000D03*
D17*
X78333330Y-71000000D03*
D18*
X66206664Y-58695001D03*
X63666664Y-58695001D03*
X66206664Y-56155001D03*
X63666664Y-56155001D03*
X66206664Y-53615001D03*
X63666664Y-53615001D03*
X66206664Y-51075001D03*
X63666664Y-51075001D03*
X66206664Y-48535001D03*
D17*
X63666664Y-48535001D03*
X19666666Y-48535001D03*
D18*
X22206666Y-48535001D03*
X19666666Y-51075001D03*
X22206666Y-51075001D03*
X19666666Y-53615001D03*
X22206666Y-53615001D03*
X19666666Y-56155001D03*
X22206666Y-56155001D03*
X19666666Y-58695001D03*
X22206666Y-58695001D03*
X7540000Y-81160000D03*
X5000000Y-81160000D03*
X7540000Y-78620000D03*
X5000000Y-78620000D03*
X7540000Y-76080000D03*
X5000000Y-76080000D03*
X7540000Y-73540000D03*
X5000000Y-73540000D03*
X7540000Y-71000000D03*
D17*
X5000000Y-71000000D03*
X34290000Y-48535001D03*
D18*
X36830000Y-48535001D03*
X34290000Y-51075001D03*
X36830000Y-51075001D03*
X34290000Y-53615001D03*
X36830000Y-53615001D03*
X34290000Y-56155001D03*
X36830000Y-56155001D03*
X34290000Y-58695001D03*
X36830000Y-58695001D03*
D19*
X79324696Y-32089161D03*
X77274696Y-39589161D03*
D11*
G36*
X54996071Y-15601623D02*
X55028781Y-15606475D01*
X55060857Y-15614509D01*
X55091991Y-15625649D01*
X55121884Y-15639787D01*
X55150247Y-15656787D01*
X55176807Y-15676485D01*
X55201308Y-15698692D01*
X55223515Y-15723193D01*
X55243213Y-15749753D01*
X55260213Y-15778116D01*
X55274351Y-15808009D01*
X55285491Y-15839143D01*
X55293525Y-15871219D01*
X55298377Y-15903929D01*
X55300000Y-15936956D01*
X55300000Y-17063044D01*
X55298377Y-17096071D01*
X55293525Y-17128781D01*
X55285491Y-17160857D01*
X55274351Y-17191991D01*
X55260213Y-17221884D01*
X55243213Y-17250247D01*
X55223515Y-17276807D01*
X55201308Y-17301308D01*
X55176807Y-17323515D01*
X55150247Y-17343213D01*
X55121884Y-17360213D01*
X55091991Y-17374351D01*
X55060857Y-17385491D01*
X55028781Y-17393525D01*
X54996071Y-17398377D01*
X54963044Y-17400000D01*
X54086956Y-17400000D01*
X54053929Y-17398377D01*
X54021219Y-17393525D01*
X53989143Y-17385491D01*
X53958009Y-17374351D01*
X53928116Y-17360213D01*
X53899753Y-17343213D01*
X53873193Y-17323515D01*
X53848692Y-17301308D01*
X53826485Y-17276807D01*
X53806787Y-17250247D01*
X53789787Y-17221884D01*
X53775649Y-17191991D01*
X53764509Y-17160857D01*
X53756475Y-17128781D01*
X53751623Y-17096071D01*
X53750000Y-17063044D01*
X53750000Y-15936956D01*
X53751623Y-15903929D01*
X53756475Y-15871219D01*
X53764509Y-15839143D01*
X53775649Y-15808009D01*
X53789787Y-15778116D01*
X53806787Y-15749753D01*
X53826485Y-15723193D01*
X53848692Y-15698692D01*
X53873193Y-15676485D01*
X53899753Y-15656787D01*
X53928116Y-15639787D01*
X53958009Y-15625649D01*
X53989143Y-15614509D01*
X54021219Y-15606475D01*
X54053929Y-15601623D01*
X54086956Y-15600000D01*
X54963044Y-15600000D01*
X54996071Y-15601623D01*
X54996071Y-15601623D01*
G37*
D20*
X54525000Y-16500000D03*
D11*
G36*
X52946071Y-15601623D02*
X52978781Y-15606475D01*
X53010857Y-15614509D01*
X53041991Y-15625649D01*
X53071884Y-15639787D01*
X53100247Y-15656787D01*
X53126807Y-15676485D01*
X53151308Y-15698692D01*
X53173515Y-15723193D01*
X53193213Y-15749753D01*
X53210213Y-15778116D01*
X53224351Y-15808009D01*
X53235491Y-15839143D01*
X53243525Y-15871219D01*
X53248377Y-15903929D01*
X53250000Y-15936956D01*
X53250000Y-17063044D01*
X53248377Y-17096071D01*
X53243525Y-17128781D01*
X53235491Y-17160857D01*
X53224351Y-17191991D01*
X53210213Y-17221884D01*
X53193213Y-17250247D01*
X53173515Y-17276807D01*
X53151308Y-17301308D01*
X53126807Y-17323515D01*
X53100247Y-17343213D01*
X53071884Y-17360213D01*
X53041991Y-17374351D01*
X53010857Y-17385491D01*
X52978781Y-17393525D01*
X52946071Y-17398377D01*
X52913044Y-17400000D01*
X52036956Y-17400000D01*
X52003929Y-17398377D01*
X51971219Y-17393525D01*
X51939143Y-17385491D01*
X51908009Y-17374351D01*
X51878116Y-17360213D01*
X51849753Y-17343213D01*
X51823193Y-17323515D01*
X51798692Y-17301308D01*
X51776485Y-17276807D01*
X51756787Y-17250247D01*
X51739787Y-17221884D01*
X51725649Y-17191991D01*
X51714509Y-17160857D01*
X51706475Y-17128781D01*
X51701623Y-17096071D01*
X51700000Y-17063044D01*
X51700000Y-15936956D01*
X51701623Y-15903929D01*
X51706475Y-15871219D01*
X51714509Y-15839143D01*
X51725649Y-15808009D01*
X51739787Y-15778116D01*
X51756787Y-15749753D01*
X51776485Y-15723193D01*
X51798692Y-15698692D01*
X51823193Y-15676485D01*
X51849753Y-15656787D01*
X51878116Y-15639787D01*
X51908009Y-15625649D01*
X51939143Y-15614509D01*
X51971219Y-15606475D01*
X52003929Y-15601623D01*
X52036956Y-15600000D01*
X52913044Y-15600000D01*
X52946071Y-15601623D01*
X52946071Y-15601623D01*
G37*
D20*
X52475000Y-16500000D03*
D11*
G36*
X66996071Y-15601623D02*
X67028781Y-15606475D01*
X67060857Y-15614509D01*
X67091991Y-15625649D01*
X67121884Y-15639787D01*
X67150247Y-15656787D01*
X67176807Y-15676485D01*
X67201308Y-15698692D01*
X67223515Y-15723193D01*
X67243213Y-15749753D01*
X67260213Y-15778116D01*
X67274351Y-15808009D01*
X67285491Y-15839143D01*
X67293525Y-15871219D01*
X67298377Y-15903929D01*
X67300000Y-15936956D01*
X67300000Y-17063044D01*
X67298377Y-17096071D01*
X67293525Y-17128781D01*
X67285491Y-17160857D01*
X67274351Y-17191991D01*
X67260213Y-17221884D01*
X67243213Y-17250247D01*
X67223515Y-17276807D01*
X67201308Y-17301308D01*
X67176807Y-17323515D01*
X67150247Y-17343213D01*
X67121884Y-17360213D01*
X67091991Y-17374351D01*
X67060857Y-17385491D01*
X67028781Y-17393525D01*
X66996071Y-17398377D01*
X66963044Y-17400000D01*
X66086956Y-17400000D01*
X66053929Y-17398377D01*
X66021219Y-17393525D01*
X65989143Y-17385491D01*
X65958009Y-17374351D01*
X65928116Y-17360213D01*
X65899753Y-17343213D01*
X65873193Y-17323515D01*
X65848692Y-17301308D01*
X65826485Y-17276807D01*
X65806787Y-17250247D01*
X65789787Y-17221884D01*
X65775649Y-17191991D01*
X65764509Y-17160857D01*
X65756475Y-17128781D01*
X65751623Y-17096071D01*
X65750000Y-17063044D01*
X65750000Y-15936956D01*
X65751623Y-15903929D01*
X65756475Y-15871219D01*
X65764509Y-15839143D01*
X65775649Y-15808009D01*
X65789787Y-15778116D01*
X65806787Y-15749753D01*
X65826485Y-15723193D01*
X65848692Y-15698692D01*
X65873193Y-15676485D01*
X65899753Y-15656787D01*
X65928116Y-15639787D01*
X65958009Y-15625649D01*
X65989143Y-15614509D01*
X66021219Y-15606475D01*
X66053929Y-15601623D01*
X66086956Y-15600000D01*
X66963044Y-15600000D01*
X66996071Y-15601623D01*
X66996071Y-15601623D01*
G37*
D20*
X66525000Y-16500000D03*
D11*
G36*
X64946071Y-15601623D02*
X64978781Y-15606475D01*
X65010857Y-15614509D01*
X65041991Y-15625649D01*
X65071884Y-15639787D01*
X65100247Y-15656787D01*
X65126807Y-15676485D01*
X65151308Y-15698692D01*
X65173515Y-15723193D01*
X65193213Y-15749753D01*
X65210213Y-15778116D01*
X65224351Y-15808009D01*
X65235491Y-15839143D01*
X65243525Y-15871219D01*
X65248377Y-15903929D01*
X65250000Y-15936956D01*
X65250000Y-17063044D01*
X65248377Y-17096071D01*
X65243525Y-17128781D01*
X65235491Y-17160857D01*
X65224351Y-17191991D01*
X65210213Y-17221884D01*
X65193213Y-17250247D01*
X65173515Y-17276807D01*
X65151308Y-17301308D01*
X65126807Y-17323515D01*
X65100247Y-17343213D01*
X65071884Y-17360213D01*
X65041991Y-17374351D01*
X65010857Y-17385491D01*
X64978781Y-17393525D01*
X64946071Y-17398377D01*
X64913044Y-17400000D01*
X64036956Y-17400000D01*
X64003929Y-17398377D01*
X63971219Y-17393525D01*
X63939143Y-17385491D01*
X63908009Y-17374351D01*
X63878116Y-17360213D01*
X63849753Y-17343213D01*
X63823193Y-17323515D01*
X63798692Y-17301308D01*
X63776485Y-17276807D01*
X63756787Y-17250247D01*
X63739787Y-17221884D01*
X63725649Y-17191991D01*
X63714509Y-17160857D01*
X63706475Y-17128781D01*
X63701623Y-17096071D01*
X63700000Y-17063044D01*
X63700000Y-15936956D01*
X63701623Y-15903929D01*
X63706475Y-15871219D01*
X63714509Y-15839143D01*
X63725649Y-15808009D01*
X63739787Y-15778116D01*
X63756787Y-15749753D01*
X63776485Y-15723193D01*
X63798692Y-15698692D01*
X63823193Y-15676485D01*
X63849753Y-15656787D01*
X63878116Y-15639787D01*
X63908009Y-15625649D01*
X63939143Y-15614509D01*
X63971219Y-15606475D01*
X64003929Y-15601623D01*
X64036956Y-15600000D01*
X64913044Y-15600000D01*
X64946071Y-15601623D01*
X64946071Y-15601623D01*
G37*
D20*
X64475000Y-16500000D03*
D21*
X55537349Y-11000000D03*
D22*
X51737349Y-11000000D03*
X63467349Y-10890000D03*
D21*
X67267349Y-10890000D03*
D22*
X39197349Y-10890000D03*
D21*
X42997349Y-10890000D03*
D11*
G36*
X42521071Y-15601623D02*
X42553781Y-15606475D01*
X42585857Y-15614509D01*
X42616991Y-15625649D01*
X42646884Y-15639787D01*
X42675247Y-15656787D01*
X42701807Y-15676485D01*
X42726308Y-15698692D01*
X42748515Y-15723193D01*
X42768213Y-15749753D01*
X42785213Y-15778116D01*
X42799351Y-15808009D01*
X42810491Y-15839143D01*
X42818525Y-15871219D01*
X42823377Y-15903929D01*
X42825000Y-15936956D01*
X42825000Y-17063044D01*
X42823377Y-17096071D01*
X42818525Y-17128781D01*
X42810491Y-17160857D01*
X42799351Y-17191991D01*
X42785213Y-17221884D01*
X42768213Y-17250247D01*
X42748515Y-17276807D01*
X42726308Y-17301308D01*
X42701807Y-17323515D01*
X42675247Y-17343213D01*
X42646884Y-17360213D01*
X42616991Y-17374351D01*
X42585857Y-17385491D01*
X42553781Y-17393525D01*
X42521071Y-17398377D01*
X42488044Y-17400000D01*
X41611956Y-17400000D01*
X41578929Y-17398377D01*
X41546219Y-17393525D01*
X41514143Y-17385491D01*
X41483009Y-17374351D01*
X41453116Y-17360213D01*
X41424753Y-17343213D01*
X41398193Y-17323515D01*
X41373692Y-17301308D01*
X41351485Y-17276807D01*
X41331787Y-17250247D01*
X41314787Y-17221884D01*
X41300649Y-17191991D01*
X41289509Y-17160857D01*
X41281475Y-17128781D01*
X41276623Y-17096071D01*
X41275000Y-17063044D01*
X41275000Y-15936956D01*
X41276623Y-15903929D01*
X41281475Y-15871219D01*
X41289509Y-15839143D01*
X41300649Y-15808009D01*
X41314787Y-15778116D01*
X41331787Y-15749753D01*
X41351485Y-15723193D01*
X41373692Y-15698692D01*
X41398193Y-15676485D01*
X41424753Y-15656787D01*
X41453116Y-15639787D01*
X41483009Y-15625649D01*
X41514143Y-15614509D01*
X41546219Y-15606475D01*
X41578929Y-15601623D01*
X41611956Y-15600000D01*
X42488044Y-15600000D01*
X42521071Y-15601623D01*
X42521071Y-15601623D01*
G37*
D20*
X42050000Y-16500000D03*
D11*
G36*
X40471071Y-15601623D02*
X40503781Y-15606475D01*
X40535857Y-15614509D01*
X40566991Y-15625649D01*
X40596884Y-15639787D01*
X40625247Y-15656787D01*
X40651807Y-15676485D01*
X40676308Y-15698692D01*
X40698515Y-15723193D01*
X40718213Y-15749753D01*
X40735213Y-15778116D01*
X40749351Y-15808009D01*
X40760491Y-15839143D01*
X40768525Y-15871219D01*
X40773377Y-15903929D01*
X40775000Y-15936956D01*
X40775000Y-17063044D01*
X40773377Y-17096071D01*
X40768525Y-17128781D01*
X40760491Y-17160857D01*
X40749351Y-17191991D01*
X40735213Y-17221884D01*
X40718213Y-17250247D01*
X40698515Y-17276807D01*
X40676308Y-17301308D01*
X40651807Y-17323515D01*
X40625247Y-17343213D01*
X40596884Y-17360213D01*
X40566991Y-17374351D01*
X40535857Y-17385491D01*
X40503781Y-17393525D01*
X40471071Y-17398377D01*
X40438044Y-17400000D01*
X39561956Y-17400000D01*
X39528929Y-17398377D01*
X39496219Y-17393525D01*
X39464143Y-17385491D01*
X39433009Y-17374351D01*
X39403116Y-17360213D01*
X39374753Y-17343213D01*
X39348193Y-17323515D01*
X39323692Y-17301308D01*
X39301485Y-17276807D01*
X39281787Y-17250247D01*
X39264787Y-17221884D01*
X39250649Y-17191991D01*
X39239509Y-17160857D01*
X39231475Y-17128781D01*
X39226623Y-17096071D01*
X39225000Y-17063044D01*
X39225000Y-15936956D01*
X39226623Y-15903929D01*
X39231475Y-15871219D01*
X39239509Y-15839143D01*
X39250649Y-15808009D01*
X39264787Y-15778116D01*
X39281787Y-15749753D01*
X39301485Y-15723193D01*
X39323692Y-15698692D01*
X39348193Y-15676485D01*
X39374753Y-15656787D01*
X39403116Y-15639787D01*
X39433009Y-15625649D01*
X39464143Y-15614509D01*
X39496219Y-15606475D01*
X39528929Y-15601623D01*
X39561956Y-15600000D01*
X40438044Y-15600000D01*
X40471071Y-15601623D01*
X40471071Y-15601623D01*
G37*
D20*
X40000000Y-16500000D03*
D11*
G36*
X25488071Y-72387623D02*
X25520781Y-72392475D01*
X25552857Y-72400509D01*
X25583991Y-72411649D01*
X25613884Y-72425787D01*
X25642247Y-72442787D01*
X25668807Y-72462485D01*
X25693308Y-72484692D01*
X25715515Y-72509193D01*
X25735213Y-72535753D01*
X25752213Y-72564116D01*
X25766351Y-72594009D01*
X25777491Y-72625143D01*
X25785525Y-72657219D01*
X25790377Y-72689929D01*
X25792000Y-72722956D01*
X25792000Y-73599044D01*
X25790377Y-73632071D01*
X25785525Y-73664781D01*
X25777491Y-73696857D01*
X25766351Y-73727991D01*
X25752213Y-73757884D01*
X25735213Y-73786247D01*
X25715515Y-73812807D01*
X25693308Y-73837308D01*
X25668807Y-73859515D01*
X25642247Y-73879213D01*
X25613884Y-73896213D01*
X25583991Y-73910351D01*
X25552857Y-73921491D01*
X25520781Y-73929525D01*
X25488071Y-73934377D01*
X25455044Y-73936000D01*
X24328956Y-73936000D01*
X24295929Y-73934377D01*
X24263219Y-73929525D01*
X24231143Y-73921491D01*
X24200009Y-73910351D01*
X24170116Y-73896213D01*
X24141753Y-73879213D01*
X24115193Y-73859515D01*
X24090692Y-73837308D01*
X24068485Y-73812807D01*
X24048787Y-73786247D01*
X24031787Y-73757884D01*
X24017649Y-73727991D01*
X24006509Y-73696857D01*
X23998475Y-73664781D01*
X23993623Y-73632071D01*
X23992000Y-73599044D01*
X23992000Y-72722956D01*
X23993623Y-72689929D01*
X23998475Y-72657219D01*
X24006509Y-72625143D01*
X24017649Y-72594009D01*
X24031787Y-72564116D01*
X24048787Y-72535753D01*
X24068485Y-72509193D01*
X24090692Y-72484692D01*
X24115193Y-72462485D01*
X24141753Y-72442787D01*
X24170116Y-72425787D01*
X24200009Y-72411649D01*
X24231143Y-72400509D01*
X24263219Y-72392475D01*
X24295929Y-72387623D01*
X24328956Y-72386000D01*
X25455044Y-72386000D01*
X25488071Y-72387623D01*
X25488071Y-72387623D01*
G37*
D20*
X24892000Y-73161000D03*
D11*
G36*
X25488071Y-70337623D02*
X25520781Y-70342475D01*
X25552857Y-70350509D01*
X25583991Y-70361649D01*
X25613884Y-70375787D01*
X25642247Y-70392787D01*
X25668807Y-70412485D01*
X25693308Y-70434692D01*
X25715515Y-70459193D01*
X25735213Y-70485753D01*
X25752213Y-70514116D01*
X25766351Y-70544009D01*
X25777491Y-70575143D01*
X25785525Y-70607219D01*
X25790377Y-70639929D01*
X25792000Y-70672956D01*
X25792000Y-71549044D01*
X25790377Y-71582071D01*
X25785525Y-71614781D01*
X25777491Y-71646857D01*
X25766351Y-71677991D01*
X25752213Y-71707884D01*
X25735213Y-71736247D01*
X25715515Y-71762807D01*
X25693308Y-71787308D01*
X25668807Y-71809515D01*
X25642247Y-71829213D01*
X25613884Y-71846213D01*
X25583991Y-71860351D01*
X25552857Y-71871491D01*
X25520781Y-71879525D01*
X25488071Y-71884377D01*
X25455044Y-71886000D01*
X24328956Y-71886000D01*
X24295929Y-71884377D01*
X24263219Y-71879525D01*
X24231143Y-71871491D01*
X24200009Y-71860351D01*
X24170116Y-71846213D01*
X24141753Y-71829213D01*
X24115193Y-71809515D01*
X24090692Y-71787308D01*
X24068485Y-71762807D01*
X24048787Y-71736247D01*
X24031787Y-71707884D01*
X24017649Y-71677991D01*
X24006509Y-71646857D01*
X23998475Y-71614781D01*
X23993623Y-71582071D01*
X23992000Y-71549044D01*
X23992000Y-70672956D01*
X23993623Y-70639929D01*
X23998475Y-70607219D01*
X24006509Y-70575143D01*
X24017649Y-70544009D01*
X24031787Y-70514116D01*
X24048787Y-70485753D01*
X24068485Y-70459193D01*
X24090692Y-70434692D01*
X24115193Y-70412485D01*
X24141753Y-70392787D01*
X24170116Y-70375787D01*
X24200009Y-70361649D01*
X24231143Y-70350509D01*
X24263219Y-70342475D01*
X24295929Y-70337623D01*
X24328956Y-70336000D01*
X25455044Y-70336000D01*
X25488071Y-70337623D01*
X25488071Y-70337623D01*
G37*
D20*
X24892000Y-71111000D03*
D11*
G36*
X76542071Y-72641623D02*
X76574781Y-72646475D01*
X76606857Y-72654509D01*
X76637991Y-72665649D01*
X76667884Y-72679787D01*
X76696247Y-72696787D01*
X76722807Y-72716485D01*
X76747308Y-72738692D01*
X76769515Y-72763193D01*
X76789213Y-72789753D01*
X76806213Y-72818116D01*
X76820351Y-72848009D01*
X76831491Y-72879143D01*
X76839525Y-72911219D01*
X76844377Y-72943929D01*
X76846000Y-72976956D01*
X76846000Y-73853044D01*
X76844377Y-73886071D01*
X76839525Y-73918781D01*
X76831491Y-73950857D01*
X76820351Y-73981991D01*
X76806213Y-74011884D01*
X76789213Y-74040247D01*
X76769515Y-74066807D01*
X76747308Y-74091308D01*
X76722807Y-74113515D01*
X76696247Y-74133213D01*
X76667884Y-74150213D01*
X76637991Y-74164351D01*
X76606857Y-74175491D01*
X76574781Y-74183525D01*
X76542071Y-74188377D01*
X76509044Y-74190000D01*
X75382956Y-74190000D01*
X75349929Y-74188377D01*
X75317219Y-74183525D01*
X75285143Y-74175491D01*
X75254009Y-74164351D01*
X75224116Y-74150213D01*
X75195753Y-74133213D01*
X75169193Y-74113515D01*
X75144692Y-74091308D01*
X75122485Y-74066807D01*
X75102787Y-74040247D01*
X75085787Y-74011884D01*
X75071649Y-73981991D01*
X75060509Y-73950857D01*
X75052475Y-73918781D01*
X75047623Y-73886071D01*
X75046000Y-73853044D01*
X75046000Y-72976956D01*
X75047623Y-72943929D01*
X75052475Y-72911219D01*
X75060509Y-72879143D01*
X75071649Y-72848009D01*
X75085787Y-72818116D01*
X75102787Y-72789753D01*
X75122485Y-72763193D01*
X75144692Y-72738692D01*
X75169193Y-72716485D01*
X75195753Y-72696787D01*
X75224116Y-72679787D01*
X75254009Y-72665649D01*
X75285143Y-72654509D01*
X75317219Y-72646475D01*
X75349929Y-72641623D01*
X75382956Y-72640000D01*
X76509044Y-72640000D01*
X76542071Y-72641623D01*
X76542071Y-72641623D01*
G37*
D20*
X75946000Y-73415000D03*
D11*
G36*
X76542071Y-70591623D02*
X76574781Y-70596475D01*
X76606857Y-70604509D01*
X76637991Y-70615649D01*
X76667884Y-70629787D01*
X76696247Y-70646787D01*
X76722807Y-70666485D01*
X76747308Y-70688692D01*
X76769515Y-70713193D01*
X76789213Y-70739753D01*
X76806213Y-70768116D01*
X76820351Y-70798009D01*
X76831491Y-70829143D01*
X76839525Y-70861219D01*
X76844377Y-70893929D01*
X76846000Y-70926956D01*
X76846000Y-71803044D01*
X76844377Y-71836071D01*
X76839525Y-71868781D01*
X76831491Y-71900857D01*
X76820351Y-71931991D01*
X76806213Y-71961884D01*
X76789213Y-71990247D01*
X76769515Y-72016807D01*
X76747308Y-72041308D01*
X76722807Y-72063515D01*
X76696247Y-72083213D01*
X76667884Y-72100213D01*
X76637991Y-72114351D01*
X76606857Y-72125491D01*
X76574781Y-72133525D01*
X76542071Y-72138377D01*
X76509044Y-72140000D01*
X75382956Y-72140000D01*
X75349929Y-72138377D01*
X75317219Y-72133525D01*
X75285143Y-72125491D01*
X75254009Y-72114351D01*
X75224116Y-72100213D01*
X75195753Y-72083213D01*
X75169193Y-72063515D01*
X75144692Y-72041308D01*
X75122485Y-72016807D01*
X75102787Y-71990247D01*
X75085787Y-71961884D01*
X75071649Y-71931991D01*
X75060509Y-71900857D01*
X75052475Y-71868781D01*
X75047623Y-71836071D01*
X75046000Y-71803044D01*
X75046000Y-70926956D01*
X75047623Y-70893929D01*
X75052475Y-70861219D01*
X75060509Y-70829143D01*
X75071649Y-70798009D01*
X75085787Y-70768116D01*
X75102787Y-70739753D01*
X75122485Y-70713193D01*
X75144692Y-70688692D01*
X75169193Y-70666485D01*
X75195753Y-70646787D01*
X75224116Y-70629787D01*
X75254009Y-70615649D01*
X75285143Y-70604509D01*
X75317219Y-70596475D01*
X75349929Y-70591623D01*
X75382956Y-70590000D01*
X76509044Y-70590000D01*
X76542071Y-70591623D01*
X76542071Y-70591623D01*
G37*
D20*
X75946000Y-71365000D03*
D11*
G36*
X76542071Y-49781623D02*
X76574781Y-49786475D01*
X76606857Y-49794509D01*
X76637991Y-49805649D01*
X76667884Y-49819787D01*
X76696247Y-49836787D01*
X76722807Y-49856485D01*
X76747308Y-49878692D01*
X76769515Y-49903193D01*
X76789213Y-49929753D01*
X76806213Y-49958116D01*
X76820351Y-49988009D01*
X76831491Y-50019143D01*
X76839525Y-50051219D01*
X76844377Y-50083929D01*
X76846000Y-50116956D01*
X76846000Y-50993044D01*
X76844377Y-51026071D01*
X76839525Y-51058781D01*
X76831491Y-51090857D01*
X76820351Y-51121991D01*
X76806213Y-51151884D01*
X76789213Y-51180247D01*
X76769515Y-51206807D01*
X76747308Y-51231308D01*
X76722807Y-51253515D01*
X76696247Y-51273213D01*
X76667884Y-51290213D01*
X76637991Y-51304351D01*
X76606857Y-51315491D01*
X76574781Y-51323525D01*
X76542071Y-51328377D01*
X76509044Y-51330000D01*
X75382956Y-51330000D01*
X75349929Y-51328377D01*
X75317219Y-51323525D01*
X75285143Y-51315491D01*
X75254009Y-51304351D01*
X75224116Y-51290213D01*
X75195753Y-51273213D01*
X75169193Y-51253515D01*
X75144692Y-51231308D01*
X75122485Y-51206807D01*
X75102787Y-51180247D01*
X75085787Y-51151884D01*
X75071649Y-51121991D01*
X75060509Y-51090857D01*
X75052475Y-51058781D01*
X75047623Y-51026071D01*
X75046000Y-50993044D01*
X75046000Y-50116956D01*
X75047623Y-50083929D01*
X75052475Y-50051219D01*
X75060509Y-50019143D01*
X75071649Y-49988009D01*
X75085787Y-49958116D01*
X75102787Y-49929753D01*
X75122485Y-49903193D01*
X75144692Y-49878692D01*
X75169193Y-49856485D01*
X75195753Y-49836787D01*
X75224116Y-49819787D01*
X75254009Y-49805649D01*
X75285143Y-49794509D01*
X75317219Y-49786475D01*
X75349929Y-49781623D01*
X75382956Y-49780000D01*
X76509044Y-49780000D01*
X76542071Y-49781623D01*
X76542071Y-49781623D01*
G37*
D20*
X75946000Y-50555000D03*
D11*
G36*
X76542071Y-47731623D02*
X76574781Y-47736475D01*
X76606857Y-47744509D01*
X76637991Y-47755649D01*
X76667884Y-47769787D01*
X76696247Y-47786787D01*
X76722807Y-47806485D01*
X76747308Y-47828692D01*
X76769515Y-47853193D01*
X76789213Y-47879753D01*
X76806213Y-47908116D01*
X76820351Y-47938009D01*
X76831491Y-47969143D01*
X76839525Y-48001219D01*
X76844377Y-48033929D01*
X76846000Y-48066956D01*
X76846000Y-48943044D01*
X76844377Y-48976071D01*
X76839525Y-49008781D01*
X76831491Y-49040857D01*
X76820351Y-49071991D01*
X76806213Y-49101884D01*
X76789213Y-49130247D01*
X76769515Y-49156807D01*
X76747308Y-49181308D01*
X76722807Y-49203515D01*
X76696247Y-49223213D01*
X76667884Y-49240213D01*
X76637991Y-49254351D01*
X76606857Y-49265491D01*
X76574781Y-49273525D01*
X76542071Y-49278377D01*
X76509044Y-49280000D01*
X75382956Y-49280000D01*
X75349929Y-49278377D01*
X75317219Y-49273525D01*
X75285143Y-49265491D01*
X75254009Y-49254351D01*
X75224116Y-49240213D01*
X75195753Y-49223213D01*
X75169193Y-49203515D01*
X75144692Y-49181308D01*
X75122485Y-49156807D01*
X75102787Y-49130247D01*
X75085787Y-49101884D01*
X75071649Y-49071991D01*
X75060509Y-49040857D01*
X75052475Y-49008781D01*
X75047623Y-48976071D01*
X75046000Y-48943044D01*
X75046000Y-48066956D01*
X75047623Y-48033929D01*
X75052475Y-48001219D01*
X75060509Y-47969143D01*
X75071649Y-47938009D01*
X75085787Y-47908116D01*
X75102787Y-47879753D01*
X75122485Y-47853193D01*
X75144692Y-47828692D01*
X75169193Y-47806485D01*
X75195753Y-47786787D01*
X75224116Y-47769787D01*
X75254009Y-47755649D01*
X75285143Y-47744509D01*
X75317219Y-47736475D01*
X75349929Y-47731623D01*
X75382956Y-47730000D01*
X76509044Y-47730000D01*
X76542071Y-47731623D01*
X76542071Y-47731623D01*
G37*
D20*
X75946000Y-48505000D03*
D11*
G36*
X61810071Y-49781623D02*
X61842781Y-49786475D01*
X61874857Y-49794509D01*
X61905991Y-49805649D01*
X61935884Y-49819787D01*
X61964247Y-49836787D01*
X61990807Y-49856485D01*
X62015308Y-49878692D01*
X62037515Y-49903193D01*
X62057213Y-49929753D01*
X62074213Y-49958116D01*
X62088351Y-49988009D01*
X62099491Y-50019143D01*
X62107525Y-50051219D01*
X62112377Y-50083929D01*
X62114000Y-50116956D01*
X62114000Y-50993044D01*
X62112377Y-51026071D01*
X62107525Y-51058781D01*
X62099491Y-51090857D01*
X62088351Y-51121991D01*
X62074213Y-51151884D01*
X62057213Y-51180247D01*
X62037515Y-51206807D01*
X62015308Y-51231308D01*
X61990807Y-51253515D01*
X61964247Y-51273213D01*
X61935884Y-51290213D01*
X61905991Y-51304351D01*
X61874857Y-51315491D01*
X61842781Y-51323525D01*
X61810071Y-51328377D01*
X61777044Y-51330000D01*
X60650956Y-51330000D01*
X60617929Y-51328377D01*
X60585219Y-51323525D01*
X60553143Y-51315491D01*
X60522009Y-51304351D01*
X60492116Y-51290213D01*
X60463753Y-51273213D01*
X60437193Y-51253515D01*
X60412692Y-51231308D01*
X60390485Y-51206807D01*
X60370787Y-51180247D01*
X60353787Y-51151884D01*
X60339649Y-51121991D01*
X60328509Y-51090857D01*
X60320475Y-51058781D01*
X60315623Y-51026071D01*
X60314000Y-50993044D01*
X60314000Y-50116956D01*
X60315623Y-50083929D01*
X60320475Y-50051219D01*
X60328509Y-50019143D01*
X60339649Y-49988009D01*
X60353787Y-49958116D01*
X60370787Y-49929753D01*
X60390485Y-49903193D01*
X60412692Y-49878692D01*
X60437193Y-49856485D01*
X60463753Y-49836787D01*
X60492116Y-49819787D01*
X60522009Y-49805649D01*
X60553143Y-49794509D01*
X60585219Y-49786475D01*
X60617929Y-49781623D01*
X60650956Y-49780000D01*
X61777044Y-49780000D01*
X61810071Y-49781623D01*
X61810071Y-49781623D01*
G37*
D20*
X61214000Y-50555000D03*
D11*
G36*
X61810071Y-47731623D02*
X61842781Y-47736475D01*
X61874857Y-47744509D01*
X61905991Y-47755649D01*
X61935884Y-47769787D01*
X61964247Y-47786787D01*
X61990807Y-47806485D01*
X62015308Y-47828692D01*
X62037515Y-47853193D01*
X62057213Y-47879753D01*
X62074213Y-47908116D01*
X62088351Y-47938009D01*
X62099491Y-47969143D01*
X62107525Y-48001219D01*
X62112377Y-48033929D01*
X62114000Y-48066956D01*
X62114000Y-48943044D01*
X62112377Y-48976071D01*
X62107525Y-49008781D01*
X62099491Y-49040857D01*
X62088351Y-49071991D01*
X62074213Y-49101884D01*
X62057213Y-49130247D01*
X62037515Y-49156807D01*
X62015308Y-49181308D01*
X61990807Y-49203515D01*
X61964247Y-49223213D01*
X61935884Y-49240213D01*
X61905991Y-49254351D01*
X61874857Y-49265491D01*
X61842781Y-49273525D01*
X61810071Y-49278377D01*
X61777044Y-49280000D01*
X60650956Y-49280000D01*
X60617929Y-49278377D01*
X60585219Y-49273525D01*
X60553143Y-49265491D01*
X60522009Y-49254351D01*
X60492116Y-49240213D01*
X60463753Y-49223213D01*
X60437193Y-49203515D01*
X60412692Y-49181308D01*
X60390485Y-49156807D01*
X60370787Y-49130247D01*
X60353787Y-49101884D01*
X60339649Y-49071991D01*
X60328509Y-49040857D01*
X60320475Y-49008781D01*
X60315623Y-48976071D01*
X60314000Y-48943044D01*
X60314000Y-48066956D01*
X60315623Y-48033929D01*
X60320475Y-48001219D01*
X60328509Y-47969143D01*
X60339649Y-47938009D01*
X60353787Y-47908116D01*
X60370787Y-47879753D01*
X60390485Y-47853193D01*
X60412692Y-47828692D01*
X60437193Y-47806485D01*
X60463753Y-47786787D01*
X60492116Y-47769787D01*
X60522009Y-47755649D01*
X60553143Y-47744509D01*
X60585219Y-47736475D01*
X60617929Y-47731623D01*
X60650956Y-47730000D01*
X61777044Y-47730000D01*
X61810071Y-47731623D01*
X61810071Y-47731623D01*
G37*
D20*
X61214000Y-48505000D03*
D11*
G36*
X91020071Y-49781623D02*
X91052781Y-49786475D01*
X91084857Y-49794509D01*
X91115991Y-49805649D01*
X91145884Y-49819787D01*
X91174247Y-49836787D01*
X91200807Y-49856485D01*
X91225308Y-49878692D01*
X91247515Y-49903193D01*
X91267213Y-49929753D01*
X91284213Y-49958116D01*
X91298351Y-49988009D01*
X91309491Y-50019143D01*
X91317525Y-50051219D01*
X91322377Y-50083929D01*
X91324000Y-50116956D01*
X91324000Y-50993044D01*
X91322377Y-51026071D01*
X91317525Y-51058781D01*
X91309491Y-51090857D01*
X91298351Y-51121991D01*
X91284213Y-51151884D01*
X91267213Y-51180247D01*
X91247515Y-51206807D01*
X91225308Y-51231308D01*
X91200807Y-51253515D01*
X91174247Y-51273213D01*
X91145884Y-51290213D01*
X91115991Y-51304351D01*
X91084857Y-51315491D01*
X91052781Y-51323525D01*
X91020071Y-51328377D01*
X90987044Y-51330000D01*
X89860956Y-51330000D01*
X89827929Y-51328377D01*
X89795219Y-51323525D01*
X89763143Y-51315491D01*
X89732009Y-51304351D01*
X89702116Y-51290213D01*
X89673753Y-51273213D01*
X89647193Y-51253515D01*
X89622692Y-51231308D01*
X89600485Y-51206807D01*
X89580787Y-51180247D01*
X89563787Y-51151884D01*
X89549649Y-51121991D01*
X89538509Y-51090857D01*
X89530475Y-51058781D01*
X89525623Y-51026071D01*
X89524000Y-50993044D01*
X89524000Y-50116956D01*
X89525623Y-50083929D01*
X89530475Y-50051219D01*
X89538509Y-50019143D01*
X89549649Y-49988009D01*
X89563787Y-49958116D01*
X89580787Y-49929753D01*
X89600485Y-49903193D01*
X89622692Y-49878692D01*
X89647193Y-49856485D01*
X89673753Y-49836787D01*
X89702116Y-49819787D01*
X89732009Y-49805649D01*
X89763143Y-49794509D01*
X89795219Y-49786475D01*
X89827929Y-49781623D01*
X89860956Y-49780000D01*
X90987044Y-49780000D01*
X91020071Y-49781623D01*
X91020071Y-49781623D01*
G37*
D20*
X90424000Y-50555000D03*
D11*
G36*
X91020071Y-47731623D02*
X91052781Y-47736475D01*
X91084857Y-47744509D01*
X91115991Y-47755649D01*
X91145884Y-47769787D01*
X91174247Y-47786787D01*
X91200807Y-47806485D01*
X91225308Y-47828692D01*
X91247515Y-47853193D01*
X91267213Y-47879753D01*
X91284213Y-47908116D01*
X91298351Y-47938009D01*
X91309491Y-47969143D01*
X91317525Y-48001219D01*
X91322377Y-48033929D01*
X91324000Y-48066956D01*
X91324000Y-48943044D01*
X91322377Y-48976071D01*
X91317525Y-49008781D01*
X91309491Y-49040857D01*
X91298351Y-49071991D01*
X91284213Y-49101884D01*
X91267213Y-49130247D01*
X91247515Y-49156807D01*
X91225308Y-49181308D01*
X91200807Y-49203515D01*
X91174247Y-49223213D01*
X91145884Y-49240213D01*
X91115991Y-49254351D01*
X91084857Y-49265491D01*
X91052781Y-49273525D01*
X91020071Y-49278377D01*
X90987044Y-49280000D01*
X89860956Y-49280000D01*
X89827929Y-49278377D01*
X89795219Y-49273525D01*
X89763143Y-49265491D01*
X89732009Y-49254351D01*
X89702116Y-49240213D01*
X89673753Y-49223213D01*
X89647193Y-49203515D01*
X89622692Y-49181308D01*
X89600485Y-49156807D01*
X89580787Y-49130247D01*
X89563787Y-49101884D01*
X89549649Y-49071991D01*
X89538509Y-49040857D01*
X89530475Y-49008781D01*
X89525623Y-48976071D01*
X89524000Y-48943044D01*
X89524000Y-48066956D01*
X89525623Y-48033929D01*
X89530475Y-48001219D01*
X89538509Y-47969143D01*
X89549649Y-47938009D01*
X89563787Y-47908116D01*
X89580787Y-47879753D01*
X89600485Y-47853193D01*
X89622692Y-47828692D01*
X89647193Y-47806485D01*
X89673753Y-47786787D01*
X89702116Y-47769787D01*
X89732009Y-47755649D01*
X89763143Y-47744509D01*
X89795219Y-47736475D01*
X89827929Y-47731623D01*
X89860956Y-47730000D01*
X90987044Y-47730000D01*
X91020071Y-47731623D01*
X91020071Y-47731623D01*
G37*
D20*
X90424000Y-48505000D03*
D11*
G36*
X40220071Y-72641623D02*
X40252781Y-72646475D01*
X40284857Y-72654509D01*
X40315991Y-72665649D01*
X40345884Y-72679787D01*
X40374247Y-72696787D01*
X40400807Y-72716485D01*
X40425308Y-72738692D01*
X40447515Y-72763193D01*
X40467213Y-72789753D01*
X40484213Y-72818116D01*
X40498351Y-72848009D01*
X40509491Y-72879143D01*
X40517525Y-72911219D01*
X40522377Y-72943929D01*
X40524000Y-72976956D01*
X40524000Y-73853044D01*
X40522377Y-73886071D01*
X40517525Y-73918781D01*
X40509491Y-73950857D01*
X40498351Y-73981991D01*
X40484213Y-74011884D01*
X40467213Y-74040247D01*
X40447515Y-74066807D01*
X40425308Y-74091308D01*
X40400807Y-74113515D01*
X40374247Y-74133213D01*
X40345884Y-74150213D01*
X40315991Y-74164351D01*
X40284857Y-74175491D01*
X40252781Y-74183525D01*
X40220071Y-74188377D01*
X40187044Y-74190000D01*
X39060956Y-74190000D01*
X39027929Y-74188377D01*
X38995219Y-74183525D01*
X38963143Y-74175491D01*
X38932009Y-74164351D01*
X38902116Y-74150213D01*
X38873753Y-74133213D01*
X38847193Y-74113515D01*
X38822692Y-74091308D01*
X38800485Y-74066807D01*
X38780787Y-74040247D01*
X38763787Y-74011884D01*
X38749649Y-73981991D01*
X38738509Y-73950857D01*
X38730475Y-73918781D01*
X38725623Y-73886071D01*
X38724000Y-73853044D01*
X38724000Y-72976956D01*
X38725623Y-72943929D01*
X38730475Y-72911219D01*
X38738509Y-72879143D01*
X38749649Y-72848009D01*
X38763787Y-72818116D01*
X38780787Y-72789753D01*
X38800485Y-72763193D01*
X38822692Y-72738692D01*
X38847193Y-72716485D01*
X38873753Y-72696787D01*
X38902116Y-72679787D01*
X38932009Y-72665649D01*
X38963143Y-72654509D01*
X38995219Y-72646475D01*
X39027929Y-72641623D01*
X39060956Y-72640000D01*
X40187044Y-72640000D01*
X40220071Y-72641623D01*
X40220071Y-72641623D01*
G37*
D20*
X39624000Y-73415000D03*
D11*
G36*
X40220071Y-70591623D02*
X40252781Y-70596475D01*
X40284857Y-70604509D01*
X40315991Y-70615649D01*
X40345884Y-70629787D01*
X40374247Y-70646787D01*
X40400807Y-70666485D01*
X40425308Y-70688692D01*
X40447515Y-70713193D01*
X40467213Y-70739753D01*
X40484213Y-70768116D01*
X40498351Y-70798009D01*
X40509491Y-70829143D01*
X40517525Y-70861219D01*
X40522377Y-70893929D01*
X40524000Y-70926956D01*
X40524000Y-71803044D01*
X40522377Y-71836071D01*
X40517525Y-71868781D01*
X40509491Y-71900857D01*
X40498351Y-71931991D01*
X40484213Y-71961884D01*
X40467213Y-71990247D01*
X40447515Y-72016807D01*
X40425308Y-72041308D01*
X40400807Y-72063515D01*
X40374247Y-72083213D01*
X40345884Y-72100213D01*
X40315991Y-72114351D01*
X40284857Y-72125491D01*
X40252781Y-72133525D01*
X40220071Y-72138377D01*
X40187044Y-72140000D01*
X39060956Y-72140000D01*
X39027929Y-72138377D01*
X38995219Y-72133525D01*
X38963143Y-72125491D01*
X38932009Y-72114351D01*
X38902116Y-72100213D01*
X38873753Y-72083213D01*
X38847193Y-72063515D01*
X38822692Y-72041308D01*
X38800485Y-72016807D01*
X38780787Y-71990247D01*
X38763787Y-71961884D01*
X38749649Y-71931991D01*
X38738509Y-71900857D01*
X38730475Y-71868781D01*
X38725623Y-71836071D01*
X38724000Y-71803044D01*
X38724000Y-70926956D01*
X38725623Y-70893929D01*
X38730475Y-70861219D01*
X38738509Y-70829143D01*
X38749649Y-70798009D01*
X38763787Y-70768116D01*
X38780787Y-70739753D01*
X38800485Y-70713193D01*
X38822692Y-70688692D01*
X38847193Y-70666485D01*
X38873753Y-70646787D01*
X38902116Y-70629787D01*
X38932009Y-70615649D01*
X38963143Y-70604509D01*
X38995219Y-70596475D01*
X39027929Y-70591623D01*
X39060956Y-70590000D01*
X40187044Y-70590000D01*
X40220071Y-70591623D01*
X40220071Y-70591623D01*
G37*
D20*
X39624000Y-71365000D03*
D11*
G36*
X39966071Y-49790623D02*
X39998781Y-49795475D01*
X40030857Y-49803509D01*
X40061991Y-49814649D01*
X40091884Y-49828787D01*
X40120247Y-49845787D01*
X40146807Y-49865485D01*
X40171308Y-49887692D01*
X40193515Y-49912193D01*
X40213213Y-49938753D01*
X40230213Y-49967116D01*
X40244351Y-49997009D01*
X40255491Y-50028143D01*
X40263525Y-50060219D01*
X40268377Y-50092929D01*
X40270000Y-50125956D01*
X40270000Y-51002044D01*
X40268377Y-51035071D01*
X40263525Y-51067781D01*
X40255491Y-51099857D01*
X40244351Y-51130991D01*
X40230213Y-51160884D01*
X40213213Y-51189247D01*
X40193515Y-51215807D01*
X40171308Y-51240308D01*
X40146807Y-51262515D01*
X40120247Y-51282213D01*
X40091884Y-51299213D01*
X40061991Y-51313351D01*
X40030857Y-51324491D01*
X39998781Y-51332525D01*
X39966071Y-51337377D01*
X39933044Y-51339000D01*
X38806956Y-51339000D01*
X38773929Y-51337377D01*
X38741219Y-51332525D01*
X38709143Y-51324491D01*
X38678009Y-51313351D01*
X38648116Y-51299213D01*
X38619753Y-51282213D01*
X38593193Y-51262515D01*
X38568692Y-51240308D01*
X38546485Y-51215807D01*
X38526787Y-51189247D01*
X38509787Y-51160884D01*
X38495649Y-51130991D01*
X38484509Y-51099857D01*
X38476475Y-51067781D01*
X38471623Y-51035071D01*
X38470000Y-51002044D01*
X38470000Y-50125956D01*
X38471623Y-50092929D01*
X38476475Y-50060219D01*
X38484509Y-50028143D01*
X38495649Y-49997009D01*
X38509787Y-49967116D01*
X38526787Y-49938753D01*
X38546485Y-49912193D01*
X38568692Y-49887692D01*
X38593193Y-49865485D01*
X38619753Y-49845787D01*
X38648116Y-49828787D01*
X38678009Y-49814649D01*
X38709143Y-49803509D01*
X38741219Y-49795475D01*
X38773929Y-49790623D01*
X38806956Y-49789000D01*
X39933044Y-49789000D01*
X39966071Y-49790623D01*
X39966071Y-49790623D01*
G37*
D20*
X39370000Y-50564000D03*
D11*
G36*
X39966071Y-47740623D02*
X39998781Y-47745475D01*
X40030857Y-47753509D01*
X40061991Y-47764649D01*
X40091884Y-47778787D01*
X40120247Y-47795787D01*
X40146807Y-47815485D01*
X40171308Y-47837692D01*
X40193515Y-47862193D01*
X40213213Y-47888753D01*
X40230213Y-47917116D01*
X40244351Y-47947009D01*
X40255491Y-47978143D01*
X40263525Y-48010219D01*
X40268377Y-48042929D01*
X40270000Y-48075956D01*
X40270000Y-48952044D01*
X40268377Y-48985071D01*
X40263525Y-49017781D01*
X40255491Y-49049857D01*
X40244351Y-49080991D01*
X40230213Y-49110884D01*
X40213213Y-49139247D01*
X40193515Y-49165807D01*
X40171308Y-49190308D01*
X40146807Y-49212515D01*
X40120247Y-49232213D01*
X40091884Y-49249213D01*
X40061991Y-49263351D01*
X40030857Y-49274491D01*
X39998781Y-49282525D01*
X39966071Y-49287377D01*
X39933044Y-49289000D01*
X38806956Y-49289000D01*
X38773929Y-49287377D01*
X38741219Y-49282525D01*
X38709143Y-49274491D01*
X38678009Y-49263351D01*
X38648116Y-49249213D01*
X38619753Y-49232213D01*
X38593193Y-49212515D01*
X38568692Y-49190308D01*
X38546485Y-49165807D01*
X38526787Y-49139247D01*
X38509787Y-49110884D01*
X38495649Y-49080991D01*
X38484509Y-49049857D01*
X38476475Y-49017781D01*
X38471623Y-48985071D01*
X38470000Y-48952044D01*
X38470000Y-48075956D01*
X38471623Y-48042929D01*
X38476475Y-48010219D01*
X38484509Y-47978143D01*
X38495649Y-47947009D01*
X38509787Y-47917116D01*
X38526787Y-47888753D01*
X38546485Y-47862193D01*
X38568692Y-47837692D01*
X38593193Y-47815485D01*
X38619753Y-47795787D01*
X38648116Y-47778787D01*
X38678009Y-47764649D01*
X38709143Y-47753509D01*
X38741219Y-47745475D01*
X38773929Y-47740623D01*
X38806956Y-47739000D01*
X39933044Y-47739000D01*
X39966071Y-47740623D01*
X39966071Y-47740623D01*
G37*
D20*
X39370000Y-48514000D03*
D11*
G36*
X61556071Y-72396623D02*
X61588781Y-72401475D01*
X61620857Y-72409509D01*
X61651991Y-72420649D01*
X61681884Y-72434787D01*
X61710247Y-72451787D01*
X61736807Y-72471485D01*
X61761308Y-72493692D01*
X61783515Y-72518193D01*
X61803213Y-72544753D01*
X61820213Y-72573116D01*
X61834351Y-72603009D01*
X61845491Y-72634143D01*
X61853525Y-72666219D01*
X61858377Y-72698929D01*
X61860000Y-72731956D01*
X61860000Y-73608044D01*
X61858377Y-73641071D01*
X61853525Y-73673781D01*
X61845491Y-73705857D01*
X61834351Y-73736991D01*
X61820213Y-73766884D01*
X61803213Y-73795247D01*
X61783515Y-73821807D01*
X61761308Y-73846308D01*
X61736807Y-73868515D01*
X61710247Y-73888213D01*
X61681884Y-73905213D01*
X61651991Y-73919351D01*
X61620857Y-73930491D01*
X61588781Y-73938525D01*
X61556071Y-73943377D01*
X61523044Y-73945000D01*
X60396956Y-73945000D01*
X60363929Y-73943377D01*
X60331219Y-73938525D01*
X60299143Y-73930491D01*
X60268009Y-73919351D01*
X60238116Y-73905213D01*
X60209753Y-73888213D01*
X60183193Y-73868515D01*
X60158692Y-73846308D01*
X60136485Y-73821807D01*
X60116787Y-73795247D01*
X60099787Y-73766884D01*
X60085649Y-73736991D01*
X60074509Y-73705857D01*
X60066475Y-73673781D01*
X60061623Y-73641071D01*
X60060000Y-73608044D01*
X60060000Y-72731956D01*
X60061623Y-72698929D01*
X60066475Y-72666219D01*
X60074509Y-72634143D01*
X60085649Y-72603009D01*
X60099787Y-72573116D01*
X60116787Y-72544753D01*
X60136485Y-72518193D01*
X60158692Y-72493692D01*
X60183193Y-72471485D01*
X60209753Y-72451787D01*
X60238116Y-72434787D01*
X60268009Y-72420649D01*
X60299143Y-72409509D01*
X60331219Y-72401475D01*
X60363929Y-72396623D01*
X60396956Y-72395000D01*
X61523044Y-72395000D01*
X61556071Y-72396623D01*
X61556071Y-72396623D01*
G37*
D20*
X60960000Y-73170000D03*
D11*
G36*
X61556071Y-70346623D02*
X61588781Y-70351475D01*
X61620857Y-70359509D01*
X61651991Y-70370649D01*
X61681884Y-70384787D01*
X61710247Y-70401787D01*
X61736807Y-70421485D01*
X61761308Y-70443692D01*
X61783515Y-70468193D01*
X61803213Y-70494753D01*
X61820213Y-70523116D01*
X61834351Y-70553009D01*
X61845491Y-70584143D01*
X61853525Y-70616219D01*
X61858377Y-70648929D01*
X61860000Y-70681956D01*
X61860000Y-71558044D01*
X61858377Y-71591071D01*
X61853525Y-71623781D01*
X61845491Y-71655857D01*
X61834351Y-71686991D01*
X61820213Y-71716884D01*
X61803213Y-71745247D01*
X61783515Y-71771807D01*
X61761308Y-71796308D01*
X61736807Y-71818515D01*
X61710247Y-71838213D01*
X61681884Y-71855213D01*
X61651991Y-71869351D01*
X61620857Y-71880491D01*
X61588781Y-71888525D01*
X61556071Y-71893377D01*
X61523044Y-71895000D01*
X60396956Y-71895000D01*
X60363929Y-71893377D01*
X60331219Y-71888525D01*
X60299143Y-71880491D01*
X60268009Y-71869351D01*
X60238116Y-71855213D01*
X60209753Y-71838213D01*
X60183193Y-71818515D01*
X60158692Y-71796308D01*
X60136485Y-71771807D01*
X60116787Y-71745247D01*
X60099787Y-71716884D01*
X60085649Y-71686991D01*
X60074509Y-71655857D01*
X60066475Y-71623781D01*
X60061623Y-71591071D01*
X60060000Y-71558044D01*
X60060000Y-70681956D01*
X60061623Y-70648929D01*
X60066475Y-70616219D01*
X60074509Y-70584143D01*
X60085649Y-70553009D01*
X60099787Y-70523116D01*
X60116787Y-70494753D01*
X60136485Y-70468193D01*
X60158692Y-70443692D01*
X60183193Y-70421485D01*
X60209753Y-70401787D01*
X60238116Y-70384787D01*
X60268009Y-70370649D01*
X60299143Y-70359509D01*
X60331219Y-70351475D01*
X60363929Y-70346623D01*
X60396956Y-70345000D01*
X61523044Y-70345000D01*
X61556071Y-70346623D01*
X61556071Y-70346623D01*
G37*
D20*
X60960000Y-71120000D03*
D11*
G36*
X10756071Y-70600623D02*
X10788781Y-70605475D01*
X10820857Y-70613509D01*
X10851991Y-70624649D01*
X10881884Y-70638787D01*
X10910247Y-70655787D01*
X10936807Y-70675485D01*
X10961308Y-70697692D01*
X10983515Y-70722193D01*
X11003213Y-70748753D01*
X11020213Y-70777116D01*
X11034351Y-70807009D01*
X11045491Y-70838143D01*
X11053525Y-70870219D01*
X11058377Y-70902929D01*
X11060000Y-70935956D01*
X11060000Y-71812044D01*
X11058377Y-71845071D01*
X11053525Y-71877781D01*
X11045491Y-71909857D01*
X11034351Y-71940991D01*
X11020213Y-71970884D01*
X11003213Y-71999247D01*
X10983515Y-72025807D01*
X10961308Y-72050308D01*
X10936807Y-72072515D01*
X10910247Y-72092213D01*
X10881884Y-72109213D01*
X10851991Y-72123351D01*
X10820857Y-72134491D01*
X10788781Y-72142525D01*
X10756071Y-72147377D01*
X10723044Y-72149000D01*
X9596956Y-72149000D01*
X9563929Y-72147377D01*
X9531219Y-72142525D01*
X9499143Y-72134491D01*
X9468009Y-72123351D01*
X9438116Y-72109213D01*
X9409753Y-72092213D01*
X9383193Y-72072515D01*
X9358692Y-72050308D01*
X9336485Y-72025807D01*
X9316787Y-71999247D01*
X9299787Y-71970884D01*
X9285649Y-71940991D01*
X9274509Y-71909857D01*
X9266475Y-71877781D01*
X9261623Y-71845071D01*
X9260000Y-71812044D01*
X9260000Y-70935956D01*
X9261623Y-70902929D01*
X9266475Y-70870219D01*
X9274509Y-70838143D01*
X9285649Y-70807009D01*
X9299787Y-70777116D01*
X9316787Y-70748753D01*
X9336485Y-70722193D01*
X9358692Y-70697692D01*
X9383193Y-70675485D01*
X9409753Y-70655787D01*
X9438116Y-70638787D01*
X9468009Y-70624649D01*
X9499143Y-70613509D01*
X9531219Y-70605475D01*
X9563929Y-70600623D01*
X9596956Y-70599000D01*
X10723044Y-70599000D01*
X10756071Y-70600623D01*
X10756071Y-70600623D01*
G37*
D20*
X10160000Y-71374000D03*
D11*
G36*
X10756071Y-72650623D02*
X10788781Y-72655475D01*
X10820857Y-72663509D01*
X10851991Y-72674649D01*
X10881884Y-72688787D01*
X10910247Y-72705787D01*
X10936807Y-72725485D01*
X10961308Y-72747692D01*
X10983515Y-72772193D01*
X11003213Y-72798753D01*
X11020213Y-72827116D01*
X11034351Y-72857009D01*
X11045491Y-72888143D01*
X11053525Y-72920219D01*
X11058377Y-72952929D01*
X11060000Y-72985956D01*
X11060000Y-73862044D01*
X11058377Y-73895071D01*
X11053525Y-73927781D01*
X11045491Y-73959857D01*
X11034351Y-73990991D01*
X11020213Y-74020884D01*
X11003213Y-74049247D01*
X10983515Y-74075807D01*
X10961308Y-74100308D01*
X10936807Y-74122515D01*
X10910247Y-74142213D01*
X10881884Y-74159213D01*
X10851991Y-74173351D01*
X10820857Y-74184491D01*
X10788781Y-74192525D01*
X10756071Y-74197377D01*
X10723044Y-74199000D01*
X9596956Y-74199000D01*
X9563929Y-74197377D01*
X9531219Y-74192525D01*
X9499143Y-74184491D01*
X9468009Y-74173351D01*
X9438116Y-74159213D01*
X9409753Y-74142213D01*
X9383193Y-74122515D01*
X9358692Y-74100308D01*
X9336485Y-74075807D01*
X9316787Y-74049247D01*
X9299787Y-74020884D01*
X9285649Y-73990991D01*
X9274509Y-73959857D01*
X9266475Y-73927781D01*
X9261623Y-73895071D01*
X9260000Y-73862044D01*
X9260000Y-72985956D01*
X9261623Y-72952929D01*
X9266475Y-72920219D01*
X9274509Y-72888143D01*
X9285649Y-72857009D01*
X9299787Y-72827116D01*
X9316787Y-72798753D01*
X9336485Y-72772193D01*
X9358692Y-72747692D01*
X9383193Y-72725485D01*
X9409753Y-72705787D01*
X9438116Y-72688787D01*
X9468009Y-72674649D01*
X9499143Y-72663509D01*
X9531219Y-72655475D01*
X9563929Y-72650623D01*
X9596956Y-72649000D01*
X10723044Y-72649000D01*
X10756071Y-72650623D01*
X10756071Y-72650623D01*
G37*
D20*
X10160000Y-73424000D03*
D11*
G36*
X10756071Y-47994623D02*
X10788781Y-47999475D01*
X10820857Y-48007509D01*
X10851991Y-48018649D01*
X10881884Y-48032787D01*
X10910247Y-48049787D01*
X10936807Y-48069485D01*
X10961308Y-48091692D01*
X10983515Y-48116193D01*
X11003213Y-48142753D01*
X11020213Y-48171116D01*
X11034351Y-48201009D01*
X11045491Y-48232143D01*
X11053525Y-48264219D01*
X11058377Y-48296929D01*
X11060000Y-48329956D01*
X11060000Y-49206044D01*
X11058377Y-49239071D01*
X11053525Y-49271781D01*
X11045491Y-49303857D01*
X11034351Y-49334991D01*
X11020213Y-49364884D01*
X11003213Y-49393247D01*
X10983515Y-49419807D01*
X10961308Y-49444308D01*
X10936807Y-49466515D01*
X10910247Y-49486213D01*
X10881884Y-49503213D01*
X10851991Y-49517351D01*
X10820857Y-49528491D01*
X10788781Y-49536525D01*
X10756071Y-49541377D01*
X10723044Y-49543000D01*
X9596956Y-49543000D01*
X9563929Y-49541377D01*
X9531219Y-49536525D01*
X9499143Y-49528491D01*
X9468009Y-49517351D01*
X9438116Y-49503213D01*
X9409753Y-49486213D01*
X9383193Y-49466515D01*
X9358692Y-49444308D01*
X9336485Y-49419807D01*
X9316787Y-49393247D01*
X9299787Y-49364884D01*
X9285649Y-49334991D01*
X9274509Y-49303857D01*
X9266475Y-49271781D01*
X9261623Y-49239071D01*
X9260000Y-49206044D01*
X9260000Y-48329956D01*
X9261623Y-48296929D01*
X9266475Y-48264219D01*
X9274509Y-48232143D01*
X9285649Y-48201009D01*
X9299787Y-48171116D01*
X9316787Y-48142753D01*
X9336485Y-48116193D01*
X9358692Y-48091692D01*
X9383193Y-48069485D01*
X9409753Y-48049787D01*
X9438116Y-48032787D01*
X9468009Y-48018649D01*
X9499143Y-48007509D01*
X9531219Y-47999475D01*
X9563929Y-47994623D01*
X9596956Y-47993000D01*
X10723044Y-47993000D01*
X10756071Y-47994623D01*
X10756071Y-47994623D01*
G37*
D20*
X10160000Y-48768000D03*
D11*
G36*
X10756071Y-50044623D02*
X10788781Y-50049475D01*
X10820857Y-50057509D01*
X10851991Y-50068649D01*
X10881884Y-50082787D01*
X10910247Y-50099787D01*
X10936807Y-50119485D01*
X10961308Y-50141692D01*
X10983515Y-50166193D01*
X11003213Y-50192753D01*
X11020213Y-50221116D01*
X11034351Y-50251009D01*
X11045491Y-50282143D01*
X11053525Y-50314219D01*
X11058377Y-50346929D01*
X11060000Y-50379956D01*
X11060000Y-51256044D01*
X11058377Y-51289071D01*
X11053525Y-51321781D01*
X11045491Y-51353857D01*
X11034351Y-51384991D01*
X11020213Y-51414884D01*
X11003213Y-51443247D01*
X10983515Y-51469807D01*
X10961308Y-51494308D01*
X10936807Y-51516515D01*
X10910247Y-51536213D01*
X10881884Y-51553213D01*
X10851991Y-51567351D01*
X10820857Y-51578491D01*
X10788781Y-51586525D01*
X10756071Y-51591377D01*
X10723044Y-51593000D01*
X9596956Y-51593000D01*
X9563929Y-51591377D01*
X9531219Y-51586525D01*
X9499143Y-51578491D01*
X9468009Y-51567351D01*
X9438116Y-51553213D01*
X9409753Y-51536213D01*
X9383193Y-51516515D01*
X9358692Y-51494308D01*
X9336485Y-51469807D01*
X9316787Y-51443247D01*
X9299787Y-51414884D01*
X9285649Y-51384991D01*
X9274509Y-51353857D01*
X9266475Y-51321781D01*
X9261623Y-51289071D01*
X9260000Y-51256044D01*
X9260000Y-50379956D01*
X9261623Y-50346929D01*
X9266475Y-50314219D01*
X9274509Y-50282143D01*
X9285649Y-50251009D01*
X9299787Y-50221116D01*
X9316787Y-50192753D01*
X9336485Y-50166193D01*
X9358692Y-50141692D01*
X9383193Y-50119485D01*
X9409753Y-50099787D01*
X9438116Y-50082787D01*
X9468009Y-50068649D01*
X9499143Y-50057509D01*
X9531219Y-50049475D01*
X9563929Y-50044623D01*
X9596956Y-50043000D01*
X10723044Y-50043000D01*
X10756071Y-50044623D01*
X10756071Y-50044623D01*
G37*
D20*
X10160000Y-50818000D03*
D11*
G36*
X25488071Y-47985623D02*
X25520781Y-47990475D01*
X25552857Y-47998509D01*
X25583991Y-48009649D01*
X25613884Y-48023787D01*
X25642247Y-48040787D01*
X25668807Y-48060485D01*
X25693308Y-48082692D01*
X25715515Y-48107193D01*
X25735213Y-48133753D01*
X25752213Y-48162116D01*
X25766351Y-48192009D01*
X25777491Y-48223143D01*
X25785525Y-48255219D01*
X25790377Y-48287929D01*
X25792000Y-48320956D01*
X25792000Y-49197044D01*
X25790377Y-49230071D01*
X25785525Y-49262781D01*
X25777491Y-49294857D01*
X25766351Y-49325991D01*
X25752213Y-49355884D01*
X25735213Y-49384247D01*
X25715515Y-49410807D01*
X25693308Y-49435308D01*
X25668807Y-49457515D01*
X25642247Y-49477213D01*
X25613884Y-49494213D01*
X25583991Y-49508351D01*
X25552857Y-49519491D01*
X25520781Y-49527525D01*
X25488071Y-49532377D01*
X25455044Y-49534000D01*
X24328956Y-49534000D01*
X24295929Y-49532377D01*
X24263219Y-49527525D01*
X24231143Y-49519491D01*
X24200009Y-49508351D01*
X24170116Y-49494213D01*
X24141753Y-49477213D01*
X24115193Y-49457515D01*
X24090692Y-49435308D01*
X24068485Y-49410807D01*
X24048787Y-49384247D01*
X24031787Y-49355884D01*
X24017649Y-49325991D01*
X24006509Y-49294857D01*
X23998475Y-49262781D01*
X23993623Y-49230071D01*
X23992000Y-49197044D01*
X23992000Y-48320956D01*
X23993623Y-48287929D01*
X23998475Y-48255219D01*
X24006509Y-48223143D01*
X24017649Y-48192009D01*
X24031787Y-48162116D01*
X24048787Y-48133753D01*
X24068485Y-48107193D01*
X24090692Y-48082692D01*
X24115193Y-48060485D01*
X24141753Y-48040787D01*
X24170116Y-48023787D01*
X24200009Y-48009649D01*
X24231143Y-47998509D01*
X24263219Y-47990475D01*
X24295929Y-47985623D01*
X24328956Y-47984000D01*
X25455044Y-47984000D01*
X25488071Y-47985623D01*
X25488071Y-47985623D01*
G37*
D20*
X24892000Y-48759000D03*
D11*
G36*
X25488071Y-50035623D02*
X25520781Y-50040475D01*
X25552857Y-50048509D01*
X25583991Y-50059649D01*
X25613884Y-50073787D01*
X25642247Y-50090787D01*
X25668807Y-50110485D01*
X25693308Y-50132692D01*
X25715515Y-50157193D01*
X25735213Y-50183753D01*
X25752213Y-50212116D01*
X25766351Y-50242009D01*
X25777491Y-50273143D01*
X25785525Y-50305219D01*
X25790377Y-50337929D01*
X25792000Y-50370956D01*
X25792000Y-51247044D01*
X25790377Y-51280071D01*
X25785525Y-51312781D01*
X25777491Y-51344857D01*
X25766351Y-51375991D01*
X25752213Y-51405884D01*
X25735213Y-51434247D01*
X25715515Y-51460807D01*
X25693308Y-51485308D01*
X25668807Y-51507515D01*
X25642247Y-51527213D01*
X25613884Y-51544213D01*
X25583991Y-51558351D01*
X25552857Y-51569491D01*
X25520781Y-51577525D01*
X25488071Y-51582377D01*
X25455044Y-51584000D01*
X24328956Y-51584000D01*
X24295929Y-51582377D01*
X24263219Y-51577525D01*
X24231143Y-51569491D01*
X24200009Y-51558351D01*
X24170116Y-51544213D01*
X24141753Y-51527213D01*
X24115193Y-51507515D01*
X24090692Y-51485308D01*
X24068485Y-51460807D01*
X24048787Y-51434247D01*
X24031787Y-51405884D01*
X24017649Y-51375991D01*
X24006509Y-51344857D01*
X23998475Y-51312781D01*
X23993623Y-51280071D01*
X23992000Y-51247044D01*
X23992000Y-50370956D01*
X23993623Y-50337929D01*
X23998475Y-50305219D01*
X24006509Y-50273143D01*
X24017649Y-50242009D01*
X24031787Y-50212116D01*
X24048787Y-50183753D01*
X24068485Y-50157193D01*
X24090692Y-50132692D01*
X24115193Y-50110485D01*
X24141753Y-50090787D01*
X24170116Y-50073787D01*
X24200009Y-50059649D01*
X24231143Y-50048509D01*
X24263219Y-50040475D01*
X24295929Y-50035623D01*
X24328956Y-50034000D01*
X25455044Y-50034000D01*
X25488071Y-50035623D01*
X25488071Y-50035623D01*
G37*
D20*
X24892000Y-50809000D03*
D11*
G36*
X91020071Y-70346623D02*
X91052781Y-70351475D01*
X91084857Y-70359509D01*
X91115991Y-70370649D01*
X91145884Y-70384787D01*
X91174247Y-70401787D01*
X91200807Y-70421485D01*
X91225308Y-70443692D01*
X91247515Y-70468193D01*
X91267213Y-70494753D01*
X91284213Y-70523116D01*
X91298351Y-70553009D01*
X91309491Y-70584143D01*
X91317525Y-70616219D01*
X91322377Y-70648929D01*
X91324000Y-70681956D01*
X91324000Y-71558044D01*
X91322377Y-71591071D01*
X91317525Y-71623781D01*
X91309491Y-71655857D01*
X91298351Y-71686991D01*
X91284213Y-71716884D01*
X91267213Y-71745247D01*
X91247515Y-71771807D01*
X91225308Y-71796308D01*
X91200807Y-71818515D01*
X91174247Y-71838213D01*
X91145884Y-71855213D01*
X91115991Y-71869351D01*
X91084857Y-71880491D01*
X91052781Y-71888525D01*
X91020071Y-71893377D01*
X90987044Y-71895000D01*
X89860956Y-71895000D01*
X89827929Y-71893377D01*
X89795219Y-71888525D01*
X89763143Y-71880491D01*
X89732009Y-71869351D01*
X89702116Y-71855213D01*
X89673753Y-71838213D01*
X89647193Y-71818515D01*
X89622692Y-71796308D01*
X89600485Y-71771807D01*
X89580787Y-71745247D01*
X89563787Y-71716884D01*
X89549649Y-71686991D01*
X89538509Y-71655857D01*
X89530475Y-71623781D01*
X89525623Y-71591071D01*
X89524000Y-71558044D01*
X89524000Y-70681956D01*
X89525623Y-70648929D01*
X89530475Y-70616219D01*
X89538509Y-70584143D01*
X89549649Y-70553009D01*
X89563787Y-70523116D01*
X89580787Y-70494753D01*
X89600485Y-70468193D01*
X89622692Y-70443692D01*
X89647193Y-70421485D01*
X89673753Y-70401787D01*
X89702116Y-70384787D01*
X89732009Y-70370649D01*
X89763143Y-70359509D01*
X89795219Y-70351475D01*
X89827929Y-70346623D01*
X89860956Y-70345000D01*
X90987044Y-70345000D01*
X91020071Y-70346623D01*
X91020071Y-70346623D01*
G37*
D20*
X90424000Y-71120000D03*
D11*
G36*
X91020071Y-72396623D02*
X91052781Y-72401475D01*
X91084857Y-72409509D01*
X91115991Y-72420649D01*
X91145884Y-72434787D01*
X91174247Y-72451787D01*
X91200807Y-72471485D01*
X91225308Y-72493692D01*
X91247515Y-72518193D01*
X91267213Y-72544753D01*
X91284213Y-72573116D01*
X91298351Y-72603009D01*
X91309491Y-72634143D01*
X91317525Y-72666219D01*
X91322377Y-72698929D01*
X91324000Y-72731956D01*
X91324000Y-73608044D01*
X91322377Y-73641071D01*
X91317525Y-73673781D01*
X91309491Y-73705857D01*
X91298351Y-73736991D01*
X91284213Y-73766884D01*
X91267213Y-73795247D01*
X91247515Y-73821807D01*
X91225308Y-73846308D01*
X91200807Y-73868515D01*
X91174247Y-73888213D01*
X91145884Y-73905213D01*
X91115991Y-73919351D01*
X91084857Y-73930491D01*
X91052781Y-73938525D01*
X91020071Y-73943377D01*
X90987044Y-73945000D01*
X89860956Y-73945000D01*
X89827929Y-73943377D01*
X89795219Y-73938525D01*
X89763143Y-73930491D01*
X89732009Y-73919351D01*
X89702116Y-73905213D01*
X89673753Y-73888213D01*
X89647193Y-73868515D01*
X89622692Y-73846308D01*
X89600485Y-73821807D01*
X89580787Y-73795247D01*
X89563787Y-73766884D01*
X89549649Y-73736991D01*
X89538509Y-73705857D01*
X89530475Y-73673781D01*
X89525623Y-73641071D01*
X89524000Y-73608044D01*
X89524000Y-72731956D01*
X89525623Y-72698929D01*
X89530475Y-72666219D01*
X89538509Y-72634143D01*
X89549649Y-72603009D01*
X89563787Y-72573116D01*
X89580787Y-72544753D01*
X89600485Y-72518193D01*
X89622692Y-72493692D01*
X89647193Y-72471485D01*
X89673753Y-72451787D01*
X89702116Y-72434787D01*
X89732009Y-72420649D01*
X89763143Y-72409509D01*
X89795219Y-72401475D01*
X89827929Y-72396623D01*
X89860956Y-72395000D01*
X90987044Y-72395000D01*
X91020071Y-72396623D01*
X91020071Y-72396623D01*
G37*
D20*
X90424000Y-73170000D03*
D11*
G36*
X91020071Y-78220623D02*
X91052781Y-78225475D01*
X91084857Y-78233509D01*
X91115991Y-78244649D01*
X91145884Y-78258787D01*
X91174247Y-78275787D01*
X91200807Y-78295485D01*
X91225308Y-78317692D01*
X91247515Y-78342193D01*
X91267213Y-78368753D01*
X91284213Y-78397116D01*
X91298351Y-78427009D01*
X91309491Y-78458143D01*
X91317525Y-78490219D01*
X91322377Y-78522929D01*
X91324000Y-78555956D01*
X91324000Y-79432044D01*
X91322377Y-79465071D01*
X91317525Y-79497781D01*
X91309491Y-79529857D01*
X91298351Y-79560991D01*
X91284213Y-79590884D01*
X91267213Y-79619247D01*
X91247515Y-79645807D01*
X91225308Y-79670308D01*
X91200807Y-79692515D01*
X91174247Y-79712213D01*
X91145884Y-79729213D01*
X91115991Y-79743351D01*
X91084857Y-79754491D01*
X91052781Y-79762525D01*
X91020071Y-79767377D01*
X90987044Y-79769000D01*
X89860956Y-79769000D01*
X89827929Y-79767377D01*
X89795219Y-79762525D01*
X89763143Y-79754491D01*
X89732009Y-79743351D01*
X89702116Y-79729213D01*
X89673753Y-79712213D01*
X89647193Y-79692515D01*
X89622692Y-79670308D01*
X89600485Y-79645807D01*
X89580787Y-79619247D01*
X89563787Y-79590884D01*
X89549649Y-79560991D01*
X89538509Y-79529857D01*
X89530475Y-79497781D01*
X89525623Y-79465071D01*
X89524000Y-79432044D01*
X89524000Y-78555956D01*
X89525623Y-78522929D01*
X89530475Y-78490219D01*
X89538509Y-78458143D01*
X89549649Y-78427009D01*
X89563787Y-78397116D01*
X89580787Y-78368753D01*
X89600485Y-78342193D01*
X89622692Y-78317692D01*
X89647193Y-78295485D01*
X89673753Y-78275787D01*
X89702116Y-78258787D01*
X89732009Y-78244649D01*
X89763143Y-78233509D01*
X89795219Y-78225475D01*
X89827929Y-78220623D01*
X89860956Y-78219000D01*
X90987044Y-78219000D01*
X91020071Y-78220623D01*
X91020071Y-78220623D01*
G37*
D20*
X90424000Y-78994000D03*
D11*
G36*
X91020071Y-80270623D02*
X91052781Y-80275475D01*
X91084857Y-80283509D01*
X91115991Y-80294649D01*
X91145884Y-80308787D01*
X91174247Y-80325787D01*
X91200807Y-80345485D01*
X91225308Y-80367692D01*
X91247515Y-80392193D01*
X91267213Y-80418753D01*
X91284213Y-80447116D01*
X91298351Y-80477009D01*
X91309491Y-80508143D01*
X91317525Y-80540219D01*
X91322377Y-80572929D01*
X91324000Y-80605956D01*
X91324000Y-81482044D01*
X91322377Y-81515071D01*
X91317525Y-81547781D01*
X91309491Y-81579857D01*
X91298351Y-81610991D01*
X91284213Y-81640884D01*
X91267213Y-81669247D01*
X91247515Y-81695807D01*
X91225308Y-81720308D01*
X91200807Y-81742515D01*
X91174247Y-81762213D01*
X91145884Y-81779213D01*
X91115991Y-81793351D01*
X91084857Y-81804491D01*
X91052781Y-81812525D01*
X91020071Y-81817377D01*
X90987044Y-81819000D01*
X89860956Y-81819000D01*
X89827929Y-81817377D01*
X89795219Y-81812525D01*
X89763143Y-81804491D01*
X89732009Y-81793351D01*
X89702116Y-81779213D01*
X89673753Y-81762213D01*
X89647193Y-81742515D01*
X89622692Y-81720308D01*
X89600485Y-81695807D01*
X89580787Y-81669247D01*
X89563787Y-81640884D01*
X89549649Y-81610991D01*
X89538509Y-81579857D01*
X89530475Y-81547781D01*
X89525623Y-81515071D01*
X89524000Y-81482044D01*
X89524000Y-80605956D01*
X89525623Y-80572929D01*
X89530475Y-80540219D01*
X89538509Y-80508143D01*
X89549649Y-80477009D01*
X89563787Y-80447116D01*
X89580787Y-80418753D01*
X89600485Y-80392193D01*
X89622692Y-80367692D01*
X89647193Y-80345485D01*
X89673753Y-80325787D01*
X89702116Y-80308787D01*
X89732009Y-80294649D01*
X89763143Y-80283509D01*
X89795219Y-80275475D01*
X89827929Y-80270623D01*
X89860956Y-80269000D01*
X90987044Y-80269000D01*
X91020071Y-80270623D01*
X91020071Y-80270623D01*
G37*
D20*
X90424000Y-81044000D03*
D11*
G36*
X10756071Y-55859623D02*
X10788781Y-55864475D01*
X10820857Y-55872509D01*
X10851991Y-55883649D01*
X10881884Y-55897787D01*
X10910247Y-55914787D01*
X10936807Y-55934485D01*
X10961308Y-55956692D01*
X10983515Y-55981193D01*
X11003213Y-56007753D01*
X11020213Y-56036116D01*
X11034351Y-56066009D01*
X11045491Y-56097143D01*
X11053525Y-56129219D01*
X11058377Y-56161929D01*
X11060000Y-56194956D01*
X11060000Y-57071044D01*
X11058377Y-57104071D01*
X11053525Y-57136781D01*
X11045491Y-57168857D01*
X11034351Y-57199991D01*
X11020213Y-57229884D01*
X11003213Y-57258247D01*
X10983515Y-57284807D01*
X10961308Y-57309308D01*
X10936807Y-57331515D01*
X10910247Y-57351213D01*
X10881884Y-57368213D01*
X10851991Y-57382351D01*
X10820857Y-57393491D01*
X10788781Y-57401525D01*
X10756071Y-57406377D01*
X10723044Y-57408000D01*
X9596956Y-57408000D01*
X9563929Y-57406377D01*
X9531219Y-57401525D01*
X9499143Y-57393491D01*
X9468009Y-57382351D01*
X9438116Y-57368213D01*
X9409753Y-57351213D01*
X9383193Y-57331515D01*
X9358692Y-57309308D01*
X9336485Y-57284807D01*
X9316787Y-57258247D01*
X9299787Y-57229884D01*
X9285649Y-57199991D01*
X9274509Y-57168857D01*
X9266475Y-57136781D01*
X9261623Y-57104071D01*
X9260000Y-57071044D01*
X9260000Y-56194956D01*
X9261623Y-56161929D01*
X9266475Y-56129219D01*
X9274509Y-56097143D01*
X9285649Y-56066009D01*
X9299787Y-56036116D01*
X9316787Y-56007753D01*
X9336485Y-55981193D01*
X9358692Y-55956692D01*
X9383193Y-55934485D01*
X9409753Y-55914787D01*
X9438116Y-55897787D01*
X9468009Y-55883649D01*
X9499143Y-55872509D01*
X9531219Y-55864475D01*
X9563929Y-55859623D01*
X9596956Y-55858000D01*
X10723044Y-55858000D01*
X10756071Y-55859623D01*
X10756071Y-55859623D01*
G37*
D20*
X10160000Y-56633000D03*
D11*
G36*
X10756071Y-57909623D02*
X10788781Y-57914475D01*
X10820857Y-57922509D01*
X10851991Y-57933649D01*
X10881884Y-57947787D01*
X10910247Y-57964787D01*
X10936807Y-57984485D01*
X10961308Y-58006692D01*
X10983515Y-58031193D01*
X11003213Y-58057753D01*
X11020213Y-58086116D01*
X11034351Y-58116009D01*
X11045491Y-58147143D01*
X11053525Y-58179219D01*
X11058377Y-58211929D01*
X11060000Y-58244956D01*
X11060000Y-59121044D01*
X11058377Y-59154071D01*
X11053525Y-59186781D01*
X11045491Y-59218857D01*
X11034351Y-59249991D01*
X11020213Y-59279884D01*
X11003213Y-59308247D01*
X10983515Y-59334807D01*
X10961308Y-59359308D01*
X10936807Y-59381515D01*
X10910247Y-59401213D01*
X10881884Y-59418213D01*
X10851991Y-59432351D01*
X10820857Y-59443491D01*
X10788781Y-59451525D01*
X10756071Y-59456377D01*
X10723044Y-59458000D01*
X9596956Y-59458000D01*
X9563929Y-59456377D01*
X9531219Y-59451525D01*
X9499143Y-59443491D01*
X9468009Y-59432351D01*
X9438116Y-59418213D01*
X9409753Y-59401213D01*
X9383193Y-59381515D01*
X9358692Y-59359308D01*
X9336485Y-59334807D01*
X9316787Y-59308247D01*
X9299787Y-59279884D01*
X9285649Y-59249991D01*
X9274509Y-59218857D01*
X9266475Y-59186781D01*
X9261623Y-59154071D01*
X9260000Y-59121044D01*
X9260000Y-58244956D01*
X9261623Y-58211929D01*
X9266475Y-58179219D01*
X9274509Y-58147143D01*
X9285649Y-58116009D01*
X9299787Y-58086116D01*
X9316787Y-58057753D01*
X9336485Y-58031193D01*
X9358692Y-58006692D01*
X9383193Y-57984485D01*
X9409753Y-57964787D01*
X9438116Y-57947787D01*
X9468009Y-57933649D01*
X9499143Y-57922509D01*
X9531219Y-57914475D01*
X9563929Y-57909623D01*
X9596956Y-57908000D01*
X10723044Y-57908000D01*
X10756071Y-57909623D01*
X10756071Y-57909623D01*
G37*
D20*
X10160000Y-58683000D03*
D11*
G36*
X11010071Y-78211623D02*
X11042781Y-78216475D01*
X11074857Y-78224509D01*
X11105991Y-78235649D01*
X11135884Y-78249787D01*
X11164247Y-78266787D01*
X11190807Y-78286485D01*
X11215308Y-78308692D01*
X11237515Y-78333193D01*
X11257213Y-78359753D01*
X11274213Y-78388116D01*
X11288351Y-78418009D01*
X11299491Y-78449143D01*
X11307525Y-78481219D01*
X11312377Y-78513929D01*
X11314000Y-78546956D01*
X11314000Y-79423044D01*
X11312377Y-79456071D01*
X11307525Y-79488781D01*
X11299491Y-79520857D01*
X11288351Y-79551991D01*
X11274213Y-79581884D01*
X11257213Y-79610247D01*
X11237515Y-79636807D01*
X11215308Y-79661308D01*
X11190807Y-79683515D01*
X11164247Y-79703213D01*
X11135884Y-79720213D01*
X11105991Y-79734351D01*
X11074857Y-79745491D01*
X11042781Y-79753525D01*
X11010071Y-79758377D01*
X10977044Y-79760000D01*
X9850956Y-79760000D01*
X9817929Y-79758377D01*
X9785219Y-79753525D01*
X9753143Y-79745491D01*
X9722009Y-79734351D01*
X9692116Y-79720213D01*
X9663753Y-79703213D01*
X9637193Y-79683515D01*
X9612692Y-79661308D01*
X9590485Y-79636807D01*
X9570787Y-79610247D01*
X9553787Y-79581884D01*
X9539649Y-79551991D01*
X9528509Y-79520857D01*
X9520475Y-79488781D01*
X9515623Y-79456071D01*
X9514000Y-79423044D01*
X9514000Y-78546956D01*
X9515623Y-78513929D01*
X9520475Y-78481219D01*
X9528509Y-78449143D01*
X9539649Y-78418009D01*
X9553787Y-78388116D01*
X9570787Y-78359753D01*
X9590485Y-78333193D01*
X9612692Y-78308692D01*
X9637193Y-78286485D01*
X9663753Y-78266787D01*
X9692116Y-78249787D01*
X9722009Y-78235649D01*
X9753143Y-78224509D01*
X9785219Y-78216475D01*
X9817929Y-78211623D01*
X9850956Y-78210000D01*
X10977044Y-78210000D01*
X11010071Y-78211623D01*
X11010071Y-78211623D01*
G37*
D20*
X10414000Y-78985000D03*
D11*
G36*
X11010071Y-80261623D02*
X11042781Y-80266475D01*
X11074857Y-80274509D01*
X11105991Y-80285649D01*
X11135884Y-80299787D01*
X11164247Y-80316787D01*
X11190807Y-80336485D01*
X11215308Y-80358692D01*
X11237515Y-80383193D01*
X11257213Y-80409753D01*
X11274213Y-80438116D01*
X11288351Y-80468009D01*
X11299491Y-80499143D01*
X11307525Y-80531219D01*
X11312377Y-80563929D01*
X11314000Y-80596956D01*
X11314000Y-81473044D01*
X11312377Y-81506071D01*
X11307525Y-81538781D01*
X11299491Y-81570857D01*
X11288351Y-81601991D01*
X11274213Y-81631884D01*
X11257213Y-81660247D01*
X11237515Y-81686807D01*
X11215308Y-81711308D01*
X11190807Y-81733515D01*
X11164247Y-81753213D01*
X11135884Y-81770213D01*
X11105991Y-81784351D01*
X11074857Y-81795491D01*
X11042781Y-81803525D01*
X11010071Y-81808377D01*
X10977044Y-81810000D01*
X9850956Y-81810000D01*
X9817929Y-81808377D01*
X9785219Y-81803525D01*
X9753143Y-81795491D01*
X9722009Y-81784351D01*
X9692116Y-81770213D01*
X9663753Y-81753213D01*
X9637193Y-81733515D01*
X9612692Y-81711308D01*
X9590485Y-81686807D01*
X9570787Y-81660247D01*
X9553787Y-81631884D01*
X9539649Y-81601991D01*
X9528509Y-81570857D01*
X9520475Y-81538781D01*
X9515623Y-81506071D01*
X9514000Y-81473044D01*
X9514000Y-80596956D01*
X9515623Y-80563929D01*
X9520475Y-80531219D01*
X9528509Y-80499143D01*
X9539649Y-80468009D01*
X9553787Y-80438116D01*
X9570787Y-80409753D01*
X9590485Y-80383193D01*
X9612692Y-80358692D01*
X9637193Y-80336485D01*
X9663753Y-80316787D01*
X9692116Y-80299787D01*
X9722009Y-80285649D01*
X9753143Y-80274509D01*
X9785219Y-80266475D01*
X9817929Y-80261623D01*
X9850956Y-80260000D01*
X10977044Y-80260000D01*
X11010071Y-80261623D01*
X11010071Y-80261623D01*
G37*
D20*
X10414000Y-81035000D03*
D11*
G36*
X61810071Y-55605623D02*
X61842781Y-55610475D01*
X61874857Y-55618509D01*
X61905991Y-55629649D01*
X61935884Y-55643787D01*
X61964247Y-55660787D01*
X61990807Y-55680485D01*
X62015308Y-55702692D01*
X62037515Y-55727193D01*
X62057213Y-55753753D01*
X62074213Y-55782116D01*
X62088351Y-55812009D01*
X62099491Y-55843143D01*
X62107525Y-55875219D01*
X62112377Y-55907929D01*
X62114000Y-55940956D01*
X62114000Y-56817044D01*
X62112377Y-56850071D01*
X62107525Y-56882781D01*
X62099491Y-56914857D01*
X62088351Y-56945991D01*
X62074213Y-56975884D01*
X62057213Y-57004247D01*
X62037515Y-57030807D01*
X62015308Y-57055308D01*
X61990807Y-57077515D01*
X61964247Y-57097213D01*
X61935884Y-57114213D01*
X61905991Y-57128351D01*
X61874857Y-57139491D01*
X61842781Y-57147525D01*
X61810071Y-57152377D01*
X61777044Y-57154000D01*
X60650956Y-57154000D01*
X60617929Y-57152377D01*
X60585219Y-57147525D01*
X60553143Y-57139491D01*
X60522009Y-57128351D01*
X60492116Y-57114213D01*
X60463753Y-57097213D01*
X60437193Y-57077515D01*
X60412692Y-57055308D01*
X60390485Y-57030807D01*
X60370787Y-57004247D01*
X60353787Y-56975884D01*
X60339649Y-56945991D01*
X60328509Y-56914857D01*
X60320475Y-56882781D01*
X60315623Y-56850071D01*
X60314000Y-56817044D01*
X60314000Y-55940956D01*
X60315623Y-55907929D01*
X60320475Y-55875219D01*
X60328509Y-55843143D01*
X60339649Y-55812009D01*
X60353787Y-55782116D01*
X60370787Y-55753753D01*
X60390485Y-55727193D01*
X60412692Y-55702692D01*
X60437193Y-55680485D01*
X60463753Y-55660787D01*
X60492116Y-55643787D01*
X60522009Y-55629649D01*
X60553143Y-55618509D01*
X60585219Y-55610475D01*
X60617929Y-55605623D01*
X60650956Y-55604000D01*
X61777044Y-55604000D01*
X61810071Y-55605623D01*
X61810071Y-55605623D01*
G37*
D20*
X61214000Y-56379000D03*
D11*
G36*
X61810071Y-57655623D02*
X61842781Y-57660475D01*
X61874857Y-57668509D01*
X61905991Y-57679649D01*
X61935884Y-57693787D01*
X61964247Y-57710787D01*
X61990807Y-57730485D01*
X62015308Y-57752692D01*
X62037515Y-57777193D01*
X62057213Y-57803753D01*
X62074213Y-57832116D01*
X62088351Y-57862009D01*
X62099491Y-57893143D01*
X62107525Y-57925219D01*
X62112377Y-57957929D01*
X62114000Y-57990956D01*
X62114000Y-58867044D01*
X62112377Y-58900071D01*
X62107525Y-58932781D01*
X62099491Y-58964857D01*
X62088351Y-58995991D01*
X62074213Y-59025884D01*
X62057213Y-59054247D01*
X62037515Y-59080807D01*
X62015308Y-59105308D01*
X61990807Y-59127515D01*
X61964247Y-59147213D01*
X61935884Y-59164213D01*
X61905991Y-59178351D01*
X61874857Y-59189491D01*
X61842781Y-59197525D01*
X61810071Y-59202377D01*
X61777044Y-59204000D01*
X60650956Y-59204000D01*
X60617929Y-59202377D01*
X60585219Y-59197525D01*
X60553143Y-59189491D01*
X60522009Y-59178351D01*
X60492116Y-59164213D01*
X60463753Y-59147213D01*
X60437193Y-59127515D01*
X60412692Y-59105308D01*
X60390485Y-59080807D01*
X60370787Y-59054247D01*
X60353787Y-59025884D01*
X60339649Y-58995991D01*
X60328509Y-58964857D01*
X60320475Y-58932781D01*
X60315623Y-58900071D01*
X60314000Y-58867044D01*
X60314000Y-57990956D01*
X60315623Y-57957929D01*
X60320475Y-57925219D01*
X60328509Y-57893143D01*
X60339649Y-57862009D01*
X60353787Y-57832116D01*
X60370787Y-57803753D01*
X60390485Y-57777193D01*
X60412692Y-57752692D01*
X60437193Y-57730485D01*
X60463753Y-57710787D01*
X60492116Y-57693787D01*
X60522009Y-57679649D01*
X60553143Y-57668509D01*
X60585219Y-57660475D01*
X60617929Y-57655623D01*
X60650956Y-57654000D01*
X61777044Y-57654000D01*
X61810071Y-57655623D01*
X61810071Y-57655623D01*
G37*
D20*
X61214000Y-58429000D03*
D11*
G36*
X76542071Y-55605623D02*
X76574781Y-55610475D01*
X76606857Y-55618509D01*
X76637991Y-55629649D01*
X76667884Y-55643787D01*
X76696247Y-55660787D01*
X76722807Y-55680485D01*
X76747308Y-55702692D01*
X76769515Y-55727193D01*
X76789213Y-55753753D01*
X76806213Y-55782116D01*
X76820351Y-55812009D01*
X76831491Y-55843143D01*
X76839525Y-55875219D01*
X76844377Y-55907929D01*
X76846000Y-55940956D01*
X76846000Y-56817044D01*
X76844377Y-56850071D01*
X76839525Y-56882781D01*
X76831491Y-56914857D01*
X76820351Y-56945991D01*
X76806213Y-56975884D01*
X76789213Y-57004247D01*
X76769515Y-57030807D01*
X76747308Y-57055308D01*
X76722807Y-57077515D01*
X76696247Y-57097213D01*
X76667884Y-57114213D01*
X76637991Y-57128351D01*
X76606857Y-57139491D01*
X76574781Y-57147525D01*
X76542071Y-57152377D01*
X76509044Y-57154000D01*
X75382956Y-57154000D01*
X75349929Y-57152377D01*
X75317219Y-57147525D01*
X75285143Y-57139491D01*
X75254009Y-57128351D01*
X75224116Y-57114213D01*
X75195753Y-57097213D01*
X75169193Y-57077515D01*
X75144692Y-57055308D01*
X75122485Y-57030807D01*
X75102787Y-57004247D01*
X75085787Y-56975884D01*
X75071649Y-56945991D01*
X75060509Y-56914857D01*
X75052475Y-56882781D01*
X75047623Y-56850071D01*
X75046000Y-56817044D01*
X75046000Y-55940956D01*
X75047623Y-55907929D01*
X75052475Y-55875219D01*
X75060509Y-55843143D01*
X75071649Y-55812009D01*
X75085787Y-55782116D01*
X75102787Y-55753753D01*
X75122485Y-55727193D01*
X75144692Y-55702692D01*
X75169193Y-55680485D01*
X75195753Y-55660787D01*
X75224116Y-55643787D01*
X75254009Y-55629649D01*
X75285143Y-55618509D01*
X75317219Y-55610475D01*
X75349929Y-55605623D01*
X75382956Y-55604000D01*
X76509044Y-55604000D01*
X76542071Y-55605623D01*
X76542071Y-55605623D01*
G37*
D20*
X75946000Y-56379000D03*
D11*
G36*
X76542071Y-57655623D02*
X76574781Y-57660475D01*
X76606857Y-57668509D01*
X76637991Y-57679649D01*
X76667884Y-57693787D01*
X76696247Y-57710787D01*
X76722807Y-57730485D01*
X76747308Y-57752692D01*
X76769515Y-57777193D01*
X76789213Y-57803753D01*
X76806213Y-57832116D01*
X76820351Y-57862009D01*
X76831491Y-57893143D01*
X76839525Y-57925219D01*
X76844377Y-57957929D01*
X76846000Y-57990956D01*
X76846000Y-58867044D01*
X76844377Y-58900071D01*
X76839525Y-58932781D01*
X76831491Y-58964857D01*
X76820351Y-58995991D01*
X76806213Y-59025884D01*
X76789213Y-59054247D01*
X76769515Y-59080807D01*
X76747308Y-59105308D01*
X76722807Y-59127515D01*
X76696247Y-59147213D01*
X76667884Y-59164213D01*
X76637991Y-59178351D01*
X76606857Y-59189491D01*
X76574781Y-59197525D01*
X76542071Y-59202377D01*
X76509044Y-59204000D01*
X75382956Y-59204000D01*
X75349929Y-59202377D01*
X75317219Y-59197525D01*
X75285143Y-59189491D01*
X75254009Y-59178351D01*
X75224116Y-59164213D01*
X75195753Y-59147213D01*
X75169193Y-59127515D01*
X75144692Y-59105308D01*
X75122485Y-59080807D01*
X75102787Y-59054247D01*
X75085787Y-59025884D01*
X75071649Y-58995991D01*
X75060509Y-58964857D01*
X75052475Y-58932781D01*
X75047623Y-58900071D01*
X75046000Y-58867044D01*
X75046000Y-57990956D01*
X75047623Y-57957929D01*
X75052475Y-57925219D01*
X75060509Y-57893143D01*
X75071649Y-57862009D01*
X75085787Y-57832116D01*
X75102787Y-57803753D01*
X75122485Y-57777193D01*
X75144692Y-57752692D01*
X75169193Y-57730485D01*
X75195753Y-57710787D01*
X75224116Y-57693787D01*
X75254009Y-57679649D01*
X75285143Y-57668509D01*
X75317219Y-57660475D01*
X75349929Y-57655623D01*
X75382956Y-57654000D01*
X76509044Y-57654000D01*
X76542071Y-57655623D01*
X76542071Y-57655623D01*
G37*
D20*
X75946000Y-58429000D03*
D11*
G36*
X25488071Y-55605623D02*
X25520781Y-55610475D01*
X25552857Y-55618509D01*
X25583991Y-55629649D01*
X25613884Y-55643787D01*
X25642247Y-55660787D01*
X25668807Y-55680485D01*
X25693308Y-55702692D01*
X25715515Y-55727193D01*
X25735213Y-55753753D01*
X25752213Y-55782116D01*
X25766351Y-55812009D01*
X25777491Y-55843143D01*
X25785525Y-55875219D01*
X25790377Y-55907929D01*
X25792000Y-55940956D01*
X25792000Y-56817044D01*
X25790377Y-56850071D01*
X25785525Y-56882781D01*
X25777491Y-56914857D01*
X25766351Y-56945991D01*
X25752213Y-56975884D01*
X25735213Y-57004247D01*
X25715515Y-57030807D01*
X25693308Y-57055308D01*
X25668807Y-57077515D01*
X25642247Y-57097213D01*
X25613884Y-57114213D01*
X25583991Y-57128351D01*
X25552857Y-57139491D01*
X25520781Y-57147525D01*
X25488071Y-57152377D01*
X25455044Y-57154000D01*
X24328956Y-57154000D01*
X24295929Y-57152377D01*
X24263219Y-57147525D01*
X24231143Y-57139491D01*
X24200009Y-57128351D01*
X24170116Y-57114213D01*
X24141753Y-57097213D01*
X24115193Y-57077515D01*
X24090692Y-57055308D01*
X24068485Y-57030807D01*
X24048787Y-57004247D01*
X24031787Y-56975884D01*
X24017649Y-56945991D01*
X24006509Y-56914857D01*
X23998475Y-56882781D01*
X23993623Y-56850071D01*
X23992000Y-56817044D01*
X23992000Y-55940956D01*
X23993623Y-55907929D01*
X23998475Y-55875219D01*
X24006509Y-55843143D01*
X24017649Y-55812009D01*
X24031787Y-55782116D01*
X24048787Y-55753753D01*
X24068485Y-55727193D01*
X24090692Y-55702692D01*
X24115193Y-55680485D01*
X24141753Y-55660787D01*
X24170116Y-55643787D01*
X24200009Y-55629649D01*
X24231143Y-55618509D01*
X24263219Y-55610475D01*
X24295929Y-55605623D01*
X24328956Y-55604000D01*
X25455044Y-55604000D01*
X25488071Y-55605623D01*
X25488071Y-55605623D01*
G37*
D20*
X24892000Y-56379000D03*
D11*
G36*
X25488071Y-57655623D02*
X25520781Y-57660475D01*
X25552857Y-57668509D01*
X25583991Y-57679649D01*
X25613884Y-57693787D01*
X25642247Y-57710787D01*
X25668807Y-57730485D01*
X25693308Y-57752692D01*
X25715515Y-57777193D01*
X25735213Y-57803753D01*
X25752213Y-57832116D01*
X25766351Y-57862009D01*
X25777491Y-57893143D01*
X25785525Y-57925219D01*
X25790377Y-57957929D01*
X25792000Y-57990956D01*
X25792000Y-58867044D01*
X25790377Y-58900071D01*
X25785525Y-58932781D01*
X25777491Y-58964857D01*
X25766351Y-58995991D01*
X25752213Y-59025884D01*
X25735213Y-59054247D01*
X25715515Y-59080807D01*
X25693308Y-59105308D01*
X25668807Y-59127515D01*
X25642247Y-59147213D01*
X25613884Y-59164213D01*
X25583991Y-59178351D01*
X25552857Y-59189491D01*
X25520781Y-59197525D01*
X25488071Y-59202377D01*
X25455044Y-59204000D01*
X24328956Y-59204000D01*
X24295929Y-59202377D01*
X24263219Y-59197525D01*
X24231143Y-59189491D01*
X24200009Y-59178351D01*
X24170116Y-59164213D01*
X24141753Y-59147213D01*
X24115193Y-59127515D01*
X24090692Y-59105308D01*
X24068485Y-59080807D01*
X24048787Y-59054247D01*
X24031787Y-59025884D01*
X24017649Y-58995991D01*
X24006509Y-58964857D01*
X23998475Y-58932781D01*
X23993623Y-58900071D01*
X23992000Y-58867044D01*
X23992000Y-57990956D01*
X23993623Y-57957929D01*
X23998475Y-57925219D01*
X24006509Y-57893143D01*
X24017649Y-57862009D01*
X24031787Y-57832116D01*
X24048787Y-57803753D01*
X24068485Y-57777193D01*
X24090692Y-57752692D01*
X24115193Y-57730485D01*
X24141753Y-57710787D01*
X24170116Y-57693787D01*
X24200009Y-57679649D01*
X24231143Y-57668509D01*
X24263219Y-57660475D01*
X24295929Y-57655623D01*
X24328956Y-57654000D01*
X25455044Y-57654000D01*
X25488071Y-57655623D01*
X25488071Y-57655623D01*
G37*
D20*
X24892000Y-58429000D03*
D11*
G36*
X25742071Y-78201623D02*
X25774781Y-78206475D01*
X25806857Y-78214509D01*
X25837991Y-78225649D01*
X25867884Y-78239787D01*
X25896247Y-78256787D01*
X25922807Y-78276485D01*
X25947308Y-78298692D01*
X25969515Y-78323193D01*
X25989213Y-78349753D01*
X26006213Y-78378116D01*
X26020351Y-78408009D01*
X26031491Y-78439143D01*
X26039525Y-78471219D01*
X26044377Y-78503929D01*
X26046000Y-78536956D01*
X26046000Y-79413044D01*
X26044377Y-79446071D01*
X26039525Y-79478781D01*
X26031491Y-79510857D01*
X26020351Y-79541991D01*
X26006213Y-79571884D01*
X25989213Y-79600247D01*
X25969515Y-79626807D01*
X25947308Y-79651308D01*
X25922807Y-79673515D01*
X25896247Y-79693213D01*
X25867884Y-79710213D01*
X25837991Y-79724351D01*
X25806857Y-79735491D01*
X25774781Y-79743525D01*
X25742071Y-79748377D01*
X25709044Y-79750000D01*
X24582956Y-79750000D01*
X24549929Y-79748377D01*
X24517219Y-79743525D01*
X24485143Y-79735491D01*
X24454009Y-79724351D01*
X24424116Y-79710213D01*
X24395753Y-79693213D01*
X24369193Y-79673515D01*
X24344692Y-79651308D01*
X24322485Y-79626807D01*
X24302787Y-79600247D01*
X24285787Y-79571884D01*
X24271649Y-79541991D01*
X24260509Y-79510857D01*
X24252475Y-79478781D01*
X24247623Y-79446071D01*
X24246000Y-79413044D01*
X24246000Y-78536956D01*
X24247623Y-78503929D01*
X24252475Y-78471219D01*
X24260509Y-78439143D01*
X24271649Y-78408009D01*
X24285787Y-78378116D01*
X24302787Y-78349753D01*
X24322485Y-78323193D01*
X24344692Y-78298692D01*
X24369193Y-78276485D01*
X24395753Y-78256787D01*
X24424116Y-78239787D01*
X24454009Y-78225649D01*
X24485143Y-78214509D01*
X24517219Y-78206475D01*
X24549929Y-78201623D01*
X24582956Y-78200000D01*
X25709044Y-78200000D01*
X25742071Y-78201623D01*
X25742071Y-78201623D01*
G37*
D20*
X25146000Y-78975000D03*
D11*
G36*
X25742071Y-80251623D02*
X25774781Y-80256475D01*
X25806857Y-80264509D01*
X25837991Y-80275649D01*
X25867884Y-80289787D01*
X25896247Y-80306787D01*
X25922807Y-80326485D01*
X25947308Y-80348692D01*
X25969515Y-80373193D01*
X25989213Y-80399753D01*
X26006213Y-80428116D01*
X26020351Y-80458009D01*
X26031491Y-80489143D01*
X26039525Y-80521219D01*
X26044377Y-80553929D01*
X26046000Y-80586956D01*
X26046000Y-81463044D01*
X26044377Y-81496071D01*
X26039525Y-81528781D01*
X26031491Y-81560857D01*
X26020351Y-81591991D01*
X26006213Y-81621884D01*
X25989213Y-81650247D01*
X25969515Y-81676807D01*
X25947308Y-81701308D01*
X25922807Y-81723515D01*
X25896247Y-81743213D01*
X25867884Y-81760213D01*
X25837991Y-81774351D01*
X25806857Y-81785491D01*
X25774781Y-81793525D01*
X25742071Y-81798377D01*
X25709044Y-81800000D01*
X24582956Y-81800000D01*
X24549929Y-81798377D01*
X24517219Y-81793525D01*
X24485143Y-81785491D01*
X24454009Y-81774351D01*
X24424116Y-81760213D01*
X24395753Y-81743213D01*
X24369193Y-81723515D01*
X24344692Y-81701308D01*
X24322485Y-81676807D01*
X24302787Y-81650247D01*
X24285787Y-81621884D01*
X24271649Y-81591991D01*
X24260509Y-81560857D01*
X24252475Y-81528781D01*
X24247623Y-81496071D01*
X24246000Y-81463044D01*
X24246000Y-80586956D01*
X24247623Y-80553929D01*
X24252475Y-80521219D01*
X24260509Y-80489143D01*
X24271649Y-80458009D01*
X24285787Y-80428116D01*
X24302787Y-80399753D01*
X24322485Y-80373193D01*
X24344692Y-80348692D01*
X24369193Y-80326485D01*
X24395753Y-80306787D01*
X24424116Y-80289787D01*
X24454009Y-80275649D01*
X24485143Y-80264509D01*
X24517219Y-80256475D01*
X24549929Y-80251623D01*
X24582956Y-80250000D01*
X25709044Y-80250000D01*
X25742071Y-80251623D01*
X25742071Y-80251623D01*
G37*
D20*
X25146000Y-81025000D03*
D11*
G36*
X76542071Y-77957623D02*
X76574781Y-77962475D01*
X76606857Y-77970509D01*
X76637991Y-77981649D01*
X76667884Y-77995787D01*
X76696247Y-78012787D01*
X76722807Y-78032485D01*
X76747308Y-78054692D01*
X76769515Y-78079193D01*
X76789213Y-78105753D01*
X76806213Y-78134116D01*
X76820351Y-78164009D01*
X76831491Y-78195143D01*
X76839525Y-78227219D01*
X76844377Y-78259929D01*
X76846000Y-78292956D01*
X76846000Y-79169044D01*
X76844377Y-79202071D01*
X76839525Y-79234781D01*
X76831491Y-79266857D01*
X76820351Y-79297991D01*
X76806213Y-79327884D01*
X76789213Y-79356247D01*
X76769515Y-79382807D01*
X76747308Y-79407308D01*
X76722807Y-79429515D01*
X76696247Y-79449213D01*
X76667884Y-79466213D01*
X76637991Y-79480351D01*
X76606857Y-79491491D01*
X76574781Y-79499525D01*
X76542071Y-79504377D01*
X76509044Y-79506000D01*
X75382956Y-79506000D01*
X75349929Y-79504377D01*
X75317219Y-79499525D01*
X75285143Y-79491491D01*
X75254009Y-79480351D01*
X75224116Y-79466213D01*
X75195753Y-79449213D01*
X75169193Y-79429515D01*
X75144692Y-79407308D01*
X75122485Y-79382807D01*
X75102787Y-79356247D01*
X75085787Y-79327884D01*
X75071649Y-79297991D01*
X75060509Y-79266857D01*
X75052475Y-79234781D01*
X75047623Y-79202071D01*
X75046000Y-79169044D01*
X75046000Y-78292956D01*
X75047623Y-78259929D01*
X75052475Y-78227219D01*
X75060509Y-78195143D01*
X75071649Y-78164009D01*
X75085787Y-78134116D01*
X75102787Y-78105753D01*
X75122485Y-78079193D01*
X75144692Y-78054692D01*
X75169193Y-78032485D01*
X75195753Y-78012787D01*
X75224116Y-77995787D01*
X75254009Y-77981649D01*
X75285143Y-77970509D01*
X75317219Y-77962475D01*
X75349929Y-77957623D01*
X75382956Y-77956000D01*
X76509044Y-77956000D01*
X76542071Y-77957623D01*
X76542071Y-77957623D01*
G37*
D20*
X75946000Y-78731000D03*
D11*
G36*
X76542071Y-80007623D02*
X76574781Y-80012475D01*
X76606857Y-80020509D01*
X76637991Y-80031649D01*
X76667884Y-80045787D01*
X76696247Y-80062787D01*
X76722807Y-80082485D01*
X76747308Y-80104692D01*
X76769515Y-80129193D01*
X76789213Y-80155753D01*
X76806213Y-80184116D01*
X76820351Y-80214009D01*
X76831491Y-80245143D01*
X76839525Y-80277219D01*
X76844377Y-80309929D01*
X76846000Y-80342956D01*
X76846000Y-81219044D01*
X76844377Y-81252071D01*
X76839525Y-81284781D01*
X76831491Y-81316857D01*
X76820351Y-81347991D01*
X76806213Y-81377884D01*
X76789213Y-81406247D01*
X76769515Y-81432807D01*
X76747308Y-81457308D01*
X76722807Y-81479515D01*
X76696247Y-81499213D01*
X76667884Y-81516213D01*
X76637991Y-81530351D01*
X76606857Y-81541491D01*
X76574781Y-81549525D01*
X76542071Y-81554377D01*
X76509044Y-81556000D01*
X75382956Y-81556000D01*
X75349929Y-81554377D01*
X75317219Y-81549525D01*
X75285143Y-81541491D01*
X75254009Y-81530351D01*
X75224116Y-81516213D01*
X75195753Y-81499213D01*
X75169193Y-81479515D01*
X75144692Y-81457308D01*
X75122485Y-81432807D01*
X75102787Y-81406247D01*
X75085787Y-81377884D01*
X75071649Y-81347991D01*
X75060509Y-81316857D01*
X75052475Y-81284781D01*
X75047623Y-81252071D01*
X75046000Y-81219044D01*
X75046000Y-80342956D01*
X75047623Y-80309929D01*
X75052475Y-80277219D01*
X75060509Y-80245143D01*
X75071649Y-80214009D01*
X75085787Y-80184116D01*
X75102787Y-80155753D01*
X75122485Y-80129193D01*
X75144692Y-80104692D01*
X75169193Y-80082485D01*
X75195753Y-80062787D01*
X75224116Y-80045787D01*
X75254009Y-80031649D01*
X75285143Y-80020509D01*
X75317219Y-80012475D01*
X75349929Y-80007623D01*
X75382956Y-80006000D01*
X76509044Y-80006000D01*
X76542071Y-80007623D01*
X76542071Y-80007623D01*
G37*
D20*
X75946000Y-80781000D03*
D11*
G36*
X40220071Y-77957623D02*
X40252781Y-77962475D01*
X40284857Y-77970509D01*
X40315991Y-77981649D01*
X40345884Y-77995787D01*
X40374247Y-78012787D01*
X40400807Y-78032485D01*
X40425308Y-78054692D01*
X40447515Y-78079193D01*
X40467213Y-78105753D01*
X40484213Y-78134116D01*
X40498351Y-78164009D01*
X40509491Y-78195143D01*
X40517525Y-78227219D01*
X40522377Y-78259929D01*
X40524000Y-78292956D01*
X40524000Y-79169044D01*
X40522377Y-79202071D01*
X40517525Y-79234781D01*
X40509491Y-79266857D01*
X40498351Y-79297991D01*
X40484213Y-79327884D01*
X40467213Y-79356247D01*
X40447515Y-79382807D01*
X40425308Y-79407308D01*
X40400807Y-79429515D01*
X40374247Y-79449213D01*
X40345884Y-79466213D01*
X40315991Y-79480351D01*
X40284857Y-79491491D01*
X40252781Y-79499525D01*
X40220071Y-79504377D01*
X40187044Y-79506000D01*
X39060956Y-79506000D01*
X39027929Y-79504377D01*
X38995219Y-79499525D01*
X38963143Y-79491491D01*
X38932009Y-79480351D01*
X38902116Y-79466213D01*
X38873753Y-79449213D01*
X38847193Y-79429515D01*
X38822692Y-79407308D01*
X38800485Y-79382807D01*
X38780787Y-79356247D01*
X38763787Y-79327884D01*
X38749649Y-79297991D01*
X38738509Y-79266857D01*
X38730475Y-79234781D01*
X38725623Y-79202071D01*
X38724000Y-79169044D01*
X38724000Y-78292956D01*
X38725623Y-78259929D01*
X38730475Y-78227219D01*
X38738509Y-78195143D01*
X38749649Y-78164009D01*
X38763787Y-78134116D01*
X38780787Y-78105753D01*
X38800485Y-78079193D01*
X38822692Y-78054692D01*
X38847193Y-78032485D01*
X38873753Y-78012787D01*
X38902116Y-77995787D01*
X38932009Y-77981649D01*
X38963143Y-77970509D01*
X38995219Y-77962475D01*
X39027929Y-77957623D01*
X39060956Y-77956000D01*
X40187044Y-77956000D01*
X40220071Y-77957623D01*
X40220071Y-77957623D01*
G37*
D20*
X39624000Y-78731000D03*
D11*
G36*
X40220071Y-80007623D02*
X40252781Y-80012475D01*
X40284857Y-80020509D01*
X40315991Y-80031649D01*
X40345884Y-80045787D01*
X40374247Y-80062787D01*
X40400807Y-80082485D01*
X40425308Y-80104692D01*
X40447515Y-80129193D01*
X40467213Y-80155753D01*
X40484213Y-80184116D01*
X40498351Y-80214009D01*
X40509491Y-80245143D01*
X40517525Y-80277219D01*
X40522377Y-80309929D01*
X40524000Y-80342956D01*
X40524000Y-81219044D01*
X40522377Y-81252071D01*
X40517525Y-81284781D01*
X40509491Y-81316857D01*
X40498351Y-81347991D01*
X40484213Y-81377884D01*
X40467213Y-81406247D01*
X40447515Y-81432807D01*
X40425308Y-81457308D01*
X40400807Y-81479515D01*
X40374247Y-81499213D01*
X40345884Y-81516213D01*
X40315991Y-81530351D01*
X40284857Y-81541491D01*
X40252781Y-81549525D01*
X40220071Y-81554377D01*
X40187044Y-81556000D01*
X39060956Y-81556000D01*
X39027929Y-81554377D01*
X38995219Y-81549525D01*
X38963143Y-81541491D01*
X38932009Y-81530351D01*
X38902116Y-81516213D01*
X38873753Y-81499213D01*
X38847193Y-81479515D01*
X38822692Y-81457308D01*
X38800485Y-81432807D01*
X38780787Y-81406247D01*
X38763787Y-81377884D01*
X38749649Y-81347991D01*
X38738509Y-81316857D01*
X38730475Y-81284781D01*
X38725623Y-81252071D01*
X38724000Y-81219044D01*
X38724000Y-80342956D01*
X38725623Y-80309929D01*
X38730475Y-80277219D01*
X38738509Y-80245143D01*
X38749649Y-80214009D01*
X38763787Y-80184116D01*
X38780787Y-80155753D01*
X38800485Y-80129193D01*
X38822692Y-80104692D01*
X38847193Y-80082485D01*
X38873753Y-80062787D01*
X38902116Y-80045787D01*
X38932009Y-80031649D01*
X38963143Y-80020509D01*
X38995219Y-80012475D01*
X39027929Y-80007623D01*
X39060956Y-80006000D01*
X40187044Y-80006000D01*
X40220071Y-80007623D01*
X40220071Y-80007623D01*
G37*
D20*
X39624000Y-80781000D03*
D11*
G36*
X39966071Y-57909623D02*
X39998781Y-57914475D01*
X40030857Y-57922509D01*
X40061991Y-57933649D01*
X40091884Y-57947787D01*
X40120247Y-57964787D01*
X40146807Y-57984485D01*
X40171308Y-58006692D01*
X40193515Y-58031193D01*
X40213213Y-58057753D01*
X40230213Y-58086116D01*
X40244351Y-58116009D01*
X40255491Y-58147143D01*
X40263525Y-58179219D01*
X40268377Y-58211929D01*
X40270000Y-58244956D01*
X40270000Y-59121044D01*
X40268377Y-59154071D01*
X40263525Y-59186781D01*
X40255491Y-59218857D01*
X40244351Y-59249991D01*
X40230213Y-59279884D01*
X40213213Y-59308247D01*
X40193515Y-59334807D01*
X40171308Y-59359308D01*
X40146807Y-59381515D01*
X40120247Y-59401213D01*
X40091884Y-59418213D01*
X40061991Y-59432351D01*
X40030857Y-59443491D01*
X39998781Y-59451525D01*
X39966071Y-59456377D01*
X39933044Y-59458000D01*
X38806956Y-59458000D01*
X38773929Y-59456377D01*
X38741219Y-59451525D01*
X38709143Y-59443491D01*
X38678009Y-59432351D01*
X38648116Y-59418213D01*
X38619753Y-59401213D01*
X38593193Y-59381515D01*
X38568692Y-59359308D01*
X38546485Y-59334807D01*
X38526787Y-59308247D01*
X38509787Y-59279884D01*
X38495649Y-59249991D01*
X38484509Y-59218857D01*
X38476475Y-59186781D01*
X38471623Y-59154071D01*
X38470000Y-59121044D01*
X38470000Y-58244956D01*
X38471623Y-58211929D01*
X38476475Y-58179219D01*
X38484509Y-58147143D01*
X38495649Y-58116009D01*
X38509787Y-58086116D01*
X38526787Y-58057753D01*
X38546485Y-58031193D01*
X38568692Y-58006692D01*
X38593193Y-57984485D01*
X38619753Y-57964787D01*
X38648116Y-57947787D01*
X38678009Y-57933649D01*
X38709143Y-57922509D01*
X38741219Y-57914475D01*
X38773929Y-57909623D01*
X38806956Y-57908000D01*
X39933044Y-57908000D01*
X39966071Y-57909623D01*
X39966071Y-57909623D01*
G37*
D20*
X39370000Y-58683000D03*
D11*
G36*
X39966071Y-55859623D02*
X39998781Y-55864475D01*
X40030857Y-55872509D01*
X40061991Y-55883649D01*
X40091884Y-55897787D01*
X40120247Y-55914787D01*
X40146807Y-55934485D01*
X40171308Y-55956692D01*
X40193515Y-55981193D01*
X40213213Y-56007753D01*
X40230213Y-56036116D01*
X40244351Y-56066009D01*
X40255491Y-56097143D01*
X40263525Y-56129219D01*
X40268377Y-56161929D01*
X40270000Y-56194956D01*
X40270000Y-57071044D01*
X40268377Y-57104071D01*
X40263525Y-57136781D01*
X40255491Y-57168857D01*
X40244351Y-57199991D01*
X40230213Y-57229884D01*
X40213213Y-57258247D01*
X40193515Y-57284807D01*
X40171308Y-57309308D01*
X40146807Y-57331515D01*
X40120247Y-57351213D01*
X40091884Y-57368213D01*
X40061991Y-57382351D01*
X40030857Y-57393491D01*
X39998781Y-57401525D01*
X39966071Y-57406377D01*
X39933044Y-57408000D01*
X38806956Y-57408000D01*
X38773929Y-57406377D01*
X38741219Y-57401525D01*
X38709143Y-57393491D01*
X38678009Y-57382351D01*
X38648116Y-57368213D01*
X38619753Y-57351213D01*
X38593193Y-57331515D01*
X38568692Y-57309308D01*
X38546485Y-57284807D01*
X38526787Y-57258247D01*
X38509787Y-57229884D01*
X38495649Y-57199991D01*
X38484509Y-57168857D01*
X38476475Y-57136781D01*
X38471623Y-57104071D01*
X38470000Y-57071044D01*
X38470000Y-56194956D01*
X38471623Y-56161929D01*
X38476475Y-56129219D01*
X38484509Y-56097143D01*
X38495649Y-56066009D01*
X38509787Y-56036116D01*
X38526787Y-56007753D01*
X38546485Y-55981193D01*
X38568692Y-55956692D01*
X38593193Y-55934485D01*
X38619753Y-55914787D01*
X38648116Y-55897787D01*
X38678009Y-55883649D01*
X38709143Y-55872509D01*
X38741219Y-55864475D01*
X38773929Y-55859623D01*
X38806956Y-55858000D01*
X39933044Y-55858000D01*
X39966071Y-55859623D01*
X39966071Y-55859623D01*
G37*
D20*
X39370000Y-56633000D03*
D11*
G36*
X91020071Y-55605623D02*
X91052781Y-55610475D01*
X91084857Y-55618509D01*
X91115991Y-55629649D01*
X91145884Y-55643787D01*
X91174247Y-55660787D01*
X91200807Y-55680485D01*
X91225308Y-55702692D01*
X91247515Y-55727193D01*
X91267213Y-55753753D01*
X91284213Y-55782116D01*
X91298351Y-55812009D01*
X91309491Y-55843143D01*
X91317525Y-55875219D01*
X91322377Y-55907929D01*
X91324000Y-55940956D01*
X91324000Y-56817044D01*
X91322377Y-56850071D01*
X91317525Y-56882781D01*
X91309491Y-56914857D01*
X91298351Y-56945991D01*
X91284213Y-56975884D01*
X91267213Y-57004247D01*
X91247515Y-57030807D01*
X91225308Y-57055308D01*
X91200807Y-57077515D01*
X91174247Y-57097213D01*
X91145884Y-57114213D01*
X91115991Y-57128351D01*
X91084857Y-57139491D01*
X91052781Y-57147525D01*
X91020071Y-57152377D01*
X90987044Y-57154000D01*
X89860956Y-57154000D01*
X89827929Y-57152377D01*
X89795219Y-57147525D01*
X89763143Y-57139491D01*
X89732009Y-57128351D01*
X89702116Y-57114213D01*
X89673753Y-57097213D01*
X89647193Y-57077515D01*
X89622692Y-57055308D01*
X89600485Y-57030807D01*
X89580787Y-57004247D01*
X89563787Y-56975884D01*
X89549649Y-56945991D01*
X89538509Y-56914857D01*
X89530475Y-56882781D01*
X89525623Y-56850071D01*
X89524000Y-56817044D01*
X89524000Y-55940956D01*
X89525623Y-55907929D01*
X89530475Y-55875219D01*
X89538509Y-55843143D01*
X89549649Y-55812009D01*
X89563787Y-55782116D01*
X89580787Y-55753753D01*
X89600485Y-55727193D01*
X89622692Y-55702692D01*
X89647193Y-55680485D01*
X89673753Y-55660787D01*
X89702116Y-55643787D01*
X89732009Y-55629649D01*
X89763143Y-55618509D01*
X89795219Y-55610475D01*
X89827929Y-55605623D01*
X89860956Y-55604000D01*
X90987044Y-55604000D01*
X91020071Y-55605623D01*
X91020071Y-55605623D01*
G37*
D20*
X90424000Y-56379000D03*
D11*
G36*
X91020071Y-57655623D02*
X91052781Y-57660475D01*
X91084857Y-57668509D01*
X91115991Y-57679649D01*
X91145884Y-57693787D01*
X91174247Y-57710787D01*
X91200807Y-57730485D01*
X91225308Y-57752692D01*
X91247515Y-57777193D01*
X91267213Y-57803753D01*
X91284213Y-57832116D01*
X91298351Y-57862009D01*
X91309491Y-57893143D01*
X91317525Y-57925219D01*
X91322377Y-57957929D01*
X91324000Y-57990956D01*
X91324000Y-58867044D01*
X91322377Y-58900071D01*
X91317525Y-58932781D01*
X91309491Y-58964857D01*
X91298351Y-58995991D01*
X91284213Y-59025884D01*
X91267213Y-59054247D01*
X91247515Y-59080807D01*
X91225308Y-59105308D01*
X91200807Y-59127515D01*
X91174247Y-59147213D01*
X91145884Y-59164213D01*
X91115991Y-59178351D01*
X91084857Y-59189491D01*
X91052781Y-59197525D01*
X91020071Y-59202377D01*
X90987044Y-59204000D01*
X89860956Y-59204000D01*
X89827929Y-59202377D01*
X89795219Y-59197525D01*
X89763143Y-59189491D01*
X89732009Y-59178351D01*
X89702116Y-59164213D01*
X89673753Y-59147213D01*
X89647193Y-59127515D01*
X89622692Y-59105308D01*
X89600485Y-59080807D01*
X89580787Y-59054247D01*
X89563787Y-59025884D01*
X89549649Y-58995991D01*
X89538509Y-58964857D01*
X89530475Y-58932781D01*
X89525623Y-58900071D01*
X89524000Y-58867044D01*
X89524000Y-57990956D01*
X89525623Y-57957929D01*
X89530475Y-57925219D01*
X89538509Y-57893143D01*
X89549649Y-57862009D01*
X89563787Y-57832116D01*
X89580787Y-57803753D01*
X89600485Y-57777193D01*
X89622692Y-57752692D01*
X89647193Y-57730485D01*
X89673753Y-57710787D01*
X89702116Y-57693787D01*
X89732009Y-57679649D01*
X89763143Y-57668509D01*
X89795219Y-57660475D01*
X89827929Y-57655623D01*
X89860956Y-57654000D01*
X90987044Y-57654000D01*
X91020071Y-57655623D01*
X91020071Y-57655623D01*
G37*
D20*
X90424000Y-58429000D03*
D11*
G36*
X61810071Y-80261623D02*
X61842781Y-80266475D01*
X61874857Y-80274509D01*
X61905991Y-80285649D01*
X61935884Y-80299787D01*
X61964247Y-80316787D01*
X61990807Y-80336485D01*
X62015308Y-80358692D01*
X62037515Y-80383193D01*
X62057213Y-80409753D01*
X62074213Y-80438116D01*
X62088351Y-80468009D01*
X62099491Y-80499143D01*
X62107525Y-80531219D01*
X62112377Y-80563929D01*
X62114000Y-80596956D01*
X62114000Y-81473044D01*
X62112377Y-81506071D01*
X62107525Y-81538781D01*
X62099491Y-81570857D01*
X62088351Y-81601991D01*
X62074213Y-81631884D01*
X62057213Y-81660247D01*
X62037515Y-81686807D01*
X62015308Y-81711308D01*
X61990807Y-81733515D01*
X61964247Y-81753213D01*
X61935884Y-81770213D01*
X61905991Y-81784351D01*
X61874857Y-81795491D01*
X61842781Y-81803525D01*
X61810071Y-81808377D01*
X61777044Y-81810000D01*
X60650956Y-81810000D01*
X60617929Y-81808377D01*
X60585219Y-81803525D01*
X60553143Y-81795491D01*
X60522009Y-81784351D01*
X60492116Y-81770213D01*
X60463753Y-81753213D01*
X60437193Y-81733515D01*
X60412692Y-81711308D01*
X60390485Y-81686807D01*
X60370787Y-81660247D01*
X60353787Y-81631884D01*
X60339649Y-81601991D01*
X60328509Y-81570857D01*
X60320475Y-81538781D01*
X60315623Y-81506071D01*
X60314000Y-81473044D01*
X60314000Y-80596956D01*
X60315623Y-80563929D01*
X60320475Y-80531219D01*
X60328509Y-80499143D01*
X60339649Y-80468009D01*
X60353787Y-80438116D01*
X60370787Y-80409753D01*
X60390485Y-80383193D01*
X60412692Y-80358692D01*
X60437193Y-80336485D01*
X60463753Y-80316787D01*
X60492116Y-80299787D01*
X60522009Y-80285649D01*
X60553143Y-80274509D01*
X60585219Y-80266475D01*
X60617929Y-80261623D01*
X60650956Y-80260000D01*
X61777044Y-80260000D01*
X61810071Y-80261623D01*
X61810071Y-80261623D01*
G37*
D20*
X61214000Y-81035000D03*
D11*
G36*
X61810071Y-78211623D02*
X61842781Y-78216475D01*
X61874857Y-78224509D01*
X61905991Y-78235649D01*
X61935884Y-78249787D01*
X61964247Y-78266787D01*
X61990807Y-78286485D01*
X62015308Y-78308692D01*
X62037515Y-78333193D01*
X62057213Y-78359753D01*
X62074213Y-78388116D01*
X62088351Y-78418009D01*
X62099491Y-78449143D01*
X62107525Y-78481219D01*
X62112377Y-78513929D01*
X62114000Y-78546956D01*
X62114000Y-79423044D01*
X62112377Y-79456071D01*
X62107525Y-79488781D01*
X62099491Y-79520857D01*
X62088351Y-79551991D01*
X62074213Y-79581884D01*
X62057213Y-79610247D01*
X62037515Y-79636807D01*
X62015308Y-79661308D01*
X61990807Y-79683515D01*
X61964247Y-79703213D01*
X61935884Y-79720213D01*
X61905991Y-79734351D01*
X61874857Y-79745491D01*
X61842781Y-79753525D01*
X61810071Y-79758377D01*
X61777044Y-79760000D01*
X60650956Y-79760000D01*
X60617929Y-79758377D01*
X60585219Y-79753525D01*
X60553143Y-79745491D01*
X60522009Y-79734351D01*
X60492116Y-79720213D01*
X60463753Y-79703213D01*
X60437193Y-79683515D01*
X60412692Y-79661308D01*
X60390485Y-79636807D01*
X60370787Y-79610247D01*
X60353787Y-79581884D01*
X60339649Y-79551991D01*
X60328509Y-79520857D01*
X60320475Y-79488781D01*
X60315623Y-79456071D01*
X60314000Y-79423044D01*
X60314000Y-78546956D01*
X60315623Y-78513929D01*
X60320475Y-78481219D01*
X60328509Y-78449143D01*
X60339649Y-78418009D01*
X60353787Y-78388116D01*
X60370787Y-78359753D01*
X60390485Y-78333193D01*
X60412692Y-78308692D01*
X60437193Y-78286485D01*
X60463753Y-78266787D01*
X60492116Y-78249787D01*
X60522009Y-78235649D01*
X60553143Y-78224509D01*
X60585219Y-78216475D01*
X60617929Y-78211623D01*
X60650956Y-78210000D01*
X61777044Y-78210000D01*
X61810071Y-78211623D01*
X61810071Y-78211623D01*
G37*
D20*
X61214000Y-78985000D03*
D11*
G36*
X25742071Y-84325623D02*
X25774781Y-84330475D01*
X25806857Y-84338509D01*
X25837991Y-84349649D01*
X25867884Y-84363787D01*
X25896247Y-84380787D01*
X25922807Y-84400485D01*
X25947308Y-84422692D01*
X25969515Y-84447193D01*
X25989213Y-84473753D01*
X26006213Y-84502116D01*
X26020351Y-84532009D01*
X26031491Y-84563143D01*
X26039525Y-84595219D01*
X26044377Y-84627929D01*
X26046000Y-84660956D01*
X26046000Y-85537044D01*
X26044377Y-85570071D01*
X26039525Y-85602781D01*
X26031491Y-85634857D01*
X26020351Y-85665991D01*
X26006213Y-85695884D01*
X25989213Y-85724247D01*
X25969515Y-85750807D01*
X25947308Y-85775308D01*
X25922807Y-85797515D01*
X25896247Y-85817213D01*
X25867884Y-85834213D01*
X25837991Y-85848351D01*
X25806857Y-85859491D01*
X25774781Y-85867525D01*
X25742071Y-85872377D01*
X25709044Y-85874000D01*
X24582956Y-85874000D01*
X24549929Y-85872377D01*
X24517219Y-85867525D01*
X24485143Y-85859491D01*
X24454009Y-85848351D01*
X24424116Y-85834213D01*
X24395753Y-85817213D01*
X24369193Y-85797515D01*
X24344692Y-85775308D01*
X24322485Y-85750807D01*
X24302787Y-85724247D01*
X24285787Y-85695884D01*
X24271649Y-85665991D01*
X24260509Y-85634857D01*
X24252475Y-85602781D01*
X24247623Y-85570071D01*
X24246000Y-85537044D01*
X24246000Y-84660956D01*
X24247623Y-84627929D01*
X24252475Y-84595219D01*
X24260509Y-84563143D01*
X24271649Y-84532009D01*
X24285787Y-84502116D01*
X24302787Y-84473753D01*
X24322485Y-84447193D01*
X24344692Y-84422692D01*
X24369193Y-84400485D01*
X24395753Y-84380787D01*
X24424116Y-84363787D01*
X24454009Y-84349649D01*
X24485143Y-84338509D01*
X24517219Y-84330475D01*
X24549929Y-84325623D01*
X24582956Y-84324000D01*
X25709044Y-84324000D01*
X25742071Y-84325623D01*
X25742071Y-84325623D01*
G37*
D20*
X25146000Y-85099000D03*
D11*
G36*
X25742071Y-82275623D02*
X25774781Y-82280475D01*
X25806857Y-82288509D01*
X25837991Y-82299649D01*
X25867884Y-82313787D01*
X25896247Y-82330787D01*
X25922807Y-82350485D01*
X25947308Y-82372692D01*
X25969515Y-82397193D01*
X25989213Y-82423753D01*
X26006213Y-82452116D01*
X26020351Y-82482009D01*
X26031491Y-82513143D01*
X26039525Y-82545219D01*
X26044377Y-82577929D01*
X26046000Y-82610956D01*
X26046000Y-83487044D01*
X26044377Y-83520071D01*
X26039525Y-83552781D01*
X26031491Y-83584857D01*
X26020351Y-83615991D01*
X26006213Y-83645884D01*
X25989213Y-83674247D01*
X25969515Y-83700807D01*
X25947308Y-83725308D01*
X25922807Y-83747515D01*
X25896247Y-83767213D01*
X25867884Y-83784213D01*
X25837991Y-83798351D01*
X25806857Y-83809491D01*
X25774781Y-83817525D01*
X25742071Y-83822377D01*
X25709044Y-83824000D01*
X24582956Y-83824000D01*
X24549929Y-83822377D01*
X24517219Y-83817525D01*
X24485143Y-83809491D01*
X24454009Y-83798351D01*
X24424116Y-83784213D01*
X24395753Y-83767213D01*
X24369193Y-83747515D01*
X24344692Y-83725308D01*
X24322485Y-83700807D01*
X24302787Y-83674247D01*
X24285787Y-83645884D01*
X24271649Y-83615991D01*
X24260509Y-83584857D01*
X24252475Y-83552781D01*
X24247623Y-83520071D01*
X24246000Y-83487044D01*
X24246000Y-82610956D01*
X24247623Y-82577929D01*
X24252475Y-82545219D01*
X24260509Y-82513143D01*
X24271649Y-82482009D01*
X24285787Y-82452116D01*
X24302787Y-82423753D01*
X24322485Y-82397193D01*
X24344692Y-82372692D01*
X24369193Y-82350485D01*
X24395753Y-82330787D01*
X24424116Y-82313787D01*
X24454009Y-82299649D01*
X24485143Y-82288509D01*
X24517219Y-82280475D01*
X24549929Y-82275623D01*
X24582956Y-82274000D01*
X25709044Y-82274000D01*
X25742071Y-82275623D01*
X25742071Y-82275623D01*
G37*
D20*
X25146000Y-83049000D03*
D11*
G36*
X76542071Y-82275623D02*
X76574781Y-82280475D01*
X76606857Y-82288509D01*
X76637991Y-82299649D01*
X76667884Y-82313787D01*
X76696247Y-82330787D01*
X76722807Y-82350485D01*
X76747308Y-82372692D01*
X76769515Y-82397193D01*
X76789213Y-82423753D01*
X76806213Y-82452116D01*
X76820351Y-82482009D01*
X76831491Y-82513143D01*
X76839525Y-82545219D01*
X76844377Y-82577929D01*
X76846000Y-82610956D01*
X76846000Y-83487044D01*
X76844377Y-83520071D01*
X76839525Y-83552781D01*
X76831491Y-83584857D01*
X76820351Y-83615991D01*
X76806213Y-83645884D01*
X76789213Y-83674247D01*
X76769515Y-83700807D01*
X76747308Y-83725308D01*
X76722807Y-83747515D01*
X76696247Y-83767213D01*
X76667884Y-83784213D01*
X76637991Y-83798351D01*
X76606857Y-83809491D01*
X76574781Y-83817525D01*
X76542071Y-83822377D01*
X76509044Y-83824000D01*
X75382956Y-83824000D01*
X75349929Y-83822377D01*
X75317219Y-83817525D01*
X75285143Y-83809491D01*
X75254009Y-83798351D01*
X75224116Y-83784213D01*
X75195753Y-83767213D01*
X75169193Y-83747515D01*
X75144692Y-83725308D01*
X75122485Y-83700807D01*
X75102787Y-83674247D01*
X75085787Y-83645884D01*
X75071649Y-83615991D01*
X75060509Y-83584857D01*
X75052475Y-83552781D01*
X75047623Y-83520071D01*
X75046000Y-83487044D01*
X75046000Y-82610956D01*
X75047623Y-82577929D01*
X75052475Y-82545219D01*
X75060509Y-82513143D01*
X75071649Y-82482009D01*
X75085787Y-82452116D01*
X75102787Y-82423753D01*
X75122485Y-82397193D01*
X75144692Y-82372692D01*
X75169193Y-82350485D01*
X75195753Y-82330787D01*
X75224116Y-82313787D01*
X75254009Y-82299649D01*
X75285143Y-82288509D01*
X75317219Y-82280475D01*
X75349929Y-82275623D01*
X75382956Y-82274000D01*
X76509044Y-82274000D01*
X76542071Y-82275623D01*
X76542071Y-82275623D01*
G37*
D20*
X75946000Y-83049000D03*
D11*
G36*
X76542071Y-84325623D02*
X76574781Y-84330475D01*
X76606857Y-84338509D01*
X76637991Y-84349649D01*
X76667884Y-84363787D01*
X76696247Y-84380787D01*
X76722807Y-84400485D01*
X76747308Y-84422692D01*
X76769515Y-84447193D01*
X76789213Y-84473753D01*
X76806213Y-84502116D01*
X76820351Y-84532009D01*
X76831491Y-84563143D01*
X76839525Y-84595219D01*
X76844377Y-84627929D01*
X76846000Y-84660956D01*
X76846000Y-85537044D01*
X76844377Y-85570071D01*
X76839525Y-85602781D01*
X76831491Y-85634857D01*
X76820351Y-85665991D01*
X76806213Y-85695884D01*
X76789213Y-85724247D01*
X76769515Y-85750807D01*
X76747308Y-85775308D01*
X76722807Y-85797515D01*
X76696247Y-85817213D01*
X76667884Y-85834213D01*
X76637991Y-85848351D01*
X76606857Y-85859491D01*
X76574781Y-85867525D01*
X76542071Y-85872377D01*
X76509044Y-85874000D01*
X75382956Y-85874000D01*
X75349929Y-85872377D01*
X75317219Y-85867525D01*
X75285143Y-85859491D01*
X75254009Y-85848351D01*
X75224116Y-85834213D01*
X75195753Y-85817213D01*
X75169193Y-85797515D01*
X75144692Y-85775308D01*
X75122485Y-85750807D01*
X75102787Y-85724247D01*
X75085787Y-85695884D01*
X75071649Y-85665991D01*
X75060509Y-85634857D01*
X75052475Y-85602781D01*
X75047623Y-85570071D01*
X75046000Y-85537044D01*
X75046000Y-84660956D01*
X75047623Y-84627929D01*
X75052475Y-84595219D01*
X75060509Y-84563143D01*
X75071649Y-84532009D01*
X75085787Y-84502116D01*
X75102787Y-84473753D01*
X75122485Y-84447193D01*
X75144692Y-84422692D01*
X75169193Y-84400485D01*
X75195753Y-84380787D01*
X75224116Y-84363787D01*
X75254009Y-84349649D01*
X75285143Y-84338509D01*
X75317219Y-84330475D01*
X75349929Y-84325623D01*
X75382956Y-84324000D01*
X76509044Y-84324000D01*
X76542071Y-84325623D01*
X76542071Y-84325623D01*
G37*
D20*
X75946000Y-85099000D03*
D11*
G36*
X61810071Y-84325623D02*
X61842781Y-84330475D01*
X61874857Y-84338509D01*
X61905991Y-84349649D01*
X61935884Y-84363787D01*
X61964247Y-84380787D01*
X61990807Y-84400485D01*
X62015308Y-84422692D01*
X62037515Y-84447193D01*
X62057213Y-84473753D01*
X62074213Y-84502116D01*
X62088351Y-84532009D01*
X62099491Y-84563143D01*
X62107525Y-84595219D01*
X62112377Y-84627929D01*
X62114000Y-84660956D01*
X62114000Y-85537044D01*
X62112377Y-85570071D01*
X62107525Y-85602781D01*
X62099491Y-85634857D01*
X62088351Y-85665991D01*
X62074213Y-85695884D01*
X62057213Y-85724247D01*
X62037515Y-85750807D01*
X62015308Y-85775308D01*
X61990807Y-85797515D01*
X61964247Y-85817213D01*
X61935884Y-85834213D01*
X61905991Y-85848351D01*
X61874857Y-85859491D01*
X61842781Y-85867525D01*
X61810071Y-85872377D01*
X61777044Y-85874000D01*
X60650956Y-85874000D01*
X60617929Y-85872377D01*
X60585219Y-85867525D01*
X60553143Y-85859491D01*
X60522009Y-85848351D01*
X60492116Y-85834213D01*
X60463753Y-85817213D01*
X60437193Y-85797515D01*
X60412692Y-85775308D01*
X60390485Y-85750807D01*
X60370787Y-85724247D01*
X60353787Y-85695884D01*
X60339649Y-85665991D01*
X60328509Y-85634857D01*
X60320475Y-85602781D01*
X60315623Y-85570071D01*
X60314000Y-85537044D01*
X60314000Y-84660956D01*
X60315623Y-84627929D01*
X60320475Y-84595219D01*
X60328509Y-84563143D01*
X60339649Y-84532009D01*
X60353787Y-84502116D01*
X60370787Y-84473753D01*
X60390485Y-84447193D01*
X60412692Y-84422692D01*
X60437193Y-84400485D01*
X60463753Y-84380787D01*
X60492116Y-84363787D01*
X60522009Y-84349649D01*
X60553143Y-84338509D01*
X60585219Y-84330475D01*
X60617929Y-84325623D01*
X60650956Y-84324000D01*
X61777044Y-84324000D01*
X61810071Y-84325623D01*
X61810071Y-84325623D01*
G37*
D20*
X61214000Y-85099000D03*
D11*
G36*
X61810071Y-82275623D02*
X61842781Y-82280475D01*
X61874857Y-82288509D01*
X61905991Y-82299649D01*
X61935884Y-82313787D01*
X61964247Y-82330787D01*
X61990807Y-82350485D01*
X62015308Y-82372692D01*
X62037515Y-82397193D01*
X62057213Y-82423753D01*
X62074213Y-82452116D01*
X62088351Y-82482009D01*
X62099491Y-82513143D01*
X62107525Y-82545219D01*
X62112377Y-82577929D01*
X62114000Y-82610956D01*
X62114000Y-83487044D01*
X62112377Y-83520071D01*
X62107525Y-83552781D01*
X62099491Y-83584857D01*
X62088351Y-83615991D01*
X62074213Y-83645884D01*
X62057213Y-83674247D01*
X62037515Y-83700807D01*
X62015308Y-83725308D01*
X61990807Y-83747515D01*
X61964247Y-83767213D01*
X61935884Y-83784213D01*
X61905991Y-83798351D01*
X61874857Y-83809491D01*
X61842781Y-83817525D01*
X61810071Y-83822377D01*
X61777044Y-83824000D01*
X60650956Y-83824000D01*
X60617929Y-83822377D01*
X60585219Y-83817525D01*
X60553143Y-83809491D01*
X60522009Y-83798351D01*
X60492116Y-83784213D01*
X60463753Y-83767213D01*
X60437193Y-83747515D01*
X60412692Y-83725308D01*
X60390485Y-83700807D01*
X60370787Y-83674247D01*
X60353787Y-83645884D01*
X60339649Y-83615991D01*
X60328509Y-83584857D01*
X60320475Y-83552781D01*
X60315623Y-83520071D01*
X60314000Y-83487044D01*
X60314000Y-82610956D01*
X60315623Y-82577929D01*
X60320475Y-82545219D01*
X60328509Y-82513143D01*
X60339649Y-82482009D01*
X60353787Y-82452116D01*
X60370787Y-82423753D01*
X60390485Y-82397193D01*
X60412692Y-82372692D01*
X60437193Y-82350485D01*
X60463753Y-82330787D01*
X60492116Y-82313787D01*
X60522009Y-82299649D01*
X60553143Y-82288509D01*
X60585219Y-82280475D01*
X60617929Y-82275623D01*
X60650956Y-82274000D01*
X61777044Y-82274000D01*
X61810071Y-82275623D01*
X61810071Y-82275623D01*
G37*
D20*
X61214000Y-83049000D03*
D11*
G36*
X21205121Y-12567520D02*
X21236857Y-12572228D01*
X21267978Y-12580023D01*
X21298185Y-12590832D01*
X21327187Y-12604549D01*
X21354706Y-12621042D01*
X21380475Y-12640154D01*
X21404246Y-12661700D01*
X21425792Y-12685471D01*
X21444904Y-12711240D01*
X21461397Y-12738759D01*
X21475114Y-12767761D01*
X21485923Y-12797968D01*
X21493718Y-12829089D01*
X21498426Y-12860825D01*
X21500000Y-12892869D01*
X21500000Y-13939023D01*
X21498426Y-13971067D01*
X21493718Y-14002803D01*
X21485923Y-14033924D01*
X21475114Y-14064131D01*
X21461397Y-14093133D01*
X21444904Y-14120652D01*
X21425792Y-14146421D01*
X21404246Y-14170192D01*
X21380475Y-14191738D01*
X21354706Y-14210850D01*
X21327187Y-14227343D01*
X21298185Y-14241060D01*
X21267978Y-14251869D01*
X21236857Y-14259664D01*
X21205121Y-14264372D01*
X21173077Y-14265946D01*
X18026923Y-14265946D01*
X17994879Y-14264372D01*
X17963143Y-14259664D01*
X17932022Y-14251869D01*
X17901815Y-14241060D01*
X17872813Y-14227343D01*
X17845294Y-14210850D01*
X17819525Y-14191738D01*
X17795754Y-14170192D01*
X17774208Y-14146421D01*
X17755096Y-14120652D01*
X17738603Y-14093133D01*
X17724886Y-14064131D01*
X17714077Y-14033924D01*
X17706282Y-14002803D01*
X17701574Y-13971067D01*
X17700000Y-13939023D01*
X17700000Y-12892869D01*
X17701574Y-12860825D01*
X17706282Y-12829089D01*
X17714077Y-12797968D01*
X17724886Y-12767761D01*
X17738603Y-12738759D01*
X17755096Y-12711240D01*
X17774208Y-12685471D01*
X17795754Y-12661700D01*
X17819525Y-12640154D01*
X17845294Y-12621042D01*
X17872813Y-12604549D01*
X17901815Y-12590832D01*
X17932022Y-12580023D01*
X17963143Y-12572228D01*
X17994879Y-12567520D01*
X18026923Y-12565946D01*
X21173077Y-12565946D01*
X21205121Y-12567520D01*
X21205121Y-12567520D01*
G37*
D15*
X19600000Y-13415946D03*
D11*
G36*
X21205121Y-17017520D02*
X21236857Y-17022228D01*
X21267978Y-17030023D01*
X21298185Y-17040832D01*
X21327187Y-17054549D01*
X21354706Y-17071042D01*
X21380475Y-17090154D01*
X21404246Y-17111700D01*
X21425792Y-17135471D01*
X21444904Y-17161240D01*
X21461397Y-17188759D01*
X21475114Y-17217761D01*
X21485923Y-17247968D01*
X21493718Y-17279089D01*
X21498426Y-17310825D01*
X21500000Y-17342869D01*
X21500000Y-18389023D01*
X21498426Y-18421067D01*
X21493718Y-18452803D01*
X21485923Y-18483924D01*
X21475114Y-18514131D01*
X21461397Y-18543133D01*
X21444904Y-18570652D01*
X21425792Y-18596421D01*
X21404246Y-18620192D01*
X21380475Y-18641738D01*
X21354706Y-18660850D01*
X21327187Y-18677343D01*
X21298185Y-18691060D01*
X21267978Y-18701869D01*
X21236857Y-18709664D01*
X21205121Y-18714372D01*
X21173077Y-18715946D01*
X18026923Y-18715946D01*
X17994879Y-18714372D01*
X17963143Y-18709664D01*
X17932022Y-18701869D01*
X17901815Y-18691060D01*
X17872813Y-18677343D01*
X17845294Y-18660850D01*
X17819525Y-18641738D01*
X17795754Y-18620192D01*
X17774208Y-18596421D01*
X17755096Y-18570652D01*
X17738603Y-18543133D01*
X17724886Y-18514131D01*
X17714077Y-18483924D01*
X17706282Y-18452803D01*
X17701574Y-18421067D01*
X17700000Y-18389023D01*
X17700000Y-17342869D01*
X17701574Y-17310825D01*
X17706282Y-17279089D01*
X17714077Y-17247968D01*
X17724886Y-17217761D01*
X17738603Y-17188759D01*
X17755096Y-17161240D01*
X17774208Y-17135471D01*
X17795754Y-17111700D01*
X17819525Y-17090154D01*
X17845294Y-17071042D01*
X17872813Y-17054549D01*
X17901815Y-17040832D01*
X17932022Y-17030023D01*
X17963143Y-17022228D01*
X17994879Y-17017520D01*
X18026923Y-17015946D01*
X21173077Y-17015946D01*
X21205121Y-17017520D01*
X21205121Y-17017520D01*
G37*
D15*
X19600000Y-17865946D03*
D23*
X56539740Y-28499100D03*
X56539740Y-17500900D03*
X50540260Y-28499100D03*
X50540260Y-17500900D03*
X68269740Y-28499100D03*
X68269740Y-17500900D03*
X62270260Y-28499100D03*
X62270260Y-17500900D03*
X38000260Y-17500900D03*
X38000260Y-28499100D03*
X43999740Y-17500900D03*
X43999740Y-28499100D03*
D24*
X77000000Y-6000000D03*
D25*
X82000000Y-6000000D03*
X93000000Y-6000000D03*
D24*
X88000000Y-6000000D03*
D26*
X94000000Y-23000000D03*
D27*
X94000000Y-18000000D03*
D25*
X14000000Y-5816585D03*
D24*
X9000000Y-5816585D03*
X4000000Y-5816585D03*
X20553224Y-5816585D03*
X25553224Y-5816585D03*
D25*
X30553224Y-5816585D03*
D26*
X94000000Y-39000000D03*
D27*
X94000000Y-34000000D03*
X94000000Y-29000000D03*
D19*
X28000000Y-16700000D03*
X25950000Y-24200000D03*
X22796854Y-16700000D03*
X20746854Y-24200000D03*
D28*
X51000000Y-3000000D03*
D29*
X53540000Y-3000000D03*
X56080000Y-3000000D03*
D28*
X62730000Y-3000000D03*
D29*
X65270000Y-3000000D03*
X67810000Y-3000000D03*
X43540000Y-3000000D03*
X41000000Y-3000000D03*
D28*
X38460000Y-3000000D03*
D30*
X34000000Y-15840000D03*
D31*
X34000000Y-26000000D03*
X73324696Y-41089161D03*
D30*
X73324696Y-30929161D03*
D31*
X16000000Y-16000000D03*
D30*
X16000000Y-26160000D03*
D11*
G36*
X98496071Y-5101623D02*
X98528781Y-5106475D01*
X98560857Y-5114509D01*
X98591991Y-5125649D01*
X98621884Y-5139787D01*
X98650247Y-5156787D01*
X98676807Y-5176485D01*
X98701308Y-5198692D01*
X98723515Y-5223193D01*
X98743213Y-5249753D01*
X98760213Y-5278116D01*
X98774351Y-5308009D01*
X98785491Y-5339143D01*
X98793525Y-5371219D01*
X98798377Y-5403929D01*
X98800000Y-5436956D01*
X98800000Y-6563044D01*
X98798377Y-6596071D01*
X98793525Y-6628781D01*
X98785491Y-6660857D01*
X98774351Y-6691991D01*
X98760213Y-6721884D01*
X98743213Y-6750247D01*
X98723515Y-6776807D01*
X98701308Y-6801308D01*
X98676807Y-6823515D01*
X98650247Y-6843213D01*
X98621884Y-6860213D01*
X98591991Y-6874351D01*
X98560857Y-6885491D01*
X98528781Y-6893525D01*
X98496071Y-6898377D01*
X98463044Y-6900000D01*
X97586956Y-6900000D01*
X97553929Y-6898377D01*
X97521219Y-6893525D01*
X97489143Y-6885491D01*
X97458009Y-6874351D01*
X97428116Y-6860213D01*
X97399753Y-6843213D01*
X97373193Y-6823515D01*
X97348692Y-6801308D01*
X97326485Y-6776807D01*
X97306787Y-6750247D01*
X97289787Y-6721884D01*
X97275649Y-6691991D01*
X97264509Y-6660857D01*
X97256475Y-6628781D01*
X97251623Y-6596071D01*
X97250000Y-6563044D01*
X97250000Y-5436956D01*
X97251623Y-5403929D01*
X97256475Y-5371219D01*
X97264509Y-5339143D01*
X97275649Y-5308009D01*
X97289787Y-5278116D01*
X97306787Y-5249753D01*
X97326485Y-5223193D01*
X97348692Y-5198692D01*
X97373193Y-5176485D01*
X97399753Y-5156787D01*
X97428116Y-5139787D01*
X97458009Y-5125649D01*
X97489143Y-5114509D01*
X97521219Y-5106475D01*
X97553929Y-5101623D01*
X97586956Y-5100000D01*
X98463044Y-5100000D01*
X98496071Y-5101623D01*
X98496071Y-5101623D01*
G37*
D20*
X98025000Y-6000000D03*
D11*
G36*
X96446071Y-5101623D02*
X96478781Y-5106475D01*
X96510857Y-5114509D01*
X96541991Y-5125649D01*
X96571884Y-5139787D01*
X96600247Y-5156787D01*
X96626807Y-5176485D01*
X96651308Y-5198692D01*
X96673515Y-5223193D01*
X96693213Y-5249753D01*
X96710213Y-5278116D01*
X96724351Y-5308009D01*
X96735491Y-5339143D01*
X96743525Y-5371219D01*
X96748377Y-5403929D01*
X96750000Y-5436956D01*
X96750000Y-6563044D01*
X96748377Y-6596071D01*
X96743525Y-6628781D01*
X96735491Y-6660857D01*
X96724351Y-6691991D01*
X96710213Y-6721884D01*
X96693213Y-6750247D01*
X96673515Y-6776807D01*
X96651308Y-6801308D01*
X96626807Y-6823515D01*
X96600247Y-6843213D01*
X96571884Y-6860213D01*
X96541991Y-6874351D01*
X96510857Y-6885491D01*
X96478781Y-6893525D01*
X96446071Y-6898377D01*
X96413044Y-6900000D01*
X95536956Y-6900000D01*
X95503929Y-6898377D01*
X95471219Y-6893525D01*
X95439143Y-6885491D01*
X95408009Y-6874351D01*
X95378116Y-6860213D01*
X95349753Y-6843213D01*
X95323193Y-6823515D01*
X95298692Y-6801308D01*
X95276485Y-6776807D01*
X95256787Y-6750247D01*
X95239787Y-6721884D01*
X95225649Y-6691991D01*
X95214509Y-6660857D01*
X95206475Y-6628781D01*
X95201623Y-6596071D01*
X95200000Y-6563044D01*
X95200000Y-5436956D01*
X95201623Y-5403929D01*
X95206475Y-5371219D01*
X95214509Y-5339143D01*
X95225649Y-5308009D01*
X95239787Y-5278116D01*
X95256787Y-5249753D01*
X95276485Y-5223193D01*
X95298692Y-5198692D01*
X95323193Y-5176485D01*
X95349753Y-5156787D01*
X95378116Y-5139787D01*
X95408009Y-5125649D01*
X95439143Y-5114509D01*
X95471219Y-5106475D01*
X95503929Y-5101623D01*
X95536956Y-5100000D01*
X96413044Y-5100000D01*
X96446071Y-5101623D01*
X96446071Y-5101623D01*
G37*
D20*
X95975000Y-6000000D03*
D11*
G36*
X30971071Y-9601623D02*
X31003781Y-9606475D01*
X31035857Y-9614509D01*
X31066991Y-9625649D01*
X31096884Y-9639787D01*
X31125247Y-9656787D01*
X31151807Y-9676485D01*
X31176308Y-9698692D01*
X31198515Y-9723193D01*
X31218213Y-9749753D01*
X31235213Y-9778116D01*
X31249351Y-9808009D01*
X31260491Y-9839143D01*
X31268525Y-9871219D01*
X31273377Y-9903929D01*
X31275000Y-9936956D01*
X31275000Y-11063044D01*
X31273377Y-11096071D01*
X31268525Y-11128781D01*
X31260491Y-11160857D01*
X31249351Y-11191991D01*
X31235213Y-11221884D01*
X31218213Y-11250247D01*
X31198515Y-11276807D01*
X31176308Y-11301308D01*
X31151807Y-11323515D01*
X31125247Y-11343213D01*
X31096884Y-11360213D01*
X31066991Y-11374351D01*
X31035857Y-11385491D01*
X31003781Y-11393525D01*
X30971071Y-11398377D01*
X30938044Y-11400000D01*
X30061956Y-11400000D01*
X30028929Y-11398377D01*
X29996219Y-11393525D01*
X29964143Y-11385491D01*
X29933009Y-11374351D01*
X29903116Y-11360213D01*
X29874753Y-11343213D01*
X29848193Y-11323515D01*
X29823692Y-11301308D01*
X29801485Y-11276807D01*
X29781787Y-11250247D01*
X29764787Y-11221884D01*
X29750649Y-11191991D01*
X29739509Y-11160857D01*
X29731475Y-11128781D01*
X29726623Y-11096071D01*
X29725000Y-11063044D01*
X29725000Y-9936956D01*
X29726623Y-9903929D01*
X29731475Y-9871219D01*
X29739509Y-9839143D01*
X29750649Y-9808009D01*
X29764787Y-9778116D01*
X29781787Y-9749753D01*
X29801485Y-9723193D01*
X29823692Y-9698692D01*
X29848193Y-9676485D01*
X29874753Y-9656787D01*
X29903116Y-9639787D01*
X29933009Y-9625649D01*
X29964143Y-9614509D01*
X29996219Y-9606475D01*
X30028929Y-9601623D01*
X30061956Y-9600000D01*
X30938044Y-9600000D01*
X30971071Y-9601623D01*
X30971071Y-9601623D01*
G37*
D20*
X30500000Y-10500000D03*
D11*
G36*
X28921071Y-9601623D02*
X28953781Y-9606475D01*
X28985857Y-9614509D01*
X29016991Y-9625649D01*
X29046884Y-9639787D01*
X29075247Y-9656787D01*
X29101807Y-9676485D01*
X29126308Y-9698692D01*
X29148515Y-9723193D01*
X29168213Y-9749753D01*
X29185213Y-9778116D01*
X29199351Y-9808009D01*
X29210491Y-9839143D01*
X29218525Y-9871219D01*
X29223377Y-9903929D01*
X29225000Y-9936956D01*
X29225000Y-11063044D01*
X29223377Y-11096071D01*
X29218525Y-11128781D01*
X29210491Y-11160857D01*
X29199351Y-11191991D01*
X29185213Y-11221884D01*
X29168213Y-11250247D01*
X29148515Y-11276807D01*
X29126308Y-11301308D01*
X29101807Y-11323515D01*
X29075247Y-11343213D01*
X29046884Y-11360213D01*
X29016991Y-11374351D01*
X28985857Y-11385491D01*
X28953781Y-11393525D01*
X28921071Y-11398377D01*
X28888044Y-11400000D01*
X28011956Y-11400000D01*
X27978929Y-11398377D01*
X27946219Y-11393525D01*
X27914143Y-11385491D01*
X27883009Y-11374351D01*
X27853116Y-11360213D01*
X27824753Y-11343213D01*
X27798193Y-11323515D01*
X27773692Y-11301308D01*
X27751485Y-11276807D01*
X27731787Y-11250247D01*
X27714787Y-11221884D01*
X27700649Y-11191991D01*
X27689509Y-11160857D01*
X27681475Y-11128781D01*
X27676623Y-11096071D01*
X27675000Y-11063044D01*
X27675000Y-9936956D01*
X27676623Y-9903929D01*
X27681475Y-9871219D01*
X27689509Y-9839143D01*
X27700649Y-9808009D01*
X27714787Y-9778116D01*
X27731787Y-9749753D01*
X27751485Y-9723193D01*
X27773692Y-9698692D01*
X27798193Y-9676485D01*
X27824753Y-9656787D01*
X27853116Y-9639787D01*
X27883009Y-9625649D01*
X27914143Y-9614509D01*
X27946219Y-9606475D01*
X27978929Y-9601623D01*
X28011956Y-9600000D01*
X28888044Y-9600000D01*
X28921071Y-9601623D01*
X28921071Y-9601623D01*
G37*
D20*
X28450000Y-10500000D03*
D11*
G36*
X14496071Y-9601623D02*
X14528781Y-9606475D01*
X14560857Y-9614509D01*
X14591991Y-9625649D01*
X14621884Y-9639787D01*
X14650247Y-9656787D01*
X14676807Y-9676485D01*
X14701308Y-9698692D01*
X14723515Y-9723193D01*
X14743213Y-9749753D01*
X14760213Y-9778116D01*
X14774351Y-9808009D01*
X14785491Y-9839143D01*
X14793525Y-9871219D01*
X14798377Y-9903929D01*
X14800000Y-9936956D01*
X14800000Y-11063044D01*
X14798377Y-11096071D01*
X14793525Y-11128781D01*
X14785491Y-11160857D01*
X14774351Y-11191991D01*
X14760213Y-11221884D01*
X14743213Y-11250247D01*
X14723515Y-11276807D01*
X14701308Y-11301308D01*
X14676807Y-11323515D01*
X14650247Y-11343213D01*
X14621884Y-11360213D01*
X14591991Y-11374351D01*
X14560857Y-11385491D01*
X14528781Y-11393525D01*
X14496071Y-11398377D01*
X14463044Y-11400000D01*
X13586956Y-11400000D01*
X13553929Y-11398377D01*
X13521219Y-11393525D01*
X13489143Y-11385491D01*
X13458009Y-11374351D01*
X13428116Y-11360213D01*
X13399753Y-11343213D01*
X13373193Y-11323515D01*
X13348692Y-11301308D01*
X13326485Y-11276807D01*
X13306787Y-11250247D01*
X13289787Y-11221884D01*
X13275649Y-11191991D01*
X13264509Y-11160857D01*
X13256475Y-11128781D01*
X13251623Y-11096071D01*
X13250000Y-11063044D01*
X13250000Y-9936956D01*
X13251623Y-9903929D01*
X13256475Y-9871219D01*
X13264509Y-9839143D01*
X13275649Y-9808009D01*
X13289787Y-9778116D01*
X13306787Y-9749753D01*
X13326485Y-9723193D01*
X13348692Y-9698692D01*
X13373193Y-9676485D01*
X13399753Y-9656787D01*
X13428116Y-9639787D01*
X13458009Y-9625649D01*
X13489143Y-9614509D01*
X13521219Y-9606475D01*
X13553929Y-9601623D01*
X13586956Y-9600000D01*
X14463044Y-9600000D01*
X14496071Y-9601623D01*
X14496071Y-9601623D01*
G37*
D20*
X14025000Y-10500000D03*
D11*
G36*
X12446071Y-9601623D02*
X12478781Y-9606475D01*
X12510857Y-9614509D01*
X12541991Y-9625649D01*
X12571884Y-9639787D01*
X12600247Y-9656787D01*
X12626807Y-9676485D01*
X12651308Y-9698692D01*
X12673515Y-9723193D01*
X12693213Y-9749753D01*
X12710213Y-9778116D01*
X12724351Y-9808009D01*
X12735491Y-9839143D01*
X12743525Y-9871219D01*
X12748377Y-9903929D01*
X12750000Y-9936956D01*
X12750000Y-11063044D01*
X12748377Y-11096071D01*
X12743525Y-11128781D01*
X12735491Y-11160857D01*
X12724351Y-11191991D01*
X12710213Y-11221884D01*
X12693213Y-11250247D01*
X12673515Y-11276807D01*
X12651308Y-11301308D01*
X12626807Y-11323515D01*
X12600247Y-11343213D01*
X12571884Y-11360213D01*
X12541991Y-11374351D01*
X12510857Y-11385491D01*
X12478781Y-11393525D01*
X12446071Y-11398377D01*
X12413044Y-11400000D01*
X11536956Y-11400000D01*
X11503929Y-11398377D01*
X11471219Y-11393525D01*
X11439143Y-11385491D01*
X11408009Y-11374351D01*
X11378116Y-11360213D01*
X11349753Y-11343213D01*
X11323193Y-11323515D01*
X11298692Y-11301308D01*
X11276485Y-11276807D01*
X11256787Y-11250247D01*
X11239787Y-11221884D01*
X11225649Y-11191991D01*
X11214509Y-11160857D01*
X11206475Y-11128781D01*
X11201623Y-11096071D01*
X11200000Y-11063044D01*
X11200000Y-9936956D01*
X11201623Y-9903929D01*
X11206475Y-9871219D01*
X11214509Y-9839143D01*
X11225649Y-9808009D01*
X11239787Y-9778116D01*
X11256787Y-9749753D01*
X11276485Y-9723193D01*
X11298692Y-9698692D01*
X11323193Y-9676485D01*
X11349753Y-9656787D01*
X11378116Y-9639787D01*
X11408009Y-9625649D01*
X11439143Y-9614509D01*
X11471219Y-9606475D01*
X11503929Y-9601623D01*
X11536956Y-9600000D01*
X12413044Y-9600000D01*
X12446071Y-9601623D01*
X12446071Y-9601623D01*
G37*
D20*
X11975000Y-10500000D03*
D11*
G36*
X90971071Y-38101623D02*
X91003781Y-38106475D01*
X91035857Y-38114509D01*
X91066991Y-38125649D01*
X91096884Y-38139787D01*
X91125247Y-38156787D01*
X91151807Y-38176485D01*
X91176308Y-38198692D01*
X91198515Y-38223193D01*
X91218213Y-38249753D01*
X91235213Y-38278116D01*
X91249351Y-38308009D01*
X91260491Y-38339143D01*
X91268525Y-38371219D01*
X91273377Y-38403929D01*
X91275000Y-38436956D01*
X91275000Y-39563044D01*
X91273377Y-39596071D01*
X91268525Y-39628781D01*
X91260491Y-39660857D01*
X91249351Y-39691991D01*
X91235213Y-39721884D01*
X91218213Y-39750247D01*
X91198515Y-39776807D01*
X91176308Y-39801308D01*
X91151807Y-39823515D01*
X91125247Y-39843213D01*
X91096884Y-39860213D01*
X91066991Y-39874351D01*
X91035857Y-39885491D01*
X91003781Y-39893525D01*
X90971071Y-39898377D01*
X90938044Y-39900000D01*
X90061956Y-39900000D01*
X90028929Y-39898377D01*
X89996219Y-39893525D01*
X89964143Y-39885491D01*
X89933009Y-39874351D01*
X89903116Y-39860213D01*
X89874753Y-39843213D01*
X89848193Y-39823515D01*
X89823692Y-39801308D01*
X89801485Y-39776807D01*
X89781787Y-39750247D01*
X89764787Y-39721884D01*
X89750649Y-39691991D01*
X89739509Y-39660857D01*
X89731475Y-39628781D01*
X89726623Y-39596071D01*
X89725000Y-39563044D01*
X89725000Y-38436956D01*
X89726623Y-38403929D01*
X89731475Y-38371219D01*
X89739509Y-38339143D01*
X89750649Y-38308009D01*
X89764787Y-38278116D01*
X89781787Y-38249753D01*
X89801485Y-38223193D01*
X89823692Y-38198692D01*
X89848193Y-38176485D01*
X89874753Y-38156787D01*
X89903116Y-38139787D01*
X89933009Y-38125649D01*
X89964143Y-38114509D01*
X89996219Y-38106475D01*
X90028929Y-38101623D01*
X90061956Y-38100000D01*
X90938044Y-38100000D01*
X90971071Y-38101623D01*
X90971071Y-38101623D01*
G37*
D20*
X90500000Y-39000000D03*
D11*
G36*
X88921071Y-38101623D02*
X88953781Y-38106475D01*
X88985857Y-38114509D01*
X89016991Y-38125649D01*
X89046884Y-38139787D01*
X89075247Y-38156787D01*
X89101807Y-38176485D01*
X89126308Y-38198692D01*
X89148515Y-38223193D01*
X89168213Y-38249753D01*
X89185213Y-38278116D01*
X89199351Y-38308009D01*
X89210491Y-38339143D01*
X89218525Y-38371219D01*
X89223377Y-38403929D01*
X89225000Y-38436956D01*
X89225000Y-39563044D01*
X89223377Y-39596071D01*
X89218525Y-39628781D01*
X89210491Y-39660857D01*
X89199351Y-39691991D01*
X89185213Y-39721884D01*
X89168213Y-39750247D01*
X89148515Y-39776807D01*
X89126308Y-39801308D01*
X89101807Y-39823515D01*
X89075247Y-39843213D01*
X89046884Y-39860213D01*
X89016991Y-39874351D01*
X88985857Y-39885491D01*
X88953781Y-39893525D01*
X88921071Y-39898377D01*
X88888044Y-39900000D01*
X88011956Y-39900000D01*
X87978929Y-39898377D01*
X87946219Y-39893525D01*
X87914143Y-39885491D01*
X87883009Y-39874351D01*
X87853116Y-39860213D01*
X87824753Y-39843213D01*
X87798193Y-39823515D01*
X87773692Y-39801308D01*
X87751485Y-39776807D01*
X87731787Y-39750247D01*
X87714787Y-39721884D01*
X87700649Y-39691991D01*
X87689509Y-39660857D01*
X87681475Y-39628781D01*
X87676623Y-39596071D01*
X87675000Y-39563044D01*
X87675000Y-38436956D01*
X87676623Y-38403929D01*
X87681475Y-38371219D01*
X87689509Y-38339143D01*
X87700649Y-38308009D01*
X87714787Y-38278116D01*
X87731787Y-38249753D01*
X87751485Y-38223193D01*
X87773692Y-38198692D01*
X87798193Y-38176485D01*
X87824753Y-38156787D01*
X87853116Y-38139787D01*
X87883009Y-38125649D01*
X87914143Y-38114509D01*
X87946219Y-38106475D01*
X87978929Y-38101623D01*
X88011956Y-38100000D01*
X88888044Y-38100000D01*
X88921071Y-38101623D01*
X88921071Y-38101623D01*
G37*
D20*
X88450000Y-39000000D03*
D11*
G36*
X88946071Y-33101623D02*
X88978781Y-33106475D01*
X89010857Y-33114509D01*
X89041991Y-33125649D01*
X89071884Y-33139787D01*
X89100247Y-33156787D01*
X89126807Y-33176485D01*
X89151308Y-33198692D01*
X89173515Y-33223193D01*
X89193213Y-33249753D01*
X89210213Y-33278116D01*
X89224351Y-33308009D01*
X89235491Y-33339143D01*
X89243525Y-33371219D01*
X89248377Y-33403929D01*
X89250000Y-33436956D01*
X89250000Y-34563044D01*
X89248377Y-34596071D01*
X89243525Y-34628781D01*
X89235491Y-34660857D01*
X89224351Y-34691991D01*
X89210213Y-34721884D01*
X89193213Y-34750247D01*
X89173515Y-34776807D01*
X89151308Y-34801308D01*
X89126807Y-34823515D01*
X89100247Y-34843213D01*
X89071884Y-34860213D01*
X89041991Y-34874351D01*
X89010857Y-34885491D01*
X88978781Y-34893525D01*
X88946071Y-34898377D01*
X88913044Y-34900000D01*
X88036956Y-34900000D01*
X88003929Y-34898377D01*
X87971219Y-34893525D01*
X87939143Y-34885491D01*
X87908009Y-34874351D01*
X87878116Y-34860213D01*
X87849753Y-34843213D01*
X87823193Y-34823515D01*
X87798692Y-34801308D01*
X87776485Y-34776807D01*
X87756787Y-34750247D01*
X87739787Y-34721884D01*
X87725649Y-34691991D01*
X87714509Y-34660857D01*
X87706475Y-34628781D01*
X87701623Y-34596071D01*
X87700000Y-34563044D01*
X87700000Y-33436956D01*
X87701623Y-33403929D01*
X87706475Y-33371219D01*
X87714509Y-33339143D01*
X87725649Y-33308009D01*
X87739787Y-33278116D01*
X87756787Y-33249753D01*
X87776485Y-33223193D01*
X87798692Y-33198692D01*
X87823193Y-33176485D01*
X87849753Y-33156787D01*
X87878116Y-33139787D01*
X87908009Y-33125649D01*
X87939143Y-33114509D01*
X87971219Y-33106475D01*
X88003929Y-33101623D01*
X88036956Y-33100000D01*
X88913044Y-33100000D01*
X88946071Y-33101623D01*
X88946071Y-33101623D01*
G37*
D20*
X88475000Y-34000000D03*
D11*
G36*
X90996071Y-33101623D02*
X91028781Y-33106475D01*
X91060857Y-33114509D01*
X91091991Y-33125649D01*
X91121884Y-33139787D01*
X91150247Y-33156787D01*
X91176807Y-33176485D01*
X91201308Y-33198692D01*
X91223515Y-33223193D01*
X91243213Y-33249753D01*
X91260213Y-33278116D01*
X91274351Y-33308009D01*
X91285491Y-33339143D01*
X91293525Y-33371219D01*
X91298377Y-33403929D01*
X91300000Y-33436956D01*
X91300000Y-34563044D01*
X91298377Y-34596071D01*
X91293525Y-34628781D01*
X91285491Y-34660857D01*
X91274351Y-34691991D01*
X91260213Y-34721884D01*
X91243213Y-34750247D01*
X91223515Y-34776807D01*
X91201308Y-34801308D01*
X91176807Y-34823515D01*
X91150247Y-34843213D01*
X91121884Y-34860213D01*
X91091991Y-34874351D01*
X91060857Y-34885491D01*
X91028781Y-34893525D01*
X90996071Y-34898377D01*
X90963044Y-34900000D01*
X90086956Y-34900000D01*
X90053929Y-34898377D01*
X90021219Y-34893525D01*
X89989143Y-34885491D01*
X89958009Y-34874351D01*
X89928116Y-34860213D01*
X89899753Y-34843213D01*
X89873193Y-34823515D01*
X89848692Y-34801308D01*
X89826485Y-34776807D01*
X89806787Y-34750247D01*
X89789787Y-34721884D01*
X89775649Y-34691991D01*
X89764509Y-34660857D01*
X89756475Y-34628781D01*
X89751623Y-34596071D01*
X89750000Y-34563044D01*
X89750000Y-33436956D01*
X89751623Y-33403929D01*
X89756475Y-33371219D01*
X89764509Y-33339143D01*
X89775649Y-33308009D01*
X89789787Y-33278116D01*
X89806787Y-33249753D01*
X89826485Y-33223193D01*
X89848692Y-33198692D01*
X89873193Y-33176485D01*
X89899753Y-33156787D01*
X89928116Y-33139787D01*
X89958009Y-33125649D01*
X89989143Y-33114509D01*
X90021219Y-33106475D01*
X90053929Y-33101623D01*
X90086956Y-33100000D01*
X90963044Y-33100000D01*
X90996071Y-33101623D01*
X90996071Y-33101623D01*
G37*
D20*
X90525000Y-34000000D03*
D11*
G36*
X90096071Y-19251623D02*
X90128781Y-19256475D01*
X90160857Y-19264509D01*
X90191991Y-19275649D01*
X90221884Y-19289787D01*
X90250247Y-19306787D01*
X90276807Y-19326485D01*
X90301308Y-19348692D01*
X90323515Y-19373193D01*
X90343213Y-19399753D01*
X90360213Y-19428116D01*
X90374351Y-19458009D01*
X90385491Y-19489143D01*
X90393525Y-19521219D01*
X90398377Y-19553929D01*
X90400000Y-19586956D01*
X90400000Y-20463044D01*
X90398377Y-20496071D01*
X90393525Y-20528781D01*
X90385491Y-20560857D01*
X90374351Y-20591991D01*
X90360213Y-20621884D01*
X90343213Y-20650247D01*
X90323515Y-20676807D01*
X90301308Y-20701308D01*
X90276807Y-20723515D01*
X90250247Y-20743213D01*
X90221884Y-20760213D01*
X90191991Y-20774351D01*
X90160857Y-20785491D01*
X90128781Y-20793525D01*
X90096071Y-20798377D01*
X90063044Y-20800000D01*
X88936956Y-20800000D01*
X88903929Y-20798377D01*
X88871219Y-20793525D01*
X88839143Y-20785491D01*
X88808009Y-20774351D01*
X88778116Y-20760213D01*
X88749753Y-20743213D01*
X88723193Y-20723515D01*
X88698692Y-20701308D01*
X88676485Y-20676807D01*
X88656787Y-20650247D01*
X88639787Y-20621884D01*
X88625649Y-20591991D01*
X88614509Y-20560857D01*
X88606475Y-20528781D01*
X88601623Y-20496071D01*
X88600000Y-20463044D01*
X88600000Y-19586956D01*
X88601623Y-19553929D01*
X88606475Y-19521219D01*
X88614509Y-19489143D01*
X88625649Y-19458009D01*
X88639787Y-19428116D01*
X88656787Y-19399753D01*
X88676485Y-19373193D01*
X88698692Y-19348692D01*
X88723193Y-19326485D01*
X88749753Y-19306787D01*
X88778116Y-19289787D01*
X88808009Y-19275649D01*
X88839143Y-19264509D01*
X88871219Y-19256475D01*
X88903929Y-19251623D01*
X88936956Y-19250000D01*
X90063044Y-19250000D01*
X90096071Y-19251623D01*
X90096071Y-19251623D01*
G37*
D20*
X89500000Y-20025000D03*
D11*
G36*
X90096071Y-17201623D02*
X90128781Y-17206475D01*
X90160857Y-17214509D01*
X90191991Y-17225649D01*
X90221884Y-17239787D01*
X90250247Y-17256787D01*
X90276807Y-17276485D01*
X90301308Y-17298692D01*
X90323515Y-17323193D01*
X90343213Y-17349753D01*
X90360213Y-17378116D01*
X90374351Y-17408009D01*
X90385491Y-17439143D01*
X90393525Y-17471219D01*
X90398377Y-17503929D01*
X90400000Y-17536956D01*
X90400000Y-18413044D01*
X90398377Y-18446071D01*
X90393525Y-18478781D01*
X90385491Y-18510857D01*
X90374351Y-18541991D01*
X90360213Y-18571884D01*
X90343213Y-18600247D01*
X90323515Y-18626807D01*
X90301308Y-18651308D01*
X90276807Y-18673515D01*
X90250247Y-18693213D01*
X90221884Y-18710213D01*
X90191991Y-18724351D01*
X90160857Y-18735491D01*
X90128781Y-18743525D01*
X90096071Y-18748377D01*
X90063044Y-18750000D01*
X88936956Y-18750000D01*
X88903929Y-18748377D01*
X88871219Y-18743525D01*
X88839143Y-18735491D01*
X88808009Y-18724351D01*
X88778116Y-18710213D01*
X88749753Y-18693213D01*
X88723193Y-18673515D01*
X88698692Y-18651308D01*
X88676485Y-18626807D01*
X88656787Y-18600247D01*
X88639787Y-18571884D01*
X88625649Y-18541991D01*
X88614509Y-18510857D01*
X88606475Y-18478781D01*
X88601623Y-18446071D01*
X88600000Y-18413044D01*
X88600000Y-17536956D01*
X88601623Y-17503929D01*
X88606475Y-17471219D01*
X88614509Y-17439143D01*
X88625649Y-17408009D01*
X88639787Y-17378116D01*
X88656787Y-17349753D01*
X88676485Y-17323193D01*
X88698692Y-17298692D01*
X88723193Y-17276485D01*
X88749753Y-17256787D01*
X88778116Y-17239787D01*
X88808009Y-17225649D01*
X88839143Y-17214509D01*
X88871219Y-17206475D01*
X88903929Y-17201623D01*
X88936956Y-17200000D01*
X90063044Y-17200000D01*
X90096071Y-17201623D01*
X90096071Y-17201623D01*
G37*
D20*
X89500000Y-17975000D03*
D32*
X56172323Y-35000000D03*
D33*
X51172323Y-35000000D03*
X62902323Y-35020000D03*
D32*
X67902323Y-35020000D03*
D11*
G36*
X40474071Y-84325623D02*
X40506781Y-84330475D01*
X40538857Y-84338509D01*
X40569991Y-84349649D01*
X40599884Y-84363787D01*
X40628247Y-84380787D01*
X40654807Y-84400485D01*
X40679308Y-84422692D01*
X40701515Y-84447193D01*
X40721213Y-84473753D01*
X40738213Y-84502116D01*
X40752351Y-84532009D01*
X40763491Y-84563143D01*
X40771525Y-84595219D01*
X40776377Y-84627929D01*
X40778000Y-84660956D01*
X40778000Y-85537044D01*
X40776377Y-85570071D01*
X40771525Y-85602781D01*
X40763491Y-85634857D01*
X40752351Y-85665991D01*
X40738213Y-85695884D01*
X40721213Y-85724247D01*
X40701515Y-85750807D01*
X40679308Y-85775308D01*
X40654807Y-85797515D01*
X40628247Y-85817213D01*
X40599884Y-85834213D01*
X40569991Y-85848351D01*
X40538857Y-85859491D01*
X40506781Y-85867525D01*
X40474071Y-85872377D01*
X40441044Y-85874000D01*
X39314956Y-85874000D01*
X39281929Y-85872377D01*
X39249219Y-85867525D01*
X39217143Y-85859491D01*
X39186009Y-85848351D01*
X39156116Y-85834213D01*
X39127753Y-85817213D01*
X39101193Y-85797515D01*
X39076692Y-85775308D01*
X39054485Y-85750807D01*
X39034787Y-85724247D01*
X39017787Y-85695884D01*
X39003649Y-85665991D01*
X38992509Y-85634857D01*
X38984475Y-85602781D01*
X38979623Y-85570071D01*
X38978000Y-85537044D01*
X38978000Y-84660956D01*
X38979623Y-84627929D01*
X38984475Y-84595219D01*
X38992509Y-84563143D01*
X39003649Y-84532009D01*
X39017787Y-84502116D01*
X39034787Y-84473753D01*
X39054485Y-84447193D01*
X39076692Y-84422692D01*
X39101193Y-84400485D01*
X39127753Y-84380787D01*
X39156116Y-84363787D01*
X39186009Y-84349649D01*
X39217143Y-84338509D01*
X39249219Y-84330475D01*
X39281929Y-84325623D01*
X39314956Y-84324000D01*
X40441044Y-84324000D01*
X40474071Y-84325623D01*
X40474071Y-84325623D01*
G37*
D20*
X39878000Y-85099000D03*
D11*
G36*
X40474071Y-82275623D02*
X40506781Y-82280475D01*
X40538857Y-82288509D01*
X40569991Y-82299649D01*
X40599884Y-82313787D01*
X40628247Y-82330787D01*
X40654807Y-82350485D01*
X40679308Y-82372692D01*
X40701515Y-82397193D01*
X40721213Y-82423753D01*
X40738213Y-82452116D01*
X40752351Y-82482009D01*
X40763491Y-82513143D01*
X40771525Y-82545219D01*
X40776377Y-82577929D01*
X40778000Y-82610956D01*
X40778000Y-83487044D01*
X40776377Y-83520071D01*
X40771525Y-83552781D01*
X40763491Y-83584857D01*
X40752351Y-83615991D01*
X40738213Y-83645884D01*
X40721213Y-83674247D01*
X40701515Y-83700807D01*
X40679308Y-83725308D01*
X40654807Y-83747515D01*
X40628247Y-83767213D01*
X40599884Y-83784213D01*
X40569991Y-83798351D01*
X40538857Y-83809491D01*
X40506781Y-83817525D01*
X40474071Y-83822377D01*
X40441044Y-83824000D01*
X39314956Y-83824000D01*
X39281929Y-83822377D01*
X39249219Y-83817525D01*
X39217143Y-83809491D01*
X39186009Y-83798351D01*
X39156116Y-83784213D01*
X39127753Y-83767213D01*
X39101193Y-83747515D01*
X39076692Y-83725308D01*
X39054485Y-83700807D01*
X39034787Y-83674247D01*
X39017787Y-83645884D01*
X39003649Y-83615991D01*
X38992509Y-83584857D01*
X38984475Y-83552781D01*
X38979623Y-83520071D01*
X38978000Y-83487044D01*
X38978000Y-82610956D01*
X38979623Y-82577929D01*
X38984475Y-82545219D01*
X38992509Y-82513143D01*
X39003649Y-82482009D01*
X39017787Y-82452116D01*
X39034787Y-82423753D01*
X39054485Y-82397193D01*
X39076692Y-82372692D01*
X39101193Y-82350485D01*
X39127753Y-82330787D01*
X39156116Y-82313787D01*
X39186009Y-82299649D01*
X39217143Y-82288509D01*
X39249219Y-82280475D01*
X39281929Y-82275623D01*
X39314956Y-82274000D01*
X40441044Y-82274000D01*
X40474071Y-82275623D01*
X40474071Y-82275623D01*
G37*
D20*
X39878000Y-83049000D03*
D11*
G36*
X70096071Y-6751623D02*
X70128781Y-6756475D01*
X70160857Y-6764509D01*
X70191991Y-6775649D01*
X70221884Y-6789787D01*
X70250247Y-6806787D01*
X70276807Y-6826485D01*
X70301308Y-6848692D01*
X70323515Y-6873193D01*
X70343213Y-6899753D01*
X70360213Y-6928116D01*
X70374351Y-6958009D01*
X70385491Y-6989143D01*
X70393525Y-7021219D01*
X70398377Y-7053929D01*
X70400000Y-7086956D01*
X70400000Y-7963044D01*
X70398377Y-7996071D01*
X70393525Y-8028781D01*
X70385491Y-8060857D01*
X70374351Y-8091991D01*
X70360213Y-8121884D01*
X70343213Y-8150247D01*
X70323515Y-8176807D01*
X70301308Y-8201308D01*
X70276807Y-8223515D01*
X70250247Y-8243213D01*
X70221884Y-8260213D01*
X70191991Y-8274351D01*
X70160857Y-8285491D01*
X70128781Y-8293525D01*
X70096071Y-8298377D01*
X70063044Y-8300000D01*
X68936956Y-8300000D01*
X68903929Y-8298377D01*
X68871219Y-8293525D01*
X68839143Y-8285491D01*
X68808009Y-8274351D01*
X68778116Y-8260213D01*
X68749753Y-8243213D01*
X68723193Y-8223515D01*
X68698692Y-8201308D01*
X68676485Y-8176807D01*
X68656787Y-8150247D01*
X68639787Y-8121884D01*
X68625649Y-8091991D01*
X68614509Y-8060857D01*
X68606475Y-8028781D01*
X68601623Y-7996071D01*
X68600000Y-7963044D01*
X68600000Y-7086956D01*
X68601623Y-7053929D01*
X68606475Y-7021219D01*
X68614509Y-6989143D01*
X68625649Y-6958009D01*
X68639787Y-6928116D01*
X68656787Y-6899753D01*
X68676485Y-6873193D01*
X68698692Y-6848692D01*
X68723193Y-6826485D01*
X68749753Y-6806787D01*
X68778116Y-6789787D01*
X68808009Y-6775649D01*
X68839143Y-6764509D01*
X68871219Y-6756475D01*
X68903929Y-6751623D01*
X68936956Y-6750000D01*
X70063044Y-6750000D01*
X70096071Y-6751623D01*
X70096071Y-6751623D01*
G37*
D20*
X69500000Y-7525000D03*
D11*
G36*
X70096071Y-4701623D02*
X70128781Y-4706475D01*
X70160857Y-4714509D01*
X70191991Y-4725649D01*
X70221884Y-4739787D01*
X70250247Y-4756787D01*
X70276807Y-4776485D01*
X70301308Y-4798692D01*
X70323515Y-4823193D01*
X70343213Y-4849753D01*
X70360213Y-4878116D01*
X70374351Y-4908009D01*
X70385491Y-4939143D01*
X70393525Y-4971219D01*
X70398377Y-5003929D01*
X70400000Y-5036956D01*
X70400000Y-5913044D01*
X70398377Y-5946071D01*
X70393525Y-5978781D01*
X70385491Y-6010857D01*
X70374351Y-6041991D01*
X70360213Y-6071884D01*
X70343213Y-6100247D01*
X70323515Y-6126807D01*
X70301308Y-6151308D01*
X70276807Y-6173515D01*
X70250247Y-6193213D01*
X70221884Y-6210213D01*
X70191991Y-6224351D01*
X70160857Y-6235491D01*
X70128781Y-6243525D01*
X70096071Y-6248377D01*
X70063044Y-6250000D01*
X68936956Y-6250000D01*
X68903929Y-6248377D01*
X68871219Y-6243525D01*
X68839143Y-6235491D01*
X68808009Y-6224351D01*
X68778116Y-6210213D01*
X68749753Y-6193213D01*
X68723193Y-6173515D01*
X68698692Y-6151308D01*
X68676485Y-6126807D01*
X68656787Y-6100247D01*
X68639787Y-6071884D01*
X68625649Y-6041991D01*
X68614509Y-6010857D01*
X68606475Y-5978781D01*
X68601623Y-5946071D01*
X68600000Y-5913044D01*
X68600000Y-5036956D01*
X68601623Y-5003929D01*
X68606475Y-4971219D01*
X68614509Y-4939143D01*
X68625649Y-4908009D01*
X68639787Y-4878116D01*
X68656787Y-4849753D01*
X68676485Y-4823193D01*
X68698692Y-4798692D01*
X68723193Y-4776485D01*
X68749753Y-4756787D01*
X68778116Y-4739787D01*
X68808009Y-4725649D01*
X68839143Y-4714509D01*
X68871219Y-4706475D01*
X68903929Y-4701623D01*
X68936956Y-4700000D01*
X70063044Y-4700000D01*
X70096071Y-4701623D01*
X70096071Y-4701623D01*
G37*
D20*
X69500000Y-5475000D03*
D33*
X48260000Y-59372500D03*
D32*
X53260000Y-59372500D03*
X53260000Y-81597500D03*
D33*
X48260000Y-81597500D03*
D32*
X53260000Y-92710000D03*
D33*
X48260000Y-92710000D03*
D11*
G36*
X84696071Y-1851623D02*
X84728781Y-1856475D01*
X84760857Y-1864509D01*
X84791991Y-1875649D01*
X84821884Y-1889787D01*
X84850247Y-1906787D01*
X84876807Y-1926485D01*
X84901308Y-1948692D01*
X84923515Y-1973193D01*
X84943213Y-1999753D01*
X84960213Y-2028116D01*
X84974351Y-2058009D01*
X84985491Y-2089143D01*
X84993525Y-2121219D01*
X84998377Y-2153929D01*
X85000000Y-2186956D01*
X85000000Y-3313044D01*
X84998377Y-3346071D01*
X84993525Y-3378781D01*
X84985491Y-3410857D01*
X84974351Y-3441991D01*
X84960213Y-3471884D01*
X84943213Y-3500247D01*
X84923515Y-3526807D01*
X84901308Y-3551308D01*
X84876807Y-3573515D01*
X84850247Y-3593213D01*
X84821884Y-3610213D01*
X84791991Y-3624351D01*
X84760857Y-3635491D01*
X84728781Y-3643525D01*
X84696071Y-3648377D01*
X84663044Y-3650000D01*
X83786956Y-3650000D01*
X83753929Y-3648377D01*
X83721219Y-3643525D01*
X83689143Y-3635491D01*
X83658009Y-3624351D01*
X83628116Y-3610213D01*
X83599753Y-3593213D01*
X83573193Y-3573515D01*
X83548692Y-3551308D01*
X83526485Y-3526807D01*
X83506787Y-3500247D01*
X83489787Y-3471884D01*
X83475649Y-3441991D01*
X83464509Y-3410857D01*
X83456475Y-3378781D01*
X83451623Y-3346071D01*
X83450000Y-3313044D01*
X83450000Y-2186956D01*
X83451623Y-2153929D01*
X83456475Y-2121219D01*
X83464509Y-2089143D01*
X83475649Y-2058009D01*
X83489787Y-2028116D01*
X83506787Y-1999753D01*
X83526485Y-1973193D01*
X83548692Y-1948692D01*
X83573193Y-1926485D01*
X83599753Y-1906787D01*
X83628116Y-1889787D01*
X83658009Y-1875649D01*
X83689143Y-1864509D01*
X83721219Y-1856475D01*
X83753929Y-1851623D01*
X83786956Y-1850000D01*
X84663044Y-1850000D01*
X84696071Y-1851623D01*
X84696071Y-1851623D01*
G37*
D20*
X84225000Y-2750000D03*
D11*
G36*
X86746071Y-1851623D02*
X86778781Y-1856475D01*
X86810857Y-1864509D01*
X86841991Y-1875649D01*
X86871884Y-1889787D01*
X86900247Y-1906787D01*
X86926807Y-1926485D01*
X86951308Y-1948692D01*
X86973515Y-1973193D01*
X86993213Y-1999753D01*
X87010213Y-2028116D01*
X87024351Y-2058009D01*
X87035491Y-2089143D01*
X87043525Y-2121219D01*
X87048377Y-2153929D01*
X87050000Y-2186956D01*
X87050000Y-3313044D01*
X87048377Y-3346071D01*
X87043525Y-3378781D01*
X87035491Y-3410857D01*
X87024351Y-3441991D01*
X87010213Y-3471884D01*
X86993213Y-3500247D01*
X86973515Y-3526807D01*
X86951308Y-3551308D01*
X86926807Y-3573515D01*
X86900247Y-3593213D01*
X86871884Y-3610213D01*
X86841991Y-3624351D01*
X86810857Y-3635491D01*
X86778781Y-3643525D01*
X86746071Y-3648377D01*
X86713044Y-3650000D01*
X85836956Y-3650000D01*
X85803929Y-3648377D01*
X85771219Y-3643525D01*
X85739143Y-3635491D01*
X85708009Y-3624351D01*
X85678116Y-3610213D01*
X85649753Y-3593213D01*
X85623193Y-3573515D01*
X85598692Y-3551308D01*
X85576485Y-3526807D01*
X85556787Y-3500247D01*
X85539787Y-3471884D01*
X85525649Y-3441991D01*
X85514509Y-3410857D01*
X85506475Y-3378781D01*
X85501623Y-3346071D01*
X85500000Y-3313044D01*
X85500000Y-2186956D01*
X85501623Y-2153929D01*
X85506475Y-2121219D01*
X85514509Y-2089143D01*
X85525649Y-2058009D01*
X85539787Y-2028116D01*
X85556787Y-1999753D01*
X85576485Y-1973193D01*
X85598692Y-1948692D01*
X85623193Y-1926485D01*
X85649753Y-1906787D01*
X85678116Y-1889787D01*
X85708009Y-1875649D01*
X85739143Y-1864509D01*
X85771219Y-1856475D01*
X85803929Y-1851623D01*
X85836956Y-1850000D01*
X86713044Y-1850000D01*
X86746071Y-1851623D01*
X86746071Y-1851623D01*
G37*
D20*
X86275000Y-2750000D03*
D33*
X38370000Y-35020000D03*
D32*
X43370000Y-35020000D03*
X53260000Y-48260000D03*
D33*
X48260000Y-48260000D03*
X48260000Y-70485000D03*
D32*
X53260000Y-70485000D03*
D34*
X2540000Y-22860000D03*
X2540000Y-25400000D03*
D35*
X2540000Y-27940000D03*
X2540000Y-38100000D03*
D34*
X2540000Y-35560000D03*
X2540000Y-33020000D03*
D36*
X7620000Y-25400000D03*
D37*
X5080000Y-25400000D03*
D11*
G36*
X12446071Y-33391623D02*
X12478781Y-33396475D01*
X12510857Y-33404509D01*
X12541991Y-33415649D01*
X12571884Y-33429787D01*
X12600247Y-33446787D01*
X12626807Y-33466485D01*
X12651308Y-33488692D01*
X12673515Y-33513193D01*
X12693213Y-33539753D01*
X12710213Y-33568116D01*
X12724351Y-33598009D01*
X12735491Y-33629143D01*
X12743525Y-33661219D01*
X12748377Y-33693929D01*
X12750000Y-33726956D01*
X12750000Y-34853044D01*
X12748377Y-34886071D01*
X12743525Y-34918781D01*
X12735491Y-34950857D01*
X12724351Y-34981991D01*
X12710213Y-35011884D01*
X12693213Y-35040247D01*
X12673515Y-35066807D01*
X12651308Y-35091308D01*
X12626807Y-35113515D01*
X12600247Y-35133213D01*
X12571884Y-35150213D01*
X12541991Y-35164351D01*
X12510857Y-35175491D01*
X12478781Y-35183525D01*
X12446071Y-35188377D01*
X12413044Y-35190000D01*
X11536956Y-35190000D01*
X11503929Y-35188377D01*
X11471219Y-35183525D01*
X11439143Y-35175491D01*
X11408009Y-35164351D01*
X11378116Y-35150213D01*
X11349753Y-35133213D01*
X11323193Y-35113515D01*
X11298692Y-35091308D01*
X11276485Y-35066807D01*
X11256787Y-35040247D01*
X11239787Y-35011884D01*
X11225649Y-34981991D01*
X11214509Y-34950857D01*
X11206475Y-34918781D01*
X11201623Y-34886071D01*
X11200000Y-34853044D01*
X11200000Y-33726956D01*
X11201623Y-33693929D01*
X11206475Y-33661219D01*
X11214509Y-33629143D01*
X11225649Y-33598009D01*
X11239787Y-33568116D01*
X11256787Y-33539753D01*
X11276485Y-33513193D01*
X11298692Y-33488692D01*
X11323193Y-33466485D01*
X11349753Y-33446787D01*
X11378116Y-33429787D01*
X11408009Y-33415649D01*
X11439143Y-33404509D01*
X11471219Y-33396475D01*
X11503929Y-33391623D01*
X11536956Y-33390000D01*
X12413044Y-33390000D01*
X12446071Y-33391623D01*
X12446071Y-33391623D01*
G37*
D20*
X11975000Y-34290000D03*
D11*
G36*
X14496071Y-33391623D02*
X14528781Y-33396475D01*
X14560857Y-33404509D01*
X14591991Y-33415649D01*
X14621884Y-33429787D01*
X14650247Y-33446787D01*
X14676807Y-33466485D01*
X14701308Y-33488692D01*
X14723515Y-33513193D01*
X14743213Y-33539753D01*
X14760213Y-33568116D01*
X14774351Y-33598009D01*
X14785491Y-33629143D01*
X14793525Y-33661219D01*
X14798377Y-33693929D01*
X14800000Y-33726956D01*
X14800000Y-34853044D01*
X14798377Y-34886071D01*
X14793525Y-34918781D01*
X14785491Y-34950857D01*
X14774351Y-34981991D01*
X14760213Y-35011884D01*
X14743213Y-35040247D01*
X14723515Y-35066807D01*
X14701308Y-35091308D01*
X14676807Y-35113515D01*
X14650247Y-35133213D01*
X14621884Y-35150213D01*
X14591991Y-35164351D01*
X14560857Y-35175491D01*
X14528781Y-35183525D01*
X14496071Y-35188377D01*
X14463044Y-35190000D01*
X13586956Y-35190000D01*
X13553929Y-35188377D01*
X13521219Y-35183525D01*
X13489143Y-35175491D01*
X13458009Y-35164351D01*
X13428116Y-35150213D01*
X13399753Y-35133213D01*
X13373193Y-35113515D01*
X13348692Y-35091308D01*
X13326485Y-35066807D01*
X13306787Y-35040247D01*
X13289787Y-35011884D01*
X13275649Y-34981991D01*
X13264509Y-34950857D01*
X13256475Y-34918781D01*
X13251623Y-34886071D01*
X13250000Y-34853044D01*
X13250000Y-33726956D01*
X13251623Y-33693929D01*
X13256475Y-33661219D01*
X13264509Y-33629143D01*
X13275649Y-33598009D01*
X13289787Y-33568116D01*
X13306787Y-33539753D01*
X13326485Y-33513193D01*
X13348692Y-33488692D01*
X13373193Y-33466485D01*
X13399753Y-33446787D01*
X13428116Y-33429787D01*
X13458009Y-33415649D01*
X13489143Y-33404509D01*
X13521219Y-33396475D01*
X13553929Y-33391623D01*
X13586956Y-33390000D01*
X14463044Y-33390000D01*
X14496071Y-33391623D01*
X14496071Y-33391623D01*
G37*
D20*
X14025000Y-34290000D03*
D11*
G36*
X2196071Y-29601623D02*
X2228781Y-29606475D01*
X2260857Y-29614509D01*
X2291991Y-29625649D01*
X2321884Y-29639787D01*
X2350247Y-29656787D01*
X2376807Y-29676485D01*
X2401308Y-29698692D01*
X2423515Y-29723193D01*
X2443213Y-29749753D01*
X2460213Y-29778116D01*
X2474351Y-29808009D01*
X2485491Y-29839143D01*
X2493525Y-29871219D01*
X2498377Y-29903929D01*
X2500000Y-29936956D01*
X2500000Y-31063044D01*
X2498377Y-31096071D01*
X2493525Y-31128781D01*
X2485491Y-31160857D01*
X2474351Y-31191991D01*
X2460213Y-31221884D01*
X2443213Y-31250247D01*
X2423515Y-31276807D01*
X2401308Y-31301308D01*
X2376807Y-31323515D01*
X2350247Y-31343213D01*
X2321884Y-31360213D01*
X2291991Y-31374351D01*
X2260857Y-31385491D01*
X2228781Y-31393525D01*
X2196071Y-31398377D01*
X2163044Y-31400000D01*
X1286956Y-31400000D01*
X1253929Y-31398377D01*
X1221219Y-31393525D01*
X1189143Y-31385491D01*
X1158009Y-31374351D01*
X1128116Y-31360213D01*
X1099753Y-31343213D01*
X1073193Y-31323515D01*
X1048692Y-31301308D01*
X1026485Y-31276807D01*
X1006787Y-31250247D01*
X989787Y-31221884D01*
X975649Y-31191991D01*
X964509Y-31160857D01*
X956475Y-31128781D01*
X951623Y-31096071D01*
X950000Y-31063044D01*
X950000Y-29936956D01*
X951623Y-29903929D01*
X956475Y-29871219D01*
X964509Y-29839143D01*
X975649Y-29808009D01*
X989787Y-29778116D01*
X1006787Y-29749753D01*
X1026485Y-29723193D01*
X1048692Y-29698692D01*
X1073193Y-29676485D01*
X1099753Y-29656787D01*
X1128116Y-29639787D01*
X1158009Y-29625649D01*
X1189143Y-29614509D01*
X1221219Y-29606475D01*
X1253929Y-29601623D01*
X1286956Y-29600000D01*
X2163044Y-29600000D01*
X2196071Y-29601623D01*
X2196071Y-29601623D01*
G37*
D20*
X1725000Y-30500000D03*
D11*
G36*
X4246071Y-29601623D02*
X4278781Y-29606475D01*
X4310857Y-29614509D01*
X4341991Y-29625649D01*
X4371884Y-29639787D01*
X4400247Y-29656787D01*
X4426807Y-29676485D01*
X4451308Y-29698692D01*
X4473515Y-29723193D01*
X4493213Y-29749753D01*
X4510213Y-29778116D01*
X4524351Y-29808009D01*
X4535491Y-29839143D01*
X4543525Y-29871219D01*
X4548377Y-29903929D01*
X4550000Y-29936956D01*
X4550000Y-31063044D01*
X4548377Y-31096071D01*
X4543525Y-31128781D01*
X4535491Y-31160857D01*
X4524351Y-31191991D01*
X4510213Y-31221884D01*
X4493213Y-31250247D01*
X4473515Y-31276807D01*
X4451308Y-31301308D01*
X4426807Y-31323515D01*
X4400247Y-31343213D01*
X4371884Y-31360213D01*
X4341991Y-31374351D01*
X4310857Y-31385491D01*
X4278781Y-31393525D01*
X4246071Y-31398377D01*
X4213044Y-31400000D01*
X3336956Y-31400000D01*
X3303929Y-31398377D01*
X3271219Y-31393525D01*
X3239143Y-31385491D01*
X3208009Y-31374351D01*
X3178116Y-31360213D01*
X3149753Y-31343213D01*
X3123193Y-31323515D01*
X3098692Y-31301308D01*
X3076485Y-31276807D01*
X3056787Y-31250247D01*
X3039787Y-31221884D01*
X3025649Y-31191991D01*
X3014509Y-31160857D01*
X3006475Y-31128781D01*
X3001623Y-31096071D01*
X3000000Y-31063044D01*
X3000000Y-29936956D01*
X3001623Y-29903929D01*
X3006475Y-29871219D01*
X3014509Y-29839143D01*
X3025649Y-29808009D01*
X3039787Y-29778116D01*
X3056787Y-29749753D01*
X3076485Y-29723193D01*
X3098692Y-29698692D01*
X3123193Y-29676485D01*
X3149753Y-29656787D01*
X3178116Y-29639787D01*
X3208009Y-29625649D01*
X3239143Y-29614509D01*
X3271219Y-29606475D01*
X3303929Y-29601623D01*
X3336956Y-29600000D01*
X4213044Y-29600000D01*
X4246071Y-29601623D01*
X4246071Y-29601623D01*
G37*
D20*
X3775000Y-30500000D03*
D11*
G36*
X18251071Y-35931623D02*
X18283781Y-35936475D01*
X18315857Y-35944509D01*
X18346991Y-35955649D01*
X18376884Y-35969787D01*
X18405247Y-35986787D01*
X18431807Y-36006485D01*
X18456308Y-36028692D01*
X18478515Y-36053193D01*
X18498213Y-36079753D01*
X18515213Y-36108116D01*
X18529351Y-36138009D01*
X18540491Y-36169143D01*
X18548525Y-36201219D01*
X18553377Y-36233929D01*
X18555000Y-36266956D01*
X18555000Y-37393044D01*
X18553377Y-37426071D01*
X18548525Y-37458781D01*
X18540491Y-37490857D01*
X18529351Y-37521991D01*
X18515213Y-37551884D01*
X18498213Y-37580247D01*
X18478515Y-37606807D01*
X18456308Y-37631308D01*
X18431807Y-37653515D01*
X18405247Y-37673213D01*
X18376884Y-37690213D01*
X18346991Y-37704351D01*
X18315857Y-37715491D01*
X18283781Y-37723525D01*
X18251071Y-37728377D01*
X18218044Y-37730000D01*
X17341956Y-37730000D01*
X17308929Y-37728377D01*
X17276219Y-37723525D01*
X17244143Y-37715491D01*
X17213009Y-37704351D01*
X17183116Y-37690213D01*
X17154753Y-37673213D01*
X17128193Y-37653515D01*
X17103692Y-37631308D01*
X17081485Y-37606807D01*
X17061787Y-37580247D01*
X17044787Y-37551884D01*
X17030649Y-37521991D01*
X17019509Y-37490857D01*
X17011475Y-37458781D01*
X17006623Y-37426071D01*
X17005000Y-37393044D01*
X17005000Y-36266956D01*
X17006623Y-36233929D01*
X17011475Y-36201219D01*
X17019509Y-36169143D01*
X17030649Y-36138009D01*
X17044787Y-36108116D01*
X17061787Y-36079753D01*
X17081485Y-36053193D01*
X17103692Y-36028692D01*
X17128193Y-36006485D01*
X17154753Y-35986787D01*
X17183116Y-35969787D01*
X17213009Y-35955649D01*
X17244143Y-35944509D01*
X17276219Y-35936475D01*
X17308929Y-35931623D01*
X17341956Y-35930000D01*
X18218044Y-35930000D01*
X18251071Y-35931623D01*
X18251071Y-35931623D01*
G37*
D20*
X17780000Y-36830000D03*
D11*
G36*
X16201071Y-35931623D02*
X16233781Y-35936475D01*
X16265857Y-35944509D01*
X16296991Y-35955649D01*
X16326884Y-35969787D01*
X16355247Y-35986787D01*
X16381807Y-36006485D01*
X16406308Y-36028692D01*
X16428515Y-36053193D01*
X16448213Y-36079753D01*
X16465213Y-36108116D01*
X16479351Y-36138009D01*
X16490491Y-36169143D01*
X16498525Y-36201219D01*
X16503377Y-36233929D01*
X16505000Y-36266956D01*
X16505000Y-37393044D01*
X16503377Y-37426071D01*
X16498525Y-37458781D01*
X16490491Y-37490857D01*
X16479351Y-37521991D01*
X16465213Y-37551884D01*
X16448213Y-37580247D01*
X16428515Y-37606807D01*
X16406308Y-37631308D01*
X16381807Y-37653515D01*
X16355247Y-37673213D01*
X16326884Y-37690213D01*
X16296991Y-37704351D01*
X16265857Y-37715491D01*
X16233781Y-37723525D01*
X16201071Y-37728377D01*
X16168044Y-37730000D01*
X15291956Y-37730000D01*
X15258929Y-37728377D01*
X15226219Y-37723525D01*
X15194143Y-37715491D01*
X15163009Y-37704351D01*
X15133116Y-37690213D01*
X15104753Y-37673213D01*
X15078193Y-37653515D01*
X15053692Y-37631308D01*
X15031485Y-37606807D01*
X15011787Y-37580247D01*
X14994787Y-37551884D01*
X14980649Y-37521991D01*
X14969509Y-37490857D01*
X14961475Y-37458781D01*
X14956623Y-37426071D01*
X14955000Y-37393044D01*
X14955000Y-36266956D01*
X14956623Y-36233929D01*
X14961475Y-36201219D01*
X14969509Y-36169143D01*
X14980649Y-36138009D01*
X14994787Y-36108116D01*
X15011787Y-36079753D01*
X15031485Y-36053193D01*
X15053692Y-36028692D01*
X15078193Y-36006485D01*
X15104753Y-35986787D01*
X15133116Y-35969787D01*
X15163009Y-35955649D01*
X15194143Y-35944509D01*
X15226219Y-35936475D01*
X15258929Y-35931623D01*
X15291956Y-35930000D01*
X16168044Y-35930000D01*
X16201071Y-35931623D01*
X16201071Y-35931623D01*
G37*
D20*
X15730000Y-36830000D03*
D37*
X5080000Y-39500000D03*
D36*
X7620000Y-39500000D03*
D22*
X10160000Y-39370000D03*
D38*
X17780000Y-31750000D03*
X12700000Y-39370000D03*
X15240000Y-31750000D03*
X15240000Y-39370000D03*
X12700000Y-31750000D03*
X17780000Y-39370000D03*
X10160000Y-31750000D03*
D13*
X5447056Y-94552944D03*
X3750000Y-93850000D03*
X2052944Y-94552944D03*
X1350000Y-96250000D03*
X2052944Y-97947056D03*
X3750000Y-98650000D03*
X5447056Y-97947056D03*
X6150000Y-96250000D03*
D14*
X3750000Y-96250000D03*
D11*
G36*
X12446071Y-35931623D02*
X12478781Y-35936475D01*
X12510857Y-35944509D01*
X12541991Y-35955649D01*
X12571884Y-35969787D01*
X12600247Y-35986787D01*
X12626807Y-36006485D01*
X12651308Y-36028692D01*
X12673515Y-36053193D01*
X12693213Y-36079753D01*
X12710213Y-36108116D01*
X12724351Y-36138009D01*
X12735491Y-36169143D01*
X12743525Y-36201219D01*
X12748377Y-36233929D01*
X12750000Y-36266956D01*
X12750000Y-37393044D01*
X12748377Y-37426071D01*
X12743525Y-37458781D01*
X12735491Y-37490857D01*
X12724351Y-37521991D01*
X12710213Y-37551884D01*
X12693213Y-37580247D01*
X12673515Y-37606807D01*
X12651308Y-37631308D01*
X12626807Y-37653515D01*
X12600247Y-37673213D01*
X12571884Y-37690213D01*
X12541991Y-37704351D01*
X12510857Y-37715491D01*
X12478781Y-37723525D01*
X12446071Y-37728377D01*
X12413044Y-37730000D01*
X11536956Y-37730000D01*
X11503929Y-37728377D01*
X11471219Y-37723525D01*
X11439143Y-37715491D01*
X11408009Y-37704351D01*
X11378116Y-37690213D01*
X11349753Y-37673213D01*
X11323193Y-37653515D01*
X11298692Y-37631308D01*
X11276485Y-37606807D01*
X11256787Y-37580247D01*
X11239787Y-37551884D01*
X11225649Y-37521991D01*
X11214509Y-37490857D01*
X11206475Y-37458781D01*
X11201623Y-37426071D01*
X11200000Y-37393044D01*
X11200000Y-36266956D01*
X11201623Y-36233929D01*
X11206475Y-36201219D01*
X11214509Y-36169143D01*
X11225649Y-36138009D01*
X11239787Y-36108116D01*
X11256787Y-36079753D01*
X11276485Y-36053193D01*
X11298692Y-36028692D01*
X11323193Y-36006485D01*
X11349753Y-35986787D01*
X11378116Y-35969787D01*
X11408009Y-35955649D01*
X11439143Y-35944509D01*
X11471219Y-35936475D01*
X11503929Y-35931623D01*
X11536956Y-35930000D01*
X12413044Y-35930000D01*
X12446071Y-35931623D01*
X12446071Y-35931623D01*
G37*
D20*
X11975000Y-36830000D03*
D11*
G36*
X14496071Y-35931623D02*
X14528781Y-35936475D01*
X14560857Y-35944509D01*
X14591991Y-35955649D01*
X14621884Y-35969787D01*
X14650247Y-35986787D01*
X14676807Y-36006485D01*
X14701308Y-36028692D01*
X14723515Y-36053193D01*
X14743213Y-36079753D01*
X14760213Y-36108116D01*
X14774351Y-36138009D01*
X14785491Y-36169143D01*
X14793525Y-36201219D01*
X14798377Y-36233929D01*
X14800000Y-36266956D01*
X14800000Y-37393044D01*
X14798377Y-37426071D01*
X14793525Y-37458781D01*
X14785491Y-37490857D01*
X14774351Y-37521991D01*
X14760213Y-37551884D01*
X14743213Y-37580247D01*
X14723515Y-37606807D01*
X14701308Y-37631308D01*
X14676807Y-37653515D01*
X14650247Y-37673213D01*
X14621884Y-37690213D01*
X14591991Y-37704351D01*
X14560857Y-37715491D01*
X14528781Y-37723525D01*
X14496071Y-37728377D01*
X14463044Y-37730000D01*
X13586956Y-37730000D01*
X13553929Y-37728377D01*
X13521219Y-37723525D01*
X13489143Y-37715491D01*
X13458009Y-37704351D01*
X13428116Y-37690213D01*
X13399753Y-37673213D01*
X13373193Y-37653515D01*
X13348692Y-37631308D01*
X13326485Y-37606807D01*
X13306787Y-37580247D01*
X13289787Y-37551884D01*
X13275649Y-37521991D01*
X13264509Y-37490857D01*
X13256475Y-37458781D01*
X13251623Y-37426071D01*
X13250000Y-37393044D01*
X13250000Y-36266956D01*
X13251623Y-36233929D01*
X13256475Y-36201219D01*
X13264509Y-36169143D01*
X13275649Y-36138009D01*
X13289787Y-36108116D01*
X13306787Y-36079753D01*
X13326485Y-36053193D01*
X13348692Y-36028692D01*
X13373193Y-36006485D01*
X13399753Y-35986787D01*
X13428116Y-35969787D01*
X13458009Y-35955649D01*
X13489143Y-35944509D01*
X13521219Y-35936475D01*
X13553929Y-35931623D01*
X13586956Y-35930000D01*
X14463044Y-35930000D01*
X14496071Y-35931623D01*
X14496071Y-35931623D01*
G37*
D20*
X14025000Y-36830000D03*
D11*
G36*
X8421071Y-34601623D02*
X8453781Y-34606475D01*
X8485857Y-34614509D01*
X8516991Y-34625649D01*
X8546884Y-34639787D01*
X8575247Y-34656787D01*
X8601807Y-34676485D01*
X8626308Y-34698692D01*
X8648515Y-34723193D01*
X8668213Y-34749753D01*
X8685213Y-34778116D01*
X8699351Y-34808009D01*
X8710491Y-34839143D01*
X8718525Y-34871219D01*
X8723377Y-34903929D01*
X8725000Y-34936956D01*
X8725000Y-36063044D01*
X8723377Y-36096071D01*
X8718525Y-36128781D01*
X8710491Y-36160857D01*
X8699351Y-36191991D01*
X8685213Y-36221884D01*
X8668213Y-36250247D01*
X8648515Y-36276807D01*
X8626308Y-36301308D01*
X8601807Y-36323515D01*
X8575247Y-36343213D01*
X8546884Y-36360213D01*
X8516991Y-36374351D01*
X8485857Y-36385491D01*
X8453781Y-36393525D01*
X8421071Y-36398377D01*
X8388044Y-36400000D01*
X7511956Y-36400000D01*
X7478929Y-36398377D01*
X7446219Y-36393525D01*
X7414143Y-36385491D01*
X7383009Y-36374351D01*
X7353116Y-36360213D01*
X7324753Y-36343213D01*
X7298193Y-36323515D01*
X7273692Y-36301308D01*
X7251485Y-36276807D01*
X7231787Y-36250247D01*
X7214787Y-36221884D01*
X7200649Y-36191991D01*
X7189509Y-36160857D01*
X7181475Y-36128781D01*
X7176623Y-36096071D01*
X7175000Y-36063044D01*
X7175000Y-34936956D01*
X7176623Y-34903929D01*
X7181475Y-34871219D01*
X7189509Y-34839143D01*
X7200649Y-34808009D01*
X7214787Y-34778116D01*
X7231787Y-34749753D01*
X7251485Y-34723193D01*
X7273692Y-34698692D01*
X7298193Y-34676485D01*
X7324753Y-34656787D01*
X7353116Y-34639787D01*
X7383009Y-34625649D01*
X7414143Y-34614509D01*
X7446219Y-34606475D01*
X7478929Y-34601623D01*
X7511956Y-34600000D01*
X8388044Y-34600000D01*
X8421071Y-34601623D01*
X8421071Y-34601623D01*
G37*
D20*
X7950000Y-35500000D03*
D11*
G36*
X10471071Y-34601623D02*
X10503781Y-34606475D01*
X10535857Y-34614509D01*
X10566991Y-34625649D01*
X10596884Y-34639787D01*
X10625247Y-34656787D01*
X10651807Y-34676485D01*
X10676308Y-34698692D01*
X10698515Y-34723193D01*
X10718213Y-34749753D01*
X10735213Y-34778116D01*
X10749351Y-34808009D01*
X10760491Y-34839143D01*
X10768525Y-34871219D01*
X10773377Y-34903929D01*
X10775000Y-34936956D01*
X10775000Y-36063044D01*
X10773377Y-36096071D01*
X10768525Y-36128781D01*
X10760491Y-36160857D01*
X10749351Y-36191991D01*
X10735213Y-36221884D01*
X10718213Y-36250247D01*
X10698515Y-36276807D01*
X10676308Y-36301308D01*
X10651807Y-36323515D01*
X10625247Y-36343213D01*
X10596884Y-36360213D01*
X10566991Y-36374351D01*
X10535857Y-36385491D01*
X10503781Y-36393525D01*
X10471071Y-36398377D01*
X10438044Y-36400000D01*
X9561956Y-36400000D01*
X9528929Y-36398377D01*
X9496219Y-36393525D01*
X9464143Y-36385491D01*
X9433009Y-36374351D01*
X9403116Y-36360213D01*
X9374753Y-36343213D01*
X9348193Y-36323515D01*
X9323692Y-36301308D01*
X9301485Y-36276807D01*
X9281787Y-36250247D01*
X9264787Y-36221884D01*
X9250649Y-36191991D01*
X9239509Y-36160857D01*
X9231475Y-36128781D01*
X9226623Y-36096071D01*
X9225000Y-36063044D01*
X9225000Y-34936956D01*
X9226623Y-34903929D01*
X9231475Y-34871219D01*
X9239509Y-34839143D01*
X9250649Y-34808009D01*
X9264787Y-34778116D01*
X9281787Y-34749753D01*
X9301485Y-34723193D01*
X9323692Y-34698692D01*
X9348193Y-34676485D01*
X9374753Y-34656787D01*
X9403116Y-34639787D01*
X9433009Y-34625649D01*
X9464143Y-34614509D01*
X9496219Y-34606475D01*
X9528929Y-34601623D01*
X9561956Y-34600000D01*
X10438044Y-34600000D01*
X10471071Y-34601623D01*
X10471071Y-34601623D01*
G37*
D20*
X10000000Y-35500000D03*
D39*
X34000000Y-29000000D03*
X6000000Y-29000000D03*
X6000000Y-32750000D03*
X6000000Y-36500000D03*
D40*
X54540000Y-5500000D03*
D39*
X52000000Y-5500000D03*
X41000000Y-5500000D03*
D40*
X43540000Y-5500000D03*
D11*
G36*
X8096071Y-20201623D02*
X8128781Y-20206475D01*
X8160857Y-20214509D01*
X8191991Y-20225649D01*
X8221884Y-20239787D01*
X8250247Y-20256787D01*
X8276807Y-20276485D01*
X8301308Y-20298692D01*
X8323515Y-20323193D01*
X8343213Y-20349753D01*
X8360213Y-20378116D01*
X8374351Y-20408009D01*
X8385491Y-20439143D01*
X8393525Y-20471219D01*
X8398377Y-20503929D01*
X8400000Y-20536956D01*
X8400000Y-21413044D01*
X8398377Y-21446071D01*
X8393525Y-21478781D01*
X8385491Y-21510857D01*
X8374351Y-21541991D01*
X8360213Y-21571884D01*
X8343213Y-21600247D01*
X8323515Y-21626807D01*
X8301308Y-21651308D01*
X8276807Y-21673515D01*
X8250247Y-21693213D01*
X8221884Y-21710213D01*
X8191991Y-21724351D01*
X8160857Y-21735491D01*
X8128781Y-21743525D01*
X8096071Y-21748377D01*
X8063044Y-21750000D01*
X6936956Y-21750000D01*
X6903929Y-21748377D01*
X6871219Y-21743525D01*
X6839143Y-21735491D01*
X6808009Y-21724351D01*
X6778116Y-21710213D01*
X6749753Y-21693213D01*
X6723193Y-21673515D01*
X6698692Y-21651308D01*
X6676485Y-21626807D01*
X6656787Y-21600247D01*
X6639787Y-21571884D01*
X6625649Y-21541991D01*
X6614509Y-21510857D01*
X6606475Y-21478781D01*
X6601623Y-21446071D01*
X6600000Y-21413044D01*
X6600000Y-20536956D01*
X6601623Y-20503929D01*
X6606475Y-20471219D01*
X6614509Y-20439143D01*
X6625649Y-20408009D01*
X6639787Y-20378116D01*
X6656787Y-20349753D01*
X6676485Y-20323193D01*
X6698692Y-20298692D01*
X6723193Y-20276485D01*
X6749753Y-20256787D01*
X6778116Y-20239787D01*
X6808009Y-20225649D01*
X6839143Y-20214509D01*
X6871219Y-20206475D01*
X6903929Y-20201623D01*
X6936956Y-20200000D01*
X8063044Y-20200000D01*
X8096071Y-20201623D01*
X8096071Y-20201623D01*
G37*
D20*
X7500000Y-20975000D03*
D11*
G36*
X8096071Y-22251623D02*
X8128781Y-22256475D01*
X8160857Y-22264509D01*
X8191991Y-22275649D01*
X8221884Y-22289787D01*
X8250247Y-22306787D01*
X8276807Y-22326485D01*
X8301308Y-22348692D01*
X8323515Y-22373193D01*
X8343213Y-22399753D01*
X8360213Y-22428116D01*
X8374351Y-22458009D01*
X8385491Y-22489143D01*
X8393525Y-22521219D01*
X8398377Y-22553929D01*
X8400000Y-22586956D01*
X8400000Y-23463044D01*
X8398377Y-23496071D01*
X8393525Y-23528781D01*
X8385491Y-23560857D01*
X8374351Y-23591991D01*
X8360213Y-23621884D01*
X8343213Y-23650247D01*
X8323515Y-23676807D01*
X8301308Y-23701308D01*
X8276807Y-23723515D01*
X8250247Y-23743213D01*
X8221884Y-23760213D01*
X8191991Y-23774351D01*
X8160857Y-23785491D01*
X8128781Y-23793525D01*
X8096071Y-23798377D01*
X8063044Y-23800000D01*
X6936956Y-23800000D01*
X6903929Y-23798377D01*
X6871219Y-23793525D01*
X6839143Y-23785491D01*
X6808009Y-23774351D01*
X6778116Y-23760213D01*
X6749753Y-23743213D01*
X6723193Y-23723515D01*
X6698692Y-23701308D01*
X6676485Y-23676807D01*
X6656787Y-23650247D01*
X6639787Y-23621884D01*
X6625649Y-23591991D01*
X6614509Y-23560857D01*
X6606475Y-23528781D01*
X6601623Y-23496071D01*
X6600000Y-23463044D01*
X6600000Y-22586956D01*
X6601623Y-22553929D01*
X6606475Y-22521219D01*
X6614509Y-22489143D01*
X6625649Y-22458009D01*
X6639787Y-22428116D01*
X6656787Y-22399753D01*
X6676485Y-22373193D01*
X6698692Y-22348692D01*
X6723193Y-22326485D01*
X6749753Y-22306787D01*
X6778116Y-22289787D01*
X6808009Y-22275649D01*
X6839143Y-22264509D01*
X6871219Y-22256475D01*
X6903929Y-22251623D01*
X6936956Y-22250000D01*
X8063044Y-22250000D01*
X8096071Y-22251623D01*
X8096071Y-22251623D01*
G37*
D20*
X7500000Y-23025000D03*
D11*
G36*
X11096071Y-22251623D02*
X11128781Y-22256475D01*
X11160857Y-22264509D01*
X11191991Y-22275649D01*
X11221884Y-22289787D01*
X11250247Y-22306787D01*
X11276807Y-22326485D01*
X11301308Y-22348692D01*
X11323515Y-22373193D01*
X11343213Y-22399753D01*
X11360213Y-22428116D01*
X11374351Y-22458009D01*
X11385491Y-22489143D01*
X11393525Y-22521219D01*
X11398377Y-22553929D01*
X11400000Y-22586956D01*
X11400000Y-23463044D01*
X11398377Y-23496071D01*
X11393525Y-23528781D01*
X11385491Y-23560857D01*
X11374351Y-23591991D01*
X11360213Y-23621884D01*
X11343213Y-23650247D01*
X11323515Y-23676807D01*
X11301308Y-23701308D01*
X11276807Y-23723515D01*
X11250247Y-23743213D01*
X11221884Y-23760213D01*
X11191991Y-23774351D01*
X11160857Y-23785491D01*
X11128781Y-23793525D01*
X11096071Y-23798377D01*
X11063044Y-23800000D01*
X9936956Y-23800000D01*
X9903929Y-23798377D01*
X9871219Y-23793525D01*
X9839143Y-23785491D01*
X9808009Y-23774351D01*
X9778116Y-23760213D01*
X9749753Y-23743213D01*
X9723193Y-23723515D01*
X9698692Y-23701308D01*
X9676485Y-23676807D01*
X9656787Y-23650247D01*
X9639787Y-23621884D01*
X9625649Y-23591991D01*
X9614509Y-23560857D01*
X9606475Y-23528781D01*
X9601623Y-23496071D01*
X9600000Y-23463044D01*
X9600000Y-22586956D01*
X9601623Y-22553929D01*
X9606475Y-22521219D01*
X9614509Y-22489143D01*
X9625649Y-22458009D01*
X9639787Y-22428116D01*
X9656787Y-22399753D01*
X9676485Y-22373193D01*
X9698692Y-22348692D01*
X9723193Y-22326485D01*
X9749753Y-22306787D01*
X9778116Y-22289787D01*
X9808009Y-22275649D01*
X9839143Y-22264509D01*
X9871219Y-22256475D01*
X9903929Y-22251623D01*
X9936956Y-22250000D01*
X11063044Y-22250000D01*
X11096071Y-22251623D01*
X11096071Y-22251623D01*
G37*
D20*
X10500000Y-23025000D03*
D11*
G36*
X11096071Y-20201623D02*
X11128781Y-20206475D01*
X11160857Y-20214509D01*
X11191991Y-20225649D01*
X11221884Y-20239787D01*
X11250247Y-20256787D01*
X11276807Y-20276485D01*
X11301308Y-20298692D01*
X11323515Y-20323193D01*
X11343213Y-20349753D01*
X11360213Y-20378116D01*
X11374351Y-20408009D01*
X11385491Y-20439143D01*
X11393525Y-20471219D01*
X11398377Y-20503929D01*
X11400000Y-20536956D01*
X11400000Y-21413044D01*
X11398377Y-21446071D01*
X11393525Y-21478781D01*
X11385491Y-21510857D01*
X11374351Y-21541991D01*
X11360213Y-21571884D01*
X11343213Y-21600247D01*
X11323515Y-21626807D01*
X11301308Y-21651308D01*
X11276807Y-21673515D01*
X11250247Y-21693213D01*
X11221884Y-21710213D01*
X11191991Y-21724351D01*
X11160857Y-21735491D01*
X11128781Y-21743525D01*
X11096071Y-21748377D01*
X11063044Y-21750000D01*
X9936956Y-21750000D01*
X9903929Y-21748377D01*
X9871219Y-21743525D01*
X9839143Y-21735491D01*
X9808009Y-21724351D01*
X9778116Y-21710213D01*
X9749753Y-21693213D01*
X9723193Y-21673515D01*
X9698692Y-21651308D01*
X9676485Y-21626807D01*
X9656787Y-21600247D01*
X9639787Y-21571884D01*
X9625649Y-21541991D01*
X9614509Y-21510857D01*
X9606475Y-21478781D01*
X9601623Y-21446071D01*
X9600000Y-21413044D01*
X9600000Y-20536956D01*
X9601623Y-20503929D01*
X9606475Y-20471219D01*
X9614509Y-20439143D01*
X9625649Y-20408009D01*
X9639787Y-20378116D01*
X9656787Y-20349753D01*
X9676485Y-20323193D01*
X9698692Y-20298692D01*
X9723193Y-20276485D01*
X9749753Y-20256787D01*
X9778116Y-20239787D01*
X9808009Y-20225649D01*
X9839143Y-20214509D01*
X9871219Y-20206475D01*
X9903929Y-20201623D01*
X9936956Y-20200000D01*
X11063044Y-20200000D01*
X11096071Y-20201623D01*
X11096071Y-20201623D01*
G37*
D20*
X10500000Y-20975000D03*
M02*
