M48
;DRILL file {KiCad (5.0.0)} date 01/09/19 21:45:10
;FORMAT={-:-/ absolute / metric / decimal}
FMAT,2
METRIC,TZ
T1C0.500
T2C0.700
T3C0.800
T4C1.000
T5C1.001
T6C1.016
T7C1.100
T8C1.320
T9C1.780
T10C3.200
%
G90
G05
M71
T1
X109.Y-65.
X110.Y-62.
X110.5Y-83.5
X110.732Y-66.524
X112.Y-79.2
X115.5Y-83.5
X116.Y-54.25
X116.279Y-56.804
X124.75Y-62.
X126.5Y-61.75
X144.25Y-87.
X144.75Y-75.75
X147.Y-86.75
X147.25Y-75.793
X186.Y-70.25
X186.Y-81.5
X188.Y-90.75
X198.25Y-57.75
X193.6Y-146.25
X194.303Y-144.553
X194.303Y-147.947
X196.Y-143.85
X196.Y-148.65
X197.697Y-144.553
X197.697Y-147.947
X198.4Y-146.25
X101.6Y-66.
X102.303Y-64.303
X102.303Y-67.697
X104.Y-63.6
X104.Y-68.4
X105.697Y-64.303
X105.697Y-67.697
X106.4Y-66.
X101.35Y-146.25
X102.053Y-144.553
X102.053Y-147.947
X103.75Y-143.85
X103.75Y-148.65
X105.447Y-144.553
X105.447Y-147.947
X106.15Y-146.25
X181.85Y-66.
X182.553Y-64.303
X182.553Y-67.697
X184.25Y-63.6
X184.25Y-68.4
X185.947Y-64.303
X185.947Y-67.697
X186.65Y-66.
T2
X101.Y-107.5
X127.75Y-133.
X141.25Y-120.
X141.25Y-122.75
X143.5Y-133.
X146.25Y-107.3
X146.25Y-110.
X155.25Y-97.
X155.25Y-99.75
X158.5Y-133.5
X173.25Y-132.75
X187.5Y-78.
X194.Y-96.
X199.Y-96.
X105.08Y-89.5
X107.62Y-89.5
X105.08Y-75.4
X107.62Y-75.4
T3
X139.197Y-60.89
X142.997Y-60.89
X125.95Y-74.2
X128.Y-66.7
X177.275Y-89.589
X179.325Y-82.089
X163.467Y-60.89
X167.267Y-60.89
X120.747Y-74.2
X122.797Y-66.7
X151.737Y-61.
X155.537Y-61.
X110.16Y-81.75
X110.16Y-89.37
X112.7Y-81.75
X112.7Y-89.37
X115.24Y-81.75
X115.24Y-89.37
X117.78Y-81.75
X117.78Y-89.37
T4
X148.26Y-142.71
X153.26Y-142.71
X106.Y-79.
X148.26Y-98.26
X153.26Y-98.26
X148.26Y-120.485
X153.26Y-120.485
X148.26Y-109.372
X153.26Y-109.372
X151.172Y-85.
X156.172Y-85.
X102.54Y-72.86
X102.54Y-75.4
X102.54Y-77.94
X106.Y-86.5
X141.Y-55.5
X143.54Y-55.5
X102.54Y-83.02
X102.54Y-85.56
X102.54Y-88.1
X162.902Y-85.02
X167.902Y-85.02
X106.Y-82.75
X138.37Y-85.02
X143.37Y-85.02
X152.Y-55.5
X154.54Y-55.5
X134.Y-79.
X148.26Y-131.597
X153.26Y-131.597
T5
X138.Y-67.501
X138.Y-78.499
X144.Y-67.501
X144.Y-78.499
X150.54Y-67.501
X150.54Y-78.499
X156.54Y-67.501
X156.54Y-78.499
X162.27Y-67.501
X162.27Y-78.499
X168.27Y-67.501
X168.27Y-78.499
T6
X163.667Y-98.535
X163.667Y-101.075
X163.667Y-103.615
X163.667Y-106.155
X163.667Y-108.695
X166.207Y-98.535
X166.207Y-101.075
X166.207Y-103.615
X166.207Y-106.155
X166.207Y-108.695
X105.Y-121.
X105.Y-123.54
X105.Y-126.08
X105.Y-128.62
X105.Y-131.16
X107.54Y-121.
X107.54Y-123.54
X107.54Y-126.08
X107.54Y-128.62
X107.54Y-131.16
X119.667Y-98.535
X119.667Y-101.075
X119.667Y-103.615
X119.667Y-106.155
X119.667Y-108.695
X122.207Y-98.535
X122.207Y-101.075
X122.207Y-103.615
X122.207Y-106.155
X122.207Y-108.695
X105.Y-98.535
X105.Y-101.075
X105.Y-103.615
X105.Y-106.155
X105.Y-108.695
X107.54Y-98.535
X107.54Y-101.075
X107.54Y-103.615
X107.54Y-106.155
X107.54Y-108.695
X119.667Y-121.
X119.667Y-123.54
X119.667Y-126.08
X119.667Y-128.62
X119.667Y-131.16
X119.667Y-133.7
X119.667Y-136.24
X119.667Y-138.78
X122.207Y-121.
X122.207Y-123.54
X122.207Y-126.08
X122.207Y-128.62
X122.207Y-131.16
X122.207Y-133.7
X122.207Y-136.24
X122.207Y-138.78
X134.29Y-98.535
X134.29Y-101.075
X134.29Y-103.615
X134.29Y-106.155
X134.29Y-108.695
X136.83Y-98.535
X136.83Y-101.075
X136.83Y-103.615
X136.83Y-106.155
X136.83Y-108.695
X193.Y-98.535
X193.Y-101.075
X193.Y-103.615
X193.Y-106.155
X193.Y-108.695
X195.54Y-98.535
X195.54Y-101.075
X195.54Y-103.615
X195.54Y-106.155
X195.54Y-108.695
X178.333Y-121.
X178.333Y-123.54
X178.333Y-126.08
X178.333Y-128.62
X178.333Y-131.16
X178.333Y-133.7
X178.333Y-136.24
X178.333Y-138.78
X180.873Y-121.
X180.873Y-123.54
X180.873Y-126.08
X180.873Y-128.62
X180.873Y-131.16
X180.873Y-133.7
X180.873Y-136.24
X180.873Y-138.78
X193.Y-121.
X193.Y-123.54
X193.Y-126.08
X193.Y-128.62
X193.Y-131.16
X195.54Y-121.
X195.54Y-123.54
X195.54Y-126.08
X195.54Y-128.62
X195.54Y-131.16
X178.333Y-98.535
X178.333Y-101.075
X178.333Y-103.615
X178.333Y-106.155
X178.333Y-108.695
X180.873Y-98.535
X180.873Y-101.075
X180.873Y-103.615
X180.873Y-106.155
X180.873Y-108.695
X134.333Y-121.
X134.333Y-123.54
X134.333Y-126.08
X134.333Y-128.62
X134.333Y-131.16
X134.333Y-133.7
X134.333Y-136.24
X134.333Y-138.78
X136.873Y-121.
X136.873Y-123.54
X136.873Y-126.08
X136.873Y-128.62
X136.873Y-131.16
X136.873Y-133.7
X136.873Y-136.24
X136.873Y-138.78
X163.667Y-121.
X163.667Y-123.54
X163.667Y-126.08
X163.667Y-128.62
X163.667Y-131.16
X163.667Y-133.7
X163.667Y-136.24
X163.667Y-138.78
X166.207Y-121.
X166.207Y-123.54
X166.207Y-126.08
X166.207Y-128.62
X166.207Y-131.16
X166.207Y-133.7
X166.207Y-136.24
X166.207Y-138.78
T7
X173.325Y-80.929
X173.325Y-91.089
X138.46Y-53.
X141.Y-53.
X143.54Y-53.
X162.73Y-53.
X165.27Y-53.
X167.81Y-53.
X151.Y-53.
X153.54Y-53.
X156.08Y-53.
X116.Y-66.
X116.Y-76.16
X134.Y-65.84
X134.Y-76.
T8
X177.Y-56.
X182.Y-56.
X104.Y-55.817
X109.Y-55.817
X114.Y-55.817
X194.Y-68.
X194.Y-73.
X194.Y-79.
X194.Y-84.
X194.Y-89.
X188.Y-56.
X193.Y-56.
X120.553Y-55.817
X125.553Y-55.817
X130.553Y-55.817
T9
X175.6Y-66.
X175.6Y-75.92
X179.Y-66.
X179.Y-75.92
T10
X196.Y-146.25
X104.Y-66.
X103.75Y-146.25
X184.25Y-66.
T0
M30
