%TF.GenerationSoftware,KiCad,Pcbnew,(5.0.0)*%
%TF.CreationDate,2019-01-15T18:54:47+01:00*%
%TF.ProjectId,KicadEuropower,4B696361644575726F706F7765722E6B,Rev B*%
%TF.SameCoordinates,Original*%
%TF.FileFunction,Paste,Top*%
%TF.FilePolarity,Positive*%
%FSLAX46Y46*%
G04 Gerber Fmt 4.6, Leading zero omitted, Abs format (unit mm)*
G04 Created by KiCad (PCBNEW (5.0.0)) date 01/15/19 18:54:47*
%MOMM*%
%LPD*%
G01*
G04 APERTURE LIST*
%ADD10C,1.000000*%
%ADD11C,0.150000*%
%ADD12C,0.200000*%
%ADD13C,1.150000*%
G04 APERTURE END LIST*
D10*
X161500000Y-94000000D02*
X161500000Y-93500000D01*
X161500000Y-93500000D02*
X190500000Y-93500000D01*
X190500000Y-94000000D02*
X161500000Y-94000000D01*
X190500000Y-93500000D02*
X190500000Y-94000000D01*
X110000000Y-94000000D02*
X110000000Y-93500000D01*
X143000000Y-94000000D02*
X110000000Y-94000000D01*
X143000000Y-93500000D02*
X143000000Y-94000000D01*
X110000000Y-93500000D02*
X143000000Y-93500000D01*
D11*
X101666666Y-150000000D02*
G75*
G03X101666666Y-150000000I-1666666J0D01*
G01*
X97500000Y-150000000D02*
X102500000Y-150000000D01*
X100000000Y-147500000D02*
X100000000Y-152500000D01*
D12*
X200000000Y-50000000D02*
X100000000Y-50000000D01*
X200000000Y-150000000D02*
X200000000Y-50000000D01*
X100000000Y-150000000D02*
X200000000Y-150000000D01*
X100000000Y-50000000D02*
X100000000Y-150000000D01*
D11*
G36*
X198474505Y-53451204D02*
X198498773Y-53454804D01*
X198522572Y-53460765D01*
X198545671Y-53469030D01*
X198567850Y-53479520D01*
X198588893Y-53492132D01*
X198608599Y-53506747D01*
X198626777Y-53523223D01*
X198643253Y-53541401D01*
X198657868Y-53561107D01*
X198670480Y-53582150D01*
X198680970Y-53604329D01*
X198689235Y-53627428D01*
X198695196Y-53651227D01*
X198698796Y-53675495D01*
X198700000Y-53699999D01*
X198700000Y-54350001D01*
X198698796Y-54374505D01*
X198695196Y-54398773D01*
X198689235Y-54422572D01*
X198680970Y-54445671D01*
X198670480Y-54467850D01*
X198657868Y-54488893D01*
X198643253Y-54508599D01*
X198626777Y-54526777D01*
X198608599Y-54543253D01*
X198588893Y-54557868D01*
X198567850Y-54570480D01*
X198545671Y-54580970D01*
X198522572Y-54589235D01*
X198498773Y-54595196D01*
X198474505Y-54598796D01*
X198450001Y-54600000D01*
X197549999Y-54600000D01*
X197525495Y-54598796D01*
X197501227Y-54595196D01*
X197477428Y-54589235D01*
X197454329Y-54580970D01*
X197432150Y-54570480D01*
X197411107Y-54557868D01*
X197391401Y-54543253D01*
X197373223Y-54526777D01*
X197356747Y-54508599D01*
X197342132Y-54488893D01*
X197329520Y-54467850D01*
X197319030Y-54445671D01*
X197310765Y-54422572D01*
X197304804Y-54398773D01*
X197301204Y-54374505D01*
X197300000Y-54350001D01*
X197300000Y-53699999D01*
X197301204Y-53675495D01*
X197304804Y-53651227D01*
X197310765Y-53627428D01*
X197319030Y-53604329D01*
X197329520Y-53582150D01*
X197342132Y-53561107D01*
X197356747Y-53541401D01*
X197373223Y-53523223D01*
X197391401Y-53506747D01*
X197411107Y-53492132D01*
X197432150Y-53479520D01*
X197454329Y-53469030D01*
X197477428Y-53460765D01*
X197501227Y-53454804D01*
X197525495Y-53451204D01*
X197549999Y-53450000D01*
X198450001Y-53450000D01*
X198474505Y-53451204D01*
X198474505Y-53451204D01*
G37*
D13*
X198000000Y-54025000D03*
D11*
G36*
X198474505Y-51401204D02*
X198498773Y-51404804D01*
X198522572Y-51410765D01*
X198545671Y-51419030D01*
X198567850Y-51429520D01*
X198588893Y-51442132D01*
X198608599Y-51456747D01*
X198626777Y-51473223D01*
X198643253Y-51491401D01*
X198657868Y-51511107D01*
X198670480Y-51532150D01*
X198680970Y-51554329D01*
X198689235Y-51577428D01*
X198695196Y-51601227D01*
X198698796Y-51625495D01*
X198700000Y-51649999D01*
X198700000Y-52300001D01*
X198698796Y-52324505D01*
X198695196Y-52348773D01*
X198689235Y-52372572D01*
X198680970Y-52395671D01*
X198670480Y-52417850D01*
X198657868Y-52438893D01*
X198643253Y-52458599D01*
X198626777Y-52476777D01*
X198608599Y-52493253D01*
X198588893Y-52507868D01*
X198567850Y-52520480D01*
X198545671Y-52530970D01*
X198522572Y-52539235D01*
X198498773Y-52545196D01*
X198474505Y-52548796D01*
X198450001Y-52550000D01*
X197549999Y-52550000D01*
X197525495Y-52548796D01*
X197501227Y-52545196D01*
X197477428Y-52539235D01*
X197454329Y-52530970D01*
X197432150Y-52520480D01*
X197411107Y-52507868D01*
X197391401Y-52493253D01*
X197373223Y-52476777D01*
X197356747Y-52458599D01*
X197342132Y-52438893D01*
X197329520Y-52417850D01*
X197319030Y-52395671D01*
X197310765Y-52372572D01*
X197304804Y-52348773D01*
X197301204Y-52324505D01*
X197300000Y-52300001D01*
X197300000Y-51649999D01*
X197301204Y-51625495D01*
X197304804Y-51601227D01*
X197310765Y-51577428D01*
X197319030Y-51554329D01*
X197329520Y-51532150D01*
X197342132Y-51511107D01*
X197356747Y-51491401D01*
X197373223Y-51473223D01*
X197391401Y-51456747D01*
X197411107Y-51442132D01*
X197432150Y-51429520D01*
X197454329Y-51419030D01*
X197477428Y-51410765D01*
X197501227Y-51404804D01*
X197525495Y-51401204D01*
X197549999Y-51400000D01*
X198450001Y-51400000D01*
X198474505Y-51401204D01*
X198474505Y-51401204D01*
G37*
D13*
X198000000Y-51975000D03*
D11*
G36*
X124877729Y-62817150D02*
X124901997Y-62820750D01*
X124925796Y-62826711D01*
X124948895Y-62834976D01*
X124971074Y-62845466D01*
X124992117Y-62858078D01*
X125011823Y-62872693D01*
X125030001Y-62889169D01*
X125046477Y-62907347D01*
X125061092Y-62927053D01*
X125073704Y-62948096D01*
X125084194Y-62970275D01*
X125092459Y-62993374D01*
X125098420Y-63017173D01*
X125102020Y-63041441D01*
X125103224Y-63065945D01*
X125103224Y-63965947D01*
X125102020Y-63990451D01*
X125098420Y-64014719D01*
X125092459Y-64038518D01*
X125084194Y-64061617D01*
X125073704Y-64083796D01*
X125061092Y-64104839D01*
X125046477Y-64124545D01*
X125030001Y-64142723D01*
X125011823Y-64159199D01*
X124992117Y-64173814D01*
X124971074Y-64186426D01*
X124948895Y-64196916D01*
X124925796Y-64205181D01*
X124901997Y-64211142D01*
X124877729Y-64214742D01*
X124853225Y-64215946D01*
X124203223Y-64215946D01*
X124178719Y-64214742D01*
X124154451Y-64211142D01*
X124130652Y-64205181D01*
X124107553Y-64196916D01*
X124085374Y-64186426D01*
X124064331Y-64173814D01*
X124044625Y-64159199D01*
X124026447Y-64142723D01*
X124009971Y-64124545D01*
X123995356Y-64104839D01*
X123982744Y-64083796D01*
X123972254Y-64061617D01*
X123963989Y-64038518D01*
X123958028Y-64014719D01*
X123954428Y-63990451D01*
X123953224Y-63965947D01*
X123953224Y-63065945D01*
X123954428Y-63041441D01*
X123958028Y-63017173D01*
X123963989Y-62993374D01*
X123972254Y-62970275D01*
X123982744Y-62948096D01*
X123995356Y-62927053D01*
X124009971Y-62907347D01*
X124026447Y-62889169D01*
X124044625Y-62872693D01*
X124064331Y-62858078D01*
X124085374Y-62845466D01*
X124107553Y-62834976D01*
X124130652Y-62826711D01*
X124154451Y-62820750D01*
X124178719Y-62817150D01*
X124203223Y-62815946D01*
X124853225Y-62815946D01*
X124877729Y-62817150D01*
X124877729Y-62817150D01*
G37*
D13*
X124528224Y-63515946D03*
D11*
G36*
X126927729Y-62817150D02*
X126951997Y-62820750D01*
X126975796Y-62826711D01*
X126998895Y-62834976D01*
X127021074Y-62845466D01*
X127042117Y-62858078D01*
X127061823Y-62872693D01*
X127080001Y-62889169D01*
X127096477Y-62907347D01*
X127111092Y-62927053D01*
X127123704Y-62948096D01*
X127134194Y-62970275D01*
X127142459Y-62993374D01*
X127148420Y-63017173D01*
X127152020Y-63041441D01*
X127153224Y-63065945D01*
X127153224Y-63965947D01*
X127152020Y-63990451D01*
X127148420Y-64014719D01*
X127142459Y-64038518D01*
X127134194Y-64061617D01*
X127123704Y-64083796D01*
X127111092Y-64104839D01*
X127096477Y-64124545D01*
X127080001Y-64142723D01*
X127061823Y-64159199D01*
X127042117Y-64173814D01*
X127021074Y-64186426D01*
X126998895Y-64196916D01*
X126975796Y-64205181D01*
X126951997Y-64211142D01*
X126927729Y-64214742D01*
X126903225Y-64215946D01*
X126253223Y-64215946D01*
X126228719Y-64214742D01*
X126204451Y-64211142D01*
X126180652Y-64205181D01*
X126157553Y-64196916D01*
X126135374Y-64186426D01*
X126114331Y-64173814D01*
X126094625Y-64159199D01*
X126076447Y-64142723D01*
X126059971Y-64124545D01*
X126045356Y-64104839D01*
X126032744Y-64083796D01*
X126022254Y-64061617D01*
X126013989Y-64038518D01*
X126008028Y-64014719D01*
X126004428Y-63990451D01*
X126003224Y-63965947D01*
X126003224Y-63065945D01*
X126004428Y-63041441D01*
X126008028Y-63017173D01*
X126013989Y-62993374D01*
X126022254Y-62970275D01*
X126032744Y-62948096D01*
X126045356Y-62927053D01*
X126059971Y-62907347D01*
X126076447Y-62889169D01*
X126094625Y-62872693D01*
X126114331Y-62858078D01*
X126135374Y-62845466D01*
X126157553Y-62834976D01*
X126180652Y-62826711D01*
X126204451Y-62820750D01*
X126228719Y-62817150D01*
X126253223Y-62815946D01*
X126903225Y-62815946D01*
X126927729Y-62817150D01*
X126927729Y-62817150D01*
G37*
D13*
X126578224Y-63515946D03*
D11*
G36*
X110374505Y-62817150D02*
X110398773Y-62820750D01*
X110422572Y-62826711D01*
X110445671Y-62834976D01*
X110467850Y-62845466D01*
X110488893Y-62858078D01*
X110508599Y-62872693D01*
X110526777Y-62889169D01*
X110543253Y-62907347D01*
X110557868Y-62927053D01*
X110570480Y-62948096D01*
X110580970Y-62970275D01*
X110589235Y-62993374D01*
X110595196Y-63017173D01*
X110598796Y-63041441D01*
X110600000Y-63065945D01*
X110600000Y-63965947D01*
X110598796Y-63990451D01*
X110595196Y-64014719D01*
X110589235Y-64038518D01*
X110580970Y-64061617D01*
X110570480Y-64083796D01*
X110557868Y-64104839D01*
X110543253Y-64124545D01*
X110526777Y-64142723D01*
X110508599Y-64159199D01*
X110488893Y-64173814D01*
X110467850Y-64186426D01*
X110445671Y-64196916D01*
X110422572Y-64205181D01*
X110398773Y-64211142D01*
X110374505Y-64214742D01*
X110350001Y-64215946D01*
X109699999Y-64215946D01*
X109675495Y-64214742D01*
X109651227Y-64211142D01*
X109627428Y-64205181D01*
X109604329Y-64196916D01*
X109582150Y-64186426D01*
X109561107Y-64173814D01*
X109541401Y-64159199D01*
X109523223Y-64142723D01*
X109506747Y-64124545D01*
X109492132Y-64104839D01*
X109479520Y-64083796D01*
X109469030Y-64061617D01*
X109460765Y-64038518D01*
X109454804Y-64014719D01*
X109451204Y-63990451D01*
X109450000Y-63965947D01*
X109450000Y-63065945D01*
X109451204Y-63041441D01*
X109454804Y-63017173D01*
X109460765Y-62993374D01*
X109469030Y-62970275D01*
X109479520Y-62948096D01*
X109492132Y-62927053D01*
X109506747Y-62907347D01*
X109523223Y-62889169D01*
X109541401Y-62872693D01*
X109561107Y-62858078D01*
X109582150Y-62845466D01*
X109604329Y-62834976D01*
X109627428Y-62826711D01*
X109651227Y-62820750D01*
X109675495Y-62817150D01*
X109699999Y-62815946D01*
X110350001Y-62815946D01*
X110374505Y-62817150D01*
X110374505Y-62817150D01*
G37*
D13*
X110025000Y-63515946D03*
D11*
G36*
X108324505Y-62817150D02*
X108348773Y-62820750D01*
X108372572Y-62826711D01*
X108395671Y-62834976D01*
X108417850Y-62845466D01*
X108438893Y-62858078D01*
X108458599Y-62872693D01*
X108476777Y-62889169D01*
X108493253Y-62907347D01*
X108507868Y-62927053D01*
X108520480Y-62948096D01*
X108530970Y-62970275D01*
X108539235Y-62993374D01*
X108545196Y-63017173D01*
X108548796Y-63041441D01*
X108550000Y-63065945D01*
X108550000Y-63965947D01*
X108548796Y-63990451D01*
X108545196Y-64014719D01*
X108539235Y-64038518D01*
X108530970Y-64061617D01*
X108520480Y-64083796D01*
X108507868Y-64104839D01*
X108493253Y-64124545D01*
X108476777Y-64142723D01*
X108458599Y-64159199D01*
X108438893Y-64173814D01*
X108417850Y-64186426D01*
X108395671Y-64196916D01*
X108372572Y-64205181D01*
X108348773Y-64211142D01*
X108324505Y-64214742D01*
X108300001Y-64215946D01*
X107649999Y-64215946D01*
X107625495Y-64214742D01*
X107601227Y-64211142D01*
X107577428Y-64205181D01*
X107554329Y-64196916D01*
X107532150Y-64186426D01*
X107511107Y-64173814D01*
X107491401Y-64159199D01*
X107473223Y-64142723D01*
X107456747Y-64124545D01*
X107442132Y-64104839D01*
X107429520Y-64083796D01*
X107419030Y-64061617D01*
X107410765Y-64038518D01*
X107404804Y-64014719D01*
X107401204Y-63990451D01*
X107400000Y-63965947D01*
X107400000Y-63065945D01*
X107401204Y-63041441D01*
X107404804Y-63017173D01*
X107410765Y-62993374D01*
X107419030Y-62970275D01*
X107429520Y-62948096D01*
X107442132Y-62927053D01*
X107456747Y-62907347D01*
X107473223Y-62889169D01*
X107491401Y-62872693D01*
X107511107Y-62858078D01*
X107532150Y-62845466D01*
X107554329Y-62834976D01*
X107577428Y-62826711D01*
X107601227Y-62820750D01*
X107625495Y-62817150D01*
X107649999Y-62815946D01*
X108300001Y-62815946D01*
X108324505Y-62817150D01*
X108324505Y-62817150D01*
G37*
D13*
X107975000Y-63515946D03*
D11*
G36*
X186474505Y-87401204D02*
X186498773Y-87404804D01*
X186522572Y-87410765D01*
X186545671Y-87419030D01*
X186567850Y-87429520D01*
X186588893Y-87442132D01*
X186608599Y-87456747D01*
X186626777Y-87473223D01*
X186643253Y-87491401D01*
X186657868Y-87511107D01*
X186670480Y-87532150D01*
X186680970Y-87554329D01*
X186689235Y-87577428D01*
X186695196Y-87601227D01*
X186698796Y-87625495D01*
X186700000Y-87649999D01*
X186700000Y-88300001D01*
X186698796Y-88324505D01*
X186695196Y-88348773D01*
X186689235Y-88372572D01*
X186680970Y-88395671D01*
X186670480Y-88417850D01*
X186657868Y-88438893D01*
X186643253Y-88458599D01*
X186626777Y-88476777D01*
X186608599Y-88493253D01*
X186588893Y-88507868D01*
X186567850Y-88520480D01*
X186545671Y-88530970D01*
X186522572Y-88539235D01*
X186498773Y-88545196D01*
X186474505Y-88548796D01*
X186450001Y-88550000D01*
X185549999Y-88550000D01*
X185525495Y-88548796D01*
X185501227Y-88545196D01*
X185477428Y-88539235D01*
X185454329Y-88530970D01*
X185432150Y-88520480D01*
X185411107Y-88507868D01*
X185391401Y-88493253D01*
X185373223Y-88476777D01*
X185356747Y-88458599D01*
X185342132Y-88438893D01*
X185329520Y-88417850D01*
X185319030Y-88395671D01*
X185310765Y-88372572D01*
X185304804Y-88348773D01*
X185301204Y-88324505D01*
X185300000Y-88300001D01*
X185300000Y-87649999D01*
X185301204Y-87625495D01*
X185304804Y-87601227D01*
X185310765Y-87577428D01*
X185319030Y-87554329D01*
X185329520Y-87532150D01*
X185342132Y-87511107D01*
X185356747Y-87491401D01*
X185373223Y-87473223D01*
X185391401Y-87456747D01*
X185411107Y-87442132D01*
X185432150Y-87429520D01*
X185454329Y-87419030D01*
X185477428Y-87410765D01*
X185501227Y-87404804D01*
X185525495Y-87401204D01*
X185549999Y-87400000D01*
X186450001Y-87400000D01*
X186474505Y-87401204D01*
X186474505Y-87401204D01*
G37*
D13*
X186000000Y-87975000D03*
D11*
G36*
X186474505Y-89451204D02*
X186498773Y-89454804D01*
X186522572Y-89460765D01*
X186545671Y-89469030D01*
X186567850Y-89479520D01*
X186588893Y-89492132D01*
X186608599Y-89506747D01*
X186626777Y-89523223D01*
X186643253Y-89541401D01*
X186657868Y-89561107D01*
X186670480Y-89582150D01*
X186680970Y-89604329D01*
X186689235Y-89627428D01*
X186695196Y-89651227D01*
X186698796Y-89675495D01*
X186700000Y-89699999D01*
X186700000Y-90350001D01*
X186698796Y-90374505D01*
X186695196Y-90398773D01*
X186689235Y-90422572D01*
X186680970Y-90445671D01*
X186670480Y-90467850D01*
X186657868Y-90488893D01*
X186643253Y-90508599D01*
X186626777Y-90526777D01*
X186608599Y-90543253D01*
X186588893Y-90557868D01*
X186567850Y-90570480D01*
X186545671Y-90580970D01*
X186522572Y-90589235D01*
X186498773Y-90595196D01*
X186474505Y-90598796D01*
X186450001Y-90600000D01*
X185549999Y-90600000D01*
X185525495Y-90598796D01*
X185501227Y-90595196D01*
X185477428Y-90589235D01*
X185454329Y-90580970D01*
X185432150Y-90570480D01*
X185411107Y-90557868D01*
X185391401Y-90543253D01*
X185373223Y-90526777D01*
X185356747Y-90508599D01*
X185342132Y-90488893D01*
X185329520Y-90467850D01*
X185319030Y-90445671D01*
X185310765Y-90422572D01*
X185304804Y-90398773D01*
X185301204Y-90374505D01*
X185300000Y-90350001D01*
X185300000Y-89699999D01*
X185301204Y-89675495D01*
X185304804Y-89651227D01*
X185310765Y-89627428D01*
X185319030Y-89604329D01*
X185329520Y-89582150D01*
X185342132Y-89561107D01*
X185356747Y-89541401D01*
X185373223Y-89523223D01*
X185391401Y-89506747D01*
X185411107Y-89492132D01*
X185432150Y-89479520D01*
X185454329Y-89469030D01*
X185477428Y-89460765D01*
X185501227Y-89454804D01*
X185525495Y-89451204D01*
X185549999Y-89450000D01*
X186450001Y-89450000D01*
X186474505Y-89451204D01*
X186474505Y-89451204D01*
G37*
D13*
X186000000Y-90025000D03*
D11*
G36*
X186474505Y-79451204D02*
X186498773Y-79454804D01*
X186522572Y-79460765D01*
X186545671Y-79469030D01*
X186567850Y-79479520D01*
X186588893Y-79492132D01*
X186608599Y-79506747D01*
X186626777Y-79523223D01*
X186643253Y-79541401D01*
X186657868Y-79561107D01*
X186670480Y-79582150D01*
X186680970Y-79604329D01*
X186689235Y-79627428D01*
X186695196Y-79651227D01*
X186698796Y-79675495D01*
X186700000Y-79699999D01*
X186700000Y-80350001D01*
X186698796Y-80374505D01*
X186695196Y-80398773D01*
X186689235Y-80422572D01*
X186680970Y-80445671D01*
X186670480Y-80467850D01*
X186657868Y-80488893D01*
X186643253Y-80508599D01*
X186626777Y-80526777D01*
X186608599Y-80543253D01*
X186588893Y-80557868D01*
X186567850Y-80570480D01*
X186545671Y-80580970D01*
X186522572Y-80589235D01*
X186498773Y-80595196D01*
X186474505Y-80598796D01*
X186450001Y-80600000D01*
X185549999Y-80600000D01*
X185525495Y-80598796D01*
X185501227Y-80595196D01*
X185477428Y-80589235D01*
X185454329Y-80580970D01*
X185432150Y-80570480D01*
X185411107Y-80557868D01*
X185391401Y-80543253D01*
X185373223Y-80526777D01*
X185356747Y-80508599D01*
X185342132Y-80488893D01*
X185329520Y-80467850D01*
X185319030Y-80445671D01*
X185310765Y-80422572D01*
X185304804Y-80398773D01*
X185301204Y-80374505D01*
X185300000Y-80350001D01*
X185300000Y-79699999D01*
X185301204Y-79675495D01*
X185304804Y-79651227D01*
X185310765Y-79627428D01*
X185319030Y-79604329D01*
X185329520Y-79582150D01*
X185342132Y-79561107D01*
X185356747Y-79541401D01*
X185373223Y-79523223D01*
X185391401Y-79506747D01*
X185411107Y-79492132D01*
X185432150Y-79479520D01*
X185454329Y-79469030D01*
X185477428Y-79460765D01*
X185501227Y-79454804D01*
X185525495Y-79451204D01*
X185549999Y-79450000D01*
X186450001Y-79450000D01*
X186474505Y-79451204D01*
X186474505Y-79451204D01*
G37*
D13*
X186000000Y-80025000D03*
D11*
G36*
X186474505Y-77401204D02*
X186498773Y-77404804D01*
X186522572Y-77410765D01*
X186545671Y-77419030D01*
X186567850Y-77429520D01*
X186588893Y-77442132D01*
X186608599Y-77456747D01*
X186626777Y-77473223D01*
X186643253Y-77491401D01*
X186657868Y-77511107D01*
X186670480Y-77532150D01*
X186680970Y-77554329D01*
X186689235Y-77577428D01*
X186695196Y-77601227D01*
X186698796Y-77625495D01*
X186700000Y-77649999D01*
X186700000Y-78300001D01*
X186698796Y-78324505D01*
X186695196Y-78348773D01*
X186689235Y-78372572D01*
X186680970Y-78395671D01*
X186670480Y-78417850D01*
X186657868Y-78438893D01*
X186643253Y-78458599D01*
X186626777Y-78476777D01*
X186608599Y-78493253D01*
X186588893Y-78507868D01*
X186567850Y-78520480D01*
X186545671Y-78530970D01*
X186522572Y-78539235D01*
X186498773Y-78545196D01*
X186474505Y-78548796D01*
X186450001Y-78550000D01*
X185549999Y-78550000D01*
X185525495Y-78548796D01*
X185501227Y-78545196D01*
X185477428Y-78539235D01*
X185454329Y-78530970D01*
X185432150Y-78520480D01*
X185411107Y-78507868D01*
X185391401Y-78493253D01*
X185373223Y-78476777D01*
X185356747Y-78458599D01*
X185342132Y-78438893D01*
X185329520Y-78417850D01*
X185319030Y-78395671D01*
X185310765Y-78372572D01*
X185304804Y-78348773D01*
X185301204Y-78324505D01*
X185300000Y-78300001D01*
X185300000Y-77649999D01*
X185301204Y-77625495D01*
X185304804Y-77601227D01*
X185310765Y-77577428D01*
X185319030Y-77554329D01*
X185329520Y-77532150D01*
X185342132Y-77511107D01*
X185356747Y-77491401D01*
X185373223Y-77473223D01*
X185391401Y-77456747D01*
X185411107Y-77442132D01*
X185432150Y-77429520D01*
X185454329Y-77419030D01*
X185477428Y-77410765D01*
X185501227Y-77404804D01*
X185525495Y-77401204D01*
X185549999Y-77400000D01*
X186450001Y-77400000D01*
X186474505Y-77401204D01*
X186474505Y-77401204D01*
G37*
D13*
X186000000Y-77975000D03*
D11*
G36*
X186474505Y-73426204D02*
X186498773Y-73429804D01*
X186522572Y-73435765D01*
X186545671Y-73444030D01*
X186567850Y-73454520D01*
X186588893Y-73467132D01*
X186608599Y-73481747D01*
X186626777Y-73498223D01*
X186643253Y-73516401D01*
X186657868Y-73536107D01*
X186670480Y-73557150D01*
X186680970Y-73579329D01*
X186689235Y-73602428D01*
X186695196Y-73626227D01*
X186698796Y-73650495D01*
X186700000Y-73674999D01*
X186700000Y-74325001D01*
X186698796Y-74349505D01*
X186695196Y-74373773D01*
X186689235Y-74397572D01*
X186680970Y-74420671D01*
X186670480Y-74442850D01*
X186657868Y-74463893D01*
X186643253Y-74483599D01*
X186626777Y-74501777D01*
X186608599Y-74518253D01*
X186588893Y-74532868D01*
X186567850Y-74545480D01*
X186545671Y-74555970D01*
X186522572Y-74564235D01*
X186498773Y-74570196D01*
X186474505Y-74573796D01*
X186450001Y-74575000D01*
X185549999Y-74575000D01*
X185525495Y-74573796D01*
X185501227Y-74570196D01*
X185477428Y-74564235D01*
X185454329Y-74555970D01*
X185432150Y-74545480D01*
X185411107Y-74532868D01*
X185391401Y-74518253D01*
X185373223Y-74501777D01*
X185356747Y-74483599D01*
X185342132Y-74463893D01*
X185329520Y-74442850D01*
X185319030Y-74420671D01*
X185310765Y-74397572D01*
X185304804Y-74373773D01*
X185301204Y-74349505D01*
X185300000Y-74325001D01*
X185300000Y-73674999D01*
X185301204Y-73650495D01*
X185304804Y-73626227D01*
X185310765Y-73602428D01*
X185319030Y-73579329D01*
X185329520Y-73557150D01*
X185342132Y-73536107D01*
X185356747Y-73516401D01*
X185373223Y-73498223D01*
X185391401Y-73481747D01*
X185411107Y-73467132D01*
X185432150Y-73454520D01*
X185454329Y-73444030D01*
X185477428Y-73435765D01*
X185501227Y-73429804D01*
X185525495Y-73426204D01*
X185549999Y-73425000D01*
X186450001Y-73425000D01*
X186474505Y-73426204D01*
X186474505Y-73426204D01*
G37*
D13*
X186000000Y-74000000D03*
D11*
G36*
X186474505Y-71376204D02*
X186498773Y-71379804D01*
X186522572Y-71385765D01*
X186545671Y-71394030D01*
X186567850Y-71404520D01*
X186588893Y-71417132D01*
X186608599Y-71431747D01*
X186626777Y-71448223D01*
X186643253Y-71466401D01*
X186657868Y-71486107D01*
X186670480Y-71507150D01*
X186680970Y-71529329D01*
X186689235Y-71552428D01*
X186695196Y-71576227D01*
X186698796Y-71600495D01*
X186700000Y-71624999D01*
X186700000Y-72275001D01*
X186698796Y-72299505D01*
X186695196Y-72323773D01*
X186689235Y-72347572D01*
X186680970Y-72370671D01*
X186670480Y-72392850D01*
X186657868Y-72413893D01*
X186643253Y-72433599D01*
X186626777Y-72451777D01*
X186608599Y-72468253D01*
X186588893Y-72482868D01*
X186567850Y-72495480D01*
X186545671Y-72505970D01*
X186522572Y-72514235D01*
X186498773Y-72520196D01*
X186474505Y-72523796D01*
X186450001Y-72525000D01*
X185549999Y-72525000D01*
X185525495Y-72523796D01*
X185501227Y-72520196D01*
X185477428Y-72514235D01*
X185454329Y-72505970D01*
X185432150Y-72495480D01*
X185411107Y-72482868D01*
X185391401Y-72468253D01*
X185373223Y-72451777D01*
X185356747Y-72433599D01*
X185342132Y-72413893D01*
X185329520Y-72392850D01*
X185319030Y-72370671D01*
X185310765Y-72347572D01*
X185304804Y-72323773D01*
X185301204Y-72299505D01*
X185300000Y-72275001D01*
X185300000Y-71624999D01*
X185301204Y-71600495D01*
X185304804Y-71576227D01*
X185310765Y-71552428D01*
X185319030Y-71529329D01*
X185329520Y-71507150D01*
X185342132Y-71486107D01*
X185356747Y-71466401D01*
X185373223Y-71448223D01*
X185391401Y-71431747D01*
X185411107Y-71417132D01*
X185432150Y-71404520D01*
X185454329Y-71394030D01*
X185477428Y-71385765D01*
X185501227Y-71379804D01*
X185525495Y-71376204D01*
X185549999Y-71375000D01*
X186450001Y-71375000D01*
X186474505Y-71376204D01*
X186474505Y-71376204D01*
G37*
D13*
X186000000Y-71950000D03*
M02*
